<?xml version="1.0" encoding="UTF-8" standalone="no"?>
<svg
   xmlns:dc="http://purl.org/dc/elements/1.1/"
   xmlns:cc="http://creativecommons.org/ns#"
   xmlns:rdf="http://www.w3.org/1999/02/22-rdf-syntax-ns#"
   xmlns:svg="http://www.w3.org/2000/svg"
   xmlns="http://www.w3.org/2000/svg"
   viewBox="0 0 89.644783 55.09005"
   height="55.09005"
   width="89.644783"
   id="svg10"
   version="1.1">
  <metadata
     id="metadata16">
    <rdf:RDF>
      <cc:Work
         rdf:about="">
        <dc:format>image/svg+xml</dc:format>
        <dc:type
           rdf:resource="http://purl.org/dc/dcmitype/StillImage" />
        <dc:title></dc:title>
      </cc:Work>
    </rdf:RDF>
  </metadata>
  <defs
     id="defs14" />
  <g
     transform="translate(8.409116,-1.9549759)"
     id="g18">
    <path
       d="m 67.496887,12.608468 c -0.439431,-0.45325 -1.162604,-0.45325 -1.601114,0 -0.493784,0.491941 -0.434825,1.341324 0.176878,1.747591 0.374023,0.247813 0.873335,0.247813 1.246437,0 0.60986,-0.406267 0.66974,-1.25565 0.177799,-1.747591 M 66.033038,8.7586088 c -3.02535,-0.708433 -5.743006,2.0101442 -5.032731,5.0336512 0.360205,1.539391 1.583611,2.761876 3.124844,3.123001 3.02535,0.711197 5.744848,-2.009223 5.03273,-5.034572 C 68.794913,10.340377 67.572428,9.1188134 66.033038,8.7586088 M 46.059649,25.789559 c -1.971452,-0.7287 -2.733317,-0.582223 -5.253828,-0.547216 -1.746669,0.02211 -1.810235,-0.03777 -3.803797,-0.03777 -0.616309,0 -0.842934,2.952572 1.385544,3.566117 0.975593,0.268081 2.02949,0.437589 2.763718,1.187478 0.325198,0.331646 0.507603,0.8328 -0.243207,0.8328 h -5.532963 c -0.968223,0 -1.882092,0.02211 -2.621847,-0.604333 -1.117463,-0.94427 -1.638885,-2.243217 -2.198077,-3.532031 -0.580381,-1.340403 -1.205902,-2.660539 -1.941051,-3.923558 -1.461086,-2.511298 -3.392924,-4.783074 -5.98437,-6.171382 -3.235393,-1.735615 -8.7269,-2.596052 -13.0751494,0.74344 -4.5822441,3.518213 -3.6011243,10.108759 0.4071877,13.333096 1.5826887,1.274074 3.6462647,1.80655 5.6748337,1.686789 3.964093,-0.229388 6.887185,-3.150638 6.161248,-6.746235 -0.242285,-1.203139 -0.94427,-2.342712 -2.001852,-2.963627 -0.751732,-0.439431 -1.643491,-0.59512 -2.514062,-0.596963 -0.93598,-0.0028 -1.931839,0.189775 -2.605265,0.841092 -0.795951,0.771077 -0.924924,2.13359 -0.288348,3.04101 0.351913,0.502997 0.924924,0.927688 0.828194,1.58269 -0.06633,0.443116 -0.432061,0.772919 -0.868728,0.870571 -0.743441,0.165823 -1.424236,-0.257947 -1.926312,-0.775684 -1.287892,-1.326584 -1.691395,-3.438065 -0.982041,-5.146964 0.926767,-2.23769 3.504394,-3.468466 5.92449,-3.388318 3.120237,0.105022 6.061754,2.16307 7.340434,5.010621 1.279602,2.849393 0.896366,6.345496 -0.866886,8.923123 -3.91803,5.726424 -13.593806,5.050234 -18.0894541,0.221098 C 2.9281475,30.165446 1.3961266,27.225771 1.6107754,21.750846 1.7618586,17.882563 3.9940214,14.071396 6.8397295,11.390589 11.476327,7.0211516 17.582301,4.0335726 23.796059,2.7456801 c 3.773397,-0.7802897 7.669317,-0.962695 11.49983,-0.5803807 3.378185,0.3353311 6.736102,0.9544038 9.982549,1.9594759 1.612169,0.5020754 3.197622,1.0990384 4.730564,1.8028652 1.352379,0.6209153 3.124843,1.2980262 4.17782,2.3703487 0,-1.9419724 -0.07554,-4.0755625 -0.07554,-5.5615215 0,-0.5665621 0.596042,-0.9497977 1.106408,-0.7075117 2.197156,1.0198118 7.402158,3.4785994 10.872466,5.0658947 4.652259,2.125299 4.981141,7.1396043 5.143279,11.5855053 0.0037,0.09949 0.0083,0.201751 -0.03593,0.29019 -0.146477,0.30493 -0.930452,0.222019 -1.217878,0.225704 -0.556429,0.0055 -1.395678,0.0018 -1.952106,0.02764 -1.110094,0.0479 -2.191629,0.02764 -3.302643,-0.02764 -2.053443,-0.09949 -4.038713,-1.015206 -5.368061,-2.127142 -0.132659,-0.112391 -0.561956,-0.233995 -0.763708,-0.02395 -0.210042,0.216491 -0.138186,0.555507 -0.02487,0.671583 0.762786,0.769235 1.589137,1.266704 2.550911,1.763252 1.221564,0.627364 2.553676,0.786739 3.904212,0.865044 1.446346,0.08568 2.902825,0.06357 4.346407,-0.08383 1.204981,-0.123446 1.51636,-0.206357 0.32704,0.677111 -1.044685,0.776605 -2.256115,1.334876 -3.485048,1.747591 -1.763252,0.600648 -3.624155,0.896366 -5.482295,0.947955 -1.126676,0.0304 -2.253351,-0.02764 -3.370814,-0.173193 -0.578539,-0.07186 -1.152471,-0.176878 -1.732852,-0.235837 -0.470753,-0.0479 -0.95901,-0.135422 -1.42792,-0.03409 -0.426534,0.09305 -0.819903,0.323355 -1.087984,0.670662 -0.367574,0.479966 -0.494705,1.797338 -0.281899,2.368507 0.409951,1.106408 1.311845,1.749433 2.264406,2.316916 1.031788,0.613546 2.388773,0.823588 2.653169,1.996326 0.05435,0.245049 -2.139118,0.251498 -2.387852,0.247813 h -2.91941 c 0,0 -1.586374,0.03777 -2.204526,-0.187011 -0.01935,-0.0055 -0.03593,-0.01474 -0.0562,-0.02487 -0.335331,-0.180563 -0.480886,-0.630127 -0.59512,-0.970986 -0.163055,-0.479971 -0.44864,-0.959936 -0.795947,-1.456484 -0.659607,-0.941507 -1.67297,-1.971452 -2.726868,-2.362058 M 68.166628,12.835093 c 0,1.711662 -1.385544,3.097206 -3.096286,3.097206 -1.70982,0 -3.095363,-1.385544 -3.095363,-3.097206 0,-1.708899 1.385543,-3.0944431 3.095363,-3.0944431 1.710742,0 3.096286,1.3855441 3.096286,3.0944431"
       fill="#30ba78"
       id="path1006"
       style="stroke-width:1.0855" />
  </g>
</svg>
