<?xml version="1.0" encoding="UTF-8" standalone="no"?>
<svg
   xmlns:dc="http://purl.org/dc/elements/1.1/"
   xmlns:cc="http://creativecommons.org/ns#"
   xmlns:rdf="http://www.w3.org/1999/02/22-rdf-syntax-ns#"
   xmlns:svg="http://www.w3.org/2000/svg"
   xmlns="http://www.w3.org/2000/svg"
   height="16"
   id="svg7384"
   version="1.1"
   width="16">
  <metadata
     id="metadata90">
    <rdf:RDF>
      <cc:Work
         rdf:about="">
        <dc:format>image/svg+xml</dc:format>
        <dc:type
           rdf:resource="http://purl.org/dc/dcmitype/StillImage" />
        <dc:title>Gnome Symbolic Icon Theme</dc:title>
      </cc:Work>
    </rdf:RDF>
  </metadata>
  <title
     id="title9167">Gnome Symbolic Icon Theme</title>
  <defs
     id="defs7386" />
  <g
     id="layer9"
     style="display:inline"
     transform="translate(-123.00021,-235)">
    <g
       id="layer1"
       transform="matrix(0.90161271,0,0,0.90161271,119.46834,-660.42053)">
      <g
         id="g4581"
         transform="matrix(0.14624875,0,0,0.14727874,-117.88875,1029.4749)">
        <path
           id="path835"
           d="m 848.0365,-246.76198 c 0,7.53078 0,30.12312 7.58382,37.6539 l -7.58382,15.06155 -15.16763,15.06156 c 0,7.53078 9.46334,15.06156 15.16763,15.06156 l 22.75145,-15.06156 v 37.6539 l -15.16763,15.06156 h 98.58961 v -45.18468 c 0,-15.06155 -22.75145,-37.65389 -37.91908,-37.65389 h -15.16764 c 14.5091,-14.44501 21.59314,-21.3915 30.33527,-30.12312 -22.75145,0 -37.91908,7.53078 -45.5029,22.59234 h -7.58382 c 0,-7.53078 -15.16763,-30.12312 -30.33526,-30.12312 z m 7.58382,7.53078 c 15.16763,7.53078 15.16763,15.06156 22.75144,30.12312 h 7.58382 c 7.58382,-15.06156 15.16763,-22.59234 30.33527,-22.59234 l -22.75145,22.59234 c 0,7.53078 0,7.53078 7.58381,7.53078 h 15.16764 c 15.16763,0 30.33526,15.06155 30.33526,30.12311 v 37.6539 h -15.16763 v -30.12312 l -7.58382,30.12312 H 908.70703 893.5394 v -30.12312 l -7.58382,30.12312 h -15.16763 l 7.58381,-7.53078 v -46.50845 l -30.33526,16.38533 c -3.31346,0 -7.58382,-3.73437 -7.58382,-7.53078 l 15.16764,-15.06156 7.58381,-15.06155 c -7.58381,-7.53078 -7.58381,-22.59234 -7.58381,-30.12312 z m 53.08671,105.43091 7.58382,-7.53078 v -22.59234 h -7.58382 z m -34.12717,-67.77701 c -2.09422,0 -3.79191,1.68582 -3.79191,3.76539 0,2.07956 1.69769,3.76538 3.79191,3.76538 2.09421,0 3.7919,-1.68582 3.7919,-3.76538 0,-2.07957 -1.69769,-3.76539 -3.7919,-3.76539 z"
           style="fill:#bebebe;fill-opacity:1;stroke:none;stroke-width:7.55725145px;stroke-linecap:butt;stroke-linejoin:miter;stroke-opacity:1" />
      </g>
    </g>
  </g>
</svg>
