<svg height="32" width="32" xmlns="http://www.w3.org/2000/svg"><linearGradient id="a" gradientUnits="userSpaceOnUse" x1="16" x2="16" y1="30" y2="2"><stop offset="0" stop-color="#173f4f"/><stop offset="1" stop-color="#516f7b"/></linearGradient><linearGradient id="b" gradientUnits="userSpaceOnUse" x1="16" x2="16" y1="30" y2="2"><stop offset="0" stop-color="#73ba25"/><stop offset="1" stop-color="#81c13b"/></linearGradient><linearGradient id="d" gradientUnits="userSpaceOnUse" x1="16" x2="16" y1="20" y2="12"><stop offset="0" stop-color="#dedede"/><stop offset="1" stop-color="#ececec"/></linearGradient><linearGradient id="c" gradientUnits="userSpaceOnUse" x1="16" x2="25.899" y1="16" y2="25.899"><stop offset="0" stop-color="#292c2f"/><stop offset="1" stop-opacity="0"/></linearGradient><path d="M16 2A14 14 0 0 0 2 16a14 14 0 0 0 14 14 14 14 0 0 0 14-14A14 14 0 0 0 16 2zm0 12a2 2 0 0 1 2 2 2 2 0 0 1-2 2 2 2 0 0 1-2-2 2 2 0 0 1 2-2z" fill="url(#a)"/><path d="M16 2C8.268 2 2 8.268 2 16s6.269 14 14 14 14-6.268 14-14S23.731 2 16 2zm.066 1.94c6.662 0 12.067 5.4 12.067 12.06 0 6.662-5.406 12.06-12.067 12.06a12.026 12.026 0 0 1-9.033-4.072c.909-.705 2.429-.533 4.301-.32.897.102 1.92.219 2.975.242 2.949.017 6.121-.52 8.08-1.377 1.266-.555 2.077-.921 2.584-1.383.182-.15.279-.4.377-.66l.066-.174a7.8 7.8 0 0 0 .252-.908c.024-.108.035-.223-.041-.283l-.273.05c-.86.516-3.007 1.498-5.018 1.538-2.492.052-7.515-2.51-8.04-2.78l-.05-.062c-.125-.3-.878-2.083-1.037-2.459a39.028 39.028 0 0 0 3.377 2A2 2 0 0 1 14 16a2 2 0 0 1 1.613-1.96c0-.048-.011-.092-.01-.14a3.672 3.672 0 0 1 1.18-2.582 3.663 3.663 0 0 1 2.47-.996c.062 0 .124-.002.186 0a3.724 3.724 0 0 1 3.584 3.842 3.689 3.689 0 0 1-1.175 2.578 3.683 3.683 0 0 1-2.66 1 3.674 3.674 0 0 1-1.645-.47A2 2 0 0 1 16 18a2 2 0 0 1-.264-.02c1.659.768 3.129 1.225 4.383 1.336 2.554.227 4.548-1.167 5.4-1.763.167-.114.294-.204.346-.223l.057-.092c-.141-.897-1.483-5.243-2.492-6.287-.28-.286-.502-.565-.953-.83C18.824 7.992 10.15 6.71 9.744 6.651l-.066.02-.026.058-.037 2a52 52 0 0 0-2.54-.762c1.724-2.134 4.366-4.028 8.991-4.028zm3.09 7.476a2.562 2.562 0 0 0-1.6.691 2.565 2.565 0 0 0-.818 1.8c-.002.082.011.16.016.241A2 2 0 0 1 18 16a2 2 0 0 1-.01.201c.366.223.784.37 1.242.387a2.591 2.591 0 0 0 1.858-.692 2.577 2.577 0 0 0 .82-1.804 2.594 2.594 0 0 0-2.502-2.676 2.52 2.52 0 0 0-.252 0zm.68 1.295c.634 0 1.144.344 1.144.768 0 .421-.51.767-1.144.767-.636 0-1.15-.346-1.15-.767 0-.424.514-.768 1.15-.768z" fill="url(#b)"/><path d="M28.314 22.658l-9.486-9.486L16 12l-2.828 1.172L12 16l1.172 2.828 9.476 9.477a14 14 0 0 0 5.666-5.647zM16 14a2 2 0 0 1 .2.01 2 2 0 0 1 .196.03 2 2 0 0 1 .196.05 2 2 0 0 1 .187.068 2 2 0 0 1 .18.086 2 2 0 0 1 .17.106 2 2 0 0 1 .16.12 2 2 0 0 1 .147.137 2 2 0 0 1 .13.149 2 2 0 0 1 .118.164 2 2 0 0 1 .1.174 2 2 0 0 1 .08.181 2 2 0 0 1 .064.19 2 2 0 0 1 .043.195 2 2 0 0 1 .023.2A2 2 0 0 1 18 16a2 2 0 0 1-.01.2 2 2 0 0 1-.03.197 2 2 0 0 1-.05.195 2 2 0 0 1-.068.187 2 2 0 0 1-.086.18 2 2 0 0 1-.106.17 2 2 0 0 1-.12.16 2 2 0 0 1-.137.147 2 2 0 0 1-.149.13 2 2 0 0 1-.164.118 2 2 0 0 1-.174.1 2 2 0 0 1-.181.08 2 2 0 0 1-.19.064 2 2 0 0 1-.195.043 2 2 0 0 1-.2.023A2 2 0 0 1 16 18a2 2 0 0 1-.2-.01 2 2 0 0 1-.196-.029 2 2 0 0 1-.196-.05 2 2 0 0 1-.187-.07 2 2 0 0 1-.18-.085 2 2 0 0 1-.17-.106 2 2 0 0 1-.16-.12 2 2 0 0 1-.147-.137 2 2 0 0 1-.13-.149 2 2 0 0 1-.118-.164 2 2 0 0 1-.1-.174 2 2 0 0 1-.08-.181 2 2 0 0 1-.064-.19 2 2 0 0 1-.043-.195 2 2 0 0 1-.023-.2A2 2 0 0 1 14 16a2 2 0 0 1 .01-.2 2 2 0 0 1 .03-.196 2 2 0 0 1 .05-.196 2 2 0 0 1 .068-.187 2 2 0 0 1 .086-.18 2 2 0 0 1 .106-.17 2 2 0 0 1 .12-.16 2 2 0 0 1 .137-.147 2 2 0 0 1 .149-.13 2 2 0 0 1 .164-.118 2 2 0 0 1 .174-.1 2 2 0 0 1 .181-.08 2 2 0 0 1 .19-.064 2 2 0 0 1 .195-.043 2 2 0 0 1 .2-.023A2 2 0 0 1 16 14z" fill="url(#c)" opacity=".2"/><path d="M16 12a4 4 0 0 0-4 4 4 4 0 0 0 4 4 4 4 0 0 0 4-4 4 4 0 0 0-4-4zm0 2a2 2 0 0 1 2 2 2 2 0 0 1-2 2 2 2 0 0 1-2-2 2 2 0 0 1 2-2z" fill="url(#d)"/></svg>