<svg height="32" width="32" xmlns="http://www.w3.org/2000/svg" xmlns:xlink="http://www.w3.org/1999/xlink"><linearGradient id="a"><stop offset="0" stop-color="#c0392b"/><stop offset="1" stop-color="#e74c3c"/></linearGradient><linearGradient id="d" gradientUnits="userSpaceOnUse" x1="66" x2="66" xlink:href="#a" y1="63" y2="41"/><linearGradient id="b"><stop offset="0" stop-color="#afb0b3"/><stop offset="1" stop-color="#bdc3c7"/></linearGradient><linearGradient id="c" gradientUnits="userSpaceOnUse" x1="66" x2="66" xlink:href="#b" y1="66" y2="38"/><linearGradient id="f" gradientUnits="userSpaceOnUse" x1="127.471" x2="127.471" xlink:href="#a" y1="65.364" y2="33.697"/><linearGradient id="e" gradientUnits="userSpaceOnUse" x1="124.638" x2="124.638" xlink:href="#b" y1="60.697" y2="32.697"/><path d="M66 38a14 14 0 0 0-3 .336v2.059a12 12 0 0 0-3.084 1.277l-1.453-1.453a14 14 0 0 0-4.254 4.234l1.463 1.463A12 12 0 0 0 54.39 49h-2.05a14 14 0 0 0-.34 3 14 14 0 0 0 .336 3h2.059a12 12 0 0 0 1.277 3.084l-1.453 1.453a14 14 0 0 0 4.234 4.254l1.463-1.463A12 12 0 0 0 63 63.61v2.05a14 14 0 0 0 3 .34 14 14 0 0 0 3-.336v-2.059a12 12 0 0 0 3.084-1.277l1.453 1.453a14 14 0 0 0 4.254-4.234l-1.463-1.463A12 12 0 0 0 77.61 55h2.05a14 14 0 0 0 .34-3 14 14 0 0 0-.336-3h-2.059a12 12 0 0 0-1.277-3.084l1.453-1.453a14 14 0 0 0-4.234-4.254l-1.463 1.463A12 12 0 0 0 69 40.39v-2.05a14 14 0 0 0-3-.34zm7.547 2.209a14 14 0 0 0-4.506-1.857 14 14 0 0 1 4.506 1.857zM79.664 49a14 14 0 0 0-1.838-4.46A14 14 0 0 1 79.664 49zm-1.873 10.547a14 14 0 0 0 1.857-4.506 14 14 0 0 1-1.857 4.506zM69 65.664a14 14 0 0 0 4.46-1.838A14 14 0 0 1 69 65.664zm-10.547-1.873a14 14 0 0 0 4.506 1.857 14 14 0 0 1-4.506-1.857zM52.336 55a14 14 0 0 0 1.838 4.46A14 14 0 0 1 52.336 55zm1.873-10.547a14 14 0 0 0-1.857 4.506 14 14 0 0 1 1.857-4.506zM63 38.336a14 14 0 0 0-4.46 1.838A14 14 0 0 1 63 38.336z" fill="url(#c)" transform="translate(-50 -36)"/><path d="M66 41a11 11 0 0 0-7.53 3H68v-2.81a11 11 0 0 0-2-.19zm4 .754V44h3.54A11 11 0 0 0 70 41.754zM56.785 46a11 11 0 0 0-1.73 5H62v-5zM64 46v5h12.95a11 11 0 0 0-1.743-5zm-8.95 7a11 11 0 0 0 1.743 5H68v-5zM70 53v5h5.215a11 11 0 0 0 1.73-5zm-11.54 7A11 11 0 0 0 62 62.246V60zM64 60v2.81a11 11 0 0 0 2 .19 11 11 0 0 0 7.53-3z" fill="url(#d)" transform="translate(-50 -36)"/><path d="M124.638 32.697a14 14 0 0 0-3 .336v1.029a13 13 0 0 0-3.81 1.58l-.727-.727a14 14 0 0 0-4.254 4.235l.732.732a13 13 0 0 0-1.574 3.815h-1.025a14 14 0 0 0-.342 3 14 14 0 0 0 .336 3h1.03a13 13 0 0 0 1.58 3.81l-.727.727a14 14 0 0 0 4.234 4.254l.732-.733a13 13 0 0 0 3.815 1.575v1.025a14 14 0 0 0 3 .342 14 14 0 0 0 3-.336v-1.03a13 13 0 0 0 3.81-1.58l.727.727a14 14 0 0 0 4.254-4.234l-.733-.733a13 13 0 0 0 1.575-3.814h1.025a14 14 0 0 0 .342-3 14 14 0 0 0-.336-3h-1.03a13 13 0 0 0-1.58-3.81l.727-.727a14 14 0 0 0-4.234-4.254l-.733.732a13 13 0 0 0-3.814-1.574v-1.026a14 14 0 0 0-3-.341zm7.547 2.209a14 14 0 0 0-.909-.516 14 14 0 0 1 .909.516zm-.909-.516a14 14 0 0 0-.628-.314 14 14 0 0 1 .629.314zm-.628-.314a14 14 0 0 0-.643-.286 14 14 0 0 1 .643.286zm-.643-.286a14 14 0 0 0-.645-.248 14 14 0 0 1 .645.248zm-.645-.248a14 14 0 0 0-.671-.218 14 14 0 0 1 .671.218zm-.671-.218a14 14 0 0 0-1.01-.276 14 14 0 0 1 1.01.276zm9.613 10.373a14 14 0 0 0-.268-.979 14 14 0 0 1 .268.979zm-.268-.979a14 14 0 0 0-.226-.697 14 14 0 0 1 .226.697zm-.226-.697a14 14 0 0 0-.235-.604 14 14 0 0 1 .235.604zm-.235-.604a14 14 0 0 0-.297-.68 14 14 0 0 1 .297.68zm-.297-.68a14 14 0 0 0-.306-.603 14 14 0 0 1 .307.604zm-.306-.603a14 14 0 0 0-.506-.898 14 14 0 0 1 .506.898zm-.541 14.11a14 14 0 0 0 .515-.909 14 14 0 0 1-.515.909zm.515-.909a14 14 0 0 0 .315-.629 14 14 0 0 1-.315.63zm.315-.629a14 14 0 0 0 .285-.642 14 14 0 0 1-.285.642zm.285-.642a14 14 0 0 0 .248-.645 14 14 0 0 1-.248.645zm.248-.645a14 14 0 0 0 .219-.672 14 14 0 0 1-.219.672zm.219-.672a14 14 0 0 0 .275-1.01 14 14 0 0 1-.275 1.01zm-10.373 9.614a14 14 0 0 0 .978-.268 14 14 0 0 1-.978.268zm.978-.268a14 14 0 0 0 .698-.226 14 14 0 0 1-.698.226zm.698-.226a14 14 0 0 0 .603-.235 14 14 0 0 1-.603.235zm.603-.235a14 14 0 0 0 .68-.297 14 14 0 0 1-.68.297zm.68-.297a14 14 0 0 0 .603-.306 14 14 0 0 1-.603.306zm.603-.306a14 14 0 0 0 .899-.506 14 14 0 0 1-.899.506zm-14.109-.541a14 14 0 0 0 .908.515 14 14 0 0 1-.908-.515zm.908.515a14 14 0 0 0 .63.315 14 14 0 0 1-.63-.315zm.63.315a14 14 0 0 0 .642.285 14 14 0 0 1-.643-.285zm.642.285a14 14 0 0 0 .644.248 14 14 0 0 1-.644-.248zm.644.248a14 14 0 0 0 .672.219 14 14 0 0 1-.672-.219zm.672.219a14 14 0 0 0 1.01.275 14 14 0 0 1-1.01-.275zm-9.613-10.373a14 14 0 0 0 .267.978 14 14 0 0 1-.267-.978zm.267.978a14 14 0 0 0 .227.697 14 14 0 0 1-.227-.697zm.227.697a14 14 0 0 0 .234.604 14 14 0 0 1-.234-.604zm.234.604a14 14 0 0 0 .297.68 14 14 0 0 1-.297-.68zm.297.68a14 14 0 0 0 .307.603 14 14 0 0 1-.307-.603zm.307.603a14 14 0 0 0 .506.899 14 14 0 0 1-.506-.899zm.54-14.11a14 14 0 0 0-.515.909 14 14 0 0 1 .516-.908zm-.515.909a14 14 0 0 0-.314.629 14 14 0 0 1 .314-.629zm-.314.629a14 14 0 0 0-.285.643 14 14 0 0 1 .285-.643zm-.285.643a14 14 0 0 0-.248.644 14 14 0 0 1 .248-.644zm-.248.644a14 14 0 0 0-.22.672 14 14 0 0 1 .22-.672zm-.22.672a14 14 0 0 0-.275 1.01 14 14 0 0 1 .276-1.01zm10.374-9.613a14 14 0 0 0-.979.267 14 14 0 0 1 .979-.267zm-.979.267a14 14 0 0 0-.697.227 14 14 0 0 1 .697-.227zm-.697.227a14 14 0 0 0-.603.234 14 14 0 0 1 .603-.234zm-.603.234a14 14 0 0 0-.68.297 14 14 0 0 1 .68-.297zm-.68.297a14 14 0 0 0-.604.307 14 14 0 0 1 .604-.307zm-.604.307a14 14 0 0 0-.898.506 14 14 0 0 1 .898-.506z" fill="url(#e)" transform="translate(-74.638 -30.697)"/><path d="M124.638 34.697a12 12 0 0 0-8.926 4h10.926v-3.83a12 12 0 0 0-2-.17zm4 .7v3.3h4.928a12 12 0 0 0-4.928-3.3zm-14.375 5.3a12 12 0 0 0-1.578 5h7.953v-5zm8.375 0v5h13.95a12 12 0 0 0-1.57-5zm-9.95 7a12 12 0 0 0 1.569 5h12.38v-5zm15.95 0v5h6.375a12 12 0 0 0 1.578-5zm-12.928 7a12 12 0 0 0 4.928 3.299v-3.3zm6.928 0v3.83a12 12 0 0 0 2 .17 12 12 0 0 0 8.926-4z" fill="url(#f)" transform="translate(-74.638 -30.697)"/></svg>