<svg xmlns="http://www.w3.org/2000/svg" xmlns:xlink="http://www.w3.org/1999/xlink" height="32" width="32"><linearGradient id="c" gradientUnits="userSpaceOnUse" x1="35" x2="35" y1="30" y2="2"><stop offset="0" stop-color="#afb4b9"/><stop offset=".25" stop-color="#bfc3c7"/><stop offset="1" stop-color="#cfd2d5"/></linearGradient><linearGradient id="i" gradientUnits="userSpaceOnUse" x1="17" x2="17" y1="26" y2="16"><stop offset="0" stop-color="#375a7d"/><stop offset=".1" stop-color="#3b85b5"/><stop offset=".4" stop-color="#54a3d8"/><stop offset="1" stop-color="#7cbcec"/></linearGradient><linearGradient id="h" gradientUnits="userSpaceOnUse" x1="12" x2="16" xlink:href="#a" y1="26" y2="30"/><linearGradient id="a"><stop offset="0" stop-color="#292c2f"/><stop offset="1" stop-color="#0b0000" stop-opacity="0"/></linearGradient><linearGradient id="e" gradientUnits="userSpaceOnUse" x1="19" x2="23" xlink:href="#a" y1="10" y2="14"/><linearGradient id="d" gradientUnits="userSpaceOnUse" x1="14" x2="17.914" xlink:href="#a" y1="10" y2="13.914"/><linearGradient id="g" gradientUnits="userSpaceOnUse" x1="12" x2="12" xlink:href="#b" y1="14" y2="5"/><linearGradient id="b"><stop offset="0" stop-color="#ff8b23"/><stop offset="1" stop-color="#ffc169"/></linearGradient><linearGradient id="f" gradientUnits="userSpaceOnUse" x1="22" x2="22" xlink:href="#b" y1="15" y2="8"/><path d="M16 2a14 14 0 0 0-3 .336v2.059a12 12 0 0 0-3.084 1.277L8.463 4.219a14 14 0 0 0-4.254 4.234l1.463 1.463A12 12 0 0 0 4.39 13H2.34A14 14 0 0 0 2 16a14 14 0 0 0 .336 3h2.059a12 12 0 0 0 1.277 3.084l-1.453 1.453a14 14 0 0 0 4.234 4.254l1.463-1.463A12 12 0 0 0 13 27.61v2.05a14 14 0 0 0 3 .34 13.997 13.997 0 0 0 3-.336v-2.059a12 12 0 0 0 3.084-1.277l1.453 1.453a14 14 0 0 0 4.254-4.234l-1.463-1.463A12 12 0 0 0 27.61 19h2.05a14 14 0 0 0 .34-3 13.997 13.997 0 0 0-.336-3h-2.059a12 12 0 0 0-1.277-3.084l1.453-1.453a14 14 0 0 0-4.234-4.254l-1.463 1.463A12 12 0 0 0 19 4.39V2.34A14 14 0 0 0 16 2z" fill="url(#c)"/><path d="M15 14l2 2h1l-1-1 2.368-2-.83-3 1.863-1.6L17 5v2l-4 4z" fill="url(#d)" opacity=".2"/><path d="M30 21.461l-2.73-2.73L26 18l-2-2h-6l-1-1 2.368-2-.83-3 1.863-1.6L22 8h1l7 7z" fill="url(#e)" opacity=".2"/><path d="M17 15l1-1c.196-.196.388-.402.505-.653s.153-.538.108-.81c-.044-.274-.163-.529-.291-.775-.128-.245-.266-.491-.322-.762-.08-.385.016-.793.21-1.135s.48-.624.79-.865a5.174 5.174 0 0 1 4-1 5.365 5.365 0 0 0-3 1c-.323.232-.625.507-.825.851-.1.173-.174.361-.207.558s-.025.4.032.591c.11.366.386.653.62.954.118.151.228.31.301.486s.111.372.079.56c-.041.241-.192.453-.378.613-.185.16-.404.275-.622.387-.662.342-1.33.675-2 1z" fill="url(#f)"/><path d="M15 14a10.26 10.26 0 0 0-1-1c-.475-.413-.991-.786-1.396-1.269a2.833 2.833 0 0 1-.487-.804A1.881 1.881 0 0 1 12 10c.06-.43.297-.82.606-1.124.31-.303.69-.526 1.082-.71C14.474 7.8 15.342 7.565 16 7a2.916 2.916 0 0 0 1-2c.361.41.566.954.566 1.5S17.361 7.59 17 8c-.49.557-1.214.837-1.843 1.231-.314.197-.612.43-.832.73-.22.298-.357.67-.325 1.039.033.375.232.713.443 1.024.21.311.443.618.557.976.103.323.103.677 0 1z" fill="url(#g)"/><path d="M22 16L12 26l4 4a13.997 13.997 0 0 0 3-.336v-2.059a12 12 0 0 0 3.084-1.277l1.453 1.453a14 14 0 0 0 4.254-4.234l-1.463-1.463a12 12 0 0 0 .834-1.75l-2.748-2.748L24 18z" fill="url(#h)" opacity=".2"/><path d="M10 16v5a5 5 0 0 0 2.01 4H12v1h8v-1h-.01a5 5 0 0 0 1.905-3H23a2 2 0 0 0 2-2v-1a2 2 0 0 0-2-2h-1v-1zm12 2h1a1 1 0 0 1 1 1v1a1 1 0 0 1-1 1h-1z" fill="url(#i)"/></svg>