<svg xmlns="http://www.w3.org/2000/svg" xmlns:xlink="http://www.w3.org/1999/xlink" height="32" width="32"><defs><linearGradient xlink:href="#a" id="c" x1="30" y1="30" x2="2" y2="2" gradientUnits="userSpaceOnUse"/><linearGradient id="a" gradientTransform="rotate(-165 -6.658 22.948)" gradientUnits="userSpaceOnUse" x1="3.242" x2="40" y1="15.778" y2="37"><stop offset="0" stop-color="#afb4b9"/><stop offset="1" stop-color="#cfd2d5"/></linearGradient></defs><linearGradient id="b"><stop offset="0"/><stop offset="1" stop-opacity="0"/></linearGradient><linearGradient id="e" gradientUnits="userSpaceOnUse" x1="10.4" x2="23.659" xlink:href="#b" y1="6.9" y2="20.159"/><linearGradient id="d" gradientTransform="matrix(.57499 0 0 .56644 28.142 4.921)" gradientUnits="userSpaceOnUse" x1="-41.26" x2="-2.994" y1="-.883" y2="37.956"><stop offset="0" stop-color="#21c9fb"/><stop offset="1" stop-color="#1a86f2"/></linearGradient><linearGradient id="f" gradientTransform="rotate(45 .566 -1.366) scale(.7)" gradientUnits="userSpaceOnUse" x1="31.021" x2="43.104" xlink:href="#b" y1="-9.896" y2="-9.896"/><linearGradient id="g" gradientUnits="userSpaceOnUse" x1="15.801" x2="17.644" xlink:href="#b" y1="8.453" y2="10.296"/><path d="M16 2a14 14 0 0 0-3 .336v2.059a12 12 0 0 0-3.084 1.277L8.463 4.219a14 14 0 0 0-4.254 4.234l1.463 1.463A12 12 0 0 0 4.39 13H2.34A14 14 0 0 0 2 16a14 14 0 0 0 .336 3h2.059a12 12 0 0 0 1.277 3.084l-1.453 1.453a14 14 0 0 0 4.234 4.254l1.463-1.463A12 12 0 0 0 13 27.61v2.05a14 14 0 0 0 3 .34 13.997 13.997 0 0 0 3-.336v-2.059a12 12 0 0 0 3.084-1.277l1.453 1.453a14 14 0 0 0 4.254-4.234l-1.463-1.463A12 12 0 0 0 27.61 19h2.05a14 14 0 0 0 .34-3 13.997 13.997 0 0 0-.336-3h-2.059a12 12 0 0 0-1.277-3.084l1.453-1.453a14 14 0 0 0-4.234-4.254l-1.463 1.463A12 12 0 0 0 19 4.39V2.34A14 14 0 0 0 16 2z" fill="url(#c)"/><path d="M16 5A11 11 0 0 0 5 16a11 11 0 0 0 11 11 11 11 0 0 0 11-11A11 11 0 0 0 16 5z" fill="url(#d)"/><g stroke-width=".7"><path d="M14.713 12.309l-1.535-1.536-1.613 1.019-.607 1.394-4.725 4.725 3.225 3.226-1.375 1.223 6.94 6.94h9.946c2.012 0 3.631-1.596 3.631-3.578C22.653 18.385 16 10.4 14.713 12.31z" opacity=".2" fill="url(#e)" transform="translate(3.429 3.429) scale(.78571)"/><path d="M25.08 6.892l-3.059.824-3.164 6.65 2.743 5.83 7.9 7.9c.316-.55.5-1.184.5-1.863v-14.42z" opacity=".2" fill="url(#f)" transform="translate(3.429 3.429) scale(.78571)"/><path d="M17.4 6.197l3.172 3.172-2.2 4.658-4.4-4.401z" opacity=".2" fill="url(#g)" transform="translate(3.429 3.429) scale(.78571)"/></g><g fill="#fff"><path d="M11.165 10.84a.24.24 0 0 0-.187.07L9.81 12.078a.275.275 0 0 0 0 .389l1.207 1.895a4.95 4.95 0 0 0-.25.602l-2.192.486a.275.275 0 0 0-.275.275v1.65c0 .152.126.242.275.275l2.192.487c.069.204.15.404.244.597L9.8 20.633c-.082.128-.108.28 0 .389l1.167 1.167a.275.275 0 0 0 .388 0l1.9-1.21a4.95 4.95 0 0 0 .607.254l.486 2.191c0 .153.123.275.275.275h1.65c.153 0 .242-.125.275-.275l.487-2.192a4.95 4.95 0 0 0 .605-.247l1.892 1.204a.275.275 0 0 0 .389 0l1.167-1.167c.108-.109.082-.261 0-.39l-.516-.81-.384.154-1.232-1.847A3.85 3.85 0 0 1 15.45 20.4a3.85 3.85 0 0 1-3.85-3.85 3.85 3.85 0 0 1 2.2-3.474v-1.184a4.95 4.95 0 0 0-.542.223l-1.891-1.205a.423.423 0 0 0-.202-.07z"/><path d="M17.1 8.3l-2.75.255V19.3l2.75-.55v-4.4l3.3 4.95 2.75-1.1-3.575-4.628 3.577-4.722-2.88-.55-3.172 4.675z"/></g></svg>