<svg height="32" width="32" xmlns="http://www.w3.org/2000/svg"><linearGradient id="a" gradientTransform="rotate(-165 -6.658 22.948)" gradientUnits="userSpaceOnUse" x1="-27.383" x2="-20.311" y1="21.553" y2="47.946"><stop offset="0" stop-color="#afb4b9"/><stop offset="1" stop-color="#cfd2d5"/></linearGradient><linearGradient id="c" gradientUnits="userSpaceOnUse" x1="6" x2="6" y1="22" y2="5"><stop offset="0" stop-color="#1d99f3"/><stop offset="1" stop-color="#56b3f6"/></linearGradient><linearGradient id="d" gradientUnits="userSpaceOnUse" x1="26" x2="26" y1="26" y2="9"><stop offset="0" stop-color="#fdbc4b"/><stop offset="1" stop-color="#fed286"/></linearGradient><linearGradient id="b" gradientUnits="userSpaceOnUse" x1="11" x2="26" y1="10" y2="25"><stop offset="0" stop-color="#292c2f"/><stop offset="1" stop-opacity="0"/></linearGradient><path d="M16 2a14 14 0 0 0-3 .336v2.059a12 12 0 0 0-3.084 1.277L8.463 4.219a14 14 0 0 0-4.254 4.234l1.463 1.463A12 12 0 0 0 4.39 13H2.34A14 14 0 0 0 2 16a14 14 0 0 0 .336 3h2.059a12 12 0 0 0 1.277 3.084l-1.453 1.453a14 14 0 0 0 4.234 4.254l1.463-1.463A12 12 0 0 0 13 27.61v2.05a14 14 0 0 0 3 .34 13.997 13.997 0 0 0 3-.336v-2.059a12 12 0 0 0 3.084-1.277l1.453 1.453a14 14 0 0 0 4.254-4.234l-1.463-1.463A12 12 0 0 0 27.61 19h2.05a14 14 0 0 0 .34-3 13.997 13.997 0 0 0-.336-3h-2.059a12 12 0 0 0-1.277-3.084l1.453-1.453a14 14 0 0 0-4.234-4.254l-1.463 1.463A12 12 0 0 0 19 4.39V2.34A14 14 0 0 0 16 2z" fill="url(#a)"/><path d="M20.121 6.879L11 10l1 1-4.822 9.822 9.16 9.16A13.997 13.997 0 0 0 19 29.664v-2.059a12 12 0 0 0 3.084-1.277l1.453 1.453a14 14 0 0 0 4.254-4.234l-1.463-1.463A12 12 0 0 0 27.61 19h2.051a14 14 0 0 0 .33-2.654l-5.168-5.168-.2.2-4.5-4.5z" fill="url(#b)" opacity=".2"/><path d="M14 6a3 3 0 0 0-3 3v1h5v1h-6a4 4 0 0 0-4 4v3a3.99 3.99 0 0 0 3 3.857V20a5 5 0 0 1 5-5h4a3 3 0 0 0 3-3V9a3 3 0 0 0-3-3zm0 1c.554 0 1 .446 1 1s-.446 1-1 1-1-.446-1-1 .446-1 1-1z" fill="url(#c)"/><circle cx="14" cy="8" fill="#f9f9f9" r="1"/><path d="M18 26a3 3 0 0 0 3-3v-1h-5v-1h6a4 4 0 0 0 4-4v-3a3.99 3.99 0 0 0-3-3.857V12a5 5 0 0 1-5 5h-4a3 3 0 0 0-3 3v3a3 3 0 0 0 3 3zm0-1c-.554 0-1-.446-1-1s.446-1 1-1 1 .446 1 1-.446 1-1 1z" fill="url(#d)"/><path d="M18 23a1 1 0 0 0-1 1 1 1 0 0 0 1 1 1 1 0 0 0 1-1 1 1 0 0 0-1-1z" fill="#f9f9f9"/></svg>