<svg xmlns="http://www.w3.org/2000/svg" xmlns:xlink="http://www.w3.org/1999/xlink" width="32" height="32"><defs><linearGradient xlink:href="#a" id="f" x1="30" y1="30" x2="2" y2="2" gradientUnits="userSpaceOnUse"/><linearGradient id="a" gradientTransform="rotate(-165 -6.658 22.948)" gradientUnits="userSpaceOnUse" x1="3.242" x2="40" y1="15.778" y2="37"><stop offset="0" stop-color="#afb4b9"/><stop offset="1" stop-color="#cfd2d5"/></linearGradient><linearGradient xlink:href="#b" id="g" x1="27" y1="14" x2="30" y2="17" gradientUnits="userSpaceOnUse"/></defs><linearGradient id="e"><stop stop-color="#bf4231" offset="0"/><stop stop-color="#e05e4c" offset="1"/></linearGradient><linearGradient id="d"><stop stop-color="#ffafa5" offset="0"/><stop stop-color="#ffe5e1" offset="1"/></linearGradient><linearGradient id="c"><stop stop-color="#f58273" offset="0"/><stop stop-color="#ffafa5" offset="1"/></linearGradient><linearGradient y2="10" y1="13.992" xlink:href="#c" x2="34" x1="36.002" gradientUnits="userSpaceOnUse" id="h" gradientTransform="translate(-25.002 .008)"/><linearGradient y2="10" y1="14" xlink:href="#d" x2="34" x1="36" gradientUnits="userSpaceOnUse" id="i" gradientTransform="translate(-25)"/><linearGradient y2="10" y1="14" xlink:href="#c" x2="42" x1="42" gradientUnits="userSpaceOnUse" id="o" gradientTransform="translate(-26)"/><linearGradient y2="10" y1="14" xlink:href="#d" x2="43" x1="48" gradientUnits="userSpaceOnUse" id="j" gradientTransform="translate(-27)"/><linearGradient y2="10" y1="14" x2="50" x1="54" gradientUnits="userSpaceOnUse" id="k" gradientTransform="translate(-27)"><stop stop-color="#f36957" offset="0"/><stop stop-color="#ff9487" offset="1"/></linearGradient><linearGradient y2="15" y1="26" xlink:href="#e" x2="37" x1="42" gradientUnits="userSpaceOnUse" id="n" gradientTransform="translate(-26 -1)"/><linearGradient y2="15" y1="18" xlink:href="#e" x2="47" x1="50" gradientUnits="userSpaceOnUse" id="l" gradientTransform="translate(-26 -1)"/><linearGradient y2="15" y1="26" x2="42" x1="42" gradientUnits="userSpaceOnUse" id="m" gradientTransform="translate(-26 -1)"><stop stop-color="#dc4732" offset="0"/><stop stop-color="#f36957" offset="1"/></linearGradient><linearGradient y2="24" y1="20" x2="26" x1="22" gradientUnits="userSpaceOnUse" id="b" gradientTransform="translate(15.39 -1)"><stop stop-color="#292c2f" offset="0"/><stop stop-opacity="0" offset="1"/></linearGradient><path d="M16 2a14 14 0 0 0-3 .336v2.059a12 12 0 0 0-3.084 1.277L8.463 4.219a14 14 0 0 0-4.254 4.234l1.463 1.463A12 12 0 0 0 4.39 13H2.34A14 14 0 0 0 2 16a14 14 0 0 0 .336 3h2.059a12 12 0 0 0 1.277 3.084l-1.453 1.453a14 14 0 0 0 4.234 4.254l1.463-1.463A12 12 0 0 0 13 27.61v2.05a14 14 0 0 0 3 .34 13.997 13.997 0 0 0 3-.336v-2.059a12 12 0 0 0 3.084-1.277l1.453 1.453a14 14 0 0 0 4.254-4.234l-1.463-1.463A12 12 0 0 0 27.61 19h2.05a14 14 0 0 0 .34-3 13.997 13.997 0 0 0-.336-3h-2.059a12 12 0 0 0-1.277-3.084l1.453-1.453a14 14 0 0 0-4.234-4.254l-1.463 1.463A12 12 0 0 0 19 4.39V2.34A14 14 0 0 0 16 2z" fill="url(#f)"/><path d="M26 13l4 4v13h-9l-6-6z" opacity=".2" fill="url(#g)"/><path fill="#da4453" d="M57.742 14.08l3.992-3.992H77.74l4 4-12 12z"/><path d="M8.998 10.008L11 14H5z" fill="url(#h)"/><path d="M9 10l2 4 5-4z" fill="url(#i)"/><path d="M16 10h7l-2 4z" fill="url(#j)"/><path d="M23 10l4 4h-6z" fill="url(#k)"/><path d="M16 25l5-11h6z" fill="url(#l)"/><path d="M16 25l5-11H11z" fill="url(#m)"/><path d="M5 14h6l5 11z" fill="url(#n)"/><path d="M61.74 10.088l-.012.006-.363.364.002.003-3.127 3.127h-.006l-.492.493.002.003-.004.004.707.707.004-.003 10.172 10.177 1.117 1.12.373-.374.334-.334 10.586-10.586.207-.207.5-.5-3.627-3.627-.373-.373H62.3zm1.059 1h4.539l-3.405 2.27zm6.343 0h1.196l3.75 2.5h-8.696zm3 0h4.54l-1.135 2.27zm-10.304.317l1.094 2.183h-3.278zm15.804 0l2.184 2.183h-3.277zm-17.988 3.183h3.778l3.779 7.557zm4.895 0h10.383l-4.897 9.791-.295.295-.295-.295zm11.5 0h3.777l-7.555 7.555z"/><path d="M16 10l5 4H11z" fill="url(#o)"/></svg>