<svg xmlns="http://www.w3.org/2000/svg" xmlns:xlink="http://www.w3.org/1999/xlink" height="32" width="32"><defs><linearGradient xlink:href="#a" id="c" x1="30" y1="30" x2="2" y2="2" gradientUnits="userSpaceOnUse"/><linearGradient id="a" gradientTransform="rotate(-165 -6.658 22.948)" gradientUnits="userSpaceOnUse" x1="3.242" x2="40" y1="15.778" y2="37"><stop offset="0" stop-color="#b0b8b8"/><stop offset="1" stop-color="#eff1f1"/></linearGradient></defs><linearGradient id="b" gradientUnits="userSpaceOnUse" x1="26" x2="26" y1="30" y2="2"><stop offset="0" stop-color="#1a1e22"/><stop offset="1" stop-color="#292c2f"/></linearGradient><path d="M16 5A11 11 0 0 0 5 16a11 11 0 0 0 11 11 11 11 0 0 0 11-11A11 11 0 0 0 16 5z" fill="url(#b)"/><path d="M16 2a14 14 0 0 0-3 .336v2.059a12 12 0 0 0-3.084 1.277L8.463 4.219a14 14 0 0 0-4.254 4.234l1.463 1.463A12 12 0 0 0 4.39 13H2.34A14 14 0 0 0 2 16a14 14 0 0 0 .336 3h2.059a12 12 0 0 0 1.277 3.084l-1.453 1.453a14 14 0 0 0 4.234 4.254l1.463-1.463A12 12 0 0 0 13 27.61v2.051a14 14 0 0 0 3 .34 13.997 13.997 0 0 0 3-.336v-2.059a12 12 0 0 0 3.084-1.277l1.453 1.453a14 14 0 0 0 4.254-4.234l-1.463-1.463A12 12 0 0 0 27.61 19h2.051a14 14 0 0 0 .34-3 13.997 13.997 0 0 0-.336-3h-2.059a12 12 0 0 0-1.277-3.084l1.453-1.453a14 14 0 0 0-4.234-4.254l-1.463 1.463A12 12 0 0 0 19 4.39V2.34A14 14 0 0 0 16 2zm0 3a11 11 0 0 1 11 11 11 11 0 0 1-11 11 11 11 0 0 1-6.627-2.236c1.126-1.37 2.223-2.715 2.857-3.455l.012-.012c.282-.33.548-.635.567-.631.055.011 2.074.872 4.488 1.908 3.608 1.55 4.27 1.826 4.453 1.77a.109.109 0 0 0 .057-.043c.168-.226.748-1.442 1.054-2.211l.262-.652-.44-.24c-.621-.34-1.535-1.1-2.107-1.75-.52-.595-1.463-2.027-1.463-2.227 0-.066.3.233.666.668 1.026 1.223 3.39 3.139 3.537 2.867.177-.324.294-1.279.288-2.385-.007-1.35-.187-2.397-.65-3.848l-.259-.812-1.289-.408-1.576-.494c-.556-.175-.207-.164.608.017.486.11.976.21 1.421.291.446.082.846.148 1.15.186.54.069.66-.039.718-.639.073-.764-.422-2.878-.92-3.93-.2-.42-.288-.51-.686-.691-1.159-.53-4.48-1.033-6.47-1.027a7.442 7.442 0 0 0-.762.037c-.762.08-1.544.263-1.787.422-.07.045.422.17 1.267.326.38.07.707.137.93.19.222.05.34.087.299.095-.083.016-1.275-.115-2.649-.291-2.413-.31-2.507-.316-2.676-.164-.35.316-.849 1.182-.953 1.646-.1.45-.096.504.13.961.38.78 1.088 1.343 2.7 2.158.382.193.723.374.967.508.245.135.39.223.38.235-.025.023-.675-.22-1.448-.54l-1.404-.585-4.291 1.068-1.026.31a11 11 0 0 0-.193.981 11 11 0 0 1 .193-.98A11 11 0 0 1 16 5zM5.107 14.55a11 11 0 0 0-.074.796 11 11 0 0 1 .074-.795zM5 16a11 11 0 0 0 .049.959A11 11 0 0 1 5 16zm.104 1.41a11 11 0 0 0 .101.658 11 11 0 0 1-.101-.658zm.183 1.024a11 11 0 0 0 .188.73 11 11 0 0 1-.188-.73zm.281 1.011a11 11 0 0 0 .28.766 11 11 0 0 1-.28-.766zm.385.998a11 11 0 0 0 .373.772 11 11 0 0 1-.373-.772zm.477.953a11 11 0 0 0 .474.772 11 11 0 0 1-.474-.772zm.56.893a11 11 0 0 0 .608.793 11 11 0 0 0 .746.8 11 11 0 0 1-.746-.8 11 11 0 0 1-.608-.793zm1.367 1.606a11 11 0 0 0 .819.716 11 11 0 0 1-.819-.716z" fill="url(#c)"/></svg>