<svg xmlns="http://www.w3.org/2000/svg" xmlns:xlink="http://www.w3.org/1999/xlink" width="32" height="32"><defs><linearGradient id="c"><stop offset="0" stop-color="#fdbc4b"/><stop offset="1" stop-color="#fed286"/></linearGradient><linearGradient id="b"><stop offset="0" stop-color="#1d99f3"/><stop offset="1" stop-color="#56b3f6"/></linearGradient><linearGradient xlink:href="#a" id="i" x1="30" y1="30" x2="2" y2="2" gradientUnits="userSpaceOnUse"/><linearGradient id="a" gradientTransform="rotate(-165 -6.658 22.948)" gradientUnits="userSpaceOnUse" x1="3.242" x2="40" y1="15.778" y2="37"><stop offset="0" stop-color="#afb4b9"/><stop offset="1" stop-color="#cfd2d5"/></linearGradient><linearGradient id="e" gradientUnits="userSpaceOnUse" x2="0" y1="507.8" y2="506.8"><stop offset="0" stop-color="#3da103"/><stop offset="1" stop-color="#7ddf07"/></linearGradient><linearGradient id="f" gradientUnits="userSpaceOnUse" x2="0" y1="507.8" y2="506.8"><stop offset="0" stop-color="#3da103"/><stop offset="1" stop-color="#7ddf07"/></linearGradient><linearGradient id="k" gradientTransform="matrix(.48382 0 0 .45 4.296 5.007)" gradientUnits="userSpaceOnUse" x2="-.611" y1="42.206" y2="6.651" x1="-.611"><stop offset="0" stop-color="#1d1e1e"/><stop offset="1" stop-color="#44484c"/></linearGradient><linearGradient id="l" gradientUnits="userSpaceOnUse" x1="6" x2="6" xlink:href="#g" y1="5" y2="4" gradientTransform="translate(4 5)"/><linearGradient id="g" gradientUnits="userSpaceOnUse" x2="0" y1="507.8" y2="506.8"><stop offset="0" stop-color="#3da103"/><stop offset="1" stop-color="#7ddf07"/></linearGradient><linearGradient id="m" gradientUnits="userSpaceOnUse" x1="6" x2="6" xlink:href="#g" y1="16" y2="15" gradientTransform="translate(4)"/><linearGradient id="n" gradientUnits="userSpaceOnUse" x1="6" x2="6" xlink:href="#g" y1="27" y2="26" gradientTransform="translate(4 -4)"/><linearGradient id="h" gradientUnits="userSpaceOnUse" x1="3" x2="18.75" y1="12" y2="27.75" gradientTransform="matrix(.57143 0 0 .57143 6.286 7.143)"><stop offset="0" stop-color="#292c2f"/><stop offset="1" stop-opacity="0"/></linearGradient><linearGradient xlink:href="#h" id="j" x1="8" y1="8" x2="26" y2="26" gradientUnits="userSpaceOnUse"/><linearGradient xlink:href="#h" id="o" gradientUnits="userSpaceOnUse" gradientTransform="matrix(.57143 0 0 .57143 7.286 7.143)" x1="3" y1="12" x2="17" y2="26"/></defs><linearGradient y2="25" y1="9" x2="26" x1="10" gradientUnits="userSpaceOnUse" id="d"><stop stop-color="#292c2f" offset="0"/><stop stop-opacity="0" offset="1"/></linearGradient><path d="M16 2a14 14 0 0 0-3 .336v2.059a12 12 0 0 0-3.084 1.277L8.463 4.219a14 14 0 0 0-4.254 4.234l1.463 1.463A12 12 0 0 0 4.39 13H2.34A14 14 0 0 0 2 16a14 14 0 0 0 .336 3h2.059a12 12 0 0 0 1.277 3.084l-1.453 1.453a14 14 0 0 0 4.234 4.254l1.463-1.463A12 12 0 0 0 13 27.61v2.05a14 14 0 0 0 3 .34 13.997 13.997 0 0 0 3-.336v-2.059a12 12 0 0 0 3.084-1.277l1.453 1.453a14 14 0 0 0 4.254-4.234l-1.463-1.463A12 12 0 0 0 27.61 19h2.05a14 14 0 0 0 .34-3 13.997 13.997 0 0 0-.336-3h-2.059a12 12 0 0 0-1.277-3.084l1.453-1.453a14 14 0 0 0-4.234-4.254l-1.463 1.463A12 12 0 0 0 19 4.39V2.34A14 14 0 0 0 16 2z" fill="url(#i)"/><path d="M24 8L8 24l2.781 2.781A12 12 0 0 0 13 27.61v2.051a14 14 0 0 0 3 .34 13.997 13.997 0 0 0 3-.336v-2.059a12 12 0 0 0 3.084-1.277l1.453 1.453a14 14 0 0 0 4.254-4.234l-1.463-1.463A12 12 0 0 0 27.61 19h2.051a14 14 0 0 0 .34-3 13.997 13.997 0 0 0-.336-3h-2.059a12 12 0 0 0-.808-2.203L24 8z" opacity=".2" fill="url(#j)"/><path d="M8 10h16v12H8z" fill="#111213"/><path d="M8 8v16h16V8zm1.063 3H23v3H9.062zm0 7H23v3H9.062z" fill="url(#k)"/><path d="M9 9h2v1H9z" fill="url(#l)"/><path d="M9 15h2v1H9z" fill="url(#m)"/><path d="M9 22h2v1H9z" fill="url(#n)"/><path d="M9 14l4 4h10v3h-7l3 3h5v-9l-1-1z" opacity=".4" fill="url(#o)" fill-rule="evenodd"/></svg>