<svg height="32" width="32" xmlns="http://www.w3.org/2000/svg"><linearGradient id="a" gradientTransform="matrix(.75 0 0 .7 -290.428 -350.66)" gradientUnits="userSpaceOnUse" x1="409.571" x2="409.571" y1="543.798" y2="503.798"><stop offset="0" stop-color="#73ba25"/><stop offset="1" stop-color="#81c13b"/></linearGradient><linearGradient id="c" gradientUnits="userSpaceOnUse" x1="8" x2="8" y1="14" y2="2"><stop offset="0" stop-color="#bf4231"/><stop offset="1" stop-color="#f58273"/></linearGradient><linearGradient id="b" gradientUnits="userSpaceOnUse" x1="5" x2="16" y1="2" y2="13"><stop offset="0" stop-color="#292c2f"/><stop offset="1" stop-opacity="0"/></linearGradient><linearGradient id="d" gradientUnits="userSpaceOnUse" x1="8" x2="8" y1="18" y2="2"><stop offset="0" stop-color="#fff"/><stop offset="1" stop-color="#fff" stop-opacity="0"/></linearGradient><path d="M4 2h24v28H4z" fill="url(#a)"/><path d="M4 29h24v1H4z" fill="#080809" opacity=".6"/><path d="M4 2h1v27H4z" fill="#080809" opacity=".5"/><path d="M16.001 7.038a8 8 0 0 0-6.298 3.082 32.67 32.67 0 0 1 1.873.555l.024-1.262s.003-.026.017-.04c.018-.017.044-.012.044-.012.256.037 5.735.85 8.044 2.195.285.167.426.344.602.524.638.66 1.481 3.405 1.572 3.971.003.022-.024.046-.036.056a3.452 3.452 0 0 1-.209.152c-.546.366-1.805 1.247-3.42 1.103-1.45-.128-3.346-.96-5.63-2.465.224.526.446 1.053.667 1.58.33.172 3.525 1.8 5.1 1.768 1.27-.027 2.628-.646 3.171-.973 0 0 .12-.072.172-.032.056.044.04.112.027.18-.033.156-.11.44-.16.576l-.045.11c-.062.166-.121.321-.237.417-.32.29-.83.522-1.63.87-1.238.541-3.244.885-5.108.873a19.904 19.904 0 0 1-1.878-.155c-1.162-.13-2.107-.237-2.684.18a8 8 0 0 0 6.022 2.748 8 8 0 0 0 8-8 8 8 0 0 0-8-8.001zm1.785 4.642a2.336 2.336 0 0 0-1.681.628 2.332 2.332 0 0 0-.743 1.633 2.352 2.352 0 0 0 2.26 2.426 2.32 2.32 0 0 0 1.683-.63 2.336 2.336 0 0 0 .742-1.63 2.352 2.352 0 0 0-2.261-2.427zm-.02.69a1.639 1.639 0 0 1 1.062 2.83 1.636 1.636 0 0 1-1.174.44 1.64 1.64 0 0 1-1.577-1.695c.014-.437.2-.84.518-1.138a1.613 1.613 0 0 1 1.171-.437zm.267.82c-.4 0-.724.217-.724.485 0 .266.324.483.724.483.401 0 .726-.217.726-.483 0-.268-.325-.484-.726-.484z" fill="#fcfcfc" fill-opacity=".941"/><path d="M11 2v12l-3-1-3 1 16 16h7V19z" fill="url(#b)" fill-rule="evenodd" opacity=".2"/><path d="M5 28h23v1H5z" fill="#c5cfd3"/><path d="M5 27h23v1H5z" fill="#212323" fill-opacity=".452"/><g stroke-width=".7"><path d="M5 2v12l3-1 3 1V2z" fill="url(#c)"/><path d="M6 2h4v10.667L8 12l-2 .667z" fill="url(#d)" opacity=".2"/></g></svg>