<svg xmlns="http://www.w3.org/2000/svg" xmlns:xlink="http://www.w3.org/1999/xlink" width="32" height="32"><defs><linearGradient y2="8" x2="8" y1="27" x1="27" gradientUnits="userSpaceOnUse" id="e" xlink:href="#a"/><linearGradient xlink:href="#b" id="f" x1="9" y1="10" x2="22.863" y2="23.863" gradientUnits="userSpaceOnUse"/><linearGradient xlink:href="#b" id="g" x1="22.181" y1="9.891" x2="30" y2="17.71" gradientUnits="userSpaceOnUse"/><linearGradient xlink:href="#c" id="d" x1="30" y1="30" x2="2" y2="2" gradientUnits="userSpaceOnUse"/><linearGradient id="c" gradientTransform="rotate(-165 -6.658 22.948)" gradientUnits="userSpaceOnUse" x1="3.242" x2="40" y1="15.778" y2="37"><stop offset="0" stop-color="#afb4b9"/><stop offset="1" stop-color="#cfd2d5"/></linearGradient></defs><linearGradient y2="17.522" y1="9.178" x2="-6.43" x1="-14.65" gradientUnits="userSpaceOnUse" gradientTransform="translate(1.01 -1.022)" id="b"><stop stop-color="#292c2f" offset="0"/><stop stop-opacity="0" offset="1"/></linearGradient><linearGradient y2="2" y1="30" x2="2" x1="30" gradientUnits="userSpaceOnUse" id="a"><stop stop-color="#17a81a" offset="0"/><stop stop-color="#41cd52" offset="1"/></linearGradient><path d="M16 2a14 14 0 0 0-3 .336v2.059a12 12 0 0 0-3.084 1.277L8.463 4.219a14 14 0 0 0-4.254 4.234l1.463 1.463A12 12 0 0 0 4.39 13H2.34A14 14 0 0 0 2 16a14 14 0 0 0 .336 3h2.059a12 12 0 0 0 1.277 3.084l-1.453 1.453a14 14 0 0 0 4.234 4.254l1.463-1.463A12 12 0 0 0 13 27.61v2.05a14 14 0 0 0 3 .34 13.997 13.997 0 0 0 3-.336v-2.059a12 12 0 0 0 3.084-1.277l1.453 1.453a14 14 0 0 0 4.254-4.234l-1.463-1.463A12 12 0 0 0 27.61 19h2.05a14 14 0 0 0 .34-3 13.997 13.997 0 0 0-.336-3h-2.059a12 12 0 0 0-1.277-3.084l1.453-1.453a14 14 0 0 0-4.234-4.254l-1.463 1.463A12 12 0 0 0 19 4.39V2.34A14 14 0 0 0 16 2z" fill="url(#d)"/><path d="M16 5A11 11 0 0 0 5 16a11 11 0 0 0 11 11 11 11 0 0 0 11-11A11 11 0 0 0 16 5z" fill="url(#e)"/><path d="M15.947 10.053l3.024 3.024v1.257l1.194 1.195.463 5.471.328.62L30.68 30H17.71l-8.855-8.855L9 10z" opacity=".2" fill="url(#f)"/><path d="M19 14.364l1.165 1.165.79 6.09L30 29.414V17.71l-7.819-7.82-2.016 2.707-1.194 1.736z" opacity=".2" fill="url(#g)"/><text word-spacing="0" letter-spacing="0" font-size="21.333" font-weight="400" y="22.779" x="-56.951" font-family="sans-serif" stroke-width=".634" fill="#232629"><tspan y="22.779" x="-56.951" font-weight="600" font-family="Titillium Web">Qt</tspan></text><path d="M12.377 22.137q-2.913 0-4.07-1.568Q7.168 19 7.168 15.622q0-3.397 1.158-5.04 1.176-1.643 4.05-1.643 2.875 0 4.033 1.643 1.157 1.624 1.157 5.021 0 2.24-.485 3.622-.467 1.381-1.55 2.109l1.568 2.52-1.922.896-1.662-2.725q-.354.112-1.138.112zM9.95 19.243q.635 1.083 2.427 1.083 1.791 0 2.407-1.064.635-1.083.635-3.64 0-2.557-.653-3.715-.635-1.157-2.39-1.157-1.754 0-2.408 1.157-.653 1.158-.653 3.696 0 2.539.635 3.64zm14.807-4.909h-2.576v4.107q0 1.138.168 1.512.168.373.859.373l1.53-.056.094 1.624q-1.25.243-1.904.243-1.587 0-2.184-.728-.579-.728-.579-2.744v-4.331h-1.194v-1.736h1.194V9.891h2.016v2.707h2.576z" aria-label="Qt" font-weight="600" font-size="18.667" font-family="Titillium Web" letter-spacing="0" word-spacing="0" fill="#fcfcfc"/></svg>