<svg xmlns="http://www.w3.org/2000/svg" xmlns:xlink="http://www.w3.org/1999/xlink" width="32" height="32"><defs><linearGradient y2="27" x2="27" y1="5" x1="5" gradientUnits="userSpaceOnUse" id="d" xlink:href="#a"/><linearGradient xlink:href="#b" id="c" x1="30" y1="30" x2="2" y2="2" gradientUnits="userSpaceOnUse"/><linearGradient id="b" gradientTransform="rotate(-165 -6.658 22.948)" gradientUnits="userSpaceOnUse" x1="3.242" x2="40" y1="15.778" y2="37"><stop offset="0" stop-color="#afb4b9"/><stop offset="1" stop-color="#cfd2d5"/></linearGradient></defs><linearGradient id="a"><stop stop-color="#35b9ab" offset="0"/><stop stop-color="#73ba25" offset="1"/></linearGradient><linearGradient gradientTransform="translate(2.286 -872.31) scale(.85714)" y2="1044.062" y1="1031.462" x2="25.1" x1="12.5" gradientUnits="userSpaceOnUse" id="e"><stop stop-color="#292c2f" offset="0"/><stop stop-opacity="0" offset="1"/></linearGradient><path d="M16 2a14 14 0 0 0-3 .336v2.059a12 12 0 0 0-3.084 1.277L8.463 4.219a14 14 0 0 0-4.254 4.234l1.463 1.463A12 12 0 0 0 4.39 13H2.34A14 14 0 0 0 2 16a14 14 0 0 0 .336 3h2.059a12 12 0 0 0 1.277 3.084l-1.453 1.453a14 14 0 0 0 4.234 4.254l1.463-1.463A12 12 0 0 0 13 27.61v2.05a14 14 0 0 0 3 .34 13.997 13.997 0 0 0 3-.336v-2.059a12 12 0 0 0 3.084-1.277l1.453 1.453a14 14 0 0 0 4.254-4.234l-1.463-1.463A12 12 0 0 0 27.61 19h2.05a14 14 0 0 0 .34-3 13.997 13.997 0 0 0-.336-3h-2.059a12 12 0 0 0-1.277-3.084l1.453-1.453a14 14 0 0 0-4.234-4.254l-1.463 1.463A12 12 0 0 0 19 4.39V2.34A14 14 0 0 0 16 2z" fill="url(#c)"/><path d="M16 5A11 11 0 0 0 5 16a11 11 0 0 0 11 11 11 11 0 0 0 11-11A11 11 0 0 0 16 5z" fill="url(#d)"/><path d="M19.248 8.2L7.475 16.253l5.33 5.332-.87.867 4.526 4.524A11 11 0 0 0 27 16a11 11 0 0 0-.002-.05l-7.75-7.75z" opacity=".2" fill="url(#e)"/><g stroke-width=".7"><path d="M18.747 22.983a3.045 3.045 0 0 0-.267-.106 20.09 20.09 0 0 1-.386-.14l-.478-.177-.57-.213-.287-.109-2.178.105a708.16 708.16 0 0 0-2.41.118c-.13.009-.233.009-.233-.008 0-.024.193-.335.669-1.073l.153-.238.006-1.725.006-1.723.118-1.181c.065-.65.112-1.194.102-1.208-.008-.014-.004-.04.01-.058a.688.688 0 0 0 .042-.219l.015-.186-.188.019c-.102.01-.205.027-.228.038a1.155 1.155 0 0 1-.225.038c-.607.06-1.087.17-1.477.343a2.676 2.676 0 0 1-.2.083c-.036 0-1.251.571-1.46.686-.218.122-.283.149-.365.158a.615.615 0 0 0-.126.093c-.124.106-.367.2-.583.225a.797.797 0 0 1-.352-.042c-.177-.051-.222-.08-.423-.27-.175-.164-.247-.257-.326-.416-.091-.189-.1-.229-.105-.465-.004-.227.003-.271.064-.377a.764.764 0 0 1 .455-.318.528.528 0 0 0 .233-.116c.066-.054.218-.171.339-.262.949-.704 1.366-1.05 1.366-1.13 0-.025.463-.814.541-.92.082-.112.334-.306.516-.398a5.109 5.109 0 0 1 .775-.28c.417-.107.376-.087.324-.165a24.182 24.182 0 0 0-.649-.733c-.33-.366-.62-.698-.643-.74a18.368 18.368 0 0 1-.258-.58c-.12-.277-.243-.56-.274-.627-.14-.3-.163-.366-.163-.473 0-.135.052-.216.174-.274.195-.095.274-.047.73.44.206.221.612.63.9.906.473.456.95 1.003 1.07 1.227.075.14.399.54.548.677.093.086.179.14.218.14.151 0 .373-.148.67-.45.597-.602 1.091-1.068 1.284-1.208.24-.175 1.286-.679 1.817-.874.21-.078.405-.152.437-.165a1.98 1.98 0 0 1 .169-.057.537.537 0 0 0 .139-.056.123.123 0 0 1 .07-.024c.024 0 .234-.069.466-.152.746-.267.768-.27.924-.146.116.093.155.214.107.336-.09.227-.8 1.176-1.194 1.593-.48.508-.743.678-1.569 1.013-.957.388-.995.408-1.274.691-.163.163-.447.651-.405.692.011.01.073 0 .137-.026.804-.3 1.096-.402 1.528-.53.279-.082.533-.16.564-.172a1.76 1.76 0 0 1 .225-.055 1.49 1.49 0 0 0 .21-.053c.024-.012.17-.036.325-.055.155-.019.308-.043.338-.052.031-.01.285-.01.564-.001.44.015.536.027.721.087.806.263 1.517.757 2.316 1.614.335.358.56.675.764 1.07.26.505.289.616.369 1.396.105 1.041.249 2.345.323 2.93.138 1.096.223 1.728.24 1.785.007.023.025.151.043.286.017.135.074.502.128.816.053.314.097.615.097.671 0 .099-.002.1-.13.118a2.493 2.493 0 0 1-.233.018c-.085 0-.134.03-.299.177-.109.097-.211.176-.23.176-.017 0-.085-.086-.15-.19l-.12-.19h-.155c-.138 0-.174.012-.369.141-.12.08-.24.166-.27.192-.03.026-.07.043-.086.039-.046-.015-.096-.183-.097-.33l-.002-.133-.185.019a4.926 4.926 0 0 0-.396.06c-.266.054-.317.04-.24-.063.03-.042.19-.276.355-.52l.3-.446-.047-.386a31.131 31.131 0 0 1-.061-.557c-.009-.095-.027-.179-.04-.186-.014-.009-.025-.043-.025-.077 0-.036-.061-.192-.137-.347a61.682 61.682 0 0 1-.224-.46 8.7 8.7 0 0 0-.228-.423l-.142-.245-.176.009c-.304.013-.297.008-.318.217a.917.917 0 0 1-.044.231.27.27 0 0 0-.027.112.913.913 0 0 1-.042.198 3.783 3.783 0 0 0-.085.392 21.1 21.1 0 0 1-.068.395c-.015.076-.041.23-.06.341a8.57 8.57 0 0 1-.056.327 13.61 13.61 0 0 0-.056.327 5.983 5.983 0 0 1-.058.32c-.053.232-.037.262.448.822.172.199.28.345.263.355a1.817 1.817 0 0 1-.25.067 9.453 9.453 0 0 0-.865.221c-.26.079-.337.084-.448.028zm-2.894-1.241c.369-.382.477-.512.544-.654.18-.383.223-.475.39-.85.097-.215.175-.42.175-.458 0-.053-.631-1.596-.664-1.623a22.395 22.395 0 0 0-.895-.252.3.3 0 0 1-.103-.038c-.05-.039-.112.008-.341.232l-.206.206.017.145c.032.265.071.552.099.717l.113.708c.046.3.097.619.112.709.015.09.066.409.111.709.048.3.098.604.114.677.015.072.028.162.028.199 0 .038.01.064.023.06.013-.009.23-.224.483-.486z" fill="#fcfcfc"/><path d="M18.747 22.983a3.047 3.047 0 0 0-.267-.106 20.09 20.09 0 0 1-.386-.14l-.478-.177-.57-.213-.287-.109-2.178.105a708.16 708.16 0 0 0-2.41.118c-.13.009-.233.009-.233-.008 0-.024.193-.335.669-1.073l.153-.238.006-1.725.006-1.723.118-1.181c.065-.65.112-1.194.102-1.208-.008-.014-.004-.04.01-.058a.688.688 0 0 0 .042-.219l.015-.186-.188.019c-.102.01-.205.027-.228.038a1.155 1.155 0 0 1-.225.038c-.607.06-1.087.17-1.477.343a2.676 2.676 0 0 1-.2.083c-.036 0-1.251.571-1.46.686-.218.122-.283.149-.365.158a.615.615 0 0 0-.126.093c-.124.106-.367.2-.583.225a.797.797 0 0 1-.352-.042c-.177-.051-.222-.08-.423-.27-.175-.164-.247-.257-.326-.416-.091-.189-.1-.229-.105-.465-.004-.227.003-.271.064-.377a.764.764 0 0 1 .455-.318.528.528 0 0 0 .233-.116c.066-.054.218-.171.339-.262.949-.704 1.366-1.05 1.366-1.13 0-.025.463-.814.541-.92.082-.112.334-.306.516-.398a5.109 5.109 0 0 1 .775-.28c.417-.107.377-.087.324-.165a24.182 24.182 0 0 0-.649-.733c-.332-.366-.62-.698-.643-.74a18.363 18.363 0 0 1-.258-.58 44.383 44.383 0 0 0-.274-.627c-.14-.3-.163-.366-.163-.473 0-.135.052-.216.174-.274.195-.095.274-.047.73.44.206.221.612.63.9.906.473.456.95 1.003 1.07 1.227.075.14.399.54.548.677.093.086.179.14.218.14.151 0 .373-.148.67-.45.597-.602 1.091-1.068 1.284-1.208.24-.175 1.286-.679 1.817-.874.21-.078.405-.152.437-.165a1.98 1.98 0 0 1 .169-.057.537.537 0 0 0 .139-.056.123.123 0 0 1 .07-.024c.024 0 .234-.069.466-.152.746-.267.768-.27.924-.146.116.093.155.214.107.336-.09.227-.8 1.176-1.194 1.593-.48.508-.743.678-1.569 1.013-.957.388-.995.408-1.274.691-.163.163-.447.651-.405.692.011.01.073 0 .137-.026.804-.3 1.096-.402 1.528-.53a19.114 19.114 0 0 0 .564-.172 1.76 1.76 0 0 1 .225-.055 1.49 1.49 0 0 0 .21-.053c.024-.012.17-.036.325-.055.154-.019.308-.043.338-.052.031-.01.285-.01.564 0 .44.014.536.026.721.086.806.263 1.517.757 2.316 1.614.335.358.562.675.764 1.07.26.505.289.616.369 1.396.105 1.041.249 2.345.323 2.93.138 1.096.223 1.728.24 1.785.007.023.025.151.043.286.017.135.074.502.128.816.053.314.097.615.097.671 0 .099-.002.1-.13.118a2.493 2.493 0 0 1-.233.018c-.085 0-.134.03-.299.177-.109.097-.211.176-.23.176-.017 0-.085-.086-.15-.19l-.12-.192h-.154c-.14 0-.174.014-.37.143-.118.08-.24.165-.27.192-.03.026-.07.044-.086.039-.046-.015-.096-.183-.097-.33l-.002-.133-.185.019a4.926 4.926 0 0 0-.396.06c-.266.053-.316.04-.24-.064.03-.041.19-.275.355-.52l.3-.445-.047-.386a31.131 31.131 0 0 1-.06-.557.527.527 0 0 0-.04-.186c-.015-.009-.026-.043-.026-.078s-.061-.19-.137-.347a49.856 49.856 0 0 1-.224-.459 8.7 8.7 0 0 0-.228-.423l-.141-.245-.177.009c-.304.013-.297.008-.318.218a.917.917 0 0 1-.043.231.268.268 0 0 0-.028.111.907.907 0 0 1-.042.198 3.782 3.782 0 0 0-.084.393c-.024.142-.055.32-.07.394-.014.076-.04.23-.057.341a10.371 10.371 0 0 1-.057.328c-.014.068-.04.214-.057.327a5.587 5.587 0 0 1-.057.318c-.053.234-.037.264.447.823.172.199.28.346.263.356a1.83 1.83 0 0 1-.249.067 9.166 9.166 0 0 0-.867.22c-.26.08-.336.085-.446.028zm.406-.587a1.575 1.575 0 0 1-.104-.264c.005-.009.08.074.167.177.246.291.245.29.412.252a.471.471 0 0 0 .143-.047 5.631 5.631 0 0 0-.234-.33 26.893 26.893 0 0 1-.255-.352c-.011-.019.115-.82.28-1.783.3-1.74.301-1.748.245-1.792a57.97 57.97 0 0 0-.335-.253 3.551 3.551 0 0 1-.415-.362c-.135-.151-.15-.204-.028-.092.137.124.062-.027-.179-.361-.206-.286-.248-.362-.267-.489-.025-.16-.002-.572.032-.572.011 0 .028.09.036.202a.834.834 0 0 0 .074.306c.032.057.147.3.257.54.11.24.214.455.234.48.037.045.438.346.643.482.076.05.138.115.148.156.01.037.036.068.058.068.021 0 .157-.043.301-.097.255-.093.363-.156.363-.209a.46.46 0 0 1 .04-.111c.26-.557.331-.763.311-.901-.01-.077-.01-.079.012-.017.052.139.03.262-.09.546a6.883 6.883 0 0 1-.158.35.189.189 0 0 0-.02.12.317.317 0 0 1-.027.156l-.043.1.385.673c.4.7.433.78.504 1.23.08.501.177.967.211 1.008.029.032.007.073-.116.224-.301.371-.397.5-.38.516.025.026.304-.045.42-.107.105-.056.175-.047.111.015-.053.051-.039.075.04.075h.075l-.02.169c-.022.19-.044.192.217-.015.108-.084.143-.099.175-.072a.17.17 0 0 0 .105.025.29.29 0 0 1 .115.015.325.325 0 0 0 .144 0l.094-.017.038.163c.044.193.077.184.154-.046.074-.217.082-.225.258-.225.133 0 .152-.009.139-.047a5.38 5.38 0 0 1-.06-.376c-.067-.488-.29-2.018-.323-2.22-.125-.76-.339-2.703-.395-3.597-.034-.563-.077-.72-.31-1.187-.336-.67-.979-1.389-1.736-1.938-.424-.308-.736-.471-1.176-.61l-.276-.089-.54.014a4.733 4.733 0 0 0-1.344.192 21.7 21.7 0 0 0-1.873.619c-.233.092-.47.188-.53.21-.057.024-.105.057-.105.073 0 .083.239.403.465.626.353.348.429.399.619.418.199.02.233.062.051.062-.19 0-.32-.087-.703-.471-.297-.297-.347-.364-.555-.751-.139-.26.069-.83.448-1.226.266-.277.513-.425 1.07-.643.264-.102.644-.264.845-.36.303-.142.407-.209.6-.38.364-.324.821-.87 1.226-1.46.223-.324.257-.399.168-.364a7.62 7.62 0 0 1-.232.082c-1.37.471-1.462.504-1.996.723-.824.339-1.263.586-1.691.95a13.02 13.02 0 0 0-.645.639c-.48.5-.673.662-.898.755-.26.108-.517.034-.747-.214a7.13 7.13 0 0 1-.574-.728c-.22-.335-.492-.643-1.07-1.212a52.967 52.967 0 0 1-.9-.908c-.168-.177-.31-.316-.317-.31a.971.971 0 0 0 .088.22c.054.114.154.34.223.501.068.162.149.348.18.415.223.48.201.453 1.04 1.379l.819.9-.257.048c-.537.096-1.213.318-1.484.488-.221.137-.267.196-.592.751-.262.446-.317.523-.52.709-.124.116-.463.385-.751.599-.29.214-.58.435-.647.492l-.12.103.217.116c.118.063.216.12.216.126 0 .008-.09-.02-.2-.057-.304-.1-.437-.109-.597-.043-.111.047-.146.079-.193.182-.051.114-.054.142-.024.314.05.287.282.588.563.735.124.063.418.05.578-.028.12-.059.154-.094.232-.243a.638.638 0 0 0 .095-.355c.002-.257.04-.33.063-.124.04.35.054.45.064.45.006 0 .331-.153.722-.34.772-.368 1.388-.629 1.698-.722.178-.054.357-.085 1.338-.233.666-.101.999-.238 1.29-.532l.095-.096-.065.12c-.079.143-.227.271-.435.376-.177.09-.162.042-.222.706-.023.256-.074.796-.114 1.2l-.113 1.156c-.03.313-.04.842-.04 2.057v1.633l-.232.342a7.036 7.036 0 0 1-.285.402c-.079.086-.038.117.16.117h.175l.106-.134c.167-.211.201-.223.118-.043a1.352 1.352 0 0 1-.103.195c-.023.027-.019.04.019.055.054.02 1.95-.084 1.975-.108.022-.022-.102-.892-.259-1.818a64.899 64.899 0 0 1-.127-.804 46.3 46.3 0 0 0-.123-.777 9.864 9.864 0 0 1-.06-.386l-.018-.155.179-.186c.098-.102.251-.266.34-.363l.161-.177.092.036c.173.066 2.268.74 2.3.74.061 0 .032-.051-.118-.209a1.48 1.48 0 0 1-.185-.227c-.044-.088.18.14.355.364.072.093.217.268.322.39.165.19.2.219.263.208.054-.01.072 0 .072.03 0 .025-.093.403-.207.842-.5 1.923-.647 2.52-.632 2.56.01.025.242.114.611.233l.594.19v-.171c0-.095-.012-.18-.028-.189-.015-.01-.027-.038-.027-.063.001-.084.073.037.182.31l.102.254.217.009c.12 0 .226 0 .238-.009.013-.008-.028-.13-.09-.27zm-.354-5.894c.029-.242.069-.29.069-.084 0 .181-.017.255-.06.255-.018 0-.021-.063-.01-.17zm-10.761-.574c-.045-.032-.05-.056-.032-.157a.75.75 0 0 0 .001-.351l-.022-.096.074.065c.04.036.114.142.165.236.077.144.087.184.063.249-.032.09-.16.117-.248.055zm-.491-.272a.235.235 0 0 1-.061-.145c0-.044-.015-.096-.034-.114-.02-.018-.022-.032-.005-.032.059 0 .183.158.198.254.02.115-.01.127-.098.037zm4.822-2.232c-.087-.04-.149-.183-.149-.343 0-.128.003-.136.105-.18.115-.048.162-.054.329-.048.108.008.109.008.059.059-.028.03-.04.055-.025.055.043 0 .123.151.123.232 0 .107-.171.259-.291.256a.45.45 0 0 1-.15-.03zm-.262-.635a.57.57 0 0 1 .14-.081.572.572 0 0 1 .303-.065h.163l-.155.02a1.616 1.616 0 0 0-.303.077.475.475 0 0 1-.148.046zm-.451-.689c0-.038.24-.138.47-.197.239-.06.38-.07.178-.013a6.21 6.21 0 0 0-.591.204c-.032.016-.057.019-.057.009zm4.142-1.273c0-.008.2-.2.444-.428.244-.23.497-.47.563-.534.066-.064.12-.105.12-.091 0 .03-.446.567-.532.64-.096.085-.078.127.042.095.14-.038.156-.008.023.048-.06.024-.227.098-.369.163-.257.12-.291.132-.291.107zm.055 10.915c.369-.382.477-.512.544-.654.18-.383.223-.475.39-.85.097-.215.175-.42.175-.458 0-.053-.631-1.596-.664-1.623a22.395 22.395 0 0 0-.895-.252.3.3 0 0 1-.103-.038c-.05-.039-.112.008-.341.232l-.206.206.017.145c.032.265.071.552.099.717l.113.708c.046.3.097.619.112.709.015.09.066.409.111.709.048.3.098.604.114.677.015.072.028.162.028.199 0 .038.01.064.023.06.013-.009.23-.224.483-.486z" fill="#173f4f"/></g></svg>