<svg height="32" width="32" xmlns="http://www.w3.org/2000/svg" xmlns:xlink="http://www.w3.org/1999/xlink"><linearGradient id="d" gradientTransform="rotate(-165 -6.658 22.948)" gradientUnits="userSpaceOnUse" x1="-27.383" x2="-20.311" y1="21.553" y2="47.946"><stop offset="0" stop-color="#afb4b9"/><stop offset="1" stop-color="#cfd2d5"/></linearGradient><linearGradient id="e" gradientUnits="userSpaceOnUse" x1="27" x2="30" y1="14" y2="17"><stop offset="0" stop-color="#292c2f"/><stop offset="1" stop-opacity="0"/></linearGradient><linearGradient id="c"><stop offset="0" stop-color="#bf4231"/><stop offset="1" stop-color="#e05e4c"/></linearGradient><linearGradient id="b"><stop offset="0" stop-color="#ffafa5"/><stop offset="1" stop-color="#ffe5e1"/></linearGradient><linearGradient id="a"><stop offset="0" stop-color="#f58273"/><stop offset="1" stop-color="#ffafa5"/></linearGradient><linearGradient id="f" gradientUnits="userSpaceOnUse" x1="11" x2="8.998" xlink:href="#a" y1="14" y2="10.008"/><linearGradient id="g" gradientUnits="userSpaceOnUse" x1="11" x2="9" xlink:href="#b" y1="14" y2="10"/><linearGradient id="m" gradientUnits="userSpaceOnUse" x1="16" x2="16" xlink:href="#a" y1="14" y2="10"/><linearGradient id="h" gradientUnits="userSpaceOnUse" x1="21" x2="16" xlink:href="#b" y1="14" y2="10"/><linearGradient id="i" gradientUnits="userSpaceOnUse" x1="27" x2="23" y1="14" y2="10"><stop offset="0" stop-color="#f36957"/><stop offset="1" stop-color="#ff9487"/></linearGradient><linearGradient id="l" gradientUnits="userSpaceOnUse" x1="16" x2="11" xlink:href="#c" y1="25" y2="14"/><linearGradient id="j" gradientUnits="userSpaceOnUse" x1="24" x2="21" xlink:href="#c" y1="17" y2="14"/><linearGradient id="k" gradientUnits="userSpaceOnUse" x1="16" x2="16" y1="25" y2="14"><stop offset="0" stop-color="#dc4732"/><stop offset="1" stop-color="#f36957"/></linearGradient><path d="M16 2a14 14 0 0 0-3 .336v2.059a12 12 0 0 0-3.084 1.277L8.463 4.219a14 14 0 0 0-4.254 4.234l1.463 1.463A12 12 0 0 0 4.39 13H2.34A14 14 0 0 0 2 16a14 14 0 0 0 .336 3h2.059a12 12 0 0 0 1.277 3.084l-1.453 1.453a14 14 0 0 0 4.234 4.254l1.463-1.463A12 12 0 0 0 13 27.61v2.05a14 14 0 0 0 3 .34 13.997 13.997 0 0 0 3-.336v-2.059a12 12 0 0 0 3.084-1.277l1.453 1.453a14 14 0 0 0 4.254-4.234l-1.463-1.463A12 12 0 0 0 27.61 19h2.05a14 14 0 0 0 .34-3 13.997 13.997 0 0 0-.336-3h-2.059a12 12 0 0 0-1.277-3.084l1.453-1.453a14 14 0 0 0-4.234-4.254l-1.463 1.463A12 12 0 0 0 19 4.39V2.34A14 14 0 0 0 16 2z" fill="url(#d)"/><path d="M26 13L15 24l4 4v-.395a12 12 0 0 0 3.084-1.277l1.453 1.453a14 14 0 0 0 4.254-4.234l-1.463-1.463A12 12 0 0 0 27.61 19h2.051a14 14 0 0 0 .287-2.053z" fill="url(#e)" opacity=".2"/><path d="M57.742 14.08l3.992-3.992H77.74l4 4-12 12z" fill="#da4453"/><path d="M8.998 10.008L11 14H5z" fill="url(#f)"/><path d="M9 10l2 4 5-4z" fill="url(#g)"/><path d="M16 10h7l-2 4z" fill="url(#h)"/><path d="M23 10l4 4h-6z" fill="url(#i)"/><path d="M16 25l5-11h6z" fill="url(#j)"/><path d="M16 25l5-11H11z" fill="url(#k)"/><path d="M5 14h6l5 11z" fill="url(#l)"/><path d="M61.74 10.088l-.012.006-.363.364.002.003-3.127 3.127h-.006l-.492.493.002.003-.004.004.707.707.004-.003 10.172 10.177 1.117 1.12.373-.374.334-.334 10.586-10.586.207-.207.5-.5-3.627-3.627-.373-.373H62.3zm1.059 1h4.539l-3.405 2.27zm6.343 0h1.196l3.75 2.5h-8.696zm3 0h4.54l-1.135 2.27zm-10.304.317l1.094 2.183h-3.278zm15.804 0l2.184 2.183h-3.277zm-17.988 3.183h3.778l3.779 7.557zm4.895 0h10.383l-4.897 9.791-.295.295-.295-.295zm11.5 0h3.777l-7.555 7.555z"/><path d="M16 10l5 4H11z" fill="url(#m)"/></svg>