<svg xmlns="http://www.w3.org/2000/svg" xmlns:xlink="http://www.w3.org/1999/xlink" width="32" height="32"><defs><linearGradient y2="5" x2="16" y1="27" x1="16" gradientUnits="userSpaceOnUse" id="e" xlink:href="#a"/><linearGradient xlink:href="#b" id="d" x1="30" y1="30" x2="2" y2="2" gradientUnits="userSpaceOnUse"/><linearGradient id="b" gradientTransform="rotate(-165 -6.658 22.948)" gradientUnits="userSpaceOnUse" x1="3.242" x2="40" y1="15.778" y2="37"><stop offset="0" stop-color="#afb4b9"/><stop offset="1" stop-color="#cfd2d5"/></linearGradient></defs><linearGradient gradientTransform="translate(2.415 2.686) scale(.84344)" y2="6" y1="24" x2="20" x1="20" gradientUnits="userSpaceOnUse" id="l"><stop stop-color="#eff0f1" offset="0"/><stop stop-color="#f2f2f2" offset="1"/></linearGradient><linearGradient gradientTransform="translate(2.415 2.686) scale(.84344)" y2="6" y1="24" x2="20" x1="20" gradientUnits="userSpaceOnUse" id="i"><stop stop-color="#afb0b3" offset="0"/><stop stop-color="#bdc3c7" offset="1"/></linearGradient><linearGradient id="c"><stop stop-color="#292c2f" offset="0"/><stop stop-opacity="0" offset="1"/></linearGradient><linearGradient gradientTransform="translate(2.415 2.686) scale(.84344)" y2="30" y1="16" xlink:href="#c" x2="16" x1="2" gradientUnits="userSpaceOnUse" id="f"/><linearGradient gradientTransform="translate(2.415 2.686) scale(.84344)" y2="26" y1="20" xlink:href="#c" x2="26" x1="20" gradientUnits="userSpaceOnUse" id="g"/><linearGradient gradientTransform="translate(2.415 2.686) scale(.84344)" y2="16" y1="7" xlink:href="#c" x2="30" x1="21" gradientUnits="userSpaceOnUse" id="h"/><linearGradient gradientTransform="translate(2.415 2.686) scale(.84344)" y2="17.5" y1="8.5" xlink:href="#c" x2="20" x1="11" gradientUnits="userSpaceOnUse" id="j"/><linearGradient gradientTransform="translate(2.415 2.686) scale(.84344)" y2="16.5" y1="7.5" xlink:href="#c" x2="24" x1="15" gradientUnits="userSpaceOnUse" id="k"/><linearGradient y2="2" y1="30" x2="16" x1="16" gradientUnits="userSpaceOnUse" id="a"><stop stop-color="#73ba25" offset="0"/><stop stop-color="#59bbe7" offset="1"/></linearGradient><path d="M16 2a14 14 0 0 0-3 .336v2.059a12 12 0 0 0-3.084 1.277L8.463 4.219a14 14 0 0 0-4.254 4.234l1.463 1.463A12 12 0 0 0 4.39 13H2.34A14 14 0 0 0 2 16a14 14 0 0 0 .336 3h2.059a12 12 0 0 0 1.277 3.084l-1.453 1.453a14 14 0 0 0 4.234 4.254l1.463-1.463A12 12 0 0 0 13 27.61v2.05a14 14 0 0 0 3 .34 13.997 13.997 0 0 0 3-.336v-2.059a12 12 0 0 0 3.084-1.277l1.453 1.453a14 14 0 0 0 4.254-4.234l-1.463-1.463A12 12 0 0 0 27.61 19h2.05a14 14 0 0 0 .34-3 13.997 13.997 0 0 0-.336-3h-2.059a12 12 0 0 0-1.277-3.084l1.453-1.453a14 14 0 0 0-4.234-4.254l-1.463 1.463A12 12 0 0 0 19 4.39V2.34A14 14 0 0 0 16 2z" fill="url(#d)"/><path d="M16 5A11 11 0 0 0 5 16a11 11 0 0 0 11 11 11 11 0 0 0 11-11A11 11 0 0 0 16 5z" fill="url(#e)"/><path d="M6.633 21.242L13 27.61l2.357 2.358A14 14 0 0 0 16 30a14 14 0 0 0 .63-.033c-.625-1.018-1.169-1.981-.72-1.979.688 0 1.83.383 3.09.854v-1.237a12 12 0 0 0 3.084-1.277l1.453 1.453a14 14 0 0 0 .35-.25l-4.604-4.603-12.65-1.686zm16.828 6.584a14 14 0 0 1-.898.506 14 14 0 0 0 .898-.506zm-.898.506a14 14 0 0 1-.604.307 14 14 0 0 0 .604-.307zm-.604.307a14 14 0 0 1-.68.297 14 14 0 0 0 .68-.297zm-.68.297a14 14 0 0 1-.603.234 14 14 0 0 0 .603-.234zm-.603.234a14 14 0 0 1-.436.14l.022.008a14 14 0 0 0 .414-.148z" opacity=".2" fill="url(#f)"/><path d="M20.127 8.59l-.844 14.338 4.604 4.603a14 14 0 0 0 3.904-3.984l-1.463-1.463a12 12 0 0 0 .856-1.799l-3.262-3.262-3.795-2.107V8.59zm7.664 14.957a14 14 0 0 0 .516-.908 14 14 0 0 1-.516.908zm.516-.908a14 14 0 0 0 .314-.63 14 14 0 0 1-.314.63zm.314-.63a14 14 0 0 0 .096-.19l-.008-.008a14 14 0 0 1-.088.199z" opacity=".2" fill="url(#g)"/><path d="M20.127 8.59v6.326l3.795 2.107 3.262 3.262A12 12 0 0 0 27.609 19h2.05a14 14 0 0 0 .128-.75l-9.66-9.66zm9.521 10.451a14 14 0 0 1-.275 1.01 14 14 0 0 0 .275-1.01zm-.275 1.01a14 14 0 0 1-.219.672 14 14 0 0 0 .219-.672zm-.219.672a14 14 0 0 1-.248.644 14 14 0 0 0 .248-.644zm-.248.644a14 14 0 0 1-.197.444l.008.007a14 14 0 0 0 .19-.45z" opacity=".2" fill="url(#h)"/><path d="M19.284 22.928l5.06-1.687-.421-4.217-3.796-2.108V8.59l-.843-.844z" fill="url(#i)"/><path d="M11.693 9.855l1.687 1.687v4.639h-1.687z" opacity=".2" fill="url(#j)"/><path d="M15.066 9.011l2.109 2.11v4.216h-2.109z" opacity=".2" fill="url(#k)"/><path d="M7.475 17.446l-.843 3.795 12.652 1.687V7.746l-2.109.844v6.326l-2.109.421V9.011l-1.686.844v5.904l-1.687.422V9.855l-1.687.843v5.904z" fill="url(#l)"/></svg>