<svg xmlns="http://www.w3.org/2000/svg" xmlns:xlink="http://www.w3.org/1999/xlink" height="32" width="32"><defs><linearGradient id="a"><stop offset="0" stop-color="#292c2f"/><stop offset="1" stop-opacity="0"/></linearGradient><linearGradient id="c" gradientUnits="userSpaceOnUse" x1="24" x2="24" y1="22" y2="6" gradientTransform="translate(-6 -3.25) scale(1.375)"><stop offset="0" stop-color="#197cf1"/><stop offset="1" stop-color="#20bcfa"/></linearGradient><linearGradient id="d" gradientUnits="userSpaceOnUse" x1="6.882" x2="19.465" xlink:href="#a" y1="3.153" y2="15.737" gradientTransform="translate(-6 -3.25) scale(1.375)"/><linearGradient id="e" gradientUnits="userSpaceOnUse" x1="20" x2="24" xlink:href="#a" y1="12.003" y2="16.003" gradientTransform="translate(-6 -3.25) scale(1.375)"/><linearGradient xlink:href="#b" id="f" x1="30" y1="30" x2="2" y2="2" gradientUnits="userSpaceOnUse"/><linearGradient id="b" gradientUnits="userSpaceOnUse" x2="0" y1="30" y2="2"><stop offset="0" stop-color="#7cbaf8"/><stop offset="1" stop-color="#f4fcff"/></linearGradient></defs><rect y="5" x="5" width="22" rx="11" height="22" fill="url(#c)"/><path d="M18.038 5.195l-2.338.299-3.248 1.875-1.18 2.045s-1.552 1.092-1.785 1.03c-1.978-.024-3.04.522-3.599 1.215a10.938 10.938 0 0 0-.566 1.726 4.21 4.21 0 0 0 .128 1.063c5.548 4.994 11.096 7.146 16.643 10.718a10.9 10.9 0 0 0 1.002-.754c.018-.013.034-.031.054-.046.282-.242.551-.501.808-.77.056-.06.11-.121.165-.182a10.945 10.945 0 0 0 1.375-1.866l.041-.071a10.993 10.993 0 0 0 1.434-4.935l.002-.015v-.002l-1.433-6a10.961 10.961 0 0 0-7.503-5.33z" opacity=".2" fill="url(#d)" fill-rule="evenodd"/><path d="M26.223 11.947l-3.382 5.233 3.235 3.236a10.999 10.999 0 0 0 .147-8.47z" opacity=".2" fill="url(#e)" fill-rule="evenodd"/><path d="M16 2a14 14 0 0 0-3 .336v2.059a12 12 0 0 0-3.084 1.277L8.463 4.219a14 14 0 0 0-4.254 4.234l1.463 1.463A12 12 0 0 0 4.39 13H2.34A14 14 0 0 0 2 16a14 14 0 0 0 .336 3h2.059a12 12 0 0 0 1.277 3.084l-1.453 1.453a14 14 0 0 0 4.234 4.254l1.463-1.463A12 12 0 0 0 13 27.61v2.051a14 14 0 0 0 3 .34 13.997 13.997 0 0 0 3-.336v-2.059a12 12 0 0 0 3.084-1.277l1.453 1.453a14 14 0 0 0 4.254-4.234l-1.463-1.463A12 12 0 0 0 27.61 19h2.051a14 14 0 0 0 .34-3 13.997 13.997 0 0 0-.336-3h-2.059a12 12 0 0 0-1.277-3.084l1.453-1.453a14 14 0 0 0-4.234-4.254l-1.463 1.463A12 12 0 0 0 19 4.39V2.34A14 14 0 0 0 16 2zm0 3c.051 0 .101.007.152.008h-.302a11.065 11.065 0 0 0-2.446.31c-.206.186-.513.28-.855.27-.124.118-.094.335-.16.496-.057.135-.255.282-.391.27-.1-.009-.215-.15-.215-.243 0-.112.157-.174.07-.3A10.935 10.935 0 0 0 9.42 7.189c.2-.074.418-.197.6-.2a.33.33 0 0 1 .084.009c.122.032.443.384.175.498a2.761 2.761 0 0 1-.455.04c-.093-.017-.149-.144-.244-.161-.155-.027-.354.13-.49.06.107-.086.22-.163.33-.246a10.931 10.931 0 0 1 2.434-1.378 10.926 10.926 0 0 1 1.55-.493 11.06 11.06 0 0 1 2.446-.31c.05 0 .1-.008.15-.008zm.541.027c3.06.148 5.78 1.53 7.68 3.668a.851.851 0 0 1-.016.303c-.037.146-.168.278-.162.404.01.065.081.129.098.215.008.047-.022.147 0 .19.068.132.254.02.375.04.118.019.255.188.254.321 0 .092-.088.248-.147.336-.117.179-.276.186-.443.281-.14.079-.201.212-.284.35-.088.15-.143.24-.107.457a1.059 1.059 0 0 1-.549.496c-.074.033-.175.046-.242.094-.054.038-.085.143-.162.23-.094.105-.193.147-.242.227-.039.062-.05.187-.092.27-.058.112-.179.166-.256.28-.034.054-.057.16-.096.23-.085.155-.23.265-.214.401.015.132.166.154.175.268.003.066-.042.106-.04.178.002.103.071.174.08.254.02.199-.069.277-.106.414-.018.066-.01.139-.027.191-.033.099-.173.188-.176.307-.002.084.087.152.094.27.002.082-.041.166-.026.241.028.146.288.317.402.43.153.151.35.269.417.43.055.136.056.314.162.416.078.075.206.124.306.2.095.075.199.137.3.216.163.128.408.382.669.363.135-.01.276-.12.43-.148.16-.028.364-.043.525-.028.122.014.247.086.375.08.135-.008.29-.107.443-.173.241-.106.592-.237.946-.217A10.965 10.965 0 0 1 16 27c.16 0 .315-.019.473-.025a.79.79 0 0 1 .013-.07c.048-.138.173-.182.254-.284.06-.076.089-.165.147-.24.063-.083.119-.156.16-.229.041-.244-.096-.416-.04-.63.065-.241.398-.388.632-.497.08-.038.164-.1.228-.123.162-.055.363-.023.512-.078.252-.092.277-.362.4-.592.06-.107.14-.216.149-.294.01-.07-.025-.133-.014-.215.014-.081.084-.153.107-.243.028-.116.043-.285.043-.416 0-.105-.05-.198-.056-.294-.017-.348.126-.389.256-.579.064-.093.09-.2.134-.267.216-.323.59-.479.563-.967-.008-.162-.11-.527-.229-.578-.068-.03-.222-.004-.32-.041-.316-.118-.505-.51-.834-.535-.07-.01-.134.027-.213.027-.13-.01-.328-.093-.472-.11-.091-.009-.213.028-.268 0-.084-.04-.093-.193-.16-.24-.055-.037-.16-.05-.242-.082-.132-.05-.236-.11-.389-.12-.047-.003-.107.021-.162.013-.085-.014-.152-.113-.229-.16-.097-.06-.187-.09-.228-.174.088-.289-.156-.37-.215-.537-.027-.078-.015-.174-.041-.242-.033-.1-.133-.159-.24-.242-.195-.149-.368-.288-.647-.323-.12-.015-.24.037-.388.028-.156-.01-.352-.148-.47-.282-.113-.13-.17-.247-.269-.31-.095-.06-.22-.057-.283-.12-.027-.025-.022-.07-.053-.134-.046-.096-.127-.15-.068-.268-.107-.055-.11.101-.227.08-.104-.148-.191-.217-.43-.173-.108.019-.17.156-.296.16-.105.008-.184-.116-.32-.135-.105-.014-.223.027-.297.014-.114-.024-.15-.12-.254-.188-.077-.05-.225-.136-.268-.135-.135.01-.23.289-.418.19-.09-.116.147-.176.041-.283-.082-.081-.152.036-.217.082-.074.05-.144.1-.226.132-.184.07-.3.032-.443.108-.134.069-.14.185-.215.322-.062.113-.203.275-.295.281-.113.01-.221-.155-.324-.199-.308-.133-.458.119-.713.121-.237.01-.574-.381-.563-.605.003-.135.077-.342.094-.51.014-.133.106-.215.107-.336.003-.165-.215-.29-.32-.31-.252-.046-.6.101-.889-.014-.055-.09.064-.154.096-.242.017-.051.008-.117.025-.172.032-.085.123-.152.163-.244.03-.069.036-.168.066-.254.034-.096.1-.16.107-.229a.301.301 0 0 0-.093-.254H7.43c-.222.011-.368.023-.494.08-.292.132-.236.524-.526.618-.1.031-.238.033-.35.052-.096.018-.21.07-.308.069a.743.743 0 0 1-.387-.19 1.844 1.844 0 0 1-.178-.35 11.08 11.08 0 0 0-.144 1.147 10.954 10.954 0 0 1 4.021-7.705 10.967 10.967 0 0 0-3.335 4.627c.064-.037.13-.079.187-.107.197-.104.364-.268.592-.284a1.994 1.994 0 0 1 .387.057c.101.02.183.086.271.092.248.02.306-.173.508-.281.209.03.349-.035.537-.014.13.014.222.152.322.16.085.008.16-.079.24-.066.08.012.217.185.23.28.017.122-.088.23-.054.364.128.13.357.154.537.229.119-.097.017-.276 0-.416-.001-.062.009-.118 0-.176-.01-.096-.051-.185-.052-.268-.002-.382.306-.561.562-.713.113-.066.2-.18.297-.228.137-.069.237-.083.35-.147.203-.114.379-.205.537-.335.074-.174.008-.407.013-.579.075-.044.137.022.215.014.123-.025.133-.199.203-.268.042-.04.152-.067.201-.107.124-.096.162-.242.268-.283.039-.015.127-.011.188-.027.078-.021.193-.115.322-.159.084-.03.277-.035.308-.068.042-.04.002-.154.016-.215.066-.304.522-.367.791-.469.19-.071.384-.203.592-.162-.041.145-.234.093-.201.268.045.243.37-.07.455-.106.165-.068.445-.11.66-.19.188-.068.527-.174.35-.39-.149-.008-.22.174-.35.23-.09.014-.073-.073-.149-.081-.072-.009-.113.067-.187.054-.074-.013-.178-.13-.188-.216-.03-.225.188-.316.282-.483-.062-.203-.341-.042-.512-.123.017-.12.142-.203.283-.226.116-.02.375-.01.444.052.04.035.002.12.068.174.067.062.152.058.24.043.033-.151-.198-.115-.174-.217.182-.118.476-.02.698-.052.128-.02.262-.111.377-.174.107-.062.247-.169.36-.069.033.11-.099.148-.16.202a4.28 4.28 0 0 0-.577.605c.097.096.277.047.443.066.065.009.146.03.215.041.08.014.165.01.228.026.113.027.143.148.254.148.184 0 .185-.198.082-.322.032-.126.084-.193.041-.281-.082-.165-.387-.009-.404-.215-.01-.133.114-.128.162-.229-.022-.258.214-.278.188-.51-.011-.097-.094-.098-.163-.189-.034-.047-.05-.137-.093-.174-.14-.118-.425-.096-.442-.322-.002-.077.009-.146.014-.219zm-5.979 2.616a.329.329 0 0 1 .053 0c.062.008.138.076.215.082.072.002.13-.04.174-.028.113.03.161.199.057.282-.09.01-.126-.039-.192-.028-.183.032-.25.388-.387.377-.129-.01-.197-.324-.068-.418.01-.081-.06-.094-.057-.174a.329.329 0 0 1 .206-.093zm-.552.04c.037.002.066.011.08.028-.018.143-.13.133-.24.2-.193.115-.303.292-.364.536-.016.073-.204.264-.295.244-.213-.044.06-.439.108-.498.055-.067.124-.124.187-.2.062-.074.103-.174.162-.216a.792.792 0 0 1 .362-.093zm1.59.483v.002c.068 0 .128.01.156.039-.044.177-.424.13-.563.066.009-.067.114-.085.202-.093.061-.003.136-.014.205-.014zm-.87.328a.488.488 0 0 1 .14.022 1.277 1.277 0 0 1-.47.228c-.101.033-.279.073-.296-.04-.021-.141.15-.108.242-.12.118-.017.247-.084.384-.09zm13.51.22c.352.399.677.818.969 1.265.074.113.14.23.21.347-.045-.004-.088-.009-.138-.008-.137.01-.36.01-.361-.16-.001-.139.13-.171.289-.18a10.977 10.977 0 0 0-.969-1.263zm1.211 1.663a10.91 10.91 0 0 1 1.494 4.527 10.961 10.961 0 0 0-.162-1.082 10.961 10.961 0 0 0-1.332-3.445zM5.514 15.068c.33-.01.471.42.738.551.066.033.154.034.24.055.069.014.12.044.188.066.141.048.317.044.431.094.17.077.295.4.442.484.008.087-.017.203.013.268.07.095.168.075.284.137.137.073.179.26.308.32.044.02.159.019.229.041.178.055.236.26.388.215.1-.029.093-.134.11-.229.066-.071.137-.186.24-.187.166-.008.182.172.242.334.035.092.123.171.147.267.04.168.022.667-.014.766-.041.124-.205.176-.309.313-.048.063-.071.153-.107.199-.066.08-.165.101-.213.175-.027.042-.054.13-.082.186-.08.172-.188.293-.121.498.029.084.16.143.162.242 0 .117-.25.22-.27.35-.013.095.078.265.108.389.023.093.2.151.256.214.093.106.167.256.254.39.17.26.304.58.47.833.087.132.21.251.27.389.03.068.025.153.053.215.096.217.52.443.738.55.102.05.215.07.309.121.143.08.424.293.496.418.064.112.105.384.136.563.042.234.002.417.014.672.008.137.051.277.053.416 0 .048-.026.082-.028.133-.002.167.042.357.028.525a.578.578 0 0 1-.012.096A10.978 10.978 0 0 1 5 16c0-.273.022-.54.041-.807.023.004.05.01.068.01.128 0 .264-.132.405-.135zM11 16.578a.083.083 0 0 1 .021 0c.093.008.104.196.01.211-.1.015-.152-.158-.054-.203a.083.083 0 0 1 .023-.008zm.775 9.584a11.014 11.014 0 0 0 .965.35 11.014 11.014 0 0 0 1.057.27 10.931 10.931 0 0 1-2.022-.62z" fill="url(#f)"/></svg>