<svg xmlns="http://www.w3.org/2000/svg" xmlns:xlink="http://www.w3.org/1999/xlink" width="32" height="32"><defs><linearGradient y2="2" x2="16" y1="30" x1="16" gradientUnits="userSpaceOnUse" id="c" xlink:href="#a"/><linearGradient xlink:href="#b" id="g" x1="16" y1="27" x2="16" y2="5" gradientUnits="userSpaceOnUse" gradientTransform="translate(-12.2 -33)"/></defs><linearGradient y2="-9" y1="-25" x2="11.8" x1="-4.2" gradientUnits="userSpaceOnUse" id="e"><stop stop-color="#292c2f" offset="0"/><stop stop-opacity="0" offset="1"/></linearGradient><linearGradient y2="5" y1="27" x2="16" x1="16" gradientUnits="userSpaceOnUse" id="b"><stop stop-color="#4d4d4d" offset="0"/><stop stop-color="#7f8c8d" offset="1"/></linearGradient><linearGradient y2="2" y1="30" x2="0" gradientUnits="userSpaceOnUse" id="a"><stop stop-color="#db3636" offset="0"/><stop stop-color="#de4646" offset="1"/></linearGradient><linearGradient y2="-28" y1="-6" x2="-7.2" x1="-7.2" gradientUnits="userSpaceOnUse" id="d"><stop stop-color="#1b1e21" offset="0"/><stop stop-color="#363c42" offset="1"/></linearGradient><linearGradient y2="-7" y1="-17" x2="13.8" x1="3.8" gradientUnits="userSpaceOnUse" id="f"><stop offset="0"/><stop stop-opacity="0" offset="1"/></linearGradient><path d="M16 2a14 14 0 0 0-3 .336v2.059a12 12 0 0 0-3.084 1.277L8.463 4.219a14 14 0 0 0-4.254 4.234l1.463 1.463A12 12 0 0 0 4.39 13H2.34A14 14 0 0 0 2 16a14 14 0 0 0 .336 3h2.059a12 12 0 0 0 1.277 3.084l-1.453 1.453a14 14 0 0 0 4.234 4.254l1.463-1.463A12 12 0 0 0 13 27.61v2.05a14 14 0 0 0 3 .34 14 14 0 0 0 3-.336v-2.059a12 12 0 0 0 3.084-1.277l1.453 1.453a14 14 0 0 0 4.254-4.234l-1.463-1.463A12 12 0 0 0 27.61 19h2.05a14 14 0 0 0 .34-3 14 14 0 0 0-.336-3h-2.059a12 12 0 0 0-1.277-3.084l1.453-1.453a14 14 0 0 0-4.234-4.254l-1.463 1.463A12 12 0 0 0 19 4.39V2.34A14 14 0 0 0 16 2zm7.547 2.209a14 14 0 0 0-4.506-1.857 14 14 0 0 1 4.506 1.857zM29.664 13a14 14 0 0 0-1.838-4.46A14 14 0 0 1 29.664 13zm-1.873 10.547a14 14 0 0 0 1.857-4.506 14 14 0 0 1-1.857 4.506zM19 29.664a14 14 0 0 0 4.46-1.838A14 14 0 0 1 19 29.664zM8.453 27.791a14 14 0 0 0 4.506 1.857 14 14 0 0 1-4.506-1.857zM2.336 19a14 14 0 0 0 1.838 4.46A14 14 0 0 1 2.336 19zM4.209 8.453a14 14 0 0 0-1.857 4.506 14 14 0 0 1 1.857-4.506zM13 2.336a14 14 0 0 0-4.46 1.838A14 14 0 0 1 13 2.336z" fill="url(#c)"/><g transform="translate(12.2 33)"><path fill="url(#d)" d="M14.8-17a11 11 0 0 1-11 11 11 11 0 0 1-11-11 11 11 0 0 1 11-11 11 11 0 0 1 11 11z"/><path fill="#fcfcfc" d="M4.331-25.99a8.986 8.986 0 0 0-2.408.191l.184.985a8.009 8.009 0 0 1 2.166-.178 7.99 7.99 0 0 1 6.681 4.416l.893-.447A8.988 8.988 0 0 0 4.33-25.99zm-5 1.183a9 9 0 0 0-3.68 3.985l.87.517a8.002 8.002 0 0 1 3.26-3.607zm12.52 3.793zm-.242 2.291c.014.066.026.133.039.2-.013-.067-.025-.134-.04-.2zm1.021.022zm-17.703.252c-.052.301-.09.607-.111.912-.018.334-.017.668.002 1.002l1.01.058a7.976 7.976 0 0 1-.014-1.002 7.99 7.99 0 0 1 .076-.705zm16.83.685c.008.083.016.165.022.248-.006-.083-.014-.165-.022-.248zm1.018.188z"/><path fill="#ed1515" d="M11.847-21.023l-.893.447a7.951 7.951 0 0 1 .832 4.04 7.895 7.895 0 0 1-.129.995l1.002.06c.06-.328.102-.66.125-.994a8.953 8.953 0 0 0-.937-4.548z"/><path opacity=".2" fill="url(#e)" d="M14.8-17a11 11 0 0 1-11 11 11 11 0 0 1-11-11 11 11 0 0 1 11-11 11 11 0 0 1 11 11z"/><path fill="#fcbcbe" d="M5.895-16.642a1.541 1.541 0 0 1-.018.098c.007-.032.012-.065.018-.098zm-.173.57z"/><path opacity=".2" fill="url(#f)" d="M2.386-15.586L12.8-5.172l4-5.775-3.37-3.37L4.8-17z"/><path fill="#da4453" d="M4.779-17.201A1 1 0 0 1 4.8-17a1 1 0 0 1-.338.748l8.18 2.727.472.158.317-.95-.475-.158z"/><circle r="2" fill="#eff0f1" cy="-17" cx="3.8"/><path fill="#31363b" d="M4.8-17a1 1 0 0 1-1 1 1 1 0 0 1-1-1 1 1 0 0 1 1-1 1 1 0 0 1 1 1z"/><path d="M3.8-28a11 11 0 0 0-11 11 11 11 0 0 0 .402 2.89l.953-.26A10 10 0 0 1-6.2-17a10 10 0 0 1 10-10 10 10 0 0 1 10 10 10 10 0 0 1-.371 2.627l.973.264A11 11 0 0 0 14.8-17a11 11 0 0 0-11-11z" fill="url(#g)"/></g></svg>