<svg xmlns="http://www.w3.org/2000/svg" xmlns:xlink="http://www.w3.org/1999/xlink" width="32" height="32"><defs><linearGradient id="c"><stop offset="0" stop-color="#fdbc4b"/><stop offset="1" stop-color="#fed286"/></linearGradient><linearGradient id="b"><stop offset="0" stop-color="#1d99f3"/><stop offset="1" stop-color="#56b3f6"/></linearGradient><linearGradient xlink:href="#a" id="e" x1="30" y1="30" x2="2" y2="2" gradientUnits="userSpaceOnUse"/><linearGradient id="a" gradientTransform="rotate(-165 -6.658 22.948)" gradientUnits="userSpaceOnUse" x1="3.242" x2="40" y1="15.778" y2="37"><stop offset="0" stop-color="#afb4b9"/><stop offset="1" stop-color="#cfd2d5"/></linearGradient><linearGradient xlink:href="#b" id="g" x1="5" y1="22" x2="5" y2="5" gradientUnits="userSpaceOnUse" gradientTransform="translate(1)"/><linearGradient xlink:href="#c" id="h" x1="27" y1="27" x2="27" y2="10" gradientUnits="userSpaceOnUse" gradientTransform="translate(-1 -1)"/><linearGradient xlink:href="#d" id="f" x1="11" y1="10" x2="26" y2="25" gradientUnits="userSpaceOnUse"/></defs><linearGradient y2="25" y1="9" x2="26" x1="10" gradientUnits="userSpaceOnUse" id="d"><stop stop-color="#292c2f" offset="0"/><stop stop-opacity="0" offset="1"/></linearGradient><path d="M16 2a14 14 0 0 0-3 .336v2.059a12 12 0 0 0-3.084 1.277L8.463 4.219a14 14 0 0 0-4.254 4.234l1.463 1.463A12 12 0 0 0 4.39 13H2.34A14 14 0 0 0 2 16a14 14 0 0 0 .336 3h2.059a12 12 0 0 0 1.277 3.084l-1.453 1.453a14 14 0 0 0 4.234 4.254l1.463-1.463A12 12 0 0 0 13 27.61v2.05a14 14 0 0 0 3 .34 13.997 13.997 0 0 0 3-.336v-2.059a12 12 0 0 0 3.084-1.277l1.453 1.453a14 14 0 0 0 4.254-4.234l-1.463-1.463A12 12 0 0 0 27.61 19h2.05a14 14 0 0 0 .34-3 13.997 13.997 0 0 0-.336-3h-2.059a12 12 0 0 0-1.277-3.084l1.453-1.453a14 14 0 0 0-4.234-4.254l-1.463 1.463A12 12 0 0 0 19 4.39V2.34A14 14 0 0 0 16 2z" fill="url(#e)"/><path d="M20.121 6.879L11 10l1 1-4.822 9.822 9.16 9.16A13.997 13.997 0 0 0 19 29.664v-2.059a12 12 0 0 0 3.084-1.277l1.453 1.453a14 14 0 0 0 4.254-4.234l-1.463-1.463A12 12 0 0 0 27.61 19h2.051a14 14 0 0 0 .33-2.654l-5.168-5.168-.2.2-4.5-4.5z" opacity=".2" fill="url(#f)"/><path d="M14 6a3 3 0 0 0-3 3v1h5v1h-6a4 4 0 0 0-4 4v3a3.99 3.99 0 0 0 3 3.857V20a5 5 0 0 1 5-5h4a3 3 0 0 0 3-3V9a3 3 0 0 0-3-3zm0 1c.554 0 1 .446 1 1s-.446 1-1 1-1-.446-1-1 .446-1 1-1z" fill="url(#g)"/><circle r="1" cy="8" cx="14" fill="#f9f9f9"/><path d="M18 26a3 3 0 0 0 3-3v-1h-5v-1h6a4 4 0 0 0 4-4v-3a3.99 3.99 0 0 0-3-3.857V12a5 5 0 0 1-5 5h-4a3 3 0 0 0-3 3v3a3 3 0 0 0 3 3zm0-1c-.554 0-1-.446-1-1s.446-1 1-1 1 .446 1 1-.446 1-1 1z" fill="url(#h)"/><path d="M18 23a1 1 0 0 0-1 1 1 1 0 0 0 1 1 1 1 0 0 0 1-1 1 1 0 0 0-1-1z" fill="#f9f9f9"/></svg>