<svg xmlns="http://www.w3.org/2000/svg" xmlns:xlink="http://www.w3.org/1999/xlink" height="32" width="32"><defs><linearGradient xlink:href="#a" id="c" x1="30" y1="30" x2="2" y2="2" gradientUnits="userSpaceOnUse"/><linearGradient id="a" gradientTransform="rotate(-165 -6.658 22.948)" gradientUnits="userSpaceOnUse" x1="3.242" x2="40" y1="15.778" y2="37"><stop offset="0" stop-color="#afb4b9"/><stop offset="1" stop-color="#cfd2d5"/></linearGradient></defs><linearGradient id="b" gradientUnits="userSpaceOnUse" x1="25" x2="25" y1="6" y2="26"><stop offset="0"/><stop offset="1" stop-color="#292c2f"/></linearGradient><linearGradient id="i" gradientUnits="userSpaceOnUse" x1="23" x2="23" xlink:href="#b" y1="26" y2="13"/><linearGradient id="g" gradientUnits="userSpaceOnUse" x1="7" x2="7" xlink:href="#b" y1="11" y2="14"/><linearGradient id="f" gradientUnits="userSpaceOnUse" x1="18" x2="18" xlink:href="#b" y1="7" y2="11"/><linearGradient id="e" gradientUnits="userSpaceOnUse" x1="25" x2="25" xlink:href="#b" y1="6" y2="12"/><linearGradient id="h" gradientUnits="userSpaceOnUse" x1="14" x2="14" xlink:href="#b" y1="8" y2="12"/><linearGradient id="d" gradientUnits="userSpaceOnUse" x1="24" x2="8" y1="24" y2="8"><stop offset="0" stop-color="#997657"/><stop offset="1" stop-color="#d4ba94"/></linearGradient><path d="M16 2a14 14 0 0 0-3 .336v2.059a12 12 0 0 0-3.084 1.277L8.463 4.219a14 14 0 0 0-4.254 4.234l1.463 1.463A12 12 0 0 0 4.39 13H2.34A14 14 0 0 0 2 16a14 14 0 0 0 .336 3h2.059a12 12 0 0 0 1.277 3.084l-1.453 1.453a14 14 0 0 0 4.234 4.254l1.463-1.463A12 12 0 0 0 13 27.61v2.05a14 14 0 0 0 3 .34 13.997 13.997 0 0 0 3-.336v-2.059a12 12 0 0 0 3.084-1.277l1.453 1.453a14 14 0 0 0 4.254-4.234l-1.463-1.463A12 12 0 0 0 27.61 19h2.05a14 14 0 0 0 .34-3 13.997 13.997 0 0 0-.336-3h-2.059a12 12 0 0 0-1.277-3.084l1.453-1.453a14 14 0 0 0-4.234-4.254l-1.463 1.463A12 12 0 0 0 19 4.39V2.34A14 14 0 0 0 16 2z" fill="url(#c)"/><path d="M16 5A11 11 0 0 0 5 16a11 11 0 0 0 11 11 11 11 0 0 0 11-11A11 11 0 0 0 16 5z" fill="url(#d)"/><path d="M22.42 6c-4.16 0-4.942 5.926-2.6 5.926 2.34 0 6.762-5.926 2.6-5.926z" fill="url(#e)" transform="matrix(.9 0 0 .9 1.786 2.6)"/><path d="M15.51 11.192c1.248.076 2.615-4.755.273-4.452-2.342.304-1.518 4.376-.272 4.452z" fill="url(#f)" transform="matrix(.9 0 0 .9 1.786 2.6)"/><path d="M9.8 14.194c.886-.39.114-4.206-1.393-3.165-1.507 1.04.507 3.555 1.393 3.165z" fill="url(#g)" transform="matrix(.9 0 0 .9 1.786 2.6)"/><path d="M12.297 12.197c1.056-.215 1.113-4.543-.769-3.767-1.88.778-.285 3.982.77 3.767z" fill="url(#h)" transform="matrix(.9 0 0 .9 1.786 2.6)"/><path d="M17.807 21.882c.187 1.43-1.049 2.136-2.26 1.215-3.853-2.934 6.381-4.398 5.707-8.407-.56-3.327-10.77-2.303-11.932 2.903-.785 3.523 3.24 8.407 7.44 8.407 2.066 0 4.45-1.867 4.896-4.23.34-1.803-4.007-1.08-3.85.111z" fill="url(#i)" transform="matrix(.9 0 0 .9 1.786 2.6)"/></svg>