<svg xmlns="http://www.w3.org/2000/svg" height="32" width="32"><linearGradient id="a" gradientUnits="userSpaceOnUse" x2="384.571" y1="545.798" y2="517.798" gradientTransform="translate(-384.571 -515.798)" x1="384.571"><stop offset="0" stop-color="#197cf1"/><stop offset="1" stop-color="#20bcfa"/></linearGradient><linearGradient id="c" gradientUnits="userSpaceOnUse" x2="0" y1="23" y2="9"><stop offset="0" stop-color="#7cbaf8"/><stop offset="1" stop-color="#f4fcff"/></linearGradient><linearGradient id="b" gradientUnits="userSpaceOnUse" x1="9" x2="23" y1="9" y2="23"><stop offset="0" stop-color="#383e51"/><stop offset="1" stop-color="#655c6f" stop-opacity="0"/></linearGradient><rect y="2" x="2" width="28" rx="14" height="28" fill="url(#a)"/><path d="M16 9c.218 0 .43.022.635.063h.004c.205.037.4.098.591.17L17 9zm0 1a2.493 2.493 0 0 0-2.5 2.5c0 1.385 1.115 2.5 2.5 2.5a2.48 2.48 0 0 0 1.545-.545L16 16l-1.113 1.113c-.32.062-.632.142-.932.25h-.002c-.222.096-.446.189-.666.287-.068.031-.132.068-.2.1a5.983 5.983 0 0 0-1.51 1.2l-.003.001a6.061 6.061 0 0 0-.918 1.322l-.027.06c-.07.138-.135.28-.194.425-.02.051-.037.104-.056.156a6.781 6.781 0 0 0-.13.371c-.015.055-.027.112-.042.168a5.913 5.913 0 0 0-.094.387l-.008.055L9 23l7 7h14V20l-1 1-9-9-.732-.73c.071.19.132.386.17.591v.004c.037.207.062.417.062.635l-1.545 1.545A2.48 2.48 0 0 0 18.5 12.5c0-1.385-1.115-2.5-2.5-2.5z" opacity=".2" fill="url(#b)" fill-rule="evenodd"/><path d="M16 9a3.492 3.492 0 0 0-3.5 3.5c0 1.939 1.561 3.5 3.5 3.5s3.5-1.561 3.5-3.5S17.939 9 16 9zm0 7c-3.878 0-7 3.122-7 7h9v-1h-7.91A5.98 5.98 0 0 1 16 17c.938 0 1.808.236 2.592.623l.633-.824A6.955 6.955 0 0 0 16 16zm0-6c1.385 0 2.5 1.115 2.5 2.5S17.385 15 16 15a2.495 2.495 0 0 1-2.5-2.5c0-1.385 1.115-2.5 2.5-2.5zm4 8v2h-2v1h2v2h1v-2h2v-1h-2v-2h-1z" fill="url(#c)"/></svg>