<svg xmlns="http://www.w3.org/2000/svg" xmlns:xlink="http://www.w3.org/1999/xlink" height="32" width="32"><linearGradient id="f" gradientUnits="userSpaceOnUse" x1="4" x2="17" y1="12" y2="25"><stop offset="0" stop-color="#292c2f"/><stop offset="1" stop-opacity="0"/></linearGradient><linearGradient id="b" gradientTransform="matrix(.7 0 0 .7 -1.7 -1.1)" gradientUnits="userSpaceOnUse" x2="0" y1="44" y2="4"><stop offset="0" stop-color="#1d1e1e"/><stop offset="1" stop-color="#44484c"/></linearGradient><linearGradient id="c" gradientUnits="userSpaceOnUse" x1="6" x2="6" xlink:href="#a" y1="5" y2="4"/><linearGradient id="d" gradientUnits="userSpaceOnUse" x1="6" x2="6" xlink:href="#a" y1="16" y2="15"/><linearGradient id="e" gradientUnits="userSpaceOnUse" x1="6" x2="6" xlink:href="#a" y1="27" y2="26"/><linearGradient id="a" gradientUnits="userSpaceOnUse" x2="0" y1="507.8" y2="506.8"><stop offset="0" stop-color="#3da103"/><stop offset="1" stop-color="#7ddf07"/></linearGradient><path d="M2 7h26v17H2z" fill="#111213"/><path d="M2 2v28h26V2zm1 6h24v4H3zm0 11h24v4H3z" fill="url(#b)"/><g stroke-width=".7"><path d="M5 4h2v1H5z" fill="url(#c)" transform="translate(-1)"/><path d="M5 15h2v1H5z" fill="url(#d)" transform="translate(-1)"/><path d="M5 26h2v1H5z" fill="url(#e)" transform="translate(-1)"/></g><path d="M3 12l7 7h17v4H14l7 7h7V13l-1-1z" fill="url(#f)" fill-rule="evenodd" opacity=".4"/><rect fill="#eff0f1" height="16" rx="2" width="16" x="16" y="14"/><path d="M23 16v1h6v7h-6v3h-1c-.554 0-1-.446-1-1v-5h1v-4h-3v4h1v5c0 1.108.892 2 2 2h5v-1h-2v-1h5V16zm-3 3h1v1h-1zm-2 3v4h1v-4z" fill="#4d4d4d"/></svg>