<svg xmlns="http://www.w3.org/2000/svg" xmlns:xlink="http://www.w3.org/1999/xlink" height="32" width="32"><defs><linearGradient id="b"><stop stop-color="#232629" offset="0"/><stop stop-color="#4d4d4d" offset="1"/></linearGradient><linearGradient id="a"><stop offset="0" stop-color="#fdbc4b"/><stop offset="1" stop-color="#fed286"/></linearGradient><linearGradient xlink:href="#a" id="c" x1="2" y1="30" x2="2" y2="2" gradientUnits="userSpaceOnUse"/><linearGradient xlink:href="#b" id="f" x1="24" y1="23" x2="24" y2="9" gradientUnits="userSpaceOnUse"/><linearGradient xlink:href="#b" id="e" x1="9" y1="23" x2="9" y2="9" gradientUnits="userSpaceOnUse"/></defs><linearGradient id="d" gradientUnits="userSpaceOnUse" x1="14" x2="28" y1="10" y2="24"><stop offset="0" stop-color="#292c2f"/><stop offset="1" stop-opacity="0"/></linearGradient><rect fill="url(#c)" height="28" rx="14" width="28" x="2" y="2"/><path d="M16 8.996L14 10l-1 2 .285 2.715L16 16l-3 1-3 3-1 3 7 7c6.09 0 11.23-3.856 13.166-9.264L18.215 9.786z" fill="url(#d)" opacity=".2"/><path d="M16 9c-1.939 0-3.5 1.561-3.5 3.5S14.061 16 16 16s3.5-1.561 3.5-3.5S17.939 9 16 9zm0 7c-3.878 0-7 3.122-7 7h8v-1h-6.91A5.98 5.98 0 0 1 16 17c.359 0 .707.038 1.045.104l.26-.973A6.654 6.654 0 0 0 16 16zm0-6c1.385 0 2.5 1.115 2.5 2.5S17.385 15 16 15s-2.5-1.115-2.5-2.5S14.615 10 16 10z" fill="url(#e)"/><path d="M21 15a2 2 0 0 0-2 2v2h-1v4h6v-4h-1v-2a2 2 0 0 0-2-2zm0 1a1 1 0 0 1 1 1v2h-2v-2a1 1 0 0 1 1-1z" fill="url(#f)"/></svg>