<svg height="32" width="32" xmlns="http://www.w3.org/2000/svg" xmlns:xlink="http://www.w3.org/1999/xlink"><linearGradient id="b"><stop offset="0" stop-color="#22a7f0"/><stop offset="1" stop-color="#19b5fe"/></linearGradient><linearGradient id="a"><stop offset="0" stop-color="#292c2f"/><stop offset="1" stop-opacity="0"/></linearGradient><linearGradient id="e" gradientUnits="userSpaceOnUse" x1="371.571" x2="391.571" xlink:href="#a" y1="531.798" y2="551.798"/><linearGradient id="c" gradientTransform="translate(372.88 518.567) scale(.61538)" gradientUnits="userSpaceOnUse" x2="0" y1="54" y2="12"><stop offset="0" stop-color="#63984b"/><stop offset="1" stop-color="#8fc278"/></linearGradient><linearGradient id="f" gradientUnits="userSpaceOnUse" x1="382.571" x2="382.571" xlink:href="#b" y1="541.798" y2="539.798"/><linearGradient id="h" gradientUnits="userSpaceOnUse" x1="382.571" x2="382.571" xlink:href="#b" y1="544.798" y2="542.798"/><linearGradient id="d" gradientTransform="matrix(.3125 0 0 .25807 406.821 276.542)" gradientUnits="userSpaceOnUse" x2="0" y1="1043.362" y2="1012.362"><stop offset="0" stop-color="#2a2c2f"/><stop offset="1" stop-color="#424649"/></linearGradient><linearGradient id="g" gradientUnits="userSpaceOnUse" x1="371.571" x2="388.571" xlink:href="#a" y1="534.798" y2="551.798"/><linearGradient id="i" gradientUnits="userSpaceOnUse" x1="385.571" x2="400.571" xlink:href="#a" y1="531.798" y2="546.798"/><path d="M377.571 527.798v24h2v-2h7v2h18v-2h4v-16h-29v-6z" fill="url(#c)" transform="translate(-376.571 -523.798)"/><path d="M1 4h2v24H1z" fill="#afc0c6"/><path d="M1 4h1v24H1z" fill="#96aab5"/><path d="M0 19h2v2H0zm0-3h2v2H0z" fill="#afc0c6"/><path d="M4 24h1v1H4zm1-1h1v1H5zm1 1h1v1H6zm1-1h1v1H7z"/><path d="M390.571 537.798h10v8h-10z" fill="url(#d)" fill-rule="evenodd" transform="translate(-376.571 -523.798)"/><path d="M23 11h-1v1h1zm-1 1h-1v1h1zm-1-1h-1v1h1zm-1 1h-1v1h1zm-1-1h-1v1h1zm-1 1h-1v1h1zm-1-1h-1v1h1zm-1 1h-1v1h1zm-1 11h1v1h-1zm1 1h1v1h-1zm1-1h1v1h-1zm1 1h1v1h-1zm1-1h1v1h-1zm1 1h1v1h-1zm1-1h1v1h-1zm1 1h1v1h-1z"/><path d="M18 15v.5h3V19h-3v1.5h-.5a.499.499 0 0 1-.5-.5v-2.5h.5v-2H16v2h.5V20c0 .554.446 1 1 1H20v-.5h-1V20h2.5v-5zm-1.5 1.5h.5v.5h-.5zm-1 1.5v2h.5v-2z" fill="#afc0c6"/><path d="M10 27h18v1H10z" fill="#dce269"/><path d="M382.571 539.798l-3 2 6 6 2 2h5z" fill="url(#e)" fill-rule="evenodd" opacity=".2" transform="translate(-376.571 -523.798)"/><path d="M379.571 539.798h3v2h-3z" fill="url(#f)" transform="translate(-376.571 -523.798)"/><path d="M382.571 542.798l-3 2 5 5h2v2h5z" fill="url(#g)" fill-rule="evenodd" opacity=".2" transform="translate(-376.571 -523.798)"/><path d="M379.571 542.798h3v2h-3z" fill="url(#h)" transform="translate(-376.571 -523.798)"/><path d="M390.571 545.798l6 6h8v-2h4v-4l-8-8v8z" fill="url(#i)" transform="translate(-376.571 -523.798)"/></svg>