<svg xmlns="http://www.w3.org/2000/svg" height="32" width="32"><linearGradient id="a" gradientUnits="userSpaceOnUse" x1="28" x2="28" y1="30" y2="2"><stop offset="0" stop-color="#997657"/><stop offset="1" stop-color="#d4ba94"/></linearGradient><linearGradient id="b" gradientTransform="matrix(.66667 0 0 16 -25.794 -199.679)" gradientUnits="userSpaceOnUse" x1="44.691" x2="44.691" y1="14.355" y2="12.605"><stop offset="0" stop-color="#433a35"/><stop offset="1" stop-color="#6c5548"/></linearGradient><linearGradient id="c" gradientTransform="rotate(-45 -404.503 771.496)" gradientUnits="userSpaceOnUse" x1="432.711" x2="432.711" y1="531.791" y2="544.519"><stop offset="0"/><stop offset="1" stop-opacity="0"/></linearGradient><linearGradient id="d" gradientUnits="userSpaceOnUse" x1="13.001" x2="13" y1="21.999" y2="7"><stop offset="0" stop-color="#31363b"/><stop offset="1" stop-color="#4d4d4d"/></linearGradient><path d="M4 2h24v28H4z" fill="url(#a)"/><path d="M4 29h24v1H4z" fill="#232629" opacity=".6"/><path d="M4 2v28h4v-1H5v-1h3V2H5z" fill="url(#b)"/><path d="M5 28h23v1H5z" fill="#c5cfd3"/><path d="M8 27h20v1H8z" fill="#232629" opacity=".4"/><path d="M28 6h2v4h-2z" fill="#2ecc71"/><path d="M28 12h2v4h-2z" fill="#2980b9"/><path d="M28 18h2v4h-2z" fill="#da4453"/><path d="M20.121 7.879l-4.242 4.242 2.637 2.637-3.891.148L14 16l-1 6 5 5h10V16z" fill="url(#c)" opacity=".2"/><path d="M18.001 6.999c-1.662 0-3 1.338-3 3s1.338 3 3 3 3-1.338 3-3-1.338-3-3-3m0 7c-2.77 0-5 .892-5 2v6h10v-6c0-1.108-2.23-2-5-2m0 1c2.216 0 4 .636 4 1.428v4.572h-8v-4.572c0-.791 1.784-1.428 4-1.428" fill="url(#d)"/><rect height="16" rx="2" width="16" x="16" y="14" fill="#eff0f1"/><path d="M22.5 16.036c-2.493 0-4.5 2.01-4.5 4.5 0 2.493 2.01 4.5 4.5 4.5a4.462 4.462 0 0 0 2.795-.994l3.998 3.998.707-.707-3.998-3.998A4.46 4.46 0 0 0 27 20.536c0-2.493-2.01-4.5-4.5-4.5zm0 1c1.939 0 3.5 1.561 3.5 3.5 0 1.94-1.561 3.5-3.5 3.5a3.492 3.492 0 0 1-3.5-3.5c0-1.939 1.561-3.5 3.5-3.5z" class="ColorScheme-Text" fill="#4d4d4d"/></svg>