<svg height="32" width="32" xmlns="http://www.w3.org/2000/svg" xmlns:xlink="http://www.w3.org/1999/xlink"><linearGradient id="b"><stop offset="0" stop-color="#433a35"/><stop offset="1" stop-color="#997657"/></linearGradient><linearGradient id="a"><stop offset="0" stop-color="#6c5548"/><stop offset="1" stop-color="#997657"/></linearGradient><radialGradient id="f" cx="16" cy="16" gradientTransform="matrix(.88889 0 0 1.55556 4.778 -8.889)" gradientUnits="userSpaceOnUse" r="9"><stop offset="0" stop-color="#fff"/><stop offset="1" stop-color="#eff0f1" stop-opacity="0"/></radialGradient><radialGradient id="u" cx="7" cy="16" gradientUnits="userSpaceOnUse" r="1"><stop offset="0" stop-color="#eff0f1"/><stop offset="1" stop-color="#bdc3c7"/></radialGradient><linearGradient id="c" gradientUnits="userSpaceOnUse" x1="36" x2="36" y1="30" y2="2"><stop offset="0" stop-color="#197cf1"/><stop offset="1" stop-color="#20bcfa"/></linearGradient><linearGradient id="d" gradientUnits="userSpaceOnUse" x1="4.043" x2="26.064" y1="-2.981" y2="19.039"><stop offset="0" stop-color="#292c2f"/><stop offset="1" stop-opacity="0"/></linearGradient><linearGradient id="e" gradientUnits="userSpaceOnUse" x1="12" x2="12" y1="29" y2="3"><stop offset="0" stop-color="#54d883"/><stop offset="1" stop-color="#abf9c7"/></linearGradient><linearGradient id="g" gradientUnits="userSpaceOnUse" x1="27" x2="27" xlink:href="#a" y1="29" y2="3"/><linearGradient id="h" gradientUnits="userSpaceOnUse" x1="27" x2="26" xlink:href="#a" y1="29" y2="29"/><linearGradient id="i" gradientUnits="userSpaceOnUse" x1="11" x2="12" xlink:href="#b" y1="29" y2="29"/><linearGradient id="j" gradientTransform="matrix(1 0 0 .04 3 2.84)" gradientUnits="userSpaceOnUse" x1="8" x2="9" xlink:href="#b" y1="29" y2="29"/><linearGradient id="k" gradientUnits="userSpaceOnUse" x1="5" x2="13" y1="16" y2="16"><stop offset="0" stop-color="#997657"/><stop offset="1" stop-color="#d4ba94"/></linearGradient><linearGradient id="l" gradientUnits="userSpaceOnUse" x1="8" x2="6" xlink:href="#a" y1="27" y2="27"/><linearGradient id="m" gradientUnits="userSpaceOnUse" x1="12" x2="10" xlink:href="#a" y1="26" y2="26"/><linearGradient id="n" gradientUnits="userSpaceOnUse" x1="8" x2="6" xlink:href="#a" y1="7" y2="7"/><linearGradient id="o" gradientUnits="userSpaceOnUse" x1="12" x2="10" xlink:href="#a" y1="8" y2="8"/><linearGradient id="p" gradientUnits="userSpaceOnUse" x1="8" x2="6" xlink:href="#a" y1="21" y2="21"/><linearGradient id="q" gradientUnits="userSpaceOnUse" x1="12" x2="10" xlink:href="#a" y1="21" y2="21"/><linearGradient id="r" gradientUnits="userSpaceOnUse" x1="8" x2="6" xlink:href="#a" y1="13" y2="13"/><linearGradient id="s" gradientUnits="userSpaceOnUse" x1="12" x2="10" xlink:href="#a" y1="13" y2="13"/><linearGradient id="t" gradientUnits="userSpaceOnUse" x1="4" x2="5" xlink:href="#a" y1="16" y2="16"/><path d="M14.809 3c-.999.397-1.94.901-2.809 1.506v22.988c.869.605 1.81 1.109 2.809 1.506H25.19c.999-.397.94-.901 1.809-1.506V4.506C26.131 3.9 26.19 3.397 25.191 3z" fill="url(#c)"/><path d="M18.977 3l-3.493 2.016-1.502 2.601s-1.35.95-1.982 1.229v9.44c5.251 3.613 9.503 5.999 14.754 9.38.086-.057.162-.127.246-.186V4.52c-.88-.613-.835-1.12-1.848-1.52z" fill="url(#d)" fill-rule="evenodd" opacity=".2"/><path d="M15.49 3c-.027.126-.04.265-.088.38-.071.173-.324.357-.496.343-.127-.011-.273-.19-.273-.309 0-.143.199-.223.09-.383-.97.394-1.877.901-2.723 1.492v.108a1.16 1.16 0 0 1 .389-.1c.038 0 .072.003.107.012.155.04.563.488.223.633-.033.014-.5.065-.58.05-.054-.008-.096-.05-.139-.091v.367a.99.99 0 0 1 .377-.086c.048.002.083.013.102.033-.023.182-.166.171-.307.256-.071.043-.117.108-.172.164v3.934c.115-.092.24-.172.36-.242.14-.084.252-.23.374-.291.173-.087.302-.107.446-.188.259-.145.48-.263.683-.428.094-.22.01-.516.018-.734.094-.057.174.026.273.017.157-.032.17-.253.258-.341.052-.05.192-.087.256-.137.156-.122.206-.307.342-.36.048-.02.161-.014.238-.035.101-.026.245-.146.41-.203.108-.037.354-.044.395-.086.05-.051 0-.196.017-.273.083-.386.665-.468 1.008-.598.24-.091.487-.258.752-.207-.052.184-.298.12-.256.342.058.31.471-.09.58-.135.209-.088.567-.14.84-.24.24-.088.67-.222.444-.496-.19-.01-.28.22-.444.291-.113.018-.092-.094-.19-.104-.091-.01-.143.085-.238.069-.094-.016-.225-.164-.24-.274-.037-.285.241-.402.36-.615-.079-.258-.435-.053-.65-.154.02-.154.179-.26.359-.29.147-.024.476-.011.564.067.05.043.004.151.086.223.087.079.194.071.307.053.04-.195-.253-.147-.221-.276.23-.15.606-.026.889-.068.162-.024.334-.14.478-.22.137-.079.315-.215.461-.087.04.14-.127.187-.205.256a5.54 5.54 0 0 0-.734.77c.124.121.351.06.562.086.083.01.186.035.273.05.102.018.212.013.291.034.144.035.183.189.325.189.234 0 .236-.254.103-.412.042-.161.108-.245.051-.358-.105-.21-.492-.01-.512-.273-.012-.17.144-.164.205-.291-.028-.33.27-.353.239-.648-.011-.095-.077-.129-.145-.186zm-2.344 2.363c.08.011.177.096.274.104.091.003.166-.05.223-.035.143.037.202.253.068.359-.112.014-.156-.048-.24-.033-.232.04-.32.493-.494.478-.164-.014-.253-.412-.086-.53.01-.105-.076-.121-.07-.224.049-.063.19-.13.325-.119zm1.254.668c.087.002.164.016.2.051-.056.226-.541.166-.72.084.012-.085.145-.108.257-.12.078-.002.177-.017.263-.015zm-1.107.416a.621.621 0 0 1 .178.028c-.158.131-.328.205-.598.29-.13.042-.355.093-.377-.052-.027-.178.19-.137.309-.152.149-.021.313-.108.488-.114zm.36 9.59c-.073.001-.138.096-.2.139-.095.065-.184.13-.289.17-.235.088-.38.041-.564.136-.17.088-.178.236-.274.41-.069.126-.211.279-.326.327v6.578c.097.126.2.249.258.385.038.088.033.194.068.273.122.276.661.564.94.701.13.064.275.086.394.153.181.1.54.372.631.53.082.144.132.49.172.718.053.3.002.53.017.855.011.176.067.353.069.53 0 .061-.033.106-.035.17-.003.213.053.453.035.667a.734.734 0 0 1-.014.121c.09.038.184.064.274.1h6.47c.017-.025.04-.053.055-.078.05-.312-.124-.53-.05-.803.08-.307.505-.494.802-.633.102-.047.208-.125.291-.154.206-.072.462-.033.65-.102.32-.117.354-.46.512-.751.075-.139.173-.277.188-.375.012-.089-.032-.172-.018-.276.016-.103.108-.193.137-.307.037-.148.052-.364.052-.529 0-.135-.062-.255-.068-.377-.022-.443.16-.493.324-.734.083-.12.113-.256.17-.342.276-.41.754-.61.719-1.23-.012-.206-.14-.671-.291-.737-.087-.037-.285-.003-.41-.05-.404-.151-.642-.652-1.06-.684-.09-.01-.172.037-.272.035-.166-.01-.416-.116-.6-.137-.116-.012-.272.035-.342 0-.106-.052-.118-.248-.205-.306-.069-.048-.202-.063-.306-.104-.169-.065-.302-.14-.496-.154-.06-.003-.136.028-.206.017-.107-.018-.191-.144-.29-.205-.125-.075-.24-.112-.292-.22.113-.368-.198-.471-.273-.684-.036-.1-.02-.22-.05-.309-.045-.127-.171-.2-.31-.306-.247-.19-.466-.369-.82-.412-.155-.02-.308.046-.496.035-.199-.013-.449-.187-.597-.358-.145-.166-.216-.315-.342-.394-.12-.077-.278-.075-.36-.152-.036-.034-.03-.092-.068-.172-.06-.125-.16-.193-.086-.342-.136-.07-.14.13-.289.103-.133-.188-.245-.278-.547-.222-.138.025-.216.2-.377.205-.132.01-.236-.147-.41-.172-.132-.018-.281.035-.375.018-.146-.03-.19-.151-.324-.239-.098-.064-.287-.173-.342-.172-.172.011-.294.366-.531.24-.115-.145.187-.222.05-.359a.1.1 0 0 0-.074-.035zm.011.697c.116.011.13.25.012.27-.128.02-.192-.2-.069-.258a.115.115 0 0 1 .057-.012z" fill="url(#e)"/><path d="M11 3h16v26H11z" fill="url(#f)" opacity=".4"/><path d="M11 3h16v1H11zm0 25h16v1H11z" fill="url(#g)"/><path d="M26 3h1v26h-1z" fill="url(#h)"/><path d="M11 4h1v25h-1z" fill="url(#i)"/><path d="M11 3h1v1h-1z" fill="url(#j)"/><path d="M13 4L5 2v28l8-2z" fill="url(#k)"/><path d="M6 28l2-.5v-4.625L6 23z" fill="url(#l)"/><path d="M10 27l2-.5v-3.875l-2 .125z" fill="url(#m)"/><path d="M6 4l2 .5v4.625L6 9z" fill="url(#n)"/><path d="M10 5l2 .5v3.875l-2-.125z" fill="url(#o)"/><path d="M8 18H6v4l2-.125z" fill="url(#p)"/><path d="M12 18h-2v3.75l2-.125z" fill="url(#q)"/><path d="M8 14H6v-4l2 .125z" fill="url(#r)"/><path d="M12 14h-2v-3.75l2 .125z" fill="url(#s)"/><path d="M4 2.5L5 2v28l-1-.5z" fill="url(#t)"/><circle cx="7" cy="16" fill="url(#u)" r="1"/></svg>