<svg height="32" width="32" xmlns="http://www.w3.org/2000/svg" xmlns:xlink="http://www.w3.org/1999/xlink"><linearGradient id="a"><stop offset="0" stop-color="#292c2f"/><stop offset="1" stop-opacity="0"/></linearGradient><linearGradient id="b" gradientUnits="userSpaceOnUse" x1="16" x2="16" y1="30" y2="2"><stop offset="0" stop-color="#dedede"/><stop offset="1" stop-color="#ececec"/></linearGradient><linearGradient id="e" gradientUnits="userSpaceOnUse" x1="25" x2="25" y1="30" y2="20"><stop offset="0" stop-color="#27ae60"/><stop offset="1" stop-color="#2ecc71"/></linearGradient><linearGradient id="d" gradientUnits="userSpaceOnUse" x1="16" x2="16" y1="21" y2="11"><stop offset="0" stop-color="#4d4d4d"/><stop offset="1" stop-color="#536161"/></linearGradient><linearGradient id="c" gradientUnits="userSpaceOnUse" x1="16" x2="26" xlink:href="#a" y1="16" y2="26"/><linearGradient id="f" gradientUnits="userSpaceOnUse" x1="26" x2="28" xlink:href="#a" y1="26" y2="28"/><path d="M16 2A14 14 0 0 0 2 16a14 14 0 0 0 14 14 14 14 0 0 0 14-14A14 14 0 0 0 16 2zm0 12a2 2 0 0 1 2 2 2 2 0 0 1-2 2 2 2 0 0 1-2-2 2 2 0 0 1 2-2z" fill="url(#b)"/><path d="M16 11l-3 1-1 1-1 3 1 3 .465.535 9.238 9.238a14 14 0 0 0 7.065-7.076l-9.233-9.232L19 12zm0 3a2 2 0 0 1 2 2 2 2 0 0 1-2 2 2 2 0 0 1-2-2 2 2 0 0 1 2-2z" fill="url(#c)" opacity=".2"/><path d="M16 11a5 5 0 0 0-5 5 5 5 0 0 0 5 5 5 5 0 0 0 5-5 5 5 0 0 0-5-5zm0 2a3 3 0 0 1 3 3 3 3 0 0 1-3 3 3 3 0 0 1-3-3 3 3 0 0 1 3-3z" fill="url(#d)"/><path d="M25 20c-2.77 0-5 2.23-5 5s2.23 5 5 5 5-2.23 5-5-2.23-5-5-5z" fill="url(#e)"/><path d="M27.5 22.5l.5.5.5.5L24 28l-2.5-2.5.5-.5.5-.5L24 26z" fill="#fcfcfc"/><path d="M28.5 23.5L24 28l1.914 1.914A4.987 4.987 0 0 0 30 25z" fill="url(#f)" opacity=".2"/></svg>