<svg height="32" width="32" xmlns="http://www.w3.org/2000/svg" xmlns:xlink="http://www.w3.org/1999/xlink"><linearGradient id="b" gradientUnits="userSpaceOnUse" x1="34" x2="34" y1="8"><stop offset="0" stop-color="#3bb566"/><stop offset="1" stop-color="#7ceca4"/></linearGradient><linearGradient id="c" gradientUnits="userSpaceOnUse" x1="9" x2="9" y1="12" y2="4"><stop offset="0" stop-color="#bf4231"/><stop offset="1" stop-color="#f58273"/></linearGradient><linearGradient id="d" gradientUnits="userSpaceOnUse" x1="7" x2="7" xlink:href="#a" y1="20" y2="12"/><linearGradient id="e" gradientUnits="userSpaceOnUse" x1="22" x2="22" xlink:href="#b" y1="30" y2="22"/><linearGradient id="f" gradientUnits="userSpaceOnUse" x1="17" x2="17" xlink:href="#a" y1="20" y2="12"/><linearGradient id="g" gradientUnits="userSpaceOnUse" x1="2" x2="2" xlink:href="#b" y1="30" y2="22"/><linearGradient id="h" gradientUnits="userSpaceOnUse" x1="12" x2="12" xlink:href="#b" y1="30" y2="22"/><linearGradient id="a" gradientUnits="userSpaceOnUse" x1="34" x2="34" y1="8"><stop offset="0" stop-color="#913bb5"/><stop offset="1" stop-color="#cb7cec"/></linearGradient><path d="M15.688 8.61l-5 4-.188.39v5.76l-4.813 3.85.625.78L11 19.64l4.688 3.75.624-.78-4.812-3.85v-5.52l4.5-3.6 4.5 3.6V19l.188.39 5 4 .625-.78-4.813-3.85V13l-.188-.39-5-4z" fill="#7f8c8d"/><rect fill="url(#c)" height="8" rx="1" width="8" x="12" y="2"/><rect fill="url(#d)" height="8" rx="1" width="8" x="7" y="12"/><rect fill="url(#e)" height="8" rx="1" width="8" x="22" y="22"/><rect fill="url(#f)" height="8" rx="1" width="8" x="17" y="12"/><rect fill="url(#g)" height="8" rx="1" width="8" x="2" y="22"/><rect fill="url(#h)" height="8" rx="1" width="8" x="12" y="22"/></svg>