<svg height="32" width="32" xmlns="http://www.w3.org/2000/svg" xmlns:xlink="http://www.w3.org/1999/xlink"><linearGradient id="j" gradientTransform="translate(0 2)" gradientUnits="userSpaceOnUse" x2="0" y1="542.798" y2="538.798"><stop offset="0" stop-color="#c6cdd1"/><stop offset="1" stop-color="#e0e5e7"/></linearGradient><linearGradient id="k" gradientUnits="userSpaceOnUse" x1="393.571" x2="410.571" y1="519.798" y2="536.798"><stop offset="0"/><stop offset="1" stop-opacity="0"/></linearGradient><linearGradient id="l" gradientTransform="matrix(1 0 0 1.21053 -3 -111.432)" gradientUnits="userSpaceOnUse" x2="0" y1="538.798" y2="519.798"><stop offset="0" stop-color="#2a2c2f"/><stop offset="1" stop-color="#424649"/></linearGradient><linearGradient id="b" gradientTransform="matrix(.625 0 0 .55 145.214 241.71)" gradientUnits="userSpaceOnUse" x1="418.17" x2="384.571" y1="503.079" y2="531.458"><stop offset="0" stop-color="#4ce0c6"/><stop offset="1" stop-color="#3b85b5"/></linearGradient><linearGradient id="c" gradientTransform="matrix(.625 0 0 .55 145.214 241.71)" gradientUnits="userSpaceOnUse" x1="404.045" x2="430.736" y1="521.633" y2="528.35"><stop offset="0" stop-color="#ffc169"/><stop offset="1" stop-color="#ffa92d"/></linearGradient><linearGradient id="d" gradientTransform="matrix(.625 0 0 .55 145.214 241.71)" gradientUnits="userSpaceOnUse" x1="398.092" x2="394.003" xlink:href="#a" y1="542.224" y2="524.9"/><linearGradient id="a"><stop offset="0" stop-color="#334545"/><stop offset="1" stop-color="#536161"/></linearGradient><linearGradient id="e" gradientTransform="matrix(-.625 0 0 .55 669.678 219.71)" gradientUnits="userSpaceOnUse" x1="431.571" x2="439.571" xlink:href="#a" y1="568.798" y2="562.798"/><linearGradient id="f" gradientTransform="matrix(-.625 0 0 .55 669.678 219.71)" gradientUnits="userSpaceOnUse" x1="406.537" x2="423.32" xlink:href="#a" y1="581.87" y2="572.678"/><linearGradient id="g" gradientTransform="matrix(-.625 0 0 .55 669.678 219.71)" gradientUnits="userSpaceOnUse" x1="423.054" x2="431.225" xlink:href="#a" y1="572.334" y2="566.766"/><linearGradient id="h" gradientTransform="matrix(-.625 0 0 .55 669.678 219.71)" gradientUnits="userSpaceOnUse" x1="431.313" x2="440.632" xlink:href="#a" y1="577.102" y2="571.445"/><linearGradient id="i" gradientTransform="matrix(-.625 0 0 .55 669.678 219.71)" gradientUnits="userSpaceOnUse" x1="430.567" x2="423.75" xlink:href="#a" y1="577.362" y2="591.328"/><linearGradient id="m" gradientUnits="userSpaceOnUse" x1="393.571" x2="407.571" y1="520.798" y2="534.798"><stop offset="0" stop-color="#383e51"/><stop offset="1" stop-color="#655c6f" stop-opacity="0"/></linearGradient><linearGradient id="n" gradientTransform="translate(384.571 512.798)" gradientUnits="userSpaceOnUse" x2="0" y1="22" y2="8"><stop offset="0" stop-color="#c3ced7"/><stop offset="1" stop-color="#e2f4f4"/></linearGradient><path d="M385.571 518.798v18h30v-18z" fill="url(#b)" transform="translate(-384.571 -515.798)"/><g stroke-linecap="round" stroke-width="2"><path d="M415.571 518.798l-20.646 10.49 14.783 7.51h5.863z" fill="url(#c)" transform="translate(-384.571 -515.798)"/><path d="M394.946 529.248l-9.375 4.763v2.787h24.277z" fill="url(#d)" transform="translate(-384.571 -515.798)"/><path d="M400.108 531.87l-5.162-2.622v5.245z" fill="url(#e)" transform="translate(-384.571 -515.798)"/><path d="M405.27 534.492v2.306h4.538z" fill="url(#f)" transform="translate(-384.571 -515.798)"/><path d="M400.108 531.87v4.928h.625l4.537-2.305z" fill="url(#g)" transform="translate(-384.571 -515.798)"/><path d="M394.946 534.493v2.305h4.537z" fill="url(#h)" transform="translate(-384.571 -515.798)"/><path d="M405.27 534.492l-4.539 2.306h4.539z" fill="url(#i)" transform="translate(-384.571 -515.798)"/><path d="M10.354 13.49L31 3v5.124z" fill="#ffa92d"/></g><path d="M397.571 540.798h6v4h-6z" fill="url(#j)" transform="translate(-384.571 -515.798)"/><path d="M10 29h12v1H10z" fill="#99a1a7"/><path d="M385.571 536.798l4 4h27v-21l-1-1v18z" fill="url(#k)" fill-rule="evenodd" opacity=".2" transform="translate(-384.571 -515.798)"/><path d="M384.571 517.798v23h32v-23zm1 1h30v18h-30z" fill="url(#l)" transform="translate(-384.571 -515.798)"/><path d="M407.571 522.798v1h-14l9 9h-4l-1 1h-1l-1 1 8 8h13v-11z" fill="url(#m)" fill-rule="evenodd" opacity=".2" transform="translate(-384.571 -515.798)"/><path d="M402.071 520.798a2.492 2.492 0 0 0-2.449 2h-6.05v1h6.05c.23 1.144 1.236 2 2.45 2a2.492 2.492 0 0 0 2.449-2h3.05v-1h-3.05a2.492 2.492 0 0 0-2.45-2zm-6 9c-1.385 0-2.5 1.115-2.5 2.5s1.115 2.5 2.5 2.5a2.492 2.492 0 0 0 2.45-2h9.05v-1h-9.05a2.492 2.492 0 0 0-2.45-2zm0 1c.831 0 1.5.669 1.5 1.5s-.669 1.5-1.5 1.5-1.5-.669-1.5-1.5.67-1.5 1.5-1.5z" fill="url(#n)" transform="translate(-384.571 -515.798)"/></svg>