<svg height="32" width="32" xmlns="http://www.w3.org/2000/svg" xmlns:xlink="http://www.w3.org/1999/xlink"><linearGradient id="f" gradientTransform="matrix(.4 0 0 .70968 -141.428 -355.923)" gradientUnits="userSpaceOnUse" x1="412.57" x2="412.57" y1="543.8" y2="512.801"><stop offset="0" stop-color="#7f8c8d" stop-opacity=".9"/><stop offset="1" stop-color="#95a5a6" stop-opacity=".7"/></linearGradient><linearGradient id="b" gradientTransform="matrix(.66667 0 0 -.37037 -256.38 197.926)" gradientUnits="userSpaceOnUse" x1="408.57" x2="408.57" y1="512.798" y2="504.698"><stop offset="0" stop-color="#ebc69a"/><stop offset="1" stop-color="#7f8c8d" stop-opacity="0"/></linearGradient><linearGradient id="i" gradientUnits="userSpaceOnUse" x1="22" x2="22" xlink:href="#a" y1="30" y2="8"/><linearGradient id="h" gradientUnits="userSpaceOnUse" x1="18" x2="30" y1="18" y2="30"><stop offset="0" stop-color="#292c2f"/><stop offset="1" stop-opacity="0"/></linearGradient><linearGradient id="c" gradientUnits="userSpaceOnUse" x2="0" y1="30" y2="8"><stop offset="0" stop-color="#cea476"/><stop offset="1" stop-color="#dab58b"/></linearGradient><linearGradient id="a" gradientUnits="userSpaceOnUse" x2="0" y1="30" y2="8"><stop offset="0" stop-color="#cfd2d5"/><stop offset="1" stop-color="#eff0f1"/></linearGradient><linearGradient id="g" gradientUnits="userSpaceOnUse" x1="17" x2="17" xlink:href="#b" y1="8" y2="2"><stop offset="0" stop-color="#ebc69a"/><stop offset="1" stop-color="#f4e0c8" stop-opacity="0"/></linearGradient><linearGradient id="e" gradientUnits="userSpaceOnUse" x2="0" xlink:href="#c" y1="30" y2="8"/><linearGradient id="d" gradientUnits="userSpaceOnUse" x2="0" xlink:href="#c" y1="8" y2="2"/><path d="M6 2L2 8h28l-4-6H7z" fill="url(#d)" fill-rule="evenodd"/><path d="M2 8h28v22H2z" fill="url(#e)"/><path d="M2 8h12v22H2z" fill="url(#a)"/><path d="M3 24v5h5v-5zm1 1h1v1h1v-1h1v2H6v1H5v-1H4z" fill="#5c4c3e"/><g stroke-opacity=".55"><path d="M14 8h16v22H14z" fill="url(#f)"/><g stroke-width="1.867"><path d="M14 2v9l1-1 1 1 1-1s1 1 1 .972V2z" fill="#f4e0c8"/><path d="M14 2h4v6h-4z" fill="url(#g)"/><path d="M14 8v3l1-1 1 1 1-1s1 1 1 .973V8z" fill="url(#b)"/></g></g><path d="M18 18l-1 2v4l.757 2.243L21.515 30H30v-8.486l-3.757-3.757L24 17h-4z" fill="url(#h)" opacity=".2"/><path d="M22 16a6 6 0 1 0 0 12 6 6 0 0 0 0-12m0 1a5 5 0 1 1-.001 10.001A5 5 0 0 1 22 17m0 1a4 4 0 0 0-4 4h2a2 2 0 0 1 2-2zm0 3a1 1 0 0 0-1 1 1 1 0 0 0 1 1 1 1 0 0 0 1-1 1 1 0 0 0-1-1m2 1a2 2 0 0 1-2 2v2a4 4 0 0 0 4-4z" fill="url(#i)"/></svg>