<svg height="32" width="32" xmlns="http://www.w3.org/2000/svg" xmlns:xlink="http://www.w3.org/1999/xlink"><linearGradient id="e" gradientTransform="matrix(.54167 0 0 .54545 170.262 253.499)" gradientUnits="userSpaceOnUse" x2="0" y1="536.798" y2="503.798"><stop offset="0" stop-color="#2a2c2f"/><stop offset="1" stop-color="#424649"/></linearGradient><linearGradient id="d" gradientTransform="matrix(.25 0 0 .36363 286.928 350.6)" gradientUnits="userSpaceOnUse" x2="0" xlink:href="#a" y1="547.798" y2="536.798"/><linearGradient id="a"><stop offset="0" stop-color="#c6cdd1"/><stop offset="1" stop-color="#e0e5e7"/></linearGradient><linearGradient id="b"><stop offset="0" stop-color="#ee6406"/><stop offset="1" stop-color="#ffce0d"/></linearGradient><linearGradient id="f" gradientTransform="matrix(.5909 0 0 .6 151.143 225.819)" gradientUnits="userSpaceOnUse" x2="0" y1="535.798" y2="505.798"><stop offset="0" stop-color="#131011"/><stop offset=".108" stop-color="#c4735b"/><stop offset=".217" stop-color="#d5c6ae"/><stop offset=".433" stop-color="#a2bdc9"/><stop offset=".867" stop-color="#0058e2"/><stop offset="1" stop-color="#0030a0"/></linearGradient><radialGradient id="g" cx="408.571" cy="520.798" gradientTransform="matrix(.5909 0 0 .4091 151.143 325.244)" gradientUnits="userSpaceOnUse" r="22"><stop offset="0" stop-opacity="0"/><stop offset="1" stop-opacity=".453"/></radialGradient><linearGradient id="c" gradientTransform="matrix(.25 0 0 .36363 293.929 350.6)" gradientUnits="userSpaceOnUse" x2="0" xlink:href="#a" y1="547.798" y2="536.798"/><linearGradient id="h" gradientUnits="userSpaceOnUse" x1="-396.071" x2="-380.571" xlink:href="#b" y1="544.298" y2="544.298"/><linearGradient id="i" gradientUnits="userSpaceOnUse" x1="395.571" x2="392.571" xlink:href="#b" y1="536.798" y2="533.798"/><g transform="translate(-376.571 -523.798)"><g stroke-opacity=".55" stroke-width="1.4"><path d="M394.571 545.798v4h3v-4z" fill="url(#c)"/><path d="M387.571 545.798v4h3v-4z" fill="url(#d)"/><path d="M376.571 528.798h32v18h-32z" fill="url(#e)"/><path d="M380.571 529.798h24v16h-24z" fill="url(#f)"/><path d="M380.571 529.798h24v16h-24z" fill="url(#g)" opacity=".85"/></g><path d="M380.571 542.798h24v3h-24zm0-13h24v2h-24z" fill-opacity=".621" opacity=".85"/><rect fill="url(#h)" height="1" rx=".5" transform="scale(-1 1)" width="14.5" x="-396.071" y="543.798"/><path d="M385.571 549.798h14v1h-14z" fill="#99a1a7"/><rect fill="#999" height="1" ry=".492" width="7" x="396.571" y="543.798"/><circle cx="397.071" cy="544.298" fill="#fff" r="1.5"/><path d="M392.571 532.798a4 4 0 1 0 0 8 4 4 0 0 0 0-8z" fill="#1a2128"/><path d="M392.571 532.798v4h4a4 4 0 0 0-4-4z" fill="url(#i)" opacity=".85"/><path d="M391.571 534.798v4l2.97-2z" fill="#fff"/><path d="M378.571 530.798a1 1 0 0 0-1 1v12a1 1 0 0 0 1 1 1 1 0 0 0 1-1v-12a1 1 0 0 0-1-1zm28 0a1 1 0 0 0-1 1v12a1 1 0 0 0 1 1 1 1 0 0 0 1-1v-12a1 1 0 0 0-1-1z" fill="#1e2426"/></g></svg>