<svg height="32" viewBox="0 0 8.467 8.467" width="32" xmlns="http://www.w3.org/2000/svg" xmlns:xlink="http://www.w3.org/1999/xlink"><linearGradient id="b"><stop offset="0" stop-color="#232629"/><stop offset="1" stop-color="#a2abae"/></linearGradient><linearGradient id="a"><stop offset="0" stop-color="#31363b"/><stop offset="1" stop-color="#31363b" stop-opacity="0"/></linearGradient><linearGradient id="c" gradientUnits="userSpaceOnUse" x1="4.233" x2="4.233" y1="296.471" y2="289.063"><stop offset="0" stop-color="#7f8c8d"/><stop offset="1" stop-color="#bdc3c7"/></linearGradient><linearGradient id="d" gradientUnits="userSpaceOnUse" x1="16" x2="16" y1="6" y2="28"><stop offset="0" stop-color="#232629"/><stop offset="1" stop-color="#292c2f"/></linearGradient><linearGradient id="e" gradientTransform="matrix(1 0 0 1.99995 -.794 -291.164)" gradientUnits="userSpaceOnUse" x1="4.233" x2="4.233" y1="290.65" y2="291.179"><stop offset="0" stop-color="#fdbc4b" stop-opacity=".8"/><stop offset="1" stop-color="#fdbc4b" stop-opacity="0"/></linearGradient><linearGradient id="f" gradientTransform="matrix(1.25 0 0 1 -1.058 .53)" gradientUnits="userSpaceOnUse" x1="4.233" x2="4.233" xlink:href="#a" y1="295.412" y2="294.619"/><linearGradient id="g" gradientTransform="matrix(.375 0 0 1 .926 -.265)" gradientUnits="userSpaceOnUse" x1="4.233" x2="4.233" xlink:href="#a" y1="295.412" y2="294.619"/><linearGradient id="h" gradientTransform="matrix(.375 0 0 1 4.366 -.265)" gradientUnits="userSpaceOnUse" x1="4.233" x2="4.233" xlink:href="#a" y1="295.412" y2="294.619"/><linearGradient id="i" gradientTransform="matrix(.125 0 0 2.00001 7.276 -297.798)" gradientUnits="userSpaceOnUse" x1="4.233" x2="4.233" xlink:href="#a" y1="295.412" y2="294.619"/><linearGradient id="j" gradientTransform="matrix(.125 0 0 2.00001 .132 -297.798)" gradientUnits="userSpaceOnUse" x1="4.233" x2="4.233" xlink:href="#a" y1="295.412" y2="294.619"/><linearGradient id="k" gradientTransform="matrix(.625 0 0 1.66667 -1.19 -198)" gradientUnits="userSpaceOnUse" x1="4.233" x2="4.233" xlink:href="#a" y1="295.412" y2="294.619"/><linearGradient id="l" gradientTransform="matrix(.625 0 0 1.66667 4.366 -198)" gradientUnits="userSpaceOnUse" x1="4.233" x2="4.233" xlink:href="#a" y1="295.412" y2="294.619"/><radialGradient id="m" cx="-1.147" cy="-291.922" gradientTransform="matrix(4 0 0 7.0001 3.263 1752.044)" gradientUnits="userSpaceOnUse" r=".265" xlink:href="#b"/><radialGradient id="n" cx="-1.147" cy="-291.922" gradientTransform="matrix(4 0 0 7.0001 11.73 1752.044)" gradientUnits="userSpaceOnUse" r=".265" xlink:href="#b"/><g transform="translate(0 -288.533)"><rect fill="url(#c)" height="7.408" rx=".529" ry=".529" width="8.467" y="289.063"/><path d="M3 6v5H2v6h1v5h5v3h3v3h10v-3h3v-3h5v-5h1v-6h-1V6z" fill="url(#d)" transform="translate(0 288.533) scale(.26458)"/><path d="M1.323 290.12h.265v1.06h-.265zm.794 0h.264v1.06h-.264zm.793 0h.265v1.06H2.91zm3.97 0h.264v1.06h-.265zm-.795 0h.265v1.06h-.265zm-.793 0h.264v1.06h-.264zm-.794 0h.264v1.06h-.264zm-.794 0h.265v1.06h-.265z" fill="url(#e)"/><path d="M2.91 295.148h2.646v.794H2.91z" fill="url(#f)"/><path d="M2.117 294.354h.793v.794h-.793z" fill="url(#g)"/><path d="M5.556 294.354h.794v.794h-.794z" fill="url(#h)"/><path d="M7.673 291.444h.264v1.587h-.264z" fill="url(#i)"/><path d="M.53 291.444h.264v1.587H.529z" fill="url(#j)"/><path d="M.794 293.031h1.323v1.323H.794z" fill="url(#k)"/><path d="M6.35 293.031h1.323v1.323H6.35z" fill="url(#l)"/><path d="M-1.058-292.767h.529v1.059h-.53z" fill="url(#m)" transform="scale(-1)"/><path d="M7.408-292.767h.53v1.059h-.53z" fill="url(#n)" transform="scale(1 -1)"/></g></svg>