<svg xmlns="http://www.w3.org/2000/svg" xmlns:xlink="http://www.w3.org/1999/xlink" height="32" width="32"><linearGradient id="b"><stop offset="0" stop-color="#292c2f"/><stop offset="1" stop-opacity="0"/></linearGradient><linearGradient id="k" gradientTransform="translate(-384.572 -513.798)" gradientUnits="userSpaceOnUse" x2="0" y1="542.798" y2="538.798"><stop offset="0" stop-color="#c6cdd1"/><stop offset="1" stop-color="#e0e5e7"/></linearGradient><linearGradient id="l" gradientUnits="userSpaceOnUse" x1="9" x2="26" y1="4" y2="21"><stop offset="0"/><stop offset="1" stop-opacity="0"/></linearGradient><linearGradient id="m" gradientTransform="matrix(1 0 0 1.21053 -387.571 -627.23)" gradientUnits="userSpaceOnUse" x2="0" y1="538.798" y2="519.798"><stop offset="0" stop-color="#2a2c2f"/><stop offset="1" stop-color="#424649"/></linearGradient><linearGradient id="c" gradientTransform="matrix(.625 0 0 .55 -239.357 -274.089)" gradientUnits="userSpaceOnUse" x1="418.17" x2="384.571" y1="503.079" y2="531.458"><stop offset="0" stop-color="#4ce0c6"/><stop offset="1" stop-color="#3b85b5"/></linearGradient><linearGradient id="d" gradientTransform="matrix(.625 0 0 .55 145.214 241.71)" gradientUnits="userSpaceOnUse" x1="404.045" x2="430.736" y1="521.633" y2="528.35"><stop offset="0" stop-color="#ffc169"/><stop offset="1" stop-color="#ffa92d"/></linearGradient><linearGradient id="e" gradientTransform="matrix(.625 0 0 .55 145.214 241.71)" gradientUnits="userSpaceOnUse" x1="398.092" x2="394.003" xlink:href="#a" y1="542.224" y2="524.9"/><linearGradient id="a"><stop offset="0" stop-color="#334545"/><stop offset="1" stop-color="#536161"/></linearGradient><linearGradient id="f" gradientTransform="matrix(-.625 0 0 .55 669.678 219.71)" gradientUnits="userSpaceOnUse" x1="431.571" x2="439.571" xlink:href="#a" y1="568.798" y2="562.798"/><linearGradient id="g" gradientTransform="matrix(-.625 0 0 .55 669.678 219.71)" gradientUnits="userSpaceOnUse" x1="406.537" x2="423.32" xlink:href="#a" y1="581.87" y2="572.678"/><linearGradient id="h" gradientTransform="matrix(-.625 0 0 .55 669.678 219.71)" gradientUnits="userSpaceOnUse" x1="423.054" x2="431.225" xlink:href="#a" y1="572.334" y2="566.766"/><linearGradient id="i" gradientTransform="matrix(-.625 0 0 .55 669.678 219.71)" gradientUnits="userSpaceOnUse" x1="431.313" x2="440.632" xlink:href="#a" y1="577.102" y2="571.445"/><linearGradient id="j" gradientTransform="matrix(-.625 0 0 .55 669.678 219.71)" gradientUnits="userSpaceOnUse" x1="430.567" x2="423.75" xlink:href="#a" y1="577.362" y2="591.328"/><linearGradient id="n" gradientTransform="matrix(1 0 0 .94737 -384.571 -488.281)" gradientUnits="userSpaceOnUse" x1="386.571" x2="386.571" y1="544.965" y2="523.854"><stop offset="0" stop-color="#6f8181"/><stop offset="1" stop-color="#909c9c"/></linearGradient><linearGradient id="o" gradientUnits="userSpaceOnUse" x1="4" x2="13.5" xlink:href="#b" y1="6" y2="15.5"/><linearGradient id="p" gradientUnits="userSpaceOnUse" x1="3" x2="5" xlink:href="#b" y1="5" y2="7"/><linearGradient id="q" gradientUnits="userSpaceOnUse" x1="3" x2="11" xlink:href="#b" y1="10" y2="18"/><path d="M1 3v18h30V3z" fill="url(#c)"/><g stroke-linecap="round" stroke-width="2"><path d="M415.571 518.798l-20.646 10.49 14.783 7.51h5.863z" fill="url(#d)" transform="translate(-384.571 -515.798)"/><path d="M394.946 529.248l-9.375 4.763v2.787h24.277z" fill="url(#e)" transform="translate(-384.571 -515.798)"/><path d="M400.108 531.87l-5.162-2.622v5.245z" fill="url(#f)" transform="translate(-384.571 -515.798)"/><path d="M405.27 534.492v2.306h4.538z" fill="url(#g)" transform="translate(-384.571 -515.798)"/><path d="M400.108 531.87v4.928h.625l4.537-2.305z" fill="url(#h)" transform="translate(-384.571 -515.798)"/><path d="M394.946 534.493v2.305h4.537z" fill="url(#i)" transform="translate(-384.571 -515.798)"/><path d="M405.27 534.492l-4.539 2.306h4.539z" fill="url(#j)" transform="translate(-384.571 -515.798)"/><path d="M10.354 13.49L31 3v5.124z" fill="#ffa92d"/></g><path d="M13 25h6v4h-6z" fill="url(#k)"/><path d="M10 29h12v1H10z" fill="#99a1a7"/><path d="M1 21l4 4h27V4l-1-1v18z" fill="url(#l)" fill-rule="evenodd" opacity=".2"/><path d="M0 2v23h32V2zm1 1h30v18H1z" fill="url(#m)"/><path d="M3 8v17a3 3 0 0 0 3 3h7v-1H6a2 2 0 0 1-2-2V8z" fill="url(#n)"/><path d="M2 7V5"/><path d="M5 4l21 21h-7L2 8z" fill="url(#o)" opacity=".2"/><path d="M2 4h3v4H2z" fill="#cfd5d5"/><path d="M4 4l1 1v3H4L3 7z" fill="url(#p)" opacity=".2"/><path d="M3 4h1v3H3z" fill="#eff1f1"/><path d="M4 10l15 15H4z" opacity=".2" fill="url(#q)"/></svg>