<svg xmlns="http://www.w3.org/2000/svg" height="32" width="32"><linearGradient id="c" gradientUnits="userSpaceOnUse" x1="16" x2="16" y1="24" y2="8" gradientTransform="translate(0 -.001)"><stop offset="0" stop-color="#7cbaf8"/><stop offset="1" stop-color="#f4fcff"/></linearGradient><linearGradient id="b" gradientUnits="userSpaceOnUse" x1="10" x2="25" y1="10" y2="25"><stop offset="0" stop-color="#292c2f"/><stop offset="1" stop-opacity="0"/></linearGradient><linearGradient id="a" gradientUnits="userSpaceOnUse" x1="2" x2="2" y1="30" y2="2"><stop offset="0" stop-color="#197cf1"/><stop offset="1" stop-color="#20bcfa"/></linearGradient><rect fill="url(#a)" height="28" rx="14" width="28" x="2" y="2"/><path d="M10.055 21.945L9 13l5-4h6l1.938 1.062L30 18v12H18.11z" fill="url(#b)" opacity=".2"/><path d="M23.8 15.113q0 .916-.218 1.793-.2.877-.638 1.594-.438.697-1.076 1.136-.637.418-1.514.418-.917 0-1.455-.518-.518-.538-.637-1.215h-.1q-.358.737-1.056 1.235-.697.498-1.753.498-1.534 0-2.351-1.016t-.817-2.69q0-1.295.518-2.311t1.454-1.594q.957-.578 2.252-.578.876 0 1.713.16.857.139 1.335.318l-.199 4.045q-.02.359-.02.518v.2q0 1.055.359 1.394.378.319.876.319.618 0 1.037-.498.438-.518.657-1.355.24-.837.24-1.873 0-1.833-.758-3.128-.737-1.295-2.052-1.973-1.295-.677-2.95-.677-2.27 0-3.845.936-1.554.937-2.37 2.59-.798 1.634-.798 3.746 0 2.95 1.554 4.523 1.555 1.574 4.484 1.574 1.215 0 2.31-.279 1.117-.259 1.973-.578v1.355q-.856.359-1.932.578-1.056.24-2.351.24-2.352 0-4.025-.877-1.674-.877-2.57-2.51-.877-1.655-.877-3.966 0-1.853.577-3.427.578-1.594 1.674-2.75 1.096-1.175 2.65-1.813Q14.675 8 16.648 8q2.072 0 3.686.856 1.614.857 2.53 2.451.937 1.594.937 3.806zm-10.06 1.275q0 1.295.498 1.873.498.558 1.375.558 1.116 0 1.594-.837.498-.837.578-2.172l.12-2.49q-.26-.08-.658-.14-.399-.06-.817-.06-.977 0-1.574.478-.598.479-.857 1.236-.26.737-.26 1.554z" font-size="19.925" aria-label="@" font-weight="400" letter-spacing="0" word-spacing="0" font-family="Noto Sans" fill="url(#c)"/></svg>