<svg xmlns="http://www.w3.org/2000/svg" xmlns:xlink="http://www.w3.org/1999/xlink" height="32" width="32"><defs><linearGradient id="e"><stop offset="0" stop-color="#31363b"/><stop offset="1" stop-color="#4d4d4d"/></linearGradient><linearGradient id="d"><stop offset="0" stop-color="#4d4d4d"/><stop offset="1" stop-color="#7f8c8d"/></linearGradient><linearGradient id="c"><stop offset="0" stop-color="#9da5ab"/><stop offset="1" stop-color="#bdc3c7"/></linearGradient><linearGradient id="b"><stop offset="0" stop-color="#7f8c8d"/><stop offset="1" stop-color="#95a5a6"/></linearGradient><linearGradient id="a"><stop offset="0" stop-color="#292c2f"/><stop offset="1" stop-opacity="0"/></linearGradient><linearGradient xlink:href="#a" id="f" x1="-48" y1="26" x2="-38" y2="26" gradientUnits="userSpaceOnUse"/><linearGradient xlink:href="#b" id="i" y1="30" x2="0" y2="2" gradientUnits="userSpaceOnUse"/><linearGradient xlink:href="#c" id="j" x1="10" y1="27" x2="10" y2="12" gradientUnits="userSpaceOnUse"/><linearGradient xlink:href="#d" id="h" x1="22" y1="14" x2="22" y2="8" gradientUnits="userSpaceOnUse"/><linearGradient xlink:href="#e" id="g" x1="23" y1="13" x2="23" y2="9" gradientUnits="userSpaceOnUse"/></defs><path opacity=".2" fill="url(#f)" d="M-48 22h10v8h-10z"/><path d="M5 24a3 3 0 0 0-3 3 3 3 0 0 0 3 3 3 3 0 0 0 3-3 3 3 0 0 0-3-3zm0 1a2 2 0 0 1 2 2 2 2 0 0 1-2 2 2 2 0 0 1-2-2 2 2 0 0 1 2-2zm21-13c.333-.667.667-1.335 1-2.333.333-1 .667-2.334 1-3.667l-1-1-4 4 3 3z" fill="#7f8c8d"/><path style="line-height:normal;font-variant-ligatures:normal;font-variant-position:normal;font-variant-caps:normal;font-variant-numeric:normal;font-variant-alternates:normal;font-feature-settings:normal;text-indent:0;text-align:start;text-decoration-line:none;text-decoration-style:solid;text-decoration-color:#000;text-transform:none;text-orientation:mixed;shape-padding:0;isolation:auto;mix-blend-mode:normal" d="M19.354 8.646l-.708.708 4 4 .708-.708z" color="#000" font-weight="400" font-family="sans-serif" white-space="normal" overflow="visible" fill="url(#g)"/><path d="M23 11l-2 3h1l2-3zm-1-1l-2 3h1l2-3zm-1-1l-2 3h1l2-3zm-1-1l-2 3h1l2-3z" fill="url(#h)"/><path d="M24 2c-1.333.333-2.667.667-3.666 1-.999.333-1.668.667-2.168 1.166-.5.5-.833 1.166-1 2.166-.167 1-.166 2.335-.332 3.334-.13.784-.371 1.35-.627 1.885L2.879 24.879 3 25h4v4l.121.121 13.344-13.344A14.436 14.436 0 0 1 22.334 15c.999-.333 2.333-.666 3.166-1 .833-.334 1.167-.667 1.5-1l-1.879-1.879L22 8l-1-1 4-4-1-1zm-4 6l4 4-2 2-4-4 2-2z" fill="url(#i)"/><path d="M18 12a2 2 0 0 0-1.414.586L5.172 24l.01.01a3 3 0 0 1 2.812 2.812l.006.006 11.414-11.414A2 2 0 0 0 20 14a2 2 0 0 0-2-2z" fill="url(#j)"/><path d="M24 3l-3 1-1 3 6 6 .75-.25L23 9l-2-2 4-4zm3 2l-3 3v1.666L26 9l1-3z" fill="#bdc3c7"/></svg>