<svg xmlns="http://www.w3.org/2000/svg" xmlns:xlink="http://www.w3.org/1999/xlink" height="32" width="32"><linearGradient id="a" gradientUnits="userSpaceOnUse" x2="0" y1="17" y2="7"><stop offset="0" stop-color="#c3ced7"/><stop offset="1" stop-color="#e2f4f4"/></linearGradient><linearGradient id="b" gradientUnits="userSpaceOnUse" x1="2" x2="2" y1="30" y2="2"><stop offset="0" stop-color="#2a2c2f"/><stop offset="1" stop-color="#424649"/></linearGradient><linearGradient id="f" gradientUnits="userSpaceOnUse" x1="4" x2="18" y1="20" y2="22"><stop offset="0"/><stop offset="1" stop-opacity="0"/></linearGradient><linearGradient id="d" gradientUnits="userSpaceOnUse" x1="2" x2="2" xlink:href="#a" y1="23" y2="2"/><linearGradient id="e" gradientUnits="userSpaceOnUse" x1="2" x2="2" y1="23" y2="2"><stop offset="0" stop-color="#070809"/><stop offset="1" stop-color="#232629"/></linearGradient><linearGradient id="c" gradientUnits="userSpaceOnUse" x2="0" xlink:href="#a" y1="23" y2="2"/><path d="M2 2v28h2V2z" fill="url(#b)"/><path d="M2 16l2 1v-1z" fill="url(#c)"/><path d="M2 16l2 1v-1z" fill="#292c2f" opacity=".6"/><path d="M16 7l14 2-2 14-14-2z" fill="url(#d)"/><path d="M22 15l-1 7 7 1 1-7zm-6-8l-1 7 7 1 1-7z" fill="url(#e)"/><path d="M16 7l7 1-2 14-7-1z" fill="url(#f)"/><path d="M14 21l2-3 2-14-2 3z" fill="#292c2f" opacity=".6"/><path d="M18 4L4 2 2 16l14 2z" fill="url(#d)"/><path d="M10 10l-1 7 7 1 1-7zM4 2L3 9l7 1 1-7z" fill="url(#e)"/></svg>