<svg height="32" viewBox="0 0 8.467 8.467" width="32" xmlns="http://www.w3.org/2000/svg" xmlns:xlink="http://www.w3.org/1999/xlink"><linearGradient id="b"><stop offset="0" stop-color="#232629"/><stop offset="1" stop-color="#9aa4a6"/></linearGradient><linearGradient id="c" gradientUnits="userSpaceOnUse" x1=".529" x2=".529" y1="7.938" y2=".529"><stop offset="0" stop-color="#7f8c8d"/><stop offset="1" stop-color="#bdc3c7"/></linearGradient><linearGradient id="a"><stop offset="0" stop-color="#31363b"/><stop offset="1" stop-color="#31363b" stop-opacity="0"/></linearGradient><linearGradient id="d" gradientTransform="matrix(.26458 0 0 -.26458 0 8.467)" gradientUnits="userSpaceOnUse" x1="16" x2="16" y1="28" y2="6"><stop offset="0" stop-color="#232629"/><stop offset="1" stop-color="#292c2f"/></linearGradient><linearGradient id="e" gradientTransform="matrix(1 0 0 -1.99995 -.794 588.164)" gradientUnits="userSpaceOnUse" x1="4.233" x2="4.233" y1="290.65" y2="291.179"><stop offset="0" stop-color="#fdbc4b" stop-opacity=".8"/><stop offset="1" stop-color="#fdbc4b" stop-opacity="0"/></linearGradient><linearGradient id="f" gradientTransform="matrix(1.25 0 0 -1 -1.058 296.47)" gradientUnits="userSpaceOnUse" x1="4.233" x2="4.233" xlink:href="#a" y1="295.412" y2="294.619"/><linearGradient id="g" gradientTransform="matrix(.375 0 0 -1 .926 297.265)" gradientUnits="userSpaceOnUse" x1="4.233" x2="4.233" xlink:href="#a" y1="295.412" y2="294.619"/><linearGradient id="h" gradientTransform="matrix(.375 0 0 -1 4.366 297.265)" gradientUnits="userSpaceOnUse" x1="4.233" x2="4.233" xlink:href="#a" y1="295.412" y2="294.619"/><linearGradient id="i" gradientTransform="matrix(.125 0 0 2.00001 6.747 -585.273)" gradientUnits="userSpaceOnUse" x1="4.233" x2="4.233" xlink:href="#a" y1="295.412" y2="294.619"/><linearGradient id="j" gradientTransform="matrix(.125 0 0 2.00001 .661 -585.273)" gradientUnits="userSpaceOnUse" x1="4.233" x2="4.233" xlink:href="#a" y1="295.412" y2="294.619"/><linearGradient id="k" gradientTransform="matrix(.375 0 0 -1.66667 .132 495)" gradientUnits="userSpaceOnUse" x1="4.233" x2="4.233" xlink:href="#a" y1="295.412" y2="294.619"/><linearGradient id="l" gradientTransform="matrix(.375 0 0 -1.66667 5.16 495)" gradientUnits="userSpaceOnUse" x1="4.233" x2="4.233" xlink:href="#a" y1="295.412" y2="294.619"/><radialGradient id="m" cx="-1.147" cy="-291.922" gradientTransform="matrix(-4 0 0 -7.0001 -2.734 -2039.519)" gradientUnits="userSpaceOnUse" r=".265" xlink:href="#b"/><radialGradient id="n" cx="-1.147" cy="-291.922" gradientTransform="matrix(4 0 0 -7.0001 11.2 -2039.518)" gradientUnits="userSpaceOnUse" r=".265" xlink:href="#b"/><rect fill="url(#c)" height="7.408" rx=".529" ry=".529" width="7.408" x=".529" y=".529"/><path d="M1.323 6.88V5.555h-.265V3.97h.265V2.646h.794v-.794h.793v-.794h2.646v.794h.794v.794h.794v1.323h.264v1.587h-.264V6.88z" fill="url(#d)"/><path d="M2.117 6.88h.264V5.82h-.264zm.793 0h.265V5.82H2.91zm3.175 0h.265V5.82h-.265zm-.793 0h.264V5.82h-.264zm-.794 0h.264V5.82h-.264zm-.794 0h.265V5.82h-.265z" fill="url(#e)"/><path d="M2.91 1.852h2.646v-.794H2.91z" fill="url(#f)"/><path d="M2.117 2.646h.793v-.794h-.793z" fill="url(#g)"/><path d="M5.556 2.646h.794v-.794h-.794z" fill="url(#h)"/><path d="M7.144 3.969h.264v1.587h-.264z" fill="url(#i)"/><path d="M1.058 3.969h.265v1.587h-.265z" fill="url(#j)"/><path d="M1.323 3.969h.794V2.646h-.794z" fill="url(#k)"/><path d="M6.35 3.969h.794V2.646H6.35z" fill="url(#l)"/><path d="M1.587 5.292h-.529V4.233h.53z" fill="url(#m)"/><path d="M6.88 5.292h.528V4.233H6.88z" fill="url(#n)"/></svg>