<svg height="32" width="32" xmlns="http://www.w3.org/2000/svg" xmlns:xlink="http://www.w3.org/1999/xlink"><linearGradient id="b"><stop offset="0" stop-color="#292c2f"/><stop offset="1" stop-opacity="0"/></linearGradient><linearGradient id="a"><stop offset="0" stop-color="#232629"/><stop offset="1" stop-color="#433a35"/></linearGradient><radialGradient id="I" cx="16.001" cy="16.001" gradientUnits="userSpaceOnUse" r="14"><stop offset="0" stop-color="#fdffe1"/><stop offset=".5" stop-color="#faffa5"/><stop offset="1" stop-color="#faffa5" stop-opacity=".2"/></radialGradient><linearGradient id="g" gradientUnits="userSpaceOnUse" x1="15" x2="17" xlink:href="#a" y1="22.5" y2="22.5"/><linearGradient id="r" gradientUnits="userSpaceOnUse" x1="15.891" x2="18.891" xlink:href="#a" y1="-20.746" y2="-20.746"/><linearGradient id="k" gradientUnits="userSpaceOnUse" x1="21.627" x2="23.627" xlink:href="#a" y1="6.5" y2="6.5"/><linearGradient id="o" gradientUnits="userSpaceOnUse" x1="19.681" x2="21.681" xlink:href="#a" y1=".997" y2=".997"/><linearGradient id="d" gradientUnits="userSpaceOnUse" x1="8" x2="11" xlink:href="#a" y1="16" y2="16"/><linearGradient id="s" gradientUnits="userSpaceOnUse" x1="7.502" x2="9.502" xlink:href="#a" y1="-12.174" y2="-12.174"/><linearGradient id="h" gradientUnits="userSpaceOnUse" x1="14.627" x2="17.627" xlink:href="#a"/><linearGradient id="l" gradientUnits="userSpaceOnUse" x1="9.751" x2="12.751" xlink:href="#a" y1="-8.882" y2="-8.882"/><linearGradient id="e" gradientUnits="userSpaceOnUse" x1="15" x2="17" xlink:href="#a" y1="9.5" y2="9.5"/><linearGradient id="p" gradientUnits="userSpaceOnUse" x1="-1.57" x2="1.43" xlink:href="#a" y1="-21.063" y2="-21.063"/><linearGradient id="i" gradientUnits="userSpaceOnUse" x1="21.627" x2="23.627" xlink:href="#a" y1="-6.5" y2="-6.5"/><linearGradient id="m" gradientUnits="userSpaceOnUse" x1="20.13" x2="22.13" xlink:href="#a" y1="-18.312" y2="-18.312"/><linearGradient id="f" gradientUnits="userSpaceOnUse" x1="21" x2="24" xlink:href="#a" y1="16" y2="16"/><linearGradient id="q" gradientUnits="userSpaceOnUse" x1="7.819" x2="9.819" xlink:href="#a" y1="-29.635" y2="-29.635"/><linearGradient id="j" gradientUnits="userSpaceOnUse" x1="27.627" x2="30.627" xlink:href="#a"/><linearGradient id="n" gradientUnits="userSpaceOnUse" x1="29.06" x2="32.06" xlink:href="#a" y1="-8.433" y2="-8.433"/><linearGradient id="J" gradientUnits="userSpaceOnUse" x1="16" x2="16" y1="30" y2="2"><stop offset="0" stop-color="#997657"/><stop offset="1" stop-color="#bb9d71"/></linearGradient><linearGradient id="c" gradientUnits="userSpaceOnUse" x1="16" x2="16" y1="29" y2="3"><stop offset="0" stop-color="#11d116"/><stop offset="1" stop-color="#30ee35"/></linearGradient><linearGradient id="t" gradientUnits="userSpaceOnUse" x1="5" x2="11" xlink:href="#b" y1="9" y2="15"/><linearGradient id="u" gradientUnits="userSpaceOnUse" x1="9" x2="14.674" xlink:href="#b" y1="5" y2="10.674"/><linearGradient id="v" gradientUnits="userSpaceOnUse" x1="14.531" x2="17" xlink:href="#b" y1="7" y2="9.469"/><linearGradient id="w" gradientUnits="userSpaceOnUse" x1="18" x2="20.391" xlink:href="#b" y1="6.609" y2="9"/><linearGradient id="x" gradientUnits="userSpaceOnUse" x1="23.297" x2="26.469" xlink:href="#b" y1="5.453" y2="8.625"/><linearGradient id="y" gradientUnits="userSpaceOnUse" x1="25.292" x2="28.606" xlink:href="#b" y1="10" y2="13.314"/><linearGradient id="z" gradientUnits="userSpaceOnUse" x1="24.578" x2="28.597" xlink:href="#b" y1="14.481" y2="18.5"/><linearGradient id="A" gradientUnits="userSpaceOnUse" x1="21.344" x2="27" xlink:href="#b" y1="17.344" y2="23"/><linearGradient id="B" gradientUnits="userSpaceOnUse" x1="18.273" x2="25.12" xlink:href="#b" y1="18.437" y2="25.284"/><linearGradient id="C" gradientUnits="userSpaceOnUse" x1="17" x2="23" xlink:href="#b" y1="21" y2="27"/><linearGradient id="D" gradientUnits="userSpaceOnUse" x1="14.531" x2="18.531" xlink:href="#b" y1="25" y2="29"/><linearGradient id="E" gradientUnits="userSpaceOnUse" x1="9.92" x2="13.293" xlink:href="#b" y1="25.25" y2="28.623"/><linearGradient id="F" gradientUnits="userSpaceOnUse" x1="6.26" x2="9.343" xlink:href="#b" y1="22.668" y2="25.751"/><linearGradient id="G" gradientUnits="userSpaceOnUse" x1="3.287" x2="6.456" xlink:href="#b" y1="18.78" y2="21.95"/><linearGradient id="H" gradientUnits="userSpaceOnUse" x1="3.148" x2="7" xlink:href="#b" y1="13.68" y2="17.531"/><circle cx="16" cy="16" fill="#bb9d71" r="14"/><circle cx="16" cy="16" fill="url(#c)" opacity=".6" r="13"/><ellipse cx="9.5" cy="16" fill="url(#d)" rx="1.5" ry="1"/><ellipse cx="16" cy="9.5" fill="url(#e)" rx="1" ry="1.5"/><ellipse cx="22.5" cy="16" fill="url(#f)" rx="1.5" ry="1"/><ellipse cx="16" cy="22.5" fill="url(#g)" rx="1" ry="1.5"/><ellipse cx="16.127" fill="url(#h)" rx="1.5" ry="1" transform="rotate(45)"/><ellipse cx="22.627" cy="-6.5" fill="url(#i)" rx="1" ry="1.5" transform="rotate(45)"/><ellipse cx="29.127" fill="url(#j)" rx="1.5" ry="1" transform="rotate(45)"/><ellipse cx="22.627" cy="6.5" fill="url(#k)" rx="1" ry="1.5" transform="rotate(45)"/><ellipse cx="11.251" cy="-8.882" fill="url(#l)" rx="1.5" ry="1" transform="rotate(67.496)"/><ellipse cx="21.13" cy="-18.312" fill="url(#m)" rx="1" ry="1.5" transform="rotate(67.496)"/><ellipse cx="30.56" cy="-8.433" fill="url(#n)" rx="1.5" ry="1" transform="rotate(67.496)"/><ellipse cx="20.681" cy=".997" fill="url(#o)" rx="1" ry="1.5" transform="rotate(67.496)"/><ellipse cx="-.07" cy="-21.063" fill="url(#p)" rx="1.5" ry="1" transform="rotate(112.496)"/><ellipse cx="8.819" cy="-29.635" fill="url(#q)" rx="1" ry="1.5" transform="rotate(112.496)"/><ellipse cx="17.391" cy="-20.746" fill="url(#r)" rx="1.5" ry="1" transform="rotate(112.496)"/><ellipse cx="8.502" cy="-12.174" fill="url(#s)" rx="1" ry="1.5" transform="rotate(112.496)"/><path d="M5 9l6 6h2v-1z" fill="url(#t)" opacity=".2"/><path d="M9 5l6 6v2h-1z" fill="url(#u)" opacity=".2"/><path d="M13.625 3l4 4L17 13h-2z" fill="url(#v)" opacity=".2"/><path d="M18.734 3.266L22 6.53 18 13h-1l1-7z" fill="url(#w)" opacity=".2"/><path d="M23.469 5L27 8.531 18 15v-2z" fill="url(#x)" opacity=".2"/><path d="M27 9l1 1 1 3.339L20 15h-2l8.594-6z" fill="url(#y)" opacity=".2"/><path d="M29 13.625l-10 1.906V17h3l7 1.672z" fill="url(#z)" opacity=".2"/><path d="M19 17l1 2 7 4.484L29 19v-.328L22 17z" fill="url(#A)" opacity=".2"/><path d="M27 23.484L19 18h-1v1l5.36 8L25 26z" fill="url(#B)" opacity=".2"/><path d="M23.36 27L18 19h-1v3l1.531 7L22 28.281z" fill="url(#C)" opacity=".2"/><path d="M18.531 29L16 18l-2.543 11z" fill="url(#D)" opacity=".2"/><path d="M13.457 29L16 18l-3 2-4.36 7L11 28.487z" fill="url(#E)" opacity=".2"/><path d="M8.64 27L15 18h-2l-8 5.316L7 26z" fill="url(#F)" opacity=".2"/><path d="M3.287 18.78L6.507 22 13 18l1-1h-2z" fill="url(#G)" opacity=".2"/><path d="M3.148 13.68L7 17.53l5-.53 1-1-1-1z" fill="url(#H)" opacity=".2"/><path d="M16 19.5c-.71 0-2.035 10.37-2.731 10.231-.696-.138 2.047-10.226 1.392-10.497-.656-.272-5.85 8.8-6.439 8.407-.59-.395 5.805-8.664 5.303-9.166s-8.771 5.893-9.166 5.303c-.394-.59 8.679-5.783 8.407-6.439-.271-.655-10.359 2.088-10.497 1.392S12.5 16.71 12.5 16 2.13 13.965 2.269 13.269c.138-.696 10.226 2.047 10.497 1.392.272-.656-8.8-5.85-8.407-6.439.395-.59 8.664 5.805 9.166 5.303S7.632 4.754 8.222 4.359c.59-.394 5.783 8.679 6.439 8.407.655-.271-2.088-10.359-1.392-10.497S15.29 12.5 16 12.5s2.035-10.37 2.731-10.231c.696.138-2.047 10.226-1.392 10.497.656.272 5.85-8.8 6.439-8.407.59.395-5.805 8.664-5.303 9.166s8.771-5.893 9.166-5.303c.394.59-8.679 5.783-8.407 6.439.271.655 10.359-2.088 10.497-1.392S19.5 15.29 19.5 16s10.37 2.035 10.231 2.731c-.138.696-10.226-2.047-10.497-1.392-.272.656 8.8 5.85 8.407 6.439-.395.59-8.664-5.805-9.166-5.303s5.893 8.771 5.303 9.166c-.59.394-5.783-8.679-6.439-8.407-.655.271 2.088 10.359 1.392 10.497S16.71 19.5 16 19.5z" fill="url(#I)"/><path d="M16 2A14 14 0 0 0 2 16a14 14 0 0 0 14 14 14 14 0 0 0 14-14A14 14 0 0 0 16 2zm0 1a13 13 0 0 1 13 13 13 13 0 0 1-13 13A13 13 0 0 1 3 16 13 13 0 0 1 16 3z" fill="url(#J)"/></svg>