<svg xmlns="http://www.w3.org/2000/svg" xmlns:xlink="http://www.w3.org/1999/xlink" height="32" width="32"><defs><linearGradient xlink:href="#a" id="e" x1="10" y1="8" x2="28" y2="26" gradientUnits="userSpaceOnUse"/></defs><linearGradient id="b" gradientTransform="matrix(.58696 0 0 .53846 -227.988 -270.353)" gradientUnits="userSpaceOnUse" x1="388.423" x2="388.423" y1="557.798" y2="505.798"><stop offset="0" stop-color="#7f8c8d"/><stop offset="1" stop-color="#afb0b3"/></linearGradient><linearGradient id="c" gradientUnits="userSpaceOnUse" x1="11" x2="22" xlink:href="#a" y1="10" y2="21"/><linearGradient id="a" gradientTransform="translate(-432.447 -514.204)" gradientUnits="userSpaceOnUse" x1="400.571" x2="420.571" y1="511.798" y2="531.798"><stop offset="0" stop-color="#292c2f"/><stop offset="1" stop-opacity="0"/></linearGradient><linearGradient id="d" gradientTransform="matrix(.52174 0 0 .53846 -.696 -1.23)" gradientUnits="userSpaceOnUse" x1="1.333" x2="1.333" y1="48.714" y2="9.714"><stop offset="0" stop-color="#eef1f2"/><stop offset="1" stop-color="#f9fafb"/></linearGradient><path d="M4 2h24v28H4z" fill="url(#b)"/><path d="M7 27h18v3H7z" fill="#292c2e"/><path d="M9 28h9v1H9zm10 0h4v1h-4z" fill="#f6b44d"/><path d="M24 27h4v3h-4zM4 27h4v3H4z" fill="#292c2f" opacity=".2"/><path d="M4 27h4v3H7zm20 0h4v3h-4z" fill="#292c2f" opacity=".2"/><path d="M24.535 5.465L28 8.928V30H14l-8-8z" fill="url(#c)" opacity=".2"/><path d="M11 4a5 5 0 0 0-5 5v4.768a3 3 0 0 1 .996 2.117A2 2 0 0 1 7 16a2 2 0 0 1-.01.2 3 3 0 0 1 0 .005A3 3 0 0 1 6 18.23V22l3 3h14l3-3v-3.768a3 3 0 0 1-.996-2.117A2 2 0 0 1 25 16a2 2 0 0 1 .01-.205A3 3 0 0 1 26 13.77V9a5 5 0 0 0-5-5z" fill="url(#d)"/><path d="M10 13l4 4v1l9 9h5V14l-6-6h-5v2l-2-2h-5z" opacity=".2" fill="url(#e)"/><path d="M10 8v5h4v5h3v2h5v-5h-5v2h-2v-6h2v2h5V8h-5v2h-2V8zm1 1h3v3h-3zm7 0h3v3h-3z" fill="#4d4d4d"/></svg>