<svg xmlns="http://www.w3.org/2000/svg" xmlns:xlink="http://www.w3.org/1999/xlink" width="32" height="32"><linearGradient id="a"><stop stop-color="#292c2f" offset="0"/><stop stop-opacity="0" offset="1"/></linearGradient><linearGradient y2="2" y1="30" x2="16" x1="16" gradientUnits="userSpaceOnUse" id="b"><stop stop-color="#dedede" offset="0"/><stop stop-color="#ececec" offset="1"/></linearGradient><linearGradient y2="11" y1="21" x2="16" x1="16" gradientUnits="userSpaceOnUse" id="d"><stop stop-color="#4d4d4d" offset="0"/><stop stop-color="#536161" offset="1"/></linearGradient><linearGradient y2="26" y1="16" xlink:href="#a" x2="26" x1="16" gradientUnits="userSpaceOnUse" id="c"/><path fill="url(#b)" d="M16 2A14 14 0 0 0 2 16a14 14 0 0 0 14 14 14 14 0 0 0 14-14A14 14 0 0 0 16 2zm0 12a2 2 0 0 1 2 2 2 2 0 0 1-2 2 2 2 0 0 1-2-2 2 2 0 0 1 2-2z"/><path opacity=".2" fill="url(#c)" d="M16 11l-3 1-1 1-1 3 1 3 .465.535 9.238 9.238a14 14 0 0 0 7.065-7.076l-9.233-9.232L19 12zm0 3a2 2 0 0 1 2 2 2 2 0 0 1-2 2 2 2 0 0 1-2-2 2 2 0 0 1 2-2z"/><path fill="url(#d)" d="M16 11a5 5 0 0 0-5 5 5 5 0 0 0 5 5 5 5 0 0 0 5-5 5 5 0 0 0-5-5zm0 2a3 3 0 0 1 3 3 3 3 0 0 1-3 3 3 3 0 0 1-3-3 3 3 0 0 1 3-3z"/><rect ry="2" y="14" x="16" height="16" width="16" fill="#eff0f1"/><path d="M18 16v12h12V16zm1 1h4v1h1v-1h5v10H19zm5 1v1h1v-1zm0 1h-1v1h1zm0 1v1h1v-1zm0 1h-1v1h1zm0 1v1h1v-1zm0 1h-1v2h2v-1h-1z" fill="#4d4d4d"/></svg>