<svg xmlns="http://www.w3.org/2000/svg" xmlns:xlink="http://www.w3.org/1999/xlink" width="32" height="32"><defs><linearGradient id="d"><stop offset="0"/><stop offset="1" stop-opacity="0"/></linearGradient><linearGradient id="c"><stop offset="0" stop-color="#f39c1f"/><stop offset="1" stop-color="#fdbc4b"/></linearGradient><linearGradient id="b"><stop offset="0" stop-color="#232629"/><stop offset="1" stop-color="#4d4d4d"/></linearGradient><linearGradient id="a"><stop offset="0" stop-color="#fcfcfc"/><stop offset="1" stop-color="#eff0f1"/></linearGradient><linearGradient gradientTransform="translate(2.038 .404) scale(.98959)" gradientUnits="userSpaceOnUse" y2="13.369" x2="15.152" y1="26.808" x1="15.505" id="f" xlink:href="#a"/><linearGradient gradientTransform="translate(2.038 .404) scale(.98959)" gradientUnits="userSpaceOnUse" y2="1.612" x2="13.098" y1="26.876" x1="13.098" id="e" xlink:href="#b"/><linearGradient gradientTransform="translate(2.038 .404) scale(.98959)" gradientUnits="userSpaceOnUse" y2="7.829" x2="13.837" y1="11.718" x1="14.109" id="j" xlink:href="#c"/><linearGradient gradientTransform="translate(2.038 .404) scale(.98959)" gradientUnits="userSpaceOnUse" y2="20.812" x2="8.046" y1="29.907" x1="8.046" id="g" xlink:href="#c"/><linearGradient gradientTransform="translate(2.038 .404) scale(.98959)" gradientUnits="userSpaceOnUse" y2="22.471" x2="20.824" y1="29.444" x1="20.958" id="h" xlink:href="#c"/><linearGradient gradientTransform="translate(-2 -2.667) scale(1.16667)" gradientUnits="userSpaceOnUse" y2="14.383" x2="16" y1="11.383" x1="13" id="i" xlink:href="#d"/></defs><path d="M12.627 10.452c.36-1.426.013-2.942.063-4.412.11-3.21 1.892-3.938 3.719-4.033 2.096-.11 4.577 1.132 4.727 4.16.071 1.449-.185 2.946.189 4.348.871 3.27 4.61 5.631 4.664 9.013.05 3.214-1.43 7.002-4.16 8.698-1.41.876-3.323-.175-4.98-.063-1.843.126-3.893 1.763-5.483.82C8.48 27.27 7.684 22.878 7.9 19.528c.22-3.404 3.892-5.768 4.727-9.076z" fill="url(#e)"/><ellipse ry="1.916" rx="1.482" cy="7.782" cx="17.76" fill="#fcfcfc" fill-opacity=".941"/><ellipse ry="1.56" rx="1.047" cy="7.849" cx="14.25" fill="#fcfcfc" fill-opacity=".941"/><ellipse ry="1.003" rx=".607" cy="8.094" cx="17.576" fill="#232629"/><ellipse ry=".747" rx=".462" cy="8.094" cx="14.255" fill="#232629"/><path d="M17.564 9.757a5.068 5.068 0 0 0-.545.004c-1.23.072-2.548.555-3.214 1.14-1.066.937-.434 1.848-.893 3.164s-1.614 3.038-1.96 4.68c-.14.663-.318 1.326-.44 1.992l3.293 4.024c.647.79-1.041.497-2.611-.52 1.114 1.567 3.324 3.12 5.506 2.973 2.324-.156 5.068-2.586 5.946-4.573-.852-.144-1.68-1.426-.998-2.381.237-.331.746-.36 1.183-.29-.263-1.018-.787-1.93-1.05-2.696-.456-1.336-.986-1.71-1.47-2.896-.485-1.186.027-3.38-1.338-4.234-.384-.24-.875-.36-1.409-.387z" fill="url(#f)"/><path d="M7.333 22.365c.487-.39.715-1.183 1.323-1.324.476-.11 1.01.163 1.387.473.861.708.992 2.014 1.67 2.9.452.589 1.218.924 1.576 1.575.373.68.854 1.578.504 2.269-.472.931-1.824 1.22-2.868 1.26-.634.025-1.185-.46-1.796-.63-.89-.248-1.917-.095-2.71-.567-.628-.373-1.372-.941-1.418-1.67-.019-.288.402-.445.472-.725.186-.736-.527-1.59-.189-2.27.36-.722 1.418-.787 2.049-1.291z" fill="url(#g)"/><path d="M21.43 21.269c-.201.18-.371.407-.495.632-.538.977-.175 2.24-.477 3.313-.202.715-.789 1.31-.88 2.046-.095.77-.21 1.782.371 2.295.784.69 2.147.457 3.131.108.599-.212.93-.866 1.435-1.25.734-.56 1.745-.8 2.307-1.531.445-.58.927-1.382.7-2.076-.09-.274-.538-.265-.707-.499-.445-.615-.1-1.67-.665-2.176-.42-.375-1.037-.332-1.633-.348-.288.617-1.226 1.037-1.871.858-.546-.152-1.09-.773-1.216-1.372z" fill="url(#h)"/><path d="M19 9.401l2.333 2.333-4.666 2.38-3.5-3.5" opacity=".2" fill="url(#i)"/><path d="M15.731 8.152c.659-.035 1.265.392 1.86.677.575.277 1.557.36 1.638.993.093.719-.92 1.143-1.512 1.56-.529.373-1.119.81-1.765.804-.653-.007-1.231-.475-1.765-.851-.44-.31-1.133-.596-1.15-1.135-.019-.576.69-.943 1.15-1.292.456-.346.972-.726 1.544-.756z" fill="url(#j)"/></svg>