<svg height="32" width="32" xmlns="http://www.w3.org/2000/svg" xmlns:xlink="http://www.w3.org/1999/xlink"><linearGradient id="b"><stop offset="0" stop-color="#84cbfe"/><stop offset="1" stop-color="#84cbfe" stop-opacity="0"/></linearGradient><linearGradient id="a"><stop offset="0" stop-color="#c6cdd1"/><stop offset="1" stop-color="#e0e5e7"/></linearGradient><linearGradient id="c"><stop offset="0" stop-color="#2f3943"/><stop offset="1" stop-color="#4d5662"/></linearGradient><linearGradient id="e" gradientUnits="userSpaceOnUse" x1="392.571" x2="392.571" y1="526.998" y2="529.798"><stop offset="0" stop-color="#18222a"/><stop offset="1" stop-color="#566069"/></linearGradient><linearGradient id="f" gradientTransform="matrix(.75 0 0 .6 86.142 226.519)" gradientUnits="userSpaceOnUse" x1="387.238" x2="387.238" xlink:href="#a" y1="543.798" y2="503.798"/><linearGradient id="g" gradientTransform="matrix(.68906 0 0 .77577 111.067 134.313)" gradientUnits="userSpaceOnUse" x1="425.95" x2="425.95" xlink:href="#a" y1="508.509" y2="536.868"/><linearGradient id="h" gradientTransform="matrix(.625 0 0 .71429 137.214 166.657)" gradientUnits="userSpaceOnUse" x1="434.171" x2="434.171" y1="509.798" y2="534.998"><stop offset="0" stop-color="#2e5d89"/><stop offset="1" stop-color="#1b92f4"/></linearGradient><linearGradient id="j" gradientTransform="matrix(.625 0 0 .66667 137.214 -190.93)" gradientUnits="userSpaceOnUse" x1="418.171" x2="418.171" xlink:href="#b" y1="-521.798" y2="-518.798"/><linearGradient id="i" gradientTransform="matrix(.625 0 0 .66667 137.214 887.666)" gradientUnits="userSpaceOnUse" x1="418.171" x2="418.171" xlink:href="#b" y1="-521.798" y2="-518.798"/><linearGradient id="k" gradientTransform="matrix(.69397 0 0 .6777 109.528 184.747)" gradientUnits="userSpaceOnUse" x1="390.571" x2="417.95" y1="507.674" y2="535.71"><stop offset="0"/><stop offset="1" stop-opacity="0"/></linearGradient><linearGradient id="l" gradientUnits="userSpaceOnUse" x1="405.571" x2="381.571" xlink:href="#a" y1="554.798" y2="548.798"/><linearGradient id="d" gradientTransform="matrix(1 0 0 -1 376.571 515.798)" gradientUnits="userSpaceOnUse" x1="22" x2="22" xlink:href="#c" y1="-13" y2="-10"/><linearGradient id="m" gradientUnits="userSpaceOnUse" x1="398.571" x2="398.571" xlink:href="#c" y1="552.798" y2="550.798"/><g transform="translate(-376.571 -523.798)"><path d="M380.571 528.798v-2c0-.554.446-1 1-1h22c.554 0 1 .446 1 1v2z" fill="url(#d)"/><path d="M380.571 526.798h24v2h-24z" fill="url(#e)"/><path d="M380.571 528.798h24v24h-24z" fill="url(#f)"/><g stroke-linecap="round" stroke-linejoin="bevel"><path d="M381.571 529.798h22v20h-22z" fill="url(#g)"/><path d="M382.571 530.798h20v18h-20z" fill="url(#h)"/><path d="M382.571 538.798h20v1h-20z" fill="#84cbfe"/><path d="M382.571 539.798h20v2h-20z" fill="url(#i)" opacity=".2"/><path d="M382.571-538.798h20v2h-20z" fill="url(#j)" opacity=".2" transform="scale(1 -1)"/><path d="M383.571 532.798h11v15h-11z" fill="#eff0f1"/></g><path d="M380.571 528.798l22 22h2v-22z" fill="url(#k)" fill-rule="evenodd" opacity=".2"/><path d="M380.571 550.798v2c0 .554.446 1 1 1h22c.554 0 1-.446 1-1v-2z" fill="url(#l)"/><path d="M383.571 550.798v1c0 .554.446 1 1 1h16c.554 0 1-.446 1-1v-1z" fill="url(#m)"/><circle cx="-551.298" cy="-400.071" fill="#11d116" r=".5" transform="matrix(0 -1 -1 0 0 0)"/></g></svg>