<svg xmlns="http://www.w3.org/2000/svg" xmlns:xlink="http://www.w3.org/1999/xlink" width="32" height="32"><defs><linearGradient y2="30" y1="18" x2="30" x1="18" gradientUnits="userSpaceOnUse" id="e" gradientTransform="translate(-13.325 -15.32) scale(1.33333)"><stop stop-color="#292c2f" offset="0"/><stop stop-opacity="0" offset="1"/></linearGradient><linearGradient id="b" gradientTransform="matrix(.58696 0 0 .53846 -227.988 -270.353)" gradientUnits="userSpaceOnUse" x1="388.423" x2="388.423" y1="557.798" y2="505.798"><stop offset="0" stop-color="#7f8c8d"/><stop offset="1" stop-color="#afb0b3"/></linearGradient><linearGradient xlink:href="#a" id="c" x1="11" y1="10" x2="22" y2="21" gradientUnits="userSpaceOnUse"/><linearGradient gradientTransform="translate(-432.447 -514.204)" id="a" gradientUnits="userSpaceOnUse" x1="400.571" x2="420.571" y1="511.798" y2="531.798"><stop offset="0" stop-color="#292c2f"/><stop offset="1" stop-opacity="0"/></linearGradient><linearGradient id="d" gradientTransform="matrix(.52174 0 0 .53846 -.696 -1.23)" gradientUnits="userSpaceOnUse" x1="1.333" x2="1.333" y1="48.714" y2="9.714"><stop offset="0" stop-color="#eef1f2"/><stop offset="1" stop-color="#f9fafb"/></linearGradient></defs><path d="M4 2h24v28H4z" fill="url(#b)"/><path d="M7 27h18v3H7z" fill="#292c2e"/><path d="M9 28h9v1H9zm10 0h4v1h-4z" fill="#f6b44d"/><path d="M24 27h4v3h-4zM4 27h4v3H4z" opacity=".2" fill="#292c2f"/><path d="M4 27h4v3H7zm20 0h4v3h-4z" opacity=".2" fill="#292c2f"/><path d="M24.535 5.465L28 8.928V30H14l-8-8z" opacity=".2" fill="url(#c)"/><path d="M11 4a5 5 0 0 0-5 5v4.768a3 3 0 0 1 .996 2.117A2 2 0 0 1 7 16a2 2 0 0 1-.01.2 3 3 0 0 1 0 .005A3 3 0 0 1 6 18.23V22l3 3h14l3-3v-3.768a3 3 0 0 1-.996-2.117A2 2 0 0 1 25 16a2 2 0 0 1 .01-.205A3 3 0 0 1 26 13.77V9a5 5 0 0 0-5-5z" fill="url(#d)"/><path fill="url(#e)" opacity=".2" d="M11.967 7.138L28 23.252V15l-6.335-6.644-5.657-2.343zM9.212 9.945L26.172 27h-8.077l-7.649-7.33-2.343-5.657z"/><path fill="#4d4d4d" d="M11.941 7.113l.523.523.209.209 2.62 2.62.707-.708-2.342-2.342A7 7 0 0 1 20.95 9.05a7 7 0 0 1 1.203 8.274l.73.73a8 8 0 0 0-1.226-9.71 8 8 0 0 0-9.716-1.231zM9.117 9.945a8 8 0 0 0 1.226 9.712 8 8 0 0 0 9.716 1.23l-.732-.732L16 16.828l-.707.708 3.05 3.049a7 7 0 0 1-7.293-1.635 7 7 0 0 1-1.203-8.274z"/></svg>