<?xml version="1.0" encoding="UTF-8" standalone="no"?>
<!-- Created with Inkscape (http://www.inkscape.org/) -->
<svg
   xmlns:dc="http://purl.org/dc/elements/1.1/"
   xmlns:cc="http://creativecommons.org/ns#"
   xmlns:rdf="http://www.w3.org/1999/02/22-rdf-syntax-ns#"
   xmlns:svg="http://www.w3.org/2000/svg"
   xmlns="http://www.w3.org/2000/svg"
   xmlns:xlink="http://www.w3.org/1999/xlink"
   xmlns:sodipodi="http://sodipodi.sourceforge.net/DTD/sodipodi-0.dtd"
   xmlns:inkscape="http://www.inkscape.org/namespaces/inkscape"
   inkscape:export-ydpi="90.000000"
   inkscape:export-xdpi="90.000000"
   inkscape:export-filename="/home/jimmac/Desktop/wi-fi.png"
   width="32"
   height="32"
   id="svg11300"
   sodipodi:version="0.32"
   inkscape:version="0.45+devel"
   sodipodi:docbase="/home/jimmac/gfx/ximian/tango-scrap"
   sodipodi:docname="pattern-kde.svg"
   inkscape:output_extension="org.inkscape.output.svg.inkscape"
   version="1.0">
  <defs
     id="defs3">
    <linearGradient
       inkscape:collect="always"
       id="linearGradient7553">
      <stop
         style="stop-color:#ffffff;stop-opacity:1;"
         offset="0"
         id="stop7555" />
      <stop
         style="stop-color:#ffffff;stop-opacity:0;"
         offset="1"
         id="stop7557" />
    </linearGradient>
    <linearGradient
       inkscape:collect="always"
       id="linearGradient4046">
      <stop
         style="stop-color:#000000;stop-opacity:1;"
         offset="0"
         id="stop4048" />
      <stop
         style="stop-color:#000000;stop-opacity:0;"
         offset="1"
         id="stop4050" />
    </linearGradient>
    <linearGradient
       id="linearGradient11520">
      <stop
         id="stop11522"
         offset="0.0000000"
         style="stop-color:#ffffff;stop-opacity:1.0000000;" />
      <stop
         id="stop11524"
         offset="1.0000000"
         style="stop-color:#dcdcdc;stop-opacity:1.0000000;" />
    </linearGradient>
    <linearGradient
       id="linearGradient11508"
       inkscape:collect="always">
      <stop
         id="stop11510"
         offset="0"
         style="stop-color:#000000;stop-opacity:1;" />
      <stop
         id="stop11512"
         offset="1"
         style="stop-color:#000000;stop-opacity:0;" />
    </linearGradient>
    <linearGradient
       id="linearGradient11494"
       inkscape:collect="always">
      <stop
         id="stop11496"
         offset="0"
         style="stop-color:#ef2929;stop-opacity:1;" />
      <stop
         id="stop11498"
         offset="1"
         style="stop-color:#ef2929;stop-opacity:0;" />
    </linearGradient>
    <linearGradient
       id="linearGradient11415">
      <stop
         id="stop11417"
         offset="0.0000000"
         style="stop-color:#204a87;stop-opacity:0.0000000;" />
      <stop
         style="stop-color:#204a87;stop-opacity:1.0000000;"
         offset="0.50000000"
         id="stop11423" />
      <stop
         id="stop11419"
         offset="1"
         style="stop-color:#204a87;stop-opacity:0;" />
    </linearGradient>
    <linearGradient
       id="linearGradient11399"
       inkscape:collect="always">
      <stop
         id="stop11401"
         offset="0"
         style="stop-color:#000000;stop-opacity:1;" />
      <stop
         id="stop11403"
         offset="1"
         style="stop-color:#000000;stop-opacity:0;" />
    </linearGradient>
    <linearGradient
       gradientTransform="translate(-60.28571,-0.285714)"
       y2="34.462429"
       x2="43.615788"
       y1="3.774456"
       x1="15.82836"
       gradientUnits="userSpaceOnUse"
       id="linearGradient11425"
       xlink:href="#linearGradient11415"
       inkscape:collect="always" />
    <linearGradient
       gradientTransform="translate(-60.57143,0)"
       y2="39.033859"
       x2="35.679932"
       y1="9.3458843"
       x1="9.6957054"
       gradientUnits="userSpaceOnUse"
       id="linearGradient11427"
       xlink:href="#linearGradient11415"
       inkscape:collect="always" />
    <linearGradient
       y2="33.462429"
       x2="26.758644"
       y1="19.774456"
       x1="13.267134"
       gradientTransform="translate(-60.85714,0.428571)"
       gradientUnits="userSpaceOnUse"
       id="linearGradient11439"
       xlink:href="#linearGradient11415"
       inkscape:collect="always" />
    <radialGradient
       r="8.5"
       fy="39.142857"
       fx="12.071428"
       cy="39.142857"
       cx="12.071428"
       gradientTransform="matrix(1,0,0,0.487395,0,20.06483)"
       gradientUnits="userSpaceOnUse"
       id="radialGradient11441"
       xlink:href="#linearGradient11399"
       inkscape:collect="always" />
    <radialGradient
       gradientTransform="matrix(1.243453,0,0,1.243453,-6.713754,-3.742847)"
       gradientUnits="userSpaceOnUse"
       r="3.8335035"
       fy="15.048258"
       fx="27.577173"
       cy="15.048258"
       cx="27.577173"
       id="radialGradient11500"
       xlink:href="#linearGradient11494"
       inkscape:collect="always" />
    <radialGradient
       r="3.8335035"
       fy="16.049133"
       fx="27.577173"
       cy="16.049133"
       cx="27.577173"
       gradientTransform="matrix(1.243453,0,0,1.243453,-6.713754,-3.742847)"
       gradientUnits="userSpaceOnUse"
       id="radialGradient11504"
       xlink:href="#linearGradient11494"
       inkscape:collect="always" />
    <radialGradient
       gradientUnits="userSpaceOnUse"
       gradientTransform="matrix(1,0,0,0.338462,0,29.48178)"
       r="6.5659914"
       fy="44.565483"
       fx="30.203562"
       cy="44.565483"
       cx="30.203562"
       id="radialGradient11514"
       xlink:href="#linearGradient11508"
       inkscape:collect="always" />
    <radialGradient
       gradientTransform="matrix(1.995058,0,0,1.995058,-24.32488,-35.70087)"
       gradientUnits="userSpaceOnUse"
       r="20.530962"
       fy="35.87817"
       fx="24.44569"
       cy="35.87817"
       cx="24.44569"
       id="radialGradient11526"
       xlink:href="#linearGradient11520"
       inkscape:collect="always" />
    <radialGradient
       r="6.5659914"
       fy="44.565483"
       fx="30.203562"
       cy="44.565483"
       cx="30.203562"
       gradientTransform="matrix(1,0,0,0.338462,0,29.48178)"
       gradientUnits="userSpaceOnUse"
       id="radialGradient11532"
       xlink:href="#linearGradient11508"
       inkscape:collect="always" />
    <radialGradient
       inkscape:collect="always"
       xlink:href="#linearGradient11508"
       id="radialGradient1348"
       gradientUnits="userSpaceOnUse"
       gradientTransform="matrix(1,0,0,0.338462,0,29.48178)"
       cx="30.203562"
       cy="44.565483"
       fx="30.203562"
       fy="44.565483"
       r="6.5659914" />
    <radialGradient
       inkscape:collect="always"
       xlink:href="#linearGradient11520"
       id="radialGradient1350"
       gradientUnits="userSpaceOnUse"
       gradientTransform="matrix(1.995058,0,0,1.995058,-24.32488,-35.70087)"
       cx="24.44569"
       cy="35.87817"
       fx="24.44569"
       fy="35.87817"
       r="20.530962" />
    <radialGradient
       inkscape:collect="always"
       xlink:href="#linearGradient11494"
       id="radialGradient1352"
       gradientUnits="userSpaceOnUse"
       gradientTransform="matrix(1.243453,0,0,1.243453,-6.713754,-3.742847)"
       cx="27.577173"
       cy="16.049133"
       fx="27.577173"
       fy="16.049133"
       r="3.8335035" />
    <radialGradient
       inkscape:collect="always"
       xlink:href="#linearGradient11494"
       id="radialGradient1354"
       gradientUnits="userSpaceOnUse"
       gradientTransform="matrix(1.243453,0,0,1.243453,-6.713754,-3.742847)"
       cx="27.577173"
       cy="15.048258"
       fx="27.577173"
       fy="15.048258"
       r="3.8335035" />
    <radialGradient
       inkscape:collect="always"
       xlink:href="#linearGradient11508"
       id="radialGradient1356"
       gradientUnits="userSpaceOnUse"
       gradientTransform="matrix(1,0,0,0.338462,0,29.48178)"
       cx="30.203562"
       cy="44.565483"
       fx="30.203562"
       fy="44.565483"
       r="6.5659914" />
    <radialGradient
       inkscape:collect="always"
       xlink:href="#linearGradient11520"
       id="radialGradient1366"
       gradientUnits="userSpaceOnUse"
       gradientTransform="matrix(2.049266,0,0,2.049266,-25.65002,-37.31089)"
       cx="24.44569"
       cy="35.87817"
       fx="24.44569"
       fy="35.87817"
       r="20.530962" />
    <radialGradient
       inkscape:collect="always"
       xlink:href="#linearGradient4046"
       id="radialGradient4052"
       cx="25.102291"
       cy="39.603107"
       fx="25.102291"
       fy="39.603107"
       r="16.086679"
       gradientTransform="matrix(1,0,0,0.379121,0,24.58874)"
       gradientUnits="userSpaceOnUse" />
    <radialGradient
       inkscape:collect="always"
       xlink:href="#linearGradient7553"
       id="radialGradient7559"
       cx="19.799839"
       cy="10.321212"
       fx="19.799839"
       fy="10.321212"
       r="18.5"
       gradientTransform="matrix(1.2387808,0,0,1.1454244,-13.895966,-5.901862)"
       gradientUnits="userSpaceOnUse" />
    <filter
       inkscape:collect="always"
       id="filter5400"
       x="-0.097459713"
       width="1.1949194"
       y="-0.7486678"
       height="2.4973356">
      <feGaussianBlur
         inkscape:collect="always"
         stdDeviation="1.715697"
         id="feGaussianBlur5402" />
    </filter>
  </defs>
  <sodipodi:namedview
     stroke="#3465a4"
     fill="#729fcf"
     id="base"
     pagecolor="#ffffff"
     bordercolor="#666666"
     borderopacity="0.25490196"
     inkscape:pageopacity="0.0"
     inkscape:pageshadow="2"
     inkscape:zoom="1"
     inkscape:cx="33.626569"
     inkscape:cy="5.4380685"
     inkscape:current-layer="layer1"
     showgrid="false"
     inkscape:grid-bbox="true"
     inkscape:document-units="px"
     inkscape:showpageshadow="false"
     inkscape:window-width="770"
     inkscape:window-height="656"
     inkscape:window-x="584"
     inkscape:window-y="235"
     gridcolor="#3f3fff"
     gridopacity="0.10196078"
     gridempcolor="#3f3fff"
     gridempopacity="0.23529412"
     width="32px"
     height="32px">
    <inkscape:grid
       type="xygrid"
       id="grid5366" />
  </sodipodi:namedview>
  <metadata
     id="metadata4">
    <rdf:RDF>
      <cc:Work
         rdf:about="">
        <dc:format>image/svg+xml</dc:format>
        <dc:type
           rdf:resource="http://purl.org/dc/dcmitype/StillImage" />
        <dc:creator>
          <cc:Agent>
            <dc:title>Jakub Steiner</dc:title>
          </cc:Agent>
        </dc:creator>
        <dc:source>http://jimmac.musichall.cz</dc:source>
        <cc:license
           rdf:resource="http://creativecommons.org/licenses/by-sa/2.0/" />
        <dc:title>KDE Logo</dc:title>
        <dc:description>KDE Logo in Tango style. Based on the original vesrion by David Vignoni (http://www.icon-king.com)</dc:description>
      </cc:Work>
      <cc:License
         rdf:about="http://creativecommons.org/licenses/by-sa/2.0/">
        <cc:permits
           rdf:resource="http://web.resource.org/cc/Reproduction" />
        <cc:permits
           rdf:resource="http://web.resource.org/cc/Distribution" />
        <cc:requires
           rdf:resource="http://web.resource.org/cc/Notice" />
        <cc:requires
           rdf:resource="http://web.resource.org/cc/Attribution" />
        <cc:permits
           rdf:resource="http://web.resource.org/cc/DerivativeWorks" />
        <cc:requires
           rdf:resource="http://web.resource.org/cc/ShareAlike" />
      </cc:License>
    </rdf:RDF>
  </metadata>
  <g
     id="layer1"
     inkscape:label="Layer 1"
     inkscape:groupmode="layer">
    <rect
       style="opacity:0.60240939000000004;color:#000000;fill:#000000;fill-opacity:1;fill-rule:evenodd;stroke:none;stroke-width:1;stroke-linecap:butt;stroke-linejoin:miter;marker:none;marker-start:none;marker-mid:none;marker-end:none;stroke-miterlimit:4;stroke-dasharray:none;stroke-dashoffset:0;stroke-opacity:1;visibility:visible;display:inline;overflow:visible;filter:url(#filter5400);enable-background:accumulate"
       id="rect4719"
       width="42.25"
       height="5.5"
       x="3.25"
       y="39"
       rx="4.34164"
       ry="4.3451862"
       transform="matrix(0.6334012,0,0,0.6328843,0.9358452,0.5882066)" />
    <rect
       style="opacity:1;color:#000000;fill:#729fcf;fill-opacity:1;fill-rule:nonzero;stroke:#3465a4;stroke-width:0.99999994;stroke-linecap:butt;stroke-linejoin:miter;marker:none;marker-start:none;marker-mid:none;marker-end:none;stroke-miterlimit:4;stroke-dasharray:none;stroke-dashoffset:0;stroke-opacity:1;visibility:visible;display:inline;overflow:visible"
       id="rect2296"
       width="24.069246"
       height="24.049603"
       x="4.4195518"
       y="3.4361858"
       rx="3.358757"
       ry="3.3587573" />
    <rect
       ry="2.5480971"
       rx="2.5480974"
       y="4.4536257"
       x="5.3752713"
       height="22.077227"
       width="22.157808"
       id="rect4927"
       style="opacity:0.36931817;color:#000000;fill:none;fill-opacity:1;fill-rule:nonzero;stroke:#ffffff;stroke-width:0.99999994;stroke-linecap:butt;stroke-linejoin:miter;marker:none;marker-start:none;marker-mid:none;marker-end:none;stroke-miterlimit:4;stroke-dasharray:none;stroke-dashoffset:0;stroke-opacity:1;visibility:visible;display:inline;overflow:visible" />
    <path
       style="opacity:0.15340911;fill:#000000;fill-opacity:1;stroke:#000000;stroke-width:1.99999988;stroke-miterlimit:4;stroke-dasharray:none;stroke-opacity:1"
       d="M 17.667734,6.9225759 L 14.72755,7.2075846 L 14.72755,19.331427 L 17.645792,18.892951 L 17.645792,13.718943 L 21.573352,19.462969 L 24.645185,18.498324 L 20.629859,12.973535 L 24.689069,7.7556789 L 21.529468,7.0321947 L 17.645792,12.250051 L 17.667734,6.9225759 z M 10.931641,9.882285 C 10.923966,9.885892 10.916767,9.899254 10.9097,9.904208 C 10.906352,9.907018 10.912836,9.922991 10.9097,9.926132 L 9.746791,11.066168 C 9.743748,11.069217 9.727582,11.084842 9.724849,11.088091 C 9.717591,11.098378 9.707303,11.120427 9.702908,11.131939 C 9.701766,11.13587 9.703723,11.14986 9.702908,11.153863 C 9.701933,11.16197 9.702553,11.189527 9.702908,11.19771 C 9.703421,11.201788 9.702055,11.21559 9.702908,11.219634 C 9.704101,11.223622 9.70137,11.237648 9.702908,11.241558 C 9.704791,11.245369 9.722616,11.25979 9.724849,11.263482 L 11.085233,13.499706 C 10.844731,13.903671 10.652235,14.333799 10.514749,14.793208 L 8.0133986,15.297454 C 8.0004152,15.300136 7.98094,15.31364 7.9695153,15.319378 C 7.9659106,15.321594 7.9509611,15.3388 7.9475737,15.341302 C 7.9446676,15.344318 7.9282752,15.359979 7.925632,15.363225 C 7.9185379,15.373601 7.9080133,15.395118 7.9036904,15.407073 C 7.9025876,15.411197 7.904441,15.424752 7.9036904,15.428997 C 7.9033078,15.433344 7.9036904,15.446489 7.9036904,15.45092 L 7.9036904,17.095203 C 7.9040521,17.099447 7.9029797,17.112981 7.9036904,17.117127 C 7.9047361,17.121158 7.9023229,17.13515 7.9036904,17.139051 C 7.9053664,17.142803 7.9236615,17.157386 7.925632,17.160974 C 7.9323911,17.171195 7.9385186,17.196536 7.9475737,17.204822 C 7.9573148,17.212363 7.9798999,17.221743 7.991457,17.226746 C 7.9954848,17.228097 8.0092093,17.225725 8.0133986,17.226746 L 10.426983,17.818687 C 10.556003,18.350561 10.755573,18.867839 11.019408,19.331427 L 9.615141,21.458032 C 9.606861,21.473437 9.595692,21.507129 9.593199,21.523803 C 9.592931,21.527994 9.593115,21.541539 9.593199,21.545727 C 9.593634,21.549891 9.592417,21.563535 9.593199,21.567651 C 9.594326,21.571696 9.613672,21.585624 9.615141,21.589575 C 9.61695,21.593409 9.612994,21.607805 9.615141,21.611498 C 9.617622,21.615029 9.634269,21.630078 9.637083,21.633422 L 10.799991,22.795382 C 10.806096,22.801462 10.815063,22.812467 10.821932,22.817306 C 10.832714,22.82362 10.853996,22.835797 10.865816,22.839229 C 10.869828,22.840048 10.883695,22.83874 10.887758,22.839229 C 10.89594,22.839545 10.923474,22.840257 10.931641,22.839229 C 10.935689,22.838376 10.949593,22.840426 10.953583,22.839229 C 10.957492,22.837688 10.971716,22.819195 10.975525,22.817306 L 13.169692,21.50188 C 13.599691,21.749941 14.061592,21.939559 14.552017,22.071898 L 15.078617,24.527359 C 15.081124,24.535715 15.074784,24.563578 15.078617,24.571207 C 15.087497,24.585648 15.109494,24.604473 15.122501,24.615055 C 15.13289,24.622155 15.154417,24.632652 15.166384,24.636978 C 15.174638,24.639186 15.20157,24.636213 15.210267,24.636978 L 16.855892,24.636978 C 16.864335,24.636255 16.891736,24.639069 16.899776,24.636978 C 16.911455,24.632877 16.933433,24.621815 16.943659,24.615055 C 16.946872,24.612531 16.962601,24.595909 16.9656,24.593131 C 16.968121,24.58988 16.985287,24.574673 16.987542,24.571207 C 16.989515,24.567538 16.98587,24.553141 16.987542,24.549283 C 16.988898,24.545248 17.008463,24.531558 17.009484,24.527359 L 17.601909,22.071898 C 18.107706,21.935631 18.587031,21.717471 19.028118,21.458032 L 21.178401,22.883077 C 21.189571,22.890348 21.21011,22.900986 21.222285,22.905001 C 21.230534,22.906963 21.257789,22.904455 21.266168,22.905001 C 21.270357,22.904923 21.283946,22.905427 21.28811,22.905001 C 21.292227,22.904229 21.306004,22.906118 21.310051,22.905001 C 21.314007,22.903542 21.328152,22.884875 21.331993,22.883077 C 21.335697,22.880942 21.350391,22.885548 21.353934,22.883077 C 21.357296,22.880273 21.372721,22.864288 21.375876,22.861153 L 22.538785,21.699193 C 22.547029,21.689439 22.55535,21.666507 22.560727,21.655346 C 22.565134,21.643844 22.581213,21.623641 22.582668,21.611498 C 22.582821,21.607423 22.582851,21.593659 22.582668,21.589575 C 22.582148,21.585505 22.561587,21.571686 22.560727,21.567651 C 22.558323,21.559694 22.564514,21.531408 22.560727,21.523803 L 21.770826,20.230301 L 21.507527,20.296072 C 21.502865,20.297508 21.490294,20.317339 21.485585,20.317996 C 21.483246,20.31795 21.465957,20.318226 21.463643,20.317996 C 21.459169,20.316825 21.445939,20.29793 21.441702,20.296072 C 21.439741,20.294814 21.421625,20.297491 21.41976,20.296072 C 21.417999,20.294497 21.421406,20.275878 21.41976,20.274149 C 21.419761,20.274149 20.905982,19.535554 20.256851,18.586019 C 19.480515,20.103885 17.911446,21.1511 16.087934,21.1511 C 13.496755,21.1511 11.392416,19.048478 11.392416,16.459414 C 11.392415,14.554954 12.524916,12.918184 14.157067,12.18428 L 14.157067,10.978473 C 13.860019,11.082359 13.574098,11.202723 13.301342,11.351177 L 11.085233,9.904208 C 11.077799,9.899349 11.071227,9.885686 11.063291,9.882285 C 11.055172,9.879604 11.027751,9.883535 11.019408,9.882285 C 11.015214,9.882013 11.001658,9.882204 10.997466,9.882285 C 10.993299,9.882714 10.979644,9.881508 10.975525,9.882285 C 10.967427,9.884527 10.939316,9.878677 10.931641,9.882285 z"
       id="path5692_1_" />
    <path
       style="opacity:0.5;color:#000000;fill:url(#radialGradient7559);fill-opacity:1;fill-rule:nonzero;stroke:none;stroke-width:1;stroke-linecap:butt;stroke-linejoin:miter;marker:none;marker-start:none;marker-mid:none;marker-end:none;stroke-miterlimit:4;stroke-dasharray:none;stroke-dashoffset:0;stroke-opacity:1;visibility:visible;display:inline;overflow:visible"
       d="M 8.4385183,3.9401281 C 6.3380044,3.9401281 4.7362525,5.8232293 4.7362525,6.8110528 L 4.7362525,19.762236 C 4.8407544,19.762957 4.948244,19.762236 5.0529532,19.762236 C 13.826532,19.762236 21.882578,17.223715 28.172098,12.998285 L 28.172098,6.8110528 C 28.172098,5.7573745 26.262801,4.0285164 24.271894,3.9401281 L 8.596536,3.9401281 C 8.5439198,3.9401281 8.489727,3.9349628 8.4385183,3.9401281 z"
       id="rect7548"
       sodipodi:nodetypes="cccsccccc" />
    <g
       id="g7569"
       transform="matrix(0.7021335,0,0,0.7015605,-6.3334219,0.9743578)">
      <polygon
         transform="matrix(0.147004,0,0,0.147004,15.76388,4.031372)"
         points="95.6416,148.22559 95.6416,30.53027 124.22754,27.79297 123.9248,79.49414 161.63672,29.01074 192.04785,36.00391 152.81543,86.4873 191.74219,140.01465 161.94043,149.44238 123.92676,93.78662 123.92676,143.96582 95.6416,148.22559 "
         style="fill:#ffffff;fill-opacity:1"
         id="polygon7561" />
      <path
         d="M 39.845825,27.086454 L 39.482771,27.201731 C 39.429655,27.218096 39.372519,27.19843 39.340937,27.152205 C 39.340937,27.152205 38.624871,26.104233 37.700359,24.750771 C 36.594678,26.914328 34.345273,28.396418 31.748171,28.396418 C 28.057734,28.396418 25.065848,25.404676 25.065848,21.714239 C 25.065848,18.999634 26.68525,16.664884 29.009808,15.618781 L 29.009808,13.895083 C 28.586744,14.043162 28.178036,14.221461 27.789568,14.433066 C 27.788851,14.432635 27.788276,14.431989 27.787558,14.431558 L 24.639983,12.367199 C 24.555285,12.311786 24.443453,12.32327 24.371961,12.394906 L 22.722914,14.043881 C 22.653576,14.113433 22.640584,14.221462 22.691475,14.305658 L 24.622254,17.485461 C 24.279725,18.06127 24.00553,18.682086 23.809718,19.336924 L 20.264706,20.074237 C 20.166081,20.094621 20.094948,20.181978 20.094948,20.283042 L 20.094948,22.615064 C 20.094948,22.713689 20.162133,22.799105 20.2576,22.822363 L 23.697672,23.66318 C 23.881426,24.421309 24.165383,25.140532 24.541145,25.801328 L 22.55,28.838145 C 22.494443,28.922844 22.506214,29.034676 22.577848,29.106167 L 24.226536,30.755214 C 24.29609,30.824552 24.404477,30.837759 24.488459,30.786654 L 27.609689,28.891835 C 28.222107,29.245418 28.883549,29.52392 29.582028,29.712555 L 30.310295,33.21321 C 30.33068,33.312121 30.41818,33.383326 30.519172,33.383326 L 32.851268,33.383326 C 32.949174,33.383326 33.035021,33.316141 33.058277,33.220388 L 33.915748,29.711695 C 34.63612,29.517462 35.317157,29.228049 35.945366,28.858246 L 39.020371,30.874943 C 39.105214,30.930215 39.216615,30.918872 39.288537,30.847381 L 40.937441,29.198334 C 41.007211,29.12871 41.019988,29.020897 40.968878,28.936916 L 39.845825,27.086454 z"
         style="fill:#ffffff;fill-opacity:1"
         id="path7563" />
    </g>
  </g>
</svg>
