<svg xmlns="http://www.w3.org/2000/svg" xmlns:xlink="http://www.w3.org/1999/xlink" height="48" width="48"><linearGradient id="a"><stop offset="0" stop-color="#cea476"/><stop offset="1" stop-color="#dab58b"/></linearGradient><linearGradient id="c" gradientUnits="userSpaceOnUse" x2="0" xlink:href="#a" y1="543.8" y2="512.8"/><linearGradient id="h" gradientUnits="userSpaceOnUse" x1="21" x2="21" xlink:href="#a" y1="13" y2="4"/><linearGradient id="j" gradientTransform="matrix(1 0 0 -.55556 -384.57 297.89)" gradientUnits="userSpaceOnUse" x1="408.57" x2="408.57" xlink:href="#b" y1="512.798" y2="505.598"/><linearGradient id="e" gradientTransform="translate(-384.57 -499.8)" gradientUnits="userSpaceOnUse" x2="0" xlink:href="#c" y1="543.8" y2="512.8"/><linearGradient id="i" gradientTransform="translate(-384.57 -499.801)" gradientUnits="userSpaceOnUse" x1="411.57" x2="411.57" xlink:href="#b" y1="512.801" y2="503.801"><stop offset="0" stop-color="#ebc69a"/><stop offset="1" stop-color="#f4e0c8" stop-opacity="0"/></linearGradient><linearGradient id="f" gradientTransform="matrix(1.41667 0 0 1.4091 1.167 1.727)" gradientUnits="userSpaceOnUse" x2="0" xlink:href="#d" y1="30" y2="8"/><linearGradient id="d" gradientUnits="userSpaceOnUse" x2="0" y1="30" y2="8"><stop offset="0" stop-color="#cfd2d5"/><stop offset="1" stop-color="#eff0f1"/></linearGradient><linearGradient id="g" gradientTransform="matrix(.50313 0 0 1 -171.625 -499.8)" gradientUnits="userSpaceOnUse" x1="411.427" x2="411.427" y1="543.8" y2="512.8"><stop offset="0" stop-color="#73ba25"/><stop offset="1" stop-color="#81c13b" stop-opacity=".85"/></linearGradient><linearGradient id="l" gradientUnits="userSpaceOnUse" x1="44" x2="44" xlink:href="#d" y1="44" y2="13"/><linearGradient id="k" gradientUnits="userSpaceOnUse" x1="42" x2="62" y1="24" y2="44"><stop offset="0" stop-color="#292c2f"/><stop offset="1" stop-opacity="0"/></linearGradient><linearGradient id="b" gradientTransform="matrix(.66667 0 0 -.37037 -256.38 197.926)" gradientUnits="userSpaceOnUse" x1="408.57" x2="408.57" y1="512.798" y2="504.698"><stop offset="0" stop-color="#ebc69a"/><stop offset="1" stop-color="#73ba25" stop-opacity="0"/></linearGradient><path d="M4 13h40v31H4z" fill="url(#e)"/><path d="M4 13h17v31H4z" fill="url(#f)"/><path d="M21 13h23v31H21z" fill="url(#g)"/><path d="M4 13l6-9h29l5 9z" fill="url(#h)" fill-rule="evenodd"/><path d="M21 4v14l1-1 1 1 1-1 1 1 1-1 1 1V4z" fill="#f4e0c8"/><path d="M21 4h6v9h-6z" fill="url(#i)"/><path d="M21 18h6v-5h-6z" fill="url(#j)"/><path d="M4 43h40v1H4z" fill="#9f8569"/><path d="M36 24l8 8v12H30l-4-4 1-2 1 1h6l-1-1 2-3-5-5v-6z" fill="url(#k)" opacity=".2"/><path d="M30 24v6h1v-5h4v5h1v-6h-5zm-2.207 7l-.793.816L33 38l6-6.184-.793-.816L33 36.367zM26 38v2h14v-2h-1v1H27v-1z" fill="url(#l)"/><path d="M5 35v8h8v-8H5zm2 1l2 2 2-2 1 1v1l-2 2v2H8v-2l-2-2v-1l1-1z" fill="#5c4c3e"/></svg>