<?xml version="1.0" encoding="UTF-8" standalone="no"?>
<!-- Created with Inkscape (http://www.inkscape.org/) -->
<svg
   xmlns:dc="http://purl.org/dc/elements/1.1/"
   xmlns:cc="http://web.resource.org/cc/"
   xmlns:rdf="http://www.w3.org/1999/02/22-rdf-syntax-ns#"
   xmlns:svg="http://www.w3.org/2000/svg"
   xmlns="http://www.w3.org/2000/svg"
   xmlns:xlink="http://www.w3.org/1999/xlink"
   xmlns:sodipodi="http://sodipodi.sourceforge.net/DTD/sodipodi-0.dtd"
   xmlns:inkscape="http://www.inkscape.org/namespaces/inkscape"
   inkscape:export-ydpi="90.000000"
   inkscape:export-xdpi="90.000000"
   inkscape:export-filename="/home/jimmac/Desktop/wi-fi.png"
   width="32"
   height="32"
   id="svg11300"
   sodipodi:version="0.32"
   inkscape:version="0.45"
   sodipodi:docbase="/home/jimmac/src/cvs/gnome/nld-ui/trunk/tango-yast2-theme/icons/32x32/apps"
   sodipodi:docname="kde.svg"
   inkscape:output_extension="org.inkscape.output.svg.inkscape"
   version="1.0">
  <defs
     id="defs3">
    <linearGradient
       inkscape:collect="always"
       id="linearGradient7553">
      <stop
         style="stop-color:#ffffff;stop-opacity:1;"
         offset="0"
         id="stop7555" />
      <stop
         style="stop-color:#ffffff;stop-opacity:0;"
         offset="1"
         id="stop7557" />
    </linearGradient>
    <linearGradient
       id="linearGradient11520">
      <stop
         id="stop11522"
         offset="0.0000000"
         style="stop-color:#ffffff;stop-opacity:1.0000000;" />
      <stop
         id="stop11524"
         offset="1.0000000"
         style="stop-color:#dcdcdc;stop-opacity:1.0000000;" />
    </linearGradient>
    <linearGradient
       id="linearGradient11508"
       inkscape:collect="always">
      <stop
         id="stop11510"
         offset="0"
         style="stop-color:#000000;stop-opacity:1;" />
      <stop
         id="stop11512"
         offset="1"
         style="stop-color:#000000;stop-opacity:0;" />
    </linearGradient>
    <linearGradient
       id="linearGradient11494"
       inkscape:collect="always">
      <stop
         id="stop11496"
         offset="0"
         style="stop-color:#ef2929;stop-opacity:1;" />
      <stop
         id="stop11498"
         offset="1"
         style="stop-color:#ef2929;stop-opacity:0;" />
    </linearGradient>
    <linearGradient
       id="linearGradient11415">
      <stop
         id="stop11417"
         offset="0.0000000"
         style="stop-color:#204a87;stop-opacity:0.0000000;" />
      <stop
         style="stop-color:#204a87;stop-opacity:1.0000000;"
         offset="0.50000000"
         id="stop11423" />
      <stop
         id="stop11419"
         offset="1"
         style="stop-color:#204a87;stop-opacity:0;" />
    </linearGradient>
    <linearGradient
       id="linearGradient11399"
       inkscape:collect="always">
      <stop
         id="stop11401"
         offset="0"
         style="stop-color:#000000;stop-opacity:1;" />
      <stop
         id="stop11403"
         offset="1"
         style="stop-color:#000000;stop-opacity:0;" />
    </linearGradient>
    <linearGradient
       gradientTransform="translate(-60.28571,-0.285714)"
       y2="34.462429"
       x2="43.615788"
       y1="3.774456"
       x1="15.82836"
       gradientUnits="userSpaceOnUse"
       id="linearGradient11425"
       xlink:href="#linearGradient11415"
       inkscape:collect="always" />
    <linearGradient
       gradientTransform="translate(-60.57143,0)"
       y2="39.033859"
       x2="35.679932"
       y1="9.3458843"
       x1="9.6957054"
       gradientUnits="userSpaceOnUse"
       id="linearGradient11427"
       xlink:href="#linearGradient11415"
       inkscape:collect="always" />
    <linearGradient
       y2="33.462429"
       x2="26.758644"
       y1="19.774456"
       x1="13.267134"
       gradientTransform="translate(-60.85714,0.428571)"
       gradientUnits="userSpaceOnUse"
       id="linearGradient11439"
       xlink:href="#linearGradient11415"
       inkscape:collect="always" />
    <radialGradient
       r="8.5"
       fy="39.142857"
       fx="12.071428"
       cy="39.142857"
       cx="12.071428"
       gradientTransform="matrix(1,0,0,0.487395,0,20.06483)"
       gradientUnits="userSpaceOnUse"
       id="radialGradient11441"
       xlink:href="#linearGradient11399"
       inkscape:collect="always" />
    <radialGradient
       gradientTransform="matrix(1.243453,0,0,1.243453,-6.713754,-3.742847)"
       gradientUnits="userSpaceOnUse"
       r="3.8335035"
       fy="15.048258"
       fx="27.577173"
       cy="15.048258"
       cx="27.577173"
       id="radialGradient11500"
       xlink:href="#linearGradient11494"
       inkscape:collect="always" />
    <radialGradient
       r="3.8335035"
       fy="16.049133"
       fx="27.577173"
       cy="16.049133"
       cx="27.577173"
       gradientTransform="matrix(1.243453,0,0,1.243453,-6.713754,-3.742847)"
       gradientUnits="userSpaceOnUse"
       id="radialGradient11504"
       xlink:href="#linearGradient11494"
       inkscape:collect="always" />
    <radialGradient
       gradientUnits="userSpaceOnUse"
       gradientTransform="matrix(1,0,0,0.338462,0,29.48178)"
       r="6.5659914"
       fy="44.565483"
       fx="30.203562"
       cy="44.565483"
       cx="30.203562"
       id="radialGradient11514"
       xlink:href="#linearGradient11508"
       inkscape:collect="always" />
    <radialGradient
       gradientTransform="matrix(1.995058,0,0,1.995058,-24.32488,-35.70087)"
       gradientUnits="userSpaceOnUse"
       r="20.530962"
       fy="35.87817"
       fx="24.44569"
       cy="35.87817"
       cx="24.44569"
       id="radialGradient11526"
       xlink:href="#linearGradient11520"
       inkscape:collect="always" />
    <radialGradient
       r="6.5659914"
       fy="44.565483"
       fx="30.203562"
       cy="44.565483"
       cx="30.203562"
       gradientTransform="matrix(1,0,0,0.338462,0,29.48178)"
       gradientUnits="userSpaceOnUse"
       id="radialGradient11532"
       xlink:href="#linearGradient11508"
       inkscape:collect="always" />
    <radialGradient
       inkscape:collect="always"
       xlink:href="#linearGradient11508"
       id="radialGradient1348"
       gradientUnits="userSpaceOnUse"
       gradientTransform="matrix(1,0,0,0.338462,0,29.48178)"
       cx="30.203562"
       cy="44.565483"
       fx="30.203562"
       fy="44.565483"
       r="6.5659914" />
    <radialGradient
       inkscape:collect="always"
       xlink:href="#linearGradient11520"
       id="radialGradient1350"
       gradientUnits="userSpaceOnUse"
       gradientTransform="matrix(1.995058,0,0,1.995058,-24.32488,-35.70087)"
       cx="24.44569"
       cy="35.87817"
       fx="24.44569"
       fy="35.87817"
       r="20.530962" />
    <radialGradient
       inkscape:collect="always"
       xlink:href="#linearGradient11494"
       id="radialGradient1352"
       gradientUnits="userSpaceOnUse"
       gradientTransform="matrix(1.243453,0,0,1.243453,-6.713754,-3.742847)"
       cx="27.577173"
       cy="16.049133"
       fx="27.577173"
       fy="16.049133"
       r="3.8335035" />
    <radialGradient
       inkscape:collect="always"
       xlink:href="#linearGradient11494"
       id="radialGradient1354"
       gradientUnits="userSpaceOnUse"
       gradientTransform="matrix(1.243453,0,0,1.243453,-6.713754,-3.742847)"
       cx="27.577173"
       cy="15.048258"
       fx="27.577173"
       fy="15.048258"
       r="3.8335035" />
    <radialGradient
       inkscape:collect="always"
       xlink:href="#linearGradient11508"
       id="radialGradient1356"
       gradientUnits="userSpaceOnUse"
       gradientTransform="matrix(1,0,0,0.338462,0,29.48178)"
       cx="30.203562"
       cy="44.565483"
       fx="30.203562"
       fy="44.565483"
       r="6.5659914" />
    <radialGradient
       inkscape:collect="always"
       xlink:href="#linearGradient11520"
       id="radialGradient1366"
       gradientUnits="userSpaceOnUse"
       gradientTransform="matrix(2.049266,0,0,2.049266,-25.65002,-37.31089)"
       cx="24.44569"
       cy="35.87817"
       fx="24.44569"
       fy="35.87817"
       r="20.530962" />
    <radialGradient
       inkscape:collect="always"
       xlink:href="#linearGradient7553"
       id="radialGradient7559"
       cx="19.799839"
       cy="10.321212"
       fx="19.799839"
       fy="10.321212"
       r="18.5"
       gradientTransform="matrix(1.4271762,0,0,1.3453458,-18.465832,-9.5564258)"
       gradientUnits="userSpaceOnUse" />
    <filter
       inkscape:collect="always"
       x="-0.077622143"
       width="1.1552443"
       y="-0.52640254"
       height="2.0528051"
       id="filter5627">
      <feGaussianBlur
         inkscape:collect="always"
         stdDeviation="1.129895"
         id="feGaussianBlur5629" />
    </filter>
  </defs>
  <sodipodi:namedview
     stroke="#3465a4"
     fill="#729fcf"
     id="base"
     pagecolor="#ffffff"
     bordercolor="#666666"
     borderopacity="0.25490196"
     inkscape:pageopacity="0.0"
     inkscape:pageshadow="2"
     inkscape:zoom="1"
     inkscape:cx="15.647824"
     inkscape:cy="10.509909"
     inkscape:current-layer="layer1"
     showgrid="false"
     inkscape:grid-bbox="true"
     inkscape:document-units="px"
     inkscape:showpageshadow="false"
     inkscape:window-width="907"
     inkscape:window-height="771"
     inkscape:window-x="581"
     inkscape:window-y="312"
     gridcolor="#3f3fff"
     gridopacity="0.10196078"
     gridempcolor="#3f3fff"
     gridempopacity="0.23529412"
     width="32px"
     height="32px" />
  <metadata
     id="metadata4">
    <rdf:RDF>
      <cc:Work
         rdf:about="">
        <dc:format>image/svg+xml</dc:format>
        <dc:type
           rdf:resource="http://purl.org/dc/dcmitype/StillImage" />
        <dc:creator>
          <cc:Agent>
            <dc:title>Jakub Steiner</dc:title>
          </cc:Agent>
        </dc:creator>
        <dc:source>http://jimmac.musichall.cz</dc:source>
        <cc:license
           rdf:resource="http://creativecommons.org/licenses/by-sa/2.0/" />
        <dc:title>KDE Logo</dc:title>
        <dc:description>KDE Logo in Tango style. Based on the original vesrion by David Vignoni (http://www.icon-king.com)</dc:description>
      </cc:Work>
      <cc:License
         rdf:about="http://creativecommons.org/licenses/by-sa/2.0/">
        <cc:permits
           rdf:resource="http://web.resource.org/cc/Reproduction" />
        <cc:permits
           rdf:resource="http://web.resource.org/cc/Distribution" />
        <cc:requires
           rdf:resource="http://web.resource.org/cc/Notice" />
        <cc:requires
           rdf:resource="http://web.resource.org/cc/Attribution" />
        <cc:permits
           rdf:resource="http://web.resource.org/cc/DerivativeWorks" />
        <cc:requires
           rdf:resource="http://web.resource.org/cc/ShareAlike" />
      </cc:License>
    </rdf:RDF>
  </metadata>
  <g
     id="layer1"
     inkscape:label="Layer 1"
     inkscape:groupmode="layer">
    <rect
       style="opacity:0.52352941;color:#000000;fill:#000000;fill-opacity:1;fill-rule:evenodd;stroke:none;stroke-width:1;stroke-linecap:butt;stroke-linejoin:miter;marker:none;marker-start:none;marker-mid:none;marker-end:none;stroke-miterlimit:4;stroke-dasharray:none;stroke-dashoffset:0;stroke-opacity:1;visibility:visible;display:inline;overflow:visible;filter:url(#filter5627);enable-background:accumulate"
       id="rect4624"
       width="29.112698"
       height="4.2928934"
       x="2"
       y="26.646446"
       rx="2.1464467"
       ry="2.1464467" />
    <rect
       style="opacity:1;color:#000000;fill:#729fcf;fill-opacity:1;fill-rule:nonzero;stroke:#3465a4;stroke-width:0.99999994;stroke-linecap:butt;stroke-linejoin:miter;marker:none;marker-start:none;marker-mid:none;marker-end:none;stroke-miterlimit:4;stroke-dasharray:none;stroke-dashoffset:0;stroke-opacity:1;visibility:visible;display:inline;overflow:visible"
       id="rect2296"
       width="28.000002"
       height="28"
       x="2.5000002"
       y="1.5"
       rx="3.3587573"
       ry="3.3587575" />
    <rect
       ry="2.5480971"
       rx="2.5480974"
       y="2.5"
       x="3.5"
       height="26"
       width="26.055275"
       id="rect4927"
       style="opacity:0.36931817;color:#000000;fill:none;fill-opacity:1;fill-rule:nonzero;stroke:#ffffff;stroke-width:0.99999994;stroke-linecap:butt;stroke-linejoin:miter;marker:none;marker-start:none;marker-mid:none;marker-end:none;stroke-miterlimit:4;stroke-dasharray:none;stroke-dashoffset:0;stroke-opacity:1;visibility:visible;display:inline;overflow:visible" />
    <path
       style="opacity:0.15340911;fill:#000000;fill-opacity:1;stroke:#000000;stroke-width:1.99999988;stroke-miterlimit:4;stroke-dasharray:none;stroke-opacity:1"
       d="M 17.693988,5.8537128 L 14.276241,6.1856035 L 14.276241,20.303736 L 17.668482,19.793134 L 17.668482,13.768037 L 22.233981,20.456917 L 25.804761,19.333593 L 21.13724,12.900014 L 25.855772,6.8238555 L 22.18297,5.981363 L 17.668482,12.057522 L 17.693988,5.8537128 z M 9.863777,9.3002736 C 9.8548547,9.3044745 9.8464862,9.3200338 9.8382715,9.3258037 C 9.8343802,9.3290759 9.8419175,9.3476761 9.8382715,9.3513338 L 8.4864757,10.678897 C 8.4829386,10.682449 8.4641465,10.700644 8.4609702,10.704427 C 8.4525324,10.716406 8.4405737,10.742082 8.4354646,10.755487 C 8.4341371,10.760065 8.436413,10.776356 8.4354646,10.781017 C 8.4343315,10.790458 8.4350523,10.822549 8.4354646,10.832078 C 8.436061,10.836827 8.4344736,10.852899 8.4354646,10.857608 C 8.4368518,10.862251 8.4336769,10.878585 8.4354646,10.883138 C 8.4376543,10.887577 8.4583741,10.90437 8.4609702,10.908668 L 10.042316,13.512736 C 9.7627503,13.983151 9.5389882,14.484032 9.3791708,15.019011 L 6.471535,15.606202 C 6.4564426,15.609325 6.4338042,15.62505 6.4205238,15.631732 C 6.4163337,15.634313 6.3989559,15.654349 6.3950183,15.657262 C 6.3916402,15.660775 6.3725853,15.679011 6.3695127,15.682792 C 6.3612664,15.694874 6.3490323,15.719931 6.3440072,15.733852 C 6.3427253,15.738654 6.3448797,15.75444 6.3440072,15.759382 C 6.3435625,15.764445 6.3440072,15.779752 6.3440072,15.784912 L 6.3440072,17.699669 C 6.3444276,17.70461 6.3431811,17.720371 6.3440072,17.725199 C 6.3452228,17.729893 6.3424176,17.746187 6.3440072,17.750729 C 6.3459554,17.755098 6.3672222,17.77208 6.3695127,17.776259 C 6.3773696,17.78816 6.3844924,17.817669 6.3950183,17.827319 C 6.4063416,17.8361 6.4325952,17.847023 6.4460294,17.852849 C 6.4507114,17.854423 6.4666652,17.851661 6.471535,17.852849 L 9.2771486,18.542161 C 9.4271249,19.161525 9.6591104,19.763891 9.9657992,20.303736 L 8.3334424,22.780154 C 8.3238178,22.798092 8.3108349,22.837327 8.3079369,22.856744 C 8.3076247,22.861623 8.307839,22.877396 8.3079369,22.882274 C 8.308442,22.887122 8.3070276,22.903011 8.3079369,22.907804 C 8.3092467,22.912515 8.3317343,22.928733 8.3334424,22.933334 C 8.3355453,22.937799 8.3309464,22.954563 8.3334424,22.958864 C 8.3363265,22.962976 8.3556767,22.9805 8.358948,22.984394 L 9.710743,24.337488 C 9.7178393,24.344569 9.7282635,24.357384 9.7362485,24.363018 C 9.7487815,24.370371 9.7735199,24.384552 9.7872604,24.388548 C 9.791924,24.389501 9.8080434,24.387978 9.8127659,24.388548 C 9.8222772,24.388916 9.8542827,24.389745 9.863777,24.388548 C 9.8684819,24.387555 9.8846447,24.389941 9.8892826,24.388548 C 9.8938269,24.386754 9.9103608,24.365219 9.9147881,24.363018 L 12.465345,22.831214 C 12.965188,23.120079 13.502113,23.340888 14.072197,23.494996 L 14.684331,26.354364 C 14.687245,26.364094 14.679875,26.396541 14.684331,26.405424 C 14.694653,26.422241 14.720222,26.444163 14.735342,26.456485 C 14.747419,26.464753 14.772442,26.476977 14.786353,26.482015 C 14.795947,26.484586 14.827254,26.481123 14.837364,26.482015 L 16.750282,26.482015 C 16.760096,26.481173 16.791947,26.484449 16.801293,26.482015 C 16.81487,26.477239 16.840417,26.464357 16.852304,26.456485 C 16.856039,26.453547 16.874323,26.43419 16.87781,26.430955 C 16.88074,26.42717 16.900694,26.409461 16.903315,26.405424 C 16.905608,26.401152 16.901371,26.384387 16.903315,26.379894 C 16.904891,26.375195 16.927634,26.359254 16.928821,26.354364 L 17.617471,23.494996 C 18.205424,23.336315 18.762603,23.082268 19.275334,22.780154 L 21.77488,24.439608 C 21.787864,24.448076 21.811739,24.460464 21.825891,24.465139 C 21.83548,24.467423 21.867162,24.464503 21.876902,24.465139 C 21.881771,24.465048 21.897567,24.465635 21.902408,24.465139 C 21.907194,24.464239 21.923208,24.466439 21.927913,24.465139 C 21.932512,24.463441 21.948954,24.441702 21.953419,24.439608 C 21.957725,24.437122 21.974806,24.442486 21.978924,24.439608 C 21.982832,24.436343 22.000762,24.417729 22.00443,24.414078 L 23.356226,23.060984 C 23.365808,23.049626 23.375481,23.022921 23.381731,23.009924 C 23.386854,22.996531 23.405545,22.973004 23.407237,22.958864 C 23.407414,22.954118 23.407449,22.93809 23.407237,22.933334 C 23.406632,22.928595 23.382731,22.912502 23.381731,22.907804 C 23.378937,22.898538 23.386133,22.865599 23.381731,22.856744 L 22.463531,21.350469 L 22.157464,21.427059 C 22.152045,21.428731 22.137432,21.451824 22.131958,21.452589 C 22.12924,21.452536 22.109143,21.452857 22.106453,21.452589 C 22.101252,21.451226 22.085872,21.429222 22.080947,21.427059 C 22.078669,21.425594 22.05761,21.428712 22.055442,21.427059 C 22.053394,21.425225 22.057355,21.403543 22.055442,21.401529 C 22.055442,21.401529 21.458212,20.541441 20.703646,19.435714 C 19.801213,21.203258 17.977285,22.422733 15.857587,22.422733 C 12.845533,22.422733 10.399394,19.974244 10.399394,16.959296 C 10.399393,14.741566 11.715842,12.835558 13.613096,11.980931 L 13.613096,10.576777 C 13.2678,10.697752 12.935438,10.837915 12.618379,11.010789 L 10.042316,9.3258037 C 10.033675,9.3201444 10.026035,9.304235 10.01681,9.3002736 C 10.007373,9.2971525 9.9754975,9.3017299 9.9657992,9.3002736 C 9.9609243,9.2999575 9.9451664,9.30018 9.9402937,9.3002736 C 9.9354497,9.3007733 9.9195762,9.2993686 9.9147881,9.3002736 C 9.9053755,9.3028848 9.8726985,9.2960728 9.863777,9.3002736 z "
       id="path5692_1_" />
    <path
       style="opacity:0.5;color:#000000;fill:url(#radialGradient7559);fill-opacity:1;fill-rule:nonzero;stroke:none;stroke-width:1;stroke-linecap:butt;stroke-linejoin:miter;marker:none;marker-start:none;marker-mid:none;marker-end:none;stroke-miterlimit:4;stroke-dasharray:none;stroke-dashoffset:0;stroke-opacity:1;visibility:visible;display:inline;overflow:visible"
       d="M 4.9611486,2.0033775 C 3.8526356,2.1173691 3,3.0731823 3,4.2334198 L 3,20.587064 C 3.1203947,20.587911 3.2442313,20.587064 3.3648649,20.587064 C 13.472741,20.587064 22.753961,17.605471 30,12.642538 L 30,4.2334198 C 30,2.9958333 29.025725,2.0033775 27.810812,2.0033775 L 5.1891891,2.0033775 C 5.113257,2.0033775 5.0350495,1.9957781 4.9611486,2.0033775 z "
       id="rect7548" />
    <g
       id="g7569"
       transform="matrix(0.8161784,0,0,0.8169624,-10.205586,-1.0729471)">
      <polygon
         transform="matrix(0.147004,0,0,0.147004,15.76388,4.031372)"
         points="95.6416,148.22559 95.6416,30.53027 124.22754,27.79297 123.9248,79.49414 161.63672,29.01074 192.04785,36.00391 152.81543,86.4873 191.74219,140.01465 161.94043,149.44238 123.92676,93.78662 123.92676,143.96582 95.6416,148.22559 "
         style="fill:#ffffff;fill-opacity:1"
         id="polygon7561" />
      <path
         d="M 39.845825,27.086454 L 39.482771,27.201731 C 39.429655,27.218096 39.372519,27.19843 39.340937,27.152205 C 39.340937,27.152205 38.624871,26.104233 37.700359,24.750771 C 36.594678,26.914328 34.345273,28.396418 31.748171,28.396418 C 28.057734,28.396418 25.065848,25.404676 25.065848,21.714239 C 25.065848,18.999634 26.68525,16.664884 29.009808,15.618781 L 29.009808,13.895083 C 28.586744,14.043162 28.178036,14.221461 27.789568,14.433066 C 27.788851,14.432635 27.788276,14.431989 27.787558,14.431558 L 24.639983,12.367199 C 24.555285,12.311786 24.443453,12.32327 24.371961,12.394906 L 22.722914,14.043881 C 22.653576,14.113433 22.640584,14.221462 22.691475,14.305658 L 24.622254,17.485461 C 24.279725,18.06127 24.00553,18.682086 23.809718,19.336924 L 20.264706,20.074237 C 20.166081,20.094621 20.094948,20.181978 20.094948,20.283042 L 20.094948,22.615064 C 20.094948,22.713689 20.162133,22.799105 20.2576,22.822363 L 23.697672,23.66318 C 23.881426,24.421309 24.165383,25.140532 24.541145,25.801328 L 22.55,28.838145 C 22.494443,28.922844 22.506214,29.034676 22.577848,29.106167 L 24.226536,30.755214 C 24.29609,30.824552 24.404477,30.837759 24.488459,30.786654 L 27.609689,28.891835 C 28.222107,29.245418 28.883549,29.52392 29.582028,29.712555 L 30.310295,33.21321 C 30.33068,33.312121 30.41818,33.383326 30.519172,33.383326 L 32.851268,33.383326 C 32.949174,33.383326 33.035021,33.316141 33.058277,33.220388 L 33.915748,29.711695 C 34.63612,29.517462 35.317157,29.228049 35.945366,28.858246 L 39.020371,30.874943 C 39.105214,30.930215 39.216615,30.918872 39.288537,30.847381 L 40.937441,29.198334 C 41.007211,29.12871 41.019988,29.020897 40.968878,28.936916 L 39.845825,27.086454 z "
         style="fill:#ffffff;fill-opacity:1"
         id="path7563" />
    </g>
  </g>
</svg>
