<?xml version="1.0" encoding="UTF-8" standalone="no"?>
<!-- Created with Inkscape (http://www.inkscape.org/) -->
<svg
   xmlns:dc="http://purl.org/dc/elements/1.1/"
   xmlns:cc="http://creativecommons.org/ns#"
   xmlns:rdf="http://www.w3.org/1999/02/22-rdf-syntax-ns#"
   xmlns:svg="http://www.w3.org/2000/svg"
   xmlns="http://www.w3.org/2000/svg"
   xmlns:sodipodi="http://sodipodi.sourceforge.net/DTD/sodipodi-0.dtd"
   xmlns:inkscape="http://www.inkscape.org/namespaces/inkscape"
   width="32"
   height="32"
   id="svg6237"
   sodipodi:version="0.32"
   inkscape:version="0.45+devel"
   version="1.0"
   sodipodi:docbase="/home/jimmac/gfx/novell/pdes/trunk/logos/gnome/2.0"
   sodipodi:docname="pattern-gnome.svg"
   inkscape:output_extension="org.inkscape.output.svg.inkscape">
  <defs
     id="defs6239" />
  <sodipodi:namedview
     id="base"
     pagecolor="#ffffff"
     bordercolor="#e0e0e0"
     borderopacity="1"
     gridtolerance="10000"
     guidetolerance="10"
     objecttolerance="10"
     inkscape:pageopacity="0.0"
     inkscape:pageshadow="2"
     inkscape:zoom="1"
     inkscape:cx="30.707252"
     inkscape:cy="11.119147"
     inkscape:document-units="px"
     inkscape:current-layer="layer1"
     width="32px"
     height="32px"
     borderlayer="true"
     inkscape:showpageshadow="false"
     inkscape:window-width="872"
     inkscape:window-height="656"
     inkscape:window-x="734"
     inkscape:window-y="277">
    <inkscape:grid
       type="xygrid"
       id="grid4678" />
  </sodipodi:namedview>
  <metadata
     id="metadata6242">
    <rdf:RDF>
      <cc:Work
         rdf:about="">
        <dc:format>image/svg+xml</dc:format>
        <dc:type
           rdf:resource="http://purl.org/dc/dcmitype/StillImage" />
      </cc:Work>
    </rdf:RDF>
  </metadata>
  <g
     inkscape:label="Layer 1"
     inkscape:groupmode="layer"
     id="layer1">
    <g
       id="g6230"
       transform="matrix(0.2604038,0,0,0.2604038,43.029362,32.069443)"
       inkscape:transform-center-x="-2.4677223"
       inkscape:transform-center-y="1.252844">
      <path
         d="M -63.883826,-115.2699 C -86.179388,-115.2699 -90.361732,-83.513994 -77.819232,-83.513994 C -65.278545,-83.513994 -41.58736,-115.2699 -63.883826,-115.2699 z"
         id="path9"
         style="fill:#000000;fill-opacity:1;fill-rule:nonzero;stroke:none;stroke-width:2.46375012;stroke-miterlimit:4;stroke-dasharray:none;stroke-opacity:1" />
      <path
         d="M -100.90505,-87.448931 C -94.226889,-87.041119 -86.899857,-112.93449 -99.45142,-111.30596 C -111.99845,-109.67743 -107.58592,-87.856744 -100.90505,-87.448931 z"
         id="path11"
         style="fill:#000000;fill-opacity:1;fill-rule:nonzero;stroke:none;stroke-width:2.46375012;stroke-miterlimit:4;stroke-dasharray:none;stroke-opacity:1" />
      <path
         d="M -131.51092,-71.359369 C -126.76126,-73.450087 -130.8992,-93.899619 -138.9757,-88.322556 C -147.04858,-82.744587 -136.26058,-69.269556 -131.51092,-71.359369 z"
         id="path13"
         style="fill:#000000;fill-opacity:1;fill-rule:nonzero;stroke:none;stroke-width:2.46375012;stroke-miterlimit:4;stroke-dasharray:none;stroke-opacity:1" />
      <path
         d="M -118.12833,-82.063087 C -112.47423,-83.215838 -112.16429,-106.40859 -122.24723,-102.24799 C -132.33198,-98.086494 -123.77789,-80.908525 -118.12833,-82.063087 L -118.12833,-82.063087 z"
         id="path15"
         style="fill:#000000;fill-opacity:1;fill-rule:nonzero;stroke:none;stroke-width:2.46375012;stroke-miterlimit:4;stroke-dasharray:none;stroke-opacity:1" />
      <path
         id="newshape"
         d="M -88.603607,-30.161244 C -87.600388,-22.499806 -94.22417,-18.716213 -100.71111,-23.655275 C -121.36183,-39.377806 -66.519201,-47.220494 -70.134232,-68.701337 C -73.134826,-86.5309 -127.84061,-81.041744 -134.07017,-53.14465 C -138.28695,-34.274713 -116.71276,-8.09677 -94.201513,-8.09677 C -83.127138,-8.09677 -70.353545,-18.096338 -67.963763,-30.7639 C -66.138576,-40.423619 -89.440982,-36.553025 -88.603607,-30.161244 L -88.603607,-30.161244 z"
         style="fill:#000000;fill-opacity:1;fill-rule:nonzero;stroke:none;stroke-width:2.46375012;stroke-miterlimit:4;stroke-dasharray:none;stroke-opacity:1" />
    </g>
  </g>
</svg>
