<?xml version="1.0" encoding="UTF-8" standalone="no"?>
<!-- Created with Inkscape (http://www.inkscape.org/) -->
<svg
   xmlns:dc="http://purl.org/dc/elements/1.1/"
   xmlns:cc="http://web.resource.org/cc/"
   xmlns:rdf="http://www.w3.org/1999/02/22-rdf-syntax-ns#"
   xmlns:svg="http://www.w3.org/2000/svg"
   xmlns="http://www.w3.org/2000/svg"
   xmlns:xlink="http://www.w3.org/1999/xlink"
   xmlns:sodipodi="http://sodipodi.sourceforge.net/DTD/sodipodi-0.dtd"
   xmlns:inkscape="http://www.inkscape.org/namespaces/inkscape"
   width="32"
   height="32"
   id="svg7854"
   sodipodi:version="0.32"
   inkscape:version="0.45+devel"
   version="1.0"
   sodipodi:docbase="/home/jimmac/gfx/ximian/art/icons/virtualisation/out/32x32"
   sodipodi:docname="yast-vm-doman0-setup.svg"
   inkscape:output_extension="org.inkscape.output.svg.inkscape">
  <defs
     id="defs7856">
    <filter
       inkscape:collect="always"
       x="-0.10248447"
       width="1.2049689"
       y="-0.63461536"
       height="2.2692306"
       id="filter8900">
      <feGaussianBlur
         inkscape:collect="always"
         stdDeviation="1.4584078"
         id="feGaussianBlur8902" />
    </filter>
    <linearGradient
       id="linearGradient6732">
      <stop
         id="stop6734"
         offset="0"
         style="stop-color:#ffffff;stop-opacity:1;" />
      <stop
         id="stop6736"
         offset="1"
         style="stop-color:#dddddd;stop-opacity:1;" />
    </linearGradient>
    <linearGradient
       inkscape:collect="always"
       xlink:href="#linearGradient6732"
       id="linearGradient7835"
       gradientUnits="userSpaceOnUse"
       gradientTransform="matrix(0.656637,0,0,0.59948,-80.797025,23.547075)"
       x1="16.25"
       y1="12.25"
       x2="31.5"
       y2="36.625" />
    <linearGradient
       y2="39.684914"
       x2="34.534348"
       y1="12.284524"
       x1="14.462892"
       gradientTransform="matrix(1.241935,0,0,1.241935,-5.027508,-7.208988)"
       gradientUnits="userSpaceOnUse"
       id="linearGradient3760"
       xlink:href="#linearGradient3264"
       inkscape:collect="always" />
    <linearGradient
       gradientTransform="matrix(0.200685,0,0,0.200685,-0.585758,-1.050787)"
       y2="248.6311"
       x2="153.0005"
       y1="15.4238"
       x1="99.777298"
       gradientUnits="userSpaceOnUse"
       id="linearGradient53551"
       xlink:href="#aigrd1"
       inkscape:collect="always" />
    <linearGradient
       y2="248.6311"
       x2="153.0005"
       y1="15.4238"
       x1="99.777298"
       gradientUnits="userSpaceOnUse"
       id="aigrd1">
      <stop
         id="stop53300"
         style="stop-color:#184375"
         offset="0" />
      <stop
         id="stop53302"
         style="stop-color:#C8BDDC"
         offset="1" />
    </linearGradient>
    <linearGradient
       id="linearGradient2300">
      <stop
         style="stop-color:#000000;stop-opacity:0.32673267;"
         offset="0.0000000"
         id="stop2302" />
      <stop
         style="stop-color:#000000;stop-opacity:0;"
         offset="1"
         id="stop2304" />
    </linearGradient>
    <linearGradient
       gradientTransform="matrix(1.241935,0,0,1.241935,-5.027508,-7.208988)"
       y2="39.684914"
       x2="34.534348"
       y1="12.284524"
       x1="14.462892"
       gradientUnits="userSpaceOnUse"
       id="linearGradient3281"
       xlink:href="#linearGradient3264"
       inkscape:collect="always" />
    <linearGradient
       id="linearGradient3264">
      <stop
         id="stop3266"
         offset="0"
         style="stop-color:#c9c9c9;stop-opacity:1;" />
      <stop
         style="stop-color:#f8f8f8;stop-opacity:1;"
         offset="0.25"
         id="stop3276" />
      <stop
         style="stop-color:#e2e2e2;stop-opacity:1;"
         offset="0.5"
         id="stop3272" />
      <stop
         id="stop3274"
         offset="0.75"
         style="stop-color:#b0b0b0;stop-opacity:1;" />
      <stop
         id="stop3268"
         offset="1"
         style="stop-color:#c9c9c9;stop-opacity:1;" />
    </linearGradient>
    <linearGradient
       y2="248.6311"
       x2="153.0005"
       y1="15.4238"
       x1="99.777298"
       gradientTransform="matrix(0.134212,0,0,0.134536,-36.80513,-0.911931)"
       gradientUnits="userSpaceOnUse"
       id="linearGradient2834"
       xlink:href="#aigrd1"
       inkscape:collect="always" />
    <radialGradient
       r="11.68987"
       fy="72.568001"
       fx="14.287618"
       cy="68.872971"
       cx="14.287618"
       gradientTransform="matrix(1.399258,-2.234445e-7,8.196178e-8,0.513264,4.365074,4.839285)"
       gradientUnits="userSpaceOnUse"
       id="radialGradient2825"
       xlink:href="#linearGradient2300"
       inkscape:collect="always" />
    <linearGradient
       y2="248.6311"
       x2="153.0005"
       y1="15.4238"
       x1="99.777298"
       gradientUnits="userSpaceOnUse"
       id="linearGradient6590">
      <stop
         id="stop6592"
         style="stop-color:#184375"
         offset="0" />
      <stop
         id="stop6594"
         style="stop-color:#C8BDDC"
         offset="1" />
    </linearGradient>
    <linearGradient
       id="linearGradient6584">
      <stop
         style="stop-color:#000000;stop-opacity:0.32673267;"
         offset="0.0000000"
         id="stop6586" />
      <stop
         style="stop-color:#000000;stop-opacity:0;"
         offset="1"
         id="stop6588" />
    </linearGradient>
  </defs>
  <sodipodi:namedview
     id="base"
     pagecolor="#ffffff"
     bordercolor="#e0e0e0"
     borderopacity="1"
     gridtolerance="10000"
     guidetolerance="10"
     objecttolerance="10"
     inkscape:pageopacity="0.0"
     inkscape:pageshadow="2"
     inkscape:zoom="1"
     inkscape:cx="16.638156"
     inkscape:cy="-0.57732451"
     inkscape:document-units="px"
     inkscape:current-layer="layer1"
     width="32px"
     height="32px"
     inkscape:showpageshadow="false"
     inkscape:window-width="872"
     inkscape:window-height="623"
     inkscape:window-x="466"
     inkscape:window-y="343"
     showgrid="false" />
  <metadata
     id="metadata7859">
    <rdf:RDF>
      <cc:Work
         rdf:about="">
        <dc:format>image/svg+xml</dc:format>
        <dc:type
           rdf:resource="http://purl.org/dc/dcmitype/StillImage" />
        <dc:creator>
          <cc:Agent>
            <dc:title>Jakub Steiner</dc:title>
          </cc:Agent>
        </dc:creator>
        <dc:source>http://jimmac.musichall.cz</dc:source>
        <cc:license
           rdf:resource="http://creativecommons.org/licenses/by-sa/2.5/" />
      </cc:Work>
      <cc:License
         rdf:about="http://creativecommons.org/licenses/by-sa/2.5/">
        <cc:permits
           rdf:resource="http://web.resource.org/cc/Reproduction" />
        <cc:permits
           rdf:resource="http://web.resource.org/cc/Distribution" />
        <cc:requires
           rdf:resource="http://web.resource.org/cc/Notice" />
        <cc:requires
           rdf:resource="http://web.resource.org/cc/Attribution" />
        <cc:permits
           rdf:resource="http://web.resource.org/cc/DerivativeWorks" />
        <cc:requires
           rdf:resource="http://web.resource.org/cc/ShareAlike" />
      </cc:License>
    </rdf:RDF>
  </metadata>
  <g
     inkscape:label="Layer 1"
     inkscape:groupmode="layer"
     id="layer1">
    <g
       id="g6598"
       transform="translate(0.48194,3.2372999e-2)">
      <g
         id="layer2"
         inkscape:label="shadow" />
      <g
         inkscape:label="Layer 1"
         id="g6601">
        <path
           sodipodi:type="arc"
           style="color:#000000;fill:url(#radialGradient2825);fill-opacity:1;fill-rule:evenodd;stroke:none;stroke-width:0.50000042;stroke-linecap:round;stroke-linejoin:miter;marker:none;marker-start:none;marker-mid:none;marker-end:none;stroke-miterlimit:4;stroke-dashoffset:0;stroke-opacity:1;visibility:visible;display:inline;overflow:visible"
           id="path1538"
           sodipodi:cx="24.357143"
           sodipodi:cy="38.714287"
           sodipodi:rx="19.928572"
           sodipodi:ry="9.837245"
           d="M 44.285715,38.714287 A 19.928572,9.837245 0 1 1 4.4285717,38.714287 A 19.928572,9.837245 0 1 1 44.285715,38.714287 z"
           transform="matrix(0.79092,0,0,0.790922,-3.490336,-5.400454)" />
        <path
           id="path3243"
           d="M 14.71875,0.4375 C 14.402304,0.45920407 14.092071,0.49559576 13.78125,0.53125 L 13.75,0.53125 L 13,4.59375 C 11.787948,4.8704426 10.650841,5.3619156 9.625,6 L 6.3125,3.59375 C 5.4107735,4.2955107 4.5648049,5.1135702 3.84375,6 L 6.1875,9.375 C 5.4843389,10.452161 4.9540622,11.676559 4.65625,12.96875 C 4.6561994,12.974858 4.6562086,12.998935 4.65625,13 L 0.59375,13.625 C 0.51994635,14.229262 0.5,14.875851 0.5,15.5 C 0.5,16.010667 0.51282699,16.502377 0.5625,17 L 4.59375,17.71875 C 4.8808518,19.123984 5.4265087,20.435165 6.1875,21.59375 L 3.78125,24.90625 C 4.4688376,25.761916 5.2692886,26.532021 6.125,27.21875 L 9.53125,24.875 C 10.719306,25.634709 12.031186,26.175197 13.46875,26.4375 L 18.1875,26.28125 C 19.552414,25.94076 20.823993,25.35645 21.9375,24.5625 L 25.21875,26.9375 C 26.067269,26.213858 26.82982,25.393817 27.5,24.5 L 25.125,21.03125 C 25.769434,19.9156 26.211186,18.691613 26.4375,17.375 L 30.46875,16.75 C 30.503968,16.329944 30.5,15.929131 30.5,15.5 C 30.5,14.754265 30.417249,13.997987 30.3125,13.28125 L 26.21875,12.53125 C 25.899072,11.347968 25.383049,10.273822 24.71875,9.28125 L 27.125,5.96875 C 26.380813,5.056455 25.528983,4.2154786 24.59375,3.5 L 21.125,5.875 C 20.129649,5.2849098 19.069221,4.85005 17.90625,4.59375 L 17.25,0.53125 C 16.669853,0.46284161 16.098388,0.4375 15.5,0.4375 C 15.338274,0.43750002 15.160499,0.43239905 15,0.4375 C 14.921758,0.43998676 14.85929,0.43293726 14.78125,0.4375 C 14.760113,0.43873575 14.739846,0.43605306 14.71875,0.4375 z M 15.5,11.34375 C 17.709506,11.34375 19.5,13.128778 19.5,15.34375 C 19.5,17.558722 17.709506,19.375 15.5,19.375 C 13.290494,19.375 11.5,17.558722 11.5,15.34375 C 11.5,13.128778 13.290494,11.34375 15.5,11.34375 z"
           style="color:#000000;fill:url(#linearGradient2834);fill-opacity:1;fill-rule:nonzero;stroke:none;stroke-width:1.00000024;stroke-linecap:round;stroke-linejoin:round;marker:none;marker-start:none;marker-mid:none;marker-end:none;stroke-miterlimit:4;stroke-dasharray:none;stroke-dashoffset:0;stroke-opacity:1;visibility:visible;display:inline;overflow:visible"
           sodipodi:nodetypes="ccccccccsccsccccccccccccccsccccccccsssccsssc" />
        <path
           transform="matrix(0.392623,0,0,0.393573,6.271645,5.987864)"
           d="M 36.239223,23.781593 A 12.727922,12.727922 0 1 1 10.783379,23.781593 A 12.727922,12.727922 0 1 1 36.239223,23.781593 z"
           sodipodi:ry="12.727922"
           sodipodi:rx="12.727922"
           sodipodi:cy="23.781593"
           sodipodi:cx="23.511301"
           id="path3283"
           style="opacity:0.64772728;color:#000000;fill:none;fill-opacity:1;fill-rule:nonzero;stroke:#ffffff;stroke-width:2.54389644;stroke-linecap:butt;stroke-linejoin:miter;marker:none;marker-start:none;marker-mid:none;marker-end:none;stroke-miterlimit:4;stroke-dasharray:none;stroke-dashoffset:0;stroke-opacity:1;visibility:visible;display:inline;overflow:visible"
           sodipodi:type="arc"
           inkscape:r_cx="true"
           inkscape:r_cy="true" />
        <path
           sodipodi:nodetypes="ccccccccccccccccccccccccccccccc"
           style="opacity:0.6;color:#000000;fill:none;fill-opacity:1;fill-rule:nonzero;stroke:#ffffff;stroke-width:1.20000005;stroke-linecap:butt;stroke-linejoin:miter;marker:none;marker-start:none;marker-mid:none;marker-end:none;stroke-miterlimit:4;stroke-dasharray:none;stroke-dashoffset:0;stroke-opacity:1;visibility:visible;display:inline;overflow:visible"
           d="M 14.270467,1.5373313 L 13.686148,5.3917681 C 12.574319,5.6455812 10.529159,6.4218468 9.5881413,7.0071692 L 6.4795186,4.6813137 C 5.6523535,5.3250468 5.5956281,5.3687015 4.9341953,6.1818343 L 7.1818448,9.5233322 C 6.5368271,10.511425 5.7620796,12.272253 5.4839093,13.530558 C 5.4839093,13.530558 1.5453216,14.196089 1.5453216,14.196089 C 1.4776203,14.750387 1.5101571,15.936751 1.5557227,16.393226 L 5.3178773,17.072596 C 5.5812398,18.361632 6.5667942,20.436527 7.264861,21.49931 L 4.8857859,24.650115 C 5.5165179,25.435028 5.6427515,25.506854 6.4277058,26.136798 L 9.6089437,23.800515 C 10.698762,24.497405 12.861951,25.345147 14.180646,25.58576 L 17.430517,25.499133 C 18.68257,25.186798 20.845959,24.29661 21.867392,23.56831 L 25.045227,25.869902 C 25.823583,25.206098 25.830556,25.106075 26.445321,24.286167 L 24.09045,20.930831 C 24.681595,19.907431 25.445957,17.905965 25.653558,16.698222 L 29.50913,16.056952 C 29.541431,15.671631 29.543004,14.597093 29.446916,13.939621 L 25.51873,13.260252 C 25.225484,12.174814 24.219124,10.218873 23.609756,9.3083741 L 26.106451,6.1575708 C 25.423802,5.3207118 25.169984,5.2058882 24.312082,4.5495715 L 21.023623,6.9101158 C 20.110575,6.3688198 18.289882,5.5436592 17.223075,5.3085523 L 16.642158,1.5373313 C 16.109982,1.4745794 14.574595,1.5024449 14.270467,1.5373313 z"
           id="path3285"
           inkscape:r_cx="true"
           inkscape:r_cy="true" />
        <path
           sodipodi:nodetypes="cccscccscccccccccccccccccccscccccccccccccccccsccccccsccc"
           id="path1905"
           d="M 6.3125,3.59375 C 5.4107735,4.2955107 4.5648049,5.1135702 3.84375,6 L 6.1875,9.375 C 5.4843389,10.452161 4.9540622,11.676559 4.65625,12.96875 C 4.6561994,12.974858 4.6562086,12.998935 4.65625,13 L 3.40625,13.1875 L 0.53125,13.65625 C 0.52099572,13.929918 0.5,15.229489 0.5,15.5 C 0.5,16.010667 0.51282699,16.502377 0.5625,17 L 2.75,17.375 L 2.75,17.125 C 3.435757,16.965376 4.082001,16.737242 4.71875,16.46875 L 5.65625,17.75 C 6.0586009,17.567905 6.431846,17.374181 6.8125,17.15625 L 6.3125,15.65625 C 6.9097329,15.294 7.474252,14.860903 8,14.40625 L 9.28125,15.34375 C 9.6068849,15.04717 9.922363,14.731888 10.21875,14.40625 L 9.28125,13.15625 C 9.7360959,12.630502 10.13775,12.066368 10.5,11.46875 L 12,11.9375 C 12.217931,11.556653 12.443294,11.183406 12.625,10.78125 L 11.34375,9.84375 C 11.61224,9.2070013 11.808739,8.560758 11.96875,7.875 L 13.5625,7.875 C 13.650835,7.4472728 13.701959,7.003788 13.75,6.5625 L 12.25,6.09375 C 12.278862,5.7499018 12.3125,5.382653 12.3125,5.03125 C 12.3125,4.9463731 12.315912,4.8646283 12.3125,4.78125 C 11.354214,5.0695013 10.456441,5.4828344 9.625,6 L 6.3125,3.59375 z M 26,11.875 C 25.337954,12.283501 24.710278,12.74378 24.125,13.25 L 22.65625,12.15625 C 22.276164,12.502149 21.908239,12.870072 21.5625,13.25 L 22.65625,14.71875 C 22.125924,15.332062 21.609963,15.990565 21.1875,16.6875 L 20.65625,16.5 C 20.608568,17.200283 20.406483,17.862357 20.125,18.46875 L 20.25,18.5625 C 19.936842,19.30518 19.655103,20.075016 19.46875,20.875 L 18,20.875 C 17.863718,20.960453 17.737488,21.082379 17.59375,21.15625 C 17.515381,21.571517 17.452589,21.949455 17.40625,22.375 L 19.1875,22.96875 C 19.154113,23.370025 19.125,23.777717 19.125,24.1875 C 19.124997,24.59744 19.154114,25.004974 19.1875,25.40625 L 17.40625,25.96875 C 17.462268,26.483504 17.553203,27.000975 17.65625,27.5 L 17.96875,27.5 L 18.1875,26.28125 C 19.3818,25.983321 20.491988,25.49213 21.5,24.84375 C 21.487159,24.624255 21.46875,24.409895 21.46875,24.1875 C 21.468752,19.159263 24.567227,14.850956 28.9375,13.03125 L 26.21875,12.53125 C 26.158602,12.308615 26.073729,12.090091 26,11.875 z"
           style="opacity:0.5;color:#000000;fill:#ffffff;fill-opacity:1;fill-rule:nonzero;stroke:none;stroke-width:1;stroke-linecap:butt;stroke-linejoin:miter;marker:none;marker-start:none;marker-mid:none;marker-end:none;stroke-miterlimit:4;stroke-dasharray:none;stroke-dashoffset:0;stroke-opacity:1;visibility:visible;display:inline;overflow:visible" />
        <path
           sodipodi:nodetypes="ccccccccsccsccccccccccccccsccccccccsssccsssc"
           id="path2862"
           d="M 14.71875,0.4375 C 14.402304,0.45920407 14.092071,0.49559576 13.78125,0.53125 L 13.75,0.53125 L 13,4.59375 C 11.787948,4.8704426 10.650841,5.3619156 9.625,6 L 6.3125,3.59375 C 5.410773,4.2955107 4.564805,5.1135702 3.84375,6 L 6.1875,9.375 C 5.484339,10.452161 4.954062,11.676559 4.65625,12.96875 C 4.656199,12.974858 4.656209,12.998935 4.65625,13 L 0.59375,13.625 C 0.5199464,14.229262 0.5,14.875851 0.5,15.5 C 0.5,16.010667 0.512827,16.502377 0.5625,17 L 4.59375,17.71875 C 4.880852,19.123984 5.426509,20.435165 6.1875,21.59375 L 3.78125,24.90625 C 4.468838,25.761916 5.269289,26.532021 6.125,27.21875 L 9.53125,24.875 C 10.719306,25.634709 12.031186,26.175197 13.46875,26.4375 L 18.1875,26.28125 C 19.552414,25.94076 20.823993,25.35645 21.9375,24.5625 L 25.21875,26.9375 C 26.067269,26.213858 26.82982,25.393817 27.5,24.5 L 25.125,21.03125 C 25.769434,19.9156 26.211186,18.691613 26.4375,17.375 L 30.46875,16.75 C 30.503968,16.329944 30.5,15.929131 30.5,15.5 C 30.5,14.754265 30.417249,13.997987 30.3125,13.28125 L 26.21875,12.53125 C 25.899072,11.347968 25.383049,10.273822 24.71875,9.28125 L 27.125,5.96875 C 26.380813,5.056455 25.528983,4.2154786 24.59375,3.5 L 21.125,5.875 C 20.129649,5.2849098 19.069221,4.85005 17.90625,4.59375 L 17.25,0.53125 C 16.669853,0.46284161 16.098388,0.4375 15.5,0.4375 C 15.338274,0.43750002 15.160499,0.43239905 15,0.4375 C 14.921758,0.43998676 14.85929,0.43293726 14.78125,0.4375 C 14.760113,0.43873575 14.739846,0.43605306 14.71875,0.4375 z M 15.5,11.34375 C 17.709506,11.34375 19.5,13.128778 19.5,15.34375 C 19.5,17.558722 17.709506,19.375 15.5,19.375 C 13.290494,19.375 11.5,17.558722 11.5,15.34375 C 11.5,13.128778 13.290494,11.34375 15.5,11.34375 z"
           style="color:#000000;fill:none;fill-opacity:1;fill-rule:nonzero;stroke:#3f4561;stroke-width:1.00000024;stroke-linecap:round;stroke-linejoin:round;marker:none;marker-start:none;marker-mid:none;marker-end:none;stroke-miterlimit:4;stroke-dasharray:none;stroke-dashoffset:0;stroke-opacity:1;visibility:visible;display:inline;overflow:visible" />
      </g>
    </g>
    <rect
       style="opacity:0.50588229;color:#000000;fill:#000000;fill-opacity:1;fill-rule:nonzero;stroke:none;stroke-width:1;stroke-linecap:butt;stroke-linejoin:miter;marker:none;marker-start:none;marker-mid:none;marker-end:none;stroke-miterlimit:4;stroke-dasharray:none;stroke-dashoffset:0;stroke-opacity:1;visibility:visible;display:block;overflow:visible;filter:url(#filter8900);enable-background:accumulate"
       id="rect7837"
       width="28.461048"
       height="4.5961943"
       x="1.3866158"
       y="25.23439"
       rx="2.2980971"
       ry="2.2980971" />
    <g
       id="g7818"
       transform="translate(80.732979,-18.416053)">
      <rect
         ry="2.7500017"
         rx="2.7500012"
         y="28.942398"
         x="-78.170479"
         height="17.984398"
         width="26.019251"
         id="rect5857"
         style="color:#000000;fill:url(#linearGradient7835);fill-opacity:1;fill-rule:evenodd;stroke:#939393;stroke-width:1.0000006;stroke-linecap:butt;stroke-linejoin:miter;marker:none;marker-start:none;marker-mid:none;marker-end:none;stroke-miterlimit:4;stroke-dasharray:none;stroke-dashoffset:0;stroke-opacity:1;visibility:visible;display:inline;overflow:visible" />
      <rect
         style="color:#000000;fill:none;fill-opacity:1;fill-rule:evenodd;stroke:#ffffff;stroke-width:1.00000036;stroke-linecap:butt;stroke-linejoin:miter;marker:none;marker-start:none;marker-mid:none;marker-end:none;stroke-miterlimit:4;stroke-dasharray:none;stroke-dashoffset:0;stroke-opacity:1;visibility:visible;display:inline;overflow:visible"
         id="rect6740"
         width="24.165012"
         height="15.992508"
         x="-77.245796"
         y="29.936529"
         rx="1.7500006"
         ry="1.7500004" />
      <rect
         ry="0"
         rx="0"
         y="40.535492"
         x="-75.732292"
         height="2.9636221"
         width="1.0220398"
         id="rect7003"
         style="opacity:0.48538011;color:#000000;fill:#000000;fill-opacity:1;fill-rule:evenodd;stroke:none;stroke-width:1;stroke-linecap:butt;stroke-linejoin:miter;marker:none;marker-start:none;marker-mid:none;marker-end:none;stroke-miterlimit:4;stroke-dasharray:none;stroke-dashoffset:0;stroke-opacity:1;visibility:visible;display:inline;overflow:visible" />
      <rect
         y="40.499115"
         x="-73.732292"
         height="2.0000007"
         width="1"
         id="rect7017"
         style="opacity:0.48538011;color:#000000;fill:#000000;fill-opacity:1;fill-rule:evenodd;stroke:none;stroke-width:1;stroke-linecap:butt;stroke-linejoin:miter;marker:none;marker-start:none;marker-mid:none;marker-end:none;stroke-miterlimit:4;stroke-dasharray:none;stroke-dashoffset:0;stroke-opacity:1;visibility:visible;display:inline;overflow:visible" />
      <rect
         y="40.535492"
         x="-55.732296"
         height="2.963623"
         width="0.97153217"
         id="rect7031"
         style="opacity:0.48538011;color:#000000;fill:#000000;fill-opacity:1;fill-rule:evenodd;stroke:none;stroke-width:1;stroke-linecap:butt;stroke-linejoin:miter;marker:none;marker-start:none;marker-mid:none;marker-end:none;stroke-miterlimit:4;stroke-dasharray:none;stroke-dashoffset:0;stroke-opacity:1;visibility:visible;display:inline;overflow:visible" />
      <rect
         style="opacity:0.48538011;color:#000000;fill:#000000;fill-opacity:1;fill-rule:evenodd;stroke:none;stroke-width:1;stroke-linecap:butt;stroke-linejoin:miter;marker:none;marker-start:none;marker-mid:none;marker-end:none;stroke-miterlimit:4;stroke-dasharray:none;stroke-dashoffset:0;stroke-opacity:1;visibility:visible;display:inline;overflow:visible"
         id="rect21001"
         width="1"
         height="2.0000007"
         x="-71.732292"
         y="40.499115" />
      <rect
         y="40.499115"
         x="-69.732292"
         height="2.0000007"
         width="2.0354064"
         id="rect21003"
         style="opacity:0.48538011;color:#000000;fill:#000000;fill-opacity:1;fill-rule:evenodd;stroke:none;stroke-width:1;stroke-linecap:butt;stroke-linejoin:miter;marker:none;marker-start:none;marker-mid:none;marker-end:none;stroke-miterlimit:4;stroke-dasharray:none;stroke-dashoffset:0;stroke-opacity:1;visibility:visible;display:inline;overflow:visible" />
      <rect
         style="opacity:0.48538011;color:#000000;fill:#000000;fill-opacity:1;fill-rule:evenodd;stroke:none;stroke-width:1;stroke-linecap:butt;stroke-linejoin:miter;marker:none;marker-start:none;marker-mid:none;marker-end:none;stroke-miterlimit:4;stroke-dasharray:none;stroke-dashoffset:0;stroke-opacity:1;visibility:visible;display:inline;overflow:visible"
         id="rect21005"
         width="1.035408"
         height="2.0000007"
         x="-65.767693"
         y="40.499115" />
      <rect
         y="40.499115"
         x="-63.767696"
         height="2.0000007"
         width="1.035408"
         id="rect21007"
         style="opacity:0.48538011;color:#000000;fill:#000000;fill-opacity:1;fill-rule:evenodd;stroke:none;stroke-width:1;stroke-linecap:butt;stroke-linejoin:miter;marker:none;marker-start:none;marker-mid:none;marker-end:none;stroke-miterlimit:4;stroke-dasharray:none;stroke-dashoffset:0;stroke-opacity:1;visibility:visible;display:inline;overflow:visible" />
      <rect
         style="opacity:0.48538011;color:#000000;fill:#000000;fill-opacity:1;fill-rule:evenodd;stroke:none;stroke-width:1;stroke-linecap:butt;stroke-linejoin:miter;marker:none;marker-start:none;marker-mid:none;marker-end:none;stroke-miterlimit:4;stroke-dasharray:none;stroke-dashoffset:0;stroke-opacity:1;visibility:visible;display:inline;overflow:visible"
         id="rect21009"
         width="1.035408"
         height="2.0000007"
         x="-60.767696"
         y="40.499115" />
      <rect
         y="40.499115"
         x="-58.767696"
         height="2.0000007"
         width="2.035408"
         id="rect21011"
         style="opacity:0.48538011;color:#000000;fill:#000000;fill-opacity:1;fill-rule:evenodd;stroke:none;stroke-width:1;stroke-linecap:butt;stroke-linejoin:miter;marker:none;marker-start:none;marker-mid:none;marker-end:none;stroke-miterlimit:4;stroke-dasharray:none;stroke-dashoffset:0;stroke-opacity:1;visibility:visible;display:inline;overflow:visible" />
      <path
         id="text21021"
         d="M -73.751325,37.822054 L -74.333695,37.822054 L -74.333695,34.166051 L -75.430795,34.551358 L -75.430795,34.027811 L -73.751325,33.436615 L -73.751325,37.822054 M -70.733575,33.504264 C -70.286505,33.504269 -69.956105,33.684667 -69.742375,34.045459 C -69.528645,34.404297 -69.421775,34.950393 -69.421775,35.683748 C -69.421775,36.403381 -69.546285,36.954379 -69.795315,37.336744 C -70.044345,37.717148 -70.393375,37.907351 -70.842405,37.907351 C -71.265955,37.907351 -71.599295,37.724992 -71.842435,37.360274 C -72.083625,36.995557 -72.204215,36.47103 -72.204215,35.786693 C -72.204215,35.01216 -72.071855,34.438612 -71.807145,34.066048 C -71.540475,33.69153 -71.182615,33.504269 -70.733575,33.504264 M -70.786525,37.436747 C -70.523775,37.436747 -70.321805,37.293605 -70.180615,37.007321 C -70.039445,36.719077 -69.968855,36.295534 -69.968845,35.736691 C -69.968855,35.097457 -70.039445,34.646462 -70.180615,34.383705 C -70.319845,34.120955 -70.517885,33.989578 -70.774755,33.989574 C -71.063005,33.989578 -71.278695,34.138603 -71.421835,34.436648 C -71.564985,34.732739 -71.636555,35.176871 -71.636555,35.769045 C -71.636555,36.316123 -71.564005,36.730842 -71.418895,37.013204 C -71.273795,37.295566 -71.063005,37.436747 -70.786525,37.436747 M -68.409975,37.148502 C -68.311935,37.148503 -68.227615,37.184778 -68.157025,37.257329 C -68.084475,37.329881 -68.048195,37.416158 -68.048195,37.516161 C -68.048195,37.614204 -68.083495,37.69852 -68.154085,37.769111 C -68.224675,37.839701 -68.309975,37.874997 -68.409975,37.874997 C -68.508015,37.874997 -68.593315,37.839701 -68.665865,37.769111 C -68.736455,37.69852 -68.771755,37.614204 -68.771755,37.516161 C -68.771755,37.416158 -68.736455,37.329881 -68.665865,37.257329 C -68.593315,37.184778 -68.508015,37.148503 -68.409975,37.148502 M -65.862835,33.504264 C -65.415755,33.504269 -65.085355,33.684667 -64.871625,34.045459 C -64.657895,34.404297 -64.551025,34.950393 -64.551025,35.683748 C -64.551025,36.403381 -64.675535,36.954379 -64.924565,37.336744 C -65.173595,37.717148 -65.522625,37.907351 -65.971655,37.907351 C -66.395205,37.907351 -66.728545,37.724992 -66.971695,37.360274 C -67.212875,36.995557 -67.333465,36.47103 -67.333465,35.786693 C -67.333465,35.01216 -67.201115,34.438612 -66.936395,34.066048 C -66.669725,33.69153 -66.311865,33.504269 -65.862835,33.504264 M -65.915775,37.436747 C -65.653025,37.436747 -65.451055,37.293605 -65.309875,37.007321 C -65.168695,36.719077 -65.098105,36.295534 -65.098105,35.736691 C -65.098105,35.097457 -65.168695,34.646462 -65.309875,34.383705 C -65.449095,34.120955 -65.647135,33.989578 -65.904005,33.989574 C -66.192255,33.989578 -66.407945,34.138603 -66.551085,34.436648 C -66.694235,34.732739 -66.765805,35.176871 -66.765805,35.769045 C -66.765805,36.316123 -66.693255,36.730842 -66.548145,37.013204 C -66.403045,37.295566 -66.192255,37.436747 -65.915775,37.436747 M -63.539225,37.148502 C -63.441185,37.148503 -63.356865,37.184778 -63.286275,37.257329 C -63.213725,37.329881 -63.177445,37.416158 -63.177445,37.516161 C -63.177445,37.614204 -63.212745,37.69852 -63.283335,37.769111 C -63.353925,37.839701 -63.439225,37.874997 -63.539225,37.874997 C -63.637265,37.874997 -63.722565,37.839701 -63.795115,37.769111 C -63.865705,37.69852 -63.901005,37.614204 -63.901005,37.516161 C -63.901005,37.416158 -63.865705,37.329881 -63.795115,37.257329 C -63.722565,37.184778 -63.637265,37.148503 -63.539225,37.148502 M -60.992085,33.504264 C -60.545015,33.504269 -60.214605,33.684667 -60.000875,34.045459 C -59.787145,34.404297 -59.680275,34.950393 -59.680275,35.683748 C -59.680275,36.403381 -59.804795,36.954379 -60.053815,37.336744 C -60.302845,37.717148 -60.651875,37.907351 -61.100905,37.907351 C -61.524455,37.907351 -61.857795,37.724992 -62.100945,37.360274 C -62.342125,36.995557 -62.462715,36.47103 -62.462715,35.786693 C -62.462715,35.01216 -62.330365,34.438612 -62.065645,34.066048 C -61.798975,33.69153 -61.441115,33.504269 -60.992085,33.504264 M -61.045025,37.436747 C -60.782275,37.436747 -60.580305,37.293605 -60.439125,37.007321 C -60.297945,36.719077 -60.227355,36.295534 -60.227355,35.736691 C -60.227355,35.097457 -60.297945,34.646462 -60.439125,34.383705 C -60.578345,34.120955 -60.776395,33.989578 -61.033255,33.989574 C -61.321505,33.989578 -61.537195,34.138603 -61.680345,34.436648 C -61.823485,34.732739 -61.895055,35.176871 -61.895055,35.769045 C -61.895055,36.316123 -61.822505,36.730842 -61.677395,37.013204 C -61.532295,37.295566 -61.321505,37.436747 -61.045025,37.436747 M -58.668475,37.148502 C -58.570435,37.148503 -58.486115,37.184778 -58.415525,37.257329 C -58.342975,37.329881 -58.306695,37.416158 -58.306695,37.516161 C -58.306695,37.614204 -58.341995,37.69852 -58.412585,37.769111 C -58.483175,37.839701 -58.568475,37.874997 -58.668475,37.874997 C -58.766515,37.874997 -58.851815,37.839701 -58.924365,37.769111 C -58.994955,37.69852 -59.030255,37.614204 -59.030255,37.516161 C -59.030255,37.416158 -58.994955,37.329881 -58.924365,37.257329 C -58.851815,37.184778 -58.766515,37.148503 -58.668475,37.148502 M -55.821325,37.822054 L -56.403695,37.822054 L -56.403695,34.166051 L -57.500795,34.551358 L -57.500795,34.027811 L -55.821325,33.436615 L -55.821325,37.822054"
         style="font-size:6.02372789px;font-style:normal;font-variant:normal;font-weight:normal;font-stretch:normal;line-height:100%;writing-mode:lr-tb;text-anchor:start;fill:#000000;fill-opacity:1;stroke:none;stroke-width:1px;stroke-linecap:butt;stroke-linejoin:miter;stroke-opacity:1;font-family:Segoe" />
    </g>
  </g>
</svg>
