<?xml version="1.0" encoding="UTF-8" standalone="no"?>
<!-- Generator: Adobe Illustrator 9.0, SVG Export Plug-In  -->
<svg
   xmlns:dc="http://purl.org/dc/elements/1.1/"
   xmlns:cc="http://web.resource.org/cc/"
   xmlns:rdf="http://www.w3.org/1999/02/22-rdf-syntax-ns#"
   xmlns:svg="http://www.w3.org/2000/svg"
   xmlns="http://www.w3.org/2000/svg"
   xmlns:xlink="http://www.w3.org/1999/xlink"
   xmlns:sodipodi="http://inkscape.sourceforge.net/DTD/sodipodi-0.dtd"
   xmlns:inkscape="http://www.inkscape.org/namespaces/inkscape"
   width="22pt"
   height="22pt"
   viewBox="0 0 95.991 118.26"
   xml:space="preserve"
   id="svg2"
   sodipodi:version="0.32"
   inkscape:version="0.43"
   sodipodi:docbase="/home/jimmac/src/cvs/gnome/nld-ui/trunk/tango-yast2-theme/icons/22x22/apps"
   sodipodi:docname="gnome.svg"
   version="1.0"
   inkscape:export-filename="/home/jimmac/src/cvs/gnome/nld-ui/trunk/tango-yast2-theme/icons/22x22/apps/gnome.png"
   inkscape:export-xdpi="72"
   inkscape:export-ydpi="72"><metadata
   id="metadata21"><rdf:RDF><cc:Work
       rdf:about=""><dc:format>image/svg+xml</dc:format><dc:type
         rdf:resource="http://purl.org/dc/dcmitype/StillImage" /><cc:license
         rdf:resource="http://creativecommons.org/licenses/by-sa/2.0/" /><dc:title>Gnome Foot</dc:title><dc:creator><cc:Agent><dc:title>Jakub Steiner</dc:title></cc:Agent></dc:creator><dc:description>Tango styled</dc:description></cc:Work><cc:License
       rdf:about="http://creativecommons.org/licenses/by-sa/2.0/"><cc:permits
         rdf:resource="http://web.resource.org/cc/Reproduction" /><cc:permits
         rdf:resource="http://web.resource.org/cc/Distribution" /><cc:requires
         rdf:resource="http://web.resource.org/cc/Notice" /><cc:requires
         rdf:resource="http://web.resource.org/cc/Attribution" /><cc:permits
         rdf:resource="http://web.resource.org/cc/DerivativeWorks" /><cc:requires
         rdf:resource="http://web.resource.org/cc/ShareAlike" /></cc:License></rdf:RDF></metadata><defs
   id="defs19"><linearGradient
   id="linearGradient3250"><stop
     style="stop-color:#ffa54c;stop-opacity:1;"
     offset="0"
     id="stop3252" /><stop
     style="stop-color:#f57900;stop-opacity:1;"
     offset="1"
     id="stop3254" /></linearGradient><linearGradient
   id="linearGradient3242"><stop
     style="stop-color:#f57900;stop-opacity:1;"
     offset="0"
     id="stop3244" /><stop
     style="stop-color:#f57900;stop-opacity:0;"
     offset="1"
     id="stop3246" /></linearGradient><linearGradient
   inkscape:collect="always"
   id="linearGradient3234"><stop
     style="stop-color:#ffffff;stop-opacity:1;"
     offset="0"
     id="stop3236" /><stop
     style="stop-color:#ffffff;stop-opacity:0;"
     offset="1"
     id="stop3238" /></linearGradient><linearGradient
   inkscape:collect="always"
   id="linearGradient3206"><stop
     style="stop-color:#000000;stop-opacity:1;"
     offset="0"
     id="stop3208" /><stop
     style="stop-color:#000000;stop-opacity:0;"
     offset="1"
     id="stop3210" /></linearGradient><radialGradient
   inkscape:collect="always"
   xlink:href="#linearGradient3206"
   id="radialGradient3212"
   cx="47.687531"
   cy="104.40141"
   fx="47.687531"
   fy="104.40141"
   r="36.648281"
   gradientTransform="matrix(1,0,0,0.378151,0,64.92189)"
   gradientUnits="userSpaceOnUse" />
		
	
			
		
				
				
				
				
				
			<linearGradient
   inkscape:collect="always"
   xlink:href="#linearGradient3234"
   id="linearGradient3240"
   x1="31.505213"
   y1="36.611977"
   x2="60.698078"
   y2="149.32854"
   gradientUnits="userSpaceOnUse" /><radialGradient
   inkscape:collect="always"
   xlink:href="#linearGradient3250"
   id="radialGradient3256"
   cx="45.161022"
   cy="44.557236"
   fx="45.161022"
   fy="44.557236"
   r="34.601807"
   gradientTransform="matrix(1.784653,-5.138836e-16,5.446303e-16,1.891433,-35.43574,-41.49314)"
   gradientUnits="userSpaceOnUse" /></defs><sodipodi:namedview
   inkscape:cy="14.85061"
   inkscape:cx="18.003522"
   inkscape:zoom="1"
   inkscape:window-height="748"
   inkscape:window-width="872"
   inkscape:pageshadow="2"
   inkscape:pageopacity="0.0"
   borderopacity="0.17254902"
   bordercolor="#666666"
   pagecolor="#ffffff"
   id="base"
   inkscape:showpageshadow="false"
   inkscape:window-x="563"
   inkscape:window-y="241"
   inkscape:current-layer="svg2"
   fill="#f57900"
   stroke="#ce5c00" />
	<path
   sodipodi:type="arc"
   style="opacity:0.64044949;color:#000000;fill:url(#radialGradient3212);fill-opacity:1;fill-rule:evenodd;stroke:none;stroke-width:4.30036364;stroke-linecap:butt;stroke-linejoin:miter;marker:none;marker-start:none;marker-mid:none;marker-end:none;stroke-miterlimit:4;stroke-dasharray:none;stroke-dashoffset:0;stroke-opacity:1;visibility:visible;display:inline;overflow:visible"
   id="path2331"
   sodipodi:cx="47.687531"
   sodipodi:cy="104.40141"
   sodipodi:rx="36.648281"
   sodipodi:ry="13.858594"
   d="M 84.335812 104.40141 A 36.648281 13.858594 0 1 1  11.039249,104.40141 A 36.648281 13.858594 0 1 1  84.335812 104.40141 z"
   transform="translate(5.819997e-16,-1.231876)" /><path
   style="fill:#f57900;fill-rule:nonzero;stroke:#863b00;stroke-width:4.30036364;stroke-miterlimit:4;stroke-dasharray:none;stroke-opacity:1"
   id="path9"
   d="M 82.508964,2.46375 C 60.213402,2.46375 56.031058,34.219656 68.573558,34.219656 C 81.114245,34.219656 104.80543,2.46375 82.508964,2.46375 z " /><path
   sodipodi:type="inkscape:offset"
   inkscape:radius="-4.2890301"
   inkscape:original="M 82.5 2.46875 C 60.204437 2.4687501 56.02 34.21875 68.5625 34.21875 C 81.10319 34.218748 104.79647 2.46875 82.5 2.46875 z "
   xlink:href="#path9"
   style="opacity:0.56179774;fill:none;fill-rule:nonzero;stroke:#ffffff;stroke-width:4.30036354;stroke-miterlimit:4;stroke-dasharray:none;stroke-opacity:1"
   id="path3258"
   inkscape:href="#path9"
   d="M 82.5,6.75 C 73.38815,6.75 68.46091,12.988646 66.59375,19.53125 C 65.66017,22.802552 65.745107,26.042469 66.375,27.875 C 67.004893,29.707531 67.236412,29.9375 68.5625,29.9375 C 69.887875,29.9375 73.221,28.570357 76.4375,25.9375 C 79.654,23.304643 82.850266,19.625617 84.90625,16.15625 C 86.962234,12.686883 87.557838,9.4542287 87.3125,8.4375 C 87.189831,7.9291356 87.175571,7.8583048 86.625,7.53125 C 86.074429,7.2041952 84.778097,6.75 82.5,6.75 z " /><path
   style="fill:#f57900;fill-rule:nonzero;stroke:#863b00;stroke-width:4.30036364;stroke-miterlimit:4;stroke-dasharray:none;stroke-opacity:1"
   id="path11"
   d="M 45.487745,30.284719 C 52.165901,30.692531 59.492933,4.7991563 46.94137,6.4276875 C 34.394339,8.0562188 38.80687,29.876906 45.487745,30.284719 z " /><path
   sodipodi:type="inkscape:offset"
   inkscape:radius="-3.779259"
   inkscape:original="M 46.9375 6.4375 C 34.390471 8.0660312 38.819125 29.873437 45.5 30.28125 C 52.178158 30.689062 59.489063 4.8089688 46.9375 6.4375 z "
   xlink:href="#path11"
   style="opacity:0.55617975;fill:none;fill-rule:nonzero;stroke:#ffffff;stroke-width:4.30036354;stroke-miterlimit:4;stroke-dasharray:none;stroke-opacity:1"
   id="path3260"
   inkscape:href="#path11"
   d="M 47.4375,10.1875 C 45.396551,10.452403 44.582119,11.184264 43.8125,12.59375 C 43.042881,14.003236 42.62899,16.238695 42.78125,18.5625 C 42.93351,20.886305 43.635804,23.283225 44.46875,24.8125 C 45.229763,26.209707 45.772213,26.321304 45.625,26.34375 C 45.967341,26.05739 46.546889,25.428446 47.09375,24.53125 C 48.208083,22.703044 49.252944,19.89753 49.71875,17.25 C 50.184556,14.60247 49.963056,12.102669 49.5,11.0625 C 49.268472,10.542416 49.086867,10.413202 48.90625,10.3125 C 48.725633,10.211798 48.396345,10.063092 47.4375,10.1875 z " /><path
   style="fill:#f57900;fill-rule:nonzero;stroke:#863b00;stroke-width:4.30036364;stroke-miterlimit:4;stroke-dasharray:none;stroke-opacity:1"
   id="path13"
   d="M 14.88187,46.374281 C 19.631526,44.283563 15.493589,23.834031 7.417089,29.411094 C -0.655786,34.989063 10.132214,48.464094 14.88187,46.374281 z " /><path
   style="fill:#f57900;fill-rule:nonzero;stroke:#863b00;stroke-width:4.30036364;stroke-miterlimit:4;stroke-dasharray:none;stroke-opacity:1"
   id="path15"
   d="M 28.264464,35.670563 C 33.918558,34.517812 34.228495,11.325063 24.145558,15.485656 C 14.060808,19.647156 22.614902,36.825125 28.264464,35.670563 L 28.264464,35.670563 z " /><path
   sodipodi:type="inkscape:offset"
   inkscape:radius="-3.8874488"
   inkscape:original="M 25.90625 15 C 25.356028 15.058398 24.786434 15.239963 24.15625 15.5 C 14.071501 19.6615 22.600438 36.810812 28.25 35.65625 C 33.550714 34.575546 34.159577 14.12403 25.90625 15 z "
   xlink:href="#path15"
   style="opacity:0.55056176;fill:none;fill-rule:nonzero;stroke:#ffffff;stroke-width:4.30036354;stroke-miterlimit:4;stroke-dasharray:none;stroke-opacity:1"
   id="path3262"
   inkscape:href="#path15"
   d="M 26.6875,18.84375 C 26.618371,18.772122 26.557286,18.849019 26.3125,18.875 C 26.323225,18.873862 26.081488,18.905386 25.625,19.09375 C 24.152697,19.7013 23.820103,20.315341 23.53125,21.5 C 23.242397,22.684659 23.386225,24.498527 24,26.3125 C 24.613775,28.126473 25.672102,29.904312 26.625,30.90625 C 26.90902,31.204887 27.03072,31.247206 27.21875,31.375 C 27.343499,31.171572 27.449834,31.064229 27.59375,30.625 C 28.07347,29.160904 28.371587,26.890522 28.28125,24.75 C 28.190913,22.609478 27.675617,20.601944 27.125,19.625 C 26.849691,19.136528 26.756629,18.915378 26.6875,18.84375 z " /><path
   style="fill:url(#radialGradient3256);fill-opacity:1;fill-rule:nonzero;stroke:#863b00;stroke-width:4.30036364;stroke-miterlimit:4;stroke-dasharray:none;stroke-opacity:1"
   d="M 57.789183,87.572406 C 58.792402,95.233844 52.16862,99.017437 45.681683,94.078375 C 25.030964,78.355844 79.873589,70.513156 76.258558,49.032313 C 73.257964,31.20275 18.552183,36.691906 12.32262,64.589 C 8.105839,83.458937 29.680027,109.63688 52.191277,109.63688 C 63.265652,109.63688 76.039245,99.637312 78.429027,86.96975 C 80.254214,77.310031 56.951808,81.180625 57.789183,87.572406 L 57.789183,87.572406 z "
   id="newshape" /><path
   sodipodi:type="inkscape:offset"
   inkscape:radius="-3.437228"
   inkscape:original="M 10.25 28.4375 C 9.3731837 28.407992 8.4158125 28.709117 7.40625 29.40625 C -0.66662499 34.984218 10.125344 48.464813 14.875 46.375 C 19.030949 44.54562 16.387714 28.644056 10.25 28.4375 z "
   xlink:href="#path13"
   style="opacity:0.58426962;fill:none;fill-opacity:1;fill-rule:nonzero;stroke:#ffffff;stroke-width:4.30036354;stroke-miterlimit:4;stroke-dasharray:none;stroke-opacity:1"
   id="path3264"
   inkscape:href="#path13"
   d="M 10.125,31.875 C 10.117872,31.87476 9.8980606,31.867232 9.34375,32.25 C 8.1528951,33.072823 7.9647612,33.666436 7.9375,34.78125 C 7.9102388,35.896064 8.3879145,37.510383 9.28125,39 C 10.174586,40.489617 11.458463,41.853798 12.5,42.5625 C 12.853326,42.802917 13.016246,42.830308 13.21875,42.90625 C 13.277173,42.740001 13.330898,42.695841 13.375,42.375 C 13.540478,41.171164 13.444433,39.309432 13.0625,37.53125 C 12.680567,35.753068 12.006665,34.027595 11.3125,33 C 10.618335,31.972405 10.186042,31.877054 10.125,31.875 z " /><path
   sodipodi:type="inkscape:offset"
   inkscape:radius="-4.3140807"
   inkscape:original="M 56.34375 38.75 C 39.036579 38.457124 16.205977 47.158066 12.3125 64.59375 C 8.0957186 83.46369 29.67625 109.625 52.1875 109.625 C 63.261875 109.625 76.047718 99.636312 78.4375 86.96875 C 80.26269 77.309032 56.943875 81.170719 57.78125 87.5625 C 58.784467 95.223941 52.174437 99.032812 45.6875 94.09375 C 25.036781 78.371217 79.865031 70.512093 76.25 49.03125 C 75.124776 42.345163 66.728053 38.925726 56.34375 38.75 z "
   xlink:href="#newshape"
   style="opacity:0.46629214;fill:none;fill-opacity:1;fill-rule:nonzero;stroke:url(#linearGradient3240);stroke-width:4.30036354;stroke-miterlimit:4;stroke-dasharray:none;stroke-opacity:1"
   id="path3232"
   inkscape:href="#newshape"
   d="M 56.28125,43.0625 C 48.382389,42.928834 38.895175,44.909957 31.28125,48.84375 C 23.667325,52.777543 18.120374,58.414872 16.53125,65.53125 C 14.857005,73.023434 18.46875,83.229717 25.5,91.375 C 32.53125,99.520283 42.603069,105.3125 52.1875,105.3125 C 60.667778,105.3125 72.240787,96.475229 74.1875,86.15625 C 74.264941,85.746395 74.201931,85.955098 74.28125,86.09375 C 74.360569,86.232402 74.404943,86.174815 74.03125,86 C 73.283864,85.65037 71.140995,85.304832 68.90625,85.53125 C 66.671505,85.757668 64.308943,86.489516 62.96875,87.21875 C 62.41094,87.522269 62.18836,87.753745 62.0625,87.875 C 62.402436,92.681713 60.453447,97.227247 56.625,99.34375 C 52.561473,101.59021 47.293146,100.7524 43.0625,97.53125 C 40.046217,95.234787 37.906992,92.728633 37.0625,89.65625 C 36.218008,86.583867 37.107706,83.395211 38.65625,81.0625 C 41.753338,76.397077 46.92594,73.400865 52.3125,70.0625 C 57.69906,66.724135 63.362891,63.274057 67.15625,59.75 C 70.949609,56.225943 72.600432,53.317821 72,49.75 C 71.708872,48.020116 70.598329,46.662038 67.875,45.34375 C 65.151671,44.025462 61.019747,43.142686 56.28125,43.0625 z " />
</svg>