<?xml version="1.0" encoding="UTF-8" standalone="no"?>
<!-- Created with Inkscape (http://www.inkscape.org/) -->
<svg
   xmlns:dc="http://purl.org/dc/elements/1.1/"
   xmlns:cc="http://web.resource.org/cc/"
   xmlns:rdf="http://www.w3.org/1999/02/22-rdf-syntax-ns#"
   xmlns:svg="http://www.w3.org/2000/svg"
   xmlns="http://www.w3.org/2000/svg"
   xmlns:xlink="http://www.w3.org/1999/xlink"
   xmlns:sodipodi="http://sodipodi.sourceforge.net/DTD/sodipodi-0.dtd"
   xmlns:inkscape="http://www.inkscape.org/namespaces/inkscape"
   width="22"
   height="22"
   id="svg7854"
   sodipodi:version="0.32"
   inkscape:version="0.45+devel"
   version="1.0"
   sodipodi:docname="yast-kiwi.svg"
   inkscape:output_extension="org.inkscape.output.svg.inkscape">
  <defs
     id="defs7856">
    <linearGradient
       inkscape:collect="always"
       id="linearGradient5472">
      <stop
         style="stop-color:#ffffff;stop-opacity:1;"
         offset="0"
         id="stop5474" />
      <stop
         style="stop-color:#ffffff;stop-opacity:0;"
         offset="1"
         id="stop5476" />
    </linearGradient>
    <linearGradient
       inkscape:collect="always"
       id="linearGradient5420">
      <stop
         style="stop-color:#c27923;stop-opacity:1"
         offset="0"
         id="stop5422" />
      <stop
         style="stop-color:#603c12;stop-opacity:1"
         offset="1"
         id="stop5424" />
    </linearGradient>
    <linearGradient
       inkscape:collect="always"
       id="linearGradient5412">
      <stop
         style="stop-color:#ffffff;stop-opacity:1;"
         offset="0"
         id="stop5414" />
      <stop
         style="stop-color:#ffffff;stop-opacity:0;"
         offset="1"
         id="stop5416" />
    </linearGradient>
    <linearGradient
       inkscape:collect="always"
       id="linearGradient5336">
      <stop
         style="stop-color:#000000;stop-opacity:1;"
         offset="0"
         id="stop5338" />
      <stop
         style="stop-color:#000000;stop-opacity:0;"
         offset="1"
         id="stop5340" />
    </linearGradient>
    <linearGradient
       id="linearGradient5324">
      <stop
         style="stop-color:#dc8e33;stop-opacity:1"
         offset="0"
         id="stop5326" />
      <stop
         id="stop5332"
         offset="1"
         style="stop-color:#865419;stop-opacity:1;" />
    </linearGradient>
    <linearGradient
       inkscape:collect="always"
       id="linearGradient5316">
      <stop
         style="stop-color:#d6cf72;stop-opacity:1"
         offset="0"
         id="stop5318" />
      <stop
         style="stop-color:#a1a306;stop-opacity:1"
         offset="1"
         id="stop5320" />
    </linearGradient>
    <filter
       inkscape:collect="always"
       id="filter5284"
       x="-0.16809976"
       width="1.3361995"
       y="-0.16301288"
       height="1.3260257">
      <feGaussianBlur
         inkscape:collect="always"
         stdDeviation="0.92131867"
         id="feGaussianBlur5286" />
    </filter>
    <radialGradient
       inkscape:collect="always"
       xlink:href="#linearGradient5316"
       id="radialGradient5322"
       cx="23.625"
       cy="26.875"
       fx="23.625"
       fy="26.875"
       r="15.625"
       gradientUnits="userSpaceOnUse" />
    <radialGradient
       inkscape:collect="always"
       xlink:href="#linearGradient5324"
       id="radialGradient5330"
       cx="29.784513"
       cy="17.411541"
       fx="29.784513"
       fy="17.411541"
       r="15.625"
       gradientUnits="userSpaceOnUse"
       gradientTransform="matrix(1.7222966,0,0,0.8871375,-20.940746,1.7759435)" />
    <radialGradient
       inkscape:collect="always"
       xlink:href="#linearGradient5336"
       id="radialGradient5342"
       cx="26.693281"
       cy="41.459263"
       fx="26.693281"
       fy="41.459263"
       r="12.904698"
       gradientTransform="matrix(1,0,0,0.260274,0,30.668495)"
       gradientUnits="userSpaceOnUse" />
    <radialGradient
       inkscape:collect="always"
       xlink:href="#linearGradient5336"
       id="radialGradient5346"
       gradientUnits="userSpaceOnUse"
       gradientTransform="matrix(1,0,0,0.260274,0,30.668495)"
       cx="26.693281"
       cy="41.459263"
       fx="26.693281"
       fy="41.459263"
       r="12.904698" />
    <filter
       inkscape:collect="always"
       id="filter5404"
       x="-0.091261223"
       width="1.1825224"
       y="-0.3506352"
       height="1.7012703">
      <feGaussianBlur
         inkscape:collect="always"
         stdDeviation="0.98141543"
         id="feGaussianBlur5406" />
    </filter>
    <radialGradient
       inkscape:collect="always"
       xlink:href="#linearGradient5412"
       id="radialGradient5418"
       cx="31.071001"
       cy="14.916162"
       fx="31.071001"
       fy="14.916162"
       r="16.104879"
       gradientUnits="userSpaceOnUse"
       gradientTransform="matrix(1.4034809,0,0,1.4034809,-9.2232712,-4.6778294)" />
    <radialGradient
       inkscape:collect="always"
       xlink:href="#linearGradient5420"
       id="radialGradient5426"
       cx="22.660725"
       cy="10.744719"
       fx="22.660725"
       fy="10.744719"
       r="16.109093"
       gradientUnits="userSpaceOnUse"
       gradientTransform="matrix(1.9330185,0,0,1.9330185,-21.142875,-10.025021)" />
    <radialGradient
       inkscape:collect="always"
       xlink:href="#linearGradient5412"
       id="radialGradient5468"
       gradientUnits="userSpaceOnUse"
       gradientTransform="matrix(1.4034809,0,0,1.4034809,-9.2232712,-4.6778294)"
       cx="29.517885"
       cy="14.204203"
       fx="29.517885"
       fy="14.204203"
       r="16.104879" />
    <radialGradient
       inkscape:collect="always"
       xlink:href="#linearGradient5472"
       id="radialGradient5478"
       cx="31.5625"
       cy="38.3125"
       fx="31.5625"
       fy="38.3125"
       r="5.4375"
       gradientTransform="matrix(2.3388757,0,0,1.5592505,-45.695764,-24.988786)"
       gradientUnits="userSpaceOnUse" />
    <filter
       inkscape:collect="always"
       id="filter5504"
       x="-0.080459774"
       width="1.1609195"
       y="-0.12068966"
       height="1.2413793">
      <feGaussianBlur
         inkscape:collect="always"
         stdDeviation="0.36458333"
         id="feGaussianBlur5506" />
    </filter>
  </defs>
  <sodipodi:namedview
     id="base"
     pagecolor="#ffffff"
     bordercolor="#e0e0e0"
     borderopacity="1"
     gridtolerance="10000"
     guidetolerance="10"
     objecttolerance="10"
     inkscape:pageopacity="0.0"
     inkscape:pageshadow="2"
     inkscape:zoom="1"
     inkscape:cx="18.105628"
     inkscape:cy="25.383684"
     inkscape:document-units="px"
     inkscape:current-layer="layer1"
     width="22px"
     height="22px"
     inkscape:showpageshadow="false"
     inkscape:window-width="806"
     inkscape:window-height="777"
     inkscape:window-x="345"
     inkscape:window-y="210">
    <inkscape:grid
       type="xygrid"
       id="grid5408" />
  </sodipodi:namedview>
  <metadata
     id="metadata7859">
    <rdf:RDF>
      <cc:Work
         rdf:about="">
        <dc:format>image/svg+xml</dc:format>
        <dc:type
           rdf:resource="http://purl.org/dc/dcmitype/StillImage" />
        <dc:creator>
          <cc:Agent>
            <dc:title>Jakub Steiner</dc:title>
          </cc:Agent>
        </dc:creator>
        <dc:source>http://jimmac.musichall.cz</dc:source>
        <cc:license
           rdf:resource="http://creativecommons.org/licenses/by-sa/2.5/" />
      </cc:Work>
      <cc:License
         rdf:about="http://creativecommons.org/licenses/by-sa/2.5/">
        <cc:permits
           rdf:resource="http://web.resource.org/cc/Reproduction" />
        <cc:permits
           rdf:resource="http://web.resource.org/cc/Distribution" />
        <cc:requires
           rdf:resource="http://web.resource.org/cc/Notice" />
        <cc:requires
           rdf:resource="http://web.resource.org/cc/Attribution" />
        <cc:permits
           rdf:resource="http://web.resource.org/cc/DerivativeWorks" />
        <cc:requires
           rdf:resource="http://web.resource.org/cc/ShareAlike" />
      </cc:License>
    </rdf:RDF>
  </metadata>
  <g
     inkscape:label="Layer 1"
     inkscape:groupmode="layer"
     id="layer1">
    <path
       d="M 39.59798,41.459263 A 12.904698,3.3587573 0 1 1 13.788583,41.459263 A 12.904698,3.3587573 0 1 1 39.59798,41.459263 z"
       sodipodi:ry="3.3587573"
       sodipodi:rx="12.904698"
       sodipodi:cy="41.459263"
       sodipodi:cx="26.693281"
       id="path5344"
       style="opacity:0.57831325;color:#000000;fill:url(#radialGradient5346);fill-opacity:1;fill-rule:evenodd;stroke:none;stroke-width:1;stroke-linecap:butt;stroke-linejoin:miter;marker:none;marker-start:none;marker-mid:none;marker-end:none;stroke-miterlimit:4;stroke-dasharray:none;stroke-dashoffset:0;stroke-opacity:1;visibility:visible;display:inline;overflow:visible;filter:url(#filter5404);enable-background:accumulate"
       sodipodi:type="arc"
       transform="matrix(0.737029,0,0,0.7361342,-7.4448364,-11.880765)" />
    <path
       sodipodi:type="arc"
       style="opacity:0.57831325;color:#000000;fill:url(#radialGradient5342);fill-opacity:1;fill-rule:evenodd;stroke:none;stroke-width:1;stroke-linecap:butt;stroke-linejoin:miter;marker:none;marker-start:none;marker-mid:none;marker-end:none;stroke-miterlimit:4;stroke-dasharray:none;stroke-dashoffset:0;stroke-opacity:1;visibility:visible;display:inline;overflow:visible;enable-background:accumulate"
       id="path5334"
       sodipodi:cx="26.693281"
       sodipodi:cy="41.459263"
       sodipodi:rx="12.904698"
       sodipodi:ry="3.3587573"
       d="M 39.59798,41.459263 A 12.904698,3.3587573 0 1 1 13.788583,41.459263 A 12.904698,3.3587573 0 1 1 39.59798,41.459263 z"
       transform="matrix(0.5133301,0,0,0.5127068,-1.4735752,-2.6176278)" />
    <path
       d="M 39.25,26.875 A 15.625,15.625 0 1 1 8,26.875 A 15.625,15.625 0 1 1 39.25,26.875 z"
       sodipodi:ry="15.625"
       sodipodi:rx="15.625"
       sodipodi:cy="26.875"
       sodipodi:cx="23.625"
       id="path5222"
       style="opacity:1;color:#000000;fill:url(#radialGradient5330);fill-opacity:1;fill-rule:evenodd;stroke:url(#radialGradient5426);stroke-width:1.8868171;stroke-linecap:butt;stroke-linejoin:miter;marker:none;marker-start:none;marker-mid:none;marker-end:none;stroke-miterlimit:4;stroke-dasharray:none;stroke-dashoffset:0;stroke-opacity:1;visibility:visible;display:inline;overflow:visible;enable-background:accumulate"
       sodipodi:type="arc"
       transform="matrix(0.6632185,0,0,0.6001132,-4.7105731,-6.1560981)" />
    <path
       sodipodi:type="arc"
       style="opacity:1;color:#000000;fill:url(#radialGradient5322);fill-opacity:1;fill-rule:evenodd;stroke:none;stroke-width:1;stroke-linecap:butt;stroke-linejoin:miter;marker:none;marker-start:none;marker-mid:none;marker-end:none;stroke-miterlimit:4;stroke-dasharray:none;stroke-dashoffset:0;stroke-opacity:1;visibility:visible;display:inline;overflow:visible;enable-background:accumulate"
       id="path4633"
       sodipodi:cx="23.625"
       sodipodi:cy="26.875"
       sodipodi:rx="15.625"
       sodipodi:ry="15.625"
       d="M 39.25,26.875 A 15.625,15.625 0 1 1 8,26.875 A 15.625,15.625 0 1 1 39.25,26.875 z"
       transform="matrix(0.5251579,0,0,0.5050599,-2.201263,-3.4650465)" />
    <path
       transform="matrix(0.5531435,0,0,0.5629376,-3.0265518,-4.7378734)"
       sodipodi:type="arc"
       style="opacity:1;color:#000000;fill:none;fill-opacity:1;fill-rule:evenodd;stroke:url(#radialGradient5418);stroke-width:2.13317084000000001;stroke-linecap:butt;stroke-linejoin:miter;marker:none;marker-start:none;marker-mid:none;marker-end:none;stroke-miterlimit:4;stroke-dasharray:none;stroke-dashoffset:0;stroke-opacity:1;visibility:visible;display:inline;overflow:visible;enable-background:accumulate"
       id="path5410"
       sodipodi:cx="23.625"
       sodipodi:cy="26.875"
       sodipodi:rx="15.625"
       sodipodi:ry="15.625"
       d="M 39.25,26.875 A 15.625,15.625 0 1 1 8,26.875 A 15.625,15.625 0 1 1 39.25,26.875 z" />
    <path
       d="M 39.25,26.875 A 15.625,15.625 0 1 1 8,26.875 A 15.625,15.625 0 1 1 39.25,26.875 z"
       sodipodi:ry="15.625"
       sodipodi:rx="15.625"
       sodipodi:cy="26.875"
       sodipodi:cx="23.625"
       id="path5466"
       style="opacity:0.38554221000000000;color:#000000;fill:none;fill-opacity:1;fill-rule:evenodd;stroke:url(#radialGradient5468);stroke-width:2.04493402999999985;stroke-linecap:butt;stroke-linejoin:miter;marker:none;marker-start:none;marker-mid:none;marker-end:none;stroke-miterlimit:4;stroke-dasharray:none;stroke-dashoffset:0;stroke-opacity:1;visibility:visible;display:inline;overflow:visible;enable-background:accumulate"
       sodipodi:type="arc"
       transform="matrix(0.6019088,0,0,0.5629375,-3.2200954,-4.7378718)" />
    <path
       style="opacity:0.38554221;color:#000000;fill:url(#radialGradient5478);fill-opacity:1;fill-rule:evenodd;stroke:none;stroke-width:1;stroke-linecap:butt;stroke-linejoin:miter;marker:none;marker-start:none;marker-mid:none;marker-end:none;stroke-miterlimit:4;stroke-dasharray:none;stroke-dashoffset:0;stroke-opacity:1;visibility:visible;display:inline;overflow:visible;filter:url(#filter5504);enable-background:accumulate"
       d="M 25.5625,36 C 28.1869,34.1244 31.584901,33.022401 32.6875,29.625 L 36.4375,28.75 C 33.252846,33.368396 29.395363,34.622647 25.5625,36 z"
       id="path5470"
       sodipodi:nodetypes="cccc"
       transform="matrix(0.5133301,0,0,0.5127068,0.3230799,0.3304364)" />
    <g
       id="g5520"
       transform="matrix(0.5767497,0,0,0.5764318,-2.0229797,-2.9516313)">
      <path
         transform="matrix(1.1287858,0,0,1.1287858,-4.5564922,-2.78162e-2)"
         d="M 31.422176,25.742727 L 24.497045,22.295844 L 29.308421,28.352998 L 23.787375,22.934834 L 26.491503,30.182326 L 22.914981,23.323249 L 23.247161,31.051645 L 21.965257,23.423069 L 19.892973,30.875859 L 21.031171,23.224523 L 16.757273,29.672176 L 20.204156,22.747045 L 14.147002,27.558421 L 19.565166,22.037375 L 12.317674,24.741503 L 19.176751,21.164981 L 11.448355,21.497161 L 19.076931,20.215257 L 11.624141,18.142973 L 19.275477,19.281171 L 12.827824,15.007273 L 19.752955,18.454156 L 14.941579,12.397002 L 20.462625,17.815166 L 17.758497,10.567674 L 21.335019,17.426751 L 21.002839,9.6983554 L 22.284743,17.326931 L 24.357027,9.8741409 L 23.218829,17.525477 L 27.492727,11.077824 L 24.045844,18.002955 L 30.102998,13.191579 L 24.684834,18.712625 L 31.932326,16.008497 L 25.073249,19.585019 L 32.801645,19.252839 L 25.173069,20.534743 L 32.625859,22.607027 L 24.974523,21.468829 L 31.422176,25.742727 z"
         inkscape:randomized="0"
         inkscape:rounded="0"
         inkscape:flatsided="false"
         sodipodi:arg2="0.68067841"
         sodipodi:arg1="0.52359878"
         sodipodi:r2="3.0522518"
         sodipodi:r1="10.735455"
         sodipodi:cy="20.375"
         sodipodi:cx="22.125"
         sodipodi:sides="20"
         id="path5288"
         style="opacity:1;color:#000000;fill:#816902;fill-opacity:1;fill-rule:evenodd;stroke:none;stroke-width:1;stroke-linecap:butt;stroke-linejoin:miter;marker:none;marker-start:none;marker-mid:none;marker-end:none;stroke-miterlimit:4;stroke-dasharray:none;stroke-dashoffset:0;stroke-opacity:1;visibility:visible;display:inline;overflow:visible;enable-background:accumulate"
         sodipodi:type="star" />
      <path
         transform="matrix(1.2580292,0,0,1.2580292,-7.3331124,-2.6326712)"
         sodipodi:nodetypes="csssssssssc"
         style="opacity:1;color:#000000;fill:#806702;fill-opacity:1;fill-rule:evenodd;stroke:none;stroke-width:1;stroke-linecap:butt;stroke-linejoin:miter;marker:none;marker-start:none;marker-mid:none;marker-end:none;stroke-miterlimit:4;stroke-dasharray:none;stroke-dashoffset:0;stroke-opacity:1;visibility:visible;display:inline;overflow:visible;filter:url(#filter5284);enable-background:accumulate"
         d="M 16.871703,17.450925 C 16.871703,17.844753 16.871703,17.844753 16.871703,17.450925 C 16.871703,15.765606 14.402376,20.753946 15.75063,21.765137 C 17.977024,23.434932 17.274667,23.326324 15.985588,26.016706 C 14.75654,28.581801 19.002401,26.871273 19.530049,26.607449 C 21.638548,25.5532 21.644199,25.130591 24.255997,25.130591 C 26.189156,25.130591 27.332013,25.303665 28.391202,24.244476 C 28.757751,23.877927 28.09583,20.573648 28.09583,19.813898 C 28.09583,18.077304 27.685943,18.086881 25.142114,17.450925 C 24.341696,17.250819 24.139559,14.586672 22.779139,13.906462 C 21.624073,13.328929 18.062399,17.054025 16.871703,17.450925 z"
         id="path5226" />
      <path
         id="path5224"
         d="M 17.207999,21.251263 C 17.207999,21.486965 17.207999,21.486965 17.207999,21.251263 C 17.207999,20.242619 16.047531,23.65128 16.854446,24.256466 C 18.186918,25.25582 18.401358,25.08502 16.677669,26.377787 C 15.315825,27.39917 18.483198,26.889236 18.798989,26.73134 C 20.060902,26.100384 20.064284,25.847457 21.627416,25.847457 C 22.78439,25.847457 23.468377,25.95104 24.10229,25.317127 C 24.321665,25.097752 23.925513,23.120178 23.925513,22.665476 C 23.925513,21.626144 23.6802,21.631876 22.157747,21.251263 C 21.678706,21.131502 21.557729,19.53704 20.743533,19.129942 C 20.052239,18.784295 17.920617,21.013723 17.207999,21.251263 z"
         style="opacity:1;color:#000000;fill:#f1e09f;fill-opacity:1;fill-rule:evenodd;stroke:none;stroke-width:1;stroke-linecap:butt;stroke-linejoin:miter;marker:none;marker-start:none;marker-mid:none;marker-end:none;stroke-miterlimit:4;stroke-dasharray:none;stroke-dashoffset:0;stroke-opacity:1;visibility:visible;display:inline;overflow:visible;enable-background:accumulate" />
      <path
         sodipodi:type="arc"
         style="opacity:1;color:#000000;fill:#2f0c08;fill-opacity:1;fill-rule:evenodd;stroke:none;stroke-width:1;stroke-linecap:butt;stroke-linejoin:miter;marker:none;marker-start:none;marker-mid:none;marker-end:none;stroke-miterlimit:4;stroke-dasharray:none;stroke-dashoffset:0;stroke-opacity:1;visibility:visible;display:inline;overflow:visible;enable-background:accumulate"
         id="path5292"
         sodipodi:cx="26.8125"
         sodipodi:cy="17.1875"
         sodipodi:rx="0.9375"
         sodipodi:ry="0.6875"
         d="M 27.75,17.1875 A 0.9375,0.6875 0 1 1 25.875,17.1875 A 0.9375,0.6875 0 1 1 27.75,17.1875 z"
         transform="matrix(2.2524403,-1.4073989,0.742014,1.4917629,-46.023764,31.130796)" />
      <path
         sodipodi:type="arc"
         style="opacity:1;color:#000000;fill:#2f0c08;fill-opacity:1;fill-rule:evenodd;stroke:none;stroke-width:1;stroke-linecap:butt;stroke-linejoin:miter;marker:none;marker-start:none;marker-mid:none;marker-end:none;stroke-miterlimit:4;stroke-dasharray:none;stroke-dashoffset:0;stroke-opacity:1;visibility:visible;display:inline;overflow:visible;enable-background:accumulate"
         id="path5294"
         sodipodi:cx="26.8125"
         sodipodi:cy="17.1875"
         sodipodi:rx="0.9375"
         sodipodi:ry="0.6875"
         d="M 27.75,17.1875 A 0.9375,0.6875 0 1 1 25.875,17.1875 A 0.9375,0.6875 0 1 1 27.75,17.1875 z"
         transform="matrix(0.8734386,-0.4869344,0.287734,0.5161228,-4.4466054,22.937512)" />
      <path
         sodipodi:type="arc"
         style="opacity:1;color:#000000;fill:#2f0c08;fill-opacity:1;fill-rule:evenodd;stroke:none;stroke-width:1;stroke-linecap:butt;stroke-linejoin:miter;marker:none;marker-start:none;marker-mid:none;marker-end:none;stroke-miterlimit:4;stroke-dasharray:none;stroke-dashoffset:0;stroke-opacity:1;visibility:visible;display:inline;overflow:visible;enable-background:accumulate"
         id="path5296"
         sodipodi:cx="26.8125"
         sodipodi:cy="17.1875"
         sodipodi:rx="0.9375"
         sodipodi:ry="0.6875"
         d="M 27.75,17.1875 A 0.9375,0.6875 0 1 1 25.875,17.1875 A 0.9375,0.6875 0 1 1 27.75,17.1875 z"
         transform="matrix(0.3410102,-0.9400597,0.5554898,0.201506,3.9770788,37.96316)" />
      <path
         sodipodi:type="arc"
         style="opacity:1;color:#000000;fill:#2f0c08;fill-opacity:1;fill-rule:evenodd;stroke:none;stroke-width:1;stroke-linecap:butt;stroke-linejoin:miter;marker:none;marker-start:none;marker-mid:none;marker-end:none;stroke-miterlimit:4;stroke-dasharray:none;stroke-dashoffset:0;stroke-opacity:1;visibility:visible;display:inline;overflow:visible;enable-background:accumulate"
         id="path5298"
         sodipodi:cx="26.8125"
         sodipodi:cy="17.1875"
         sodipodi:rx="0.9375"
         sodipodi:ry="0.6875"
         d="M 27.75,17.1875 A 0.9375,0.6875 0 1 1 25.875,17.1875 A 0.9375,0.6875 0 1 1 27.75,17.1875 z"
         transform="matrix(1.3624698,0.6199311,-0.4110486,0.7174944,-3.3453054,-1.6232684)" />
      <path
         sodipodi:type="arc"
         style="opacity:1;color:#000000;fill:#2f0c08;fill-opacity:1;fill-rule:evenodd;stroke:none;stroke-width:1;stroke-linecap:butt;stroke-linejoin:miter;marker:none;marker-start:none;marker-mid:none;marker-end:none;stroke-miterlimit:4;stroke-dasharray:none;stroke-dashoffset:0;stroke-opacity:1;visibility:visible;display:inline;overflow:visible;enable-background:accumulate"
         id="path5300"
         sodipodi:cx="26.8125"
         sodipodi:cy="17.1875"
         sodipodi:rx="0.9375"
         sodipodi:ry="0.6875"
         d="M 27.75,17.1875 A 0.9375,0.6875 0 1 1 25.875,17.1875 A 0.9375,0.6875 0 1 1 27.75,17.1875 z"
         transform="matrix(0.9978258,1.6363361,-0.9669258,0.5896245,15.915182,-24.391866)" />
      <path
         sodipodi:type="arc"
         style="opacity:1;color:#000000;fill:#2f0c08;fill-opacity:1;fill-rule:evenodd;stroke:none;stroke-width:1;stroke-linecap:butt;stroke-linejoin:miter;marker:none;marker-start:none;marker-mid:none;marker-end:none;stroke-miterlimit:4;stroke-dasharray:none;stroke-dashoffset:0;stroke-opacity:1;visibility:visible;display:inline;overflow:visible;enable-background:accumulate"
         id="path5302"
         sodipodi:cx="26.8125"
         sodipodi:cy="17.1875"
         sodipodi:rx="0.9375"
         sodipodi:ry="0.6875"
         d="M 27.75,17.1875 A 0.9375,0.6875 0 1 1 25.875,17.1875 A 0.9375,0.6875 0 1 1 27.75,17.1875 z"
         transform="matrix(-0.1551068,-0.9878978,0.5837578,-9.1653994e-2,15.887109,57.659506)" />
      <path
         sodipodi:type="arc"
         style="opacity:1;color:#000000;fill:#2f0c08;fill-opacity:1;fill-rule:evenodd;stroke:none;stroke-width:1;stroke-linecap:butt;stroke-linejoin:miter;marker:none;marker-start:none;marker-mid:none;marker-end:none;stroke-miterlimit:4;stroke-dasharray:none;stroke-dashoffset:0;stroke-opacity:1;visibility:visible;display:inline;overflow:visible;enable-background:accumulate"
         id="path5304"
         sodipodi:cx="26.8125"
         sodipodi:cy="17.1875"
         sodipodi:rx="0.9375"
         sodipodi:ry="0.6875"
         d="M 27.75,17.1875 A 0.9375,0.6875 0 1 1 25.875,17.1875 A 0.9375,0.6875 0 1 1 27.75,17.1875 z"
         transform="matrix(0.3585409,0.6111409,-0.3611287,0.2118651,20.433291,7.7003311)" />
      <path
         sodipodi:type="arc"
         style="opacity:1;color:#000000;fill:#2f0c08;fill-opacity:1;fill-rule:evenodd;stroke:none;stroke-width:1;stroke-linecap:butt;stroke-linejoin:miter;marker:none;marker-start:none;marker-mid:none;marker-end:none;stroke-miterlimit:4;stroke-dasharray:none;stroke-dashoffset:0;stroke-opacity:1;visibility:visible;display:inline;overflow:visible;enable-background:accumulate"
         id="path5306"
         sodipodi:cx="26.8125"
         sodipodi:cy="17.1875"
         sodipodi:rx="0.9375"
         sodipodi:ry="0.6875"
         d="M 27.75,17.1875 A 0.9375,0.6875 0 1 1 25.875,17.1875 A 0.9375,0.6875 0 1 1 27.75,17.1875 z"
         transform="matrix(-0.2063677,-0.9784746,0.5781895,-0.1219446,14.544746,45.333716)" />
      <path
         sodipodi:type="arc"
         style="opacity:1;color:#000000;fill:#2f0c08;fill-opacity:1;fill-rule:evenodd;stroke:none;stroke-width:1;stroke-linecap:butt;stroke-linejoin:miter;marker:none;marker-start:none;marker-mid:none;marker-end:none;stroke-miterlimit:4;stroke-dasharray:none;stroke-dashoffset:0;stroke-opacity:1;visibility:visible;display:inline;overflow:visible;enable-background:accumulate"
         id="path5308"
         sodipodi:cx="26.8125"
         sodipodi:cy="17.1875"
         sodipodi:rx="0.9375"
         sodipodi:ry="0.6875"
         d="M 27.75,17.1875 A 0.9375,0.6875 0 1 1 25.875,17.1875 A 0.9375,0.6875 0 1 1 27.75,17.1875 z"
         transform="matrix(0.4707918,-0.8822444,0.5213262,0.2781952,-3.759256,48.282392)" />
      <path
         sodipodi:type="arc"
         style="opacity:1;color:#000000;fill:#2f0c08;fill-opacity:1;fill-rule:evenodd;stroke:none;stroke-width:1;stroke-linecap:butt;stroke-linejoin:miter;marker:none;marker-start:none;marker-mid:none;marker-end:none;stroke-miterlimit:4;stroke-dasharray:none;stroke-dashoffset:0;stroke-opacity:1;visibility:visible;display:inline;overflow:visible;enable-background:accumulate"
         id="path5310"
         sodipodi:cx="26.8125"
         sodipodi:cy="17.1875"
         sodipodi:rx="0.9375"
         sodipodi:ry="0.6875"
         d="M 27.75,17.1875 A 0.9375,0.6875 0 1 1 25.875,17.1875 A 0.9375,0.6875 0 1 1 27.75,17.1875 z"
         transform="matrix(1.8141899,-1.7486617,1.0333003,1.0720212,-52.032298,56.320114)" />
      <path
         sodipodi:type="arc"
         style="opacity:1;color:#000000;fill:#2f0c08;fill-opacity:1;fill-rule:evenodd;stroke:none;stroke-width:1;stroke-linecap:butt;stroke-linejoin:miter;marker:none;marker-start:none;marker-mid:none;marker-end:none;stroke-miterlimit:4;stroke-dasharray:none;stroke-dashoffset:0;stroke-opacity:1;visibility:visible;display:inline;overflow:visible;enable-background:accumulate"
         id="path5312"
         sodipodi:cx="26.8125"
         sodipodi:cy="17.1875"
         sodipodi:rx="0.9375"
         sodipodi:ry="0.6875"
         d="M 27.75,17.1875 A 0.9375,0.6875 0 1 1 25.875,17.1875 A 0.9375,0.6875 0 1 1 27.75,17.1875 z"
         transform="matrix(0.8734386,-0.4869344,0.287734,0.5161228,-13.009106,28.031262)" />
      <path
         sodipodi:type="arc"
         style="opacity:1;color:#000000;fill:#2f0c08;fill-opacity:1;fill-rule:evenodd;stroke:none;stroke-width:1;stroke-linecap:butt;stroke-linejoin:miter;marker:none;marker-start:none;marker-mid:none;marker-end:none;stroke-miterlimit:4;stroke-dasharray:none;stroke-dashoffset:0;stroke-opacity:1;visibility:visible;display:inline;overflow:visible;enable-background:accumulate"
         id="path5314"
         sodipodi:cx="26.8125"
         sodipodi:cy="17.1875"
         sodipodi:rx="0.9375"
         sodipodi:ry="0.6875"
         d="M 27.75,17.1875 A 0.9375,0.6875 0 1 1 25.875,17.1875 A 0.9375,0.6875 0 1 1 27.75,17.1875 z"
         transform="matrix(0.6137706,-0.3421717,0.2021924,0.3626826,-4.7332509,29.177692)" />
      <path
         transform="matrix(-0.5580809,-0.8297866,0.4903284,-0.3297751,22.985169,44.669107)"
         d="M 27.75,17.1875 A 0.9375,0.6875 0 1 1 25.875,17.1875 A 0.9375,0.6875 0 1 1 27.75,17.1875 z"
         sodipodi:ry="0.6875"
         sodipodi:rx="0.9375"
         sodipodi:cy="17.1875"
         sodipodi:cx="26.8125"
         id="path5428"
         style="opacity:1;color:#000000;fill:#2f0c08;fill-opacity:1;fill-rule:evenodd;stroke:none;stroke-width:1;stroke-linecap:butt;stroke-linejoin:miter;marker:none;marker-start:none;marker-mid:none;marker-end:none;stroke-miterlimit:4;stroke-dasharray:none;stroke-dashoffset:0;stroke-opacity:1;visibility:visible;display:inline;overflow:visible;enable-background:accumulate"
         sodipodi:type="arc" />
      <path
         transform="matrix(0.9760469,0.2175602,-0.1285583,0.576755,-9.0427686,5.9123832)"
         d="M 27.75,17.1875 A 0.9375,0.6875 0 1 1 25.875,17.1875 A 0.9375,0.6875 0 1 1 27.75,17.1875 z"
         sodipodi:ry="0.6875"
         sodipodi:rx="0.9375"
         sodipodi:cy="17.1875"
         sodipodi:cx="26.8125"
         id="path5508"
         style="opacity:1;color:#000000;fill:#2f0c08;fill-opacity:1;fill-rule:evenodd;stroke:none;stroke-width:1;stroke-linecap:butt;stroke-linejoin:miter;marker:none;marker-start:none;marker-mid:none;marker-end:none;stroke-miterlimit:4;stroke-dasharray:none;stroke-dashoffset:0;stroke-opacity:1;visibility:visible;display:inline;overflow:visible;enable-background:accumulate"
         sodipodi:type="arc" />
      <path
         inkscape:transform-center-y="8.5333026"
         sodipodi:type="arc"
         style="opacity:1;color:#000000;fill:#2f0c08;fill-opacity:1;fill-rule:evenodd;stroke:none;stroke-width:1;stroke-linecap:butt;stroke-linejoin:miter;marker:none;marker-start:none;marker-mid:none;marker-end:none;stroke-miterlimit:4;stroke-dasharray:none;stroke-dashoffset:0;stroke-opacity:1;visibility:visible;display:inline;overflow:visible;enable-background:accumulate"
         id="path5510"
         sodipodi:cx="26.8125"
         sodipodi:cy="17.1875"
         sodipodi:rx="0.9375"
         sodipodi:ry="0.6875"
         d="M 27.75,17.1875 A 0.9375,0.6875 0 1 1 25.875,17.1875 A 0.9375,0.6875 0 1 1 27.75,17.1875 z"
         transform="matrix(2.4285478,0.9581974,-0.3198719,2.540194,-44.466868,-49.239827)" />
      <path
         transform="matrix(0.5901644,-0.3290115,0.1944159,0.3487335,-6.5366494,27.298958)"
         d="M 27.75,17.1875 A 0.9375,0.6875 0 1 1 25.875,17.1875 A 0.9375,0.6875 0 1 1 27.75,17.1875 z"
         sodipodi:ry="0.6875"
         sodipodi:rx="0.9375"
         sodipodi:cy="17.1875"
         sodipodi:cx="26.8125"
         id="path5512"
         style="opacity:1;color:#000000;fill:#2f0c08;fill-opacity:1;fill-rule:evenodd;stroke:none;stroke-width:1;stroke-linecap:butt;stroke-linejoin:miter;marker:none;marker-start:none;marker-mid:none;marker-end:none;stroke-miterlimit:4;stroke-dasharray:none;stroke-dashoffset:0;stroke-opacity:1;visibility:visible;display:inline;overflow:visible;enable-background:accumulate"
         sodipodi:type="arc" />
      <path
         transform="matrix(-0.8734386,-0.4869344,-0.287734,0.5161228,54.282394,29.468762)"
         d="M 27.75,17.1875 A 0.9375,0.6875 0 1 1 25.875,17.1875 A 0.9375,0.6875 0 1 1 27.75,17.1875 z"
         sodipodi:ry="0.6875"
         sodipodi:rx="0.9375"
         sodipodi:cy="17.1875"
         sodipodi:cx="26.8125"
         id="path5514"
         style="opacity:1;color:#000000;fill:#2f0c08;fill-opacity:1;fill-rule:evenodd;stroke:none;stroke-width:1;stroke-linecap:butt;stroke-linejoin:miter;marker:none;marker-start:none;marker-mid:none;marker-end:none;stroke-miterlimit:4;stroke-dasharray:none;stroke-dashoffset:0;stroke-opacity:1;visibility:visible;display:inline;overflow:visible;enable-background:accumulate"
         sodipodi:type="arc" />
      <path
         sodipodi:type="arc"
         style="opacity:1;color:#000000;fill:#2f0c08;fill-opacity:1;fill-rule:evenodd;stroke:none;stroke-width:1;stroke-linecap:butt;stroke-linejoin:miter;marker:none;marker-start:none;marker-mid:none;marker-end:none;stroke-miterlimit:4;stroke-dasharray:none;stroke-dashoffset:0;stroke-opacity:1;visibility:visible;display:inline;overflow:visible;enable-background:accumulate"
         id="path5516"
         sodipodi:cx="26.8125"
         sodipodi:cy="17.1875"
         sodipodi:rx="0.9375"
         sodipodi:ry="0.6875"
         d="M 27.75,17.1875 A 0.9375,0.6875 0 1 1 25.875,17.1875 A 0.9375,0.6875 0 1 1 27.75,17.1875 z"
         transform="matrix(-0.9760469,0.2175602,0.1285583,0.576755,51.378557,7.4748832)" />
      <path
         transform="matrix(-0.7438093,0.2480514,9.7969541e-2,0.6575876,42.958678,3.8305262)"
         d="M 27.75,17.1875 A 0.9375,0.6875 0 1 1 25.875,17.1875 A 0.9375,0.6875 0 1 1 27.75,17.1875 z"
         sodipodi:ry="0.6875"
         sodipodi:rx="0.9375"
         sodipodi:cy="17.1875"
         sodipodi:cx="26.8125"
         id="path5518"
         style="opacity:1;color:#000000;fill:#2f0c08;fill-opacity:1;fill-rule:evenodd;stroke:none;stroke-width:1;stroke-linecap:butt;stroke-linejoin:miter;marker:none;marker-start:none;marker-mid:none;marker-end:none;stroke-miterlimit:4;stroke-dasharray:none;stroke-dashoffset:0;stroke-opacity:1;visibility:visible;display:inline;overflow:visible;enable-background:accumulate"
         sodipodi:type="arc"
         inkscape:transform-center-y="2.2090411" />
    </g>
  </g>
</svg>
