<?xml version="1.0" encoding="UTF-8" standalone="no"?>
<!-- Created with Inkscape (http://www.inkscape.org/) -->
<svg
   xmlns:dc="http://purl.org/dc/elements/1.1/"
   xmlns:cc="http://web.resource.org/cc/"
   xmlns:rdf="http://www.w3.org/1999/02/22-rdf-syntax-ns#"
   xmlns:svg="http://www.w3.org/2000/svg"
   xmlns="http://www.w3.org/2000/svg"
   xmlns:xlink="http://www.w3.org/1999/xlink"
   xmlns:sodipodi="http://inkscape.sourceforge.net/DTD/s odipodi-0.dtd"
   xmlns:inkscape="http://www.inkscape.org/namespaces/inkscape"
   width="22"
   height="22"
   id="svg2"
   sodipodi:version="0.32"
   inkscape:version="0.43+devel"
   version="1.0"
   sodipodi:docbase="/home/jimmac/src/cvs/gnome/nld-ui/trunk/tango-yast2-theme/icons/22x22/apps"
   sodipodi:docname="yast-inst-mode.svg"
   inkscape:export-filename="/home/jimmac/src/cvs/gnome/nld-ui/trunk/tango-yast2-theme/icons/22x22/apps/yast-inst-mode.png"
   inkscape:export-xdpi="90"
   inkscape:export-ydpi="90">
  <defs
     id="defs4">
    <linearGradient
       id="linearGradient4931"
       inkscape:collect="always">
      <stop
         id="stop4933"
         offset="0"
         style="stop-color:#babdb6;stop-opacity:1;" />
      <stop
         id="stop4935"
         offset="1"
         style="stop-color:#888a85" />
    </linearGradient>
    <linearGradient
       inkscape:collect="always"
       xlink:href="#linearGradient4931"
       id="linearGradient4629"
       gradientUnits="userSpaceOnUse"
       x1="54.1129"
       y1="12.846775"
       x2="50.079948"
       y2="-3.8813655" />
    <linearGradient
       id="linearGradient23434"
       inkscape:collect="always">
      <stop
         id="stop23436"
         offset="0"
         style="stop-color:#2e3436" />
      <stop
         id="stop23438"
         offset="1"
         style="stop-color:#555753" />
    </linearGradient>
    <linearGradient
       inkscape:collect="always"
       xlink:href="#linearGradient23434"
       id="linearGradient4627"
       gradientUnits="userSpaceOnUse"
       x1="55.878288"
       y1="12.472493"
       x2="52.5"
       y2="-4.6213989" />
    <linearGradient
       inkscape:collect="always"
       id="linearGradient2609">
      <stop
         style="stop-color:#ffffff;stop-opacity:1"
         offset="0"
         id="stop2611" />
      <stop
         style="stop-color:#eeeeec"
         offset="1"
         id="stop2613" />
    </linearGradient>
    <radialGradient
       inkscape:collect="always"
       xlink:href="#linearGradient2609"
       id="radialGradient4625"
       gradientUnits="userSpaceOnUse"
       gradientTransform="matrix(0,1.143443,-1.247217,-1.248581e-6,41.735,-54.25682)"
       cx="45.094624"
       cy="-2.6936908"
       fx="45.094624"
       fy="-2.6936908"
       r="10.498367" />
    <linearGradient
       id="linearGradient19900"
       inkscape:collect="always">
      <stop
         id="stop19902"
         offset="0"
         style="stop-color:#888a85" />
      <stop
         id="stop19904"
         offset="1"
         style="stop-color:#d3d7cf" />
    </linearGradient>
    <linearGradient
       inkscape:collect="always"
       xlink:href="#linearGradient19900"
       id="linearGradient4621"
       gradientUnits="userSpaceOnUse"
       gradientTransform="matrix(0.710596,0,0,0.710622,-72.63859,7.339424)"
       x1="40.25"
       y1="41"
       x2="43.0625"
       y2="38.434578" />
    <linearGradient
       inkscape:collect="always"
       id="linearGradient2690">
      <stop
         style="stop-color:#2e3436"
         offset="0"
         id="stop2692" />
      <stop
         style="stop-color:#555753"
         offset="1"
         id="stop2694" />
    </linearGradient>
    <linearGradient
       inkscape:collect="always"
       xlink:href="#linearGradient2690"
       id="linearGradient4619"
       gradientUnits="userSpaceOnUse"
       gradientTransform="matrix(1.544052,0,0,1.536016,-168.647,-47.95603)"
       x1="81.096306"
       y1="57.148193"
       x2="83.629295"
       y2="54.615208" />
    <linearGradient
       id="linearGradient2698">
      <stop
         style="stop-color:#555753"
         offset="0"
         id="stop2700" />
      <stop
         id="stop2706"
         offset="0.70238096"
         style="stop-color:#a3a5a2;stop-opacity:1;" />
      <stop
         style="stop-color:#888a85"
         offset="1"
         id="stop2702" />
    </linearGradient>
    <linearGradient
       inkscape:collect="always"
       xlink:href="#linearGradient2698"
       id="linearGradient4617"
       gradientUnits="userSpaceOnUse"
       gradientTransform="matrix(1.544052,0,0,1.536016,-168.647,-47.95603)"
       x1="81.332451"
       y1="55.106758"
       x2="82.919647"
       y2="53.511261" />
    <linearGradient
       id="linearGradient2980"
       inkscape:collect="always">
      <stop
         id="stop2982"
         offset="0"
         style="stop-color:#000000;stop-opacity:1;" />
      <stop
         id="stop2984"
         offset="1"
         style="stop-color:#000000;stop-opacity:0;" />
    </linearGradient>
    <radialGradient
       inkscape:collect="always"
       xlink:href="#linearGradient2980"
       id="radialGradient4615"
       gradientUnits="userSpaceOnUse"
       gradientTransform="matrix(1,0,0,0.34,0,19.89607)"
       cx="28.284271"
       cy="30.145554"
       fx="28.284271"
       fy="30.145554"
       r="13.258252" />
    <linearGradient
       id="linearGradient2617">
      <stop
         style="stop-color:#fbfbfa;stop-opacity:1;"
         offset="0"
         id="stop2619" />
      <stop
         style="stop-color:#d3d7cf"
         offset="1"
         id="stop2621" />
    </linearGradient>
    <radialGradient
       inkscape:collect="always"
       xlink:href="#linearGradient2617"
       id="radialGradient4613"
       gradientUnits="userSpaceOnUse"
       gradientTransform="matrix(0,-1.686609,1.66336,0,41.65431,111.7396)"
       cx="59.787472"
       cy="10.901535"
       fx="59.787472"
       fy="10.901535"
       r="10.55559" />
    <linearGradient
       id="linearGradient4952"
       inkscape:collect="always">
      <stop
         id="stop4954"
         offset="0"
         style="stop-color:#ffffff;stop-opacity:1;" />
      <stop
         id="stop4956"
         offset="1"
         style="stop-color:#ffffff;stop-opacity:0;" />
    </linearGradient>
    <radialGradient
       inkscape:collect="always"
       xlink:href="#linearGradient4952"
       id="radialGradient4611"
       gradientUnits="userSpaceOnUse"
       gradientTransform="matrix(2.231289,-0.597872,0.530253,1.979013,-114.2278,-20.41829)"
       cx="17.600937"
       cy="19.179262"
       fx="17.600937"
       fy="19.179262"
       r="16.924615" />
    <linearGradient
       id="linearGradient11102"
       inkscape:collect="always">
      <stop
         id="stop11104"
         offset="0"
         style="stop-color:#ffffff;stop-opacity:1;" />
      <stop
         id="stop11106"
         offset="1"
         style="stop-color:#ffffff;stop-opacity:0;" />
    </linearGradient>
    <radialGradient
       inkscape:collect="always"
       xlink:href="#linearGradient11102"
       id="radialGradient4609"
       gradientUnits="userSpaceOnUse"
       gradientTransform="matrix(0.946826,0,0,0.946826,0.469351,0.499261)"
       cx="8.0402098"
       cy="9.5280285"
       fx="8.0402098"
       fy="9.5280285"
       r="9.8125" />
    <linearGradient
       id="linearGradient4919">
      <stop
         id="stop4921"
         offset="0"
         style="stop-color:#429eff;stop-opacity:1;" />
      <stop
         id="stop4923"
         offset="1"
         style="stop-color:#0044a7;stop-opacity:1;" />
    </linearGradient>
    <radialGradient
       inkscape:collect="always"
       xlink:href="#linearGradient4919"
       id="radialGradient4607"
       gradientUnits="userSpaceOnUse"
       gradientTransform="matrix(1.459545,0,0,1.345339,-7.403138,-10.82184)"
       cx="17.062258"
       cy="28.851427"
       fx="17.062258"
       fy="28.851427"
       r="13.5" />
    <linearGradient
       inkscape:collect="always"
       id="linearGradient2287">
      <stop
         style="stop-color:#ffffff;stop-opacity:1;"
         offset="0"
         id="stop2289" />
      <stop
         style="stop-color:#ffffff;stop-opacity:0;"
         offset="1"
         id="stop2291" />
    </linearGradient>
    <linearGradient
       inkscape:collect="always"
       id="linearGradient2271">
      <stop
         style="stop-color:#6e6e71;stop-opacity:1;"
         offset="0"
         id="stop2273" />
      <stop
         style="stop-color:#babdb6"
         offset="1"
         id="stop2275" />
    </linearGradient>
    <linearGradient
       id="linearGradient2240">
      <stop
         style="stop-color:#ffffff;stop-opacity:1;"
         offset="0"
         id="stop2242" />
      <stop
         style="stop-color:#babdb6"
         offset="1"
         id="stop2244" />
    </linearGradient>
    <linearGradient
       inkscape:collect="always"
       id="linearGradient2232">
      <stop
         style="stop-color:#888a85"
         offset="0"
         id="stop2234" />
      <stop
         style="stop-color:#babdb6"
         offset="1"
         id="stop2236" />
    </linearGradient>
    <linearGradient
       inkscape:collect="always"
       id="linearGradient2795">
      <stop
         style="stop-color:#000000;stop-opacity:1;"
         offset="0"
         id="stop2797" />
      <stop
         style="stop-color:#000000;stop-opacity:0;"
         offset="1"
         id="stop2799" />
    </linearGradient>
    <linearGradient
       inkscape:collect="always"
       id="linearGradient4039">
      <stop
         style="stop-color:#729fcf"
         offset="0"
         id="stop4041" />
      <stop
         style="stop-color:#3465a4"
         offset="1"
         id="stop4043" />
    </linearGradient>
    <radialGradient
       inkscape:collect="always"
       xlink:href="#linearGradient4039"
       id="radialGradient1509"
       gradientUnits="userSpaceOnUse"
       gradientTransform="matrix(0.600917,-9.51972e-17,1.491591e-5,0.376288,-117.0195,-10.35669)"
       cx="213.01555"
       cy="56.564655"
       fx="213.01555"
       fy="56.564655"
       r="21.006207" />
    <radialGradient
       inkscape:collect="always"
       xlink:href="#linearGradient2795"
       id="radialGradient1635"
       gradientUnits="userSpaceOnUse"
       gradientTransform="matrix(1.190333,-1.00794e-16,-1.973304e-7,0.297873,-4.524361,28.9735)"
       cx="23.96336"
       cy="40.374615"
       fx="23.96336"
       fy="40.374615"
       r="23.5" />
    <radialGradient
       inkscape:collect="always"
       xlink:href="#linearGradient2240"
       id="radialGradient1357"
       gradientUnits="userSpaceOnUse"
       gradientTransform="matrix(1,0,0,0.214371,-2.9286e-2,13.53414)"
       cx="11"
       cy="18.5"
       fx="11"
       fy="18.5"
       r="7.0007591" />
    <linearGradient
       inkscape:collect="always"
       xlink:href="#linearGradient2232"
       id="linearGradient2238"
       x1="6.5625"
       y1="15.53534"
       x2="15.005585"
       y2="15.53534"
       gradientUnits="userSpaceOnUse" />
    <linearGradient
       inkscape:collect="always"
       xlink:href="#linearGradient2271"
       id="linearGradient2277"
       x1="0.4375"
       y1="20.375"
       x2="0.4375"
       y2="6.559052"
       gradientUnits="userSpaceOnUse" />
    <linearGradient
       inkscape:collect="always"
       xlink:href="#linearGradient2287"
       id="linearGradient2293"
       x1="9.0554562"
       y1="2.0277281"
       x2="1.6302037"
       y2="10"
       gradientUnits="userSpaceOnUse" />
  </defs>
  <sodipodi:namedview
     id="base"
     pagecolor="#ffffff"
     bordercolor="#666666"
     borderopacity="1"
     inkscape:pageopacity="0.0"
     inkscape:pageshadow="2"
     inkscape:zoom="1"
     inkscape:cx="22.123715"
     inkscape:cy="10.425508"
     inkscape:document-units="px"
     inkscape:current-layer="layer2"
     showgrid="false"
     stroke="#888a85"
     fill="#eeeeec"
     inkscape:grid-points="true"
     inkscape:grid-bbox="true"
     inkscape:window-width="872"
     inkscape:window-height="659"
     inkscape:window-x="165"
     inkscape:window-y="338"
     gridspacingx="0.5px"
     gridspacingy="0.5px"
     gridempspacing="2"
     showguides="false"
     inkscape:guide-bbox="true"
     inkscape:showpageshadow="false"
     showborder="false">
    <sodipodi:guide
       orientation="vertical"
       position="24.010638"
       id="guide2292" />
    <sodipodi:guide
       orientation="horizontal"
       position="7"
       id="guide2294" />
  </sodipodi:namedview>
  <metadata
     id="metadata7">
    <rdf:RDF>
      <cc:Work
         rdf:about="">
        <dc:format>image/svg+xml</dc:format>
        <dc:type
           rdf:resource="http://purl.org/dc/dcmitype/StillImage" />
      </cc:Work>
    </rdf:RDF>
  </metadata>
  <g
     inkscape:groupmode="layer"
     id="layer1"
     inkscape:label="Shadow" />
  <g
     inkscape:groupmode="layer"
     id="layer2"
     inkscape:label="Lavoro"
     style="display:inline">
    <g
       id="g2611"
       inkscape:label="Shadow"
       transform="translate(0,15.06603)" />
    <g
       id="g2613"
       inkscape:label="Lavoro"
       style="display:inline"
       transform="translate(0,15.06603)" />
    <rect
       style="opacity:1;color:#000000;fill:url(#linearGradient2238);fill-opacity:1.0;fill-rule:nonzero;stroke:#868883;stroke-width:0.99999905;stroke-linecap:round;stroke-linejoin:miter;marker:none;marker-start:none;marker-mid:none;marker-end:none;stroke-miterlimit:4;stroke-dasharray:none;stroke-dashoffset:0;stroke-opacity:1;visibility:visible;display:inline;overflow:visible"
       id="rect1428"
       width="7.0145669"
       height="3.9293196"
       x="7.4910188"
       y="13.570681" />
    <rect
       style="opacity:1;color:#000000;fill:#e4e4e1;fill-opacity:1;fill-rule:nonzero;stroke:#808083;stroke-width:0.99999905;stroke-linecap:round;stroke-linejoin:round;marker:none;marker-start:none;marker-mid:none;marker-end:none;stroke-miterlimit:4;stroke-dasharray:none;stroke-dashoffset:0;stroke-opacity:1;visibility:visible;display:inline;overflow:visible"
       id="rect1432"
       width="19"
       height="14"
       x="1.5"
       y="0.5"
       rx="0.75858521"
       ry="0.75630462" />
    <rect
       style="opacity:1;color:#000000;fill:none;fill-opacity:1;fill-rule:nonzero;stroke:#ffffff;stroke-width:1.00000036;stroke-linecap:round;stroke-linejoin:round;marker:none;marker-start:none;marker-mid:none;marker-end:none;stroke-miterlimit:4;stroke-dasharray:none;stroke-dashoffset:0;stroke-opacity:1;visibility:visible;display:inline;overflow:visible"
       id="rect1434"
       width="17"
       height="12"
       x="2.5"
       y="1.5"
       rx="0"
       ry="0" />
    <rect
       style="opacity:1;color:#000000;fill:url(#radialGradient1509);fill-opacity:1;fill-rule:nonzero;stroke:#204a87;stroke-width:1;stroke-linecap:round;stroke-linejoin:round;marker:none;marker-start:none;marker-mid:none;marker-end:none;stroke-miterlimit:4;stroke-dasharray:none;stroke-dashoffset:0;stroke-opacity:1;visibility:visible;display:inline;overflow:visible"
       id="rect1436"
       width="15.027766"
       height="9"
       x="3.4722338"
       y="2.4999998" />
    <path
       transform="matrix(0.466261,0,0,0.178571,-0.147398,13.42859)"
       d="M 47.5 41 A 23.5 7 0 1 1  0.5,41 A 23.5 7 0 1 1  47.5 41 z"
       sodipodi:ry="7"
       sodipodi:rx="23.5"
       sodipodi:cy="41"
       sodipodi:cx="24"
       id="path1633"
       style="opacity:0.30196078;color:#000000;fill:url(#radialGradient1635);fill-opacity:1;fill-rule:nonzero;stroke:none;stroke-width:1;stroke-linecap:round;stroke-linejoin:miter;marker:none;marker-start:none;marker-mid:none;marker-end:none;stroke-miterlimit:4;stroke-dasharray:none;stroke-dashoffset:0;stroke-opacity:1;visibility:visible;display:inline;overflow:visible"
       sodipodi:type="arc" />
    <g
       id="g2228">
      <path
         style="color:#000000;fill:#eeeeec;fill-opacity:1.0;fill-rule:nonzero;stroke:url(#linearGradient2277);stroke-width:0.89999998;stroke-linecap:round;stroke-linejoin:round;marker:none;marker-start:none;marker-mid:none;marker-end:none;stroke-miterlimit:4;stroke-dasharray:none;stroke-dashoffset:0;stroke-opacity:1;visibility:visible;display:inline;overflow:visible"
         d="M 1.5,16.5 L 20.5,16.5 L 21.529286,20.490574 L 0.5,20.5 L 1.5,16.5 z "
         id="path2622"
         sodipodi:nodetypes="ccccc" />
      <path
         style="color:#000000;fill:#bfc5ba;fill-opacity:1;fill-rule:nonzero;stroke:#b5b8b1;stroke-width:1.00000095;stroke-linecap:round;stroke-linejoin:round;marker:none;marker-start:none;marker-mid:none;marker-end:none;stroke-miterlimit:4;stroke-dashoffset:0;stroke-opacity:1;visibility:visible;display:inline;overflow:visible"
         d="M 3.5,16.5 L 18.5,16.5 L 19,18.5 L 3,18.5 L 3.5,16.5 z "
         id="path2626"
         sodipodi:nodetypes="ccccc" />
    </g>
    <path
       style="fill:url(#radialGradient1357);fill-opacity:1;stroke:none;stroke-width:0.80000001;stroke-linecap:round;stroke-linejoin:round;stroke-miterlimit:4;stroke-dasharray:none;stroke-opacity:1"
       d="M 5.376964,16 C 5.3606945,16.003332 5.3301173,16.026378 5.314464,16.03125 C 5.2914934,16.039666 5.2419674,16.05095 5.220714,16.0625 C 5.1519872,16.104274 5.0749877,16.181273 5.033214,16.25 C 5.0216637,16.271253 5.0103799,16.320779 5.001964,16.34375 C 4.9946559,16.36723 4.9745098,16.412681 4.970714,16.4375 C 4.969006,16.454302 4.970714,16.48275 4.970714,16.5 C 4.970714,16.51725 4.969006,16.545698 4.970714,16.5625 C 4.9745098,16.587319 4.9946559,16.63277 5.001964,16.65625 C 5.0103799,16.679221 5.0216637,16.728747 5.033214,16.75 C 5.0749877,16.818727 5.1519872,16.895726 5.220714,16.9375 C 5.2419674,16.94905 5.2914934,16.960334 5.314464,16.96875 C 5.337944,16.976058 5.3833948,16.996204 5.408214,17 C 5.4250158,17.001708 5.453464,17 5.470714,17 C 5.487964,17 5.5164122,17.001708 5.533214,17 C 5.5580332,16.996204 5.603484,16.976058 5.626964,16.96875 C 5.6499346,16.960334 5.6994606,16.94905 5.720714,16.9375 C 5.7894408,16.895726 5.8664403,16.818727 5.908214,16.75 C 5.9197643,16.728747 5.9310481,16.679221 5.939464,16.65625 C 5.9467721,16.63277 5.9669182,16.587319 5.970714,16.5625 C 5.972422,16.545698 5.970714,16.51725 5.970714,16.5 C 5.970714,16.48275 5.972422,16.454302 5.970714,16.4375 C 5.9669182,16.412681 5.9467721,16.36723 5.939464,16.34375 C 5.9310481,16.320779 5.9197643,16.271253 5.908214,16.25 C 5.8664403,16.181273 5.7894408,16.104274 5.720714,16.0625 C 5.6994606,16.05095 5.6499346,16.039666 5.626964,16.03125 C 5.603484,16.023942 5.5580332,16.003796 5.533214,16 C 5.5164122,15.998292 5.487964,16 5.470714,16 C 5.453464,16 5.4250158,15.998292 5.408214,16 C 5.3999409,16.001265 5.3850988,15.998334 5.376964,16 z M 7.376964,16 C 7.3606945,16.003332 7.3301173,16.026378 7.314464,16.03125 C 7.2914934,16.039666 7.2419674,16.05095 7.220714,16.0625 C 7.1519872,16.104274 7.0749877,16.181273 7.033214,16.25 C 7.0216637,16.271253 7.0103799,16.320779 7.001964,16.34375 C 6.9946559,16.36723 6.9745098,16.412681 6.970714,16.4375 C 6.969006,16.454302 6.970714,16.48275 6.970714,16.5 C 6.970714,16.51725 6.969006,16.545698 6.970714,16.5625 C 6.9745098,16.587319 6.9946559,16.63277 7.001964,16.65625 C 7.0103799,16.679221 7.0216637,16.728747 7.033214,16.75 C 7.0749877,16.818727 7.1519872,16.895726 7.220714,16.9375 C 7.2419674,16.94905 7.2914934,16.960334 7.314464,16.96875 C 7.337944,16.976058 7.3833948,16.996204 7.408214,17 C 7.4250158,17.001708 7.453464,17 7.470714,17 C 7.487964,17 7.5164122,17.001708 7.533214,17 C 7.5580332,16.996204 7.603484,16.976058 7.626964,16.96875 C 7.6499346,16.960334 7.6994606,16.94905 7.720714,16.9375 C 7.7894408,16.895726 7.8664403,16.818727 7.908214,16.75 C 7.9197643,16.728747 7.9310481,16.679221 7.939464,16.65625 C 7.9467721,16.63277 7.9669182,16.587319 7.970714,16.5625 C 7.972422,16.545698 7.970714,16.51725 7.970714,16.5 C 7.970714,16.48275 7.972422,16.454302 7.970714,16.4375 C 7.9669182,16.412681 7.9467721,16.36723 7.939464,16.34375 C 7.9310481,16.320779 7.9197643,16.271253 7.908214,16.25 C 7.8664403,16.181273 7.7894408,16.104274 7.720714,16.0625 C 7.6994606,16.05095 7.6499346,16.039666 7.626964,16.03125 C 7.603484,16.023942 7.5580332,16.003796 7.533214,16 C 7.5164122,15.998292 7.487964,16 7.470714,16 C 7.453464,16 7.4250158,15.998292 7.408214,16 C 7.3999409,16.001265 7.3850988,15.998334 7.376964,16 z M 9.376964,16 C 9.3606945,16.003332 9.3301173,16.026378 9.314464,16.03125 C 9.2914934,16.039666 9.2419674,16.05095 9.220714,16.0625 C 9.1519872,16.104274 9.0749877,16.181273 9.033214,16.25 C 9.0216637,16.271253 9.0103799,16.320779 9.001964,16.34375 C 8.9946559,16.36723 8.9745098,16.412681 8.970714,16.4375 C 8.969006,16.454302 8.970714,16.48275 8.970714,16.5 C 8.970714,16.51725 8.969006,16.545698 8.970714,16.5625 C 8.9745098,16.587319 8.9946559,16.63277 9.001964,16.65625 C 9.0103799,16.679221 9.0216637,16.728747 9.033214,16.75 C 9.0749877,16.818727 9.1519872,16.895726 9.220714,16.9375 C 9.2419674,16.94905 9.2914934,16.960334 9.314464,16.96875 C 9.337944,16.976058 9.3833948,16.996204 9.408214,17 C 9.4250158,17.001708 9.453464,17 9.470714,17 C 9.487964,17 9.5164122,17.001708 9.533214,17 C 9.5580332,16.996204 9.603484,16.976058 9.626964,16.96875 C 9.6499346,16.960334 9.6994606,16.94905 9.720714,16.9375 C 9.7894408,16.895726 9.8664403,16.818727 9.908214,16.75 C 9.9197643,16.728747 9.9310481,16.679221 9.939464,16.65625 C 9.9467721,16.63277 9.9669182,16.587319 9.970714,16.5625 C 9.972422,16.545698 9.970714,16.51725 9.970714,16.5 C 9.970714,16.48275 9.972422,16.454302 9.970714,16.4375 C 9.9669182,16.412681 9.9467721,16.36723 9.939464,16.34375 C 9.9310481,16.320779 9.9197643,16.271253 9.908214,16.25 C 9.8664403,16.181273 9.7894408,16.104274 9.720714,16.0625 C 9.6994606,16.05095 9.6499346,16.039666 9.626964,16.03125 C 9.603484,16.023942 9.5580332,16.003796 9.533214,16 C 9.5164122,15.998292 9.487964,16 9.470714,16 C 9.453464,16 9.4250158,15.998292 9.408214,16 C 9.3999409,16.001265 9.3850988,15.998334 9.376964,16 z M 11.376964,16 C 11.360694,16.003332 11.330117,16.026378 11.314464,16.03125 C 11.291493,16.039666 11.241967,16.05095 11.220714,16.0625 C 11.151987,16.104274 11.074988,16.181273 11.033214,16.25 C 11.021664,16.271253 11.01038,16.320779 11.001964,16.34375 C 10.994656,16.36723 10.97451,16.412681 10.970714,16.4375 C 10.969006,16.454302 10.970714,16.48275 10.970714,16.5 C 10.970714,16.51725 10.969006,16.545698 10.970714,16.5625 C 10.97451,16.587319 10.994656,16.63277 11.001964,16.65625 C 11.01038,16.679221 11.021664,16.728747 11.033214,16.75 C 11.074988,16.818727 11.151987,16.895726 11.220714,16.9375 C 11.241967,16.94905 11.291493,16.960334 11.314464,16.96875 C 11.337944,16.976058 11.383395,16.996204 11.408214,17 C 11.425016,17.001708 11.453464,17 11.470714,17 C 11.487964,17 11.516412,17.001708 11.533214,17 C 11.558033,16.996204 11.603484,16.976058 11.626964,16.96875 C 11.649935,16.960334 11.699461,16.94905 11.720714,16.9375 C 11.789441,16.895726 11.86644,16.818727 11.908214,16.75 C 11.919764,16.728747 11.931048,16.679221 11.939464,16.65625 C 11.946772,16.63277 11.966918,16.587319 11.970714,16.5625 C 11.972422,16.545698 11.970714,16.51725 11.970714,16.5 C 11.970714,16.48275 11.972422,16.454302 11.970714,16.4375 C 11.966918,16.412681 11.946772,16.36723 11.939464,16.34375 C 11.931048,16.320779 11.919764,16.271253 11.908214,16.25 C 11.86644,16.181273 11.789441,16.104274 11.720714,16.0625 C 11.699461,16.05095 11.649935,16.039666 11.626964,16.03125 C 11.603484,16.023942 11.558033,16.003796 11.533214,16 C 11.516412,15.998292 11.487964,16 11.470714,16 C 11.453464,16 11.425016,15.998292 11.408214,16 C 11.399941,16.001265 11.385099,15.998334 11.376964,16 z M 13.376964,16 C 13.360694,16.003332 13.330117,16.026378 13.314464,16.03125 C 13.291493,16.039666 13.241967,16.05095 13.220714,16.0625 C 13.151987,16.104274 13.074988,16.181273 13.033214,16.25 C 13.021664,16.271253 13.01038,16.320779 13.001964,16.34375 C 12.994656,16.36723 12.97451,16.412681 12.970714,16.4375 C 12.969006,16.454302 12.970714,16.48275 12.970714,16.5 C 12.970714,16.51725 12.969006,16.545698 12.970714,16.5625 C 12.97451,16.587319 12.994656,16.63277 13.001964,16.65625 C 13.01038,16.679221 13.021664,16.728747 13.033214,16.75 C 13.074988,16.818727 13.151987,16.895726 13.220714,16.9375 C 13.241967,16.94905 13.291493,16.960334 13.314464,16.96875 C 13.337944,16.976058 13.383395,16.996204 13.408214,17 C 13.425016,17.001708 13.453464,17 13.470714,17 C 13.487964,17 13.516412,17.001708 13.533214,17 C 13.558033,16.996204 13.603484,16.976058 13.626964,16.96875 C 13.649935,16.960334 13.699461,16.94905 13.720714,16.9375 C 13.789441,16.895726 13.86644,16.818727 13.908214,16.75 C 13.919764,16.728747 13.931048,16.679221 13.939464,16.65625 C 13.946772,16.63277 13.966918,16.587319 13.970714,16.5625 C 13.972422,16.545698 13.970714,16.51725 13.970714,16.5 C 13.970714,16.48275 13.972422,16.454302 13.970714,16.4375 C 13.966918,16.412681 13.946772,16.36723 13.939464,16.34375 C 13.931048,16.320779 13.919764,16.271253 13.908214,16.25 C 13.86644,16.181273 13.789441,16.104274 13.720714,16.0625 C 13.699461,16.05095 13.649935,16.039666 13.626964,16.03125 C 13.603484,16.023942 13.558033,16.003796 13.533214,16 C 13.516412,15.998292 13.487964,16 13.470714,16 C 13.453464,16 13.425016,15.998292 13.408214,16 C 13.399941,16.001265 13.385099,15.998334 13.376964,16 z M 15.376964,16 C 15.360694,16.003332 15.330117,16.026378 15.314464,16.03125 C 15.291493,16.039666 15.241967,16.05095 15.220714,16.0625 C 15.151987,16.104274 15.074988,16.181273 15.033214,16.25 C 15.021664,16.271253 15.01038,16.320779 15.001964,16.34375 C 14.994656,16.36723 14.97451,16.412681 14.970714,16.4375 C 14.969006,16.454302 14.970714,16.48275 14.970714,16.5 C 14.970714,16.51725 14.969006,16.545698 14.970714,16.5625 C 14.97451,16.587319 14.994656,16.63277 15.001964,16.65625 C 15.01038,16.679221 15.021664,16.728747 15.033214,16.75 C 15.074988,16.818727 15.151987,16.895726 15.220714,16.9375 C 15.241967,16.94905 15.291493,16.960334 15.314464,16.96875 C 15.337944,16.976058 15.383395,16.996204 15.408214,17 C 15.425016,17.001708 15.453464,17 15.470714,17 C 15.487964,17 15.516412,17.001708 15.533214,17 C 15.558033,16.996204 15.603484,16.976058 15.626964,16.96875 C 15.649935,16.960334 15.699461,16.94905 15.720714,16.9375 C 15.789441,16.895726 15.86644,16.818727 15.908214,16.75 C 15.919764,16.728747 15.931048,16.679221 15.939464,16.65625 C 15.946772,16.63277 15.966918,16.587319 15.970714,16.5625 C 15.972422,16.545698 15.970714,16.51725 15.970714,16.5 C 15.970714,16.48275 15.972422,16.454302 15.970714,16.4375 C 15.966918,16.412681 15.946772,16.36723 15.939464,16.34375 C 15.931048,16.320779 15.919764,16.271253 15.908214,16.25 C 15.86644,16.181273 15.789441,16.104274 15.720714,16.0625 C 15.699461,16.05095 15.649935,16.039666 15.626964,16.03125 C 15.603484,16.023942 15.558033,16.003796 15.533214,16 C 15.516412,15.998292 15.487964,16 15.470714,16 C 15.453464,16 15.425016,15.998292 15.408214,16 C 15.399941,16.001265 15.385099,15.998334 15.376964,16 z M 17.376964,16 C 17.360694,16.003332 17.330117,16.026378 17.314464,16.03125 C 17.291493,16.039666 17.241967,16.05095 17.220714,16.0625 C 17.151987,16.104274 17.074988,16.181273 17.033214,16.25 C 17.021664,16.271253 17.01038,16.320779 17.001964,16.34375 C 16.994656,16.36723 16.97451,16.412681 16.970714,16.4375 C 16.969006,16.454302 16.970714,16.48275 16.970714,16.5 C 16.970714,16.51725 16.969006,16.545698 16.970714,16.5625 C 16.97451,16.587319 16.994656,16.63277 17.001964,16.65625 C 17.01038,16.679221 17.021664,16.728747 17.033214,16.75 C 17.074988,16.818727 17.151987,16.895726 17.220714,16.9375 C 17.241967,16.94905 17.291493,16.960334 17.314464,16.96875 C 17.337944,16.976058 17.383395,16.996204 17.408214,17 C 17.425016,17.001708 17.453464,17 17.470714,17 C 17.487964,17 17.516412,17.001708 17.533214,17 C 17.558033,16.996204 17.603484,16.976058 17.626964,16.96875 C 17.649935,16.960334 17.699461,16.94905 17.720714,16.9375 C 17.789441,16.895726 17.86644,16.818727 17.908214,16.75 C 17.919764,16.728747 17.931048,16.679221 17.939464,16.65625 C 17.946772,16.63277 17.966918,16.587319 17.970714,16.5625 C 17.972422,16.545698 17.970714,16.51725 17.970714,16.5 C 17.970714,16.48275 17.972422,16.454302 17.970714,16.4375 C 17.966918,16.412681 17.946772,16.36723 17.939464,16.34375 C 17.931048,16.320779 17.919764,16.271253 17.908214,16.25 C 17.86644,16.181273 17.789441,16.104274 17.720714,16.0625 C 17.699461,16.05095 17.649935,16.039666 17.626964,16.03125 C 17.603484,16.023942 17.558033,16.003796 17.533214,16 C 17.516412,15.998292 17.487964,16 17.470714,16 C 17.453464,16 17.425016,15.998292 17.408214,16 C 17.399941,16.001265 17.385099,15.998334 17.376964,16 z M 4.376964,17 C 4.3606945,17.003332 4.3301173,17.026378 4.314464,17.03125 C 4.2914934,17.039666 4.2419674,17.05095 4.220714,17.0625 C 4.1519872,17.104274 4.0749877,17.181273 4.033214,17.25 C 4.0216637,17.271253 4.0103799,17.320779 4.001964,17.34375 C 3.9946559,17.36723 3.9745098,17.412681 3.970714,17.4375 C 3.969006,17.454302 3.970714,17.48275 3.970714,17.5 C 3.970714,17.51725 3.969006,17.545698 3.970714,17.5625 C 3.9745098,17.587319 3.9946559,17.63277 4.001964,17.65625 C 4.0103799,17.679221 4.0216637,17.728747 4.033214,17.75 C 4.0749877,17.818727 4.1519872,17.895726 4.220714,17.9375 C 4.2419674,17.94905 4.2914934,17.960334 4.314464,17.96875 C 4.337944,17.976058 4.3833948,17.996204 4.408214,18 C 4.4250158,18.001708 4.453464,18 4.470714,18 C 4.487964,18 4.5164122,18.001708 4.533214,18 C 4.5580332,17.996204 4.603484,17.976058 4.626964,17.96875 C 4.6499346,17.960334 4.6994606,17.94905 4.720714,17.9375 C 4.7894408,17.895726 4.8664403,17.818727 4.908214,17.75 C 4.9197643,17.728747 4.9310481,17.679221 4.939464,17.65625 C 4.9467721,17.63277 4.9669182,17.587319 4.970714,17.5625 C 4.972422,17.545698 4.970714,17.51725 4.970714,17.5 C 4.970714,17.48275 4.972422,17.454302 4.970714,17.4375 C 4.9669182,17.412681 4.9467721,17.36723 4.939464,17.34375 C 4.9310481,17.320779 4.9197643,17.271253 4.908214,17.25 C 4.8664403,17.181273 4.7894408,17.104274 4.720714,17.0625 C 4.6994606,17.05095 4.6499346,17.039666 4.626964,17.03125 C 4.603484,17.023942 4.5580332,17.003796 4.533214,17 C 4.5164122,16.998292 4.487964,17 4.470714,17 C 4.453464,17 4.4250158,16.998292 4.408214,17 C 4.3999409,17.001265 4.3850988,16.998334 4.376964,17 z M 6.376964,17 C 6.3606945,17.003332 6.3301173,17.026378 6.314464,17.03125 C 6.2914934,17.039666 6.2419674,17.05095 6.220714,17.0625 C 6.1519872,17.104274 6.0749877,17.181273 6.033214,17.25 C 6.0216637,17.271253 6.0103799,17.320779 6.001964,17.34375 C 5.9946559,17.36723 5.9745098,17.412681 5.970714,17.4375 C 5.969006,17.454302 5.970714,17.48275 5.970714,17.5 C 5.970714,17.51725 5.969006,17.545698 5.970714,17.5625 C 5.9745098,17.587319 5.9946559,17.63277 6.001964,17.65625 C 6.0103799,17.679221 6.0216637,17.728747 6.033214,17.75 C 6.0749877,17.818727 6.1519872,17.895726 6.220714,17.9375 C 6.2419674,17.94905 6.2914934,17.960334 6.314464,17.96875 C 6.337944,17.976058 6.3833948,17.996204 6.408214,18 C 6.4250158,18.001708 6.453464,18 6.470714,18 C 6.487964,18 6.5164122,18.001708 6.533214,18 C 6.5580332,17.996204 6.603484,17.976058 6.626964,17.96875 C 6.6499346,17.960334 6.6994606,17.94905 6.720714,17.9375 C 6.7894408,17.895726 6.8664403,17.818727 6.908214,17.75 C 6.9197643,17.728747 6.9310481,17.679221 6.939464,17.65625 C 6.9467721,17.63277 6.9669182,17.587319 6.970714,17.5625 C 6.972422,17.545698 6.970714,17.51725 6.970714,17.5 C 6.970714,17.48275 6.972422,17.454302 6.970714,17.4375 C 6.9669182,17.412681 6.9467721,17.36723 6.939464,17.34375 C 6.9310481,17.320779 6.9197643,17.271253 6.908214,17.25 C 6.8664403,17.181273 6.7894408,17.104274 6.720714,17.0625 C 6.6994606,17.05095 6.6499346,17.039666 6.626964,17.03125 C 6.603484,17.023942 6.5580332,17.003796 6.533214,17 C 6.5164122,16.998292 6.487964,17 6.470714,17 C 6.453464,17 6.4250158,16.998292 6.408214,17 C 6.3999409,17.001265 6.3850988,16.998334 6.376964,17 z M 8.376964,17 C 8.3606945,17.003332 8.3301173,17.026378 8.314464,17.03125 C 8.2914934,17.039666 8.2419674,17.05095 8.220714,17.0625 C 8.1519872,17.104274 8.0749877,17.181273 8.033214,17.25 C 8.0216637,17.271253 8.0103799,17.320779 8.001964,17.34375 C 7.9946559,17.36723 7.9745098,17.412681 7.970714,17.4375 C 7.969006,17.454302 7.970714,17.48275 7.970714,17.5 C 7.970714,17.51725 7.969006,17.545698 7.970714,17.5625 C 7.9745098,17.587319 7.9946559,17.63277 8.001964,17.65625 C 8.0103799,17.679221 8.0216637,17.728747 8.033214,17.75 C 8.0749877,17.818727 8.1519872,17.895726 8.220714,17.9375 C 8.2419674,17.94905 8.2914934,17.960334 8.314464,17.96875 C 8.337944,17.976058 8.3833948,17.996204 8.408214,18 C 8.4250158,18.001708 8.453464,18 8.470714,18 C 8.487964,18 8.5164122,18.001708 8.533214,18 C 8.5580332,17.996204 8.603484,17.976058 8.626964,17.96875 C 8.6499346,17.960334 8.6994606,17.94905 8.720714,17.9375 C 8.7894408,17.895726 8.8664403,17.818727 8.908214,17.75 C 8.9197643,17.728747 8.9310481,17.679221 8.939464,17.65625 C 8.9467721,17.63277 8.9669182,17.587319 8.970714,17.5625 C 8.972422,17.545698 8.970714,17.51725 8.970714,17.5 C 8.970714,17.48275 8.972422,17.454302 8.970714,17.4375 C 8.9669182,17.412681 8.9467721,17.36723 8.939464,17.34375 C 8.9310481,17.320779 8.9197643,17.271253 8.908214,17.25 C 8.8664403,17.181273 8.7894408,17.104274 8.720714,17.0625 C 8.6994606,17.05095 8.6499346,17.039666 8.626964,17.03125 C 8.603484,17.023942 8.5580332,17.003796 8.533214,17 C 8.5164122,16.998292 8.487964,17 8.470714,17 C 8.453464,17 8.4250158,16.998292 8.408214,17 C 8.3999409,17.001265 8.3850988,16.998334 8.376964,17 z M 10.376964,17 C 10.360694,17.003332 10.330117,17.026378 10.314464,17.03125 C 10.291493,17.039666 10.241967,17.05095 10.220714,17.0625 C 10.151987,17.104274 10.074988,17.181273 10.033214,17.25 C 10.021664,17.271253 10.01038,17.320779 10.001964,17.34375 C 9.994656,17.36723 9.97451,17.412681 9.970714,17.4375 C 9.969006,17.454302 9.970714,17.48275 9.970714,17.5 C 9.970714,17.51725 9.969006,17.545698 9.970714,17.5625 C 9.97451,17.587319 9.994656,17.63277 10.001964,17.65625 C 10.01038,17.679221 10.021664,17.728747 10.033214,17.75 C 10.074988,17.818727 10.151987,17.895726 10.220714,17.9375 C 10.241967,17.94905 10.291493,17.960334 10.314464,17.96875 C 10.337944,17.976058 10.383395,17.996204 10.408214,18 C 10.425016,18.001708 10.453464,18 10.470714,18 C 10.487964,18 10.516412,18.001708 10.533214,18 C 10.558033,17.996204 10.603484,17.976058 10.626964,17.96875 C 10.649935,17.960334 10.699461,17.94905 10.720714,17.9375 C 10.789441,17.895726 10.86644,17.818727 10.908214,17.75 C 10.919764,17.728747 10.931048,17.679221 10.939464,17.65625 C 10.946772,17.63277 10.966918,17.587319 10.970714,17.5625 C 10.972422,17.545698 10.970714,17.51725 10.970714,17.5 C 10.970714,17.48275 10.972422,17.454302 10.970714,17.4375 C 10.966918,17.412681 10.946772,17.36723 10.939464,17.34375 C 10.931048,17.320779 10.919764,17.271253 10.908214,17.25 C 10.86644,17.181273 10.789441,17.104274 10.720714,17.0625 C 10.699461,17.05095 10.649935,17.039666 10.626964,17.03125 C 10.603484,17.023942 10.558033,17.003796 10.533214,17 C 10.516412,16.998292 10.487964,17 10.470714,17 C 10.453464,17 10.425016,16.998292 10.408214,17 C 10.399941,17.001265 10.385099,16.998334 10.376964,17 z M 12.376964,17 C 12.360694,17.003332 12.330117,17.026378 12.314464,17.03125 C 12.291493,17.039666 12.241967,17.05095 12.220714,17.0625 C 12.151987,17.104274 12.074988,17.181273 12.033214,17.25 C 12.021664,17.271253 12.01038,17.320779 12.001964,17.34375 C 11.994656,17.36723 11.97451,17.412681 11.970714,17.4375 C 11.969006,17.454302 11.970714,17.48275 11.970714,17.5 C 11.970714,17.51725 11.969006,17.545698 11.970714,17.5625 C 11.97451,17.587319 11.994656,17.63277 12.001964,17.65625 C 12.01038,17.679221 12.021664,17.728747 12.033214,17.75 C 12.074988,17.818727 12.151987,17.895726 12.220714,17.9375 C 12.241967,17.94905 12.291493,17.960334 12.314464,17.96875 C 12.337944,17.976058 12.383395,17.996204 12.408214,18 C 12.425016,18.001708 12.453464,18 12.470714,18 C 12.487964,18 12.516412,18.001708 12.533214,18 C 12.558033,17.996204 12.603484,17.976058 12.626964,17.96875 C 12.649935,17.960334 12.699461,17.94905 12.720714,17.9375 C 12.789441,17.895726 12.86644,17.818727 12.908214,17.75 C 12.919764,17.728747 12.931048,17.679221 12.939464,17.65625 C 12.946772,17.63277 12.966918,17.587319 12.970714,17.5625 C 12.972422,17.545698 12.970714,17.51725 12.970714,17.5 C 12.970714,17.48275 12.972422,17.454302 12.970714,17.4375 C 12.966918,17.412681 12.946772,17.36723 12.939464,17.34375 C 12.931048,17.320779 12.919764,17.271253 12.908214,17.25 C 12.86644,17.181273 12.789441,17.104274 12.720714,17.0625 C 12.699461,17.05095 12.649935,17.039666 12.626964,17.03125 C 12.603484,17.023942 12.558033,17.003796 12.533214,17 C 12.516412,16.998292 12.487964,17 12.470714,17 C 12.453464,17 12.425016,16.998292 12.408214,17 C 12.399941,17.001265 12.385099,16.998334 12.376964,17 z M 14.376964,17 C 14.360694,17.003332 14.330117,17.026378 14.314464,17.03125 C 14.291493,17.039666 14.241967,17.05095 14.220714,17.0625 C 14.151987,17.104274 14.074988,17.181273 14.033214,17.25 C 14.021664,17.271253 14.01038,17.320779 14.001964,17.34375 C 13.994656,17.36723 13.97451,17.412681 13.970714,17.4375 C 13.969006,17.454302 13.970714,17.48275 13.970714,17.5 C 13.970714,17.51725 13.969006,17.545698 13.970714,17.5625 C 13.97451,17.587319 13.994656,17.63277 14.001964,17.65625 C 14.01038,17.679221 14.021664,17.728747 14.033214,17.75 C 14.074988,17.818727 14.151987,17.895726 14.220714,17.9375 C 14.241967,17.94905 14.291493,17.960334 14.314464,17.96875 C 14.337944,17.976058 14.383395,17.996204 14.408214,18 C 14.425016,18.001708 14.453464,18 14.470714,18 C 14.487964,18 14.516412,18.001708 14.533214,18 C 14.558033,17.996204 14.603484,17.976058 14.626964,17.96875 C 14.649935,17.960334 14.699461,17.94905 14.720714,17.9375 C 14.789441,17.895726 14.86644,17.818727 14.908214,17.75 C 14.919764,17.728747 14.931048,17.679221 14.939464,17.65625 C 14.946772,17.63277 14.966918,17.587319 14.970714,17.5625 C 14.972422,17.545698 14.970714,17.51725 14.970714,17.5 C 14.970714,17.48275 14.972422,17.454302 14.970714,17.4375 C 14.966918,17.412681 14.946772,17.36723 14.939464,17.34375 C 14.931048,17.320779 14.919764,17.271253 14.908214,17.25 C 14.86644,17.181273 14.789441,17.104274 14.720714,17.0625 C 14.699461,17.05095 14.649935,17.039666 14.626964,17.03125 C 14.603484,17.023942 14.558033,17.003796 14.533214,17 C 14.516412,16.998292 14.487964,17 14.470714,17 C 14.453464,17 14.425016,16.998292 14.408214,17 C 14.399941,17.001265 14.385099,16.998334 14.376964,17 z M 16.376964,17 C 16.360694,17.003332 16.330117,17.026378 16.314464,17.03125 C 16.291493,17.039666 16.241967,17.05095 16.220714,17.0625 C 16.151987,17.104274 16.074988,17.181273 16.033214,17.25 C 16.021664,17.271253 16.01038,17.320779 16.001964,17.34375 C 15.994656,17.36723 15.97451,17.412681 15.970714,17.4375 C 15.969006,17.454302 15.970714,17.48275 15.970714,17.5 C 15.970714,17.51725 15.969006,17.545698 15.970714,17.5625 C 15.97451,17.587319 15.994656,17.63277 16.001964,17.65625 C 16.01038,17.679221 16.021664,17.728747 16.033214,17.75 C 16.074988,17.818727 16.151987,17.895726 16.220714,17.9375 C 16.241967,17.94905 16.291493,17.960334 16.314464,17.96875 C 16.337944,17.976058 16.383395,17.996204 16.408214,18 C 16.425016,18.001708 16.453464,18 16.470714,18 C 16.487964,18 16.516412,18.001708 16.533214,18 C 16.558033,17.996204 16.603484,17.976058 16.626964,17.96875 C 16.649935,17.960334 16.699461,17.94905 16.720714,17.9375 C 16.789441,17.895726 16.86644,17.818727 16.908214,17.75 C 16.919764,17.728747 16.931048,17.679221 16.939464,17.65625 C 16.946772,17.63277 16.966918,17.587319 16.970714,17.5625 C 16.972422,17.545698 16.970714,17.51725 16.970714,17.5 C 16.970714,17.48275 16.972422,17.454302 16.970714,17.4375 C 16.966918,17.412681 16.946772,17.36723 16.939464,17.34375 C 16.931048,17.320779 16.919764,17.271253 16.908214,17.25 C 16.86644,17.181273 16.789441,17.104274 16.720714,17.0625 C 16.699461,17.05095 16.649935,17.039666 16.626964,17.03125 C 16.603484,17.023942 16.558033,17.003796 16.533214,17 C 16.516412,16.998292 16.487964,17 16.470714,17 C 16.453464,17 16.425016,16.998292 16.408214,17 C 16.399941,17.001265 16.385099,16.998334 16.376964,17 z M 5.376964,18 C 5.3606945,18.003332 5.3301173,18.026378 5.314464,18.03125 C 5.2914934,18.039666 5.2419674,18.05095 5.220714,18.0625 C 5.1519872,18.104274 5.0749877,18.181273 5.033214,18.25 C 5.0216637,18.271253 5.0103799,18.320779 5.001964,18.34375 C 4.9946559,18.36723 4.9745098,18.412681 4.970714,18.4375 C 4.969006,18.454302 4.970714,18.48275 4.970714,18.5 C 4.970714,18.51725 4.969006,18.545698 4.970714,18.5625 C 4.9745098,18.587319 4.9946559,18.63277 5.001964,18.65625 C 5.0103799,18.679221 5.0216637,18.728747 5.033214,18.75 C 5.0749877,18.818727 5.1519872,18.895726 5.220714,18.9375 C 5.2419674,18.94905 5.2914934,18.960334 5.314464,18.96875 C 5.337944,18.976058 5.3833948,18.996204 5.408214,19 C 5.4250158,19.001708 5.453464,19 5.470714,19 C 5.487964,19 5.5164122,19.001708 5.533214,19 C 5.5580332,18.996204 5.603484,18.976058 5.626964,18.96875 C 5.6499346,18.960334 5.6994606,18.94905 5.720714,18.9375 C 5.7894408,18.895726 5.8664403,18.818727 5.908214,18.75 C 5.9197643,18.728747 5.9310481,18.679221 5.939464,18.65625 C 5.9467721,18.63277 5.9669182,18.587319 5.970714,18.5625 C 5.972422,18.545698 5.970714,18.51725 5.970714,18.5 C 5.970714,18.48275 5.972422,18.454302 5.970714,18.4375 C 5.9669182,18.412681 5.9467721,18.36723 5.939464,18.34375 C 5.9310481,18.320779 5.9197643,18.271253 5.908214,18.25 C 5.8664403,18.181273 5.7894408,18.104274 5.720714,18.0625 C 5.6994606,18.05095 5.6499346,18.039666 5.626964,18.03125 C 5.603484,18.023942 5.5580332,18.003796 5.533214,18 C 5.5164122,17.998292 5.487964,18 5.470714,18 C 5.453464,18 5.4250158,17.998292 5.408214,18 C 5.3999409,18.001265 5.3850988,17.998334 5.376964,18 z M 7.376964,18 C 7.3606945,18.003332 7.3301173,18.026378 7.314464,18.03125 C 7.2914934,18.039666 7.2419674,18.05095 7.220714,18.0625 C 7.1519872,18.104274 7.0749877,18.181273 7.033214,18.25 C 7.0216637,18.271253 7.0103799,18.320779 7.001964,18.34375 C 6.9946559,18.36723 6.9745098,18.412681 6.970714,18.4375 C 6.969006,18.454302 6.970714,18.48275 6.970714,18.5 C 6.970714,18.51725 6.969006,18.545698 6.970714,18.5625 C 6.9745098,18.587319 6.9946559,18.63277 7.001964,18.65625 C 7.0103799,18.679221 7.0216637,18.728747 7.033214,18.75 C 7.0749877,18.818727 7.1519872,18.895726 7.220714,18.9375 C 7.2419674,18.94905 7.2914934,18.960334 7.314464,18.96875 C 7.337944,18.976058 7.3833948,18.996204 7.408214,19 C 7.4250158,19.001708 7.453464,19 7.470714,19 C 7.487964,19 7.5164122,19.001708 7.533214,19 C 7.5580332,18.996204 7.603484,18.976058 7.626964,18.96875 C 7.6499346,18.960334 7.6994606,18.94905 7.720714,18.9375 C 7.7894408,18.895726 7.8664403,18.818727 7.908214,18.75 C 7.9197643,18.728747 7.9310481,18.679221 7.939464,18.65625 C 7.9467721,18.63277 7.9669182,18.587319 7.970714,18.5625 C 7.972422,18.545698 7.970714,18.51725 7.970714,18.5 C 7.970714,18.48275 7.972422,18.454302 7.970714,18.4375 C 7.9669182,18.412681 7.9467721,18.36723 7.939464,18.34375 C 7.9310481,18.320779 7.9197643,18.271253 7.908214,18.25 C 7.8664403,18.181273 7.7894408,18.104274 7.720714,18.0625 C 7.6994606,18.05095 7.6499346,18.039666 7.626964,18.03125 C 7.603484,18.023942 7.5580332,18.003796 7.533214,18 C 7.5164122,17.998292 7.487964,18 7.470714,18 C 7.453464,18 7.4250158,17.998292 7.408214,18 C 7.3999409,18.001265 7.3850988,17.998334 7.376964,18 z M 15.376964,18 C 15.360694,18.003332 15.330117,18.026378 15.314464,18.03125 C 15.291493,18.039666 15.241967,18.05095 15.220714,18.0625 C 15.151987,18.104274 15.074988,18.181273 15.033214,18.25 C 15.021664,18.271253 15.01038,18.320779 15.001964,18.34375 C 14.994656,18.36723 14.97451,18.412681 14.970714,18.4375 C 14.969006,18.454302 14.970714,18.48275 14.970714,18.5 C 14.970714,18.51725 14.969006,18.545698 14.970714,18.5625 C 14.97451,18.587319 14.994656,18.63277 15.001964,18.65625 C 15.01038,18.679221 15.021664,18.728747 15.033214,18.75 C 15.074988,18.818727 15.151987,18.895726 15.220714,18.9375 C 15.241967,18.94905 15.291493,18.960334 15.314464,18.96875 C 15.337944,18.976058 15.383395,18.996204 15.408214,19 C 15.425016,19.001708 15.453464,19 15.470714,19 C 15.487964,19 15.516412,19.001708 15.533214,19 C 15.558033,18.996204 15.603484,18.976058 15.626964,18.96875 C 15.649935,18.960334 15.699461,18.94905 15.720714,18.9375 C 15.789441,18.895726 15.86644,18.818727 15.908214,18.75 C 15.919764,18.728747 15.931048,18.679221 15.939464,18.65625 C 15.946772,18.63277 15.966918,18.587319 15.970714,18.5625 C 15.972422,18.545698 15.970714,18.51725 15.970714,18.5 C 15.970714,18.48275 15.972422,18.454302 15.970714,18.4375 C 15.966918,18.412681 15.946772,18.36723 15.939464,18.34375 C 15.931048,18.320779 15.919764,18.271253 15.908214,18.25 C 15.86644,18.181273 15.789441,18.104274 15.720714,18.0625 C 15.699461,18.05095 15.649935,18.039666 15.626964,18.03125 C 15.603484,18.023942 15.558033,18.003796 15.533214,18 C 15.516412,17.998292 15.487964,18 15.470714,18 C 15.453464,18 15.425016,17.998292 15.408214,18 C 15.399941,18.001265 15.385099,17.998334 15.376964,18 z M 17.376964,18 C 17.360694,18.003332 17.330117,18.026378 17.314464,18.03125 C 17.291493,18.039666 17.241967,18.05095 17.220714,18.0625 C 17.151987,18.104274 17.074988,18.181273 17.033214,18.25 C 17.021664,18.271253 17.01038,18.320779 17.001964,18.34375 C 16.994656,18.36723 16.97451,18.412681 16.970714,18.4375 C 16.969006,18.454302 16.970714,18.48275 16.970714,18.5 C 16.970714,18.51725 16.969006,18.545698 16.970714,18.5625 C 16.97451,18.587319 16.994656,18.63277 17.001964,18.65625 C 17.01038,18.679221 17.021664,18.728747 17.033214,18.75 C 17.074988,18.818727 17.151987,18.895726 17.220714,18.9375 C 17.241967,18.94905 17.291493,18.960334 17.314464,18.96875 C 17.337944,18.976058 17.383395,18.996204 17.408214,19 C 17.425016,19.001708 17.453464,19 17.470714,19 C 17.487964,19 17.516412,19.001708 17.533214,19 C 17.558033,18.996204 17.603484,18.976058 17.626964,18.96875 C 17.649935,18.960334 17.699461,18.94905 17.720714,18.9375 C 17.789441,18.895726 17.86644,18.818727 17.908214,18.75 C 17.919764,18.728747 17.931048,18.679221 17.939464,18.65625 C 17.946772,18.63277 17.966918,18.587319 17.970714,18.5625 C 17.972422,18.545698 17.970714,18.51725 17.970714,18.5 C 17.970714,18.48275 17.972422,18.454302 17.970714,18.4375 C 17.966918,18.412681 17.946772,18.36723 17.939464,18.34375 C 17.931048,18.320779 17.919764,18.271253 17.908214,18.25 C 17.86644,18.181273 17.789441,18.104274 17.720714,18.0625 C 17.699461,18.05095 17.649935,18.039666 17.626964,18.03125 C 17.603484,18.023942 17.558033,18.003796 17.533214,18 C 17.516412,17.998292 17.487964,18 17.470714,18 C 17.453464,18 17.425016,17.998292 17.408214,18 C 17.399941,18.001265 17.385099,17.998334 17.376964,18 z "
       id="path2414" />
    <g
       id="g1598"
       inkscape:label="Shadow"
       transform="translate(-306.25,-49)" />
    <g
       id="g1618"
       inkscape:label="finiture"
       style="display:inline"
       transform="translate(-306.25,-49)" />
    <path
       style="fill:none;fill-opacity:0.75;fill-rule:evenodd;stroke:#ffffff;stroke-width:1;stroke-linecap:round;stroke-linejoin:miter;stroke-opacity:1;stroke-miterlimit:4;stroke-dasharray:none"
       d="M 1.5,19.5 L 20.5,19.5"
       id="path2258" />
    <path
       style="opacity:0.30196078;color:#000000;fill:url(#linearGradient2293);fill-opacity:1.0;fill-rule:nonzero;stroke:none;stroke-width:1;stroke-linecap:round;stroke-linejoin:round;stroke-miterlimit:4;stroke-dashoffset:0;stroke-opacity:1;marker:none;marker-start:none;marker-mid:none;marker-end:none;visibility:visible;display:inline;overflow:visible"
       d="M 4,3 L 18,3 L 18,6 C 10.9375,6.0625 11,10 4,10 L 4,3 z "
       id="rect2260"
       sodipodi:nodetypes="ccccc" />
    <g
       style="display:inline"
       id="g4552"
       transform="matrix(0.436473,0,0,0.436473,35.2564,4.102351)">
      <path
         sodipodi:type="arc"
         style="opacity:0.6;color:black;fill:url(#radialGradient4607);fill-opacity:1;fill-rule:nonzero;stroke:none;stroke-width:2;stroke-linecap:round;stroke-linejoin:round;marker:none;marker-start:none;marker-mid:none;marker-end:none;stroke-miterlimit:4;stroke-dasharray:none;stroke-dashoffset:0;stroke-opacity:1;visibility:visible;display:inline;overflow:visible"
         id="path1425"
         sodipodi:cx="17.5"
         sodipodi:cy="18.25"
         sodipodi:rx="13.5"
         sodipodi:ry="13.75"
         d="M 31 18.25 A 13.5 13.75 0 1 1  4,18.25 A 13.5 13.75 0 1 1  31 18.25 z"
         transform="matrix(1.185185,0,0,1.163637,-83.22,-5.157013)" />
      <path
         sodipodi:type="arc"
         style="opacity:0.16078431;color:black;fill:url(#radialGradient4609);fill-opacity:1;fill-rule:nonzero;stroke:none;stroke-width:1;stroke-linecap:round;stroke-linejoin:miter;marker:none;marker-start:none;marker-mid:none;marker-end:none;stroke-miterlimit:4;stroke-dasharray:none;stroke-dashoffset:0;stroke-opacity:1;visibility:visible;display:inline;overflow:visible"
         id="path11092"
         sodipodi:cx="12.375"
         sodipodi:cy="12.9375"
         sodipodi:rx="9.8125"
         sodipodi:ry="9.8125"
         d="M 22.1875 12.9375 A 9.8125 9.8125 0 1 1  2.5625,12.9375 A 9.8125 9.8125 0 1 1  22.1875 12.9375 z"
         transform="matrix(1.324842,0,0,1.324842,-78.87418,-1.060784)" />
      <path
         style="opacity:0.76804127;color:black;fill:url(#radialGradient4611);fill-opacity:1;fill-rule:nonzero;stroke:none;stroke-width:2;stroke-linecap:round;stroke-linejoin:round;marker:none;marker-start:none;marker-mid:none;marker-end:none;stroke-miterlimit:4;stroke-dasharray:none;stroke-dashoffset:0;stroke-opacity:1;visibility:visible;display:inline;overflow:visible"
         d="M -63.048459,-0.420645 C -71.564621,-0.096603 -78.377332,6.928711 -78.377332,15.523728 C -78.377332,17.940646 -76.974215,20.245518 -75.886024,22.235605 C -76.358095,16.80742 -74.019406,15.622424 -72.466469,16.104532 C -67.754964,17.567216 -59.579126,18.896737 -51.179338,14.511062 C -48.234672,12.973601 -46.517475,16.74053 -46.635134,13.354824 C -47.574574,5.5602357 -54.365107,-0.4206449 -62.432959,-0.420645 C -62.639239,-0.420645 -62.844071,-0.428422 -63.048459,-0.420645 z "
         id="path4939"
         sodipodi:nodetypes="cscsscsc" />
      <path
         transform="matrix(1.6,0,0,1.6,-146.4793,8.879355)"
         d="M 62.5 4.5 A 10 10 0 1 1  42.5,4.5 A 10 10 0 1 1  62.5 4.5 z"
         sodipodi:ry="10"
         sodipodi:rx="10"
         sodipodi:cy="4.5"
         sodipodi:cx="52.5"
         id="path2607"
         style="color:black;fill:none;fill-opacity:1;fill-rule:nonzero;stroke:url(#radialGradient4613);stroke-width:4.29579592;stroke-linecap:round;stroke-linejoin:miter;marker:none;marker-start:none;marker-mid:none;marker-end:none;stroke-miterlimit:4;stroke-dasharray:none;stroke-dashoffset:0;stroke-opacity:1;visibility:visible;display:inline;overflow:visible"
         sodipodi:type="arc" />
      <path
         sodipodi:type="arc"
         style="opacity:0.04705882;color:black;fill:url(#radialGradient4615);fill-opacity:1;fill-rule:nonzero;stroke:none;stroke-width:1;stroke-linecap:round;stroke-linejoin:round;marker:none;marker-start:none;marker-mid:none;marker-end:none;stroke-miterlimit:4;stroke-dasharray:none;stroke-dashoffset:0;stroke-opacity:1;visibility:visible;display:inline;overflow:visible"
         id="path23418"
         sodipodi:cx="28.284271"
         sodipodi:cy="30.145554"
         sodipodi:rx="13.258252"
         sodipodi:ry="4.5078058"
         d="M 41.542523 30.145554 A 13.258252 4.5078058 0 1 1  15.026019,30.145554 A 13.258252 4.5078058 0 1 1  41.542523 30.145554 z"
         transform="matrix(0.98756,0.175983,-0.12162,0.682489,-71.89184,14.00821)" />
      <path
         sodipodi:nodetypes="cczzzccc"
         id="path2682"
         d="M -50.069485,28.489115 L -49.069484,33.489116 L -41.069483,41.497126 C -40.772249,41.794659 -39.569483,41.989115 -38.069485,40.489116 C -36.569484,38.989116 -36.686672,37.871929 -37.069484,37.489115 L -39.270162,35.288437 L -45.069485,29.489115 L -50.069485,28.489115 z "
         style="color:black;fill:url(#linearGradient4617);fill-opacity:1;fill-rule:nonzero;stroke:url(#linearGradient4619);stroke-width:2.38704872;stroke-linecap:round;stroke-linejoin:round;marker:none;marker-start:none;marker-mid:none;marker-end:none;stroke-miterlimit:4;stroke-dashoffset:0;stroke-opacity:1;visibility:visible;display:inline;overflow:visible" />
      <path
         sodipodi:nodetypes="csccc"
         id="path2687"
         d="M -46.20075,30.462614 C -46.20536,30.479824 -45.746643,30.960772 -46.579492,31.79124 C -47.412352,32.621707 -48.134575,32.365692 -48.113486,32.344604 L -48.529066,30.007437 L -46.20075,30.462614 z "
         style="opacity:0.19215686;color:black;fill:white;fill-opacity:1;fill-rule:nonzero;stroke:none;stroke-width:0.99999964;stroke-linecap:round;stroke-linejoin:miter;marker:none;marker-start:none;marker-mid:none;marker-end:none;stroke-miterlimit:4;stroke-dashoffset:0;stroke-opacity:1;visibility:visible;display:inline;overflow:visible" />
      <path
         sodipodi:nodetypes="cczzzcc"
         id="path17267"
         d="M -47.565456,30.98793 L -47.123063,33.262788 L -41.309462,39.111544 C -41.047298,39.375293 -40.645872,39.266393 -39.982285,38.60278 C -39.318695,37.939166 -39.14752,37.606908 -39.477083,37.275553 L -45.290684,31.430339 L -47.565456,30.98793 z "
         style="color:black;fill:none;fill-opacity:1;fill-rule:nonzero;stroke:url(#linearGradient4621);stroke-width:2.29108906;stroke-linecap:round;stroke-linejoin:miter;marker:none;marker-start:none;marker-mid:none;marker-end:none;stroke-miterlimit:4;stroke-dasharray:none;stroke-dashoffset:0;stroke-opacity:1;visibility:visible;display:inline;overflow:visible" />
      <path
         transform="matrix(1.65,0,0,1.65,-149.1043,8.654355)"
         d="M 62.5 4.5 A 10 10 0 1 1  42.5,4.5 A 10 10 0 1 1  62.5 4.5 z"
         sodipodi:ry="10"
         sodipodi:rx="10"
         sodipodi:cy="4.5"
         sodipodi:cx="52.5"
         id="path2605"
         style="color:black;fill:none;fill-opacity:1;fill-rule:nonzero;stroke:url(#radialGradient4625);stroke-width:1.38854039;stroke-linecap:round;stroke-linejoin:miter;marker:none;marker-start:none;marker-mid:none;marker-end:none;stroke-miterlimit:4;stroke-dasharray:none;stroke-dashoffset:0;stroke-opacity:1;visibility:visible;display:inline;overflow:visible"
         sodipodi:type="arc" />
      <path
         transform="matrix(1.851728,0,0,1.851728,-159.695,7.746582)"
         d="M 62.5 4.5 A 10 10 0 1 1  42.5,4.5 A 10 10 0 1 1  62.5 4.5 z"
         sodipodi:ry="10"
         sodipodi:rx="10"
         sodipodi:cy="4.5"
         sodipodi:cx="52.5"
         id="path2599"
         style="color:black;fill:none;fill-opacity:1;fill-rule:nonzero;stroke:url(#linearGradient4627);stroke-width:1.23727179;stroke-linecap:round;stroke-linejoin:miter;marker:none;marker-start:none;marker-mid:none;marker-end:none;stroke-miterlimit:4;stroke-dasharray:none;stroke-dashoffset:0;stroke-opacity:1;visibility:visible;display:inline;overflow:visible"
         sodipodi:type="arc" />
      <path
         transform="matrix(1.309758,0,0,1.309761,-131.2416,10.18543)"
         d="M 62.5 4.5 A 10 10 0 1 1  42.5,4.5 A 10 10 0 1 1  62.5 4.5 z"
         sodipodi:ry="10"
         sodipodi:rx="10"
         sodipodi:cy="4.5"
         sodipodi:cx="52.5"
         id="path4927"
         style="color:black;fill:none;fill-opacity:1;fill-rule:nonzero;stroke:url(#linearGradient4629);stroke-width:1.74924695;stroke-linecap:round;stroke-linejoin:miter;marker:none;marker-start:none;marker-mid:none;marker-end:none;stroke-miterlimit:4;stroke-dasharray:none;stroke-dashoffset:0;stroke-opacity:1;visibility:visible;display:inline;overflow:visible"
         sodipodi:type="arc" />
    </g>
  </g>
  <g
     inkscape:groupmode="layer"
     id="layer3"
     inkscape:label="finiture"
     style="display:inline" />
</svg>
