<svg height="32" width="32" xmlns="http://www.w3.org/2000/svg"><linearGradient id="a" gradientUnits="userSpaceOnUse" x1="16" x2="16" y1="27" y2="5"><stop offset="0" stop-color="#1a1e22"/><stop offset="1" stop-color="#292c2f"/></linearGradient><linearGradient id="c" gradientTransform="rotate(-165 -6.658 22.948)" gradientUnits="userSpaceOnUse" x1="-30.369" x2="-23.122" y1="22.001" y2="49.047"><stop offset="0" stop-color="#afb4b9"/><stop offset="1" stop-color="#cfd2d5"/></linearGradient><linearGradient id="b" gradientTransform="rotate(-165 -6.658 22.948)" gradientUnits="userSpaceOnUse" x1="-18.122" x2="-31.954" y1="29.072" y2="43.131"><stop offset="0" stop-color="#babec3"/><stop offset="1" stop-color="#eff0f1"/></linearGradient><circle cx="16" cy="16" fill="url(#a)" fill-rule="evenodd" r="11.5"/><path d="M15.65 7.016c-.254 0-.508.012-.761.037-.762.08-1.544.263-1.787.422-.07.045.422.17 1.267.326.38.07.707.137.93.19.222.05.34.087.299.095-.083.016-1.275-.115-2.649-.29-2.413-.31-2.507-.317-2.676-.165-.35.316-.849 1.183-.953 1.647-.1.45-.097.504.13.96.38.78 1.088 1.344 2.7 2.159.382.193.723.374.967.508.245.135.389.222.379.234-.025.023-.674-.22-1.447-.54l-1.405-.585L2.987 14l5.35 12 4.472-5.334s2.074.873 4.488 1.909c3.608 1.55 4.27 1.825 4.453 1.77a.108.108 0 0 0 .057-.044c.168-.226.748-1.442 1.054-2.21l.262-.653-.44-.24c-.62-.34-1.535-1.1-2.107-1.75-.52-.595-1.463-2.027-1.463-2.227 0-.066.3.233.666.668 1.026 1.223 3.39 3.14 3.537 2.867.177-.324.293-1.279.287-2.385-.007-1.35-.187-2.396-.65-3.847l-.258-.813-1.289-.408-1.576-.494c-.556-.175-.208-.163.607.018a33.098 33.098 0 0 0 2.572.476c.54.07.66-.039.718-.639.073-.764-.422-2.877-.92-3.93-.2-.42-.288-.51-.686-.69-1.159-.53-4.48-1.034-6.47-1.028z" fill="url(#b)" fill-rule="evenodd"/><path d="M16 2a14 14 0 0 0-3 .336v2.059a12 12 0 0 0-3.084 1.277L8.463 4.219a14 14 0 0 0-4.254 4.234l1.463 1.463A12 12 0 0 0 4.39 13H2.34A14 14 0 0 0 2 16a14 14 0 0 0 .336 3h2.059a12 12 0 0 0 1.277 3.084l-1.453 1.453a14 14 0 0 0 4.234 4.254l1.463-1.463A12 12 0 0 0 13 27.61v2.051a14 14 0 0 0 3 .34 13.997 13.997 0 0 0 3-.336v-2.059a12 12 0 0 0 3.084-1.277l1.453 1.453a14 14 0 0 0 4.254-4.234l-1.463-1.463A12 12 0 0 0 27.61 19h2.051a14 14 0 0 0 .34-3 13.997 13.997 0 0 0-.336-3h-2.059a12 12 0 0 0-1.277-3.084l1.453-1.453a14 14 0 0 0-4.234-4.254l-1.463 1.463A12 12 0 0 0 19 4.39V2.34A14 14 0 0 0 16 2zm0 3a11 11 0 0 1 11 11 11 11 0 0 1-11 11A11 11 0 0 1 5 16 11 11 0 0 1 16 5z" fill="url(#c)"/></svg>