<svg height="32" width="32" xmlns="http://www.w3.org/2000/svg" xmlns:xlink="http://www.w3.org/1999/xlink"><linearGradient id="b" gradientTransform="rotate(-165 -6.658 22.948)" gradientUnits="userSpaceOnUse" x1="30" x2="2" y1="30" y2="2"><stop offset="0" stop-color="#afb4b9"/><stop offset="1" stop-color="#cfd2d5"/></linearGradient><linearGradient id="d" gradientUnits="userSpaceOnUse" x1="15.079" x2="15.079" y1="22.858" y2="4.999"><stop offset="0" stop-color="#232629"/><stop offset="1" stop-color="#4d4d4d"/></linearGradient><linearGradient id="e" gradientUnits="userSpaceOnUse" x1="16.78" x2="16.531" y1="22.81" y2="13.31"><stop offset="0" stop-color="#fcfcfc"/><stop offset="1" stop-color="#eff0f1"/></linearGradient><linearGradient id="f" gradientUnits="userSpaceOnUse" x1="11.508" x2="11.508" xlink:href="#a" y1="25.001" y2="18.572"/><linearGradient id="a"><stop offset="0" stop-color="#f39c1f"/><stop offset="1" stop-color="#fdbc4b"/></linearGradient><linearGradient id="g" gradientUnits="userSpaceOnUse" x1="20.635" x2="20.54" xlink:href="#a" y1="24.673" y2="19.744"/><linearGradient id="h" gradientUnits="userSpaceOnUse" x1="13.769" x2="16.269" y1="11.151" y2="13.651"><stop offset="0"/><stop offset="1" stop-opacity="0"/></linearGradient><linearGradient id="i" gradientUnits="userSpaceOnUse" x1="15.793" x2="15.601" xlink:href="#a" y1="12.143" y2="9.394"/><linearGradient id="c" gradientUnits="userSpaceOnUse" x1="34.081" x2="43.39" y1="5" y2="14.317"><stop offset="0" stop-color="#292c2f"/><stop offset="1" stop-opacity="0"/></linearGradient><path d="M16 2a14 14 0 0 0-3 .336v2.059a12 12 0 0 0-3.084 1.277L8.463 4.219a14 14 0 0 0-4.254 4.234l1.463 1.463A12 12 0 0 0 4.39 13H2.34A14 14 0 0 0 2 16a14 14 0 0 0 .336 3h2.059a12 12 0 0 0 1.277 3.084l-1.453 1.453a14 14 0 0 0 4.234 4.254l1.463-1.463A12 12 0 0 0 13 27.61v2.05a14 14 0 0 0 3 .34 13.997 13.997 0 0 0 3-.336v-2.059a12 12 0 0 0 3.084-1.277l1.453 1.453a14 14 0 0 0 4.254-4.234l-1.463-1.463A12 12 0 0 0 27.61 19h2.05a14 14 0 0 0 .34-3 13.997 13.997 0 0 0-.336-3h-2.059a12 12 0 0 0-1.277-3.084l1.453-1.453a14 14 0 0 0-4.234-4.254l-1.463 1.463A12 12 0 0 0 19 4.39V2.34A14 14 0 0 0 16 2z" fill="url(#b)"/><path d="M8.504 23.496L15.007 30H30V17.317L18.687 6.004z" fill="url(#c)" opacity=".2"/><path d="M13.383 11.037c.257-1.02.01-2.102.045-3.152.079-2.293 1.352-2.813 2.657-2.88 1.497-.08 3.27.808 3.376 2.97.051 1.036-.132 2.105.135 3.107.623 2.335 3.293 4.022 3.332 6.438.036 2.295-1.021 5.001-2.972 6.213-1.007.626-2.373-.125-3.557-.045-1.316.09-2.78 1.26-3.916.586-2.062-1.224-2.63-4.361-2.476-6.754.157-2.432 2.78-4.12 3.376-6.483z" fill="url(#d)"/><ellipse cx="17.05" cy="9.129" fill="#fcfcfc" fill-opacity=".941" rx="1.059" ry="1.369"/><ellipse cx="14.543" cy="9.177" fill="#fcfcfc" fill-opacity=".941" rx=".748" ry="1.114"/><ellipse cx="16.918" cy="9.352" fill="#232629" rx=".434" ry=".716"/><ellipse cx="14.546" cy="9.352" fill="#232629" rx=".33" ry=".534"/><path d="M16.91 10.54a3.62 3.62 0 0 0-.39.003c-.878.051-1.82.396-2.295.814-.762.67-.31 1.32-.638 2.26s-1.153 2.17-1.4 3.343c-.1.474-.227.948-.314 1.423l2.352 2.875c.462.564-.744.355-1.865-.372.795 1.12 2.374 2.229 3.933 2.124 1.66-.112 3.62-1.847 4.247-3.267-.609-.103-1.2-1.018-.713-1.7.17-.237.533-.258.845-.208-.188-.727-.562-1.378-.75-1.925-.326-.955-.704-1.222-1.05-2.069s.02-2.414-.956-3.024c-.274-.172-.625-.258-1.006-.277z" fill="url(#e)"/><path d="M9.602 19.546c.348-.278.51-.845.945-.946.34-.078.721.117.99.338.616.506.71 1.439 1.193 2.072.323.42.87.66 1.126 1.125.267.486.61 1.127.36 1.62-.337.666-1.303.872-2.048.9-.453.019-.847-.328-1.283-.45-.636-.176-1.37-.067-1.936-.404-.449-.267-.98-.673-1.013-1.193-.014-.206.287-.318.337-.518.133-.526-.376-1.136-.135-1.622.257-.515 1.013-.562 1.464-.922z" fill="url(#f)"/><path d="M19.671 18.763a1.75 1.75 0 0 0-.353.452c-.384.698-.125 1.6-.34 2.366-.145.511-.564.936-.63 1.462-.067.55-.15 1.273.266 1.64.56.492 1.533.326 2.236.076.428-.151.664-.618 1.025-.893.524-.4 1.247-.571 1.648-1.093.318-.415.662-.987.5-1.483-.064-.196-.384-.19-.505-.357-.318-.439-.071-1.193-.475-1.554-.3-.268-.74-.237-1.166-.249-.206.441-.876.741-1.337.613-.39-.108-.779-.552-.869-.98z" fill="url(#g)"/><path d="M17.936 10.286l1.666 1.666-3.333 1.7-2.5-2.5" fill="url(#h)" opacity=".2"/><path d="M15.6 9.394c.471-.025.904.28 1.33.483.41.198 1.111.257 1.17.71.066.513-.658.816-1.08 1.114-.379.266-.8.578-1.262.574-.466-.005-.879-.34-1.26-.608-.315-.221-.81-.425-.822-.81-.013-.412.493-.674.822-.923.325-.248.694-.519 1.103-.54z" fill="url(#i)"/></svg>