<svg height="32" width="32" xmlns="http://www.w3.org/2000/svg" xmlns:xlink="http://www.w3.org/1999/xlink"><linearGradient id="b" gradientTransform="rotate(-165 -6.658 22.948)" gradientUnits="userSpaceOnUse" x1="-27.383" x2="-20.311" y1="21.553" y2="47.946"><stop offset="0" stop-color="#afb4b9"/><stop offset="1" stop-color="#cfd2d5"/></linearGradient><linearGradient id="c" gradientUnits="userSpaceOnUse" x1="5" x2="5" y1="27" y2="5"><stop offset="0" stop-color="#197cf1"/><stop offset="1" stop-color="#20bcfa"/></linearGradient><linearGradient id="d" gradientUnits="userSpaceOnUse" x1="8.143" x2="23.857" xlink:href="#a" y1="8.143" y2="23.857"/><linearGradient id="e" gradientUnits="userSpaceOnUse" x1="21.5" x2="27" xlink:href="#a" y1="13.643" y2="19.143"/><linearGradient id="f" gradientUnits="userSpaceOnUse" x1="5" x2="5" y1="27" y2="5"><stop offset="0" stop-color="#54d883"/><stop offset="1" stop-color="#abf9c7"/></linearGradient><linearGradient id="a"><stop offset="0" stop-color="#292c2f"/><stop offset="1" stop-opacity="0"/></linearGradient><path d="M16 2a14 14 0 0 0-3 .336v2.059a12 12 0 0 0-3.084 1.277L8.463 4.219a14 14 0 0 0-4.254 4.234l1.463 1.463A12 12 0 0 0 4.39 13H2.34A14 14 0 0 0 2 16a14 14 0 0 0 .336 3h2.059a12 12 0 0 0 1.277 3.084l-1.453 1.453a14 14 0 0 0 4.234 4.254l1.463-1.463A12 12 0 0 0 13 27.61v2.05a14 14 0 0 0 3 .34 13.997 13.997 0 0 0 3-.336v-2.059a12 12 0 0 0 3.084-1.277l1.453 1.453a14 14 0 0 0 4.254-4.234l-1.463-1.463A12 12 0 0 0 27.61 19h2.05a14 14 0 0 0 .34-3 13.997 13.997 0 0 0-.336-3h-2.059a12 12 0 0 0-1.277-3.084l1.453-1.453a14 14 0 0 0-4.234-4.254l-1.463 1.463A12 12 0 0 0 19 4.39V2.34A14 14 0 0 0 16 2z" fill="url(#b)"/><rect fill="url(#c)" height="22" rx="14" width="22" x="5" y="5"/><path d="M16 5a10.972 10.972 0 0 0-10.939 9.845l.427.055 2.655 1.886 5.648 3.247 1.155 6.914A10.976 10.976 0 0 0 27 16c0-6.094-4.906-11-11-11z" fill="url(#d)" fill-rule="evenodd" opacity=".2"/><path d="M26.788 13.855l-3.717 3.716 2.953 2.953a10.987 10.987 0 0 0 .764-6.669z" fill="url(#e)" fill-rule="evenodd" opacity=".2"/><path d="M16 5a11 11 0 0 0-10.26 7.071h.046l2.357-.785.786.785.785.786v-1.571l1.572-.786v-.786l1.571-.785 1.572-1.572v.786l.785-.786-.785-.786H16v.786l1.571-.786-.785-.785v-.747A11 11 0 0 0 16 5zm8.152 3.634l-.295.295v.785h1.154a11 11 0 0 0-.86-1.08zm1.034 1.323l-.543.543-1.572 1.571-.785.786-.786 2.357V16l.786.786.785.785 1.572.786 2.193-.54A11 11 0 0 0 27 16a11 11 0 0 0-1.814-6.043zM6.57 13.643l-.785.786h-.659c-.039.267-.069.535-.089.803v.002L6.571 16l.786.786 1.572.785.785.786-.785.786v1.571l.785 1.572 1.572 1.571v2.066A11 11 0 0 0 16 27c.134-.002.267-.007.4-.014l.386-.772v-.785l1.571-.786.786-.786v-1.571l.786-.786v-.786l-.786-.785-2.357-.786-.786-.786-.786-.786h-.785l-.786-.785L11.286 16l-1.572.786H8.143v-1.572h-.786v-1.571z" fill="url(#f)"/></svg>