<?xml version="1.0" encoding="UTF-8" standalone="no"?>
<svg
   xmlns:dc="http://purl.org/dc/elements/1.1/"
   xmlns:cc="http://creativecommons.org/ns#"
   xmlns:rdf="http://www.w3.org/1999/02/22-rdf-syntax-ns#"
   xmlns:svg="http://www.w3.org/2000/svg"
   xmlns="http://www.w3.org/2000/svg"
   width="22"
   height="22"
   version="1.1"
   id="svg12">
  <metadata
     id="metadata18">
    <rdf:RDF>
      <cc:Work
         rdf:about="">
        <dc:format>image/svg+xml</dc:format>
        <dc:type
           rdf:resource="http://purl.org/dc/dcmitype/StillImage" />
        <dc:title></dc:title>
      </cc:Work>
    </rdf:RDF>
  </metadata>
  <defs
     id="defs16" />
  <rect
     style="opacity:1;fill:#9a9996;fill-opacity:1;stroke:none;stroke-width:1;stroke-linecap:round;stroke-linejoin:round;stroke-miterlimit:4;stroke-dasharray:none;stroke-opacity:1"
     id="rect990"
     width="16"
     height="1"
     x="3"
     y="20" />
  <rect
     style="opacity:1;fill:#9a9996;fill-opacity:1;stroke:none;stroke-width:1;stroke-linecap:round;stroke-linejoin:round;stroke-miterlimit:4;stroke-dasharray:none;stroke-opacity:1"
     id="rect992"
     width="2"
     height="5"
     x="10"
     y="16" />
  <path
     style="opacity:1;fill:#9a9996;fill-opacity:1;stroke:none;stroke-width:1;stroke-linecap:round;stroke-linejoin:round;stroke-miterlimit:4;stroke-dasharray:none;stroke-opacity:1"
     d="M 4,0 C 3.446,0 3,0.446 3,1 v 16 c 0,0.554 0.446,1 1,1 h 14 c 0.554,0 1,-0.446 1,-1 V 1 C 19,0.446 18.554,0 18,0 Z m 7,2 c 3.313708,0 6,2.6862915 6,6 0,3.313708 -2.686292,6 -6,6 H 6 C 5.446,14 5,13.554 5,13 V 8 C 5,4.6862915 7.6862915,2 11,2 Z m 0,3 C 9.3431458,5 8,6.3431458 8,8 c 0,1.6568542 1.3431458,3 3,3 1.656854,0 3,-1.3431458 3,-3 0,-1.6568542 -1.343146,-3 -3,-3 z"
     id="rect994" />
  <rect
     ry="1"
     y="19"
     x="7"
     height="3"
     width="8"
     id="rect817"
     style="opacity:1;fill:#9a9996;fill-opacity:1;stroke:none;stroke-width:1;stroke-linecap:round;stroke-linejoin:round;stroke-miterlimit:4;stroke-dasharray:none;stroke-opacity:1" />
</svg>
