<?xml version="1.0" encoding="UTF-8" standalone="no"?>
<svg
   xmlns:dc="http://purl.org/dc/elements/1.1/"
   xmlns:cc="http://creativecommons.org/ns#"
   xmlns:rdf="http://www.w3.org/1999/02/22-rdf-syntax-ns#"
   xmlns:svg="http://www.w3.org/2000/svg"
   xmlns="http://www.w3.org/2000/svg"
   version="1.1"
   id="svg11300"
   height="64"
   width="64">
  <defs
     id="defs3" />
  <metadata
     id="metadata4">
    <rdf:RDF>
      <cc:Work
         rdf:about="">
        <dc:format>image/svg+xml</dc:format>
        <dc:type
           rdf:resource="http://purl.org/dc/dcmitype/StillImage" />
        <dc:creator>
          <cc:Agent>
            <dc:title>Jakub Steiner</dc:title>
          </cc:Agent>
        </dc:creator>
        <dc:source>http://jimmac.musichall.cz</dc:source>
        <cc:license
           rdf:resource="http://creativecommons.org/licenses/by-sa/2.0/" />
        <dc:title></dc:title>
        <dc:subject>
          <rdf:Bag>
            <rdf:li>apparmor</rdf:li>
            <rdf:li>novell</rdf:li>
          </rdf:Bag>
        </dc:subject>
      </cc:Work>
      <cc:License
         rdf:about="http://creativecommons.org/licenses/by-sa/2.0/">
        <cc:permits
           rdf:resource="http://web.resource.org/cc/Reproduction" />
        <cc:permits
           rdf:resource="http://web.resource.org/cc/Distribution" />
        <cc:requires
           rdf:resource="http://web.resource.org/cc/Notice" />
        <cc:requires
           rdf:resource="http://web.resource.org/cc/Attribution" />
        <cc:permits
           rdf:resource="http://web.resource.org/cc/DerivativeWorks" />
        <cc:requires
           rdf:resource="http://web.resource.org/cc/ShareAlike" />
      </cc:License>
    </rdf:RDF>
  </metadata>
  <g
     transform="translate(0,16)"
     id="layer1">
    <path
       id="path15651-7-5"
       d="M 32,-11 C 21.686394,-3.3831983 5,-1 5,-1 9.180645,34.170728 32,44 32,44 32,44 54.819355,34.170728 59,-1 59,-1 42.313606,-3.383198 32,-11 Z"
       style="color:#000000;display:block;overflow:visible;visibility:visible;opacity:1;fill:#4d4d4d;fill-opacity:1;fill-rule:nonzero;stroke:none;stroke-width:1.37963188;stroke-linecap:round;stroke-linejoin:round;stroke-miterlimit:4;stroke-dasharray:none;stroke-dashoffset:0;stroke-opacity:1;marker:none;marker-start:none;marker-mid:none;marker-end:none" />
    <path
       id="path15651-7"
       d="M 32,-12 C 21.686394,-4.3831983 5,-1 5,-1 9.1806449,34.170728 32,42 32,42 32,42 54.819355,34.170728 59,-1 59,-1 42.313606,-4.383198 32,-12 Z"
       style="color:#000000;display:block;overflow:visible;visibility:visible;opacity:1;fill:#888a85;fill-opacity:1;fill-rule:nonzero;stroke:none;stroke-width:1.37963188;stroke-linecap:round;stroke-linejoin:round;stroke-miterlimit:4;stroke-dasharray:none;stroke-dashoffset:0;stroke-opacity:1;marker:none;marker-start:none;marker-mid:none;marker-end:none" />
    <path
       id="path15665"
       d="M 32,-10 C 22.397673,-2.874606 7,0 7,0 10.892324,32.901652 32,40 32,40 32,40 53.107676,32.901652 57,0 57,0 41.602327,-2.874606 32,-10 Z"
       style="color:#000000;display:block;overflow:visible;visibility:visible;opacity:1;fill:#ffffff;fill-opacity:1;fill-rule:nonzero;stroke:none;stroke-width:1.37396324;stroke-linecap:round;stroke-linejoin:round;stroke-miterlimit:4;stroke-dasharray:none;stroke-dashoffset:0;stroke-opacity:1;marker:none;marker-start:none;marker-mid:none;marker-end:none" />
    <path
       id="path15667"
       d="M 32,-6 V 37 C 32,37 49.644306,30.654098 55,3 47.362605,1.8333334 32,-6 32,-6 Z"
       style="color:#000000;display:block;overflow:visible;visibility:visible;opacity:1;fill:#497718;fill-opacity:1;fill-rule:nonzero;stroke:none;stroke-width:1.39271522;stroke-linecap:round;stroke-linejoin:round;stroke-miterlimit:4;stroke-dasharray:none;stroke-dashoffset:0;stroke-opacity:1;marker:none;marker-start:none;marker-mid:none;marker-end:none" />
    <path
       id="path15667-5"
       d="M 32,-5 V 37 C 32,37 49.220962,30.81335 54.796875,3.960938 47.096812,2.694443 32,-5 32,-5 Z"
       style="color:#000000;display:block;overflow:visible;visibility:visible;opacity:1;fill:#73ba25;fill-opacity:1;fill-rule:nonzero;stroke:none;stroke-width:1.39271522;stroke-linecap:round;stroke-linejoin:round;stroke-miterlimit:4;stroke-dasharray:none;stroke-dashoffset:0;stroke-opacity:1;marker:none;marker-start:none;marker-mid:none;marker-end:none" />
    <path
       id="path1104-1"
       d="M 48,19 A 14,14 0 0 0 34,33 14,14 0 0 0 48,47 14,14 0 0 0 62,33 14,14 0 0 0 48,19 Z"
       style="opacity:1;fill:#1a5db4;fill-opacity:1;fill-rule:nonzero;stroke:none;stroke-width:1.72389317;stroke-linecap:round;stroke-linejoin:round;stroke-miterlimit:4;stroke-dasharray:none;stroke-opacity:1;paint-order:stroke fill markers" />
    <path
       id="path1104"
       d="M 48,18 A 14,14 0 0 0 34,32 14,14 0 0 0 48,46 14,14 0 0 0 62,32 14,14 0 0 0 48,18 Z"
       style="opacity:1;fill:#1b70da;fill-opacity:1;fill-rule:nonzero;stroke:none;stroke-width:1.72389317;stroke-linecap:round;stroke-linejoin:round;stroke-miterlimit:4;stroke-dasharray:none;stroke-opacity:1;paint-order:stroke fill markers" />
    <path
       id="path827-3"
       d="m 43,38 10,-7 v -1 l -4,-4 -9,9 v 3 z"
       style="fill:#1a5db4;fill-opacity:1;stroke:none;stroke-width:1px;stroke-linecap:butt;stroke-linejoin:miter;stroke-opacity:1" />
    <path
       id="path827"
       d="m 44,40 9,-9 -4,-4 -9,9 v 4 z"
       style="fill:#ffffff;fill-opacity:1;stroke:none;stroke-width:1px;stroke-linecap:butt;stroke-linejoin:miter;stroke-opacity:1" />
    <path
       id="path829-7"
       d="m 50,25 v 1 l 6,2 v -1 l -4,-4 z"
       style="fill:#1a5db4;fill-opacity:1;stroke:none;stroke-width:1px;stroke-linecap:butt;stroke-linejoin:miter;stroke-opacity:1" />
    <path
       id="path829"
       d="m 50,26 4,4 2,-2 -4,-4 z"
       style="fill:#ffffff;stroke:none;stroke-width:1px;stroke-linecap:butt;stroke-linejoin:miter;stroke-opacity:1" />
  </g>
</svg>
