<?xml version="1.0" encoding="UTF-8"?>
<svg width="32" height="32" version="1.1" viewBox="0 0 32 32.000002" xmlns="http://www.w3.org/2000/svg" xmlns:cc="http://creativecommons.org/ns#" xmlns:dc="http://purl.org/dc/elements/1.1/" xmlns:rdf="http://www.w3.org/1999/02/22-rdf-syntax-ns#">
<defs>
<linearGradient id="c" x1="14" x2="45" y1="1115.5" y2="1115.5" gradientUnits="userSpaceOnUse">
<stop stop-color="#77767b" offset="0"/>
<stop stop-color="#77767b" offset=".064519"/>
<stop stop-color="#9a9996" offset=".32259"/>
<stop stop-color="#77767b" offset=".58067"/>
<stop stop-color="#77767b" offset="1"/>
</linearGradient>
<linearGradient id="d" x1="14" x2="45" y1="1106.5" y2="1106.5" gradientUnits="userSpaceOnUse">
<stop stop-color="#9a9996" offset="0"/>
<stop stop-color="#c0bfbc" offset="1"/>
</linearGradient>
</defs>
<metadata>
<rdf:RDF>
<cc:Work rdf:about="">
<dc:format>image/svg+xml</dc:format>
<dc:type rdf:resource="http://purl.org/dc/dcmitype/StillImage"/>
<dc:title/>
</cc:Work>
</rdf:RDF>
</metadata>
<g transform="matrix(.49998 0 0 .49998 9.054e-5 -529.24)">
<path d="m8 1064.5c-1.1079 0.018-1.9746 0.8923-2 2v44l6 6h44c1.108 0 2.0443-0.8929 2-2v-48c-0.03796-1.1073-0.89197-1.9984-2-2zm0 2h2v2h-2z" fill="#241f31"/>
<path transform="translate(0 1058.5)" d="m8 6c-1.108 0-2 0.89197-2 2v42l6 6h44c1.108 0 2.0452-0.8929 2-2v-46c0-1.108-0.89286-2.0443-2-2zm0 2h2v2h-2z" fill="#3d3846"/>
<path d="m14 1096.5v20l31 6e-4v-20zm4.0001 2.0001h10v14l-10 1e-4z" fill="url(#d)"/>
<rect x="12" y="1064.5" width="40.001" height="28.001" fill="#f6f5f4"/>
<rect x="12" y="1064.5" width="40.001" height="6.0002" fill="#e01b24"/>
<rect x="54" y="1066.5" width="2" height="2" fill="#241f31"/>
<rect x="14" y="1114.5" width="31" height="2" fill="url(#c)"/>
<rect x="18" y="1098.5" width="10" height="2" fill="#77767b"/>
<rect x="14" y="1072.5" width="36.001" height="2.0001" fill="#c0bfbc"/>
<rect x="14" y="1080.5" width="36.001" height="2.0001" fill="#c0bfbc"/>
<rect x="12" y="1092.5" width="40.001" height="2.0001" fill="#241f31"/>
<rect x="14" y="1088.5" width="36.001" height="2.0001" fill="#c0bfbc"/>
</g>
</svg>
