<?xml version="1.0" encoding="UTF-8" standalone="no"?>
<svg
   xmlns:dc="http://purl.org/dc/elements/1.1/"
   xmlns:cc="http://creativecommons.org/ns#"
   xmlns:rdf="http://www.w3.org/1999/02/22-rdf-syntax-ns#"
   xmlns:svg="http://www.w3.org/2000/svg"
   xmlns="http://www.w3.org/2000/svg"
   width="64"
   height="64"
   version="1.1"
   id="svg12">
  <metadata
     id="metadata18">
    <rdf:RDF>
      <cc:Work
         rdf:about="">
        <dc:format>image/svg+xml</dc:format>
        <dc:type
           rdf:resource="http://purl.org/dc/dcmitype/StillImage" />
        <dc:title></dc:title>
      </cc:Work>
    </rdf:RDF>
  </metadata>
  <defs
     id="defs16" />
  <path
     id="path837-6"
     d="M 32,5 A 28,28 0 0 0 4,33 28,28 0 0 0 32,61 28,28 0 0 0 60,33 28,28 0 0 0 32,5 Z"
     style="opacity:1;fill:#0044aa;fill-opacity:1;stroke:none;stroke-width:3.91620898;stroke-linecap:round;stroke-linejoin:round;stroke-miterlimit:4;stroke-dasharray:none;stroke-opacity:1" />
  <path
     id="path837"
     d="M 32,4 A 28,28 0 0 0 4,32 28,28 0 0 0 32,60 28,28 0 0 0 60,32 28,28 0 0 0 32,4 Z"
     style="opacity:1;fill:#0066ff;fill-opacity:1;stroke:none;stroke-width:3.91620898;stroke-linecap:round;stroke-linejoin:round;stroke-miterlimit:4;stroke-dasharray:none;stroke-opacity:1" />
  <path
     d="m 34,14 -6,1 v 25 l 6,-2 v -9 l 7,10 7,-1 V 37 L 40,27 48,17 v -1 l -6,-2 -8,11 z m -13.386214,6.820929 c -0.162266,0 -0.324534,0.06294 -0.44896,0.186895 l -2.697115,2.686625 c -0.248853,0.247884 -0.316329,1.318537 -0.127383,1.614293 l 2.918309,3.648817 c -0.206782,0.427568 -0.385839,0.867897 -0.536072,1.318281 -0.0066,0.01938 -0.01697,0.03732 -0.02344,0.05674 l -5.062536,1.121374 C 14.293036,31.530014 14,31.737509 14,32.08807 v 3.357444 c 0,0.350561 0.293036,0.558064 0.636587,0.634111 l 5.062535,1.121374 c 0.01107,0.03315 0.0288,0.06376 0.04021,0.09678 0.146232,0.437516 0.319674,0.865534 0.519321,1.28157 l -2.790928,4.362009 c -0.188944,0.295757 -0.360313,1.509716 -0.11146,1.7576 l 2.808576,1.826789 c 0.248852,0.247885 0.649065,0.247885 0.897922,0 l 4.375692,-2.776733 c 0.430161,0.208381 0.873336,0.388975 1.326779,0.540662 0.02976,0.01042 0.05728,0.02656 0.08712,0.03671 l 1.122401,5.039504 c 0,0.350562 0.284658,0.63411 0.636585,0.63411 h 3.809467 c 0.351929,0 0.560243,-0.291897 0.636586,-0.63411 l 1.122402,-5.193026 c 0.515667,-0.193111 1.016254,-0.424026 1.497653,-0.690846 l 4.271828,3.043727 c 0.248855,0.247885 0.604352,0.192849 0.897923,0 l 2.787187,-1.830926 c 0.248854,-0.247885 0.09887,-1.457705 -0.09007,-1.753463 l -1.624968,-2.456341 -0.170875,0.06341 c -0.386403,0.144578 -0.821392,-0.0054 -1.035289,-0.357102 l -1.708726,-2.803428 c -1.4237,3.392221 -4.785941,5.777075 -8.707831,5.777075 -5.210738,0 -9.434876,-4.207707 -9.434876,-9.398176 0,-3.982982 2.492179,-7.379021 6.004012,-8.747379 l 0.0036,-1.782449 c -0.447427,0.148014 -1.012495,0.341084 -1.437539,0.544267 l -4.369039,-2.7734 c -0.124431,-0.123943 -0.286694,-0.186895 -0.44896,-0.186895 z"
     style="fill:#0044aa;fill-opacity:1;stroke-width:0.8560462"
     id="path8-3" />
  <path
     d="m 34,15 -6,1 v 25 l 6,-2 v -9 l 7,10 7,-2 -8,-10 8,-11 -6,-2 -8,11 z m -13.386214,6.820929 c -0.162266,0 -0.324534,0.06294 -0.44896,0.186895 l -2.697115,2.686625 c -0.248853,0.247884 -0.188946,0.602008 0,0.897764 l 2.790926,4.365346 c -0.206782,0.427568 -0.385839,0.867897 -0.536072,1.318281 -0.0066,0.01938 -0.01697,0.03732 -0.02344,0.05674 l -5.062536,1.121374 C 14.293036,32.530014 14,32.737509 14,33.08807 v 3.357444 c 0,0.350561 0.293036,0.558064 0.636587,0.634111 l 5.062535,1.121374 c 0.01107,0.03315 0.0288,0.06376 0.04021,0.09678 0.146232,0.437516 0.319674,0.865534 0.519321,1.28157 l -2.790928,4.362009 c -0.188944,0.295757 -0.248853,0.649881 0,0.897765 l 2.697116,2.686624 c 0.248852,0.247885 0.649065,0.247885 0.897922,0 l 4.375692,-2.776733 c 0.430161,0.208381 0.873336,0.388975 1.326779,0.540662 0.02976,0.01042 0.05728,0.02656 0.08712,0.03671 l 1.122401,5.039504 c 0,0.350562 0.284658,0.63411 0.636585,0.63411 h 3.809467 c 0.351929,0 0.560243,-0.291897 0.636586,-0.63411 l 1.122402,-5.193026 c 0.515667,-0.193111 1.016254,-0.424026 1.497653,-0.690846 l 4.271828,3.043727 c 0.248855,0.247885 0.64907,0.247885 0.897923,0 l 2.697114,-2.686623 c 0.248854,-0.247885 0.188944,-0.602008 0,-0.897766 l -1.624968,-2.456341 -0.170875,0.06341 c -0.386403,0.144578 -0.821392,-0.0054 -1.035289,-0.357102 l -1.708726,-2.803428 c -1.4237,3.392221 -4.785941,5.777075 -8.707831,5.777075 -5.210738,0 -9.434876,-4.207707 -9.434876,-9.398176 0,-3.982982 2.492179,-7.379021 6.004012,-8.747379 l 0.0036,-1.782449 c -0.447427,0.148014 -1.012495,0.341084 -1.437539,0.544267 l -4.369039,-2.7734 c -0.124431,-0.123943 -0.286694,-0.186895 -0.44896,-0.186895 z"
     style="fill:#ffffff;stroke-width:0.8560462"
     id="path8" />
  <circle
     r="14"
     cy="49"
     cx="48"
     id="path910-0"
     style="opacity:1;fill:#d4aa00;fill-opacity:1;stroke:none;stroke-width:3.99987626;stroke-linecap:round;stroke-linejoin:round;stroke-miterlimit:4;stroke-dasharray:none;stroke-opacity:1" />
  <circle
     r="14"
     cy="48"
     cx="48"
     id="path910"
     style="opacity:1;fill:#ffd42a;fill-opacity:1;stroke:none;stroke-width:3.99987626;stroke-linecap:round;stroke-linejoin:round;stroke-miterlimit:4;stroke-dasharray:none;stroke-opacity:1" />
  <path
     id="rect831-6"
     d="m 38,41 v 1 13 h 1 18 1 V 54 42 41 Z m 2,1 h 16 l -8,8 z m -1,1 9,9 9,-9 v 10 l -4,-4 -1,1 v 1 l 4,3 H 40 l 4,-3 v -1 l -1,-1 -4,4 z"
     style="opacity:1;fill:#d4aa00;fill-opacity:1;stroke:none;stroke-width:1;stroke-linecap:round;stroke-linejoin:round;stroke-miterlimit:4;stroke-dasharray:none;stroke-opacity:1" />
  <path
     id="rect831"
     d="m 38,42 v 1 13 h 1 18 1 V 55 43 42 Z m 2,1 h 16 l -8,8 z m -1,1 9,9 9,-9 v 10 l -4,-4 -1,1 4,4 H 40 l 4,-4 -1,-1 -4,4 z"
     style="opacity:1;fill:#ffffff;fill-opacity:1;stroke:none;stroke-width:1;stroke-linecap:round;stroke-linejoin:round;stroke-miterlimit:4;stroke-dasharray:none;stroke-opacity:1" />
</svg>
