<?xml version="1.0" encoding="UTF-8" standalone="no"?>
<svg
   xmlns:dc="http://purl.org/dc/elements/1.1/"
   xmlns:cc="http://creativecommons.org/ns#"
   xmlns:rdf="http://www.w3.org/1999/02/22-rdf-syntax-ns#"
   xmlns:svg="http://www.w3.org/2000/svg"
   xmlns="http://www.w3.org/2000/svg"
   width="64"
   height="64"
   version="1"
   id="svg14">
  <metadata
     id="metadata20">
    <rdf:RDF>
      <cc:Work
         rdf:about="">
        <dc:format>image/svg+xml</dc:format>
        <dc:type
           rdf:resource="http://purl.org/dc/dcmitype/StillImage" />
        <dc:title></dc:title>
      </cc:Work>
    </rdf:RDF>
  </metadata>
  <defs
     id="defs18" />
  <rect
     ry="2"
     y="7.9999995"
     x="5.999999"
     height="52"
     width="52"
     id="rect988-9-3"
     style="opacity:1;fill:#e5d2c3;fill-opacity:1;stroke:none;stroke-width:3.77952766;stroke-linecap:round;stroke-linejoin:round;stroke-miterlimit:4;stroke-dasharray:none;stroke-opacity:1" />
  <rect
     ry="2"
     y="6.999999"
     x="5.999999"
     height="51"
     width="52"
     id="rect988-6"
     style="opacity:1;fill:#f2e8e0;fill-opacity:1;stroke:none;stroke-width:3.77952766;stroke-linecap:round;stroke-linejoin:round;stroke-miterlimit:4;stroke-dasharray:none;stroke-opacity:1" />
  <rect
     ry="2"
     y="5.999999"
     x="5.999999"
     height="8"
     width="24"
     id="rect819-60-7"
     style="opacity:1;fill:#a7131b;fill-opacity:1;stroke:none;stroke-width:3.77952766;stroke-linecap:round;stroke-linejoin:round;stroke-miterlimit:4;stroke-dasharray:none;stroke-opacity:1" />
  <rect
     ry="2"
     y="5.999999"
     x="34"
     height="8"
     width="24"
     id="rect819-3-6-5"
     style="opacity:1;fill:#a7131b;fill-opacity:1;stroke:none;stroke-width:3.77952766;stroke-linecap:round;stroke-linejoin:round;stroke-miterlimit:4;stroke-dasharray:none;stroke-opacity:1" />
  <rect
     ry="2"
     y="19"
     x="19.999998"
     height="9"
     width="24"
     id="rect819-6-2-3"
     style="opacity:1;fill:#a7131b;fill-opacity:1;stroke:none;stroke-width:3.77952766;stroke-linecap:round;stroke-linejoin:round;stroke-miterlimit:4;stroke-dasharray:none;stroke-opacity:1" />
  <rect
     ry="2"
     y="19"
     x="49"
     height="9"
     width="9"
     id="rect819-7-6-5"
     style="opacity:1;fill:#a7131b;fill-opacity:1;stroke:none;stroke-width:3.77952766;stroke-linecap:round;stroke-linejoin:round;stroke-miterlimit:4;stroke-dasharray:none;stroke-opacity:1" />
  <rect
     ry="2"
     y="19"
     x="5.999999"
     height="9"
     width="9"
     id="rect819-7-5-1-6"
     style="opacity:1;fill:#a7131b;fill-opacity:1;stroke:none;stroke-width:3.77952766;stroke-linecap:round;stroke-linejoin:round;stroke-miterlimit:4;stroke-dasharray:none;stroke-opacity:1" />
  <rect
     ry="0"
     y="19"
     x="5.999999"
     height="9"
     width="2"
     id="rect926-2-2"
     style="opacity:1;fill:#a7131b;fill-opacity:1;stroke:none;stroke-width:3.77952766;stroke-linecap:round;stroke-linejoin:round;stroke-miterlimit:4;stroke-dasharray:none;stroke-opacity:1" />
  <rect
     ry="0"
     y="19"
     x="56"
     height="9"
     width="2"
     id="rect928-3-9"
     style="opacity:1;fill:#a7131b;fill-opacity:1;stroke:none;stroke-width:3.77952766;stroke-linecap:round;stroke-linejoin:round;stroke-miterlimit:4;stroke-dasharray:none;stroke-opacity:1" />
  <rect
     ry="2"
     y="4.999999"
     x="5.999999"
     height="8"
     width="24"
     id="rect819-1"
     style="opacity:1;fill:#e21a25;fill-opacity:1;stroke:none;stroke-width:3.77952766;stroke-linecap:round;stroke-linejoin:round;stroke-miterlimit:4;stroke-dasharray:none;stroke-opacity:1" />
  <rect
     ry="2"
     y="4.999999"
     x="34"
     height="8"
     width="24"
     id="rect819-3-27"
     style="opacity:1;fill:#e21a25;fill-opacity:1;stroke:none;stroke-width:3.77952766;stroke-linecap:round;stroke-linejoin:round;stroke-miterlimit:4;stroke-dasharray:none;stroke-opacity:1" />
  <rect
     ry="2"
     y="19"
     x="19.999998"
     height="8"
     width="24"
     id="rect819-6-09"
     style="opacity:1;fill:#e21a25;fill-opacity:1;stroke:none;stroke-width:3.77952766;stroke-linecap:round;stroke-linejoin:round;stroke-miterlimit:4;stroke-dasharray:none;stroke-opacity:1" />
  <rect
     ry="2"
     y="19"
     x="49"
     height="8"
     width="9"
     id="rect819-7-3"
     style="opacity:1;fill:#e21a25;fill-opacity:1;stroke:none;stroke-width:3.77952766;stroke-linecap:round;stroke-linejoin:round;stroke-miterlimit:4;stroke-dasharray:none;stroke-opacity:1" />
  <rect
     ry="2"
     y="19"
     x="5.999999"
     height="8"
     width="9"
     id="rect819-7-5-6"
     style="opacity:1;fill:#e21a25;fill-opacity:1;stroke:none;stroke-width:3.77952766;stroke-linecap:round;stroke-linejoin:round;stroke-miterlimit:4;stroke-dasharray:none;stroke-opacity:1" />
  <rect
     ry="0"
     y="19"
     x="5.999999"
     height="8"
     width="2"
     id="rect926-0"
     style="opacity:1;fill:#e21a25;fill-opacity:1;stroke:none;stroke-width:3.77952766;stroke-linecap:round;stroke-linejoin:round;stroke-miterlimit:4;stroke-dasharray:none;stroke-opacity:1" />
  <rect
     ry="0"
     y="19"
     x="56"
     height="8"
     width="2"
     id="rect928-6"
     style="opacity:1;fill:#e21a25;fill-opacity:1;stroke:none;stroke-width:3.77952766;stroke-linecap:round;stroke-linejoin:round;stroke-miterlimit:4;stroke-dasharray:none;stroke-opacity:1" />
  <rect
     ry="2"
     y="34"
     x="5.999999"
     height="8"
     width="24"
     id="rect819-60-0-2"
     style="opacity:1;fill:#a7131b;fill-opacity:1;stroke:none;stroke-width:3.77952766;stroke-linecap:round;stroke-linejoin:round;stroke-miterlimit:4;stroke-dasharray:none;stroke-opacity:1" />
  <rect
     ry="2"
     y="34"
     x="34"
     height="8"
     width="24"
     id="rect819-3-6-6-6"
     style="opacity:1;fill:#a7131b;fill-opacity:1;stroke:none;stroke-width:3.77952766;stroke-linecap:round;stroke-linejoin:round;stroke-miterlimit:4;stroke-dasharray:none;stroke-opacity:1" />
  <rect
     ry="2"
     y="47"
     x="19.999998"
     height="9"
     width="24"
     id="rect819-6-2-2-1"
     style="opacity:1;fill:#a7131b;fill-opacity:1;stroke:none;stroke-width:3.77952766;stroke-linecap:round;stroke-linejoin:round;stroke-miterlimit:4;stroke-dasharray:none;stroke-opacity:1" />
  <rect
     ry="2"
     y="47"
     x="49"
     height="9"
     width="9"
     id="rect819-7-6-6-8"
     style="opacity:1;fill:#a7131b;fill-opacity:1;stroke:none;stroke-width:3.77952766;stroke-linecap:round;stroke-linejoin:round;stroke-miterlimit:4;stroke-dasharray:none;stroke-opacity:1" />
  <rect
     ry="2"
     y="47"
     x="5.999999"
     height="9"
     width="9"
     id="rect819-7-5-1-1-7"
     style="opacity:1;fill:#a7131b;fill-opacity:1;stroke:none;stroke-width:3.77952766;stroke-linecap:round;stroke-linejoin:round;stroke-miterlimit:4;stroke-dasharray:none;stroke-opacity:1" />
  <rect
     ry="0"
     y="47"
     x="5.999999"
     height="9"
     width="2"
     id="rect926-2-8-9"
     style="opacity:1;fill:#a7131b;fill-opacity:1;stroke:none;stroke-width:3.77952766;stroke-linecap:round;stroke-linejoin:round;stroke-miterlimit:4;stroke-dasharray:none;stroke-opacity:1" />
  <rect
     ry="0"
     y="47"
     x="56"
     height="9"
     width="2"
     id="rect928-3-7-2"
     style="opacity:1;fill:#a7131b;fill-opacity:1;stroke:none;stroke-width:3.77952766;stroke-linecap:round;stroke-linejoin:round;stroke-miterlimit:4;stroke-dasharray:none;stroke-opacity:1" />
  <rect
     ry="2"
     y="33"
     x="5.999999"
     height="8"
     width="24"
     id="rect819-9-0"
     style="opacity:1;fill:#e21a25;fill-opacity:1;stroke:none;stroke-width:3.77952766;stroke-linecap:round;stroke-linejoin:round;stroke-miterlimit:4;stroke-dasharray:none;stroke-opacity:1" />
  <rect
     ry="2"
     y="33"
     x="34"
     height="8"
     width="24"
     id="rect819-3-2-2"
     style="opacity:1;fill:#e21a25;fill-opacity:1;stroke:none;stroke-width:3.77952766;stroke-linecap:round;stroke-linejoin:round;stroke-miterlimit:4;stroke-dasharray:none;stroke-opacity:1" />
  <rect
     ry="2"
     y="47"
     x="19.999998"
     height="8"
     width="24"
     id="rect819-6-0-3"
     style="opacity:1;fill:#e21a25;fill-opacity:1;stroke:none;stroke-width:3.77952766;stroke-linecap:round;stroke-linejoin:round;stroke-miterlimit:4;stroke-dasharray:none;stroke-opacity:1" />
  <rect
     ry="2"
     y="47"
     x="49"
     height="8"
     width="9"
     id="rect819-7-2-7"
     style="opacity:1;fill:#e21a25;fill-opacity:1;stroke:none;stroke-width:3.77952766;stroke-linecap:round;stroke-linejoin:round;stroke-miterlimit:4;stroke-dasharray:none;stroke-opacity:1" />
  <rect
     ry="2"
     y="47"
     x="5.999999"
     height="8"
     width="9"
     id="rect819-7-5-3-5"
     style="opacity:1;fill:#e21a25;fill-opacity:1;stroke:none;stroke-width:3.77952766;stroke-linecap:round;stroke-linejoin:round;stroke-miterlimit:4;stroke-dasharray:none;stroke-opacity:1" />
  <rect
     ry="0"
     y="47"
     x="5.999999"
     height="8"
     width="2"
     id="rect926-7-9"
     style="opacity:1;fill:#e21a25;fill-opacity:1;stroke:none;stroke-width:3.77952766;stroke-linecap:round;stroke-linejoin:round;stroke-miterlimit:4;stroke-dasharray:none;stroke-opacity:1" />
  <rect
     ry="0"
     y="47"
     x="56"
     height="8"
     width="2"
     id="rect928-5-2"
     style="opacity:1;fill:#e21a25;fill-opacity:1;stroke:none;stroke-width:3.77952766;stroke-linecap:round;stroke-linejoin:round;stroke-miterlimit:4;stroke-dasharray:none;stroke-opacity:1" />
  <circle
     r="14"
     cy="49"
     cx="48"
     id="path910-0"
     style="opacity:1;fill:#1b70da;fill-opacity:1;stroke:none;stroke-width:3.99987626;stroke-linecap:round;stroke-linejoin:round;stroke-miterlimit:4;stroke-dasharray:none;stroke-opacity:1" />
  <circle
     r="14"
     cy="48"
     cx="48"
     id="path910"
     style="opacity:1;fill:#62a0e9;fill-opacity:1;stroke:none;stroke-width:3.99987626;stroke-linecap:round;stroke-linejoin:round;stroke-miterlimit:4;stroke-dasharray:none;stroke-opacity:1" />
  <path
     id="path882-7"
     d="m 50.679485,36.999997 -5.359012,9.8e-5 -10e-7,0.999999 0.08758,1.141938 c -1.078145,0.35383 -2.072077,0.92543 -2.920138,1.679336 l -1.808326,-1.141852 -2.679591,4.64099 -10e-7,0.999999 1.900978,-7.86e-4 c -0.230025,1.108758 -0.230242,2.252908 -6.38e-4,3.361752 l -1.900241,0.998045 -1e-6,1 2.679422,3.640893 1.809502,-1.143776 c 0.845887,0.755378 1.837893,1.328989 2.914543,1.685282 l -0.08306,2.138087 5.359008,-1.01e-4 -0.08758,-2.141935 c 1.078144,-0.353828 2.07208,-0.925428 2.920143,-1.679336 l 1.808326,1.141854 2.679588,-3.640994 10e-7,-0.999999 -1.900976,-0.999211 c 0.230024,-1.108758 0.230241,-2.252907 6.37e-4,-3.361751 l 1.900241,0.0019 5e-6,-1 -2.679418,-4.640896 -1.809505,1.143776 c -0.845884,-0.75537 -1.837893,-1.328981 -2.914545,-1.685273 l 0.08306,-1.138084 z m -1.607695,6.000001 c 2.209138,0.591939 3.520137,2.86266 2.928201,5.071797 -0.591937,2.209139 -2.862658,3.520141 -5.071797,2.928205 -2.20914,-0.591938 -3.520141,-2.862659 -2.928203,-5.071799 0.03556,-0.133083 0.07774,-0.264308 0.126369,-0.393187 0.752589,-1.989913 2.890574,-3.085815 4.945505,-2.534998 z"
     style="fill:#1b70da;stroke:none;stroke-width:2.07055259px;stroke-linecap:butt;stroke-linejoin:miter;stroke-opacity:1;fill-opacity:1" />
  <path
     id="path882"
     d="m 50.679484,37.999996 -5.359012,9.8e-5 0.08758,2.141938 a 8.2822111,8.2822111 0 0 0 -2.920138,1.679336 l -1.808326,-1.141852 -2.679591,4.640989 1.900977,0.999213 a 8.2822111,8.2822111 0 0 0 -6.38e-4,3.361753 l -1.900241,0.998045 2.679421,4.640893 1.809502,-1.143776 a 8.2822111,8.2822111 0 0 0 2.914543,1.685282 l -0.08306,2.138086 5.359009,-10e-5 -0.08758,-2.141935 a 8.2822111,8.2822111 0 0 0 2.920141,-1.679336 l 1.808327,1.141854 2.679588,-4.640994 -1.900974,-0.99921 a 8.2822111,8.2822111 0 0 0 6.36e-4,-3.361752 l 1.900248,-0.998046 -2.679418,-4.640896 -1.809506,1.143776 A 8.2822111,8.2822111 0 0 0 50.596423,40.13808 Z m -1.607695,6.000002 a 4.1411057,4.1411057 0 0 1 2.9282,5.071797 A 4.1411057,4.1411057 0 0 1 46.928193,52 4.1411057,4.1411057 0 0 1 43.99999,46.9282 a 4.1411057,4.1411057 0 0 1 0.126369,-0.393186 4.1411057,4.1411057 0 0 1 4.945506,-2.534998 z"
     style="fill:#ffffff;stroke:none;stroke-width:2.07055259px;stroke-linecap:butt;stroke-linejoin:miter;stroke-opacity:1" />
</svg>
