<svg version="1" viewBox="0 0 32 32" width="32" height="32" xmlns="http://www.w3.org/2000/svg">
 <defs>
  <linearGradient id="a" x1="-50.45" x2="-50.45" y1="-.040987" y2="-22.041" gradientTransform="matrix(1.2727 0 0 1.2727 33.208 -1.9478)" gradientUnits="userSpaceOnUse">
   <stop stop-color="#e5a50a" offset="0"/>
   <stop stop-color="#e5a50a" offset=".071429"/>
   <stop stop-color="#f6d32d" offset=".21429"/>
   <stop stop-color="#e5a50a" offset=".46429"/>
   <stop stop-color="#e5a50a" offset="1"/>
  </linearGradient>
 </defs>
 <rect transform="matrix(0,-1,-1,0,0,0)" x="-31" y="-30" width="28" height="28" rx="14" ry="14" fill="url(#a)" stroke-width=".7"/>
 <rect transform="matrix(0,-1,-1,0,0,0)" x="-30" y="-30" width="28" height="28" rx="14" ry="14" fill="#f6d32d" stroke-width=".7"/>
 <path d="m21.337 7.7249c-3.428 0-4.0711 5.2088-2.1424 5.2088 1.9279 0 5.5708-5.2088 2.1424-5.2088zm-5.2802 0.80136c-0.054-2.011e-4 -0.1127 0.00496-0.17348 0.011327-1.9426 0.24536-1.2589 3.533-0.22478 3.5943 1.0014 0.05979 2.0969-3.5996 0.39758-3.6053zm-3.3684 1.2137c-0.11885-0.00751-0.25041 0.015044-0.39689 0.074964-1.5614 0.64116-0.23692 3.2879 0.63719 3.1099 0.79339-0.16122 0.90713-3.1105-0.2403-3.1851zm-2.5486 2.1638c-0.13571-0.0037-0.28214 0.043-0.43874 0.15962-1.2498 0.93278 0.42052 3.1862 1.1559 2.8368 0.64328-0.30604 0.23287-2.962-0.71739-2.9965zm7.3818 2.1513c-2.7081-0.04657-6.2809 1.3277-6.8904 4.0885-0.65947 2.9869 2.7169 7.1314 6.239 7.1314 1.7327 0 3.7311-1.5835 4.1054-3.5889 0.28552-1.529-3.3606-0.91624-3.2297 0.09539 0.15728 1.2128-0.87939 1.8124-1.8945 1.0307-3.2313-2.489 5.3504-3.7311 4.7843-7.1314-0.17617-1.0585-1.4897-1.5976-3.1144-1.6254z" stroke-width=".675"/>
 <rect x="16" y="16" width="16" height="16" ry="1" fill="#f6f5f4"/>
 <g transform="translate(-429.56 -415.76)">
  <g transform="matrix(.055168 0 0 .065809 433.92 411.69)" fill="#3d3846">
   <path d="m427.1 320.2h2.4607l-1.5659 1.5659h-0.89478v-1.5659m-181.19 3.8028v1.7896l-5.8161 7.1583h-0.89478l-0.89479-5.5924c3.43-2.2368 5.9653-3.3552 7.6057-3.3554m212.06 2.4607c5.0702 2e-4 7.9037 3.2065 8.5005 9.619l-4.2502 30.199h1.5659l3.3554-2.237h0.89479v0.67109c-4.6233 2.8337-9.0972 10.588-13.422 23.264-1.6406 10.887-4.3996 20.953-8.2768 30.199-3.4302 9.5445-5.1452 18.343-5.145 26.396l-6.4872 15.882c-1.8e-4 1.3422 2.4605 2.6844 7.382 4.0265-0.89497 3.1318-2.2372 4.6977-4.0265 4.6976v0.89479h1.5659v0.67109c-1.8e-4 1.6405-2.5354 2.4607-7.6057 2.4607l0.89479 0.89479v3.1318h-1.5659c1.0437 3.1318 3.2807 4.6977 6.7109 4.6976v1.5659h-6.7109v0.89479c2.2368 4e-5 3.3553 1.3422 3.3555 4.0265l-9.3953 3.1318 0.89479 0.89478v0.67109c-1.7e-4 1.044-1.1186 1.5659-3.3555 1.5659v0.89478c2.8333 3e-5 4.2501 0.522 4.2502 1.5659-4.0267 1.3422-9.3209 7.9785-15.882 19.909-6.711 10.588-12.527 15.882-17.448 15.882h-1.7896c-3.7284-2.3861-6.7856-10.29-9.1716-23.712-9.5445-20.431-14.317-32.436-14.317-36.015-1e-4 -9.2461-3.0573-19.089-9.1716-29.528-1.6405-4.623-2.759-10.439-3.3554-17.448l-4.0265-0.89478c-10.141 15.361-15.435 27.366-15.882 36.015-2.8336 5.0705-5.0705 11.185-6.7109 18.343 6.1143 1.6405 9.1715 3.2064 9.1716 4.6976v0.89478c-4.7723-0.59648-8.1277-1.715-10.066-3.3555-2.0879 4.0266-4.8468 15.211-8.2768 33.555-2.6844 8.5005-6.0399 12.751-10.066 12.751-11.334-3.7283-20.804-9.8426-28.409-18.343-1.1931 2e-5 -3.1318-4.2502-5.8161-12.751-1.6404 3e-5 -2.7589-4.2502-3.3554-12.751-5.667-12.08-9.5444-25.874-11.632-41.384v-23.264h-0.89479l-4.0266 0.89479v-0.89479c1e-5 -1.0438 1.3422-1.5658 4.0266-1.5659l-0.89478-13.422v-10.514l-6.4872-33.555v-14.317c2.8335-8.9477 7.7548-13.422 14.764-13.422h46.976v1.5659c-3.7283 0.14933-6.2636 0.96955-7.6057 2.4607-2.8335-1.6403-5.5925-2.4605-8.2768-2.4607h-9.1716l-5.145 0.67109-0.89479-0.67109h-0.67109l-6.7109 0.67109-3.3554-0.67109-2.4607 0.67109-2.6844-0.67109c10.887 11.931 17.299 21.997 19.238 30.199h7.6057v1.5659h-5.8161v1.7896c2.2369 6.8602 3.8774 10.29 4.9213 10.29h1.7896l4.0265-0.89479 0.89479 0.89479 0.89478-0.89479 0.89479 0.89479v0.67109c-2.9827 1.7897-4.9959 4.2504-6.0398 7.382h-0.67109v1.5659h1.5659c2.0878 24.905 5.9652 43.77 11.632 56.595l3.3555 2.237h1.7896c2.2369 9e-5 6.9345-8.7241 14.093-26.173 4.623-7.9038 7.9784-14.838 10.066-20.804l-0.89478-2.4607c4.623-5.816 9.3952-8.724 14.317-8.7242h1.5659c3.1316 1.5e-4 5.3686 1.6406 6.7109 4.9213 4.1756 4.9215 7.531 12.303 10.066 22.146l12.527 23.264c1.6403 1.6405 2.4605 3.5047 2.4607 5.5924 4.6229 8.7988 8.7986 14.615 12.527 17.448h2.6844c3.1316 6e-5 7.3073-10.887 12.527-32.66 0.89463 1e-4 3.3553-5.816 7.382-17.448v-0.89479l-14.093-1.5659-3.3555 0.89478h-4.2502v-1.7896l8.5005-0.67109h16.554c6.4125-19.238 12.303-34.151 17.672-44.739 1.7894-21.773 4.25-32.66 7.382-32.66l10.066-4.0266m-47.647 2.4607c-0.89494 2.088-2.8336 3.132-5.8161 3.1318v-1.5659l5.8161-1.5659m-84.334 4.0266h22.593v1.5659l-5.145 0.67109-4.9213-0.67109-4.2502 1.5659-1.5659-1.5659h-6.7109v-1.5659m46.753 12.751h2.4607v0.67109c-1.2e-4 1.0441-0.82034 1.566-2.4607 1.5659l-0.89478 0.89479v0.89479l-2.4607-0.89479v-1.5659l3.3554-1.5659m-12.527 8.7242v0.89479c-1.1e-4 1.1932-3.5792 2.4608-10.737 3.8028v-1.5659l4.9213-2.237 0.89479 0.67109h0.67109l4.2502-1.5659m-24.159 8.0531v0.67109c-3.1318 2.3862-8.2023 4.5487-15.211 6.4872v-1.5659c1.193 1.6e-4 1.7895-0.82007 1.7896-2.4607l13.422-3.1318m42.502 7.8294 0.8948 0.89478v0.67109l-1.5659 1.7896h-0.89478l-1.7896-1.7896v-0.67109l3.3554-0.89478m30.87 0.89478h0.8948v0.67109l-1.5659 1.7896h-0.89478v-0.89478l1.5659-1.5659m-14.093 11.185 3.3554 2.237c-0.59666 1.6406-2.2371 2.4608-4.9213 2.4607l-1.7896-2.4607c-1.3e-4 -0.74551 1.1184-1.4912 3.3555-2.237m20.133 10.29 0.67109 0.89478v0.67109l-0.67109 0.89479h-1.7896v-0.89479l1.7896-1.5659m-31.765 8.0531v0.67109l-4.2502 3.3554h-2.4607v-0.89479c-1.2e-4 -1.342 2.2368-2.386 6.7109-3.1318m-138.69 31.094h0.89478v0.67109c-2.237 4.9214-4.1756 7.904-5.8161 8.9479h-1.7896v-3.3554l6.7109-6.2635m109.39 37.357h0.89479v1.5659l-6.7109 3.3554-0.8948-0.89479v-1.5659l6.7109-2.4607m-91.939 10.514h1.5659l2.6844 8.7242h-1.7896l-2.4607-8.0531v-0.67109m89.479 10.29h0.67109l2.6844 2.4607-0.89479 0.67109h-0.89479l-1.5659-2.237v-0.8948" fill="#3d3846" stroke-width="1.0472"/>
  </g>
 </g>
</svg>
