<?xml version="1.0" encoding="UTF-8"?>
<svg version="1" viewBox="0 0 32 32" xmlns="http://www.w3.org/2000/svg" xmlns:cc="http://creativecommons.org/ns#" xmlns:dc="http://purl.org/dc/elements/1.1/" xmlns:rdf="http://www.w3.org/1999/02/22-rdf-syntax-ns#">
<metadata>
<rdf:RDF>
<cc:Work rdf:about="">
<dc:format>image/svg+xml</dc:format>
<dc:type rdf:resource="http://purl.org/dc/dcmitype/StillImage"/>
<dc:title/>
</cc:Work>
</rdf:RDF>
</metadata>
<defs>
<linearGradient id="a" x1="-50.45" x2="-50.45" y1="-.040987" y2="-22.041" gradientUnits="userSpaceOnUse">
<stop stop-color="#33d17a" offset="0"/>
<stop stop-color="#33d17a" offset=".071429"/>
<stop stop-color="#8ff0a4" offset=".21429"/>
<stop stop-color="#33d17a" offset=".46429"/>
<stop stop-color="#33d17a" offset="1"/>
</linearGradient>
</defs>
<g transform="matrix(1.2727 0 0 1.2727 1.9478 -33.208)">
<rect transform="matrix(0,-1,-1,0,0,0)" x="-50.45" y="-22.041" width="22" height="22" rx="11" ry="11" fill="url(#a)" stroke-width=".55"/>
<rect transform="matrix(0,-1,-1,0,0,0)" x="-49.664" y="-22.041" width="22" height="22" rx="11" ry="11" fill="#57e389" stroke-width=".55"/>
<path d="m10.254 37.878-7.0706-5.5002v11z" fill="#33d17a"/>
<path d="m10.254 38.664-7.0706-5.5002v11z" fill="#fff"/>
<path d="m11.041 31.592a6.2857 6.2857 0 0 0 -4.6468 2.0625l0.62305 0.4834a5.5 5.5 0 0 1 4.0237 -1.7602 5.5 5.5 0 0 1 5.5 5.5 5.5 5.5 0 0 1 -5.5 5.5 5.5 5.5 0 0 1 -4.0253 -1.7586l-0.61998 0.4834a6.2857 6.2857 0 0 0 4.6452 2.061 6.2857 6.2857 0 0 0 6.2857 -6.2857 6.2857 6.2857 0 0 0 -6.2857 -6.2857zm0 1.5714a4.7143 4.7143 0 0 0 -3.4053 1.4563l0.62458 0.48647a3.9286 3.9286 0 0 1 2.7807 -1.1571 3.9286 3.9286 0 0 1 3.9286 3.9286 3.9286 3.9286 0 0 1 -3.9286 3.9286 3.9286 3.9286 0 0 1 -2.7792 -1.1556l-0.62151 0.4834a4.7143 4.7143 0 0 0 3.4007 1.4579 4.7143 4.7143 0 0 0 4.7143 -4.7143 4.7143 4.7143 0 0 0 -4.7143 -4.7143z" fill="#33d17a"/>
<path transform="matrix(.78571 0 0 .78571 -1.5304 26.092)" d="m16 8a8 8 0 0 0 -5.9141 2.625l0.79297 0.61523a7 7 0 0 1 5.1211 -2.2402 7 7 0 0 1 7 7 7 7 0 0 1 -7 7 7 7 0 0 1 -5.123 -2.2383l-0.78906 0.61523a8 8 0 0 0 5.9121 2.623 8 8 0 0 0 8 -8 8 8 0 0 0 -8 -8zm0 2a6 6 0 0 0 -4.334 1.8535l0.79492 0.61914a5 5 0 0 1 3.5391 -1.4727 5 5 0 0 1 5 5 5 5 0 0 1 -5 5 5 5 0 0 1 -3.5371 -1.4707l-0.79102 0.61523a6 6 0 0 0 4.3281 1.8555 6 6 0 0 0 6 -6 6 6 0 0 0 -6 -6z" fill="#fff"/>
</g>
</svg>
