<?xml version="1.0" encoding="UTF-8" standalone="no"?>
<svg
   xmlns:dc="http://purl.org/dc/elements/1.1/"
   xmlns:cc="http://creativecommons.org/ns#"
   xmlns:rdf="http://www.w3.org/1999/02/22-rdf-syntax-ns#"
   xmlns:svg="http://www.w3.org/2000/svg"
   xmlns="http://www.w3.org/2000/svg"
   id="svg63"
   viewBox="0 0 32 32"
   version="1">
  <metadata
     id="metadata2">
    <rdf:RDF>
      <cc:Work
         rdf:about="">
        <dc:format>image/svg+xml</dc:format>
        <dc:type
           rdf:resource="http://purl.org/dc/dcmitype/StillImage" />
        <dc:title></dc:title>
      </cc:Work>
    </rdf:RDF>
  </metadata>
  <defs
     id="defs15">
    <linearGradient
       gradientUnits="userSpaceOnUse"
       gradientTransform="matrix(1.2727 0 0 1.2727 34.208 -1.9478)"
       y2="-22.041"
       y1="-.040987"
       x2="-50.45"
       x1="-50.45"
       id="a">
      <stop
         id="stop4"
         offset="0"
         stop-color="#241f31" />
      <stop
         id="stop6"
         offset=".071429"
         stop-color="#241f31" />
      <stop
         id="stop8"
         offset=".21429"
         stop-color="#5e5c64" />
      <stop
         id="stop10"
         offset=".46429"
         stop-color="#241f31" />
      <stop
         id="stop12"
         offset="1"
         stop-color="#241f31" />
    </linearGradient>
  </defs>
  <rect
     id="rect17"
     stroke-width=".7"
     fill="url(#a)"
     ry="14"
     rx="14"
     height="28"
     width="28"
     y="-30"
     x="-30"
     transform="matrix(0,-1,-1,0,0,0)" />
  <rect
     id="rect19"
     stroke-width=".7"
     fill="#3d3846"
     ry="14"
     rx="14"
     height="28"
     width="28"
     y="-30"
     x="-29"
     transform="matrix(0,-1,-1,0,0,0)" />
  <g
     id="g61"
     fill-rule="evenodd"
     fill="#fff"
     transform="matrix(.031127 0 0 .030676 4.0882 .17391)">
    <path
       id="path23"
       d="m253.1 451.55 298.08 199.02c12.334-12.843 12.334-12.843 20.218-24.621 67.018-100.11 43.708-243.64-62.101-314.01-106.19-71.55-247.77-38.409-315.25 61.784-64.58 97.083-49.13 239.61 62.398 315.13 97.527 64.428 188.98 36.104 245.01 5.0054l-27.977-47.98c-60.4 31.845-131.16 35.64-185.69-1.4596-83.858-55.543-100.35-164.66-48.689-241.07 50.833-76.698 156.03-100.08 239.23-45.138 87.582 59.382 82.47 162.56 60.763 208.74-9.5889-6.5965-19.178-13.193-28.767-19.789 24.996-64.762-0.4326-128.69-50.488-162.2-58.889-39.423-144.4-32.707-192.21 38.547-9.3484 14.134-9.3484 14.134-14.517 28.041z" />
    <path
       id="path25"
       d="m381.95 173.62c-4.4291 44.291-10.63 72.638-28.346 79.724 17.716-1.7717 19.488-1.7717 28.346-1.7717 8.8583 0 10.63 0 28.346 1.7717-17.716-7.0867-23.917-35.433-28.346-79.724z" />
    <path
       id="path27"
       d="m314.55 180.67c4.8241 44.25 4.618 73.266-11.25 83.863 16.967-5.3964 18.701-5.7627 27.368-7.5942 8.6669-1.8315 10.4-2.1978 28.1-4.1274-18.799-3.2706-30.726-29.722-44.218-72.141z" />
    <path
       id="path29"
       d="m251.09 201.04c13.723 42.344 19.423 70.795 6.0412 84.398 15.515-8.7345 17.138-9.4457 25.251-13.002 8.1133-3.5559 9.7359-4.2671 26.674-9.7563-19.071 0.6212-36.129-22.852-57.966-61.64z" />
    <path
       id="path31"
       d="m192.19 234.55c22.182 38.592 33.64 65.25 23.36 81.325 13.374-11.754 14.815-12.785 22.017-17.942 7.2028-5.1565 8.6433-6.1879 24.08-15.06-18.531 4.5508-40.074-14.888-69.458-48.323z" />
    <path
       id="path33"
       d="m141.73 279.24c29.644 33.205 46.34 56.937 39.586 74.783 10.671-14.253 11.869-15.558 17.857-22.086 5.9884-6.5276 7.1859-7.8332 20.468-19.691-17.199 8.2645-42.279-6.3285-77.911-33.006z" />
    <path
       id="path35"
       d="m450.08 180.71c-4.8241 44.25-4.618 73.266 11.25 83.863-16.967-5.3964-18.701-5.7627-27.368-7.5942-8.6669-1.8315-10.4-2.1978-28.1-4.1274 18.799-3.2706 30.726-29.722 44.218-72.141z" />
    <path
       id="path37"
       d="m513.54 201.08c-13.723 42.344-19.423 70.795-6.0412 84.398-15.515-8.7345-17.138-9.4457-25.251-13.002-8.1133-3.5559-9.7359-4.2671-26.674-9.7563 19.071 0.6212 36.129-22.852 57.966-61.64z" />
    <path
       id="path39"
       d="m572.44 234.59c-22.182 38.592-33.64 65.25-23.36 81.325-13.374-11.754-14.815-12.785-22.017-17.942-7.2028-5.1565-8.6433-6.1879-24.08-15.06 18.531 4.5508 40.074-14.888 69.458-48.323z" />
    <path
       id="path41"
       d="m622.89 279.28c-29.644 33.205-46.34 56.937-39.586 74.783-10.671-14.253-11.869-15.558-17.857-22.086-5.9884-6.5276-7.1859-7.8332-20.468-19.691 17.199 8.2645 42.279-6.3285 77.911-33.006z" />
    <path
       id="path43"
       d="m382.68 825.59c-4.4291-44.291-10.63-72.638-28.346-79.724 17.716 1.7717 19.488 1.7717 28.346 1.7717 8.8583 0 10.63 0 28.346-1.7717-17.716 7.0867-23.917 35.433-28.346 79.724z" />
    <path
       id="path45"
       d="m315.28 818.55c4.8241-44.25 4.618-73.266-11.25-83.863 16.967 5.3964 18.701 5.7627 27.368 7.5942 8.6669 1.8315 10.4 2.1978 28.1 4.1274-18.799 3.2706-30.726 29.722-44.218 72.141z" />
    <path
       id="path47"
       d="m251.82 798.17c13.723-42.344 19.423-70.795 6.0412-84.398 15.515 8.7345 17.138 9.4457 25.251 13.002 8.1133 3.5559 9.7359 4.2671 26.674 9.7563-19.071-0.6212-36.129 22.852-57.966 61.64z" />
    <path
       id="path49"
       d="m192.92 764.67c22.182-38.592 33.64-65.25 23.36-81.325 13.374 11.754 14.815 12.785 22.017 17.942 7.2028 5.1565 8.6433 6.1879 24.08 15.06-18.531-4.5508-40.074 14.888-69.458 48.323z" />
    <path
       id="path51"
       d="m142.46 719.97c29.644-33.205 46.34-56.937 39.586-74.783 10.671 14.253 11.869 15.558 17.857 22.086 5.9884 6.5276 7.1859 7.8332 20.468 19.691-17.199-8.2645-42.279 6.3285-77.911 33.006z" />
    <path
       id="path53"
       d="m450.8 818.5c-4.8241-44.25-4.618-73.266 11.25-83.863-16.967 5.3964-18.701 5.7627-27.368 7.5942-8.6669 1.8315-10.4 2.1978-28.1 4.1274 18.799 3.2706 30.726 29.722 44.218 72.141z" />
    <path
       id="path55"
       d="m514.26 798.13c-13.723-42.344-19.423-70.795-6.0412-84.398-15.515 8.7345-17.138 9.4457-25.251 13.002-8.1133 3.5559-9.7359 4.2671-26.674 9.7563 19.071-0.6212 36.129 22.852 57.966 61.64z" />
    <path
       id="path57"
       d="m573.17 764.62c-22.182-38.592-33.64-65.25-23.36-81.325-13.374 11.754-14.815 12.785-22.017 17.942-7.2028 5.1565-8.6433 6.1879-24.08 15.06 18.531-4.5508 40.074 14.888 69.458 48.323z" />
    <path
       id="path59"
       d="m623.62 719.93c-29.644-33.205-46.34-56.937-39.586-74.783-10.671 14.253-11.869 15.558-17.857 22.086-5.9884 6.5276-7.1859 7.8332-20.468 19.691 17.199-8.2645 42.279 6.3285 77.911 33.006z" />
  </g>
</svg>
