<?xml version="1.0" encoding="UTF-8" standalone="no"?>
<svg
   xmlns:dc="http://purl.org/dc/elements/1.1/"
   xmlns:cc="http://creativecommons.org/ns#"
   xmlns:rdf="http://www.w3.org/1999/02/22-rdf-syntax-ns#"
   xmlns:svg="http://www.w3.org/2000/svg"
   xmlns="http://www.w3.org/2000/svg"
   width="64"
   height="64"
   version="1"
   id="svg14">
  <metadata
     id="metadata20">
    <rdf:RDF>
      <cc:Work
         rdf:about="">
        <dc:format>image/svg+xml</dc:format>
        <dc:type
           rdf:resource="http://purl.org/dc/dcmitype/StillImage" />
        <dc:title></dc:title>
      </cc:Work>
    </rdf:RDF>
  </metadata>
  <defs
     id="defs18" />
  <g
     transform="matrix(0.07510248,0,0,0.07510248,5,4)"
     id="g1085">
    <rect
       ry="26.63028"
       y="53.260559"
       x="13.31514"
       height="665.75696"
       width="692.38727"
       id="rect1327"
       style="opacity:1;fill:#aa4400;fill-opacity:1;stroke:none;stroke-width:50.32493973;stroke-linecap:round;stroke-linejoin:round;stroke-miterlimit:4;stroke-dasharray:none;stroke-opacity:1" />
    <rect
       ry="26.63028"
       y="26.63028"
       x="13.31514"
       height="639.12671"
       width="692.38727"
       id="rect1325"
       style="opacity:1;fill:#ff6600;fill-opacity:1;stroke:none;stroke-width:50.32493973;stroke-linecap:round;stroke-linejoin:round;stroke-miterlimit:4;stroke-dasharray:none;stroke-opacity:1" />
    <path
       id="rect820-3"
       d="m 213.04223,319.56334 c -7.37659,0 -13.31514,5.93855 -13.31514,13.31514 v 26.63028 h -33.28785 c -18.44147,0 -33.28785,14.84638 -33.28785,33.28785 v 66.5757 c 0,18.44147 14.84638,33.28785 33.28785,33.28785 h 37.94294 c 9.52038,26.97988 32.99043,47.24019 61.92061,52.06427 v 7.85385 c 0,18.44147 14.84638,33.28785 33.28785,33.28785 h 133.15139 c 18.44147,0 33.28785,-14.84638 33.28785,-33.28785 v -7.85385 c 37.86525,-6.314 66.5757,-38.98263 66.5757,-78.69455 v -39.94542 -93.20598 c 0,-7.37659 -5.93855,-13.31514 -13.31514,-13.31514 z m -19.97271,66.5757 h 6.65757 v 53.26056 26.63028 h -6.65757 c -18.44147,0 -33.28785,-14.84638 -33.28785,-33.28785 v -13.31514 c 0,-18.44147 14.84638,-33.28785 33.28785,-33.28785 z"
       style="opacity:1;fill:#aa4400;fill-opacity:1;stroke:none;stroke-width:50.32493973;stroke-linecap:round;stroke-linejoin:round;stroke-miterlimit:4;stroke-dasharray:none;stroke-opacity:1" />
    <path
       id="rect820"
       transform="matrix(13.31514,0,0,13.31514,-66.575698,-53.260558)"
       d="M 21 29 C 20.446 29 20 29.446 20 30 L 20 32 L 17.5 32 C 16.115 32 15 33.115 15 34.5 L 15 39.5 C 15 40.885 16.115 42 17.5 42 L 20.349609 42 C 21.064613 44.026256 22.827272 45.547856 25 45.910156 L 25 46.5 C 25 47.885 26.115 49 27.5 49 L 37.5 49 C 38.885 49 40 47.885 40 46.5 L 40 45.910156 C 42.843774 45.435959 45 42.982464 45 40 L 45 37 L 45 30 C 45 29.446 44.554 29 44 29 L 21 29 z M 19.5 34 L 20 34 L 20 38 L 20 40 L 19.5 40 C 18.115 40 17 38.885 17 37.5 L 17 36.5 C 17 35.115 18.115 34 19.5 34 z "
       style="opacity:1;fill:#ffffff;fill-opacity:1;stroke:none;stroke-width:3.77952766;stroke-linecap:round;stroke-linejoin:round;stroke-miterlimit:4;stroke-dasharray:none;stroke-opacity:1" />
    <path
       id="path838-6"
       d="m 306.24822,292.93306 c 0,0 16.13359,-61.9487 13.31513,-93.20598 -2.52092,-27.95735 -33.07962,-52.57098 -26.63028,-79.89083 7.21058,-30.544527 66.57571,-66.575687 66.57571,-66.575687 0,0 0,0 0,13.315139 -10.01778,11.869488 -37.73919,33.162173 -39.94543,53.260548 -3.06299,27.90316 27.79685,51.8443 26.63027,79.89083 -1.40474,33.77249 -39.9454,93.20598 -39.9454,93.20598 z"
       style="fill:#aa4400;fill-opacity:1;stroke:none;stroke-width:13.31513977px;stroke-linecap:butt;stroke-linejoin:miter;stroke-opacity:1" />
    <path
       id="path838"
       d="m 306.24822,306.24822 c 0,0 16.1336,-61.94871 13.31513,-93.20599 -2.52092,-27.95735 -33.07962,-52.57098 -26.63028,-79.89083 7.21059,-30.54453 66.57571,-66.575698 66.57571,-66.575698 0,0 -37.12149,40.850248 -39.94543,66.575698 -3.06299,27.90316 27.79686,51.8443 26.63028,79.89083 -1.40475,33.77249 -39.94541,93.20599 -39.94541,93.20599 z"
       style="fill:#ffffff;stroke:none;stroke-width:13.31513977px;stroke-linecap:butt;stroke-linejoin:miter;stroke-opacity:1" />
    <path
       id="path840-7"
       d="m 386.13906,93.205973 c 0,0 0,0 0,13.315147 7.80679,14.60141 26.63028,38.29334 26.63028,53.26055 0,23.90141 -26.6303,42.67428 -26.6303,66.5757 0,23.9014 26.63028,66.57569 26.63028,66.57569 0,0 -5.09864,-44.97746 0,-66.57569 4.56037,-19.31807 27.86365,-33.44988 26.63028,-53.26057 -1.98875,-31.94376 -53.26054,-79.890827 -53.26054,-79.890827 z"
       style="fill:#aa4400;fill-opacity:1;stroke:none;stroke-width:13.31513977px;stroke-linecap:butt;stroke-linejoin:miter;stroke-opacity:1" />
    <path
       id="path840"
       d="m 386.13906,106.52112 c 0,0 26.63028,42.67429 26.63028,66.5757 0,23.90141 -26.63029,42.67428 -26.63029,66.57569 0,23.90141 26.63028,66.5757 26.63028,66.5757 0,0 -5.09865,-44.97746 0,-66.5757 4.56037,-19.31806 27.86364,-33.44988 26.63027,-53.26056 -1.98875,-31.94376 -53.26054,-79.89083 -53.26054,-79.89083 z"
       style="fill:#ffffff;stroke:none;stroke-width:13.31513977px;stroke-linecap:butt;stroke-linejoin:miter;stroke-opacity:1" />
  </g>
  <circle
     r="14"
     cy="49"
     cx="48"
     id="path910-0"
     style="opacity:1;fill:#1b70da;fill-opacity:1;stroke:none;stroke-width:3.99987626;stroke-linecap:round;stroke-linejoin:round;stroke-miterlimit:4;stroke-dasharray:none;stroke-opacity:1" />
  <circle
     r="14"
     cy="48"
     cx="48"
     id="path910"
     style="opacity:1;fill:#62a0e9;fill-opacity:1;stroke:none;stroke-width:3.99987626;stroke-linecap:round;stroke-linejoin:round;stroke-miterlimit:4;stroke-dasharray:none;stroke-opacity:1" />
  <path
     id="path882-7"
     d="m 50.679486,36.999998 -5.359012,9.8e-5 -10e-7,1 0.08758,1.141938 c -1.078145,0.35383 -2.072077,0.925429 -2.920139,1.679336 l -1.808325,-1.141852 -2.679591,4.640989 -10e-7,0.999999 1.900978,-7.86e-4 c -0.230025,1.108758 -0.230242,2.252908 -6.39e-4,3.361752 l -1.90024,0.998045 -10e-7,1 2.679422,3.640893 1.809502,-1.143776 c 0.845887,0.755378 1.837893,1.328989 2.914543,1.685282 l -0.08306,2.138087 5.359008,-1.01e-4 -0.08758,-2.141935 c 1.078144,-0.353828 2.07208,-0.925428 2.920143,-1.679336 l 1.808326,1.141854 2.679588,-3.640994 1e-6,-0.999999 -1.900976,-0.999211 c 0.230024,-1.108758 0.230241,-2.252907 6.37e-4,-3.361751 l 1.900241,0.0019 5e-6,-1 -2.679418,-4.640895 -1.809505,1.143776 c -0.845884,-0.75537 -1.837893,-1.328981 -2.914545,-1.685273 l 0.08306,-1.138085 z M 49.071791,43 c 2.209138,0.591939 3.520137,2.862659 2.928201,5.071796 -0.591937,2.209139 -2.862658,3.520141 -5.071797,2.928205 -2.20914,-0.591938 -3.520141,-2.862659 -2.928203,-5.071799 0.03556,-0.133083 0.07774,-0.264308 0.126369,-0.393187 0.752589,-1.989912 2.890574,-3.085814 4.945505,-2.534997 z"
     style="fill:#1b70da;fill-opacity:1;stroke:none;stroke-width:2.07055259px;stroke-linecap:butt;stroke-linejoin:miter;stroke-opacity:1" />
  <path
     id="path882"
     d="m 50.679485,37.999998 -5.359012,9.8e-5 0.08758,2.141938 a 8.2822111,8.2822111 0 0 0 -2.920139,1.679335 l -1.808325,-1.141851 -2.679591,4.640988 1.900977,0.999213 a 8.2822111,8.2822111 0 0 0 -6.39e-4,3.361753 l -1.90024,0.998045 2.679421,4.640893 1.809502,-1.143776 a 8.2822111,8.2822111 0 0 0 2.914543,1.685282 l -0.08306,2.138086 5.359009,-1e-4 -0.08758,-2.141935 a 8.2822111,8.2822111 0 0 0 2.920141,-1.679336 l 1.808327,1.141854 2.679588,-4.640994 -1.900974,-0.99921 a 8.2822111,8.2822111 0 0 0 6.36e-4,-3.361752 l 1.900248,-0.998046 -2.679418,-4.640895 -1.809506,1.143776 A 8.2822111,8.2822111 0 0 0 50.596424,40.138082 Z M 49.07179,44 a 4.1411057,4.1411057 0 0 1 2.9282,5.071796 4.1411057,4.1411057 0 0 1 -5.071796,2.928205 4.1411057,4.1411057 0 0 1 -2.928203,-5.0718 4.1411057,4.1411057 0 0 1 0.126369,-0.393186 4.1411057,4.1411057 0 0 1 4.945506,-2.534998 z"
     style="fill:#ffffff;stroke:none;stroke-width:2.07055259px;stroke-linecap:butt;stroke-linejoin:miter;stroke-opacity:1" />
</svg>
