<svg version="1.1" viewBox="0 0 32 32" width="32" height="32" xmlns="http://www.w3.org/2000/svg">
 <defs>
  <linearGradient id="a" x1="319.21" x2="657.65" y1="235.15" y2="269.49" gradientUnits="userSpaceOnUse">
   <stop stop-color="#e54c18" offset="0"/>
   <stop stop-color="#fec350" offset="1"/>
  </linearGradient>
 </defs>
 <g stroke-width=".5">
  <path d="m8 24c-0.554 0-1 0.49556-1 1.1111v2.7778c0 0.61555 0.446 1.1111 1 1.1111h16c0.554 0 1-0.49556 1-1.1111v-2.7778c0-0.61555-0.446-1.1111-1-1.1111z" fill="#5e5c64"/>
  <path d="m8 23c-0.554 0-1 0.49556-1 1.1111v2.7778c0 0.61555 0.446 1.1111 1 1.1111h16c0.554 0 1-0.49556 1-1.1111v-2.7778c0-0.61555-0.446-1.1111-1-1.1111z" fill="#9a9996"/>
  <path d="m3 5c-0.554 0-1 0.45744-1 1.0256v17.948c0 0.5682 0.446 1.0256 1 1.0256h26c0.554 0 1-0.45744 1-1.0256v-17.948c0-0.5682-0.446-1.0256-1-1.0256z" fill="#5e5c64"/>
  <path d="m3 4c-0.554 0-1 0.446-1 1v18c0 0.554 0.446 1 1 1h26c0.554 0 1-0.446 1-1v-18c0-0.554-0.446-1-1-1z" fill="#9a9996"/>
  <rect x="3" y="5" width="26" height="18" ry="0" fill="#241f31"/>
  <rect x="4" y="6" width="24" height="16" ry="0" fill="#3584e4"/>
  <path d="m4 6h18l-4 16h-14z" fill="#fff" opacity=".2"/>
 </g>
 <g transform="matrix(.039318 0 0 .039318 13.452 6.2896)">
  <g transform="translate(-413.21,-40.704)">
   <path d="m342.07 390.7 111.1-145.26-114.38-159.71 73.514 0.06108 91.138 125.58-136.27 179.33zm217.45 0.10271-90.509-125.8 137.4-179.41h24.482l-111.55 145.94 113.69 159.27z" fill="#fff"/>
  </g>
  <rect x="322.36" y="180.85" width=".50508" height="0" fill="#000cff" opacity=".40741"/>
 </g>
</svg>
