<svg version="1.1" viewBox="0 0 32 32" width="32" height="32" xmlns="http://www.w3.org/2000/svg">
 <g transform="matrix(.5 0 0 .5 0 8)">
  <rect x="6" y="26" width="52" height="20" ry="2" fill="#9a9996"/>
  <rect x="6" y="-12" width="52" height="34" ry="2" fill="#9a9996"/>
  <rect x="8" y="-10" width="48" height="30" ry="0" fill="#3d3846"/>
  <rect x="10" y="-8" width="44" height="26" ry="0" fill="#241f31"/>
  <path d="m10-8h36l-8 26h-28z" fill="#fff" opacity=".2"/>
  <rect x="6" y="22" width="52" height="22" ry="2" fill="#c0bfbc"/>
 </g>
 <rect x="5" y="20" width="22" height="5" ry="0" fill="#9a9996"/>
 <rect x="12" y="26" width="8" height="3" ry="0" fill="#9a9996"/>
 <g fill="#3d3846">
  <rect x="12" y="24" width="8" height="1"/>
  <rect x="10" y="24" width="1" height="1"/>
  <rect x="5" y="20" width="1" height="1"/>
  <rect x="7" y="20" width="1" height="1"/>
  <rect x="9" y="20" width="1" height="1"/>
  <rect x="11" y="20" width="1" height="1"/>
  <rect x="13" y="20" width="1" height="1"/>
  <rect x="15" y="20" width="1" height="1"/>
  <rect x="17" y="20" width="1" height="1"/>
  <rect x="19" y="20" width="1" height="1"/>
  <rect x="21" y="20" width="1" height="1"/>
  <rect x="23" y="20" width="1" height="1"/>
  <rect x="25" y="20" width="2" height="1"/>
  <rect x="5" y="22" width="2" height="1"/>
  <rect x="24" y="22" width="3" height="1"/>
  <rect x="8" y="22" width="1" height="1"/>
  <rect x="10" y="22" width="1" height="1"/>
  <rect x="12" y="22" width="1" height="1"/>
  <rect x="14" y="22" width="1" height="1"/>
  <rect x="16" y="22" width="1" height="1"/>
  <rect x="18" y="22" width="1" height="1"/>
  <rect x="20" y="22" width="1" height="1"/>
  <rect x="22" y="22" width="1" height="1"/>
  <rect x="5" y="24" width="1" height="1"/>
  <rect x="7" y="24" width="2" height="1"/>
  <rect x="21" y="24" width="2" height="1"/>
  <rect x="25" y="23" width="1" height="2"/>
  <rect x="24" y="24" width="3" height="1"/>
 </g>
</svg>
