<svg version="1.1" viewBox="0 0 32 32" width="32" height="32" xmlns="http://www.w3.org/2000/svg">
 <defs>
  <linearGradient id="a" x1="-50.45" x2="-50.45" y1="-.040987" y2="-22.041" gradientUnits="userSpaceOnUse">
   <stop stop-color="#1b887e" offset="0"/>
   <stop stop-color="#1b887e" offset=".071429"/>
   <stop stop-color="#25b9ab" offset=".21429"/>
   <stop stop-color="#1b887e" offset=".46429"/>
   <stop stop-color="#1b887e" offset="1"/>
  </linearGradient>
 </defs>
 <g transform="translate(0,-16)">
  <g transform="matrix(1.2727 0 0 1.2727 1.9478 -18.208)" stroke-width=".55">
   <rect transform="matrix(0,-1,-1,0,0,0)" x="-50.45" y="-22.041" width="22" height="22" rx="11" ry="11" fill="url(#a)"/>
   <rect transform="matrix(0,-1,-1,0,0,0)" x="-49.664" y="-22.041" width="22" height="22" rx="11" ry="11" fill="#25b9ab"/>
  </g>
  <g transform="matrix(.053724 0 0 .054102 -19.303 29.318)">
   <path d="m523.22-130.33 16.516 54.907 26.497 31.391c-9.7589 1.6914-17.99 5.1194-25.43 9.4611-9.3645 8.1686-14.555 18.427-18.649 29.231l-29.778 22.997c-1.5933-1.3534-2.7655-0.24428-4.047 0.27344-4.5507 2.6557-9.513 4.9524-12.168 9.1877-4.8384 12.443 3.3579 19.118 8.5588 26.825 3.3264 3.569 10.796 8.1361 17.938 8.6135l58.982-28.657 32.212-5.9611c-5.639 38.962-5.1252 81.352-6.2345 122.83l-17.036 28.411-4.0743 3.2266 102.27-7.8205 39.786 18.102 12.442-5.3868 25.43-1.3672-5.4141-7.0275 19.196-0.82033-1.0664 10.008 17.035-9.7346h7.5744l4.5938 4.047 8.3947-5.9337 12.988-0.54689c-7.4826-41.965-12.23-84.38-16.516-126.88-0.8311-10.977-1.7186-21.857-4.5939-29.231-6.849-14.395-15.723-25.808-26.223-34.891-13.182-10.828-26.788-20.637-41.946-26.524-13.437-5.0454-26.868-1.5484-40.306 1.0938-15.046 3.3785-29.508 8.5105-43.559 14.875 2.7938-6.495 7.5071-12.709 13.617-15.887 8.3343-4.3327 15.486-6.3025 24.254-8.7228 7.8612-2.9213 12.822-7.6777 18.129-12.196 14.609-17.444 27.167-35.469 39.485-53.567-22.185 5.0748-44.371 13.642-66.556 21.93-14.058 5.209-26.67 11.862-37.325 22.176l-22.723 22.45c-5.1057 3.9105-7.6858-0.10783-10.555-3.2266l-16.762-24.911zm115.28 216.87 18.539 6.2892 16.543 30.079-15.969 29.395-15.286 8.6955s-10.825-67.884-10.254-68.169c0.57051-0.28528 6.4259-6.2892 6.4259-6.2892zm103.12 15.121 13.836 26.852 2.9805 24.61-19.414 23.243s-13.416-14.211-13.016-15.012c0.4006-0.80104 10.418-58.489 10.418-58.489z" fill="#173f4f"/>
   <path d="m535.58-108.92 13.371 31.2 32.731 37.106c-10.599 1.6766-20.052 4.5057-28.958 7.8752-5.003 2.4084-9.8284 5.0102-12.496 10.254l-8.1486 14.356c-2.635 5.2655-8.2044 9.4789-13.645 13.754l-22.34 17.309c4.437 2.1551 8.4369 4.9534 12.086 8.2853-3.93-2.1635-7.7749-4.4515-12.36-5.6329-3.2041-0.51019-6.3747-0.47541-9.2971 1.8321-2.6257 2.1793-2.326 5.8257-1.7774 9.2424 1.0048 5.3035 5.4424 10.001 10.5 13.535 4.7245 2.0948 9.0494 1.0162 13.207-1.4219 3.6186-3.3267 5.09-9.1601 4.6485-17.145 2.6114-0.48964 2.0287 14.911 2.4883 13.153 0.24757-0.94689 38.3-19.838 48.372-22.176 10.263-2.6296 26.302-3.4667 37.899-7.0548 7.199-2.3073 12.477-7.7398 16.926-14.547l-3.5821 7.5744c-3.0089 4.6725-7.0487 7.4465-11.813 8.8596l-6.4533 68.251-0.13672 65.982-11.238 16.653 7.6564-0.27344 8.1486-10.692-5.9884 12.797s39.212-2.6054 39.212-2.3243-12.086-78.916-12.086-78.916 13.09-14.555 13.371-14.766c0.28115-0.21084 47.935 15.969 47.935 15.969l-7.3283-8.5861-6.0431-3.3087 7.3283 2.4063s16.993 20.446 17.063 20.727c0.07 0.28111 3.0353-3.6641 3.0353-3.6641l-17.801 71.697 23.625 8.0119-0.7109-10.965 5.6329 13.617 8.6955 0.57423-5.879-14.192 10.254 12.36 5.6056-1.1211-10.117-14.465 11.813-69.865-13.618-10.692-10.555-14.055 9.9806 10.117-10.828-15.313-0.8476-20.235 3.8008 17.418 4.0743-14.328-2.1055 16.735 7.8751 17.145 15.75 11.649-0.3007 2.6797 12.387-4.5118 8.0119-17.965 0.6837-11.129 1.1485 11.266s-6.8908 16.583-6.8908 17.145c0 0.56222 8.9962-8.4494 8.9962-8.4494l-9.8439 11.539 15.75 28.247 5.3321 30.79 3.9376-2.7891-0.8477 1.0938-12.66 16.434 8.3125-1.8047 3.2267-5.0587-1.4219 6.1798 2.9532 0.13672-0.6836 6.754 6.1798-5.4962 4.6211 1.4219 1.422-8.1759v8.3127l4.3477-0.84767 2.1055 7.0275 3.09-8.8596 6.043-0.27344c-5.7741-43.478-13.4-86.954-15.45-130.43-0.2154-8.2856-7.2118-22.91-14.766-32.485-8.797-10.08-26.77-31.618-52.282-37.653-13.941-1.6437-28.121 0.5956-43.56 5.6056-13.664 3.9631-27.786 8.7992-43.122 16.106 3.6132 5.8848 8.3976 11.646 16.543 18.485 2.558 2.4847 7.1611 3.1687 11.676 2.8165-3.1197 1.0866-6.3456 2.0107-9.7073 0.27344-5.4927-3.6902-10.026-8.3267-14.328-13.207-2.8203-3.5139-4.9974-7.041-6.6173-10.555-2.6029-5.8755 0.45658-13.331 5.4962-21.356 4.554-5.5648 9.5748-10.991 19.797-14.903 9.1973-3.642 18.424-7.2732 27.153-12.086 9.8704-6.3541 25.613-26.619 33.989-40.77-22.818 8.315-45.622 14.958-68.306 28.247-8.4918 5.7797-16.816 14.748-25.293 24.036-3.6188 4.0453-7.5279 7.8551-12.66 10.555-7.0543 3.7632-11.931 0.1945-15.176-2.6798-5.2905-5.6235-9.5784-11.56-13.344-17.692-5.0238-6.8404-10.295-13.695-17.993-20.536-8.8579-8.1675-16.846-17.594-24.883-26.141zm144.35 22.422-20.098 24.227 13.645-4.7032-27.454 13.371zm-95.35 50.587c1.7643-0.0362 3.5292 0.0139 5.2501 0.19141-11.115 0.83553-16.19 2.7421-25.84 7.6564 3.5431-2.682 5.5267-4.6708 11.895-6.8361 2.7874-0.59848 5.755-0.95135 8.6955-1.0117zm3.0899 15.231c5.4879 0.09728 9.215 2.4883 9.215 2.4883-12.169-3.2569-18.852-0.53842-24.063 7.3556-0.62532-0.49132 3.4559-7.3644 8.8596-8.9963 2.1478-0.64863 4.1591-0.8801 5.9884-0.84767zm-0.92971 4.047c1.1334-0.04585 2.2643 0.06038 3.4454 0.30079 2.2742 0.78913 3.3179 2.4716 4.4298 4.0743-2.3581-2.0856-4.8138-3.7178-7.7658-2.9532 3.3495 0.35315 4.6043 2.4525 5.086 5.1954 0.4009 3.6707-2.7729 5.8476-4.8946 6.1525-2.1241 0.30525-4.843-0.22763-6.3986-2.4883-0.46384-0.92346-1.6496-4.324 0.2461-6.754-2.1092 0.78664-3.908 2.0874-5.6056 3.5548 1.4246-2.0745 3.1751-3.6994 5.8243-5.4415 1.8948-1.0492 3.7439-1.5642 5.6329-1.6407zm-89.826 48.017c2.8399 3.35 5.6176 6.5626 6.9728 10.992 0.18119 4.108-1.6409 4.0116-3.418 3.9923-1.5045-0.01636-4.324-1.6946-3.418-3.0626 0.72555-1.0955 1.3899-4.2528 1.0938-5.7423zm-10.418 1.0117c2.2276 2.3389 4.4142 3.8821 4.8399 7.1369 0.15712 0.77499 0.3156 2.7045-1.2305 2.4063-4.5049-4.2265-1.7983-3.7763-3.6094-9.5432z" fill="#fff"/>
  </g>
 </g>
 <rect x="16" y="16" width="16" height="16" ry="1" fill="#f6f5f4"/>
 <path d="m23 17-0.77734 2.332c-0.09023 0.03387-0.17946 0.07034-0.26758 0.10938l-2.1973-1.0977-1.4141 1.4141 1.0996 2.1992c-0.04097 0.08741-0.07939 0.17599-0.11523 0.26562l-2.3281 0.77734v2l2.332 0.77734c0.03387 0.09023 0.07034 0.17946 0.10938 0.26758l-1.0977 2.1973 1.4141 1.4141 2.1992-1.0996c0.08741 0.04097 0.17599 0.0794 0.26562 0.11523l0.77734 2.3281h2l0.77734-2.332c0.09023-0.03387 0.17946-0.07034 0.26758-0.10938l2.1973 1.0977 1.4141-1.4141-1.0996-2.1992c0.04097-0.08741 0.0794-0.17599 0.11523-0.26562l2.3281-0.77734v-2l-2.332-0.77734c-0.03387-0.09023-0.07034-0.17946-0.10938-0.26758l1.0977-2.1973-1.4141-1.4141-2.1992 1.0996c-0.08741-0.04097-0.17599-0.0794-0.26562-0.11523l-0.77734-2.3281zm1 4c1.6569 0 3 1.3431 3 3s-1.3431 3-3 3-3-1.3431-3-3 1.3431-3 3-3z" fill="#3d3846"/>
</svg>
