<svg version="1" viewBox="0 0 32 32" width="32" height="32" xmlns="http://www.w3.org/2000/svg">
 <circle cx="16" cy="16" r="14" fill="#c0bfbc" stroke-width=".035048"/>
 <circle cx="16" cy="15" r="14" fill="#f6f5f4" stroke-width=".035048"/>
 <g fill-rule="evenodd" stroke-width=".035048">
  <path d="m8.1599 21.254 5.9732-3.36v1.8667l-4.1066 2.24" fill="#173f4f"/>
  <path d="m8.1599 20.133 4.7756-2.5556 1.1977 0.31555-5.9732 3.36" fill="#35b9ab"/>
  <path d="m7.0401 21.627 1.12-0.37333v-10.453h-1.12" fill="#173f4f"/>
  <path d="m16 23.12-7.8399-1.8667-1.12 0.37333 8.96 2.24" fill="#35b9ab"/>
  <path d="m5.5467 8.9335v13.813l11.947 2.9867 0.03252-13.972zm1.4933 1.8667 8.96 2.24v10.827l-8.96-2.24z" fill="#73ba25"/>
  <path d="m26.08 7.4401v14.187l-8.5868 4.1066 0.02361-13.972zm-1.4933 2.6134-5.9732 2.9867v10.453l5.9732-2.9867z" fill="#173f4f"/>
  <path d="m7.9145 8.8119 6.2189-2.8653v1.4933l-3.9674 1.8968" fill="#173f4f"/>
  <path d="m14.133 5.2-8.5868 3.7333 11.975 2.8237 8.5587-4.3172zm0 0.74666 8.96 1.8667-5.9732 2.9867-9.1994-1.9887z" fill="#35b9ab"/>
  <path d="m14.133 7.4401 1.1709 0.10765-0.05092 9.9726-1.12 0.37333" fill="#173f4f"/>
  <g fill="#73ba25">
   <path d="m23.093 7.8134-8.96-1.8667v1.4933l6.7201 1.4933"/>
   <path d="m12.933 17.589v-9.6137l1.2006-0.53515v10.453"/>
   <path d="m14.133 17.894v1.8667l7.1333 1.4557 2.2509-1.0981"/>
  </g>
  <path d="m23.093 19.387-7.8399-1.8667-1.12 0.37333 8.96 2.24" fill="#35b9ab"/>
  <path d="m24.587 10.053-1.4933 0.74666v9.3333l1.4933 0.37333" fill="#73ba25"/>
  <path d="m24.587 20.507-5.9732 2.9867v-1.12l4.4802-2.24z" fill="#35b9ab"/>
 </g>
</svg>
