<?xml version="1.0" encoding="UTF-8" standalone="no"?>
<svg
   xmlns:dc="http://purl.org/dc/elements/1.1/"
   xmlns:cc="http://creativecommons.org/ns#"
   xmlns:rdf="http://www.w3.org/1999/02/22-rdf-syntax-ns#"
   xmlns:svg="http://www.w3.org/2000/svg"
   xmlns="http://www.w3.org/2000/svg"
   id="svg48"
   viewBox="0 0 32 32"
   version="1">
  <defs
     id="defs52" />
  <metadata
     id="metadata2">
    <rdf:RDF>
      <cc:Work
         rdf:about="">
        <dc:format>image/svg+xml</dc:format>
        <dc:type
           rdf:resource="http://purl.org/dc/dcmitype/StillImage" />
        <dc:title></dc:title>
      </cc:Work>
    </rdf:RDF>
  </metadata>
  <rect
     id="rect4"
     fill="#b5835a"
     ry="0"
     height="26"
     width="26"
     y="4"
     x="3" />
  <rect
     id="rect6"
     fill="#cdab8f"
     ry="0"
     height="26"
     width="26"
     y="3"
     x="3" />
  <rect
     id="rect8"
     fill="#a51d2d"
     ry="0"
     height="4"
     width="12"
     y="3"
     x="3" />
  <rect
     id="rect10"
     fill="#a51d2d"
     ry="0"
     height="4"
     width="12"
     y="3"
     x="17" />
  <rect
     id="rect12"
     fill="#a51d2d"
     ry="0"
     height="4.5"
     width="12"
     y="9.5"
     x="10" />
  <rect
     id="rect14"
     fill="#a51d2d"
     ry="0"
     height="5"
     width="5"
     y="9"
     x="24" />
  <rect
     id="rect16"
     fill="#a51d2d"
     ry="0"
     height="5"
     width="5"
     y="9"
     x="3" />
  <rect
     id="rect18"
     fill="#e01b24"
     ry="0"
     height="4"
     width="12"
     y="2"
     x="3" />
  <rect
     id="rect20"
     fill="#e01b24"
     ry="0"
     height="4"
     width="12"
     y="2"
     x="17" />
  <rect
     id="rect22"
     fill="#e01b24"
     ry="0"
     height="4"
     width="12"
     y="9"
     x="10" />
  <rect
     id="rect24"
     fill="#e01b24"
     ry="0"
     height="4"
     width="5"
     y="9"
     x="24" />
  <rect
     id="rect26"
     fill="#e01b24"
     ry="0"
     height="4"
     width="5"
     y="9"
     x="3" />
  <rect
     id="rect28"
     fill="#a51d2d"
     ry="0"
     height="4"
     width="12"
     y="17"
     x="3" />
  <rect
     id="rect30"
     fill="#a51d2d"
     ry="0"
     height="4"
     width="12"
     y="17"
     x="17" />
  <rect
     id="rect32"
     fill="#a51d2d"
     ry="0"
     height="4.5"
     width="12"
     y="23.5"
     x="10" />
  <rect
     id="rect34"
     fill="#a51d2d"
     ry="0"
     height="4"
     width="5"
     y="24"
     x="24" />
  <rect
     id="rect36"
     fill="#a51d2d"
     ry="0"
     height="4"
     width="5"
     y="24"
     x="3" />
  <rect
     id="rect38"
     fill="#e01b24"
     ry="0"
     height="4"
     width="12"
     y="16"
     x="3" />
  <rect
     id="rect40"
     fill="#e01b24"
     ry="0"
     height="4"
     width="12"
     y="16"
     x="17" />
  <rect
     id="rect42"
     fill="#e01b24"
     ry="0"
     height="4"
     width="12"
     y="23"
     x="10" />
  <rect
     id="rect44"
     fill="#e01b24"
     ry="0"
     height="4"
     width="5"
     y="23"
     x="24" />
  <rect
     id="rect46"
     fill="#e01b24"
     ry="0"
     height="4"
     width="5"
     y="23"
     x="3" />
  <rect
     style="fill:#f6f5f4"
     x="16"
     y="16"
     width="16"
     height="16"
     ry="1"
     id="rect872" />
  <rect
     style="fill:#3d3846"
     x="23"
     y="18"
     width="2"
     height="12"
     ry="0"
     id="rect874" />
  <rect
     style="fill:#3d3846"
     x="18"
     y="23"
     width="12"
     height="2"
     id="rect876" />
</svg>
