<svg version="1.1" viewBox="0 0 32 32" width="32" height="32" xmlns="http://www.w3.org/2000/svg">
 <defs>
  <linearGradient id="d" x1="47.968" x2="47" y1="1110.1" y2="1106.5" gradientTransform="matrix(.5 0 0 .5 0 -529.26)" gradientUnits="userSpaceOnUse">
   <stop stop-color="#f6f5f4" offset="0"/>
   <stop stop-color="#fcfcfc" offset="1"/>
  </linearGradient>
  <linearGradient id="c" x1="23" x2="26.679" y1="24" y2="25.83" gradientUnits="userSpaceOnUse">
   <stop stop-color="#f6f5f4" offset="0"/>
   <stop stop-color="#deddda" offset="1"/>
  </linearGradient>
 </defs>
 <g transform="matrix(.5 0 0 .5 0 -529.26)">
  <rect x="13" y="1098.5" width="39" height="16" ry="4" fill="#588f1c"/>
  <rect x="12" y="1106.5" width="35" height="7.9999" ry="0" fill="#588f1c"/>
  <rect x="14" y="1094.5" width="38" height="18" ry="4" fill="#fff"/>
  <rect x="14" y="1094.5" width="17" height="18" ry="0" fill="#fff"/>
  <path transform="matrix(2 0 0 2 0 1058.5)" d="m7 17v9h17c1.108 0 2-0.892 2-2v-5c0-1.108-0.892-2-2-2h-17z" fill="url(#d)"/>
  <path transform="matrix(2 0 0 2 0 1058.5)" d="m7 16v9h17c1.108 0 2-0.892 2-2v-5c0-1.108-0.892-2-2-2h-17z" fill="url(#c)"/>
  <rect x="12" y="1100.5" width="34" height="5.9999" ry="0" fill="#588f1c"/>
  <rect x="12" y="1096.5" width="40" height="9.9998" ry="4" fill="#588f1c"/>
  <rect x="16" y="1062.5" width="36" height="42" ry="4" fill="#73ba25"/>
  <path transform="matrix(2 0 0 2 0 1058.5)" d="m6 2v21h10v-21h-8v0.5c0 0.277-0.223 0.5-0.5 0.5s-0.5-0.223-0.5-0.5v-0.5h-1z" fill="#73ba25"/>
  <path d="m16 1108.5v6h4v-6z" fill="#a51d2d"/>
  <path d="m16 1114.5-4 2h2l2 2 4-4z" fill="#c01c28"/>
  <g transform="matrix(.875 0 0 .875 18 114.32)" fill="#588f1c">
   <g transform="matrix(.26458 0 0 .26458 -10.591 -38.473)" fill="#588f1c">
    <circle cx="507.46" cy="3582.8" r="0" fill="#588f1c" opacity=".3"/>
   </g>
  </g>
  <g transform="matrix(.875 0 0 .875 18 116.32)" fill="#fff">
   <g transform="matrix(.26458 0 0 .26458 -10.591 -38.473)" fill="#fff">
    <circle cx="507.46" cy="3582.8" r="0" opacity=".3"/>
    <path d="m100.5 4267.1a60.472 60.472 0 0 0-47.607 23.299c7.376 1.9706 12.597 3.6642 14.16 4.1895 0.0245-0.9593 0.18359-9.5391 0.18359-9.5391s0.0202-0.1964 0.125-0.2988c0.13497-0.1318 0.33008-0.092 0.33008-0.092 1.94 0.281 43.348 6.4189 60.802 16.59 2.1555 1.261 3.2194 2.6017 4.5488 3.9609 4.8248 4.99 11.2 25.739 11.885 30.018 0.0269 0.1681-0.18083 0.3507-0.26953 0.4199h-2e-3c-0.4957 0.3868-1.0355 0.789-1.5762 1.1484-4.13 2.7709-13.644 9.4312-25.851 8.3438-10.965-0.97-25.29-7.2597-42.56-18.639 1.698 3.9756 3.371 7.9635 5.0449 11.949 2.501 1.299 26.641 13.6 38.554 13.359 9.5959-0.1999 19.859-4.8804 23.965-7.3516 0 0 0.90227-0.5436 1.2949-0.2402 0.4295 0.3318 0.31068 0.8402 0.20898 1.3594-0.25259 1.1786-0.82764 3.3289-1.2187 4.3496l-0.33008 0.832c-0.46999 1.2592-0.92111 2.4296-1.791 3.1504-2.4187 2.1993-6.2791 3.9491-12.328 6.5781-9.35 4.09-24.519 6.6911-38.603 6.6016-5.0444-0.1123-9.9178-0.672-14.197-1.1719-8.7822-0.9915-15.928-1.7959-20.285 1.3555a60.472 60.472 0 0 0 45.517 20.773 60.472 60.472 0 0 0 60.472-60.473 60.472 60.472 0 0 0-60.472-60.473zm13.488 35.088c-4.7333-0.1509-9.2467 1.5194-12.707 4.75-3.4587 3.2199-5.438 7.6097-5.6133 12.34-0.327 9.7581 7.3342 17.98 17.084 18.34 4.7548 0.1596 9.2584-1.5118 12.719-4.7617 3.4499-3.2099 5.4292-7.5999 5.6132-12.33 0.335-9.7494-7.3355-17.989-17.096-18.338zm-0.14844 5.2188c6.821 0.242 12.161 5.972 11.932 12.791-0.1053 3.2885-1.4925 6.3369-3.9023 8.5976-2.4133 2.2502-5.5674 3.4203-8.8769 3.3203-6.8052-0.251-12.146-5.9877-11.916-12.808 0.1-3.3008 1.5148-6.3495 3.914-8.5997s5.5383-3.42 8.8496-3.3007zm2.0215 6.2011c-3.0307 0-5.4785 1.631-5.4785 3.6602 0 2.01 2.4478 3.6504 5.4785 3.6504 3.0289 0 5.4863-1.6405 5.4863-3.6504 0-2.0292-2.4557-3.6602-5.4863-3.6602z"/>
   </g>
  </g>
  <path transform="matrix(2 0 0 2 0 1058.5)" d="m7 2.5v21.5h1v-21.5c0 0.277-0.223 0.5-0.5 0.5s-0.5-0.223-0.5-0.5z" fill="#588f1c"/>
 </g>
</svg>
