<svg version="1.1" viewBox="0 0 32 32" width="32" height="32" xmlns="http://www.w3.org/2000/svg">
 <g transform="matrix(.5 0 0 .5 0 8)">
  <g fill="#cdab8f">
   <path d="m8-6-6 10 6 2z"/>
   <path d="m56-6 6 10-6 2z"/>
   <rect x="8" y="-6" width="48" height="44" ry="0"/>
  </g>
  <rect x="8" y="-6" width="48" height="40" ry="0" fill="#dec7b4"/>
  <rect x="22" y="-6" width="34" height="40" fill="#73ba25"/>
  <rect x="22" y="34" width="34" height="4" fill="#54881b"/>
  <path d="m26 24v14h12v-14l-6 4z" fill="#63452c" opacity=".2"/>
  <path d="m8-6-2 16h26v-16z" fill="#dec7b4"/>
  <path d="m22 10h36l-2-16h-34z" fill="#73ba25"/>
  <rect x="6" y="10" width="26" height="2" fill="#cdab8f"/>
  <rect x="22" y="10" width="36" height="2" fill="#54881b"/>
 </g>
 <rect x="16" y="16" width="16" height="16" ry="1" fill="#f6f5f4"/>
 <path d="m23 17-0.77734 2.332c-0.09023 0.03387-0.17946 0.07034-0.26758 0.10938l-2.1973-1.0977-1.4141 1.4141 1.0996 2.1992c-0.04097 0.08741-0.07939 0.17599-0.11523 0.26562l-2.3281 0.77734v2l2.332 0.77734c0.03387 0.09023 0.07034 0.17946 0.10938 0.26758l-1.0977 2.1973 1.4141 1.4141 2.1992-1.0996c0.08741 0.04097 0.17599 0.0794 0.26562 0.11523l0.77734 2.3281h2l0.77734-2.332c0.09023-0.03387 0.17946-0.07034 0.26758-0.10938l2.1973 1.0977 1.4141-1.4141-1.0996-2.1992c0.04097-0.08741 0.0794-0.17599 0.11523-0.26562l2.3281-0.77734v-2l-2.332-0.77734c-0.03387-0.09023-0.07034-0.17946-0.10938-0.26758l1.0977-2.1973-1.4141-1.4141-2.1992 1.0996c-0.08741-0.04097-0.17599-0.0794-0.26562-0.11523l-0.77734-2.3281zm1 4c1.6569 0 3 1.3431 3 3s-1.3431 3-3 3-3-1.3431-3-3 1.3431-3 3-3z" fill="#3d3846"/>
</svg>
