<svg version="1.0" viewBox="0 0 32 32" width="32" height="32" xmlns="http://www.w3.org/2000/svg">
 <defs>
  <linearGradient id="a" x1="-50.45" x2="-50.45" y1="-.040987" y2="-22.041" gradientUnits="userSpaceOnUse">
   <stop stop-color="#0bbaf4" offset="0"/>
   <stop stop-color="#0bbaf4" offset=".071429"/>
   <stop stop-color="#81dffe" offset=".21429"/>
   <stop stop-color="#0bbaf4" offset=".46429"/>
   <stop stop-color="#0bbaf4" offset="1"/>
  </linearGradient>
 </defs>
 <g transform="matrix(1.2727 0 0 1.2727 1.9478 -34.208)" stroke-width=".55">
  <rect transform="matrix(0,-1,-1,0,0,0)" x="-50.45" y="-22.041" width="22" height="22" rx="11" ry="11" fill="url(#a)"/>
  <rect transform="matrix(0,-1,-1,0,0,0)" x="-49.664" y="-22.041" width="22" height="22" rx="11" ry="11" fill="#81dffe"/>
 </g>
 <path d="m14.053 5.2106c-0.18666-0.0094-0.39682 0.029-0.63281 0.12305-1.5498 0.58056-0.29262 4.0419-0.19238 4.4893 0.09249 0.41189-0.68767 0.36536-0.83496 0.18457-0.32878-0.40408-1.409-4.0152-2.6895-3.3711-1.7958 0.99649-0.10958 4.111-0.46777 4.2119-0.66533 0.37422-0.62785 1.2895-1.1611 2.0342-0.55236 0.79671-3.3535 0.35887-5.8887-0.10938a14 14 0 0 0-0.18555 2.2266 14 14 0 0 0 5.1484 10.836c1.9075-0.14831 3.2383-0.37763 3.2979-0.40039-0.0136-0.03043 5.3785 2.553 5.8477 2.2441 1.1834-1.2897-2.2421-3.1069-1.6709-3.833 0.25047-0.38014 4.1749 1.426 4.3682 0.93262 0.28121-0.85417-1.8215-2.6464-2.1377-3.1777-0.27506-0.48991-0.32945-1.2794 0.37598-1.7744 0.70569-0.49502 7.9208-3.2723 7.6182-5.4219-0.52312-3.9058-9.1586-4.1615-9.2979-4.4902-0.05931-0.13994 0.30731-4.6133-1.4971-4.7041zm8.8896 2.5859c-0.14358 0.062351-0.72257 3.066-0.44238 3.2031 0.24833 0.18698 0.67784-3.0281 0.45117-3.1943-0.0034-0.0041-0.0038-0.01071-0.0088-0.0088zm2.1309 0.41211c-0.32569-0.0062-2.0632 2.7868-1.6631 3.085 0.24832 0.18698 1.7939-2.9714 1.6875-3.0771-0.0074-0.0062-0.0139-0.0076-0.02441-0.0078zm-8.4209 3.4043c0.41145 0 0.74414 0.37813 0.74414 0.84961s-0.33269 0.85742-0.74414 0.85742-0.74316-0.38594-0.74316-0.85742 0.33172-0.84961 0.74316-0.84961zm-1.6699 0.51367c0.31649 1.375 0.8056 1.8085 2.2881 1.7646-1.8869 1.7414-3.0288-1.2376-2.2881-1.7646zm3.9922 3.5977c0.11744-0.0096 0.20717 0.0097 0.25879 0.05957 0.74338 0.27118-3.1896 1.6976-3.2158 1.4961-0.03956-0.13889 2.135-1.4886 2.957-1.5557zm0.48438 0.9082c0.04067-0.0034 0.07935 0.0098 0.10938 0.02539 0.70168 0.70163-2.2214 2.2568-2.1885 2.2021-0.23556-0.14326 1.4688-2.1799 2.0791-2.2275z" fill-rule="evenodd"/>
</svg>
