<?xml version="1.0" encoding="UTF-8"?>
<svg version="1" viewBox="0 0 32 32" xmlns="http://www.w3.org/2000/svg" xmlns:cc="http://creativecommons.org/ns#" xmlns:dc="http://purl.org/dc/elements/1.1/" xmlns:rdf="http://www.w3.org/1999/02/22-rdf-syntax-ns#">
<metadata>
<rdf:RDF>
<cc:Work rdf:about="">
<dc:format>image/svg+xml</dc:format>
<dc:type rdf:resource="http://purl.org/dc/dcmitype/StillImage"/>
<dc:title/>
</cc:Work>
</rdf:RDF>
</metadata>
<defs>
<linearGradient id="a" x1="-50.45" x2="-50.45" y1="-.040987" y2="-22.041" gradientTransform="matrix(1.2727 0 0 1.2727 34.208 -1.9478)" gradientUnits="userSpaceOnUse">
<stop stop-color="#241f31" offset="0"/>
<stop stop-color="#241f31" offset=".071429"/>
<stop stop-color="#5e5c64" offset=".21429"/>
<stop stop-color="#241f31" offset=".46429"/>
<stop stop-color="#241f31" offset="1"/>
</linearGradient>
</defs>
<rect transform="matrix(0,-1,-1,0,0,0)" x="-30" y="-30" width="28" height="28" rx="14" ry="14" fill="url(#a)" stroke-width=".7"/>
<rect transform="matrix(0,-1,-1,0,0,0)" x="-29" y="-30" width="28" height="28" rx="14" ry="14" fill="#3d3846" stroke-width=".7"/>
<path d="m15.978 4.2161c-0.13089 1.29-0.31579 2.1317-0.80566 2.4004-0.53618-0.16238-0.89404-0.94843-1.293-2.1846l4.5e-4 0.50025s0.08362 1.6848-0.27389 2.0037c-0.5528-0.062388-1.0611-0.75843-1.7012-1.8789-2.77e-4 0.50027-2.77e-4 0.50027-2.77e-4 0.50027s0.51427 1.663 0.23856 2.0183c-0.55688 0.062151-1.2042-0.51677-2.0723-1.4902l2.16e-4 0.49981s0.96702 1.4807 0.76443 1.9094c-0.53183 0.17072-1.2845-0.26302-2.335-1.0381v0.49969s1.4084 1.336 1.2324 1.7943c0.33215-0.43723 0.36927-0.47749 0.55566-0.67773 0.17063-0.1833 0.18597 0.29327 0.5096 0.00727 0.34044-0.29382 0.47741-0.90327 0.68572-1.0502 0.21141-0.14915 0.20059 0.3485 0.60867 0.11663 0.37265-0.20559 0.55621-0.79965 0.78586-0.89885 0.2316-0.10003 0.23599 0.39101 0.65123 0.25742 0.40941-0.12728 0.60589-0.68181 0.8517-0.733 0.24892-0.05184 0.27272 0.43827 0.7141 0.38999 0.45046-0.043605 0.62637-0.55405 0.88258-0.55405 0.26261 0 0.40038 0.5071 0.88213 0.55405 0.43909 0.04806 0.48857-0.44075 0.73701-0.38901 0.2451 0.051045 0.4452 0.60708 0.85148 0.73335 0.41749 0.13429 0.41939-0.35799 0.65145-0.25776 0.23915 0.1033 0.37002 0.66928 0.78564 0.8992 0.36555 0.20828 0.40587-0.26021 0.60889-0.11697 0.20521 0.14479 0.30411 0.69486 0.63116 0.97686 0.33668 0.29727 0.39103-0.11987 0.56416 0.066111 0.1864 0.20024 0.22349 0.74065 0.55564 1.1779-0.07419-0.19317-0.25625-0.67722-7.5e-4 -1.1074 0.36594-0.61607 1.233-1.1867 1.233-1.1867s1.1e-5 0 2.23e-4 -0.50003c-1.0506 0.7752-1.8041 1.21-2.3359 1.0391-0.19099-0.40472 0.7652-1.91 0.7652-1.91l4.29e-4 -0.50016c-0.86911 0.97459-1.5169 1.554-2.0742 1.4902-0.28427-0.36774 0.2403-2.0179 0.2403-2.0179l-6.5e-5 -0.49963c-0.63986 1.1201-1.1486 1.8152-1.7012 1.8779-0.36453-0.32507-0.2741-2.0033-0.2741-2.0033l-3.04e-4 -0.49962c-0.40208 1.2459-0.76139 2.0349-1.3047 2.1885-0.49801-0.26206-0.68358-1.1069-0.81543-2.4062zm-0.040039 3.0674c-2.2827 0.03212-4.4967 1.1503-5.8096 3.0713-2.0102 2.9782-1.5292 7.3503 1.9424 9.667 2.9255 1.9046 7.6239 0.65092 7.6239 0.65092l0.0031-0.4976-0.87109-1.4717c-1.8801 0.97689-4.0829 1.0932-5.7803-0.04492-2.6103-1.7039-3.1238-5.0514-1.5156-7.3955 1.5823-2.3528 4.8576-3.0693 7.4473-1.3838 2.7262 1.8216 2.5663 4.9858 1.8906 6.4023-0.29848-0.20236-0.59703-0.40409-0.89551-0.60644 0.77806-1.9867-0.01319-3.9476-1.5713-4.9756-1.8331-1.2093-4.4951-1.0032-5.9834 1.1826-0.29099 0.43359-0.29059 0.93317-0.45149 1.3598l9.2786 5.6051c0.38392-0.39397 0.38348-0.39359 0.62891-0.75488 2.0861-3.071 1.3609-7.4741-1.9327-9.6328-1.2395-0.82309-2.6343-1.1951-4.0039-1.1758zm6.3301 11.397c-0.33216 0.43723-0.36927 0.47749-0.55566 0.67773-0.17061 0.18328-0.24483 0.25608-0.56836 0.54199-0.34053 0.29389-0.41862 0.35399-0.62695 0.50098-0.20565 0.14509-0.29246 0.20156-0.6709 0.41699-0.40107 0.22168-0.4876 0.26328-0.72363 0.36523-0.23017 0.09941-0.32992 0.13709-0.73828 0.26856-0.4162 0.12948-0.51733 0.15552-0.76465 0.20703-0.24916 0.05189-0.34946 0.06781-0.79199 0.11621-0.47696 0.04644-0.5655 0.04883-0.82715 0.04883-0.25621 0-0.35521-0.0033-0.80566-0.04687-0.44138-0.04828-0.5421-0.06535-0.79102-0.11719-0.24352-0.05072-0.35068-0.07813-0.75-0.20215-0.42484-0.13657-0.51937-0.17256-0.75293-0.27344-0.23277-0.10054-0.32366-0.14508-0.70996-0.3584-0.39438-0.22427-0.47578-0.27652-0.68457-0.42383-0.20531-0.14486-0.28773-0.2088-0.61524-0.49121-0.33616-0.29683-0.40705-0.36588-0.58008-0.55176-0.1864-0.20024-0.22351-0.24051-0.55566-0.67773 0.21024 0.54745-0.30946 1.7756-1.2322 2.7943 1.05-0.77469 1.8934-1.1825 2.4252-1.0125 0.23692 0.49964-0.20037 1.2616-0.85464 2.3835 0.86911-0.97459 1.4642-1.6249 2.0215-1.5611 0.34053 0.4395 0.21789 1.3546-0.18805 2.589 0.63986-1.1201 1.0725-1.8848 1.6251-1.9476 0.41256 0.3679 0.49159 1.2944 0.3502 2.5726 0.39893-1.2361 0.67943-2.0672 1.2156-2.2296 0.4901 0.26846 0.75143 0.65543 0.88235 1.9457 0.13187-1.2996 0.38414-1.6837 0.88236-1.9457 0.5428 0.15422 0.83643 0.98305 1.2383 2.2283-0.1414-1.2782-0.24155-2.148 0.17101-2.5159 0.5528 0.06239 1.1643 0.77041 1.8043 1.8909-0.40574-1.2338-0.52792-2.1493-0.18805-2.589 0.5571-0.06294 1.1529 0.58712 2.0215 1.5611-0.65377-1.121-0.96297-1.9951-0.72715-2.4948 0.53188-0.1714 1.2467 0.34835 2.2977 1.1238-0.92274-1.0186-1.4427-2.2465-1.2324-2.7939z" fill="#241f31" fill-rule="evenodd" stroke-width=".030901"/>
<g transform="matrix(.031127 0 0 .030676 4.0882 .17391)" fill="#fff" fill-rule="evenodd">
<path d="m253.1 451.55 298.08 199.02c12.334-12.843 12.334-12.843 20.218-24.621 67.018-100.11 43.708-243.64-62.101-314.01-106.19-71.55-247.77-38.409-315.25 61.784-64.58 97.083-49.13 239.61 62.398 315.13 97.527 64.428 188.98 36.104 245.01 5.0054l-27.977-47.98c-60.4 31.845-131.16 35.64-185.69-1.4596-83.858-55.543-100.35-164.66-48.689-241.07 50.833-76.698 156.03-100.08 239.23-45.138 87.582 59.382 82.47 162.56 60.763 208.74-9.5889-6.5965-19.178-13.193-28.767-19.789 24.996-64.762-0.4326-128.69-50.488-162.2-58.889-39.423-144.4-32.707-192.21 38.547-9.3484 14.134-9.3484 14.134-14.517 28.041z"/>
<path d="m381.95 173.62c-4.4291 44.291-10.63 72.638-28.346 79.724 17.716-1.7717 19.488-1.7717 28.346-1.7717 8.8583 0 10.63 0 28.346 1.7717-17.716-7.0867-23.917-35.433-28.346-79.724z"/>
<path d="m314.55 180.67c4.8241 44.25 4.618 73.266-11.25 83.863 16.967-5.3964 18.701-5.7627 27.368-7.5942 8.6669-1.8315 10.4-2.1978 28.1-4.1274-18.799-3.2706-30.726-29.722-44.218-72.141z"/>
<path d="m251.09 201.04c13.723 42.344 19.423 70.795 6.0412 84.398 15.515-8.7345 17.138-9.4457 25.251-13.002 8.1133-3.5559 9.7359-4.2671 26.674-9.7563-19.071 0.6212-36.129-22.852-57.966-61.64z"/>
<path d="m192.19 234.55c22.182 38.592 33.64 65.25 23.36 81.325 13.374-11.754 14.815-12.785 22.017-17.942 7.2028-5.1565 8.6433-6.1879 24.08-15.06-18.531 4.5508-40.074-14.888-69.458-48.323z"/>
<path d="m141.73 279.24c29.644 33.205 46.34 56.937 39.586 74.783 10.671-14.253 11.869-15.558 17.857-22.086 5.9884-6.5276 7.1859-7.8332 20.468-19.691-17.199 8.2645-42.279-6.3285-77.911-33.006z"/>
<path d="m450.08 180.71c-4.8241 44.25-4.618 73.266 11.25 83.863-16.967-5.3964-18.701-5.7627-27.368-7.5942-8.6669-1.8315-10.4-2.1978-28.1-4.1274 18.799-3.2706 30.726-29.722 44.218-72.141z"/>
<path d="m513.54 201.08c-13.723 42.344-19.423 70.795-6.0412 84.398-15.515-8.7345-17.138-9.4457-25.251-13.002-8.1133-3.5559-9.7359-4.2671-26.674-9.7563 19.071 0.6212 36.129-22.852 57.966-61.64z"/>
<path d="m572.44 234.59c-22.182 38.592-33.64 65.25-23.36 81.325-13.374-11.754-14.815-12.785-22.017-17.942-7.2028-5.1565-8.6433-6.1879-24.08-15.06 18.531 4.5508 40.074-14.888 69.458-48.323z"/>
<path d="m622.89 279.28c-29.644 33.205-46.34 56.937-39.586 74.783-10.671-14.253-11.869-15.558-17.857-22.086-5.9884-6.5276-7.1859-7.8332-20.468-19.691 17.199 8.2645 42.279-6.3285 77.911-33.006z"/>
<path d="m382.68 825.59c-4.4291-44.291-10.63-72.638-28.346-79.724 17.716 1.7717 19.488 1.7717 28.346 1.7717 8.8583 0 10.63 0 28.346-1.7717-17.716 7.0867-23.917 35.433-28.346 79.724z"/>
<path d="m315.28 818.55c4.8241-44.25 4.618-73.266-11.25-83.863 16.967 5.3964 18.701 5.7627 27.368 7.5942 8.6669 1.8315 10.4 2.1978 28.1 4.1274-18.799 3.2706-30.726 29.722-44.218 72.141z"/>
<path d="m251.82 798.17c13.723-42.344 19.423-70.795 6.0412-84.398 15.515 8.7345 17.138 9.4457 25.251 13.002 8.1133 3.5559 9.7359 4.2671 26.674 9.7563-19.071-0.6212-36.129 22.852-57.966 61.64z"/>
<path d="m192.92 764.67c22.182-38.592 33.64-65.25 23.36-81.325 13.374 11.754 14.815 12.785 22.017 17.942 7.2028 5.1565 8.6433 6.1879 24.08 15.06-18.531-4.5508-40.074 14.888-69.458 48.323z"/>
<path d="m142.46 719.97c29.644-33.205 46.34-56.937 39.586-74.783 10.671 14.253 11.869 15.558 17.857 22.086 5.9884 6.5276 7.1859 7.8332 20.468 19.691-17.199-8.2645-42.279 6.3285-77.911 33.006z"/>
<path d="m450.8 818.5c-4.8241-44.25-4.618-73.266 11.25-83.863-16.967 5.3964-18.701 5.7627-27.368 7.5942-8.6669 1.8315-10.4 2.1978-28.1 4.1274 18.799 3.2706 30.726 29.722 44.218 72.141z"/>
<path d="m514.26 798.13c-13.723-42.344-19.423-70.795-6.0412-84.398-15.515 8.7345-17.138 9.4457-25.251 13.002-8.1133 3.5559-9.7359 4.2671-26.674 9.7563 19.071-0.6212 36.129 22.852 57.966 61.64z"/>
<path d="m573.17 764.62c-22.182-38.592-33.64-65.25-23.36-81.325-13.374 11.754-14.815 12.785-22.017 17.942-7.2028 5.1565-8.6433 6.1879-24.08 15.06 18.531-4.5508 40.074 14.888 69.458 48.323z"/>
<path d="m623.62 719.93c-29.644-33.205-46.34-56.937-39.586-74.783-10.671 14.253-11.869 15.558-17.857 22.086-5.9884 6.5276-7.1859 7.8332-20.468 19.691 17.199-8.2645 42.279 6.3285 77.911 33.006z"/>
</g>
</svg>
