<svg version="1" viewBox="0 0 32 32" width="32" height="32" xmlns="http://www.w3.org/2000/svg">
 <rect x="2" y="3" width="28" height="27" rx="0" ry=".96429" fill="#241f31"/>
 <rect x="2" y="2" width="28" height="27" rx="0" ry=".96429" fill="#fff"/>
 <path d="m2.7 2c-0.3878 0-0.7 0.29371-0.7 0.65854v10.537l5.6-1.3171 3.5 1.3171-3.5-1.9756-2.1-2.6341 1.4-2.6341 7 1.3171-2.8-1.3171 2.8-0.65854h5.6l3.5 1.3171 1.4 3.2927v3.2927l-5.6-0.65854 4.2 1.3171 1.4 3.9512v3.9512l-2.8-1.3171-3.5-2.6341 2.8 3.2927 2.8 1.9756-0.7 1.9756-1.4 1.9756-5.6-1.9756-5.6-2.6341-5.6 6.5854h24.5c0.3878 0 0.7-0.29371 0.7-0.65854v-25.683c0-0.36483-0.3122-0.65854-0.7-0.65854z" fill="#3d3846"/>
 <rect x="16" y="16" width="16" height="16" ry="1" fill="#f6f5f4"/>
 <path d="m23 17-0.77734 2.332c-0.09023 0.03387-0.17946 0.07034-0.26758 0.10938l-2.1973-1.0977-1.4141 1.4141 1.0996 2.1992c-0.04097 0.08741-0.07939 0.17599-0.11523 0.26562l-2.3281 0.77734v2l2.332 0.77734c0.03387 0.09023 0.07034 0.17946 0.10938 0.26758l-1.0977 2.1973 1.4141 1.4141 2.1992-1.0996c0.08741 0.04097 0.17599 0.0794 0.26562 0.11523l0.77734 2.3281h2l0.77734-2.332c0.09023-0.03387 0.17946-0.07034 0.26758-0.10938l2.1973 1.0977 1.4141-1.4141-1.0996-2.1992c0.04097-0.08741 0.0794-0.17599 0.11523-0.26562l2.3281-0.77734v-2l-2.332-0.77734c-0.03387-0.09023-0.07034-0.17946-0.10938-0.26758l1.0977-2.1973-1.4141-1.4141-2.1992 1.0996c-0.08741-0.04097-0.17599-0.0794-0.26562-0.11523l-0.77734-2.3281zm1 4c1.6569 0 3 1.3431 3 3s-1.3431 3-3 3-3-1.3431-3-3 1.3431-3 3-3z" fill="#3d3846"/>
</svg>
