<svg version="1" viewBox="0 0 32 32" width="32" height="32" xmlns="http://www.w3.org/2000/svg">
 <path d="m5 3-4 4v23h30v-27h-26z" fill="#26a269"/>
 <path d="m5 2-4 4v23h30v-27h-26z" fill="#33d17a"/>
 <path d="m10 6c-3.324 0-6 3.568-6 8v1c0 4.432 2.676 8 6 8h1c0.47912 0 0.94256-0.082498 1.3887-0.22266l1.6113 3.2227 3-2-2-3-0.044922 0.015625c1.2525-1.4641 2.0449-3.61 2.0449-6.0156v-1c0-4.432-2.676-8-6-8h-1zm0 3h1c1.662 0 3 2.23 3 5v1c0 2.77-1.338 5-3 5h-1c-1.662 0-3-2.23-3-5v-1c0-2.77 1.338-5 3-5z" fill="#fff"/>
 <path d="m20 6v4h-1v3h1v5c0 2.7614 2.2386 5 5 5h2v-3h-2c-1.1046 0-2-0.89543-2-2v-5h3v-3h-3v-4z" fill="#fff"/>
 <rect x="16" y="16" width="16" height="16" ry="1" fill="#f6f5f4"/>
 <path d="m23 17-0.77734 2.332c-0.09023 0.03387-0.17946 0.07034-0.26758 0.10938l-2.1973-1.0977-1.4141 1.4141 1.0996 2.1992c-0.04097 0.08741-0.07939 0.17599-0.11523 0.26562l-2.3281 0.77734v2l2.332 0.77734c0.03387 0.09023 0.07034 0.17946 0.10938 0.26758l-1.0977 2.1973 1.4141 1.4141 2.1992-1.0996c0.08741 0.04097 0.17599 0.0794 0.26562 0.11523l0.77734 2.3281h2l0.77734-2.332c0.09023-0.03387 0.17946-0.07034 0.26758-0.10938l2.1973 1.0977 1.4141-1.4141-1.0996-2.1992c0.04097-0.08741 0.0794-0.17599 0.11523-0.26562l2.3281-0.77734v-2l-2.332-0.77734c-0.03387-0.09023-0.07034-0.17946-0.10938-0.26758l1.0977-2.1973-1.4141-1.4141-2.1992 1.0996c-0.08741-0.04097-0.17599-0.0794-0.26562-0.11523l-0.77734-2.3281zm1 4c1.6569 0 3 1.3431 3 3s-1.3431 3-3 3-3-1.3431-3-3 1.3431-3 3-3z" fill="#3d3846"/>
</svg>
