<?xml version="1.0" encoding="UTF-8" standalone="no"?>
<svg
   xmlns:dc="http://purl.org/dc/elements/1.1/"
   xmlns:cc="http://creativecommons.org/ns#"
   xmlns:rdf="http://www.w3.org/1999/02/22-rdf-syntax-ns#"
   xmlns:svg="http://www.w3.org/2000/svg"
   xmlns="http://www.w3.org/2000/svg"
   xmlns:xlink="http://www.w3.org/1999/xlink"
   version="1.1"
   id="svg11300"
   height="64"
   width="64">
  <defs
     id="defs3">
    <linearGradient
       id="linearGradient3264">
      <stop
         id="stop3266"
         offset="0"
         style="stop-color:#c9c9c9;stop-opacity:1;" />
      <stop
         style="stop-color:#f8f8f8;stop-opacity:1;"
         offset="0.25"
         id="stop3276" />
      <stop
         style="stop-color:#e2e2e2;stop-opacity:1;"
         offset="0.5"
         id="stop3272" />
      <stop
         id="stop3274"
         offset="0.75"
         style="stop-color:#b0b0b0;stop-opacity:1;" />
      <stop
         id="stop3268"
         offset="1"
         style="stop-color:#c9c9c9;stop-opacity:1;" />
    </linearGradient>
    <linearGradient
       id="linearGradient3256">
      <stop
         id="stop3258"
         offset="0"
         style="stop-color:#000000;stop-opacity:1;" />
      <stop
         id="stop3260"
         offset="1"
         style="stop-color:#000000;stop-opacity:0;" />
    </linearGradient>
    <linearGradient
       id="linearGradient2752">
      <stop
         id="stop2754"
         offset="0"
         style="stop-color:#9d9d9d;stop-opacity:1;" />
      <stop
         id="stop2756"
         offset="1.0000000"
         style="stop-color:#b9b9b9;stop-opacity:1.0000000;" />
    </linearGradient>
    <linearGradient
       id="linearGradient2711">
      <stop
         id="stop2713"
         offset="0.0000000"
         style="stop-color:#909090;stop-opacity:1.0000000;" />
      <stop
         id="stop2715"
         offset="1.0000000"
         style="stop-color:#bebebe;stop-opacity:0.0000000;" />
    </linearGradient>
    <linearGradient
       id="linearGradient2701">
      <stop
         id="stop2703"
         offset="0.0000000"
         style="stop-color:#585956;stop-opacity:1.0000000;" />
      <stop
         id="stop2705"
         offset="1.0000000"
         style="stop-color:#bbbeb8;stop-opacity:1.0000000;" />
    </linearGradient>
    <linearGradient
       id="linearGradient2691">
      <stop
         id="stop2693"
         offset="0.0000000"
         style="stop-color:#868686;stop-opacity:1.0000000;" />
      <stop
         id="stop2695"
         offset="1.0000000"
         style="stop-color:#e9e9e9;stop-opacity:1.0000000;" />
    </linearGradient>
    <linearGradient
       id="linearGradient2675">
      <stop
         id="stop2677"
         offset="0.0000000"
         style="stop-color:#5b5b97;stop-opacity:1.0000000;" />
      <stop
         id="stop2679"
         offset="1.0000000"
         style="stop-color:#1b1b43;stop-opacity:1.0000000;" />
    </linearGradient>
    <linearGradient
       id="linearGradient2667">
      <stop
         id="stop2669"
         offset="0.0000000"
         style="stop-color:#ffffff;stop-opacity:1.0000000;" />
      <stop
         id="stop2671"
         offset="1.0000000"
         style="stop-color:#fcfcff;stop-opacity:0.0000000;" />
    </linearGradient>
    <linearGradient
       id="linearGradient2635">
      <stop
         id="stop2637"
         offset="0"
         style="stop-color:#f9fff5;stop-opacity:1;" />
      <stop
         id="stop2639"
         offset="1"
         style="stop-color:#f9fff5;stop-opacity:0;" />
    </linearGradient>
    <linearGradient
       id="linearGradient2623">
      <stop
         id="stop2625"
         offset="0.0000000"
         style="stop-color:#dfdfde;stop-opacity:1.0000000;" />
      <stop
         id="stop2627"
         offset="1.0000000"
         style="stop-color:#9d9f9a;stop-opacity:1.0000000;" />
    </linearGradient>
    <linearGradient
       id="linearGradient2379">
      <stop
         style="stop-color:#1a4876;stop-opacity:1.0000000;"
         offset="0.0000000"
         id="stop2381" />
      <stop
         style="stop-color:#3f54a3;stop-opacity:0.0000000;"
         offset="1.0000000"
         id="stop2383" />
    </linearGradient>
    <linearGradient
       id="linearGradient2328">
      <stop
         style="stop-color:#ffffff;stop-opacity:1;"
         offset="0"
         id="stop2330" />
      <stop
         style="stop-color:#ffffff;stop-opacity:0;"
         offset="1"
         id="stop2332" />
    </linearGradient>
    <linearGradient
       id="linearGradient2307">
      <stop
         style="stop-color:#5a7aa4;stop-opacity:1;"
         offset="0"
         id="stop2309" />
      <stop
         style="stop-color:#5a7aa4;stop-opacity:0;"
         offset="1"
         id="stop2311" />
    </linearGradient>
    <linearGradient
       id="linearGradient2253">
      <stop
         style="stop-color:#8f8f8f;stop-opacity:1.0000000;"
         offset="0.0000000"
         id="stop2255" />
      <stop
         style="stop-color:#494949;stop-opacity:1.0000000;"
         offset="1.0000000"
         id="stop2257" />
    </linearGradient>
    <linearGradient
       id="linearGradient2245">
      <stop
         style="stop-color:#dde1d9;stop-opacity:1.0000000;"
         offset="0.0000000"
         id="stop2247" />
      <stop
         style="stop-color:#cacdc6;stop-opacity:1.0000000;"
         offset="1.0000000"
         id="stop2249" />
    </linearGradient>
    <linearGradient
       xlink:href="#linearGradient2307"
       id="linearGradient2313"
       gradientTransform="matrix(1.208393,0,0,0.98441,-0.789284,-0.50338)"
       x1="16.851954"
       y1="9.323514"
       x2="24.418941"
       y2="53.734985"
       gradientUnits="userSpaceOnUse" />
    <linearGradient
       xlink:href="#linearGradient2328"
       id="linearGradient2334"
       gradientTransform="matrix(1.289166,0,0,0.922731,-0.789284,-0.50338)"
       x1="16.119127"
       y1="10.842293"
       x2="27.289009"
       y2="39.03191"
       gradientUnits="userSpaceOnUse" />
    <linearGradient
       xlink:href="#linearGradient2379"
       id="linearGradient2445"
       gradientUnits="userSpaceOnUse"
       gradientTransform="matrix(1.02787,0,0,0.822296,1.523986,1.001198)"
       x1="21.356108"
       y1="30.078255"
       x2="19.994572"
       y2="-1.3221773" />
    <linearGradient
       y2="92.57093"
       x2="10.728384"
       y1="84.029198"
       x1="10.728384"
       gradientTransform="scale(1.983556,0.504145)"
       gradientUnits="userSpaceOnUse"
       id="linearGradient2653"
       xlink:href="#linearGradient2623" />
    <linearGradient
       y2="74.098007"
       x2="8.6485014"
       y1="101.2846"
       x1="13.62871"
       gradientTransform="scale(2.143634,0.466498)"
       gradientUnits="userSpaceOnUse"
       id="linearGradient2655"
       xlink:href="#linearGradient2635" />
    <radialGradient
       xlink:href="#linearGradient3256"
       id="radialGradient13503"
       gradientUnits="userSpaceOnUse"
       gradientTransform="matrix(1,0,0,0.315315,0,26.81305)"
       cx="25.455845"
       cy="39.161163"
       fx="25.455845"
       fy="39.161163"
       r="19.622213" />
    <linearGradient
       xlink:href="#linearGradient3264"
       id="linearGradient13505"
       gradientUnits="userSpaceOnUse"
       gradientTransform="matrix(1.241935,0,0,1.241935,-5.027508,-7.208988)"
       x1="14.462892"
       y1="12.284524"
       x2="34.534348"
       y2="39.684914" />
    <linearGradient
       id="linearGradient5272">
      <stop
         style="stop-color:#73d216;stop-opacity:1;"
         offset="0"
         id="stop5274" />
      <stop
         style="stop-color:#62b312;stop-opacity:1;"
         offset="1"
         id="stop5276" />
    </linearGradient>
    <linearGradient
       id="linearGradient5792">
      <stop
         style="stop-color:#ef2929"
         offset="0"
         id="stop5794" />
      <stop
         style="stop-color:#a40000"
         offset="1"
         id="stop5796" />
    </linearGradient>
    <linearGradient
       id="linearGradient3828">
      <stop
         style="stop-color:#ffffff;stop-opacity:1;"
         offset="0"
         id="stop3830" />
      <stop
         style="stop-color:#b7b7b7;stop-opacity:1;"
         offset="1"
         id="stop3832" />
    </linearGradient>
    <linearGradient
       id="linearGradient3820">
      <stop
         style="stop-color:#dbdbdb;stop-opacity:1;"
         offset="0"
         id="stop3822" />
      <stop
         style="stop-color:#b6b6b6;stop-opacity:1;"
         offset="1"
         id="stop3824" />
    </linearGradient>
    <linearGradient
       id="linearGradient3347">
      <stop
         style="stop-color:#cbcbcb;stop-opacity:1;"
         offset="0"
         id="stop3349" />
      <stop
         style="stop-color:#ffffff;stop-opacity:0.46391752;"
         offset="1"
         id="stop3351" />
    </linearGradient>
    <linearGradient
       id="linearGradient11520">
      <stop
         id="stop11522"
         offset="0.0000000"
         style="stop-color:#ffffff;stop-opacity:1.0000000;" />
      <stop
         id="stop11524"
         offset="1.0000000"
         style="stop-color:#dcdcdc;stop-opacity:1.0000000;" />
    </linearGradient>
    <linearGradient
       id="linearGradient11494">
      <stop
         id="stop11496"
         offset="0"
         style="stop-color:#ef2929;stop-opacity:1;" />
      <stop
         id="stop11498"
         offset="1"
         style="stop-color:#ef2929;stop-opacity:0;" />
    </linearGradient>
    <linearGradient
       id="linearGradient11415">
      <stop
         id="stop11417"
         offset="0.0000000"
         style="stop-color:#204a87;stop-opacity:0.0000000;" />
      <stop
         style="stop-color:#204a87;stop-opacity:1.0000000;"
         offset="0.50000000"
         id="stop11423" />
      <stop
         id="stop11419"
         offset="1"
         style="stop-color:#204a87;stop-opacity:0;" />
    </linearGradient>
    <linearGradient
       gradientTransform="translate(-60.28571,-0.285714)"
       y2="34.462429"
       x2="43.615788"
       y1="3.774456"
       x1="15.82836"
       gradientUnits="userSpaceOnUse"
       id="linearGradient11425"
       xlink:href="#linearGradient11415" />
    <linearGradient
       gradientTransform="translate(-60.57143)"
       y2="39.033859"
       x2="35.679932"
       y1="9.3458843"
       x1="9.6957054"
       gradientUnits="userSpaceOnUse"
       id="linearGradient11427"
       xlink:href="#linearGradient11415" />
    <linearGradient
       y2="33.462429"
       x2="26.758644"
       y1="19.774456"
       x1="13.267134"
       gradientTransform="translate(-60.85714,0.428571)"
       gradientUnits="userSpaceOnUse"
       id="linearGradient11439"
       xlink:href="#linearGradient11415" />
    <radialGradient
       r="8.5"
       fy="39.142857"
       fx="12.071428"
       cy="39.142857"
       cx="12.071428"
       gradientTransform="matrix(1,0,0,0.487395,0,20.06483)"
       gradientUnits="userSpaceOnUse"
       id="radialGradient11441"
       xlink:href="#linearGradient3256" />
    <radialGradient
       gradientTransform="matrix(1.243453,0,0,1.243453,-6.713754,-3.742847)"
       gradientUnits="userSpaceOnUse"
       r="3.8335035"
       fy="15.048258"
       fx="27.577173"
       cy="15.048258"
       cx="27.577173"
       id="radialGradient11500"
       xlink:href="#linearGradient11494" />
    <radialGradient
       r="3.8335035"
       fy="16.049133"
       fx="27.577173"
       cy="16.049133"
       cx="27.577173"
       gradientTransform="matrix(1.243453,0,0,1.243453,-6.713754,-3.742847)"
       gradientUnits="userSpaceOnUse"
       id="radialGradient11504"
       xlink:href="#linearGradient11494" />
    <radialGradient
       gradientUnits="userSpaceOnUse"
       gradientTransform="matrix(1,0,0,0.338462,0,29.48178)"
       r="6.5659914"
       fy="44.565483"
       fx="30.203562"
       cy="44.565483"
       cx="30.203562"
       id="radialGradient11514"
       xlink:href="#linearGradient3256" />
    <radialGradient
       gradientTransform="matrix(1.995058,0,0,1.995058,-24.32488,-35.70087)"
       gradientUnits="userSpaceOnUse"
       r="20.530962"
       fy="35.87817"
       fx="24.44569"
       cy="35.87817"
       cx="24.44569"
       id="radialGradient11526"
       xlink:href="#linearGradient11520" />
    <radialGradient
       r="6.5659914"
       fy="44.565483"
       fx="30.203562"
       cy="44.565483"
       cx="30.203562"
       gradientTransform="matrix(1,0,0,0.338462,0,29.48178)"
       gradientUnits="userSpaceOnUse"
       id="radialGradient11532"
       xlink:href="#linearGradient3256" />
    <radialGradient
       xlink:href="#linearGradient3256"
       id="radialGradient1348"
       gradientUnits="userSpaceOnUse"
       gradientTransform="matrix(1,0,0,0.338462,0,29.48178)"
       cx="30.203562"
       cy="44.565483"
       fx="30.203562"
       fy="44.565483"
       r="6.5659914" />
    <radialGradient
       xlink:href="#linearGradient11520"
       id="radialGradient1350"
       gradientUnits="userSpaceOnUse"
       gradientTransform="matrix(1.995058,0,0,1.995058,-24.32488,-35.70087)"
       cx="24.44569"
       cy="35.87817"
       fx="24.44569"
       fy="35.87817"
       r="20.530962" />
    <radialGradient
       xlink:href="#linearGradient11494"
       id="radialGradient1352"
       gradientUnits="userSpaceOnUse"
       gradientTransform="matrix(1.243453,0,0,1.243453,-6.713754,-3.742847)"
       cx="27.577173"
       cy="16.049133"
       fx="27.577173"
       fy="16.049133"
       r="3.8335035" />
    <radialGradient
       xlink:href="#linearGradient11494"
       id="radialGradient1354"
       gradientUnits="userSpaceOnUse"
       gradientTransform="matrix(1.243453,0,0,1.243453,-6.713754,-3.742847)"
       cx="27.577173"
       cy="15.048258"
       fx="27.577173"
       fy="15.048258"
       r="3.8335035" />
    <radialGradient
       xlink:href="#linearGradient3256"
       id="radialGradient1356"
       gradientUnits="userSpaceOnUse"
       gradientTransform="matrix(1,0,0,0.338462,0,29.48178)"
       cx="30.203562"
       cy="44.565483"
       fx="30.203562"
       fy="44.565483"
       r="6.5659914" />
    <radialGradient
       xlink:href="#linearGradient11520"
       id="radialGradient1366"
       gradientUnits="userSpaceOnUse"
       gradientTransform="matrix(2.049266,0,0,2.049266,-25.65002,-37.31089)"
       cx="24.44569"
       cy="35.87817"
       fx="24.44569"
       fy="35.87817"
       r="20.530962" />
    <radialGradient
       xlink:href="#linearGradient3406"
       id="radialGradient3449"
       gradientUnits="userSpaceOnUse"
       gradientTransform="matrix(0.769501,-1.2425,0.6703,0.415141,-21.77857,41.36563)"
       cx="26.137741"
       cy="38.807304"
       fx="26.137741"
       fy="38.807304"
       r="21.333334" />
    <radialGradient
       xlink:href="#linearGradient3435"
       id="radialGradient3447"
       gradientUnits="userSpaceOnUse"
       cx="133.84108"
       cy="23.914305"
       fx="133.84108"
       fy="23.914305"
       r="21.333334"
       gradientTransform="matrix(-0.0504822,0.01387847,-0.12844,-0.467196,35.41257,39.44172)" />
    <radialGradient
       xlink:href="#linearGradient3435"
       id="radialGradient3443"
       gradientUnits="userSpaceOnUse"
       gradientTransform="matrix(0.105916,-0.0191424,0.104789,0.579807,17.13693,7.115158)"
       cx="35.511295"
       cy="21.618015"
       fx="35.511295"
       fy="21.618015"
       r="21.333334" />
    <radialGradient
       xlink:href="#linearGradient3435"
       id="radialGradient3433"
       gradientUnits="userSpaceOnUse"
       gradientTransform="matrix(0.00518427,-0.12286,0.544548,0.02297824,0.957234,26.30756)"
       cx="16.885271"
       cy="33.377594"
       fx="16.885271"
       fy="33.377594"
       r="21.333334" />
    <radialGradient
       xlink:href="#linearGradient3421"
       id="radialGradient3429"
       gradientUnits="userSpaceOnUse"
       gradientTransform="matrix(0.15845,-0.158988,0.432907,0.431441,-2.723645,15.00107)"
       cx="53.556889"
       cy="48.23827"
       fx="53.556889"
       fy="48.23827"
       r="21.333334" />
    <radialGradient
       xlink:href="#linearGradient3394"
       id="radialGradient3392"
       cx="37.751469"
       cy="27.569166"
       fx="37.751469"
       fy="27.569166"
       r="21.333334"
       gradientUnits="userSpaceOnUse"
       gradientTransform="matrix(0.848684,0.95802,-0.782119,0.692834,18.69147,-20.52578)" />
    <linearGradient
       gradientUnits="userSpaceOnUse"
       y2="54.698483"
       x2="48.798885"
       y1="3.6100161"
       x1="10.50172"
       id="linearGradient6042"
       xlink:href="#linearGradient2328" />
    <linearGradient
       gradientUnits="userSpaceOnUse"
       y2="18.366575"
       x2="17.742729"
       y1="31.494707"
       x1="28.702885"
       id="linearGradient6034"
       xlink:href="#linearGradient2328" />
    <linearGradient
       y2="14.2033"
       x2="35.391201"
       y1="32.4165"
       x1="12.2744"
       gradientTransform="matrix(1.190476,0,0,1.190476,-4.224424,-2.500001)"
       gradientUnits="userSpaceOnUse"
       id="linearGradient4242"
       xlink:href="#linearGradient3121" />
    <linearGradient
       gradientTransform="matrix(1.25,0,0,1.25,-5.652995,-2.604165)"
       gradientUnits="userSpaceOnUse"
       y2="28"
       x2="29"
       y1="14.625"
       x1="21.125"
       id="linearGradient4224"
       xlink:href="#linearGradient4236" />
    <linearGradient
       gradientTransform="matrix(1.190476,0,0,1.190476,-4.224424,-2.5)"
       y2="34.307499"
       x2="32.511002"
       y1="11.1885"
       x1="14.9966"
       gradientUnits="userSpaceOnUse"
       id="linearGradient3912"
       xlink:href="#linearGradient3112" />
    <linearGradient
       id="linearGradient3121"
       gradientUnits="userSpaceOnUse"
       x1="12.2744"
       y1="32.4165"
       x2="35.391201"
       y2="14.2033">
      <stop
         offset="0"
         style="stop-color:#FBFBFB"
         id="stop3123" />
      <stop
         offset="0.5"
         style="stop-color:#B6B6B6"
         id="stop3125" />
      <stop
         offset="1"
         style="stop-color:#E4E4E4"
         id="stop3127" />
    </linearGradient>
    <linearGradient
       id="linearGradient3112"
       gradientUnits="userSpaceOnUse"
       x1="14.9966"
       y1="11.1885"
       x2="32.511002"
       y2="34.307499">
      <stop
         offset="0"
         style="stop-color:#EBEBEB"
         id="stop3114" />
      <stop
         offset="0.5"
         style="stop-color:#FFFFFF"
         id="stop3116" />
      <stop
         offset="1"
         style="stop-color:#EBEBEB"
         id="stop3118" />
    </linearGradient>
    <linearGradient
       id="linearGradient4236">
      <stop
         id="stop4238"
         offset="0.0000000"
         style="stop-color:#ffffff;stop-opacity:0.32673267;" />
      <stop
         id="stop4240"
         offset="1.0000000"
         style="stop-color:#ffffff;stop-opacity:0.60396039;" />
    </linearGradient>
    <linearGradient
       id="linearGradient3394"
       gradientUnits="userSpaceOnUse"
       x1="12.2744"
       y1="32.4165"
       x2="35.391201"
       y2="14.2033">
      <stop
         offset="0.0000000"
         style="stop-color:#fff307;stop-opacity:1.0000000;"
         id="stop3396" />
      <stop
         offset="0.50000000"
         style="stop-color:#166eff;stop-opacity:1.0000000;"
         id="stop3398" />
      <stop
         offset="1.0000000"
         style="stop-color:#ffffff;stop-opacity:0.0000000;"
         id="stop3400" />
    </linearGradient>
    <linearGradient
       y2="14.2033"
       x2="35.391201"
       y1="32.4165"
       x1="12.2744"
       gradientUnits="userSpaceOnUse"
       id="linearGradient3406">
      <stop
         id="stop3408"
         style="stop-color:#b307ff;stop-opacity:0.82178217;"
         offset="0.0000000" />
      <stop
         id="stop3410"
         style="stop-color:#f0ff8b;stop-opacity:0.64356434;"
         offset="1.0000000" />
      <stop
         id="stop3412"
         style="stop-color:#ffffff;stop-opacity:0.0000000;"
         offset="1.0000000" />
    </linearGradient>
    <linearGradient
       id="linearGradient3421"
       gradientUnits="userSpaceOnUse"
       x1="12.2744"
       y1="32.4165"
       x2="35.391201"
       y2="14.2033">
      <stop
         offset="0.0000000"
         style="stop-color:#ffffff;stop-opacity:1.0000000;"
         id="stop3423" />
      <stop
         offset="1.0000000"
         style="stop-color:#b8c04c;stop-opacity:0.0000000;"
         id="stop3427" />
    </linearGradient>
    <linearGradient
       y2="14.2033"
       x2="35.391201"
       y1="32.4165"
       x1="12.2744"
       gradientUnits="userSpaceOnUse"
       id="linearGradient3435">
      <stop
         id="stop3437"
         style="stop-color:#ffffc8;stop-opacity:1.0000000;"
         offset="0.0000000" />
      <stop
         id="stop3439"
         style="stop-color:#9a91ef;stop-opacity:0.0000000;"
         offset="1.0000000" />
    </linearGradient>
    <radialGradient
       xlink:href="#linearGradient3435"
       id="radialGradient5529"
       gradientUnits="userSpaceOnUse"
       gradientTransform="matrix(-0.03483272,0.00957614,-0.08862359,-0.322365,39.01024,41.0505)"
       cx="133.84108"
       cy="23.914305"
       fx="133.84108"
       fy="23.914305"
       r="21.333334" />
    <radialGradient
       xlink:href="#linearGradient3435"
       id="radialGradient5532"
       gradientUnits="userSpaceOnUse"
       gradientTransform="matrix(0.07308203,-0.01320826,0.0723044,0.400067,26.40005,18.74518)"
       cx="35.511295"
       cy="21.618015"
       fx="35.511295"
       fy="21.618015"
       r="21.333334" />
    <radialGradient
       xlink:href="#linearGradient3435"
       id="radialGradient5535"
       gradientUnits="userSpaceOnUse"
       gradientTransform="matrix(0.00357714,-0.08477339,0.375738,0.01585498,15.23606,31.98793)"
       cx="16.885271"
       cy="33.377594"
       fx="16.885271"
       fy="33.377594"
       r="21.333334" />
    <radialGradient
       xlink:href="#linearGradient3421"
       id="radialGradient5538"
       gradientUnits="userSpaceOnUse"
       gradientTransform="matrix(0.10933,-0.109702,0.298706,0.297694,12.69626,24.18646)"
       cx="53.556889"
       cy="48.23827"
       fx="53.556889"
       fy="48.23827"
       r="21.333334" />
    <radialGradient
       xlink:href="#linearGradient3406"
       id="radialGradient5541"
       gradientUnits="userSpaceOnUse"
       gradientTransform="matrix(0.530956,-0.857325,0.462507,0.286447,-0.45164,42.378)"
       cx="26.137741"
       cy="38.807304"
       fx="26.137741"
       fy="38.807304"
       r="21.333334" />
    <radialGradient
       xlink:href="#linearGradient3394"
       id="radialGradient5544"
       gradientUnits="userSpaceOnUse"
       gradientTransform="matrix(0.585592,0.661034,-0.539662,0.478055,27.47269,-0.32707)"
       cx="37.751469"
       cy="27.569166"
       fx="37.751469"
       fy="27.569166"
       r="21.333334" />
    <linearGradient
       xlink:href="#linearGradient2328"
       id="linearGradient5548"
       gradientUnits="userSpaceOnUse"
       x1="10.50172"
       y1="3.6100161"
       x2="48.798885"
       y2="54.698483"
       gradientTransform="matrix(0.69,0,0,0.69,14.57557,13.83572)" />
    <linearGradient
       xlink:href="#linearGradient4236"
       id="linearGradient5551"
       gradientUnits="userSpaceOnUse"
       gradientTransform="matrix(0.8625,0,0,0.8625,10.67501,12.03885)"
       x1="21.125"
       y1="14.625"
       x2="29"
       y2="28" />
    <linearGradient
       xlink:href="#linearGradient3121"
       id="linearGradient5558"
       gradientUnits="userSpaceOnUse"
       gradientTransform="matrix(0.821428,0,0,0.821428,11.66072,12.11072)"
       x1="12.2744"
       y1="32.4165"
       x2="35.391201"
       y2="14.2033" />
    <linearGradient
       xlink:href="#linearGradient3112"
       id="linearGradient5561"
       gradientUnits="userSpaceOnUse"
       gradientTransform="matrix(0.821428,0,0,0.821428,11.66072,12.11072)"
       x1="14.9966"
       y1="11.1885"
       x2="32.511002"
       y2="34.307499" />
    <radialGradient
       xlink:href="#linearGradient3256"
       id="radialGradient5588"
       cx="31.25"
       cy="44"
       fx="31.25"
       fy="44"
       r="15.5"
       gradientTransform="matrix(1,0,0,0.25,0,33)"
       gradientUnits="userSpaceOnUse" />
    <linearGradient
       gradientUnits="userSpaceOnUse"
       y2="39.684914"
       x2="34.534348"
       y1="12.284524"
       x1="14.462892"
       id="linearGradient3270"
       xlink:href="#linearGradient3264" />
    <radialGradient
       gradientUnits="userSpaceOnUse"
       gradientTransform="matrix(1,0,0,0.315315,0,26.81305)"
       r="19.622213"
       fy="39.161163"
       fx="25.455845"
       cy="39.161163"
       cx="25.455845"
       id="radialGradient3262"
       xlink:href="#linearGradient3256" />
    <radialGradient
       r="20.530962"
       fy="35.87817"
       fx="24.44569"
       cy="35.87817"
       cx="24.44569"
       gradientTransform="matrix(2.049266,0,0,2.049266,-25.65002,-37.31089)"
       gradientUnits="userSpaceOnUse"
       id="radialGradient5781"
       xlink:href="#linearGradient11520" />
    <radialGradient
       r="6.5659914"
       fy="44.565483"
       fx="30.203562"
       cy="44.565483"
       cx="30.203562"
       gradientTransform="matrix(1,0,0,0.338462,0,29.48178)"
       gradientUnits="userSpaceOnUse"
       id="radialGradient5779"
       xlink:href="#linearGradient3256" />
    <radialGradient
       r="3.8335035"
       fy="15.048258"
       fx="27.577173"
       cy="15.048258"
       cx="27.577173"
       gradientTransform="matrix(1.243453,0,0,1.243453,-6.713754,-3.742847)"
       gradientUnits="userSpaceOnUse"
       id="radialGradient5777"
       xlink:href="#linearGradient11494" />
    <radialGradient
       r="3.8335035"
       fy="16.049133"
       fx="27.577173"
       cy="16.049133"
       cx="27.577173"
       gradientTransform="matrix(1.243453,0,0,1.243453,-6.713754,-3.742847)"
       gradientUnits="userSpaceOnUse"
       id="radialGradient5775"
       xlink:href="#linearGradient11494" />
    <radialGradient
       r="20.530962"
       fy="35.87817"
       fx="24.44569"
       cy="35.87817"
       cx="24.44569"
       gradientTransform="matrix(1.995058,0,0,1.995058,-24.32488,-35.70087)"
       gradientUnits="userSpaceOnUse"
       id="radialGradient5773"
       xlink:href="#linearGradient11520" />
    <radialGradient
       r="6.5659914"
       fy="44.565483"
       fx="30.203562"
       cy="44.565483"
       cx="30.203562"
       gradientTransform="matrix(1,0,0,0.338462,0,29.48178)"
       gradientUnits="userSpaceOnUse"
       id="radialGradient5771"
       xlink:href="#linearGradient3256" />
    <radialGradient
       xlink:href="#linearGradient3256"
       id="radialGradient5769"
       gradientUnits="userSpaceOnUse"
       gradientTransform="matrix(1,0,0,0.338462,0,29.48178)"
       cx="30.203562"
       cy="44.565483"
       fx="30.203562"
       fy="44.565483"
       r="6.5659914" />
    <radialGradient
       xlink:href="#linearGradient11520"
       id="radialGradient5767"
       cx="24.44569"
       cy="35.87817"
       fx="24.44569"
       fy="35.87817"
       r="20.530962"
       gradientUnits="userSpaceOnUse"
       gradientTransform="matrix(1.995058,0,0,1.995058,-24.32488,-35.70087)" />
    <radialGradient
       xlink:href="#linearGradient3256"
       id="radialGradient5765"
       cx="30.203562"
       cy="44.565483"
       fx="30.203562"
       fy="44.565483"
       r="6.5659914"
       gradientTransform="matrix(1,0,0,0.338462,0,29.48178)"
       gradientUnits="userSpaceOnUse" />
    <radialGradient
       xlink:href="#linearGradient11494"
       id="radialGradient5763"
       gradientUnits="userSpaceOnUse"
       gradientTransform="matrix(1.243453,0,0,1.243453,-6.713754,-3.742847)"
       cx="27.577173"
       cy="16.049133"
       fx="27.577173"
       fy="16.049133"
       r="3.8335035" />
    <radialGradient
       xlink:href="#linearGradient11494"
       id="radialGradient5761"
       cx="27.577173"
       cy="15.048258"
       fx="27.577173"
       fy="15.048258"
       r="3.8335035"
       gradientUnits="userSpaceOnUse"
       gradientTransform="matrix(1.243453,0,0,1.243453,-6.713754,-3.742847)" />
    <radialGradient
       xlink:href="#linearGradient3256"
       id="radialGradient5759"
       gradientUnits="userSpaceOnUse"
       gradientTransform="matrix(1,0,0,0.487395,0,20.06483)"
       cx="12.071428"
       cy="39.142857"
       fx="12.071428"
       fy="39.142857"
       r="8.5" />
  </defs>
  <metadata
     id="metadata4">
    <rdf:RDF>
      <cc:Work
         rdf:about="">
        <dc:format>image/svg+xml</dc:format>
        <dc:type
           rdf:resource="http://purl.org/dc/dcmitype/StillImage" />
        <dc:creator>
          <cc:Agent>
            <dc:title>Jakub Steiner</dc:title>
          </cc:Agent>
        </dc:creator>
        <dc:source>http://jimmac.musichall.cz</dc:source>
        <cc:license
           rdf:resource="http://creativecommons.org/licenses/by-sa/2.0/" />
        <dc:title></dc:title>
        <dc:subject>
          <rdf:Bag>
            <rdf:li>apparmor</rdf:li>
            <rdf:li>novell</rdf:li>
          </rdf:Bag>
        </dc:subject>
      </cc:Work>
      <cc:License
         rdf:about="http://creativecommons.org/licenses/by-sa/2.0/">
        <cc:permits
           rdf:resource="http://web.resource.org/cc/Reproduction" />
        <cc:permits
           rdf:resource="http://web.resource.org/cc/Distribution" />
        <cc:requires
           rdf:resource="http://web.resource.org/cc/Notice" />
        <cc:requires
           rdf:resource="http://web.resource.org/cc/Attribution" />
        <cc:permits
           rdf:resource="http://web.resource.org/cc/DerivativeWorks" />
        <cc:requires
           rdf:resource="http://web.resource.org/cc/ShareAlike" />
      </cc:License>
    </rdf:RDF>
  </metadata>
  <g
     transform="translate(0,16)"
     id="layer1">
    <circle
       r="28"
       cy="17"
       cx="32"
       id="path2233-3"
       style="opacity:1;fill:#1c625a;fill-opacity:1;stroke:none;stroke-width:3.84824657;stroke-linecap:round;stroke-linejoin:round;stroke-miterlimit:4;stroke-dasharray:none;stroke-opacity:1" />
    <circle
       r="28"
       cy="16"
       cx="32"
       id="path2233"
       style="opacity:1;fill:#35b9ab;fill-opacity:1;stroke:none;stroke-width:3.84824657;stroke-linecap:round;stroke-linejoin:round;stroke-miterlimit:4;stroke-dasharray:none;stroke-opacity:1" />
    <g
       transform="matrix(0.10744807,0,0,0.1082048,-38.605995,11.636396)"
       id="g4581">
      <path
         id="path4484-9"
         d="m 523.22021,-139.57346 v 9.24176 l 16.51596,45.665591 26.49663,31.39126 c -9.75888,1.69142 -17.9903,5.11944 -25.4302,9.46112 -9.36448,8.16864 -14.55534,18.42694 -18.64882,29.23106 L 492.37584,8.413892 c -1.59331,-1.35336 -2.76549,-0.24426 -4.04696,0.27346 -4.5507,2.655719 -9.51297,4.952399 -12.16821,9.187689 -1.37237,3.529502 -2.26333,14.48113 -1.90415,17.237548 0.90714,6.961481 6.73721,4.066194 10.46292,9.587205 3.32643,3.568982 10.7963,8.136117 17.93786,8.613453 l 58.98165,-28.656843 32.21159,-5.961057 c -5.63896,38.961986 -5.12522,81.352123 -6.2345,122.830593 l -17.03549,28.41074 -4.07431,3.22661 v 9.24176 l 102.26767,-17.06223 39.78589,18.10194 12.44171,-5.38683 25.43019,-1.36722 -1.30136,-4.49261 15.08297,-3.35517 -1.06641,10.00802 17.0354,-9.73457 h 7.57441 l 4.5938,4.04695 8.39469,-5.9337 12.9885,8.69482 V 166.6827 C 802.2511,124.71782 797.5034,82.302867 793.21781,39.805149 792.38671,28.828317 791.4992,17.948162 788.6239,10.574091 c -6.849,-14.3949795 -15.7226,-25.80754 -26.2231,-34.89133 -13.1821,-10.82775 -26.7878,-20.63682 -41.9462,-26.52397 -13.437,-5.04539 -26.8684,-1.54837 -40.3055,1.09377 -15.0464,3.37846 -29.5084,8.51048 -43.55946,14.8753 2.79375,-6.49497 7.50706,-12.70883 13.61746,-15.88704 8.3343,-4.33267 15.48561,-6.30252 24.2544,-8.72283 7.8612,-2.9213 12.8225,-7.67774 18.12931,-12.19556 12.33232,-14.725462 28.98631,-29.077371 39.48509,-44.325721 l -1e-5,-9.24176 c -22.1846,5.07482 -44.3713,13.64194 -66.55599,21.93013 -14.05851,5.209011 -26.66974,11.862491 -37.32493,22.176221 l -22.7231,22.44967 c -5.10568,3.91054 -7.68585,-0.10783 -10.55491,-3.22662 l -16.76206,-24.91066 z m 115.28353,216.867639 18.53947,6.289195 16.54329,30.078726 -15.9691,29.39512 -15.28549,8.6955 c 0,0 -10.82464,-67.884072 -10.25404,-68.169346 0.57051,-0.285293 6.42587,-6.289195 6.42587,-6.289195 z m 103.11536,15.121405 13.83631,26.852106 2.9805,24.60987 -19.41451,23.24264 c 0,0 -13.41639,-14.21096 -13.01589,-15.01201 0.40056,-0.80107 10.41819,-58.489456 10.41819,-58.489456 z"
         style="fill:#1c625a;fill-opacity:1;stroke:none;stroke-width:0.87501752" />
      <path
         id="path4484"
         d="m 523.22021,-130.3317 16.51596,54.90735 26.49663,31.39126 c -9.75888,1.69142 -17.9903,5.11944 -25.4302,9.46112 -9.36448,8.168634 -14.55534,18.426929 -18.64882,29.2310602 L 492.37584,17.655646 c -1.59331,-1.353363 -2.76549,-0.244278 -4.04696,0.273443 -4.5507,2.655722 -9.51297,4.952399 -12.16821,9.187685 -4.83836,12.44345 3.35786,19.117682 8.55877,26.824758 3.32643,3.568978 10.7963,8.136115 17.93786,8.613455 l 58.98165,-28.656827 32.21159,-5.961057 c -5.63897,38.961987 -5.12522,81.352117 -6.2345,122.830597 l -17.0355,28.41073 -4.0743,3.22662 102.26766,-7.82047 39.7859,18.10193 12.4417,-5.38683 25.4302,-1.36721 -5.4141,-7.02749 19.1957,-0.82033 -1.0664,10.00802 17.0354,-9.73457 h 7.5744 l 4.5938,4.04695 8.3947,-5.93371 12.9885,-0.54689 C 802.2511,133.95957 797.5034,91.544626 793.2178,49.046903 792.3867,38.070069 791.4992,27.189917 788.6239,19.815846 781.7749,5.4208612 772.9013,-5.9916958 762.4008,-15.075481 749.2187,-25.903237 735.613,-35.7123 720.4546,-41.59945 c -13.437,-5.04539 -26.8684,-1.54837 -40.3055,1.09377 -15.0464,3.37846 -29.5084,8.51048 -43.55946,14.875299 2.79375,-6.494969 7.50706,-12.708829 13.61746,-15.887039 8.3343,-4.33267 15.4856,-6.30252 24.2544,-8.72283 7.8612,-2.9213 12.8225,-7.67774 18.1293,-12.19556 14.6089,-17.44382 27.167,-35.46915 39.4851,-53.56748 -22.1846,5.07482 -44.3713,13.64194 -66.556,21.93013 -14.0585,5.20901 -26.66974,11.86249 -37.32492,22.17622 l -22.72311,22.44967 c -5.10567,3.91054 -7.68584,-0.10783 -10.5549,-3.22662 l -16.76206,-24.91066 z m 115.28353,216.867638 18.53946,6.289189 16.5433,30.078733 -15.9691,29.39512 -15.2855,8.69549 c 0,0 -10.82463,-67.88407 -10.25403,-68.169343 0.57051,-0.285282 6.42587,-6.289189 6.42587,-6.289189 z m 103.11536,15.121402 13.8363,26.8521 2.9805,24.60987 -19.4145,23.24265 c 0,0 -13.4164,-14.21097 -13.0159,-15.01202 0.4006,-0.80104 10.4182,-58.48945 10.4182,-58.48945 z"
         style="fill:#173f4f;fill-opacity:1;stroke:none;stroke-width:0.87501758" />
      <path
         id="path4486"
         d="m 535.57984,-108.92112 13.37136,31.19985 32.73112,37.10621 c -10.59856,1.6766 -20.05192,4.50569 -28.95761,7.87516 -5.00302,2.40842 -9.82842,5.010212 -12.49634,10.254114 l -8.14861,14.3557572 c -2.63501,5.265454 -8.20441,9.478874 -13.6448,13.754183 L 496.09467,22.933096 c 4.43695,2.155081 8.43688,4.953361 12.08618,8.285323 -3.93,-2.163499 -7.77494,-4.451451 -12.35963,-5.632926 -3.20414,-0.510188 -6.37468,-0.475414 -9.29706,1.832068 -2.62574,2.179319 -2.32602,5.82571 -1.77738,9.242374 1.00481,5.303534 5.44244,10.001468 10.50021,13.535428 4.72449,2.094827 9.04943,1.016211 13.2073,-1.421903 3.61862,-3.326704 5.08996,-9.16007 4.64853,-17.144877 2.61144,-0.489642 2.02866,14.910703 2.48833,13.152609 0.24757,-0.946892 38.29956,-19.837752 48.37207,-22.176227 10.26292,-2.629647 26.30238,-3.466724 37.8992,-7.05483 7.19899,-2.307308 12.47716,-7.7398108 16.92612,-14.5471668 l -3.5821,7.574371 c -3.00892,4.6725498 -7.0487,7.4465218 -11.81274,8.8595528 l -6.45326,68.251372 -0.13672,65.981796 -11.2385,16.65268 7.6564,-0.27344 8.1486,-10.69162 -5.9884,12.79713 c 0,0 39.21173,-2.60538 39.21173,-2.32427 0,0.28111 -12.08619,-78.915648 -12.08619,-78.915648 0,0 13.09027,-14.555095 13.37132,-14.765922 0.28115,-0.210835 47.93462,15.969071 47.93462,15.969071 l -7.3283,-8.58611 -6.0431,-3.30866 7.3283,2.406298 c 0,0 16.9926,20.445871 17.0628,20.726981 0.07,0.28111 3.0353,-3.664138 3.0353,-3.664138 l -17.8012,71.696758 23.6254,8.01188 -0.7109,-10.96507 5.6329,13.61746 8.6955,0.57423 -5.879,-14.19169 10.2541,12.35963 5.6056,-1.12112 -10.1174,-14.46513 11.8128,-69.864692 -13.6175,-10.691621 -10.5549,-14.05497 9.9806,10.117391 -10.8283,-15.312808 -0.8476,-20.234782 3.8008,17.418319 4.0743,-14.328413 -2.1055,16.734712 7.8751,17.144876 15.7503,11.648671 -0.3007,2.679742 12.3869,-4.51181 8.0119,-17.965205 0.6837,-11.12913 1.1485,11.265852 c 0,0 -6.8908,16.582651 -6.8908,17.144876 0,0.562216 8.9962,-8.449389 8.9962,-8.449389 l -9.8439,11.539295 15.7503,28.246666 5.3321,30.78968 3.9376,-2.78912 -0.8477,1.09377 -12.6603,16.43393 8.3125,-1.80473 3.2267,-5.05869 -1.4219,6.17981 2.9532,0.13672 -0.6836,6.75404 6.1798,-5.4962 4.6211,1.4219 1.422,-8.17594 v 8.31266 l 4.3477,-0.84767 2.1055,7.02748 3.09,-8.85955 6.043,-0.27344 C 792.6391,121.97316 785.0127,78.497702 782.9637,35.019277 782.7483,26.733726 775.7519,12.108988 768.1978,2.5342482 759.4008,-7.5462428 741.4281,-29.08335 715.9155,-35.11885 c -13.9408,-1.64371 -28.1208,0.5956 -43.5595,5.60558 -13.6645,3.963094 -27.7858,8.79922 -43.12194,16.105792 3.61321,5.8847732 8.39763,11.6457752 16.54324,18.4847462 2.558,2.484674 7.1611,3.16871 11.6761,2.816463 -3.1197,1.08665 -6.3456,2.010703 -9.7073,0.273443 -5.4927,-3.690168 -10.02603,-8.32672005 -14.3284,-13.207297 -2.82027,-3.513878 -4.9974,-7.0410212 -6.61732,-10.5548992 -2.60292,-5.87549 0.45658,-13.330948 5.49624,-21.355898 4.55403,-5.56482 9.57478,-10.99112 19.79728,-14.90264 9.1973,-3.64197 18.424,-7.27324 27.1528,-12.08618 9.8704,-6.35408 25.6133,-26.61909 33.9891,-40.77036 -22.8179,8.31495 -45.6222,14.95767 -68.3061,28.24667 -8.49179,5.77967 -16.81584,14.74809 -25.29349,24.03564 -3.6188,4.04531 -7.52791,7.8551 -12.66041,10.5549 -7.05429,3.7632 -11.9306,0.1945 -15.17608,-2.67975 -5.29048,-5.62346 -9.57842,-11.56 -13.34402,-17.69176 -5.02381,-6.84035 -10.29532,-13.69521 -17.99255,-20.53557 -8.85788,-8.16748 -16.84616,-17.59372 -24.88331,-26.14115 z m 144.35056,22.42233 -20.0981,24.22705 13.6448,-4.70322 -27.4536,13.37136 z m -95.34958,50.58695 c 1.7643,-0.0362 3.52918,0.0139 5.25011,0.19141 -11.11474,0.83553 -16.18986,2.74209 -25.84037,7.656407 3.54308,-2.681957 5.52671,-4.670837 11.89477,-6.836077 2.78745,-0.59848 5.75499,-0.95135 8.69549,-1.01174 z m 3.08991,15.230778 c 5.48791,0.09728 9.21503,2.488331 9.21503,2.488331 -12.16864,-3.25692 -18.85192,-0.538416 -24.06299,7.355617 -0.62532,-0.491323 3.45589,-7.364402 8.85955,-8.996275 2.14784,-0.648633 4.1591,-0.880101 5.98841,-0.847673 z m -0.92971,4.046956 c 1.13343,-0.04585 2.26431,0.06038 3.44538,0.300787 2.27415,0.789126 3.31793,2.471566 4.42978,4.074301 -2.35814,-2.085604 -4.81384,-3.717836 -7.76578,-2.953184 3.34949,0.353148 4.60427,2.452499 5.08604,5.195417 0.4009,3.6706642 -2.77292,5.8475592 -4.89463,6.1524672 -2.12406,0.30525 -4.84296,-0.227627 -6.39857,-2.488331 -0.46384,-0.923459 -1.64965,-4.3239872 0.2461,-6.7540422 -2.10915,0.786641 -3.90804,2.087407 -5.60558,3.5547592 1.42461,-2.0745012 3.17507,-3.6994002 5.82433,-5.4415162 1.8948,-1.049155 3.74389,-1.564173 5.63293,-1.640658 z M 496.915,31.382485 c 2.83993,3.349987 5.61756,6.562632 6.97279,10.992408 0.18119,4.108042 -1.64091,4.011554 -3.41804,3.992268 -1.50447,-0.01636 -4.324,-1.694603 -3.41803,-3.062561 0.72555,-1.095531 1.38988,-4.25284 1.09377,-5.742303 z m -10.41818,1.011739 c 2.22765,2.338904 4.41425,3.88212 4.83994,7.136862 0.15712,0.774986 0.3156,2.704478 -1.2305,2.406299 -4.50494,-4.226545 -1.79831,-3.77627 -3.60944,-9.543161 z"
         style="fill:#ffffff;stroke:none;stroke-width:0.87501758" />
    </g>
  </g>
  <circle
     style="opacity:1;fill:#1b70da;fill-opacity:1;stroke:none;stroke-width:3.99987626;stroke-linecap:round;stroke-linejoin:round;stroke-miterlimit:4;stroke-dasharray:none;stroke-opacity:1"
     id="path910-0"
     cx="48"
     cy="49"
     r="14" />
  <circle
     style="opacity:1;fill:#62a0e9;fill-opacity:1;stroke:none;stroke-width:3.99987626;stroke-linecap:round;stroke-linejoin:round;stroke-miterlimit:4;stroke-dasharray:none;stroke-opacity:1"
     id="path910"
     cx="48"
     cy="48"
     r="14" />
  <path
     style="fill:#1b70da;fill-opacity:1;stroke:none;stroke-width:2.07055259px;stroke-linecap:butt;stroke-linejoin:miter;stroke-opacity:1"
     d="m 50.679486,36.999997 -5.359012,9.8e-5 -10e-7,1 0.08758,1.141938 c -1.078145,0.35383 -2.072077,0.925429 -2.920139,1.679336 l -1.808325,-1.141852 -2.679591,4.640989 -2e-6,0.999999 1.900979,-7.86e-4 c -0.230025,1.108758 -0.230243,2.252908 -6.39e-4,3.361752 l -1.90024,0.998045 -2e-6,1 2.679422,3.640893 1.809503,-1.143776 c 0.845886,0.755378 1.837893,1.328989 2.914543,1.685282 l -0.08306,2.138087 5.359008,-1.01e-4 -0.08758,-2.141935 c 1.078144,-0.353828 2.07208,-0.925428 2.920143,-1.679336 l 1.808326,1.141854 2.679588,-3.640994 1e-6,-0.999999 -1.900976,-0.999211 c 0.230024,-1.108758 0.230241,-2.252907 6.37e-4,-3.361751 l 1.900241,0.0019 5e-6,-1 -2.679418,-4.640895 -1.809505,1.143776 c -0.845884,-0.75537 -1.837893,-1.328981 -2.914545,-1.685273 l 0.08306,-1.138084 z m -1.607695,6.000002 c 2.209138,0.591939 3.520137,2.862659 2.928201,5.071796 -0.591937,2.209139 -2.862658,3.520141 -5.071797,2.928205 -2.20914,-0.591938 -3.520141,-2.862659 -2.928203,-5.071799 0.03556,-0.133083 0.07774,-0.264308 0.126369,-0.393187 0.752589,-1.989912 2.890574,-3.085814 4.945505,-2.534997 z"
     id="path882-7" />
  <path
     style="fill:#ffffff;stroke:none;stroke-width:2.07055259px;stroke-linecap:butt;stroke-linejoin:miter;stroke-opacity:1"
     d="m 50.679485,37.999997 -5.359012,9.8e-5 0.08758,2.141938 a 8.2822111,8.2822111 0 0 0 -2.920139,1.679335 l -1.808325,-1.141851 -2.679591,4.640988 1.900977,0.999213 a 8.2822111,8.2822111 0 0 0 -6.39e-4,3.361753 l -1.90024,0.998045 2.67942,4.640893 1.809503,-1.143776 a 8.2822111,8.2822111 0 0 0 2.914543,1.685282 l -0.08306,2.138086 5.359009,-10e-5 -0.08758,-2.141935 a 8.2822111,8.2822111 0 0 0 2.920141,-1.679336 l 1.808327,1.141854 2.679588,-4.640994 -1.900974,-0.99921 a 8.2822111,8.2822111 0 0 0 6.36e-4,-3.361752 l 1.900248,-0.998046 -2.679418,-4.640895 -1.809506,1.143776 a 8.2822111,8.2822111 0 0 0 -2.914549,-1.685282 z m -1.607695,6.000002 a 4.1411057,4.1411057 0 0 1 2.9282,5.071796 A 4.1411057,4.1411057 0 0 1 46.928194,52 4.1411057,4.1411057 0 0 1 43.999991,46.9282 4.1411057,4.1411057 0 0 1 44.12636,46.535014 4.1411057,4.1411057 0 0 1 49.071866,44.000016 Z"
     id="path882" />
</svg>
