<svg version="1" viewBox="0 0 32 32" width="32" height="32" xmlns="http://www.w3.org/2000/svg">
 <g transform="matrix(.050068 0 0 .050068 -2.3333 .33333)">
  <path d="m272.96 339.54 1e-5 -173.1-26.63-26.63v199.73z" fill="#241f31"/>
  <path d="m352.85 113.18 39.945 13.315-1e-5 186.41h-39.945z" fill="#241f31"/>
  <path d="m113.18 379.48-26.63 119.84 399.45 53.261v-479.35l-66.576 26.63v199.73l-66.576 13.315v-199.73l-53.261 26.63v186.41l-53.261 13.315v-199.73l-53.261 26.63v186.41z" fill="#5e5c64"/>
  <path d="m486 552.58 159.78-53.261-13.315-133.15-119.84-66.576v-199.73l-26.63-26.63z" fill="#241f31"/>
  <rect x="366.17" y="312.91" width="319.56" height="319.56" ry="19.973" fill="#f6f5f4"/>
  <path d="m505.98 332.88-15.526 46.577a99.864 99.864 0 0 0-5.3443 2.1845l-43.885-21.923-28.243 28.243 21.962 43.924a99.864 99.864 0 0 0-2.3015 5.3052l-46.499 15.526v39.945l46.577 15.526a99.864 99.864 0 0 0 2.1845 5.3443l-21.923 43.885 28.243 28.243 43.924-21.962a99.864 99.864 0 0 0 5.3052 2.3015l15.526 46.499h39.945l15.526-46.577a99.864 99.864 0 0 0 5.3443-2.1845l43.885 21.923 28.243-28.243-21.962-43.924a99.864 99.864 0 0 0 2.3015-5.3052l46.499-15.526v-39.945l-46.577-15.526a99.864 99.864 0 0 0-2.1845-5.3443l21.923-43.885-28.243-28.243-43.924 21.962a99.864 99.864 0 0 0-5.3052-2.3015l-15.526-46.499zm19.973 59.918a79.891 79.891 0 0 0-6.7486 0.35108 79.891 79.891 0 0 1 6.7486-0.35108zm6.7486 0.35112a79.891 79.891 0 0 1 4.213 0.50711 79.891 79.891 0 0 0-4.213-0.50711zm-17.71 0.50711a79.891 79.891 0 0 0-3.7059 0.54605 79.891 79.891 0 0 1 3.7059-0.54605zm25.629 0.54605a79.891 79.891 0 0 1 4.447 1.0142 79.891 79.891 0 0 0-4.447-1.0142zm-33.782 1.0142a79.891 79.891 0 0 0-3.0817 0.78013 79.891 79.891 0 0 1 3.0817-0.78013zm41.311 0.78013a79.891 79.891 0 0 1 4.291 1.4043 79.891 79.891 0 0 0-4.291-1.4043zm-48.683 1.4043a79.891 79.891 0 0 0-3.5888 1.3264 79.891 79.891 0 0 1 3.5888-1.3264zm56.563 1.3264a79.891 79.891 0 0 1 3.4718 1.5605 79.891 79.891 0 0 0-3.4718-1.5605zm-63.624 1.5605a79.891 79.891 0 0 0-3.7058 1.7943 79.891 79.891 0 0 1 3.7058-1.7943zm70.802 1.7943a79.891 79.891 0 0 1 3.2768 1.8724 79.891 79.891 0 0 0-3.2768-1.8724zm-77.784 1.8724a79.891 79.891 0 0 0-3.7449 2.3015 79.891 79.891 0 0 1 3.7449-2.3015zm84.806 2.3015a79.891 79.891 0 0 1 2.6916 1.9505 79.891 79.891 0 0 0-2.6916-1.9505zm-91.243 1.9505a79.891 79.891 0 0 0-3.7059 2.8087 79.891 79.891 0 0 1 3.7059-2.8087zm97.64 2.8087a79.891 79.891 0 0 1 2.5746 2.2626 79.891 79.891 0 0 0-2.5746-2.2626zm-50.673 1.7554a59.918 59.918 0 0 1 59.918 59.918 59.918 59.918 0 0 1-59.918 59.918 59.918 59.918 0 0 1-59.918-59.918 59.918 59.918 0 0 1 59.918-59.918zm-53.248 0.50711a79.891 79.891 0 0 0-3.1988 2.9647 79.891 79.891 0 0 1 0.78014-0.85823 79.891 79.891 0 0 1 2.4186-2.1065zm109.69 2.9647a79.891 79.891 0 0 1 0.85822 0.78013 79.891 79.891 0 0 1 2.1065 2.4186 79.891 79.891 0 0 0-2.9647-3.1987zm-115.86 3.1987a79.891 79.891 0 0 0-2.2626 2.5746 79.891 79.891 0 0 1 2.2626-2.5746zm121.08 2.5746a79.891 79.891 0 0 1 2.8087 3.7059 79.891 79.891 0 0 0-2.8087-3.7059zm-126.16 3.7059a79.891 79.891 0 0 0-1.9505 2.6916 79.891 79.891 0 0 1 1.9505-2.6916zm130.91 2.6916a79.891 79.891 0 0 1 2.3015 3.7449 79.891 79.891 0 0 0-2.3015-3.7449zm-135.17 3.7449a79.891 79.891 0 0 0-1.8724 3.2768 79.891 79.891 0 0 1 1.8724-3.2768zm139.34 3.2768a79.891 79.891 0 0 1 1.7944 3.7059 79.891 79.891 0 0 0-1.7944-3.7059zm-143.01 3.7059a79.891 79.891 0 0 0-1.5605 3.4718 79.891 79.891 0 0 1 1.5605-3.4718zm146.36 3.4718a79.891 79.891 0 0 1 1.3264 3.5888 79.891 79.891 0 0 0-1.3264-3.5888zm-149.25 3.5888a79.891 79.891 0 0 0-1.4043 4.291 79.891 79.891 0 0 1 1.4043-4.291zm151.98 4.291a79.891 79.891 0 0 1 0.78014 3.0817 79.891 79.891 0 0 0-0.78014-3.0817zm-154.16 3.0817a79.891 79.891 0 0 0-1.0142 4.447 79.891 79.891 0 0 1 1.0142-4.447zm155.96 4.447a79.891 79.891 0 0 1 0.54605 3.7059 79.891 79.891 0 0 0-0.54605-3.7059zm-157.52 3.7059a79.891 79.891 0 0 0-0.5071 4.213 79.891 79.891 0 0 1 0.5071-4.213zm158.57 4.213a79.891 79.891 0 0 1 0.35112 6.7486 79.891 79.891 0 0 0-0.35112-6.7486zm-159.43 6.7486a79.891 79.891 0 0 0 0.35112 6.7486 79.891 79.891 0 0 1-0.35112-6.7486zm159.43 6.7486a79.891 79.891 0 0 1-0.50711 4.213 79.891 79.891 0 0 0 0.50711-4.213zm-158.57 4.213a79.891 79.891 0 0 0 0.54606 3.7059 79.891 79.891 0 0 1-0.54606-3.7059zm157.52 3.7059a79.891 79.891 0 0 1-1.0142 4.447 79.891 79.891 0 0 0 1.0142-4.447zm-155.96 4.447a79.891 79.891 0 0 0 0.78014 3.0817 79.891 79.891 0 0 1-0.78014-3.0817zm154.16 3.0817a79.891 79.891 0 0 1-1.4043 4.291 79.891 79.891 0 0 0 1.4043-4.291zm-151.98 4.291a79.891 79.891 0 0 0 1.3264 3.5888 79.891 79.891 0 0 1-1.3264-3.5888zm149.25 3.5888a79.891 79.891 0 0 1-1.5605 3.4718 79.891 79.891 0 0 0 1.5605-3.4718zm-146.36 3.4718a79.891 79.891 0 0 0 1.7944 3.7058 79.891 79.891 0 0 1-1.7944-3.7058zm143.01 3.7058a79.891 79.891 0 0 1-1.8724 3.2768 79.891 79.891 0 0 0 1.8724-3.2768zm-139.34 3.2768a79.891 79.891 0 0 0 2.3015 3.7449 79.891 79.891 0 0 1-2.3015-3.7449zm135.17 3.7449a79.891 79.891 0 0 1-1.9505 2.6916 79.891 79.891 0 0 0 1.9505-2.6916zm-130.91 2.6916a79.891 79.891 0 0 0 2.8087 3.7059 79.891 79.891 0 0 1-2.8087-3.7059zm126.16 3.7059a79.891 79.891 0 0 1-2.2626 2.5746 79.891 79.891 0 0 0 2.2626-2.5746zm-121.08 2.5746a79.891 79.891 0 0 0 2.9647 3.1988 79.891 79.891 0 0 1-0.85823-0.78014 79.891 79.891 0 0 1-2.1065-2.4186zm115.86 3.1988a79.891 79.891 0 0 1-0.78014 0.85823 79.891 79.891 0 0 1-2.4186 2.1065 79.891 79.891 0 0 0 3.1988-2.9647zm-109.69 2.9647a79.891 79.891 0 0 0 2.5746 2.2626 79.891 79.891 0 0 1-2.5746-2.2626zm103.92 2.2626a79.891 79.891 0 0 1-3.7059 2.8087 79.891 79.891 0 0 0 3.7059-2.8087zm-97.64 2.8087a79.891 79.891 0 0 0 2.6916 1.9505 79.891 79.891 0 0 1-2.6916-1.9505zm91.243 1.9505a79.891 79.891 0 0 1-3.7449 2.3015 79.891 79.891 0 0 0 3.7449-2.3015zm-84.806 2.3015a79.891 79.891 0 0 0 3.2768 1.8724 79.891 79.891 0 0 1-3.2768-1.8724zm77.784 1.8724a79.891 79.891 0 0 1-3.7059 1.7944 79.891 79.891 0 0 0 3.7059-1.7944zm-70.802 1.7944a79.891 79.891 0 0 0 3.4718 1.5605 79.891 79.891 0 0 1-3.4718-1.5605zm63.624 1.5605a79.891 79.891 0 0 1-3.5888 1.3264 79.891 79.891 0 0 0 3.5888-1.3264zm-56.563 1.3264a79.891 79.891 0 0 0 4.291 1.4043 79.891 79.891 0 0 1-4.291-1.4043zm48.683 1.4043a79.891 79.891 0 0 1-3.0817 0.78014 79.891 79.891 0 0 0 3.0817-0.78014zm-41.311 0.78014a79.891 79.891 0 0 0 4.447 1.0142 79.891 79.891 0 0 1-4.447-1.0142zm33.782 1.0142a79.891 79.891 0 0 1-3.7059 0.54606 79.891 79.891 0 0 0 3.7059-0.54606zm-25.629 0.54606a79.891 79.891 0 0 0 4.213 0.5071 79.891 79.891 0 0 1-4.213-0.5071zm17.71 0.5071a79.891 79.891 0 0 1-6.7486 0.35112 79.891 79.891 0 0 0 6.7486-0.35112z" fill="#3d3846"/>
 </g>
</svg>
