<svg version="1" viewBox="0 0 32 32" width="32" height="32" xmlns="http://www.w3.org/2000/svg">
 <defs>
  <linearGradient id="a" x1="-50.45" x2="-50.45" y1="-.040987" y2="-22.041" gradientUnits="userSpaceOnUse">
   <stop stop-color="#33d17a" offset="0"/>
   <stop stop-color="#33d17a" offset=".071429"/>
   <stop stop-color="#8ff0a4" offset=".21429"/>
   <stop stop-color="#33d17a" offset=".46429"/>
   <stop stop-color="#33d17a" offset="1"/>
  </linearGradient>
 </defs>
 <g transform="matrix(1.2727 0 0 1.2727 1.9478 -33.208)">
  <rect transform="matrix(0,-1,-1,0,0,0)" x="-50.45" y="-22.041" width="22" height="22" rx="11" ry="11" fill="url(#a)" stroke-width=".55"/>
  <rect transform="matrix(0,-1,-1,0,0,0)" x="-49.664" y="-22.041" width="22" height="22" rx="11" ry="11" fill="#2ec27e" stroke-width=".55"/>
  <path d="m11.04 38.664-7.0706-5.5002v11z" fill="#fff"/>
  <path d="m11.827 32.378a6.2857 6.2857 0 0 0-4.6468 2.0625l0.62304 0.48339a5.5 5.5 0 0 1 4.0237-1.7601 5.5 5.5 0 0 1 5.5 5.5 5.5 5.5 0 0 1-5.5 5.5 5.5 5.5 0 0 1-4.0252-1.7587l-0.61997 0.48339a6.2857 6.2857 0 0 0 4.6452 2.0609 6.2857 6.2857 0 0 0 6.2857-6.2857 6.2857 6.2857 0 0 0-6.2857-6.2857zm0 1.5714a4.7143 4.7143 0 0 0-3.4053 1.4563l0.62458 0.48646a3.9286 3.9286 0 0 1 2.7807-1.1571 3.9286 3.9286 0 0 1 3.9286 3.9286 3.9286 3.9286 0 0 1-3.9286 3.9286 3.9286 3.9286 0 0 1-2.7791-1.1555l-0.62151 0.48339a4.7143 4.7143 0 0 0 3.4006 1.4579 4.7143 4.7143 0 0 0 4.7143-4.7143 4.7143 4.7143 0 0 0-4.7143-4.7143z" fill="#fff" stroke-width=".78571"/>
 </g>
</svg>
