<?xml version="1.0" encoding="UTF-8" standalone="no"?>
<svg
   xmlns:dc="http://purl.org/dc/elements/1.1/"
   xmlns:cc="http://creativecommons.org/ns#"
   xmlns:rdf="http://www.w3.org/1999/02/22-rdf-syntax-ns#"
   xmlns:svg="http://www.w3.org/2000/svg"
   xmlns="http://www.w3.org/2000/svg"
   id="svg2"
   height="64"
   width="64"
   version="1.0">
  <metadata
     id="metadata42">
    <rdf:RDF>
      <cc:Work
         rdf:about="">
        <dc:format>image/svg+xml</dc:format>
        <dc:type
           rdf:resource="http://purl.org/dc/dcmitype/StillImage" />
        <dc:title></dc:title>
      </cc:Work>
    </rdf:RDF>
  </metadata>
  <defs
     id="defs4" />
  <path
     id="path838-3"
     d="M 32,4.9999999 A 28,28 0 0 0 4,33 28,28 0 0 0 32,61 28,28 0 0 0 60,33 28,28 0 0 0 32,4.9999999 Z"
     style="opacity:1;fill:#0088aa;fill-opacity:1;fill-rule:nonzero;stroke:none;stroke-width:6.21571922;stroke-linecap:round;stroke-linejoin:round;stroke-miterlimit:4;stroke-dasharray:none;stroke-opacity:1;paint-order:stroke fill markers" />
  <path
     id="path838"
     d="M 32,4 A 28,28 0 0 0 4,32 28,28 0 0 0 32,60 28,28 0 0 0 60,32 28,28 0 0 0 32,4 Z"
     style="opacity:1;fill:#00ccff;fill-opacity:1;fill-rule:nonzero;stroke:none;stroke-width:6.21571922;stroke-linecap:round;stroke-linejoin:round;stroke-miterlimit:4;stroke-dasharray:none;stroke-opacity:1;paint-order:stroke fill markers" />
  <path
     d="M 8.018425,21.00023 8,22 c 0,0 3.490657,1.960247 6,3 4.107366,1.701776 9.858238,5.292218 9.413368,5.988398 -1.334069,1.891139 -2.119265,4.158372 -1.576186,8.032503 0.09794,0.681951 -2.012917,1.866766 -1.859738,2.89573 0.01032,0.06308 -0.02821,0.954699 0.0073,0.989555 0.404853,0.39776 2.37092,-1.742586 2.594696,-1.459584 0.148914,0.552489 -1.202945,4.353567 -0.661471,4.553398 0.39603,0.118448 3.886769,-4.333894 4.089056,-4.276416 5.741394,1.746906 13.215435,0.433033 13.360077,0.377703 -0.01358,-0.03037 5.369351,3.549385 5.837698,3.241045 1.18143,-1.287618 -2.238187,-4.102476 -1.667889,-4.827399 0.250058,-0.379517 4.166946,2.423479 4.359887,1.930884 0.374498,-1.16527 -1.817502,-3.641468 -2.133205,-4.171928 C 45.488982,37.784785 45.295735,37.49421 46,37 c 0.704534,-0.494205 8.046705,-3.764851 7.744612,-5.910877 -0.522261,-3.89938 -9.142963,-4.153873 -9.282004,-4.482089 -0.06534,-0.154167 0.386492,-5.575984 -2.126601,-4.574409 -1.547304,0.57961 -0.291889,4.035419 -0.191816,4.482082 0.09234,0.411213 -0.686911,0.365149 -0.83396,0.184655 -0.328244,-0.403421 -1.407057,-4.008761 -2.68536,-3.365759 -1.792816,0.994852 -0.109413,4.10438 -0.467017,4.2051 -0.664236,0.37361 -0.626806,1.287756 -1.159209,2.031207 -0.877994,1.266399 -7.450146,-0.59237 -9.573887,-0.721831 -1.554771,-0.09239 -3.03702,1.187299 -3.17739,1.023996 C 22.354171,27.964014 18.439019,24.63868 14.148045,23.535042 11.741698,22.877803 8.162004,20.976057 8.018425,21.00023 Z m 43.824715,3.49166 c -0.143346,0.06225 -0.721724,3.061035 -0.441997,3.197894 0.247918,0.186671 0.67664,-3.023507 0.450341,-3.189495 -0.0034,-0.0041 -0.0034,-0.01042 -0.0084,-0.0085 z m 2.126607,0.411283 C 53.644595,24.896973 52.264286,27.3985 52.232824,28 c 0.01665,0.801197 0.01665,0.801197 0.01665,0.801197 0,0 1.353548,-1.989397 1.698963,-2.757521 0.170849,-0.379928 0.07674,-1.101891 0.04633,-1.132112 -0.0074,-0.0062 -0.01453,-0.0083 -0.02502,-0.0085 z m -8.406341,3.399333 c 0.410778,0 0.742225,0.377031 0.742225,0.847738 0,0.470706 -0.550197,-0.112628 -0.960975,-0.112628 -0.410772,0 -0.523475,0.583334 -0.523475,0.112628 0,-0.470707 0.331453,-0.847738 0.742225,-0.847738 z m -1.667921,0.512 C 44.211455,30.187268 41.012989,31.04378 42.493036,31 c -1.883818,1.73858 0.662953,-1.659331 1.402449,-2.185494 z m 3.986337,3.592379 c 0.117243,-0.0096 0.206991,0.009 0.258526,0.05874 0.742163,0.270737 -3.184598,1.6952 -3.210756,1.494032 -0.0395,-0.138661 2.131504,-1.485793 2.95223,-1.552788 z M 49,34 c 0.634478,0.686621 0.600202,-1.01558 0.630183,-1 0.700529,0.70048 -3.030301,2.054525 -2.997478,2 C 46.397527,34.856978 48.328171,34 49,34 Z"
     id="path14-3"
     style="fill:#0088aa;fill-opacity:1;fill-rule:evenodd;stroke:none;stroke-width:0.07178976" />
  <path
     d="m 8.0184246,22.000229 c -0.244181,0.134561 1.9474689,1.580046 6.0545664,3.281832 4.107366,1.701776 9.785247,6.010156 9.340377,6.706336 -1.334069,1.89114 -2.119265,4.158373 -1.576186,8.032504 0.09794,0.681951 -2.012917,1.866766 -1.859738,2.89573 0.128097,0.782939 2.358577,-0.777831 2.601963,-0.470029 0.148914,0.552489 -1.191963,3.350585 -0.650489,3.550416 0.39603,0.118448 3.875787,-3.330912 4.078074,-3.273434 5.741394,1.746906 13.215435,0.433033 13.360077,0.377703 -0.01358,-0.03037 5.369384,2.549385 5.837731,2.241045 1.18143,-1.287618 -2.23822,-3.102476 -1.667922,-3.827399 0.250058,-0.379517 4.168679,1.424264 4.36162,0.931669 0.280748,-0.85277 -1.819235,-2.642253 -2.134938,-3.172713 -0.274611,-0.489104 -0.328985,-1.276805 0.37528,-1.771015 0.704534,-0.494205 7.907832,-3.267725 7.605739,-5.413751 -0.522261,-3.899381 -9.142963,-4.153874 -9.282004,-4.48209 -0.06534,-0.154167 0.386492,-5.575984 -2.126601,-4.574409 -1.547304,0.57961 -0.291889,4.035419 -0.191816,4.482082 0.09234,0.411213 -0.686911,0.365149 -0.83396,0.184655 -0.328244,-0.403421 -1.407057,-4.008761 -2.68536,-3.365759 -1.792816,0.994852 -0.109413,4.10438 -0.467017,4.2051 -0.664236,0.37361 -0.626806,1.287756 -1.159209,2.031207 -0.877994,1.266399 -7.450146,-0.59237 -9.573887,-0.721831 -1.554771,-0.09239 -3.03702,1.187299 -3.17739,1.023996 -1.893164,-1.908061 -5.808316,-5.233395 -10.09929,-6.337033 -2.406347,-0.657239 -5.986041,-2.558985 -6.1296204,-2.534812 z m 43.8247154,3.49166 c -0.143346,0.06225 -0.721724,3.061035 -0.441997,3.197894 0.247918,0.186671 0.67664,-3.023507 0.450341,-3.189495 -0.0034,-0.0041 -0.0034,-0.01042 -0.0084,-0.0085 z m 2.126607,0.411283 c -0.325152,-0.0062 -2.059014,2.782719 -1.659583,3.080384 0.247917,0.186672 1.790814,-2.966436 1.684603,-3.071993 -0.0074,-0.0062 -0.01453,-0.0083 -0.02502,-0.0085 z m -8.406341,3.399333 c 0.410778,0 0.742225,0.377031 0.742225,0.847738 0,0.470706 -0.331447,0.856122 -0.742225,0.856122 -0.410772,0 -0.742225,-0.385416 -0.742225,-0.856122 0,-0.470707 0.331453,-0.847738 0.742225,-0.847738 z m -1.667921,0.512 c 0.31597,1.372762 0.805004,1.806397 2.285051,1.762617 -1.883818,1.738581 -3.024547,-1.236454 -2.285051,-1.762617 z m 3.986337,3.59238 c 0.117243,-0.0096 0.206991,0.009 0.258526,0.05874 0.742163,0.270737 -3.184598,1.6952 -3.210756,1.494032 -0.0395,-0.138661 2.131504,-1.485793 2.95223,-1.552788 z m 0.4837,0.906494 c 0.0406,-0.0034 0.07843,0.0096 0.108411,0.02518 0.700529,0.70048 -2.217801,2.253598 -2.184978,2.199073 -0.235178,-0.143022 1.467238,-2.176672 2.076567,-2.224254 z"
     id="path14"
     style="fill:#000000;fill-rule:evenodd;stroke:none;stroke-width:0.07178976" />
</svg>
