<svg version="1" viewBox="0 0 32 32" width="32" height="32" xmlns="http://www.w3.org/2000/svg">
 <defs>
  <linearGradient id="a" x1="-50.45" x2="-50.45" y1="-.040987" y2="-22.041" gradientUnits="userSpaceOnUse">
   <stop stop-color="#26a269" offset="0"/>
   <stop stop-color="#26a269" offset=".071429"/>
   <stop stop-color="#57e389" offset=".21429"/>
   <stop stop-color="#26a269" offset=".46429"/>
   <stop stop-color="#26a269" offset="1"/>
  </linearGradient>
 </defs>
 <g transform="matrix(1.2727 0 0 1.2727 1.9478 -33.208)" stroke-width=".55">
  <rect transform="matrix(0,-1,-1,0,0,0)" x="-50.45" y="-22.041" width="22" height="22" rx="11" ry="11" fill="url(#a)"/>
  <rect transform="matrix(0,-1,-1,0,0,0)" x="-49.664" y="-22.041" width="22" height="22" rx="11" ry="11" fill="#33d17a"/>
 </g>
 <g fill="#070c0f" stroke-width=".075822">
  <path d="m23.151 19.503-7.568 0.67584-7.5663-0.6753 7.5663 2.881zm-16.151 0.20687v1.0148l8.5828 3.2758 8.5758-3.2758v-1.0116l-8.4772 3.227a0.27729 0.27729 0 0 1-0.19712 0z"/>
  <path d="m15.583 22.681-8.583-3.2679s0.56866-0.21988 0.67481-0.25779c0.508-0.18956 1.0463-0.34878 1.5392-0.56108 1.0236-0.45493 2.1458-0.74305 3.2679-0.75822 0.64448-0.0075 1.2435 0.18955 1.8728 0.09098 0.72789-0.12131 1.4254-0.39427 2.1533-0.53833 1.3193-0.25021 2.6007 0.09098 3.8214 0.57624 1.2511 0.49284 2.4718 0.93261 3.7304 1.4103 0.03791 0.01516 0.06824 0.02274 0.10615 0.03791z"/>
  <path d="m9.813 19.58c-0.10615-2.3808 2.305-3.6622 4.0868-4.6403 1.5543-0.8492 3.4954-1.9562 3.0935-4.0261-0.08341-0.43218-0.74305-0.25021-0.65965 0.18197 0.18197 0.94777-0.35636 1.6681-1.0767 2.214-0.8492 0.64448-1.8273 1.0994-2.7523 1.6226-1.706 0.97052-3.4726 2.5021-3.3816 4.6479 0.022748 0.43976 0.70514 0.43976 0.68998 0z"/>
  <path d="m12.8 15.675c2.3656 0.49284 4.8602-0.2123 6.6116-1.8804 0.31845-0.30328-0.16681-0.78855-0.48526-0.48526-1.5619 1.5013-3.8214 2.1533-5.9444 1.706-0.4246-0.08341-0.61416 0.56866-0.18197 0.65965z"/>
  <path d="m12.8 10.708c0.62174 0.15164 1.6757-0.56866 2.1458-0.79613 0.60657-0.2957 1.2359-0.52317 1.85-0.79613 0.23505-0.10615 1.0008-0.34878 1.0084-0.68998 0.015163-0.4246-0.79613-0.44735-1.0615-0.41702-0.53833 0.053073-1.0615 0.21988-1.5771 0.37153-0.53075 0.15923-1.0463 0.37153-1.5392 0.6369-0.37153 0.19714-0.87953 0.54592-1.0994 0.90986-0.13648 0.21988-0.1289 0.54592 0.08341 0.69756 0.05307 0.03791 0.11373 0.06823 0.18955 0.0834z"/>
  <path d="m16.607 9.5559c0.10615-0.060659 0.2123-0.11373 0.31845-0.16681 0.87953-0.41702 1.8955-0.75822 2.8964-0.83404 0.87195-0.068235 1.8349-0.22746 2.6993 0.00753 0.44735 0.12131 0.94019 0.5535 0.70514 0.97052-0.17439 0.31087-0.88711 0.72789-1.198 0.95535-1.1449 0.81129-2.7447 1.1677-4.2081 1.2435-1.0615 0.06066-2.8054-0.54592-1.8349-1.6908 0.15922-0.19714 0.38669-0.34878 0.62174-0.48526z"/>
  <path d="m22.445 10.511c0.24263 0.0076 0.52317 0.06823 0.6369 0.28812 0.09098 0.18197 0.02274 0.40185-0.10615 0.5535-0.13648 0.15164-0.31845 0.23505-0.508 0.31087-0.94019 0.39427-1.9486 0.62932-2.9646 0.69756-0.28054 0.01516-0.57624 0.02274-0.8492-0.06824s-0.51559-0.2957-0.59141-0.56866c-0.16681-0.62932 1.2131-0.83404 1.5847-0.90228 0.37153-0.06825 0.74305-0.11373 1.1146-0.1289 0.56108-0.03791 1.107-0.20472 1.6832-0.18197z"/>
  <path d="m22.316 14.636c-0.37152-0.91744-2.6083 0.09099-3.1163 0.41702-0.18955 0.12132-0.38669 0.30329-0.34878 0.52317 0.03791 0.23505 0.31845 0.3412 0.56108 0.37153 0.58383 0.07582 3.3362-0.22746 2.904-1.3117z"/>
  <path d="m15.287 11.664c-0.09098 0.60657-0.90986 1.2738-1.4558 1.4634-0.53075 0.18956-1.4179-0.20472-1.0918-0.8492 0.28812-0.56108 1.7136-1.5619 2.3353-1.1525 0.18197 0.11373 0.24263 0.3412 0.2123 0.53834z"/>
  <path d="m16.864 14.681c0.87195 0.10615 1.7666-0.0075 2.5855-0.31845 0.18197-0.06824 0.37153-0.15923 0.44735-0.3412 0.05307-0.13648 0.01516-0.30329-0.09098-0.40186-0.10615-0.09857-0.27296-0.1289-0.40186-0.06824-0.24263-0.26538-0.66723-0.24263-1.0236-0.17439-0.56108 0.11374-1.1146 0.31845-1.6226 0.58383-0.18197 0.09857-0.38669 0.26538-0.33362 0.46251 0.05307 0.17439 0.25779 0.23505 0.43977 0.2578z"/>
  <path d="m17.873 13.976c1.1525 0.25779 2.4187-0.07582 3.4044-0.71272 0.1289-0.08341 0.27296-0.2123 0.25021-0.37153-0.03033-0.18955-0.27296-0.25021-0.4701-0.24263-1.1222 0.01516-2.2595 0.2957-3.2376 0.86436-0.11373 0.06066-0.23505 0.16681-0.20472 0.28812 0.03791 0.10615 0.15923 0.15164 0.25779 0.17439z"/>
  <path d="m12.103 12.445c0.10615-0.1289 0.19714-0.28812 0.15164-0.43977-0.2123-0.84162-1.3572 0.25021-1.6302 0.50042-0.34878 0.31845-0.33362 0.59899 0.23505 0.59899 0.46251-0.0075 0.95535-0.31845 1.2435-0.65965z"/>
 </g>
 <rect x="16" y="16" width="16" height="16" ry="1" fill="#f6f5f4" stroke-width=".050068"/>
 <circle cx="71.133" cy="-62.203" r="0" fill="#3d3846" opacity=".3"/>
 <path d="m24.025 17a7 7 0 0 0-5.5108 2.6969c0.85381 0.22811 1.4581 0.42415 1.6391 0.48496 0.0028-0.11104 0.02125-1.1042 0.02125-1.1042s0.0023-0.02273 0.01447-0.03459c0.01562-0.01526 0.03821-0.01065 0.03821-0.01065 0.22456 0.03253 5.0178 0.74302 7.0382 1.9204 0.24951 0.14597 0.37266 0.30116 0.52655 0.45849 0.55849 0.57762 1.2965 2.9794 1.3757 3.4747 0.0031 0.01946-0.02093 0.04059-0.0312 0.0486h-2.31e-4c-0.05738 0.04477-0.11987 0.09133-0.18245 0.13293-0.47807 0.32074-1.5794 1.0917-2.9924 0.96584-1.2692-0.11228-2.9275-0.84034-4.9266-2.1575 0.19655 0.46019 0.39021 0.92181 0.58397 1.3832 0.2895 0.15037 3.0838 1.5742 4.4629 1.5464 1.1108-0.02314 2.2988-0.56493 2.774-0.85098 0 0 0.10444-0.06292 0.14989-0.0278 0.04972 0.03841 0.03596 0.09726 0.02419 0.15736-0.02924 0.13643-0.0958 0.38534-0.14107 0.50349l-0.03821 0.09631c-0.0544 0.14576-0.10662 0.28124-0.20732 0.36467-0.27998 0.25458-0.72684 0.45713-1.427 0.76145-1.0823 0.47344-2.8382 0.77453-4.4685 0.76417-0.58391-0.013-1.148-0.07779-1.6434-0.13565-1.0166-0.11477-1.8437-0.20788-2.3481 0.15691a7 7 0 0 0 5.2689 2.4046 7 7 0 0 0 7-7 7 7 0 0 0-7-7zm1.5613 4.0616c-0.5479-0.01747-1.0704 0.17588-1.4709 0.54984-0.40036 0.37272-0.62947 0.88086-0.64976 1.4284-0.03785 1.1295 0.84898 2.0813 1.9775 2.1229 0.55039 0.01847 1.0717-0.175 1.4723-0.55119 0.39934-0.37156 0.62845-0.87972 0.64976-1.4273 0.03878-1.1285-0.84912-2.0823-1.9789-2.1227zm-0.01718 0.6041c0.78956 0.02801 1.4077 0.69129 1.3811 1.4806-0.01219 0.38066-0.17277 0.73353-0.45171 0.99521-0.27935 0.26047-0.64446 0.39592-1.0275 0.38434-0.78773-0.02905-1.4059-0.6931-1.3793-1.4826 0.01158-0.38208 0.17534-0.73498 0.45307-0.99546 0.27772-0.26047 0.64108-0.39588 1.0244-0.38207zm0.234 0.71781c-0.35082 0-0.63416 0.1888-0.63416 0.42369 0 0.23267 0.28335 0.42255 0.63416 0.42255 0.35061 0 0.63507-0.1899 0.63507-0.42255 0-0.23489-0.28426-0.42369-0.63507-0.42369z" fill="#3d3846"/>
</svg>
