<svg version="1" viewBox="0 0 32 32" width="32" height="32" xmlns="http://www.w3.org/2000/svg">
 <defs>
  <linearGradient id="a" x1="-50.45" x2="-50.45" y1="-.040987" y2="-22.041" gradientUnits="userSpaceOnUse">
   <stop stop-color="#e5a50a" offset="0"/>
   <stop stop-color="#e5a50a" offset=".071429"/>
   <stop stop-color="#f6d32d" offset=".21429"/>
   <stop stop-color="#e5a50a" offset=".46429"/>
   <stop stop-color="#e5a50a" offset="1"/>
  </linearGradient>
 </defs>
 <g transform="matrix(1.2727 0 0 1.2727 1.9478 -33.208)">
  <rect transform="matrix(0,-1,-1,0,0,0)" x="-50.45" y="-22.041" width="22" height="22" rx="11" ry="11" fill="url(#a)" stroke-width=".55"/>
  <rect transform="matrix(0,-1,-1,0,0,0)" x="-49.664" y="-22.041" width="22" height="22" rx="11" ry="11" fill="#f6d32d" stroke-width=".55"/>
  <path d="m15.234 32.162c-2.6934 0-3.1987 4.0926-1.6833 4.0926 1.5148 0 4.377-4.0926 1.6833-4.0926zm-4.1487 0.62964c-0.04243-1.58e-4 -0.08855 0.0039-0.1363 0.0089-1.5263 0.19278-0.98917 2.7759-0.17661 2.8241 0.78678 0.04698 1.6476-2.8282 0.31238-2.8327zm-2.6466 0.95364c-0.09338-0.0059-0.19675 0.01182-0.31184 0.0589-1.2268 0.50377-0.18616 2.5833 0.50065 2.4435 0.62338-0.12668 0.71275-2.4439-0.18881-2.5025zm-2.0025 1.7002c-0.10663-0.0029-0.22168 0.03379-0.34472 0.12541-0.98201 0.7329 0.33041 2.5034 0.90824 2.2289 0.50543-0.24046 0.18297-2.3273-0.56366-2.3544zm5.8 1.6903c-2.1278-0.03659-4.935 1.0432-5.4139 3.2124-0.51816 2.3468 2.1347 5.6032 4.9021 5.6032 1.3614 0 2.9316-1.2442 3.2256-2.8199 0.22434-1.2014-2.6404-0.71991-2.5377 0.07495 0.12357 0.95295-0.69095 1.424-1.4886 0.8098-2.5389-1.9556 4.2039-2.9315 3.7591-5.6032-0.13842-0.83171-1.1704-1.2552-2.4471-1.2771z" stroke-width=".53036"/>
 </g>
</svg>
