<?xml version="1.0" encoding="UTF-8" standalone="no"?>
<svg
   xmlns:dc="http://purl.org/dc/elements/1.1/"
   xmlns:cc="http://creativecommons.org/ns#"
   xmlns:rdf="http://www.w3.org/1999/02/22-rdf-syntax-ns#"
   xmlns:svg="http://www.w3.org/2000/svg"
   xmlns="http://www.w3.org/2000/svg"
   width="64"
   height="64"
   version="1"
   id="svg14">
  <metadata
     id="metadata20">
    <rdf:RDF>
      <cc:Work
         rdf:about="">
        <dc:format>image/svg+xml</dc:format>
        <dc:type
           rdf:resource="http://purl.org/dc/dcmitype/StillImage" />
        <dc:title></dc:title>
      </cc:Work>
    </rdf:RDF>
  </metadata>
  <defs
     id="defs18" />
  <g
     transform="matrix(0.07510248,0,0,0.07510248,5,4)"
     id="g1085">
    <rect
       ry="26.63028"
       y="53.260559"
       x="13.31514"
       height="665.75696"
       width="692.38727"
       id="rect1327"
       style="opacity:1;fill:#1a1a1a;fill-opacity:1;stroke:none;stroke-width:50.32493973;stroke-linecap:round;stroke-linejoin:round;stroke-miterlimit:4;stroke-dasharray:none;stroke-opacity:1" />
    <rect
       ry="26.63028"
       y="26.63028"
       x="13.31514"
       height="639.12671"
       width="692.38727"
       id="rect1325"
       style="opacity:1;fill:#333333;fill-opacity:1;stroke:none;stroke-width:50.32493973;stroke-linecap:round;stroke-linejoin:round;stroke-miterlimit:4;stroke-dasharray:none;stroke-opacity:1" />
    <path
       style="fill:#1a1a1a;fill-opacity:1;stroke:none;stroke-width:13.31513977px;stroke-linecap:butt;stroke-linejoin:miter;stroke-opacity:1"
       d="M 599.18127,146.46653 519.29044,66.575706 H 173.09681 L 93.205978,146.46653 v 372.82392 l 79.890832,79.89083 h 346.19363 l 79.89084,-66.5757 -10e-6,-13.31513 H 226.35736 l -53.26055,-53.26056 v -266.3028 l 53.26055,-53.26056 372.82392,13.31514 z"
       id="path870-7" />
    <path
       style="fill:#ffffff;stroke:none;stroke-width:13.31513977px;stroke-linecap:butt;stroke-linejoin:miter;stroke-opacity:1"
       d="m 599.18128,159.78167 -79.89084,-79.890833 -346.19363,0 -79.890833,79.890833 v 372.82391 l 79.890833,79.89084 346.19363,0 79.89084,-79.89084 H 226.35737 l -53.26055,-53.26056 -1e-5,-266.30279 53.26056,-53.26056 z"
       id="path870" />
    <path
       style="fill:#1a1a1a;stroke:none;stroke-width:13.31513977px;stroke-linecap:butt;stroke-linejoin:miter;stroke-opacity:1;fill-opacity:1"
       d="m 279.61794,306.24823 v -53.26056 l 53.26054,-1e-5 v 53.26055 h 53.26056 v 53.26056 h -53.26056 v 53.26056 h -53.26055 v -53.26056 h -53.26057 v -53.26056 z"
       id="path872-5" />
    <path
       style="fill:#ffffff;stroke:none;stroke-width:13.31513977px;stroke-linecap:butt;stroke-linejoin:miter;stroke-opacity:1"
       d="M 279.61794,319.56336 V 266.3028 l 53.26055,-10e-6 v 53.26056 h 53.26056 v 53.26056 h -53.26056 v 53.26055 h -53.26056 v -53.26055 h -53.26056 v -53.26056 z"
       id="path872" />
    <path
       style="fill:#1a1a1a;stroke:none;stroke-width:13.31513977px;stroke-linecap:butt;stroke-linejoin:miter;stroke-opacity:1;fill-opacity:1"
       d="m 492.66016,306.24821 v -53.26055 l 53.26054,-2e-5 v 53.26056 h 53.26056 v 53.26057 H 545.9207 v 53.26056 H 492.66014 V 359.50877 H 439.39959 V 306.2482 Z"
       id="path872-6-3" />
    <path
       style="fill:#ffffff;stroke:none;stroke-width:13.31513977px;stroke-linecap:butt;stroke-linejoin:miter;stroke-opacity:1"
       d="m 492.66016,319.56335 v -53.26056 l 53.26055,-1e-5 v 53.26056 h 53.26056 v 53.26056 h -53.26056 v 53.26056 H 492.66015 V 372.8239 h -53.26056 v -53.26056 z"
       id="path872-6" />
  </g>
  <circle
     style="opacity:1;fill:#1b70da;fill-opacity:1;stroke:none;stroke-width:3.99987626;stroke-linecap:round;stroke-linejoin:round;stroke-miterlimit:4;stroke-dasharray:none;stroke-opacity:1"
     id="path910-0"
     cx="48"
     cy="49"
     r="14" />
  <circle
     style="opacity:1;fill:#62a0e9;fill-opacity:1;stroke:none;stroke-width:3.99987626;stroke-linecap:round;stroke-linejoin:round;stroke-miterlimit:4;stroke-dasharray:none;stroke-opacity:1"
     id="path910"
     cx="48"
     cy="48"
     r="14" />
  <path
     style="fill:#1b70da;fill-opacity:1;stroke:none;stroke-width:2.07055259px;stroke-linecap:butt;stroke-linejoin:miter;stroke-opacity:1"
     d="m 50.679483,36.999996 -5.359012,9.8e-5 -10e-7,1 0.08758,1.141938 c -1.078145,0.35383 -2.072077,0.925429 -2.920139,1.679336 l -1.808325,-1.141852 -2.679591,4.640989 -2e-6,0.999999 1.900979,-7.86e-4 c -0.230025,1.108758 -0.230243,2.252908 -6.39e-4,3.361752 l -1.90024,0.998045 -2e-6,1 2.679422,3.640893 1.809503,-1.143776 c 0.845886,0.755378 1.837893,1.328989 2.914543,1.685282 l -0.08306,2.138087 5.359008,-1.01e-4 -0.08758,-2.141935 c 1.078144,-0.353828 2.07208,-0.925428 2.920143,-1.679336 l 1.808326,1.141854 2.679588,-3.640994 1e-6,-0.999999 -1.900976,-0.999211 c 0.230024,-1.108758 0.230241,-2.252907 6.37e-4,-3.361751 l 1.900241,0.0019 5e-6,-1 -2.679418,-4.640895 -1.809505,1.143776 c -0.845884,-0.75537 -1.837893,-1.328981 -2.914545,-1.685273 l 0.08306,-1.138084 z m -1.607695,6.000002 c 2.209138,0.591939 3.520137,2.862659 2.928201,5.071796 -0.591937,2.209139 -2.862658,3.520141 -5.071797,2.928205 -2.20914,-0.591938 -3.520141,-2.862659 -2.928203,-5.071799 0.03556,-0.133083 0.07774,-0.264308 0.126369,-0.393187 0.752589,-1.989912 2.890574,-3.085814 4.945505,-2.534997 z"
     id="path882-7" />
  <path
     style="fill:#ffffff;stroke:none;stroke-width:2.07055259px;stroke-linecap:butt;stroke-linejoin:miter;stroke-opacity:1"
     d="m 50.679482,37.999996 -5.359012,9.8e-5 0.08758,2.141938 a 8.2822111,8.2822111 0 0 0 -2.920139,1.679335 l -1.808325,-1.141851 -2.679591,4.640988 1.900977,0.999213 a 8.2822111,8.2822111 0 0 0 -6.39e-4,3.361753 l -1.90024,0.998045 2.67942,4.640893 1.809503,-1.143776 a 8.2822111,8.2822111 0 0 0 2.914543,1.685282 L 45.320499,58 l 5.359009,-1e-4 -0.08758,-2.141935 a 8.2822111,8.2822111 0 0 0 2.920141,-1.679336 l 1.808327,1.141854 2.679588,-4.640994 -1.900974,-0.99921 a 8.2822111,8.2822111 0 0 0 6.36e-4,-3.361752 l 1.900248,-0.998046 -2.679418,-4.640895 -1.809506,1.143776 A 8.2822111,8.2822111 0 0 0 50.596421,40.13808 Z m -1.607695,6.000002 a 4.1411057,4.1411057 0 0 1 2.9282,5.071796 4.1411057,4.1411057 0 0 1 -5.071796,2.928205 4.1411057,4.1411057 0 0 1 -2.928203,-5.0718 4.1411057,4.1411057 0 0 1 0.126369,-0.393186 4.1411057,4.1411057 0 0 1 4.945506,-2.534998 z"
     id="path882" />
</svg>
