<svg version="1.1" viewBox="0 0 32 32" width="32" height="32" xmlns="http://www.w3.org/2000/svg" xmlns:xlink="http://www.w3.org/1999/xlink">
 <defs>
  <linearGradient id="a" x1="12" x2="16" y1="4" y2="14" gradientTransform="translate(0,1)" gradientUnits="userSpaceOnUse">
   <stop stop-color="#8ff0a4" offset="0"/>
   <stop stop-color="#98c1f1" offset="1"/>
  </linearGradient>
 </defs>
 <g>
  <rect x="4" y="5" width="18" height="22" fill="#c0bfbc"/>
  <rect x="4" y="5" width="18" height="21" fill="#f6f5f4"/>
  <rect x="11" y="5" width="17" height="12" rx="0" fill="#c0bfbc"/>
  <rect x="11" y="4" width="17" height="12" rx="0" fill="#f6f5f4"/>
  <rect x="12" y="5" width="4" height="10" fill="url(#a)"/>
  <rect x="18" y="7" width="8" height="2" fill="#77767b"/>
 </g>
 <g fill="#deddda">
  <rect x="20" y="11" width="4" height="1"/>
  <rect x="5" y="23" width="16" height="1"/>
  <rect x="5" y="21" width="16" height="1"/>
  <rect x="5" y="19" width="16" height="1"/>
  <rect x="5" y="17" width="16" height="1"/>
  <rect x="5" y="15" width="6" height="1"/>
  <rect x="5" y="13" width="6" height="1"/>
  <rect x="5" y="11" width="6" height="1"/>
  <rect x="5" y="9" width="6" height="1"/>
  <rect x="5" y="7" width="6" height="1"/>
 </g>
 <g>
  <rect x="11" y="20" width="17" height="9" fill="#c0bfbc"/>
  <rect x="11" y="19" width="17" height="9" fill="#f6f5f4"/>
  <rect x="12" y="20" width="1" height="7" fill="#deddda"/>
  <rect x="13" y="26" width="14" height="1" fill="#deddda"/>
  <path d="m21.953 19.105-3.0977 5.1602-3.8379-2.877-2.0176 1.3438v1.2012l1.9824-1.3223 4.1602 3.1211 2.9043-4.8359 2.5527 3.4043 0.80078-0.60156-3.4473-4.5938z" color="#000000" color-rendering="auto" dominant-baseline="auto" fill="#33d17a" image-rendering="auto" shape-rendering="auto" solid-color="#000000" style="font-feature-settings:normal;font-variant-alternates:normal;font-variant-caps:normal;font-variant-ligatures:normal;font-variant-numeric:normal;font-variant-position:normal;isolation:auto;mix-blend-mode:normal;shape-padding:0;text-decoration-color:#000000;text-decoration-line:none;text-decoration-style:solid;text-indent:0;text-orientation:mixed;text-transform:none;white-space:normal"/>
 </g>
</svg>
