<?xml version="1.0" encoding="UTF-8" standalone="no"?>
<svg
   xmlns:dc="http://purl.org/dc/elements/1.1/"
   xmlns:cc="http://creativecommons.org/ns#"
   xmlns:rdf="http://www.w3.org/1999/02/22-rdf-syntax-ns#"
   xmlns:svg="http://www.w3.org/2000/svg"
   xmlns="http://www.w3.org/2000/svg"
   id="svg14"
   version="1"
   height="64"
   width="64">
  <metadata
     id="metadata20">
    <rdf:RDF>
      <cc:Work
         rdf:about="">
        <dc:format>image/svg+xml</dc:format>
        <dc:type
           rdf:resource="http://purl.org/dc/dcmitype/StillImage" />
        <dc:title></dc:title>
      </cc:Work>
    </rdf:RDF>
  </metadata>
  <defs
     id="defs18" />
  <g
     id="g12"
     transform="matrix(1.2727273,0,0,1.2727273,1.9478346,-1.2084915)">
    <rect
       id="rect2-6"
       style="fill:#3fa156;fill-opacity:1;stroke-width:1.10000002"
       ry="22"
       rx="22"
       height="44"
       width="44"
       y="-45.612415"
       x="-48.878098"
       transform="matrix(0,-1,-1,0,0,0)" />
    <rect
       id="rect2"
       style="fill:#34d07c;stroke-width:1.10000002;fill-opacity:1"
       ry="22"
       rx="22"
       height="44"
       width="44"
       y="-45.612415"
       x="-48.092384"
       transform="matrix(0,-1,-1,0,0,0)" />
    <path
       id="path8-3"
       style="fill:#3fa156;stroke-width:1.06071424;fill-opacity:1"
       d="m 31.999058,11.517279 c -5.386838,0 -6.397381,8.185215 -3.366601,8.185215 3.029611,0 8.754074,-8.185215 3.366601,-8.185215 z m -8.297437,1.25928 c -0.08486,-3.15e-4 -0.177097,0.0079 -0.272605,0.01773 -3.052628,0.385569 -1.978337,5.551885 -0.353218,5.648198 1.573571,0.09397 3.295109,-5.656472 0.624762,-5.665488 z m -5.293176,1.907271 c -0.18676,-0.01182 -0.393505,0.02364 -0.62368,0.117803 -2.453644,1.00754 -0.37231,5.166634 1.001294,4.887029 1.246763,-0.253352 1.425494,-4.887878 -0.377614,-5.005087 z m -4.00494,3.400332 c -0.213257,-0.0059 -0.443357,0.06757 -0.689442,0.250827 -1.964019,1.465801 0.660824,5.00689 1.816473,4.457864 1.010861,-0.480928 0.365945,-4.654626 -1.127328,-4.708722 z m 11.599971,3.380603 c -4.255586,-0.07319 -9.869945,2.086425 -10.827771,6.424746 -1.036318,4.693661 4.269376,11.206446 9.804182,11.206446 2.722748,0 5.863204,-2.488329 6.451264,-5.639711 0.448682,-2.40273 -5.280872,-1.439814 -5.075305,0.14991 0.247146,1.905892 -1.381899,2.848018 -2.977108,1.619605 -5.077744,-3.911278 8.407753,-5.863098 7.518238,-11.206446 -0.276847,-1.663412 -2.340891,-2.510499 -4.894137,-2.5542 z" />
    <path
       id="path8"
       style="fill:#ffffff;stroke-width:1.06071424"
       d="m 31.99842,12.303098 c -5.386837,0 -6.39738,8.185215 -3.366601,8.185215 3.029612,0 8.754075,-8.185215 3.366601,-8.185215 z m -8.297437,1.25928 c -0.08486,-3.15e-4 -0.177097,0.0079 -0.272604,0.01773 -3.052629,0.385569 -1.978338,5.551885 -0.353218,5.648198 1.57357,0.09397 3.295109,-5.656472 0.624761,-5.665488 z m -5.293176,1.907271 c -0.18676,-0.01182 -0.393504,0.02364 -0.623679,0.117803 -2.453644,1.00754 -0.372311,5.166634 1.001293,4.887029 1.246763,-0.253351 1.425494,-4.887878 -0.377614,-5.005087 z m -4.004939,3.400332 c -0.213257,-0.0059 -0.443358,0.06757 -0.689443,0.250827 -1.964019,1.465801 0.660825,5.00689 1.816473,4.457864 1.010861,-0.480928 0.365946,-4.654626 -1.127327,-4.708722 z m 11.599971,3.380603 c -4.255586,-0.07319 -9.869946,2.086425 -10.827771,6.424746 -1.036318,4.693661 4.269375,11.206446 9.804182,11.206446 2.722747,0 5.863204,-2.488329 6.451264,-5.639711 0.448682,-2.40273 -5.280872,-1.439814 -5.075306,0.14991 0.247147,1.905892 -1.381898,2.848018 -2.977107,1.619605 -5.077745,-3.911278 8.407752,-5.863098 7.518237,-11.206446 -0.276846,-1.663412 -2.34089,-2.510499 -4.894136,-2.5542 z" />
    <circle
       r="11"
       cy="39.449528"
       cx="36.183846"
       id="path910-0"
       style="opacity:1;fill:#1b70da;fill-opacity:1;stroke:none;stroke-width:3.1427598;stroke-linecap:round;stroke-linejoin:round;stroke-miterlimit:4;stroke-dasharray:none;stroke-opacity:1" />
    <circle
       r="11"
       cy="38.663815"
       cx="36.183846"
       id="path910"
       style="opacity:1;fill:#62a0e9;fill-opacity:1;stroke:none;stroke-width:3.1427598;stroke-linecap:round;stroke-linejoin:round;stroke-miterlimit:4;stroke-dasharray:none;stroke-opacity:1" />
    <path
       id="path882-7"
       d="m 38.289155,30.020955 -4.210652,7.7e-5 -10e-7,0.785714 0.06881,0.897237 c -0.847111,0.278009 -1.628058,0.727123 -2.294392,1.319478 l -1.420827,-0.897169 -2.105393,3.646491 -10e-7,0.785714 1.493626,-6.18e-4 c -0.180734,0.871167 -0.180905,1.770142 -5.02e-4,2.641377 l -1.493046,0.784178 -1e-6,0.785714 2.10526,2.860702 1.421752,-0.898681 c 0.664625,0.593511 1.444059,1.044205 2.289998,1.32415 l -0.06526,1.679925 4.210649,-7.9e-5 -0.06881,-1.682949 c 0.847113,-0.278008 1.628063,-0.727122 2.294398,-1.319478 l 1.420827,0.897171 2.105391,-2.860781 10e-7,-0.785714 -1.493624,-0.785094 c 0.180733,-0.871167 0.180903,-1.770141 5e-4,-2.641376 l 1.493047,0.0015 4e-6,-0.785714 -2.105257,-3.646418 -1.421754,0.898681 c -0.664627,-0.593512 -1.444063,-1.044206 -2.290004,-1.32415 l 0.06526,-0.894209 z m -1.263189,4.714287 c 1.735751,0.465095 2.765822,2.249232 2.300729,3.984983 -0.465093,1.735752 -2.249231,2.765825 -3.984983,2.300732 -1.735753,-0.465094 -2.765825,-2.249232 -2.300731,-3.984985 0.02794,-0.104565 0.06108,-0.20767 0.09929,-0.308932 0.59132,-1.563503 2.271165,-2.424569 3.885754,-1.991784 z"
       style="fill:#1b70da;stroke:none;stroke-width:1.62686276px;stroke-linecap:butt;stroke-linejoin:miter;stroke-opacity:1;fill-opacity:1" />
    <path
       id="path882"
       d="m 38.289154,30.806669 -4.210652,7.7e-5 0.06881,1.682951 a 6.5074514,6.5074514 0 0 0 -2.294392,1.319478 l -1.420827,-0.897169 -2.105393,3.646491 1.493625,0.785096 a 6.5074514,6.5074514 0 0 0 -5.02e-4,2.641377 l -1.493046,0.784178 2.105259,3.646416 1.421752,-0.898681 a 6.5074514,6.5074514 0 0 0 2.289998,1.32415 l -0.06526,1.679925 4.21065,-7.9e-5 -0.06881,-1.682949 a 6.5074514,6.5074514 0 0 0 2.294397,-1.319478 l 1.420828,0.897171 2.105391,-3.646495 -1.493623,-0.785094 a 6.5074514,6.5074514 0 0 0 5e-4,-2.641376 l 1.493047,-0.784179 -2.105257,-3.646418 -1.421754,0.898681 a 6.5074514,6.5074514 0 0 0 -2.290003,-1.32415 z m -1.263189,4.714287 a 3.2537258,3.2537258 0 0 1 2.300729,3.984983 3.2537258,3.2537258 0 0 1 -3.984983,2.300732 3.2537258,3.2537258 0 0 1 -2.300731,-3.984985 3.2537258,3.2537258 0 0 1 0.09929,-0.308932 3.2537258,3.2537258 0 0 1 3.885755,-1.991784 z"
       style="fill:#ffffff;stroke:none;stroke-width:1.62686276px;stroke-linecap:butt;stroke-linejoin:miter;stroke-opacity:1" />
  </g>
</svg>
