<svg version="1" viewBox="0 0 32 32" xmlns="http://www.w3.org/2000/svg" width="32" height="32" xmlns:xlink="http://www.w3.org/1999/xlink">
 <defs>
  <linearGradient id="a">
   <stop stop-color="#e01b24" offset="0"/>
   <stop stop-color="#c01c28" offset="1"/>
  </linearGradient>
  <linearGradient id="b">
   <stop stop-color="#f66151" offset="0"/>
   <stop stop-color="#ed333b" offset="1"/>
  </linearGradient>
  <linearGradient id="n" x1="40.286" x2="47.429" y1="28" y2="19.429" gradientTransform="matrix(.7 0 0 .7 -6.2 -5.6)" gradientUnits="userSpaceOnUse" xlink:href="#b"/>
  <linearGradient id="o" x1="31.714" x2="31.714" y1="28" y2="19.429" gradientTransform="matrix(.7 0 0 .7 -6.2 -5.6)" gradientUnits="userSpaceOnUse" xlink:href="#b"/>
  <linearGradient id="p" x1="16" x2="16" y1="19.429" y2="28" gradientTransform="matrix(.7 0 0 .7 -6.2 -5.6)" gradientUnits="userSpaceOnUse" xlink:href="#b"/>
  <linearGradient id="q" x1="24.571" x2="16" y1="28" y2="19.429" gradientTransform="matrix(.7 0 0 .7 -6.2 -5.6)" gradientUnits="userSpaceOnUse" xlink:href="#b"/>
  <linearGradient id="r" x1="24.571" x2="31.714" y1="28" y2="48" gradientTransform="matrix(.7 0 0 .7 -6.2 -5.6)" gradientUnits="userSpaceOnUse" xlink:href="#b"/>
  <linearGradient id="s" x1="24.571" x2="16" y1="28" y2="19.429" gradientTransform="matrix(.7 0 0 .7 -6.2 -5.6)" gradientUnits="userSpaceOnUse" xlink:href="#a"/>
  <linearGradient id="t" x1="47.429" x2="47.429" y1="28" y2="20.189" gradientTransform="matrix(.7 0 0 .7 -6.2 -5.6)" gradientUnits="userSpaceOnUse" xlink:href="#a"/>
  <linearGradient id="u" x1="31.714" x2="47.429" y1="28" y2="19.429" gradientTransform="matrix(.7 0 0 .7 -6.2 -5.6)" gradientUnits="userSpaceOnUse" xlink:href="#a"/>
  <linearGradient id="v" x1="11.714" x2="31.714" y1="28" y2="48" gradientTransform="matrix(.7 0 0 .7 -6.2 -5.6)" gradientUnits="userSpaceOnUse" xlink:href="#a"/>
  <linearGradient id="w" x1="40.286" x2="31.714" y1="28" y2="48" gradientTransform="matrix(.7 0 0 .7 -6.2 -5.6)" gradientUnits="userSpaceOnUse" xlink:href="#a"/>
  <linearGradient id="x" x1="16" x2="31.714" y1="19.429" y2="28" gradientTransform="matrix(.7 0 0 .7 -6.2 -5.6)" gradientUnits="userSpaceOnUse" xlink:href="#a"/>
 </defs>
 <path d="m5 8.4 11.2 5.6 11.2-5.6z" fill="none"/>
 <path d="m2 14h9l5 14z" fill="url(#v)"/>
 <path d="m11 14h11l-6 14z" fill="url(#r)"/>
 <path d="m22 14h8.2l-14.2 14z" fill="url(#w)"/>
 <path d="m22 14 5-6-11 6z" fill="url(#u)"/>
 <path d="m27 14v-6l-5 6z" fill="url(#n)"/>
 <path d="m16 14v-6h11z" fill="url(#o)"/>
 <path d="m5 8 11 6v-6z" fill="url(#x)"/>
 <path d="m5 8v6h6z" fill="url(#s)"/>
 <path d="m2 14 3-6v6z" fill="url(#p)"/>
 <path d="m27 8 3 6h-3z" fill="url(#t)"/>
 <path d="m5 8 6 6h5z" fill="url(#q)"/>
 <rect x="16" y="16" width="16" height="16" ry="1" fill="#f6f5f4"/>
 <path d="m23 17-0.77734 2.332a5 5 0 0 0-0.26758 0.10938l-2.1973-1.0977-1.4141 1.4141 1.0996 2.1992a5 5 0 0 0-0.11523 0.26562l-2.3281 0.77734v2l2.332 0.77734a5 5 0 0 0 0.10938 0.26758l-1.0977 2.1973 1.4141 1.4141 2.1992-1.0996a5 5 0 0 0 0.26562 0.11523l0.77734 2.3281h2l0.77734-2.332a5 5 0 0 0 0.26758-0.10938l2.1973 1.0977 1.4141-1.4141-1.0996-2.1992a5 5 0 0 0 0.11523-0.26562l2.3281-0.77734v-2l-2.332-0.77734a5 5 0 0 0-0.10938-0.26758l1.0977-2.1973-1.4141-1.4141-2.1992 1.0996a5 5 0 0 0-0.26562-0.11523l-0.77734-2.3281h-2zm1 3a4 4 0 0 0-0.33789 0.017578 4 4 0 0 1 0.33789-0.017578zm0.33789 0.017578a4 4 0 0 1 0.21094 0.025391 4 4 0 0 0-0.21094-0.025391zm-0.88672 0.025391a4 4 0 0 0-0.18555 0.027343 4 4 0 0 1 0.18555-0.027343zm1.2832 0.027343a4 4 0 0 1 0.22266 0.050782 4 4 0 0 0-0.22266-0.050782zm-1.6914 0.050782a4 4 0 0 0-0.1543 0.039062 4 4 0 0 1 0.1543-0.039062zm2.0684 0.039062a4 4 0 0 1 0.21484 0.070313 4 4 0 0 0-0.21484-0.070313zm-2.4375 0.070313a4 4 0 0 0-0.17969 0.066406 4 4 0 0 1 0.17969-0.066406zm2.832 0.066406a4 4 0 0 1 0.17383 0.078125 4 4 0 0 0-0.17383-0.078125zm-3.1855 0.078125a4 4 0 0 0-0.18555 0.089844 4 4 0 0 1 0.18555-0.089844zm3.5449 0.089844a4 4 0 0 1 0.16406 0.09375 4 4 0 0 0-0.16406-0.09375zm-3.8945 0.09375a4 4 0 0 0-0.1875 0.11523 4 4 0 0 1 0.1875-0.11523zm4.2461 0.11523a4 4 0 0 1 0.13476 0.097656 4 4 0 0 0-0.13476-0.097656zm-4.5684 0.097656a4 4 0 0 0-0.18555 0.14062 4 4 0 0 1 0.18555-0.14062zm4.8887 0.14062a4 4 0 0 1 0.12891 0.11328 4 4 0 0 0-0.12891-0.11328zm-2.5371 0.087891a3 3 0 0 1 3 3 3 3 0 0 1-3 3 3 3 0 0 1-3-3 3 3 0 0 1 3-3zm-2.666 0.025391a4 4 0 0 0-0.16016 0.14844 4 4 0 0 1 0.039063-0.042969 4 4 0 0 1 0.12109-0.10547zm5.4922 0.14844a4 4 0 0 1 0.042969 0.039063 4 4 0 0 1 0.10547 0.12109 4 4 0 0 0-0.14844-0.16016zm-5.8008 0.16016a4 4 0 0 0-0.11328 0.12891 4 4 0 0 1 0.11328-0.12891zm6.0625 0.12891a4 4 0 0 1 0.14062 0.18555 4 4 0 0 0-0.14062-0.18555zm-6.3164 0.18555a4 4 0 0 0-0.097656 0.13476 4 4 0 0 1 0.097656-0.13476zm6.5547 0.13476a4 4 0 0 1 0.11523 0.1875 4 4 0 0 0-0.11523-0.1875zm-6.7676 0.1875a4 4 0 0 0-0.09375 0.16406 4 4 0 0 1 0.09375-0.16406zm6.9766 0.16406a4 4 0 0 1 0.089844 0.18555 4 4 0 0 0-0.089844-0.18555zm-7.1602 0.18555a4 4 0 0 0-0.078125 0.17383 4 4 0 0 1 0.078125-0.17383zm7.3281 0.17383a4 4 0 0 1 0.066406 0.17969 4 4 0 0 0-0.066406-0.17969zm-7.4727 0.17969a4 4 0 0 0-0.070313 0.21484 4 4 0 0 1 0.070313-0.21484zm7.6094 0.21484a4 4 0 0 1 0.039062 0.1543 4 4 0 0 0-0.039062-0.1543zm-7.7188 0.1543a4 4 0 0 0-0.050782 0.22266 4 4 0 0 1 0.050782-0.22266zm7.8086 0.22266a4 4 0 0 1 0.027343 0.18555 4 4 0 0 0-0.027343-0.18555zm-7.8867 0.18555a4 4 0 0 0-0.025391 0.21094 4 4 0 0 1 0.025391-0.21094zm7.9395 0.21094a4 4 0 0 1 0.017578 0.33789 4 4 0 0 0-0.017578-0.33789zm-7.9824 0.33789a4 4 0 0 0 0.017578 0.33789 4 4 0 0 1-0.017578-0.33789zm7.9824 0.33789a4 4 0 0 1-0.025391 0.21094 4 4 0 0 0 0.025391-0.21094zm-7.9395 0.21094a4 4 0 0 0 0.027343 0.18555 4 4 0 0 1-0.027343-0.18555zm7.8867 0.18555a4 4 0 0 1-0.050782 0.22266 4 4 0 0 0 0.050782-0.22266zm-7.8086 0.22266a4 4 0 0 0 0.039062 0.1543 4 4 0 0 1-0.039062-0.1543zm7.7188 0.1543a4 4 0 0 1-0.070313 0.21484 4 4 0 0 0 0.070313-0.21484zm-7.6094 0.21484a4 4 0 0 0 0.066406 0.17969 4 4 0 0 1-0.066406-0.17969zm7.4727 0.17969a4 4 0 0 1-0.078125 0.17383 4 4 0 0 0 0.078125-0.17383zm-7.3281 0.17383a4 4 0 0 0 0.089844 0.18555 4 4 0 0 1-0.089844-0.18555zm7.1602 0.18555a4 4 0 0 1-0.09375 0.16406 4 4 0 0 0 0.09375-0.16406zm-6.9766 0.16406a4 4 0 0 0 0.11523 0.1875 4 4 0 0 1-0.11523-0.1875zm6.7676 0.1875a4 4 0 0 1-0.097656 0.13476 4 4 0 0 0 0.097656-0.13476zm-6.5547 0.13476a4 4 0 0 0 0.14062 0.18555 4 4 0 0 1-0.14062-0.18555zm6.3164 0.18555a4 4 0 0 1-0.11328 0.12891 4 4 0 0 0 0.11328-0.12891zm-6.0625 0.12891a4 4 0 0 0 0.14844 0.16016 4 4 0 0 1-0.042969-0.039063 4 4 0 0 1-0.10547-0.12109zm5.8008 0.16016a4 4 0 0 1-0.039063 0.042969 4 4 0 0 1-0.12109 0.10547 4 4 0 0 0 0.16016-0.14844zm-5.4922 0.14844a4 4 0 0 0 0.12891 0.11328 4 4 0 0 1-0.12891-0.11328zm5.2031 0.11328a4 4 0 0 1-0.18555 0.14062 4 4 0 0 0 0.18555-0.14062zm-4.8887 0.14062a4 4 0 0 0 0.13476 0.097656 4 4 0 0 1-0.13476-0.097656zm4.5684 0.097656a4 4 0 0 1-0.1875 0.11523 4 4 0 0 0 0.1875-0.11523zm-4.2461 0.11523a4 4 0 0 0 0.16406 0.09375 4 4 0 0 1-0.16406-0.09375zm3.8945 0.09375a4 4 0 0 1-0.18555 0.089844 4 4 0 0 0 0.18555-0.089844zm-3.5449 0.089844a4 4 0 0 0 0.17383 0.078125 4 4 0 0 1-0.17383-0.078125zm3.1855 0.078125a4 4 0 0 1-0.17969 0.066406 4 4 0 0 0 0.17969-0.066406zm-2.832 0.066406a4 4 0 0 0 0.21484 0.070313 4 4 0 0 1-0.21484-0.070313zm2.4375 0.070313a4 4 0 0 1-0.1543 0.039062 4 4 0 0 0 0.1543-0.039062zm-2.0684 0.039062a4 4 0 0 0 0.22266 0.050782 4 4 0 0 1-0.22266-0.050782zm1.6914 0.050782a4 4 0 0 1-0.18555 0.027343 4 4 0 0 0 0.18555-0.027343zm-1.2832 0.027343a4 4 0 0 0 0.21094 0.025391 4 4 0 0 1-0.21094-0.025391zm0.88672 0.025391a4 4 0 0 1-0.33789 0.017578 4 4 0 0 0 0.33789-0.017578z" fill="#3d3846"/>
</svg>
