<svg version="1.1" viewBox="0 0 32 32" width="32" height="32" xmlns="http://www.w3.org/2000/svg">
 <path d="M12.627 10.452c.36-1.426.013-2.942.063-4.412.11-3.21 1.892-3.938 3.719-4.033 2.096-.11 4.577 1.132 4.727 4.16.071 1.449-.185 2.946.189 4.348.871 3.27 4.61 5.631 4.664 9.013.05 3.214-1.43 7.002-4.16 8.698-1.41.876-3.323-.175-4.98-.063-1.843.126-3.893 1.763-5.483.82C8.48 27.27 7.684 22.878 7.9 19.528c.22-3.404 3.892-5.768 4.727-9.076z" fill="#241f31"/>
 <ellipse cx="17.76" cy="7.782" rx="1.482" ry="1.916" fill="#f6f5f4" fill-opacity=".941"/>
 <ellipse cx="14.25" cy="7.849" rx="1.047" ry="1.56" fill="#f6f5f4" fill-opacity=".941"/>
 <ellipse cx="17.576" cy="8.094" rx=".607" ry="1.003" fill="#241f31"/>
 <ellipse cx="14.255" cy="8.094" rx=".462" ry=".747" fill="#241f31"/>
 <path d="M17.564 9.757a5.068 5.068 0 0 0-.545.004c-1.23.072-2.548.555-3.214 1.14-1.066.937-.434 1.848-.893 3.164s-1.614 3.038-1.96 4.68c-.14.663-.318 1.326-.44 1.992l3.293 4.024c.647.79-1.041.497-2.611-.52 1.114 1.567 3.324 3.12 5.506 2.973 2.324-.156 5.068-2.586 5.946-4.573-.852-.144-1.68-1.426-.998-2.381.237-.331.746-.36 1.183-.29-.263-1.018-.787-1.93-1.05-2.696-.456-1.336-.986-1.71-1.47-2.896-.485-1.186.027-3.38-1.338-4.234-.384-.24-.875-.36-1.409-.387z" fill="#f6f5f4"/>
 <g fill="#f5c211">
  <path d="M7.333 22.365c.487-.39.715-1.183 1.323-1.324.476-.11 1.01.163 1.387.473.861.708.992 2.014 1.67 2.9.452.589 1.218.924 1.576 1.575.373.68.854 1.578.504 2.269-.472.931-1.824 1.22-2.868 1.26-.634.025-1.185-.46-1.796-.63-.89-.248-1.917-.095-2.71-.567-.628-.373-1.372-.941-1.418-1.67-.019-.288.402-.445.472-.725.186-.736-.527-1.59-.189-2.27.36-.722 1.418-.787 2.049-1.291z"/>
  <path d="M21.43 21.269c-.201.18-.371.407-.495.632-.538.977-.175 2.24-.477 3.313-.202.715-.789 1.31-.88 2.046-.095.77-.21 1.782.371 2.295.784.69 2.147.457 3.131.108.599-.212.93-.866 1.435-1.25.734-.56 1.745-.8 2.307-1.531.445-.58.927-1.382.7-2.076-.09-.274-.538-.265-.707-.499-.445-.615-.1-1.67-.665-2.176-.42-.375-1.037-.332-1.633-.348-.288.617-1.226 1.037-1.871.858-.546-.152-1.09-.773-1.216-1.372z"/>
  <path d="M15.731 8.152c.659-.035 1.265.392 1.86.677.575.277 1.557.36 1.638.993.093.719-.92 1.143-1.512 1.56-.529.373-1.119.81-1.765.804-.653-.007-1.231-.475-1.765-.851-.44-.31-1.133-.596-1.15-1.135-.019-.576.69-.943 1.15-1.292.456-.346.972-.726 1.544-.756z"/>
 </g>
 <rect x="16" y="16" width="16" height="16" ry="1" fill="#f6f5f4"/>
 <path d="m23 17-0.77734 2.332a5 5 0 0 0-0.26758 0.10938l-2.1973-1.0977-1.4141 1.4141 1.0996 2.1992a5 5 0 0 0-0.11523 0.26562l-2.3281 0.77734v2l2.332 0.77734a5 5 0 0 0 0.10938 0.26758l-1.0977 2.1973 1.4141 1.4141 2.1992-1.0996a5 5 0 0 0 0.26562 0.11523l0.77734 2.3281h2l0.77734-2.332a5 5 0 0 0 0.26758-0.10938l2.1973 1.0977 1.4141-1.4141-1.0996-2.1992a5 5 0 0 0 0.11523-0.26562l2.3281-0.77734v-2l-2.332-0.77734a5 5 0 0 0-0.10938-0.26758l1.0977-2.1973-1.4141-1.4141-2.1992 1.0996a5 5 0 0 0-0.26562-0.11523l-0.77734-2.3281zm1 3a4 4 0 0 0-0.33789 0.01758 4 4 0 0 1 0.33789-0.01758zm0.33789 0.01758a4 4 0 0 1 0.21094 0.02539 4 4 0 0 0-0.21094-0.02539zm-0.88672 0.02539a4 4 0 0 0-0.18555 0.02734 4 4 0 0 1 0.18555-0.02734zm1.2832 0.02734a4 4 0 0 1 0.22266 0.05078 4 4 0 0 0-0.22266-0.05078zm-1.6914 0.05078a4 4 0 0 0-0.1543 0.03906 4 4 0 0 1 0.1543-0.03906zm2.0684 0.03906a4 4 0 0 1 0.21484 0.07031 4 4 0 0 0-0.21484-0.07031zm-2.4375 0.07031a4 4 0 0 0-0.17969 0.06641 4 4 0 0 1 0.17969-0.06641zm2.832 0.06641a4 4 0 0 1 0.17383 0.07813 4 4 0 0 0-0.17383-0.07813zm-3.1855 0.07813a4 4 0 0 0-0.18555 0.08984 4 4 0 0 1 0.18555-0.08984zm3.5449 0.08984a4 4 0 0 1 0.16406 0.09375 4 4 0 0 0-0.16406-0.09375zm-3.8945 0.09375a4 4 0 0 0-0.1875 0.11523 4 4 0 0 1 0.1875-0.11523zm4.2461 0.11523a4 4 0 0 1 0.13476 0.09766 4 4 0 0 0-0.13476-0.09766zm-4.5684 0.09766a4 4 0 0 0-0.18555 0.14062 4 4 0 0 1 0.18555-0.14062zm4.8887 0.14062a4 4 0 0 1 0.12891 0.11328 4 4 0 0 0-0.12891-0.11328zm-2.5371 0.08789a3 3 0 0 1 3 3 3 3 0 0 1-3 3 3 3 0 0 1-3-3 3 3 0 0 1 3-3zm-2.666 0.02539a4 4 0 0 0-0.16016 0.14844 4 4 0 0 1 0.03906-0.04297 4 4 0 0 1 0.12109-0.10547zm5.4922 0.14844a4 4 0 0 1 0.04297 0.03906 4 4 0 0 1 0.10547 0.12109 4 4 0 0 0-0.14844-0.16016zm-5.8008 0.16016a4 4 0 0 0-0.11328 0.12891 4 4 0 0 1 0.11328-0.12891zm6.0625 0.12891a4 4 0 0 1 0.14062 0.18555 4 4 0 0 0-0.14062-0.18555zm-6.3164 0.18555a4 4 0 0 0-0.09766 0.13476 4 4 0 0 1 0.09766-0.13476zm6.5547 0.13476a4 4 0 0 1 0.11523 0.1875 4 4 0 0 0-0.11523-0.1875zm-6.7676 0.1875a4 4 0 0 0-0.09375 0.16406 4 4 0 0 1 0.09375-0.16406zm6.9766 0.16406a4 4 0 0 1 0.08984 0.18555 4 4 0 0 0-0.08984-0.18555zm-7.1602 0.18555a4 4 0 0 0-0.07813 0.17383 4 4 0 0 1 0.07813-0.17383zm7.3281 0.17383a4 4 0 0 1 0.06641 0.17969 4 4 0 0 0-0.06641-0.17969zm-7.4727 0.17969a4 4 0 0 0-0.07031 0.21484 4 4 0 0 1 0.07031-0.21484zm7.6094 0.21484a4 4 0 0 1 0.03906 0.1543 4 4 0 0 0-0.03906-0.1543zm-7.7188 0.1543a4 4 0 0 0-0.05078 0.22266 4 4 0 0 1 0.05078-0.22266zm7.8086 0.22266a4 4 0 0 1 0.02734 0.18555 4 4 0 0 0-0.02734-0.18555zm-7.8867 0.18555a4 4 0 0 0-0.02539 0.21094 4 4 0 0 1 0.02539-0.21094zm7.9395 0.21094a4 4 0 0 1 0.01758 0.33789 4 4 0 0 0-0.01758-0.33789zm-7.9824 0.33789a4 4 0 0 0 0.01758 0.33789 4 4 0 0 1-0.01758-0.33789zm7.9824 0.33789a4 4 0 0 1-0.02539 0.21094 4 4 0 0 0 0.02539-0.21094zm-7.9395 0.21094a4 4 0 0 0 0.02734 0.18555 4 4 0 0 1-0.02734-0.18555zm7.8867 0.18555a4 4 0 0 1-0.05078 0.22266 4 4 0 0 0 0.05078-0.22266zm-7.8086 0.22266a4 4 0 0 0 0.03906 0.1543 4 4 0 0 1-0.03906-0.1543zm7.7188 0.1543a4 4 0 0 1-0.07031 0.21484 4 4 0 0 0 0.07031-0.21484zm-7.6094 0.21484a4 4 0 0 0 0.06641 0.17969 4 4 0 0 1-0.06641-0.17969zm7.4727 0.17969a4 4 0 0 1-0.07813 0.17383 4 4 0 0 0 0.07813-0.17383zm-7.3281 0.17383a4 4 0 0 0 0.08984 0.18555 4 4 0 0 1-0.08984-0.18555zm7.1602 0.18555a4 4 0 0 1-0.09375 0.16406 4 4 0 0 0 0.09375-0.16406zm-6.9766 0.16406a4 4 0 0 0 0.11523 0.1875 4 4 0 0 1-0.11523-0.1875zm6.7676 0.1875a4 4 0 0 1-0.09766 0.13476 4 4 0 0 0 0.09766-0.13476zm-6.5547 0.13476a4 4 0 0 0 0.14062 0.18555 4 4 0 0 1-0.14062-0.18555zm6.3164 0.18555a4 4 0 0 1-0.11328 0.12891 4 4 0 0 0 0.11328-0.12891zm-6.0625 0.12891a4 4 0 0 0 0.14844 0.16016 4 4 0 0 1-0.04297-0.03906 4 4 0 0 1-0.10547-0.12109zm5.8008 0.16016a4 4 0 0 1-0.03906 0.04297 4 4 0 0 1-0.12109 0.10547 4 4 0 0 0 0.16016-0.14844zm-5.4922 0.14844a4 4 0 0 0 0.12891 0.11328 4 4 0 0 1-0.12891-0.11328zm5.2031 0.11328a4 4 0 0 1-0.18555 0.14062 4 4 0 0 0 0.18555-0.14062zm-4.8887 0.14062a4 4 0 0 0 0.13476 0.09766 4 4 0 0 1-0.13476-0.09766zm4.5684 0.09766a4 4 0 0 1-0.1875 0.11523 4 4 0 0 0 0.1875-0.11523zm-4.2461 0.11523a4 4 0 0 0 0.16406 0.09375 4 4 0 0 1-0.16406-0.09375zm3.8945 0.09375a4 4 0 0 1-0.18555 0.08984 4 4 0 0 0 0.18555-0.08984zm-3.5449 0.08984a4 4 0 0 0 0.17383 0.07813 4 4 0 0 1-0.17383-0.07813zm3.1855 0.07813a4 4 0 0 1-0.17969 0.06641 4 4 0 0 0 0.17969-0.06641zm-2.832 0.06641a4 4 0 0 0 0.21484 0.07031 4 4 0 0 1-0.21484-0.07031zm2.4375 0.07031a4 4 0 0 1-0.1543 0.03906 4 4 0 0 0 0.1543-0.03906zm-2.0684 0.03906a4 4 0 0 0 0.22266 0.05078 4 4 0 0 1-0.22266-0.05078zm1.6914 0.05078a4 4 0 0 1-0.18555 0.02734 4 4 0 0 0 0.18555-0.02734zm-1.2832 0.02734a4 4 0 0 0 0.21094 0.02539 4 4 0 0 1-0.21094-0.02539zm0.88672 0.02539a4 4 0 0 1-0.33789 0.01758 4 4 0 0 0 0.33789-0.01758z" fill="#3d3846"/>
</svg>
