<svg version="1.1" viewBox="0 0 32 32" width="32" height="32" xmlns="http://www.w3.org/2000/svg">
 <path d="m5 6c-1.108 0-2 0.892-2 2v18c0 1.108 0.892 2 2 2h22c1.108 0 2-0.892 2-2v-18c0-1.108-0.892-2-2-2zm0 2h22v18h-22z" fill="#c0bfbc"/>
 <path d="m5 5c-1.108 0-2 0.892-2 2v18c0 1.108 0.892 2 2 2h22c1.108 0 2-0.892 2-2v-18c0-1.108-0.892-2-2-2zm0 2h22v18h-22z" fill="#deddda"/>
 <rect x="5" y="8" width="22" height="17" fill="#241f31"/>
 <path d="m17.094 12.84v2.5059l3.2266 1.6016-3.2266 1.4922v2.3066l5.8125-2.9199v-1.8926l-5.8125-3.0938zm-6.2676 2.4141c-1.0933 0-2.0525 0.95873-2.5059 2.332l1.2402 0.56055c0.22666-0.45332 0.58668-0.73242 1-0.73242 0.79998 0 1.3201 0.87891 2.3867 0.87891 1.0933 0 2.2388-0.94574 2.7188-2.3457l-1.3457-0.57422c-0.23999 0.47999-0.65282 0.75977-1.1328 0.75976-0.91998 0-1.2947-0.87891-2.3613-0.87891z" fill="#fff"/>
</svg>
