<?xml version="1.0" encoding="UTF-8"?>
<svg version="1" viewBox="0 0 32 32" xmlns="http://www.w3.org/2000/svg" xmlns:cc="http://creativecommons.org/ns#" xmlns:dc="http://purl.org/dc/elements/1.1/" xmlns:rdf="http://www.w3.org/1999/02/22-rdf-syntax-ns#">
<metadata>
<rdf:RDF>
<cc:Work rdf:about="">
<dc:format>image/svg+xml</dc:format>
<dc:type rdf:resource="http://purl.org/dc/dcmitype/StillImage"/>
<dc:title/>
</cc:Work>
</rdf:RDF>
</metadata>
<rect x="3" y="4" width="26" height="26" ry="0" fill="#b5835a"/>
<rect x="3" y="3" width="26" height="26" ry="0" fill="#cdab8f"/>
<rect x="3" y="3" width="12" height="4" ry="0" fill="#a51d2d"/>
<rect x="17" y="3" width="12" height="4" ry="0" fill="#a51d2d"/>
<rect x="10" y="9.5" width="12" height="4.5" ry="0" fill="#a51d2d"/>
<rect x="24" y="9" width="5" height="5" ry="0" fill="#a51d2d"/>
<rect x="3" y="9" width="5" height="5" ry="0" fill="#a51d2d"/>
<rect x="3" y="2" width="12" height="4" ry="0" fill="#e01b24"/>
<rect x="17" y="2" width="12" height="4" ry="0" fill="#e01b24"/>
<rect x="10" y="9" width="12" height="4" ry="0" fill="#e01b24"/>
<rect x="24" y="9" width="5" height="4" ry="0" fill="#e01b24"/>
<rect x="3" y="9" width="5" height="4" ry="0" fill="#e01b24"/>
<rect x="3" y="17" width="12" height="4" ry="0" fill="#a51d2d"/>
<rect x="17" y="17" width="12" height="4" ry="0" fill="#a51d2d"/>
<rect x="10" y="23.5" width="12" height="4.5" ry="0" fill="#a51d2d"/>
<rect x="24" y="24" width="5" height="4" ry="0" fill="#a51d2d"/>
<rect x="3" y="24" width="5" height="4" ry="0" fill="#a51d2d"/>
<rect x="3" y="16" width="12" height="4" ry="0" fill="#e01b24"/>
<rect x="17" y="16" width="12" height="4" ry="0" fill="#e01b24"/>
<rect x="10" y="23" width="12" height="4" ry="0" fill="#e01b24"/>
<rect x="24" y="23" width="5" height="4" ry="0" fill="#e01b24"/>
<rect x="3" y="23" width="5" height="4" ry="0" fill="#e01b24"/>
</svg>
