<?xml version="1.0" encoding="UTF-8" standalone="no"?>
<svg
   xmlns:dc="http://purl.org/dc/elements/1.1/"
   xmlns:cc="http://creativecommons.org/ns#"
   xmlns:rdf="http://www.w3.org/1999/02/22-rdf-syntax-ns#"
   xmlns:svg="http://www.w3.org/2000/svg"
   xmlns="http://www.w3.org/2000/svg"
   id="svg14"
   version="1"
   height="64"
   width="64">
  <metadata
     id="metadata20">
    <rdf:RDF>
      <cc:Work
         rdf:about="">
        <dc:format>image/svg+xml</dc:format>
        <dc:type
           rdf:resource="http://purl.org/dc/dcmitype/StillImage" />
        <dc:title></dc:title>
      </cc:Work>
    </rdf:RDF>
  </metadata>
  <defs
     id="defs18" />
  <g
     id="g12"
     transform="matrix(1.2727273,0,0,1.2727273,1.9478346,-1.2084915)">
    <rect
       style="opacity:1;fill:#b3b3b3;fill-opacity:1;stroke:none;stroke-width:2.96962881;stroke-linecap:round;stroke-linejoin:round;stroke-miterlimit:4;stroke-dasharray:none;stroke-opacity:1"
       id="rect858-3"
       width="40.857143"
       height="37.714287"
       x="3.1838441"
       y="8.8066721"
       ry="1.5714285" />
    <rect
       style="opacity:1;fill:#e6e6e6;fill-opacity:1;stroke:none;stroke-width:2.96962881;stroke-linecap:round;stroke-linejoin:round;stroke-miterlimit:4;stroke-dasharray:none;stroke-opacity:1"
       id="rect858"
       width="40.857143"
       height="37.714287"
       x="3.1838443"
       y="5.6638145"
       ry="1.5714285" />
    <path
       style="fill:#b3b3b3;fill-opacity:1;stroke:none;stroke-width:0.78571427px;stroke-linecap:butt;stroke-linejoin:miter;stroke-opacity:1"
       d="m 23.612415,6.449529 a 8.642857,3.1428571 0 0 0 -8.642857,3.1428567 v 4.7142863 h 8.642857 V 15.8781 H 10.255272 a 3.9285715,8.2499998 0 0 0 -3.9285707,8.25 3.9285715,8.2499998 0 0 0 3.9285707,8.25 h 3.928572 v -3.928571 a 5.5,5.5 0 0 1 5.5,-5.5 h 8.642857 c 2.16969,0 3.928571,-1.758881 3.928571,-3.928572 V 9.5923857 A 8.642857,3.1428571 0 0 0 23.612415,6.449529 Z M 18.89813,8.8066718 a 1.5714285,1.5714285 0 0 1 1.571428,1.5714292 1.5714285,1.5714285 0 0 1 -1.571428,1.571428 1.5714285,1.5714285 0 0 1 -1.571429,-1.571428 1.5714285,1.5714285 0 0 1 1.571429,-1.5714292 z"
       id="path886-3" />
    <path
       style="fill:#3771c8;stroke:none;stroke-width:1px;stroke-linecap:butt;stroke-linejoin:miter;stroke-opacity:1"
       d="M 32 8 A 11 4 0 0 0 21 12 L 21 18 L 32 18 L 32 20 L 15 20 A 5.0000002 10.5 0 0 0 10 30.5 A 5.0000002 10.5 0 0 0 15 41 L 20 41 L 20 36 A 7.0000001 7.0000001 0 0 1 27 29 L 38 29 C 40.761424 29 43 26.761424 43 24 L 43 12 A 11 4 0 0 0 32 8 z M 26 11 A 2 2 0 0 1 28 13 A 2 2 0 0 1 26 15 A 2 2 0 0 1 24 13 A 2 2 0 0 1 26 11 z "
       transform="matrix(0.78571427,0,0,0.78571427,-1.5304414,0.94952902)"
       id="path886" />
    <path
       style="fill:#b3b3b3;fill-opacity:1;stroke:none;stroke-width:0.78571427px;stroke-linecap:butt;stroke-linejoin:miter;stroke-opacity:1"
       d="m 24.398129,41.020957 a 8.642857,3.1428571 0 0 0 8.642858,-3.142858 v -4.714285 h -8.642858 v -1.571428 h 13.357143 a 3.9285715,8.2499998 0 0 0 3.928572,-8.25 3.9285715,8.2499998 0 0 0 -3.928572,-8.25 h -3.928571 v 3.928571 a 5.5,5.5 0 0 1 -5.5,5.5 h -8.642857 c -2.16969,0 -3.928572,1.758881 -3.928572,3.928572 v 9.42857 a 8.642857,3.1428571 0 0 0 8.642857,3.142858 z m 4.714286,-2.357143 a 1.5714285,1.5714285 0 0 1 -1.571429,-1.571429 1.5714285,1.5714285 0 0 1 1.571429,-1.571428 1.5714285,1.5714285 0 0 1 1.57143,1.571428 1.5714285,1.5714285 0 0 1 -1.57143,1.571429 z"
       id="path886-6-6" />
    <circle
       r="11"
       cy="39.449528"
       cx="36.183846"
       id="path910-0"
       style="opacity:1;fill:#1b70da;fill-opacity:1;stroke:none;stroke-width:3.1427598;stroke-linecap:round;stroke-linejoin:round;stroke-miterlimit:4;stroke-dasharray:none;stroke-opacity:1" />
    <path
       style="fill:#ffcc00;stroke:none;stroke-width:0.78571427px;stroke-linecap:butt;stroke-linejoin:miter;stroke-opacity:1"
       d="m 24.398129,41.806671 a 8.642857,3.1428571 0 0 0 8.642857,-3.142858 V 33.949528 H 24.398129 V 32.3781 h 13.357143 a 3.9285715,8.2499998 0 0 0 3.928571,-8.25 3.9285715,8.2499998 0 0 0 -3.928571,-8.25 h -3.928571 v 3.928571 a 5.5,5.5 0 0 1 -5.5,5.5 h -8.642857 c -2.16969,0 -3.928572,1.758881 -3.928572,3.928572 v 9.42857 a 8.642857,3.1428571 0 0 0 8.642857,3.142858 z m 4.714286,-2.357143 a 1.5714285,1.5714285 0 0 1 -1.571429,-1.571429 1.5714285,1.5714285 0 0 1 1.571429,-1.571428 1.5714285,1.5714285 0 0 1 1.571429,1.571428 1.5714285,1.5714285 0 0 1 -1.571429,1.571429 z"
       id="path886-6" />
    <circle
       r="11"
       cy="38.663815"
       cx="36.183846"
       id="path910"
       style="opacity:1;fill:#62a0e9;fill-opacity:1;stroke:none;stroke-width:3.1427598;stroke-linecap:round;stroke-linejoin:round;stroke-miterlimit:4;stroke-dasharray:none;stroke-opacity:1" />
    <path
       id="path882-7"
       d="m 38.289155,30.020955 -4.210652,7.7e-5 -10e-7,0.785714 0.06881,0.897237 c -0.847111,0.278009 -1.628058,0.727123 -2.294392,1.319478 l -1.420827,-0.897169 -2.105393,3.646491 -10e-7,0.785714 1.493626,-6.18e-4 c -0.180734,0.871167 -0.180905,1.770142 -5.02e-4,2.641377 l -1.493046,0.784178 -1e-6,0.785714 2.10526,2.860702 1.421752,-0.898681 c 0.664625,0.593511 1.444059,1.044205 2.289998,1.32415 l -0.06526,1.679925 4.210649,-7.9e-5 -0.06881,-1.682949 c 0.847113,-0.278008 1.628063,-0.727122 2.294398,-1.319478 l 1.420827,0.897171 2.105391,-2.860781 10e-7,-0.785714 -1.493624,-0.785094 c 0.180733,-0.871167 0.180903,-1.770141 5e-4,-2.641376 l 1.493047,0.0015 4e-6,-0.785714 -2.105257,-3.646418 -1.421754,0.898681 c -0.664627,-0.593512 -1.444063,-1.044206 -2.290004,-1.32415 l 0.06526,-0.894209 z m -1.263189,4.714287 c 1.735751,0.465095 2.765822,2.249232 2.300729,3.984983 -0.465093,1.735752 -2.249231,2.765825 -3.984983,2.300732 -1.735753,-0.465094 -2.765825,-2.249232 -2.300731,-3.984985 0.02794,-0.104565 0.06108,-0.20767 0.09929,-0.308932 0.59132,-1.563503 2.271165,-2.424569 3.885754,-1.991784 z"
       style="fill:#1b70da;stroke:none;stroke-width:1.62686276px;stroke-linecap:butt;stroke-linejoin:miter;stroke-opacity:1;fill-opacity:1" />
    <path
       id="path882"
       d="m 38.289154,30.806669 -4.210652,7.7e-5 0.06881,1.682951 a 6.5074514,6.5074514 0 0 0 -2.294392,1.319478 l -1.420827,-0.897169 -2.105393,3.646491 1.493625,0.785096 a 6.5074514,6.5074514 0 0 0 -5.02e-4,2.641377 l -1.493046,0.784178 2.105259,3.646416 1.421752,-0.898681 a 6.5074514,6.5074514 0 0 0 2.289998,1.32415 l -0.06526,1.679925 4.21065,-7.9e-5 -0.06881,-1.682949 a 6.5074514,6.5074514 0 0 0 2.294397,-1.319478 l 1.420828,0.897171 2.105391,-3.646495 -1.493623,-0.785094 a 6.5074514,6.5074514 0 0 0 5e-4,-2.641376 l 1.493047,-0.784179 -2.105257,-3.646418 -1.421754,0.898681 a 6.5074514,6.5074514 0 0 0 -2.290003,-1.32415 z m -1.263189,4.714287 a 3.2537258,3.2537258 0 0 1 2.300729,3.984983 3.2537258,3.2537258 0 0 1 -3.984983,2.300732 3.2537258,3.2537258 0 0 1 -2.300731,-3.984985 3.2537258,3.2537258 0 0 1 0.09929,-0.308932 3.2537258,3.2537258 0 0 1 3.885755,-1.991784 z"
       style="fill:#ffffff;stroke:none;stroke-width:1.62686276px;stroke-linecap:butt;stroke-linejoin:miter;stroke-opacity:1" />
  </g>
</svg>
