<svg version="1.1" viewBox="0 0 32 32" width="32" height="32" xmlns="http://www.w3.org/2000/svg" xmlns:xlink="http://www.w3.org/1999/xlink">
 <defs>
  <linearGradient id="f" x1="15" x2="15" y1="29" y2="26" gradientUnits="userSpaceOnUse">
   <stop stop-color="#c0bfbc" offset="0"/>
   <stop stop-color="#9a9996" offset="1"/>
  </linearGradient>
  <linearGradient id="e" x1="26" x2="28" y1="14.5" y2="14.5" gradientUnits="userSpaceOnUse">
   <stop stop-color="#c0bfbc" offset="0"/>
   <stop stop-color="#f6f5f4" offset="1"/>
  </linearGradient>
  <linearGradient id="d" x1="28" x2="28" y1="9" y2="12" gradientUnits="userSpaceOnUse">
   <stop stop-color="#c0bfbc" offset="0"/>
   <stop stop-color="#f6f5f4" offset="1"/>
  </linearGradient>
  <linearGradient id="c" x1="4" x2="4" y1="9" y2="12" gradientUnits="userSpaceOnUse">
   <stop stop-color="#3d3846" offset="0"/>
   <stop offset="1"/>
  </linearGradient>
  <linearGradient id="b" x1="9" x2="23" y1="16.5" y2="16.5" gradientUnits="userSpaceOnUse">
   <stop stop-color="#241f31" offset="0"/>
   <stop stop-color="#3d3846" offset="1"/>
  </linearGradient>
  <linearGradient id="a" x1="2" x2="30" y1="21.5" y2="21.5" gradientUnits="userSpaceOnUse">
   <stop stop-color="#c0bfbc" offset="0"/>
   <stop stop-color="#f6f5f4" offset="1"/>
  </linearGradient>
 </defs>
 <path d="m6 2v7h19v-7h-19z" fill="#5e5c64"/>
 <rect x="25" y="15" width="3" height="1" fill="#9a9996" fill-opacity=".94737"/>
 <g>
  <rect x="4" y="9" width="23" height="3" rx="1" ry="1.5" fill="url(#c)"/>
  <path d="m7 14a1.0001 1.0001 0 0 0-0.91406 0.59375l-4 9a1.0001 1.0001 0 0 0-0.085938 0.40625v4a1.0001 1.0001 0 0 0 1 1h26a1.0001 1.0001 0 0 0 1-1v-4a1.0001 1.0001 0 0 0-0.08594-0.40625l-4-9a1.0001 1.0001 0 0 0-0.91406-0.59375z" fill="url(#a)"/>
  <rect x="2" y="26" width="28" height="3" ry="1" fill="url(#f)"/>
  <rect x="28" y="9" width="1" height="3" ry=".5" fill="url(#d)"/>
 </g>
 <rect x="26" y="10" width="2" height="1" fill="#241f31" fill-opacity=".94737"/>
 <rect x="26" y="14" width="2" height="1" ry=".5" fill="url(#e)"/>
 <g fill-opacity=".94737">
  <rect x="5" y="20" width="2" height="1" ry=".5"/>
  <rect x="9" y="20" width="2" height="1" ry=".5"/>
  <rect x="13" y="20" width="2" height="1" ry=".5"/>
  <rect x="17" y="20" width="2" height="1" ry=".5"/>
  <rect x="21" y="20" width="2" height="1" ry=".5"/>
  <rect x="25" y="20" width="2" height="1" ry=".5"/>
  <rect x="7" y="22" width="2" height="1" ry=".5"/>
  <rect x="11" y="22" width="2" height="1" ry=".5"/>
  <rect x="15" y="22" width="2" height="1" ry=".5"/>
  <rect x="19" y="22" width="2" height="1" ry=".5"/>
  <rect x="23" y="22" width="2" height="1" ry=".5"/>
  <rect x="4" y="22" width="2" height="1" ry=".5"/>
  <rect x="26" y="22" width="2" height="1" ry=".5"/>
  <rect x="4" y="24" width="2" height="1" ry=".5"/>
  <rect x="7" y="24" width="18" height="1" ry=".5"/>
  <rect x="26" y="24" width="2" height="1" ry=".5"/>
 </g>
 <g>
  <path d="m7 14a1.0001 1.0001 0 0 0-0.91406 0.59375l-1.5137 3.4062h22.855l-1.5137-3.4062a1.0001 1.0001 0 0 0-0.91406-0.59375h-18z" fill="#c0bfbc"/>
  <rect x="8" y="12" width="16" height="2"/>
  <path d="m10 15v1h-1v1h14v-1h-1v-1z" fill="url(#b)"/>
  <rect x="9" y="3" width="15" height="6" fill="#f6f5f4"/>
  <rect x="10" y="5" width="13" height="1" fill="#deddda"/>
  <rect x="10" y="7" width="13" height="1" fill="#deddda"/>
 </g>
</svg>
