<svg version="1.1" viewBox="0 0 32 32" width="32" height="32" xmlns="http://www.w3.org/2000/svg">
 <path d="m8 24c-0.554 0-1 0.49556-1 1.1111v2.7778c0 0.61556 0.446 1.1111 1 1.1111h16c0.554 0 1-0.49556 1-1.1111v-2.7778c0-0.61556-0.446-1.1111-1-1.1111z" fill="#5e5c64"/>
 <path d="m8 23c-0.554 0-1 0.49556-1 1.1111v2.7778c0 0.61556 0.446 1.1111 1 1.1111h16c0.554 0 1-0.49556 1-1.1111v-2.7778c0-0.61556-0.446-1.1111-1-1.1111z" fill="#9a9996"/>
 <path d="m3 5c-0.554 0-1 0.45744-1 1.0256v17.949c0 0.5682 0.446 1.0256 1 1.0256h26c0.554 0 1-0.45744 1-1.0256v-17.949c0-0.56821-0.446-1.0256-1-1.0256z" fill="#5e5c64"/>
 <path d="m3 4c-0.554 0-1 0.446-1 1v18c0 0.554 0.446 1 1 1h26c0.554 0 1-0.446 1-1v-18c0-0.554-0.446-1-1-1z" fill="#9a9996"/>
 <rect x="3" y="5" width="26" height="18" ry="0" fill="#3d3846"/>
 <rect x="4" y="6" width="24" height="16" ry="0" fill="#241f31"/>
 <rect x="8" y="6" width="3" height="12" ry="0" fill="#f6d32d"/>
 <rect x="4" y="6" width="4" height="12" fill="#deddda"/>
 <rect x="11" y="6" width="3" height="12" ry="0" fill="#57e389"/>
 <rect x="14" y="6" width="4" height="12" ry="0" fill="#33d17a"/>
 <rect x="18" y="6" width="3" height="12" ry="0" fill="#a347ba"/>
 <rect x="21" y="6" width="3" height="12" ry="0" fill="#e01b24"/>
 <rect x="4" y="18" width="4" height="1" ry="0" fill="#1a5db4"/>
 <rect x="8" y="18" width="3" height="1" ry="0"/>
 <rect x="11" y="18" width="3" height="1" ry="0" fill="#813d9c"/>
 <rect x="18" y="18" width="3" height="1" ry="0" fill="#62a0ea"/>
 <rect x="21" y="18" width="3" height="1" ry="0"/>
 <rect x="24" y="18" width="4" height="1" ry="0" fill="#b3b3b3"/>
 <rect x="14" y="18" width="4" height="1" ry="0"/>
 <rect x="8" y="19" width="4" height="3" ry="0" fill="#fff"/>
 <rect x="12" y="19" width="4" height="3" ry="0" fill="#1a5fb4"/>
 <rect x="16" y="19" width="4" height="3" ry="0"/>
 <rect x="20" y="19" width="4" height="3" ry="0" fill="#3d3846"/>
 <rect x="24" y="6" width="4" height="12" fill="#3584e4"/>
 <rect x="24" y="19" width="4" height="3" fill="#241f31"/>
 <rect x="4" y="19" width="4" height="3" fill="#613583"/>
 <path d="m4 6h18l-4 16h-14z" fill="#fff" opacity=".3"/>
</svg>
