<?xml version="1.0" encoding="UTF-8" standalone="no"?>
<svg
   xmlns:dc="http://purl.org/dc/elements/1.1/"
   xmlns:cc="http://creativecommons.org/ns#"
   xmlns:rdf="http://www.w3.org/1999/02/22-rdf-syntax-ns#"
   xmlns:svg="http://www.w3.org/2000/svg"
   xmlns="http://www.w3.org/2000/svg"
   id="svg14"
   version="1"
   height="64"
   width="64">
  <metadata
     id="metadata20">
    <rdf:RDF>
      <cc:Work
         rdf:about="">
        <dc:format>image/svg+xml</dc:format>
        <dc:type
           rdf:resource="http://purl.org/dc/dcmitype/StillImage" />
        <dc:title></dc:title>
      </cc:Work>
    </rdf:RDF>
  </metadata>
  <defs
     id="defs18" />
  <g
     id="g12"
     transform="matrix(1.2727273,0,0,1.2727273,1.9478346,-1.2084915)">
    <rect
       id="rect2-6"
       style="fill:#3fa156;fill-opacity:1;stroke-width:1.10000002"
       ry="22"
       rx="22"
       height="44"
       width="44"
       y="-45.612415"
       x="-48.878098"
       transform="matrix(0,-1,-1,0,0,0)" />
    <rect
       id="rect2"
       style="fill:#34d07c;stroke-width:1.10000002;fill-opacity:1"
       ry="22"
       rx="22"
       height="44"
       width="44"
       y="-45.612415"
       x="-48.092384"
       transform="matrix(0,-1,-1,0,0,0)" />
    <path
       id="path8-3"
       style="fill:#3fa156;stroke-width:1.06071424;fill-opacity:1"
       d="m 31.999058,11.517279 c -5.386838,0 -6.397381,8.185215 -3.366601,8.185215 3.029611,0 8.754074,-8.185215 3.366601,-8.185215 z m -8.297437,1.25928 c -0.08486,-3.15e-4 -0.177097,0.0079 -0.272605,0.01773 -3.052628,0.385569 -1.978337,5.551885 -0.353218,5.648198 1.573571,0.09397 3.295109,-5.656472 0.624762,-5.665488 z m -5.293176,1.907271 c -0.18676,-0.01182 -0.393505,0.02364 -0.62368,0.117803 -2.453644,1.00754 -0.37231,5.166634 1.001294,4.887029 1.246763,-0.253352 1.425494,-4.887878 -0.377614,-5.005087 z m -4.00494,3.400332 c -0.213257,-0.0059 -0.443357,0.06757 -0.689442,0.250827 -1.964019,1.465801 0.660824,5.00689 1.816473,4.457864 1.010861,-0.480928 0.365945,-4.654626 -1.127328,-4.708722 z m 11.599971,3.380603 c -4.255586,-0.07319 -9.869945,2.086425 -10.827771,6.424746 -1.036318,4.693661 4.269376,11.206446 9.804182,11.206446 2.722748,0 5.863204,-2.488329 6.451264,-5.639711 0.448682,-2.40273 -5.280872,-1.439814 -5.075305,0.14991 0.247146,1.905892 -1.381899,2.848018 -2.977108,1.619605 -5.077744,-3.911278 8.407753,-5.863098 7.518238,-11.206446 -0.276847,-1.663412 -2.340891,-2.510499 -4.894137,-2.5542 z" />
    <path
       id="path8"
       style="fill:#ffffff;stroke-width:1.06071424"
       d="m 31.99842,12.303098 c -5.386837,0 -6.39738,8.185215 -3.366601,8.185215 3.029612,0 8.754075,-8.185215 3.366601,-8.185215 z m -8.297437,1.25928 c -0.08486,-3.15e-4 -0.177097,0.0079 -0.272604,0.01773 -3.052629,0.385569 -1.978338,5.551885 -0.353218,5.648198 1.57357,0.09397 3.295109,-5.656472 0.624761,-5.665488 z m -5.293176,1.907271 c -0.18676,-0.01182 -0.393504,0.02364 -0.623679,0.117803 -2.453644,1.00754 -0.372311,5.166634 1.001293,4.887029 1.246763,-0.253351 1.425494,-4.887878 -0.377614,-5.005087 z m -4.004939,3.400332 c -0.213257,-0.0059 -0.443358,0.06757 -0.689443,0.250827 -1.964019,1.465801 0.660825,5.00689 1.816473,4.457864 1.010861,-0.480928 0.365946,-4.654626 -1.127327,-4.708722 z m 11.599971,3.380603 c -4.255586,-0.07319 -9.869946,2.086425 -10.827771,6.424746 -1.036318,4.693661 4.269375,11.206446 9.804182,11.206446 2.722747,0 5.863204,-2.488329 6.451264,-5.639711 0.448682,-2.40273 -5.280872,-1.439814 -5.075306,0.14991 0.247147,1.905892 -1.381898,2.848018 -2.977107,1.619605 -5.077745,-3.911278 8.407752,-5.863098 7.518237,-11.206446 -0.276846,-1.663412 -2.34089,-2.510499 -4.894136,-2.5542 z" />
    <circle
       r="11"
       cy="39.449528"
       cx="36.183846"
       id="path910-0"
       style="opacity:1;fill:#ddb021;fill-opacity:1;stroke:none;stroke-width:3.1427598;stroke-linecap:round;stroke-linejoin:round;stroke-miterlimit:4;stroke-dasharray:none;stroke-opacity:1" />
    <circle
       r="11"
       cy="38.663815"
       cx="36.183846"
       id="path910"
       style="opacity:1;fill:#f4d32c;fill-opacity:1;stroke:none;stroke-width:3.1427598;stroke-linecap:round;stroke-linejoin:round;stroke-miterlimit:4;stroke-dasharray:none;stroke-opacity:1" />
    <path
       id="path1096-6"
       d="m 32.255272,33.949529 0.785714,7.071428 3.142857,-3.142857 3.142858,3.142857 1.571428,-7.071428 h 2.357142 v 0.785715 l -3.142857,10.214285 -3.928571,-3.142857 -4.714286,3.142857 -1.571428,-10.214285 v -0.785715 z"
       style="fill:#aa8800;fill-opacity:1;stroke:none;stroke-width:0.78571427px;stroke-linecap:butt;stroke-linejoin:miter;stroke-opacity:1" />
    <path
       id="path1096"
       d="m 32.255272,34.735244 0.785714,7.071428 3.142857,-3.142857 3.142857,3.142857 1.571429,-7.071428 h 2.357142 l -3.142857,11 -3.928571,-3.142857 -4.714286,3.142857 -1.571428,-11 z"
       style="fill:#ffffff;stroke:none;stroke-width:0.78571427px;stroke-linecap:butt;stroke-linejoin:miter;stroke-opacity:1" />
  </g>
</svg>
