<?xml version="1.0" encoding="UTF-8" standalone="no"?>
<svg
   xmlns:dc="http://purl.org/dc/elements/1.1/"
   xmlns:cc="http://creativecommons.org/ns#"
   xmlns:rdf="http://www.w3.org/1999/02/22-rdf-syntax-ns#"
   xmlns:svg="http://www.w3.org/2000/svg"
   xmlns="http://www.w3.org/2000/svg"
   width="64"
   height="64"
   version="1"
   id="svg14">
  <metadata
     id="metadata20">
    <rdf:RDF>
      <cc:Work
         rdf:about="">
        <dc:format>image/svg+xml</dc:format>
        <dc:type
           rdf:resource="http://purl.org/dc/dcmitype/StillImage" />
        <dc:title></dc:title>
      </cc:Work>
    </rdf:RDF>
  </metadata>
  <defs
     id="defs18" />
  <g
     transform="matrix(1.2727273,0,0,1.2727273,1.9478346,-1.2084915)"
     id="g12">
    <rect
       ry="1.5714285"
       y="8.8066721"
       x="3.1838441"
       height="37.714287"
       width="40.857143"
       id="rect858-3"
       style="opacity:1;fill:#aa8800;fill-opacity:1;stroke:none;stroke-width:2.96962881;stroke-linecap:round;stroke-linejoin:round;stroke-miterlimit:4;stroke-dasharray:none;stroke-opacity:1" />
    <rect
       ry="1.5714285"
       y="5.6638145"
       x="3.1838443"
       height="37.714287"
       width="40.857143"
       id="rect858"
       style="opacity:1;fill:#ffcc00;fill-opacity:1;stroke:none;stroke-width:2.96962881;stroke-linecap:round;stroke-linejoin:round;stroke-miterlimit:4;stroke-dasharray:none;stroke-opacity:1" />
    <path
       id="path955-7"
       d="m 28.326701,8.0209573 -4.714285,1.5714289 -1.571429,3.1428568 -3.142857,3.142856 -0.785714,3.142858 h -1.571429 v -1.571429 l 0.785715,-1.571429 V 12.735243 L 16.540987,10.3781 14.183845,8.8066715 11.040987,10.3781 H 9.4695593 l -0.785714,0.785714 v 1.571429 l 2.3571417,0.785714 v 0.785714 l -0.785714,1.571428 V 21.3781 l 3.928572,3.928571 h 3.928571 l 0.785714,9.428571 -1.571428,4.714286 -2.357143,0.785714 v 0.785714 h 3.928571 l 0.785714,-6.285714 1.571429,-8.642857 h 2.357143 l -1.571429,3.928572 V 32.3781 l 3.928571,3.521902 -0.785714,1.192383 h -1.571428 v 1.571429 h 3.142857 v -1.571428 h 0.785714 v 1.571428 h 1.571429 v -2.357143 l -1.571429,-0.785715 3.142857,-3.928571 v -4.714286 l 1.571429,-3.142857 v 1.571429 l 2.357142,6.285714 v 5.5 l -1.571428,1.571429 v 1.571428 h 3.142857 v -1.571428 l -0.785714,-1.571428 0.785714,-7.071429 -0.785714,-3.142858 0.785714,-6.285714 0.785714,1.571429 v 3.142857 l -0.785714,3.142857 2.357143,-3.142857 V 22.163814 L 36.969558,18.235244 35.39813,17.449528 34.612415,15.092385 33.040987,12.735243 32.255273,9.5923862 Z m -0.785714,17.6708977 0.785714,5.90053 -1.571428,3.142857 -2.357143,-3.142857 z"
       style="fill:#aa8800;stroke:none;stroke-width:0.78571427px;stroke-linecap:butt;stroke-linejoin:miter;stroke-opacity:1" />
    <path
       id="path955"
       transform="matrix(0.78571427,0,0,0.78571427,-1.5304414,0.94952902)"
       d="M 38 10 L 32 12 L 30 16 L 26 20 L 25 24 L 23 24 L 23 22 L 24 20 L 24 16 L 23 13 L 20 11 L 16 13 L 14 13 L 13 14 L 13 16 L 16 17 L 16 18 L 15 20 L 15 27 L 20 32 L 25 32 L 26 44 L 24 50 L 21 51 L 21 52 L 26 52 L 27 44 L 29 33 L 32 33 L 30 38 L 30 41 L 35 45.482422 L 34 47 L 32 47 L 32 49 L 36 49 L 36 47 L 37 47 L 37 49 L 39 49 L 39 46 L 37 45 L 41 40 L 41 34 L 43 30 L 43 32 L 46 40 L 46 47 L 44 49 L 44 51 L 48 51 L 48 49 L 47 47 L 48 38 L 47 34 L 48 26 L 49 28 L 49 32 L 48 36 L 51 32 L 51 28 L 49 23 L 47 22 L 46 19 L 44 16 L 43 12 L 38 10 z M 37 32.490234 L 38 40 L 36 44 L 33 40 L 37 32.490234 z "
       style="fill:#916f6f;stroke:none;stroke-width:1px;stroke-linecap:butt;stroke-linejoin:miter;stroke-opacity:1" />
    <circle
       style="opacity:1;fill:#1b70da;fill-opacity:1;stroke:none;stroke-width:3.1427598;stroke-linecap:round;stroke-linejoin:round;stroke-miterlimit:4;stroke-dasharray:none;stroke-opacity:1"
       id="path910-0"
       cx="36.183846"
       cy="39.449528"
       r="11" />
    <circle
       style="opacity:1;fill:#62a0e9;fill-opacity:1;stroke:none;stroke-width:3.1427598;stroke-linecap:round;stroke-linejoin:round;stroke-miterlimit:4;stroke-dasharray:none;stroke-opacity:1"
       id="path910"
       cx="36.183846"
       cy="38.663815"
       r="11" />
    <path
       style="fill:#1b70da;fill-opacity:1;stroke:none;stroke-width:1.62686276px;stroke-linecap:butt;stroke-linejoin:miter;stroke-opacity:1"
       d="m 38.289154,30.020954 -4.210652,7.7e-5 -10e-7,0.785714 0.06881,0.897237 c -0.847111,0.278009 -1.628058,0.727123 -2.294392,1.319478 l -1.420827,-0.897169 -2.105393,3.646491 -1e-6,0.785714 1.493626,-6.18e-4 c -0.180734,0.871167 -0.180905,1.770142 -5.02e-4,2.641377 l -1.493046,0.784178 -10e-7,0.785714 2.10526,2.860702 1.421752,-0.898681 c 0.664625,0.593511 1.444059,1.044205 2.289998,1.32415 l -0.06526,1.679925 4.210649,-7.9e-5 -0.06881,-1.682949 c 0.847113,-0.278008 1.628063,-0.727122 2.294398,-1.319478 l 1.420827,0.897171 2.105391,-2.860781 1e-6,-0.785714 -1.493624,-0.785094 c 0.180733,-0.871167 0.180903,-1.770141 5e-4,-2.641376 l 1.493047,0.0015 4e-6,-0.785714 -2.105257,-3.646418 -1.421754,0.898681 C 39.84927,32.43148 39.069834,31.980786 38.223893,31.700842 l 0.06526,-0.894209 z m -1.263189,4.714287 c 1.735751,0.465095 2.765822,2.249232 2.300729,3.984983 -0.465093,1.735752 -2.249231,2.765825 -3.984983,2.300732 -1.735753,-0.465094 -2.765825,-2.249232 -2.300731,-3.984985 0.02794,-0.104565 0.06108,-0.20767 0.09929,-0.308932 0.59132,-1.563503 2.271165,-2.424569 3.885754,-1.991784 z"
       id="path882-7" />
    <path
       style="fill:#ffffff;stroke:none;stroke-width:1.62686276px;stroke-linecap:butt;stroke-linejoin:miter;stroke-opacity:1"
       d="m 38.289153,30.806668 -4.210652,7.7e-5 0.06881,1.682951 a 6.5074514,6.5074514 0 0 0 -2.294392,1.319478 l -1.420827,-0.897169 -2.105393,3.646491 1.493625,0.785096 a 6.5074514,6.5074514 0 0 0 -5.02e-4,2.641377 l -1.493046,0.784178 2.105259,3.646416 1.421752,-0.898681 a 6.5074514,6.5074514 0 0 0 2.289998,1.32415 l -0.06526,1.679925 4.21065,-7.9e-5 -0.06881,-1.682949 a 6.5074514,6.5074514 0 0 0 2.294397,-1.319478 l 1.420828,0.897171 2.105391,-3.646495 -1.493623,-0.785094 a 6.5074514,6.5074514 0 0 0 5e-4,-2.641376 l 1.493047,-0.784179 -2.105257,-3.646418 -1.421754,0.898681 a 6.5074514,6.5074514 0 0 0 -2.290003,-1.32415 z m -1.263189,4.714287 a 3.2537258,3.2537258 0 0 1 2.300729,3.984983 3.2537258,3.2537258 0 0 1 -3.984983,2.300732 3.2537258,3.2537258 0 0 1 -2.300731,-3.984985 3.2537258,3.2537258 0 0 1 0.09929,-0.308932 3.2537258,3.2537258 0 0 1 3.885755,-1.991784 z"
       id="path882" />
  </g>
</svg>
