<svg version="1" viewBox="0 0 32 32" width="32" height="32" xmlns="http://www.w3.org/2000/svg">
 <g transform="matrix(.04044 0 0 .04044 5.4615 -3.0769)">
  <g fill="#613583">
   <path d="m606.79 249.18 3e-5 -24.728-98.912-74.184h-469.83l-123.64 123.64-1e-5 420.38 123.64 123.64h469.83l98.912-98.912 3e-5 -24.728-519.29 24.728-74.184-74.184 1e-5 -321.47 74.184-74.184z"/>
   <path d="m136.96 447.01v-74.184h74.184v74.184h74.184v74.184h-74.184v74.184h-74.184v-74.184h-74.184v-74.184z"/>
   <path d="m408.96 447.01v-74.184h74.184v74.184h74.184v74.184h-74.184v74.184h-74.184v-74.184h-74.184v-74.184z"/>
  </g>
  <g fill="#a347ba">
   <path d="m606.79 224.46-98.912-98.912h-469.83l-123.64 123.64-5e-6 420.38 123.64 123.64h469.83l98.912-98.912h-519.29l-74.184-74.184 5e-6 -321.47 74.184-74.184z"/>
   <path d="m136.96 422.28v-74.184h74.184v74.184h74.184v74.184h-74.184v74.184h-74.184v-74.184h-74.184v-74.184z"/>
   <path d="m408.96 422.28v-74.184h74.184v74.184h74.184v74.184h-74.184v74.184h-74.184v-74.184h-74.184v-74.184z"/>
  </g>
  <rect x="260.6" y="471.74" width="395.65" height="395.65" ry="24.728" fill="#f6f5f4"/>
  <path d="m433.69 496.46-19.222 57.667c-2.2312 0.83754-4.4377 1.7394-6.6167 2.7046l-54.334-27.143-34.967 34.967 27.191 54.383c-1.0131 2.1615-1.9632 4.3519-2.8495 6.5684l-57.57 19.222v49.456l57.667 19.222c0.83754 2.2312 1.7394 4.4377 2.7046 6.6167l-27.143 54.334 34.967 34.967 54.383-27.191c2.1615 1.0131 4.3519 1.9634 6.5684 2.8495l19.222 57.57h49.456l19.222-57.667c2.2312-0.83754 4.4376-1.7394 6.6167-2.7046l54.334 27.143 34.967-34.967-27.191-54.383c1.0131-2.1615 1.9634-4.3519 2.8495-6.5684l57.57-19.222v-49.456l-57.667-19.222c-0.83754-2.2312-1.7394-4.4376-2.7046-6.6167l27.143-54.334-34.967-34.967-54.383 27.191c-2.1615-1.0131-4.3519-1.9634-6.5684-2.8495l-19.222-57.57zm24.728 98.912c40.971 0 74.184 33.213 74.184 74.184s-33.213 74.184-74.184 74.184-74.184-33.213-74.184-74.184 33.213-74.184 74.184-74.184z" fill="#3d3846"/>
 </g>
</svg>
