<?xml version="1.0" encoding="UTF-8"?>
<svg version="1" viewBox="0 0 32 32" xmlns="http://www.w3.org/2000/svg" xmlns:cc="http://creativecommons.org/ns#" xmlns:dc="http://purl.org/dc/elements/1.1/" xmlns:rdf="http://www.w3.org/1999/02/22-rdf-syntax-ns#">
<metadata>
<rdf:RDF>
<cc:Work rdf:about="">
<dc:format>image/svg+xml</dc:format>
<dc:type rdf:resource="http://purl.org/dc/dcmitype/StillImage"/>
<dc:title/>
</cc:Work>
</rdf:RDF>
</metadata>
<g transform="matrix(.035048 0 0 .035048 3.4 3.4667)">
<circle cx="359.51" cy="357.61" r="399.45" fill="#c0bfbc"/>
<circle cx="359.51" cy="329.07" r="399.45" fill="#f6f5f4"/>
<path d="m306.26 19.805-244.98 106.5 210.71 49.709v0.0557l-210.71-49.765v394.16l340.83 85.207 245.03-117.19v-404.75l-244.2 123.27-63.864-15.102v-0.0557l63.864 15.046 244.2-123.16zm33.381 71.331 158.38 35.164-106.55 53.275-52.217-11.313zm-67.653 8.9721v53.666l-77.294-16.718zm289.95 79.467v245.03l-127.84-30.427v-150.69zm-426.09 8.0248 136.14 33.994v151.41l-136.14 72.891zm203.02 50.712 20.675 5.1827v132.91l-21.344-5.0712zm-32.601 196.94 53.275 10.867v84.984l-159.38-37.95zm127.84 26.08 68.879 14.043-68.879 34.44z" fill="#c0bfbc" fill-rule="evenodd"/>
<path d="m135.81 507.5 170.43-95.869v53.261l-117.17 63.913" fill="#173f4f" fill-rule="evenodd"/>
<path d="m135.81 475.54 136.26-72.916 34.173 9.0034-170.43 95.869" fill="#35b9ab" fill-rule="evenodd"/>
<path d="m103.86 518.15 31.956-10.652v-298.26h-31.956" fill="#173f4f" fill-rule="evenodd"/>
<path d="m359.51 560.76-223.69-53.261-31.956 10.652 255.65 63.913" fill="#35b9ab" fill-rule="evenodd"/>
<path d="m61.25 155.98v394.13l340.87 85.217 0.92776-398.66zm42.608 53.261 255.65 63.913v308.91l-255.65-63.913z" fill="#73ba25" fill-rule="evenodd"/>
<path d="m647.12 113.37v404.78l-245 117.17 0.67357-398.64zm-42.608 74.565-170.43 85.217v298.26l170.43-85.217z" fill="#173f4f" fill-rule="evenodd"/>
<path d="m128.81 152.51 177.44-81.753v42.608l-113.2 54.121" fill="#173f4f" fill-rule="evenodd"/>
<path d="m306.25 49.456-245 106.52 341.67 80.567 244.2-123.18zm0 21.304 255.65 53.261-170.43 85.217-262.48-56.743z" fill="#35b9ab" fill-rule="evenodd"/>
<path d="m306.25 113.37 33.409 3.0715-1.4528 284.54-31.956 10.652" fill="#173f4f" fill-rule="evenodd"/>
<path d="m561.9 124.02-255.65-53.261v42.608l191.74 42.608" fill="#73ba25" fill-rule="evenodd"/>
<path d="m271.99 402.94v-274.3l34.257-15.269v298.26" fill="#73ba25" fill-rule="evenodd"/>
<path d="m306.25 411.63v53.261l203.53 41.535 64.223-31.332" fill="#73ba25" fill-rule="evenodd"/>
<path d="m561.9 454.24-223.69-53.261-31.956 10.652 255.65 63.913" fill="#35b9ab" fill-rule="evenodd"/>
<path d="m604.51 187.93-42.608 21.304v266.3l42.608 10.652" fill="#73ba25" fill-rule="evenodd"/>
<path d="m604.51 486.19-170.43 85.217v-31.956l127.83-63.913z" fill="#35b9ab" fill-rule="evenodd"/>
</g>
</svg>
