<?xml version="1.0" encoding="UTF-8" standalone="no"?>
<svg
   xmlns:dc="http://purl.org/dc/elements/1.1/"
   xmlns:cc="http://creativecommons.org/ns#"
   xmlns:rdf="http://www.w3.org/1999/02/22-rdf-syntax-ns#"
   xmlns:svg="http://www.w3.org/2000/svg"
   xmlns="http://www.w3.org/2000/svg"
   id="svg88"
   version="1"
   height="64"
   width="64">
  <metadata
     id="metadata94">
    <rdf:RDF>
      <cc:Work
         rdf:about="">
        <dc:format>image/svg+xml</dc:format>
        <dc:type
           rdf:resource="http://purl.org/dc/dcmitype/StillImage" />
        <dc:title></dc:title>
      </cc:Work>
    </rdf:RDF>
  </metadata>
  <defs
     id="defs92" />
  <path
     style="fill:#333333;stroke-width:1.00000489"
     id="path2-6"
     d="M 32,5 C 16.537,5 4,17.535601 4,33.000002 4,48.464401 16.537,61 32,61 47.461599,61 60,48.464401 60,33.000002 60,17.535601 47.461599,5 32,5 Z" />
  <path
     style="fill:#4d4d4d;stroke-width:1.00000513"
     id="path2"
     d="M 32,4 C 16.537,4 4,16.535601 4,32.000002 4,47.464401 16.537,60 32,60 47.461599,60 60,47.464401 60,32.000002 60,16.535601 47.461599,4 32,4 Z" />
  <path
     id="path48-9"
     d="m 31.955078,11 c -0.261784,2.579918 -0.631579,4.263486 -1.611328,4.800781 -1.072349,-0.324769 -1.78808,-1.896862 -2.585938,-4.36914 l 8.99e-4,1.000501 c 0,0 0.167243,3.369697 -0.547773,4.007311 -1.105607,-0.124776 -2.12222,-1.516867 -3.402344,-3.757812 -5.54e-4,1.000531 -5.54e-4,1.000531 -5.54e-4,1.000531 0,0 1.02854,3.326097 0.477116,4.036578 -1.113766,0.124302 -2.408327,-1.033537 -4.144531,-2.980469 4.33e-4,0.999628 4.33e-4,0.999628 4.33e-4,0.999628 0,0 1.934043,2.961393 1.528864,3.818732 -1.063667,0.341435 -2.569,-0.526037 -4.669922,-2.076172 0,0.999377 0,0.999377 0,0.999377 0,0 2.816854,2.671928 2.464844,3.588513 0.664309,-0.874453 0.738533,-0.954982 1.111328,-1.355468 0.341263,-0.3666 0.371937,0.586534 1.019192,0.01454 0.68089,-0.587631 0.954814,-1.806531 1.371433,-2.100481 0.422815,-0.298308 0.401186,0.69701 1.217337,0.233255 0.745306,-0.411176 1.112414,-1.599308 1.571725,-1.797708 0.463193,-0.200066 0.47198,0.782026 1.30246,0.514836 0.818828,-0.254569 1.211785,-1.363624 1.7034,-1.466008 0.49784,-0.10368 0.54545,0.876548 1.428208,0.779975 0.900912,-0.08721 1.252731,-1.1081 1.765151,-1.1081 0.525218,0 0.800755,1.014199 1.76426,1.1081 0.878179,0.09612 0.977138,-0.881503 1.474021,-0.778022 0.490203,0.10209 0.890392,1.214151 1.702952,1.466693 0.834986,0.268585 0.838787,-0.715988 1.302908,-0.515521 0.478306,0.206605 0.740035,1.338561 1.571276,1.798393 0.731109,0.416565 0.811734,-0.520421 1.217786,-0.23394 0.410412,0.289571 0.608223,1.389715 1.262315,1.953717 0.673352,0.594544 0.782064,-0.239731 1.12831,0.132221 0.372794,0.400486 0.446979,1.481305 1.111289,2.355759 -0.148374,-0.386346 -0.512504,-1.354449 -0.0015,-2.214759 0.73189,-1.232134 2.465912,-2.373357 2.465912,-2.373357 0,0 2.3e-5,0 4.48e-4,-1.000065 -2.101268,1.550391 -3.608179,2.420021 -4.671875,2.078125 -0.381977,-0.809437 1.530391,-3.819997 1.530391,-3.819997 l 8.59e-4,-1.000316 c -1.738212,1.949185 -3.033805,3.107923 -4.148437,2.980469 -0.568534,-0.735481 0.480597,-4.03589 0.480597,-4.03589 l -1.29e-4,-0.999266 c -1.279728,2.240253 -2.297133,3.63033 -3.402343,3.755859 -0.729052,-0.650144 -0.548199,-4.006623 -0.548199,-4.006623 l -6.07e-4,-0.999233 C 35.391159,13.927334 34.672541,15.50529 33.585938,15.8125 32.589911,15.28837 32.21878,13.598752 31.955078,11 Z M 31.875,17.134766 c -4.565432,0.06424 -8.993331,2.300612 -11.619141,6.142578 -4.020434,5.956325 -3.058361,14.700514 3.884766,19.333984 5.850932,3.809213 15.247788,1.301831 15.247788,1.301831 l 0.0061,-0.99519 -1.742187,-2.94336 C 33.892161,41.928385 29.4866,42.160937 26.091797,39.884766 20.87125,36.477042 19.844104,29.781873 23.060547,25.09375 c 3.164603,-4.705609 9.715209,-6.138509 14.894531,-2.767578 5.452384,3.643238 5.132604,9.971666 3.78125,12.804687 -0.596956,-0.404713 -1.194059,-0.808177 -1.791016,-1.21289 1.556118,-3.973333 -0.02639,-7.895293 -3.142578,-9.951172 -3.666111,-2.418682 -8.990128,-2.006396 -11.966796,2.365234 -0.581984,0.867177 -0.581182,1.866342 -0.902977,2.71958 l 18.557273,11.210108 c 0.767833,-0.787947 0.766964,-0.787173 1.257813,-1.509766 4.172224,-6.142059 2.721907,-14.948195 -3.865235,-19.265625 -2.479065,-1.64618 -5.268553,-2.390107 -8.007812,-2.351562 z m 12.660156,22.794922 c -0.664309,0.874454 -0.738533,0.954982 -1.111328,1.355468 -0.341224,0.366558 -0.489659,0.512162 -1.136719,1.083985 -0.681052,0.587773 -0.83725,0.707977 -1.253906,1.001953 -0.411293,0.290178 -0.584911,0.403126 -1.341797,0.833984 -0.802146,0.44337 -0.975202,0.52656 -1.447265,0.730469 -0.460332,0.19883 -0.65985,0.274181 -1.476563,0.537109 -0.83241,0.25896 -1.034654,0.311048 -1.529297,0.414063 -0.498319,0.10378 -0.698928,0.135622 -1.583984,0.232422 -0.953915,0.09288 -1.130996,0.09766 -1.654297,0.09766 -0.512421,0 -0.710416,-0.0065 -1.611328,-0.09375 -0.882759,-0.09657 -1.084191,-0.130695 -1.582031,-0.234375 -0.487037,-0.101431 -0.70135,-0.156256 -1.5,-0.404297 -0.849679,-0.273136 -1.038742,-0.345114 -1.50586,-0.546875 -0.465534,-0.201088 -0.647312,-0.290151 -1.419922,-0.716797 -0.788755,-0.448543 -0.951564,-0.553045 -1.36914,-0.847656 -0.410628,-0.289723 -0.575459,-0.417611 -1.230469,-0.982422 -0.672331,-0.593662 -0.814103,-0.73177 -1.160156,-1.103516 -0.372795,-0.400486 -0.447018,-0.481015 -1.111328,-1.355468 0.420489,1.094893 -0.61891,3.551285 -2.464395,5.588507 2.0999,-1.54938 3.786756,-2.365075 4.850342,-2.025 0.473832,0.999283 -0.400735,2.523293 -1.709283,4.766937 1.738212,-1.949185 2.928444,-3.249753 4.043076,-3.122299 0.681058,0.878994 0.435771,2.709249 -0.376094,5.178036 1.279728,-2.240253 2.145068,-3.769635 3.250278,-3.895164 0.825122,0.7358 0.983181,2.588842 0.700393,5.145194 0.797856,-2.472278 1.358865,-4.134393 2.431215,-4.459161 C 31.215497,47.645624 31.738162,48.419558 32,51 c 0.263747,-2.599206 0.768289,-3.367495 1.764709,-3.891305 1.085606,0.308446 1.672866,1.966096 2.476581,4.456523 -0.28279,-2.556353 -0.483099,-4.296003 0.342022,-5.031802 1.105607,0.124776 2.328525,1.540827 3.608649,3.781772 -0.811481,-2.467618 -1.055843,-4.298683 -0.376094,-5.178036 1.114198,-0.125877 2.305867,1.17424 4.043076,3.122298 -1.307533,-2.241903 -1.925935,-3.990106 -1.454306,-4.989524 1.063749,-0.342801 2.493416,0.696696 4.595364,2.247588 -1.845484,-2.037222 -2.885333,-4.492933 -2.464845,-5.587826 z"
     style="fill:#333333;fill-opacity:1;fill-rule:evenodd;stroke-width:0.06180214" />
  <g
     id="g86"
     style="fill:#ffffff"
     transform="matrix(0.0622549,0,0,0.06135267,8.1764698,1.3478185)">
    <path
       id="path48"
       style="fill:#ffffff;fill-rule:evenodd"
       d="m 253.0964,451.5499 298.0828,199.0175 c 12.3337,-12.8429 12.3337,-12.8429 20.2182,-24.6206 67.0184,-100.1107 43.7081,-243.6352 -62.1011,-314.0059 -106.1899,-71.5505 -247.7678,-38.4091 -315.2532,61.7845 -64.5802,97.0834 -49.1298,239.61 62.3976,315.1319 97.5272,64.4282 188.9762,36.1043 245.0135,5.0054 L 473.477,645.883 C 413.0772,677.728 342.3128,681.5232 287.7821,644.4234 203.9245,588.8802 187.4273,479.7646 239.093,403.3519 c 50.833,-76.6977 156.0308,-100.0815 239.2262,-45.138 87.5816,59.3819 82.47,162.5595 60.7632,208.7355 -9.5889,-6.5965 -19.1778,-13.1929 -28.7667,-19.7894 24.9959,-64.7622 -0.4326,-128.689 -50.4879,-162.1982 -58.8887,-39.4226 -144.3998,-32.7074 -192.214,38.5467 -9.3484,14.1343 -9.3484,14.1343 -14.5174,28.0414 z" />
    <path
       id="path50"
       style="fill:#ffffff;fill-rule:evenodd"
       d="m 381.9484,173.6221 c -4.4291,44.2913 -10.6299,72.6377 -28.3464,79.7244 17.7165,-1.7717 19.4882,-1.7717 28.3464,-1.7717 8.8583,0 10.63,0 28.3465,1.7717 -17.7165,-7.0867 -23.9173,-35.4331 -28.3465,-79.7244 z" />
    <path
       id="path52"
       style="fill:#ffffff;fill-rule:evenodd"
       d="m 314.5494,180.6657 c 4.8241,44.2501 4.618,73.266 -11.2504,83.8626 16.9673,-5.3964 18.7008,-5.7627 27.3676,-7.5942 8.6669,-1.8315 10.4003,-2.1978 28.1003,-4.1274 -18.7989,-3.2706 -30.7265,-29.7224 -44.2175,-72.141 z" />
    <path
       id="path54"
       style="fill:#ffffff;fill-rule:evenodd"
       d="m 251.0898,201.0402 c 13.7231,42.344 19.4228,70.7954 6.0412,84.3979 15.5152,-8.7345 17.1379,-9.4457 25.251,-13.0017 8.1133,-3.5559 9.7359,-4.2671 26.6735,-9.7563 -19.0711,0.6212 -36.1294,-22.8518 -57.9657,-61.6399 z" />
    <path
       id="path56"
       style="fill:#ffffff;fill-rule:evenodd"
       d="m 192.1871,234.5471 c 22.1815,38.5918 33.6405,65.2499 23.3605,81.3253 13.3739,-11.7537 14.8146,-12.785 22.0172,-17.9416 7.2028,-5.1565 8.6433,-6.1879 24.08,-15.0604 -18.5307,4.5508 -40.0735,-14.8881 -69.4577,-48.3233 z" />
    <path
       id="path58"
       style="fill:#ffffff;fill-rule:evenodd"
       d="m 141.7323,279.2385 c 29.644,33.2051 46.3405,56.9368 39.5862,74.7827 10.6708,-14.2529 11.8686,-15.5585 17.8568,-22.0861 5.9884,-6.5276 7.1859,-7.8332 20.468,-19.6907 -17.1987,8.2645 -42.2787,-6.3285 -77.911,-33.0059 z" />
    <path
       id="path60"
       style="fill:#ffffff;fill-rule:evenodd"
       d="m 450.0762,180.7087 c -4.8241,44.2501 -4.618,73.266 11.2504,83.8626 -16.9673,-5.3964 -18.7008,-5.7627 -27.3676,-7.5942 -8.6669,-1.8315 -10.4003,-2.1978 -28.1003,-4.1274 18.7989,-3.2706 30.7265,-29.7224 44.2175,-72.141 z" />
    <path
       id="path62"
       style="fill:#ffffff;fill-rule:evenodd"
       d="m 513.5358,201.0832 c -13.7231,42.344 -19.4228,70.7954 -6.0412,84.3979 -15.5152,-8.7345 -17.1379,-9.4457 -25.251,-13.0017 -8.1133,-3.5559 -9.7359,-4.2671 -26.6735,-9.7563 19.0711,0.6212 36.1294,-22.8518 57.9657,-61.6399 z" />
    <path
       id="path64"
       style="fill:#ffffff;fill-rule:evenodd"
       d="m 572.4385,234.5901 c -22.1815,38.5918 -33.6405,65.2499 -23.3605,81.3253 -13.3739,-11.7537 -14.8146,-12.785 -22.0172,-17.9416 -7.2028,-5.1565 -8.6433,-6.1879 -24.08,-15.0604 18.5307,4.5508 40.0735,-14.8881 69.4577,-48.3233 z" />
    <path
       id="path66"
       style="fill:#ffffff;fill-rule:evenodd"
       d="m 622.8933,279.2815 c -29.644,33.2051 -46.3405,56.9368 -39.5862,74.7827 -10.6708,-14.2529 -11.8686,-15.5585 -17.8568,-22.0861 -5.9884,-6.5276 -7.1859,-7.8332 -20.468,-19.6907 17.1987,8.2645 42.2787,-6.3285 77.911,-33.0059 z" />
    <path
       id="path68"
       style="fill:#ffffff;fill-rule:evenodd"
       d="m 382.6772,825.5905 c -4.4291,-44.2913 -10.6299,-72.6377 -28.3464,-79.7244 17.7165,1.7717 19.4882,1.7717 28.3464,1.7717 8.8583,0 10.63,0 28.3465,-1.7717 -17.7165,7.0867 -23.9173,35.4331 -28.3465,79.7244 z" />
    <path
       id="path70"
       style="fill:#ffffff;fill-rule:evenodd"
       d="m 315.2782,818.5469 c 4.8241,-44.2501 4.618,-73.266 -11.2504,-83.8626 16.9673,5.3964 18.7008,5.7627 27.3676,7.5942 8.6669,1.8315 10.4003,2.1978 28.1003,4.1274 -18.7989,3.2706 -30.7265,29.7224 -44.2175,72.141 z" />
    <path
       id="path72"
       style="fill:#ffffff;fill-rule:evenodd"
       d="m 251.8186,798.1724 c 13.7231,-42.344 19.4228,-70.7954 6.0412,-84.3979 15.5152,8.7345 17.1379,9.4457 25.251,13.0017 8.1133,3.5559 9.7359,4.2671 26.6735,9.7563 -19.0711,-0.6212 -36.1294,22.8518 -57.9657,61.6399 z" />
    <path
       id="path74"
       style="fill:#ffffff;fill-rule:evenodd"
       d="m 192.9159,764.6655 c 22.1815,-38.5918 33.6405,-65.2499 23.3605,-81.3253 13.3739,11.7537 14.8146,12.785 22.0172,17.9416 7.2028,5.1565 8.6433,6.1879 24.08,15.0604 -18.5307,-4.5508 -40.0735,14.8881 -69.4577,48.3233 z" />
    <path
       id="path76"
       style="fill:#ffffff;fill-rule:evenodd"
       d="m 142.4611,719.9741 c 29.644,-33.2051 46.3405,-56.9368 39.5862,-74.7827 10.6708,14.2529 11.8686,15.5585 17.8568,22.0861 5.9884,6.5276 7.1859,7.8332 20.468,19.6907 -17.1987,-8.2645 -42.2787,6.3285 -77.911,33.0059 z" />
    <path
       id="path78"
       style="fill:#ffffff;fill-rule:evenodd"
       d="m 450.805,818.5039 c -4.8241,-44.2501 -4.618,-73.266 11.2504,-83.8626 -16.9673,5.3964 -18.7008,5.7627 -27.3676,7.5942 -8.6669,1.8315 -10.4003,2.1978 -28.1003,4.1274 18.7989,3.2706 30.7265,29.7224 44.2175,72.141 z" />
    <path
       id="path80"
       style="fill:#ffffff;fill-rule:evenodd"
       d="m 514.2646,798.1294 c -13.7231,-42.344 -19.4228,-70.7954 -6.0412,-84.3979 -15.5152,8.7345 -17.1379,9.4457 -25.251,13.0017 -8.1133,3.5559 -9.7359,4.2671 -26.6735,9.7563 19.0711,-0.6212 36.1294,22.8518 57.9657,61.6399 z" />
    <path
       id="path82"
       style="fill:#ffffff;fill-rule:evenodd"
       d="m 573.1673,764.6225 c -22.1815,-38.5918 -33.6405,-65.2499 -23.3605,-81.3253 -13.3739,11.7537 -14.8146,12.785 -22.0172,17.9416 -7.2028,5.1565 -8.6433,6.1879 -24.08,15.0604 18.5307,-4.5508 40.0735,14.8881 69.4577,48.3233 z" />
    <path
       id="path84"
       style="fill:#ffffff;fill-rule:evenodd"
       d="m 623.6221,719.9311 c -29.644,-33.2051 -46.3405,-56.9368 -39.5862,-74.7827 -10.6708,14.2529 -11.8686,15.5585 -17.8568,22.0861 -5.9884,6.5276 -7.1859,7.8332 -20.468,19.6907 17.1987,-8.2645 42.2787,6.3285 77.911,33.0059 z" />
  </g>
</svg>
