<?xml version="1.0" encoding="UTF-8" standalone="no"?>
<svg
   xmlns:dc="http://purl.org/dc/elements/1.1/"
   xmlns:cc="http://creativecommons.org/ns#"
   xmlns:rdf="http://www.w3.org/1999/02/22-rdf-syntax-ns#"
   xmlns:svg="http://www.w3.org/2000/svg"
   xmlns="http://www.w3.org/2000/svg"
   id="svg14"
   version="1"
   height="64"
   width="64">
  <metadata
     id="metadata20">
    <rdf:RDF>
      <cc:Work
         rdf:about="">
        <dc:format>image/svg+xml</dc:format>
        <dc:type
           rdf:resource="http://purl.org/dc/dcmitype/StillImage" />
        <dc:title></dc:title>
      </cc:Work>
    </rdf:RDF>
  </metadata>
  <defs
     id="defs18" />
  <g
     id="g1085"
     transform="matrix(0.07510248,0,0,0.07510248,5,4)">
    <rect
       style="opacity:1;fill:#b3b3b3;fill-opacity:1;stroke:none;stroke-width:50.32493973;stroke-linecap:round;stroke-linejoin:round;stroke-miterlimit:4;stroke-dasharray:none;stroke-opacity:1"
       id="rect1327"
       width="692.38727"
       height="665.75696"
       x="13.31514"
       y="53.260559"
       ry="26.63028" />
    <rect
       style="opacity:1;fill:#e6e6e6;fill-opacity:1;stroke:none;stroke-width:50.32493973;stroke-linecap:round;stroke-linejoin:round;stroke-miterlimit:4;stroke-dasharray:none;stroke-opacity:1"
       id="rect1325"
       width="692.38727"
       height="639.12671"
       x="13.31514"
       y="26.63028"
       ry="26.63028" />
  </g>
  <path
     id="path831-3"
     d="M 32,7 A 22,22 0 0 0 10,29 22,22 0 0 0 32,51 22,22 0 0 0 54,29 22,22 0 0 0 32,7 Z"
     style="opacity:1;fill:#b3b3b3;fill-opacity:1;stroke:none;stroke-width:4.09448862;stroke-linecap:round;stroke-linejoin:round;stroke-miterlimit:4;stroke-dasharray:none;stroke-opacity:1" />
  <path
     id="path831"
     d="M 32 8 A 22 22 0 0 0 10 30 A 22 22 0 0 0 32 52 A 22 22 0 0 0 54 30 A 22 22 0 0 0 32 8 z "
     style="opacity:1;fill:#1a5db4;fill-opacity:1;stroke:none;stroke-width:4.09448862;stroke-linecap:round;stroke-linejoin:round;stroke-miterlimit:4;stroke-dasharray:none;stroke-opacity:1" />
  <path
     id="path831-5"
     d="M 32 8 A 22 22 0 0 0 24 9.5292969 L 24 10 L 28 14 L 30 14 L 30 11 L 33 9 L 33 8.0351562 A 22 22 0 0 0 32 8 z M 44.251953 11.748047 L 44 12 L 44 14 L 47 14 L 47 13.929688 A 22 22 0 0 0 44.251953 11.748047 z M 18 14 L 18 15 L 19 18 L 14 18 L 13.822266 17.646484 A 22 22 0 0 0 10 30 A 22 22 0 0 0 10.048828 30.964844 L 14 28 L 17 30 L 17 26 L 21 23 L 24 18 L 24 17 L 21 15 L 18 14 z M 43 16 L 43 18 L 41 18 L 41 21 L 37 21 L 37 25 L 42 25 L 42 23 L 46 23 L 48 26 L 49 26 L 49 25 L 48 24 L 48 23 L 51 23 L 53.537109 25.537109 A 22 22 0 0 0 48.957031 16 L 43 16 z M 39 27 L 36 28 L 34 31 L 39 36 L 44 44 L 44.777344 47.886719 A 22 22 0 0 0 53.970703 30.810547 L 53 30 L 53.953125 29.046875 A 22 22 0 0 0 53.900391 28 L 47 28 L 46 27 L 39 27 z M 10.054688 31.080078 A 22 22 0 0 0 10.853516 35.996094 L 12 37 L 12 34 L 10.054688 31.080078 z M 15 36 L 13 38 L 13 41.046875 A 22 22 0 0 0 24.378906 50.621094 L 27 48 L 27 46 L 29 44 L 29 40 L 27 38 L 23 38 L 21 36 L 15 36 z "
     style="opacity:1;fill:#124280;fill-opacity:1;stroke:none;stroke-width:4.09448862;stroke-linecap:round;stroke-linejoin:round;stroke-miterlimit:4;stroke-dasharray:none;stroke-opacity:1" />
  <path
     id="path831-36"
     d="M 32 8 A 22 22 0 0 0 24.388672 9.3886719 L 28 13 L 30 13 L 30 10 L 32.949219 8.0332031 A 22 22 0 0 0 32 8 z M 44 11.568359 L 44 13 L 45.939453 13 A 22 22 0 0 0 44 11.568359 z M 18 14 L 19 17 L 14.285156 17 A 22 22 0 0 0 10 30 L 14 27 L 17 29 L 17 25 L 21 22 L 24 17 L 21 14 L 18 14 z M 10 30 A 22 22 0 0 0 10.525391 34.710938 L 12 36 L 12 33 L 10 30 z M 43 15 L 43 17 L 41 17 L 41 20 L 37 20 L 37 24 L 42 24 L 42 22 L 46 22 L 48 25 L 49 25 L 48 23 L 48 22 L 51 22 L 53.195312 24.195312 A 22 22 0 0 0 48.054688 15 L 43 15 z M 39 26 L 36 27 L 34 30 L 39 35 L 44 43 L 44.951172 47.755859 A 22 22 0 0 0 54 30 A 22 22 0 0 0 53.992188 29.826172 L 53 29 L 53.904297 28.095703 A 22 22 0 0 0 53.769531 27 L 47 27 L 46 26 L 39 26 z M 15 35 L 13 37 L 13 41.046875 A 22 22 0 0 0 15.173828 44.171875 L 15.199219 44.199219 L 17 46 L 17 46.070312 A 22 22 0 0 0 24 50.492188 L 24 50 L 27 47 L 27 45 L 29 43 L 29 39 L 27 37 L 23 37 L 21 35 L 15 35 z "
     style="opacity:1;fill:#1b70da;fill-opacity:1;stroke:none;stroke-width:4.09448862;stroke-linecap:round;stroke-linejoin:round;stroke-miterlimit:4;stroke-dasharray:none;stroke-opacity:1" />
  <circle
     r="14"
     cy="49"
     cx="48"
     id="path910-0"
     style="opacity:1;fill:#1b70da;fill-opacity:1;stroke:none;stroke-width:3.99987626;stroke-linecap:round;stroke-linejoin:round;stroke-miterlimit:4;stroke-dasharray:none;stroke-opacity:1" />
  <circle
     r="14"
     cy="48"
     cx="48"
     id="path910"
     style="opacity:1;fill:#62a0e9;fill-opacity:1;stroke:none;stroke-width:3.99987626;stroke-linecap:round;stroke-linejoin:round;stroke-miterlimit:4;stroke-dasharray:none;stroke-opacity:1" />
  <path
     id="path882-7"
     d="m 50.679484,36.999996 -5.359012,9.8e-5 -1e-6,1 0.08758,1.141938 c -1.078145,0.353829 -2.072077,0.925429 -2.920139,1.679335 l -1.808325,-1.141851 -2.679591,4.640989 -1e-6,0.999999 1.900978,-7.86e-4 c -0.230025,1.108758 -0.230243,2.252908 -6.39e-4,3.361752 l -1.90024,0.998045 -10e-7,1 2.679421,3.640893 1.809503,-1.143776 c 0.845886,0.755378 1.837893,1.328989 2.914543,1.685282 l -0.08306,2.138087 5.359008,-1.01e-4 -0.08758,-2.141935 c 1.078144,-0.353828 2.07208,-0.925428 2.920143,-1.679336 l 1.808326,1.141854 2.679588,-3.640994 10e-7,-0.999999 -1.900976,-0.999211 c 0.230024,-1.108758 0.230241,-2.252907 6.37e-4,-3.361751 l 1.900241,0.0019 5e-6,-1 -2.679418,-4.640896 -1.809505,1.143776 c -0.845884,-0.75537 -1.837893,-1.32898 -2.914545,-1.685273 l 0.08306,-1.138084 z m -1.607695,6.000002 c 2.209138,0.591939 3.520137,2.862659 2.928201,5.071796 -0.591937,2.209139 -2.862658,3.520141 -5.071797,2.928205 -2.20914,-0.591938 -3.520141,-2.862659 -2.928203,-5.071799 0.03556,-0.133083 0.07774,-0.264308 0.126369,-0.393187 0.752589,-1.989913 2.890574,-3.085815 4.945505,-2.534997 z"
     style="fill:#1b70da;fill-opacity:1;stroke:none;stroke-width:2.07055259px;stroke-linecap:butt;stroke-linejoin:miter;stroke-opacity:1" />
  <path
     id="path882"
     d="m 50.679483,37.999996 -5.359012,9.8e-5 0.08758,2.141937 a 8.2822111,8.2822111 0 0 0 -2.920139,1.679336 l -1.808325,-1.141852 -2.679591,4.640989 1.900977,0.999213 a 8.2822111,8.2822111 0 0 0 -6.39e-4,3.361753 l -1.90024,0.998045 2.67942,4.640893 1.809503,-1.143776 a 8.2822111,8.2822111 0 0 0 2.914543,1.685282 L 45.3205,58 l 5.359009,-1e-4 -0.08758,-2.141935 a 8.2822111,8.2822111 0 0 0 2.920141,-1.679336 l 1.808327,1.141854 2.679588,-4.640994 -1.900974,-0.99921 a 8.2822111,8.2822111 0 0 0 6.36e-4,-3.361752 l 1.900248,-0.998046 -2.679418,-4.640896 -1.809506,1.143776 a 8.2822111,8.2822111 0 0 0 -2.914549,-1.685282 z m -1.607695,6.000001 a 4.1411057,4.1411057 0 0 1 2.9282,5.071797 4.1411057,4.1411057 0 0 1 -5.071796,2.928205 4.1411057,4.1411057 0 0 1 -2.928203,-5.0718 4.1411057,4.1411057 0 0 1 0.126369,-0.393186 4.1411057,4.1411057 0 0 1 4.945506,-2.534998 z"
     style="fill:#ffffff;stroke:none;stroke-width:2.07055259px;stroke-linecap:butt;stroke-linejoin:miter;stroke-opacity:1" />
</svg>
