<svg version="1" viewBox="0 0 32 32" width="32" height="32" xmlns="http://www.w3.org/2000/svg">
 <path d="m17 30c3.5438 0 6-0.76288 6-2v-5h-7v-1h11c1.6105-0.03074 3-2.7526 3-6s-1.3912-5.9226-3-6h-4v4c0 2.24-0.74484 3-3 3h-7c-1.6108 0-2.1586 1.4618-2 3v8c0 1.2371 2.4562 2 6 2zm2.5-2c-0.82843 0-1.5-0.67157-1.5-1.5s0.67157-1.5 1.5-1.5 1.5 0.67157 1.5 1.5-0.67157 1.5-1.5 1.5z" fill="#f6d32d"/>
 <path d="m15 2c-3.5438 0-6 0.76288-6 2v5h7v1h-11c-1.6105 0.03074-3 2.7526-3 6-1e-7 3.2474 1.3912 5.9226 3 6h4v-4c0-2.24 0.74484-3 3-3h7c1.6108 0 2.1586-1.4618 2-3v-8c0-1.2371-2.4562-2-6-2zm-2.5 2c0.82843 0 1.5 0.67157 1.5 1.5s-0.67157 1.5-1.5 1.5-1.5-0.67157-1.5-1.5 0.67157-1.5 1.5-1.5z" fill="#3584e4"/>
 <rect x="16" y="16" width="16" height="16" ry="1" fill="#f6f5f4"/>
 <path d="m23 17-0.77734 2.332a5 5 0 0 0-0.26758 0.10938l-2.1973-1.0977-1.4141 1.4141 1.0996 2.1992a5 5 0 0 0-0.11523 0.26562l-2.3281 0.77734v2l2.332 0.77734a5 5 0 0 0 0.10938 0.26758l-1.0977 2.1973 1.4141 1.4141 2.1992-1.0996a5 5 0 0 0 0.26562 0.11523l0.77734 2.3281h2l0.77734-2.332a5 5 0 0 0 0.26758-0.10938l2.1973 1.0977 1.4141-1.4141-1.0996-2.1992a5 5 0 0 0 0.11523-0.26562l2.3281-0.77734v-2l-2.332-0.77734a5 5 0 0 0-0.10938-0.26758l1.0977-2.1973-1.4141-1.4141-2.1992 1.0996a5 5 0 0 0-0.26562-0.11523l-0.77734-2.3281zm1 3a4 4 0 0 0-0.33789 0.01758 4 4 0 0 1 0.33789-0.01758zm0.33789 0.01758a4 4 0 0 1 0.21094 0.02539 4 4 0 0 0-0.21094-0.02539zm-0.88672 0.02539a4 4 0 0 0-0.18555 0.02734 4 4 0 0 1 0.18555-0.02734zm1.2832 0.02734a4 4 0 0 1 0.22266 0.05078 4 4 0 0 0-0.22266-0.05078zm-1.6914 0.05078a4 4 0 0 0-0.1543 0.03906 4 4 0 0 1 0.1543-0.03906zm2.0684 0.03906a4 4 0 0 1 0.21484 0.07031 4 4 0 0 0-0.21484-0.07031zm-2.4375 0.07031a4 4 0 0 0-0.17969 0.06641 4 4 0 0 1 0.17969-0.06641zm2.832 0.06641a4 4 0 0 1 0.17383 0.07813 4 4 0 0 0-0.17383-0.07813zm-3.1855 0.07813a4 4 0 0 0-0.18555 0.08984 4 4 0 0 1 0.18555-0.08984zm3.5449 0.08984a4 4 0 0 1 0.16406 0.09375 4 4 0 0 0-0.16406-0.09375zm-3.8945 0.09375a4 4 0 0 0-0.1875 0.11523 4 4 0 0 1 0.1875-0.11523zm4.2461 0.11523a4 4 0 0 1 0.13476 0.09766 4 4 0 0 0-0.13476-0.09766zm-4.5684 0.09766a4 4 0 0 0-0.18555 0.14062 4 4 0 0 1 0.18555-0.14062zm4.8887 0.14062a4 4 0 0 1 0.12891 0.11328 4 4 0 0 0-0.12891-0.11328zm-2.5371 0.08789a3 3 0 0 1 3 3 3 3 0 0 1-3 3 3 3 0 0 1-3-3 3 3 0 0 1 3-3zm-2.666 0.02539a4 4 0 0 0-0.16016 0.14844 4 4 0 0 1 0.03906-0.04297 4 4 0 0 1 0.12109-0.10547zm5.4922 0.14844a4 4 0 0 1 0.04297 0.03906 4 4 0 0 1 0.10547 0.12109 4 4 0 0 0-0.14844-0.16016zm-5.8008 0.16016a4 4 0 0 0-0.11328 0.12891 4 4 0 0 1 0.11328-0.12891zm6.0625 0.12891a4 4 0 0 1 0.14062 0.18555 4 4 0 0 0-0.14062-0.18555zm-6.3164 0.18555a4 4 0 0 0-0.09766 0.13476 4 4 0 0 1 0.09766-0.13476zm6.5547 0.13476a4 4 0 0 1 0.11523 0.1875 4 4 0 0 0-0.11523-0.1875zm-6.7676 0.1875a4 4 0 0 0-0.09375 0.16406 4 4 0 0 1 0.09375-0.16406zm6.9766 0.16406a4 4 0 0 1 0.08984 0.18555 4 4 0 0 0-0.08984-0.18555zm-7.1602 0.18555a4 4 0 0 0-0.07813 0.17383 4 4 0 0 1 0.07813-0.17383zm7.3281 0.17383a4 4 0 0 1 0.06641 0.17969 4 4 0 0 0-0.06641-0.17969zm-7.4727 0.17969a4 4 0 0 0-0.07031 0.21484 4 4 0 0 1 0.07031-0.21484zm7.6094 0.21484a4 4 0 0 1 0.03906 0.1543 4 4 0 0 0-0.03906-0.1543zm-7.7188 0.1543a4 4 0 0 0-0.05078 0.22266 4 4 0 0 1 0.05078-0.22266zm7.8086 0.22266a4 4 0 0 1 0.02734 0.18555 4 4 0 0 0-0.02734-0.18555zm-7.8867 0.18555a4 4 0 0 0-0.02539 0.21094 4 4 0 0 1 0.02539-0.21094zm7.9395 0.21094a4 4 0 0 1 0.01758 0.33789 4 4 0 0 0-0.01758-0.33789zm-7.9824 0.33789a4 4 0 0 0 0.01758 0.33789 4 4 0 0 1-0.01758-0.33789zm7.9824 0.33789a4 4 0 0 1-0.02539 0.21094 4 4 0 0 0 0.02539-0.21094zm-7.9395 0.21094a4 4 0 0 0 0.02734 0.18555 4 4 0 0 1-0.02734-0.18555zm7.8867 0.18555a4 4 0 0 1-0.05078 0.22266 4 4 0 0 0 0.05078-0.22266zm-7.8086 0.22266a4 4 0 0 0 0.03906 0.1543 4 4 0 0 1-0.03906-0.1543zm7.7188 0.1543a4 4 0 0 1-0.07031 0.21484 4 4 0 0 0 0.07031-0.21484zm-7.6094 0.21484a4 4 0 0 0 0.06641 0.17969 4 4 0 0 1-0.06641-0.17969zm7.4727 0.17969a4 4 0 0 1-0.07813 0.17383 4 4 0 0 0 0.07813-0.17383zm-7.3281 0.17383a4 4 0 0 0 0.08984 0.18555 4 4 0 0 1-0.08984-0.18555zm7.1602 0.18555a4 4 0 0 1-0.09375 0.16406 4 4 0 0 0 0.09375-0.16406zm-6.9766 0.16406a4 4 0 0 0 0.11523 0.1875 4 4 0 0 1-0.11523-0.1875zm6.7676 0.1875a4 4 0 0 1-0.09766 0.13476 4 4 0 0 0 0.09766-0.13476zm-6.5547 0.13476a4 4 0 0 0 0.14062 0.18555 4 4 0 0 1-0.14062-0.18555zm6.3164 0.18555a4 4 0 0 1-0.11328 0.12891 4 4 0 0 0 0.11328-0.12891zm-6.0625 0.12891a4 4 0 0 0 0.14844 0.16016 4 4 0 0 1-0.04297-0.03906 4 4 0 0 1-0.10547-0.12109zm5.8008 0.16016a4 4 0 0 1-0.03906 0.04297 4 4 0 0 1-0.12109 0.10547 4 4 0 0 0 0.16016-0.14844zm-5.4922 0.14844a4 4 0 0 0 0.12891 0.11328 4 4 0 0 1-0.12891-0.11328zm5.2031 0.11328a4 4 0 0 1-0.18555 0.14062 4 4 0 0 0 0.18555-0.14062zm-4.8887 0.14062a4 4 0 0 0 0.13476 0.09766 4 4 0 0 1-0.13476-0.09766zm4.5684 0.09766a4 4 0 0 1-0.1875 0.11523 4 4 0 0 0 0.1875-0.11523zm-4.2461 0.11523a4 4 0 0 0 0.16406 0.09375 4 4 0 0 1-0.16406-0.09375zm3.8945 0.09375a4 4 0 0 1-0.18555 0.08984 4 4 0 0 0 0.18555-0.08984zm-3.5449 0.08984a4 4 0 0 0 0.17383 0.07813 4 4 0 0 1-0.17383-0.07813zm3.1855 0.07813a4 4 0 0 1-0.17969 0.06641 4 4 0 0 0 0.17969-0.06641zm-2.832 0.06641a4 4 0 0 0 0.21484 0.07031 4 4 0 0 1-0.21484-0.07031zm2.4375 0.07031a4 4 0 0 1-0.1543 0.03906 4 4 0 0 0 0.1543-0.03906zm-2.0684 0.03906a4 4 0 0 0 0.22266 0.05078 4 4 0 0 1-0.22266-0.05078zm1.6914 0.05078a4 4 0 0 1-0.18555 0.02734 4 4 0 0 0 0.18555-0.02734zm-1.2832 0.02734a4 4 0 0 0 0.21094 0.02539 4 4 0 0 1-0.21094-0.02539zm0.88672 0.02539a4 4 0 0 1-0.33789 0.01758 4 4 0 0 0 0.33789-0.01758z" fill="#3d3846"/>
</svg>
