<svg version="1.1" viewBox="0 0 32 32" width="32" height="32" xmlns="http://www.w3.org/2000/svg">
 <rect x="2" y="6" width="28" height="22" fill="#f6f5f4"/>
 <rect x="2" y="4" width="28" height="3" ry="1" fill="#c0bfbc"/>
 <rect x="2" y="6" width="28" height="1" fill="#c0bfbc"/>
 <g fill="#9a9996">
  <rect x="2" y="7" width="1" height="21"/>
  <rect x="2" y="27" width="28" height="1"/>
  <rect x="29" y="7" width="1" height="21"/>
  <rect x="2" y="7" width="28" height="1"/>
 </g>
 <g fill="#3d3846">
  <rect x="28" y="5" width="1" height="1" ry=".5"/>
  <rect x="26" y="5" width="1" height="1" ry=".5"/>
  <rect x="24" y="5" width="1" height="1" ry=".5"/>
 </g>
 <g transform="matrix(.84117 .95371 -.95371 .84117 17.44 -15.147)">
  <path d="m20.223 15.96 0.33221 1.218-1.6056-0.66441-4.4849-0.66441-0.16602 0.8306-1.3841-0.99662-4.6661-1.2417 0.458 2.1829s-2.1072-1.151-3.4798-2.3724l-1.2263 1.5972s2.2665 5.1459 9.6305 3.7617l-0.18614 1.0637 7.7194-1.0201 0.22142 0.86236s1.8029-0.88344 2.6577-2.1206c0.07758-0.11239-6.0349 1.5502-12.125-0.22158l0.38744-0.16602s6.4918 1.4118 11.738 0c0 0 0.12468-0.06498 0.04166-0.77105 0 0-2.4086-1.2776-3.862-1.2776" fill="#1a5fb4"/>
  <g fill="#3d3846">
   <path d="m11.369 17.632s3.3315 0.74711 8.7328 0.53207c1.6202-0.0645 3.1094-0.24169 4.4009-0.458l1.59e-4 -0.0012c1.1339-0.14064 1.5445-0.23483 2.9108-0.60184l0.88136 0.0214s-9.3818 2.9383-16.926 0.50765"/>
   <path d="m8.4804 15.828s-0.32917-0.6609-0.4489-1.6082c0 0 1.8979-1.0354 5.1386 1.5129 0 0-3.3937-1.5202-4.4569-1.1617 0 0-0.24919 0.40101-0.23275 1.257"/>
   <path d="m14.178 16.141s0.13745-0.59353-0.09338-0.87833c0 0 2.1906 0.56129 3.3957 0.4141 1.2049-0.14719 1.9763 0.91456 1.9763 0.91456s-1.1443-0.90435-2.0764-0.62019c-0.64605 0.19715-2.2994-0.02331-2.8245-0.27202 0 0-0.03256 0.23228-0.3777 0.44188"/>
   <path d="m19.949 16.728s-0.11733-0.98066-0.61269-1.0836c0 0 2.9629-0.12005 4.1839 1.2425 0 0-1.6216-1.0397-3.2991-0.87657l-0.27218 0.71773"/>
   <path d="m21.182 19.486s0.35408 0.31624-0.42719 1.2653c0 0 1.9915-0.30235 2.903-2.1805 0 0-0.97379 1.2926-2.0256 1.6408 0 0-0.13457-0.45672-0.45018-0.72555"/>
   <path d="m20.427 19.789s-3.2569 1.2832-7.6578 1.0083c0 0 0.79707-0.2998 1.0764-1.2629 0 0 0.09291 0.45385 0.05268 0.71901 0 0 1.8579 0.67128 6.5287-0.46439"/>
   <path d="m5.2932 14.399s-3.5339 0.48099 0.039909 3.4894c2.8457 2.3955 5.2617 2.1099 6.6096 1.9631 0.34482-0.03752-3.6 0.44571-6.1959-2.1789-2.596-2.6244-0.60439-3.2173-0.45369-3.2735"/>
  </g>
 </g>
 <rect x="16" y="16" width="16" height="16" ry="1" fill="#f6f5f4"/>
 <path d="m23 17-0.77734 2.332c-0.09023 0.03387-0.17946 0.07034-0.26758 0.10938l-2.1973-1.0977-1.4141 1.4141 1.0996 2.1992c-0.04097 0.08741-0.07939 0.17599-0.11523 0.26562l-2.3281 0.77734v2l2.332 0.77734c0.03387 0.09023 0.07034 0.17946 0.10938 0.26758l-1.0977 2.1973 1.4141 1.4141 2.1992-1.0996c0.08741 0.04097 0.17599 0.0794 0.26562 0.11523l0.77734 2.3281h2l0.77734-2.332c0.09023-0.03387 0.17946-0.07034 0.26758-0.10938l2.1973 1.0977 1.4141-1.4141-1.0996-2.1992c0.04097-0.08741 0.0794-0.17599 0.11523-0.26562l2.3281-0.77734v-2l-2.332-0.77734c-0.03387-0.09023-0.07034-0.17946-0.10938-0.26758l1.0977-2.1973-1.4141-1.4141-2.1992 1.0996c-0.08741-0.04097-0.17599-0.0794-0.26562-0.11523l-0.77734-2.3281zm1 4c1.6569 0 3 1.3431 3 3s-1.3431 3-3 3-3-1.3431-3-3 1.3431-3 3-3z" fill="#3d3846"/>
</svg>
