<?xml version="1.0" encoding="UTF-8" standalone="no"?>
<!-- Created with Inkscape (http://www.inkscape.org/) -->

<svg
   xmlns:dc="http://purl.org/dc/elements/1.1/"
   xmlns:cc="http://creativecommons.org/ns#"
   xmlns:rdf="http://www.w3.org/1999/02/22-rdf-syntax-ns#"
   xmlns:svg="http://www.w3.org/2000/svg"
   xmlns="http://www.w3.org/2000/svg"
   xmlns:xlink="http://www.w3.org/1999/xlink"
   xmlns:sodipodi="http://sodipodi.sourceforge.net/DTD/sodipodi-0.dtd"
   xmlns:inkscape="http://www.inkscape.org/namespaces/inkscape"
   version="1.1"
   width="708.66138"
   height="708.66138"
   id="svg559"
   inkscape:version="0.48.4 r9939"
   sodipodi:docname="pattern-e17.svg">
  <sodipodi:namedview
     pagecolor="#ffffff"
     bordercolor="#666666"
     borderopacity="1"
     objecttolerance="10"
     gridtolerance="10"
     guidetolerance="10"
     inkscape:pageopacity="0"
     inkscape:pageshadow="2"
     inkscape:window-width="1080"
     inkscape:window-height="1893"
     id="namedview3199"
     showgrid="true"
     inkscape:zoom="1"
     inkscape:cx="347.21805"
     inkscape:cy="405.31972"
     inkscape:window-x="0"
     inkscape:window-y="0"
     inkscape:window-maximized="1"
     inkscape:current-layer="svg559"
     fit-margin-top="0"
     fit-margin-left="0"
     fit-margin-right="0"
     fit-margin-bottom="0"
     units="mm"
     inkscape:document-units="mm">
    <inkscape:grid
       type="xygrid"
       id="grid3373"
       empspacing="5"
       visible="true"
       enabled="true"
       snapvisiblegridlinesonly="true"
       units="mm"
       spacingx="50mm"
       spacingy="50mm" />
  </sodipodi:namedview>
  <metadata
     id="metadata2189">
    <rdf:RDF>
      <cc:Work
         rdf:about="">
        <dc:format>image/svg+xml</dc:format>
        <dc:type
           rdf:resource="http://purl.org/dc/dcmitype/StillImage" />
        <dc:title />
      </cc:Work>
    </rdf:RDF>
  </metadata>
  <defs
     id="defs561">
    <linearGradient
       id="linearGradient3509">
      <stop
         id="stop3511"
         style="stop-color:#ffffff;stop-opacity:1"
         offset="0" />
      <stop
         id="stop3513"
         style="stop-color:#ffffff;stop-opacity:0"
         offset="1" />
    </linearGradient>
    <linearGradient
       id="linearGradient3262">
      <stop
         id="stop3264"
         style="stop-color:#ffffff;stop-opacity:1"
         offset="0" />
      <stop
         id="stop3274"
         style="stop-color:#ffffff;stop-opacity:0.74901962"
         offset="0.15000001" />
      <stop
         id="stop3270"
         style="stop-color:#ffffff;stop-opacity:0.49803922"
         offset="0.34999999" />
      <stop
         id="stop3272"
         style="stop-color:#ffffff;stop-opacity:0.24705882"
         offset="0.60000002" />
      <stop
         id="stop3266"
         style="stop-color:#ffffff;stop-opacity:0"
         offset="1" />
    </linearGradient>
    <clipPath
       id="clipPath3307">
      <path
         d="m 381.9375,173.625 c -4.21332,42.13349 -10.03577,69.83124 -25.84375,78.53125 -17.27681,-5.22916 -28.69236,-31.13179 -41.53125,-71.5 4.55458,41.77797 4.61095,69.96794 -8.75,81.90625 -17.78835,-1.97776 -34.12725,-24.95431 -54.71875,-61.53125 13.0555,40.28403 18.83303,67.99943 7.84375,82.3125 -17.92384,2.14967 -38.78383,-16.95958 -66.75,-48.78125 21.06376,36.64714 32.42682,62.49985 24.71875,78.78125 -17.09049,5.60535 -41.41105,-8.8058 -75.1875,-34.09375 29.644,33.20511 46.34805,56.93535 39.59375,74.78125 10.6708,-14.25291 11.8868,-15.56615 17.875,-22.09375 5.58938,-6.09263 7.37985,-7.9614 18.34375,-17.78125 11.25046,-9.85812 13.26854,-11.37709 20.03125,-16.21875 6.9067,-4.94451 8.83177,-6.27851 22.5625,-14.1875 12.33451,-6.91037 14.78922,-8.04241 22.25,-11.3125 7.67774,-3.365 9.96838,-4.30144 24.5,-9.03125 13.208,-4.16737 15.8721,-4.79736 23.78125,-6.46875 8.26034,-1.7456 10.635,-2.20061 26.125,-3.90625 14.30407,-1.40317 16.96055,-1.46875 25.15625,-1.46875 8.85831,0 10.62725,0.01 28.34375,1.78125 13.10212,1.46659 15.92269,1.98412 23.6875,3.625 8.06288,1.70388 10.58999,2.32122 24.5,6.71875 13.79956,4.49943 16.24747,5.47934 23.78125,8.78125 7.46078,3.27009 9.91548,4.40213 22.25,11.3125 13.73073,7.90899 15.6558,9.24299 22.5625,14.1875 6.76271,4.84166 8.78078,6.36063 20.03125,16.21875 10.96381,9.82023 12.75437,11.68862 18.34375,17.78125 5.9882,6.5276 7.20417,7.84084 17.875,22.09375 -6.7543,-17.8459 9.94974,-41.57614 39.59375,-74.78125 -33.81975,25.32037 -58.12733,39.7259 -75.21875,34.0625 -7.65797,-16.28458 3.70927,-42.1429 24.75,-78.75 -27.95029,31.80361 -48.80176,50.9368 -66.71875,48.8125 -11.02566,-14.30287 -5.25367,-41.9956 7.8125,-82.3125 -20.60326,36.59783 -36.94985,59.54509 -54.75,61.5 -13.32788,-11.95522 -13.26959,-40.13141 -8.71875,-81.875 -12.94605,40.70516 -24.44869,66.66946 -41.96875,71.59375 -16.04038,-8.50889 -21.91562,-36.28182 -26.15625,-78.6875 z m 2.875,99.96875 c -1.37635,-0.005 -2.74998,0.0116 -4.125,0.0312 -73.3345,1.04709 -144.47788,37.47275 -186.65625,100.09375 -64.58021,97.0834 -49.12115,239.6031 62.40625,315.125 97.5272,64.4282 188.99395,36.13015 245.03125,5.03125 l -28,-48 c -60.39979,31.845 -131.1568,35.6623 -185.6875,-1.4375 -83.8576,-55.5432 -100.3532,-164.68105 -48.6875,-241.09375 50.833,-76.6977 156.02335,-100.0685 239.21875,-45.125 87.58159,59.3819 82.48805,162.54275 60.78125,208.71875 -9.5889,-6.5965 -19.19235,-13.18475 -28.78125,-19.78125 24.9959,-64.76217 -0.4447,-128.6783 -50.5,-162.1875 C 400.92381,345.54616 315.4392,352.2459 267.625,423.5 c -9.3484,14.13429 -9.36225,14.1554 -14.53125,28.0625 l 298.09375,199 c 12.3337,-12.84288 12.33425,-12.8473 20.21875,-24.625 67.0184,-100.11068 43.6842,-243.6293 -62.125,-314 -38.5768,-25.99295 -81.80179,-38.17927 -124.46875,-38.34375 z m 199.21875,371.5625 C 573.36046,659.40917 572.1757,660.7224 566.1875,667.25 c -5.67597,6.18706 -7.37489,7.95144 -18.8125,18.1875 -10.78937,9.44575 -12.93545,11.04559 -19.59375,15.8125 -6.50994,4.6605 -8.81667,6.24434 -20.5,13 -14.45549,8.12762 -16.40361,9.00226 -24.3125,12.46875 -7.53219,3.30119 -9.95847,4.31559 -23.75,8.8125 -13.91784,4.40011 -16.46669,5.01452 -24.53125,6.71875 -7.85097,1.6591 -10.59954,2.15064 -24.09375,3.65625 -17.21414,1.71782 -19.13867,1.71873 -27.90625,1.71875 -8.3454,0 -10.85061,-0.0498 -25.875,-1.53125 -14.78143,-1.63437 -17.28607,-2.09654 -25.40625,-3.8125 -8.06456,-1.70423 -10.6134,-2.31866 -24.53125,-6.71875 -13.79154,-4.49691 -16.21783,-5.48003 -23.75,-8.78125 -7.61208,-3.3364 -9.91741,-4.41451 -22.9375,-11.71875 -13.0274,-7.51241 -15.13014,-8.93022 -21.90625,-13.78125 -6.76271,-4.84166 -8.78078,-6.36064 -20.03125,-16.21875 -10.96381,-9.82023 -12.75438,-11.68864 -18.34375,-17.78125 -5.9882,-6.5276 -7.17295,-7.84086 -17.84375,-22.09375 6.7543,17.8459 -9.94976,41.57613 -39.59375,74.78125 33.79501,-25.30185 58.09802,-39.72364 75.1875,-34.09375 7.68616,16.2828 -3.69629,42.15158 -24.75,78.78125 27.97352,-31.83003 48.85426,-50.9427 66.78125,-48.78125 10.98226,14.31504 5.17844,42.03478 -7.875,82.3125 20.60326,-36.59783 36.94985,-59.57633 54.75,-61.53125 13.32788,11.95522 13.26959,40.16269 8.71875,81.90625 12.83495,-40.35584 24.26333,-66.25976 41.53125,-71.5 15.8262,8.68509 21.65955,36.37632 25.875,78.53125 4.24063,-42.40568 10.11585,-70.1786 26.15625,-78.6875 17.51525,4.93035 29.02481,30.89523 41.96875,71.59375 -4.55046,-41.74012 -4.63704,-69.91807 8.6875,-81.875 17.8025,1.95036 34.14441,24.89803 54.75,61.5 -13.06398,-40.31026 -18.83081,-68.00757 -7.8125,-82.3125 17.92005,-2.1356 38.76138,17.00084 66.71875,48.8125 -21.04075,-36.6071 -32.40797,-62.46542 -24.75,-78.75 17.09141,-5.66339 41.399,8.74213 75.21875,34.0625 -29.64397,-33.20509 -46.34805,-56.93535 -39.59375,-74.78125 z"
         id="path3309"
         style="font-size:12px;fill:#000000;fill-opacity:1;fill-rule:evenodd;stroke:none"
         inkscape:connector-curvature="0" />
    </clipPath>
    <clipPath
       id="clipPath3311">
      <path
         d="m 381.9375,173.625 c -4.21332,42.13349 -10.03577,69.83124 -25.84375,78.53125 -17.27681,-5.22916 -28.69236,-31.13179 -41.53125,-71.5 4.55458,41.77797 4.61095,69.96794 -8.75,81.90625 -17.78835,-1.97776 -34.12725,-24.95431 -54.71875,-61.53125 13.0555,40.28403 18.83303,67.99943 7.84375,82.3125 -17.92384,2.14967 -38.78383,-16.95958 -66.75,-48.78125 21.06376,36.64714 32.42682,62.49985 24.71875,78.78125 -17.09049,5.60535 -41.41105,-8.8058 -75.1875,-34.09375 29.644,33.20511 46.34805,56.93535 39.59375,74.78125 10.6708,-14.25291 11.8868,-15.56615 17.875,-22.09375 5.58938,-6.09263 7.37985,-7.9614 18.34375,-17.78125 11.25046,-9.85812 13.26854,-11.37709 20.03125,-16.21875 6.9067,-4.94451 8.83177,-6.27851 22.5625,-14.1875 12.33451,-6.91037 14.78922,-8.04241 22.25,-11.3125 7.67774,-3.365 9.96838,-4.30144 24.5,-9.03125 13.208,-4.16737 15.8721,-4.79736 23.78125,-6.46875 8.26034,-1.7456 10.635,-2.20061 26.125,-3.90625 14.30407,-1.40317 16.96055,-1.46875 25.15625,-1.46875 8.85831,0 10.62725,0.01 28.34375,1.78125 13.10212,1.46659 15.92269,1.98412 23.6875,3.625 8.06288,1.70388 10.58999,2.32122 24.5,6.71875 13.79956,4.49943 16.24747,5.47934 23.78125,8.78125 7.46078,3.27009 9.91548,4.40213 22.25,11.3125 13.73073,7.90899 15.6558,9.24299 22.5625,14.1875 6.76271,4.84166 8.78078,6.36063 20.03125,16.21875 10.96381,9.82023 12.75437,11.68862 18.34375,17.78125 5.9882,6.5276 7.20417,7.84084 17.875,22.09375 -6.7543,-17.8459 9.94974,-41.57614 39.59375,-74.78125 -33.81975,25.32037 -58.12733,39.7259 -75.21875,34.0625 -7.65797,-16.28458 3.70927,-42.1429 24.75,-78.75 -27.95029,31.80361 -48.80176,50.9368 -66.71875,48.8125 -11.02566,-14.30287 -5.25367,-41.9956 7.8125,-82.3125 -20.60326,36.59783 -36.94985,59.54509 -54.75,61.5 -13.32788,-11.95522 -13.26959,-40.13141 -8.71875,-81.875 -12.94605,40.70516 -24.44869,66.66946 -41.96875,71.59375 -16.04038,-8.50889 -21.91562,-36.28182 -26.15625,-78.6875 z m 2.875,99.96875 c -1.37635,-0.005 -2.74998,0.0116 -4.125,0.0312 -73.3345,1.04709 -144.47788,37.47275 -186.65625,100.09375 -64.58021,97.0834 -49.12115,239.6031 62.40625,315.125 97.5272,64.4282 188.99395,36.13015 245.03125,5.03125 l -28,-48 c -60.39979,31.845 -131.1568,35.6623 -185.6875,-1.4375 -83.8576,-55.5432 -100.3532,-164.68105 -48.6875,-241.09375 50.833,-76.6977 156.02335,-100.0685 239.21875,-45.125 87.58159,59.3819 82.48805,162.54275 60.78125,208.71875 -9.5889,-6.5965 -19.19235,-13.18475 -28.78125,-19.78125 24.9959,-64.76217 -0.4447,-128.6783 -50.5,-162.1875 C 400.92381,345.54616 315.4392,352.2459 267.625,423.5 c -9.3484,14.13429 -9.36225,14.1554 -14.53125,28.0625 l 298.09375,199 c 12.3337,-12.84288 12.33425,-12.8473 20.21875,-24.625 67.0184,-100.11068 43.6842,-243.6293 -62.125,-314 -38.5768,-25.99295 -81.80179,-38.17927 -124.46875,-38.34375 z m 199.21875,371.5625 C 573.36046,659.40917 572.1757,660.7224 566.1875,667.25 c -5.67597,6.18706 -7.37489,7.95144 -18.8125,18.1875 -10.78937,9.44575 -12.93545,11.04559 -19.59375,15.8125 -6.50994,4.6605 -8.81667,6.24434 -20.5,13 -14.45549,8.12762 -16.40361,9.00226 -24.3125,12.46875 -7.53219,3.30119 -9.95847,4.31559 -23.75,8.8125 -13.91784,4.40011 -16.46669,5.01452 -24.53125,6.71875 -7.85097,1.6591 -10.59954,2.15064 -24.09375,3.65625 -17.21414,1.71782 -19.13867,1.71873 -27.90625,1.71875 -8.3454,0 -10.85061,-0.0498 -25.875,-1.53125 -14.78143,-1.63437 -17.28607,-2.09654 -25.40625,-3.8125 -8.06456,-1.70423 -10.6134,-2.31866 -24.53125,-6.71875 -13.79154,-4.49691 -16.21783,-5.48003 -23.75,-8.78125 -7.61208,-3.3364 -9.91741,-4.41451 -22.9375,-11.71875 -13.0274,-7.51241 -15.13014,-8.93022 -21.90625,-13.78125 -6.76271,-4.84166 -8.78078,-6.36064 -20.03125,-16.21875 -10.96381,-9.82023 -12.75438,-11.68864 -18.34375,-17.78125 -5.9882,-6.5276 -7.17295,-7.84086 -17.84375,-22.09375 6.7543,17.8459 -9.94976,41.57613 -39.59375,74.78125 33.79501,-25.30185 58.09802,-39.72364 75.1875,-34.09375 7.68616,16.2828 -3.69629,42.15158 -24.75,78.78125 27.97352,-31.83003 48.85426,-50.9427 66.78125,-48.78125 10.98226,14.31504 5.17844,42.03478 -7.875,82.3125 20.60326,-36.59783 36.94985,-59.57633 54.75,-61.53125 13.32788,11.95522 13.26959,40.16269 8.71875,81.90625 12.83495,-40.35584 24.26333,-66.25976 41.53125,-71.5 15.8262,8.68509 21.65955,36.37632 25.875,78.53125 4.24063,-42.40568 10.11585,-70.1786 26.15625,-78.6875 17.51525,4.93035 29.02481,30.89523 41.96875,71.59375 -4.55046,-41.74012 -4.63704,-69.91807 8.6875,-81.875 17.8025,1.95036 34.14441,24.89803 54.75,61.5 -13.06398,-40.31026 -18.83081,-68.00757 -7.8125,-82.3125 17.92005,-2.1356 38.76138,17.00084 66.71875,48.8125 -21.04075,-36.6071 -32.40797,-62.46542 -24.75,-78.75 17.09141,-5.66339 41.399,8.74213 75.21875,34.0625 -29.64397,-33.20509 -46.34805,-56.93535 -39.59375,-74.78125 z"
         id="path3313"
         style="font-size:12px;fill:#000000;fill-opacity:1;fill-rule:evenodd;stroke:none"
         inkscape:connector-curvature="0" />
    </clipPath>
    <filter
       color-interpolation-filters="sRGB"
       id="filter3366">
      <feGaussianBlur
         id="feGaussianBlur3368"
         stdDeviation="14.173227" />
    </filter>
    <linearGradient
       x1="382.54953"
       y1="280.10577"
       x2="382.54953"
       y2="557.28046"
       id="linearGradient3532"
       xlink:href="#linearGradient3509"
       gradientUnits="userSpaceOnUse"
       gradientTransform="translate(483.23468,-320.05191)" />
    <linearGradient
       x1="386.75247"
       y1="362.86322"
       x2="386.75247"
       y2="542.24011"
       id="linearGradient3542"
       xlink:href="#linearGradient3509"
       gradientUnits="userSpaceOnUse"
       gradientTransform="translate(609.2007,-383.81249)" />
    <radialGradient
       cx="524.92188"
       cy="558.96472"
       r="17.515625"
       fx="524.92188"
       fy="558.96472"
       id="radialGradient3550"
       xlink:href="#linearGradient3509"
       gradientUnits="userSpaceOnUse"
       gradientTransform="matrix(0.534932,-0.844895,1,0.633135,168.39468,510.467)" />
    <linearGradient
       x1="419.64124"
       y1="670.63263"
       x2="232.28918"
       y2="457.54633"
       id="linearGradient3558"
       xlink:href="#linearGradient3509"
       gradientUnits="userSpaceOnUse"
       gradientTransform="translate(-130.30422,-101.11715)" />
    <linearGradient
       x1="472.21875"
       y1="648.46875"
       x2="499.21875"
       y2="694.03125"
       id="linearGradient3566"
       xlink:href="#linearGradient3509"
       gradientUnits="userSpaceOnUse"
       gradientTransform="translate(556.32608,-246.96052)" />
    <linearGradient
       x1="381.34219"
       y1="191.93869"
       x2="383.04688"
       y2="247.90936"
       id="linearGradient3574"
       xlink:href="#linearGradient3509"
       gradientUnits="userSpaceOnUse"
       gradientTransform="translate(-107.717,-138.101)" />
    <linearGradient
       x1="318.69376"
       y1="198.74815"
       x2="318.86661"
       y2="255.63063"
       id="linearGradient3582"
       xlink:href="#linearGradient3509"
       gradientUnits="userSpaceOnUse"
       gradientTransform="translate(-107.717,-138.101)" />
    <linearGradient
       x1="445.7951"
       y1="198.44858"
       x2="438.59241"
       y2="255.81599"
       id="linearGradient3590"
       xlink:href="#linearGradient3509"
       gradientUnits="userSpaceOnUse"
       gradientTransform="translate(-107.717,-138.101)" />
    <linearGradient
       x1="257.7309"
       y1="240.82478"
       x2="300.71875"
       y2="240.82478"
       id="linearGradient3604"
       xlink:href="#linearGradient3509"
       gradientUnits="userSpaceOnUse"
       gradientTransform="translate(-107.717,-138.101)" />
    <linearGradient
       x1="202.37982"
       y1="249.44212"
       x2="245.95103"
       y2="286.28125"
       id="linearGradient3612"
       xlink:href="#linearGradient3509"
       gradientUnits="userSpaceOnUse"
       gradientTransform="translate(-107.717,-138.101)" />
    <linearGradient
       x1="154.62117"
       y1="291.5267"
       x2="210.60495"
       y2="315.24637"
       id="linearGradient3630"
       xlink:href="#linearGradient3509"
       gradientUnits="userSpaceOnUse"
       gradientTransform="translate(-107.717,-138.101)" />
    <linearGradient
       x1="506.375"
       y1="218.1875"
       x2="475.69058"
       y2="264.98077"
       id="linearGradient3640"
       xlink:href="#linearGradient3509"
       gradientUnits="userSpaceOnUse"
       gradientTransform="translate(-107.717,-138.101)" />
    <linearGradient
       x1="560.27661"
       y1="249.84375"
       x2="514.25"
       y2="285.78125"
       id="linearGradient3650"
       xlink:href="#linearGradient3509"
       gradientUnits="userSpaceOnUse"
       gradientTransform="translate(-107.717,-138.101)" />
    <linearGradient
       x1="609.40625"
       y1="291.875"
       x2="558.26556"
       y2="319.74561"
       id="linearGradient3658"
       xlink:href="#linearGradient3509"
       gradientUnits="userSpaceOnUse"
       gradientTransform="translate(-107.717,-138.101)" />
    <linearGradient
       x1="382.35052"
       y1="749.875"
       x2="382.35052"
       y2="779.81976"
       id="linearGradient3690"
       xlink:href="#linearGradient3509"
       gradientUnits="userSpaceOnUse"
       gradientTransform="translate(-107.717,-138.101)" />
    <linearGradient
       x1="433.34247"
       y1="743.75"
       x2="439.75153"
       y2="770.08527"
       id="linearGradient3692"
       xlink:href="#linearGradient3509"
       gradientUnits="userSpaceOnUse"
       gradientTransform="translate(-107.717,-138.101)" />
    <linearGradient
       x1="315.32422"
       y1="739.15625"
       x2="318.11243"
       y2="781.1015"
       id="linearGradient3694"
       xlink:href="#linearGradient3509"
       gradientUnits="userSpaceOnUse"
       gradientTransform="translate(-107.717,-138.101)" />
    <linearGradient
       x1="263.92017"
       y1="719.53125"
       x2="262.10007"
       y2="775.99207"
       id="linearGradient3696"
       xlink:href="#linearGradient3509"
       gradientUnits="userSpaceOnUse"
       gradientTransform="translate(-107.717,-138.101)" />
    <linearGradient
       x1="498.71881"
       y1="722.67517"
       x2="504.24789"
       y2="773.81586"
       id="linearGradient3698"
       xlink:href="#linearGradient3509"
       gradientUnits="userSpaceOnUse"
       gradientTransform="translate(-107.717,-138.101)" />
    <linearGradient
       x1="221.06584"
       y1="690.28125"
       x2="221.63947"
       y2="742.41943"
       id="linearGradient3700"
       xlink:href="#linearGradient3509"
       gradientUnits="userSpaceOnUse"
       gradientTransform="translate(-107.717,-138.101)" />
    <linearGradient
       x1="543.8891"
       y1="690.3689"
       x2="546.1084"
       y2="748.35437"
       id="linearGradient3702"
       xlink:href="#linearGradient3509"
       gradientUnits="userSpaceOnUse"
       gradientTransform="translate(-107.717,-138.101)" />
    <linearGradient
       x1="186.59787"
       y1="653.09375"
       x2="186.59787"
       y2="701.6875"
       id="linearGradient3704"
       xlink:href="#linearGradient3509"
       gradientUnits="userSpaceOnUse"
       gradientTransform="translate(-107.717,-138.101)" />
    <linearGradient
       x1="580.92993"
       y1="653.38116"
       x2="580.92993"
       y2="706.513"
       id="linearGradient3706"
       xlink:href="#linearGradient3262"
       gradientUnits="userSpaceOnUse"
       gradientTransform="translate(-107.717,-138.101)" />
    <radialGradient
       cx="382.67188"
       cy="70.85936"
       r="240.95312"
       fx="382.67188"
       fy="70.85936"
       id="radialGradient3241"
       xlink:href="#linearGradient3262"
       gradientUnits="userSpaceOnUse"
       gradientTransform="matrix(-3.61768,0,0,-1.87397,1767.06,306.414)" />
    <linearGradient
       inkscape:collect="always"
       xlink:href="#linearGradient3509"
       id="linearGradient4186"
       x1="-528.15625"
       y1="241.79688"
       x2="-117.8125"
       y2="241.79688"
       gradientUnits="userSpaceOnUse" />
    <linearGradient
       inkscape:collect="always"
       xlink:href="#linearGradient3509"
       id="linearGradient4188"
       gradientUnits="userSpaceOnUse"
       x1="-336.81763"
       y1="138.43004"
       x2="-337.74194"
       y2="314.3736" />
    <linearGradient
       inkscape:collect="always"
       xlink:href="#linearGradient3509"
       id="linearGradient4205"
       x1="277.94498"
       y1="706.17145"
       x2="273.60764"
       y2="441.79834"
       gradientUnits="userSpaceOnUse" />
    <filter
       inkscape:collect="always"
       id="filter4227"
       color-interpolation-filters="sRGB">
      <feGaussianBlur
         inkscape:collect="always"
         stdDeviation="14.17431"
         id="feGaussianBlur4229" />
    </filter>
    <linearGradient
       inkscape:collect="always"
       xlink:href="#linearGradient3262"
       id="linearGradient4257"
       x1="277.05917"
       y1="50.57579"
       x2="277.01678"
       y2="686.46735"
       gradientUnits="userSpaceOnUse" />
    <linearGradient
       inkscape:collect="always"
       xlink:href="#linearGradient3509"
       id="linearGradient4313"
       gradientUnits="userSpaceOnUse"
       gradientTransform="translate(-107.717,-138.101)"
       x1="381.34219"
       y1="191.93869"
       x2="383.04688"
       y2="247.90936" />
    <linearGradient
       inkscape:collect="always"
       xlink:href="#linearGradient3509"
       id="linearGradient4315"
       gradientUnits="userSpaceOnUse"
       gradientTransform="translate(-107.717,-138.101)"
       x1="318.69376"
       y1="198.74815"
       x2="318.86661"
       y2="255.63063" />
    <linearGradient
       inkscape:collect="always"
       xlink:href="#linearGradient3509"
       id="linearGradient4317"
       gradientUnits="userSpaceOnUse"
       gradientTransform="translate(-107.717,-138.101)"
       x1="445.7951"
       y1="198.44858"
       x2="438.59241"
       y2="255.81599" />
    <linearGradient
       inkscape:collect="always"
       xlink:href="#linearGradient3509"
       id="linearGradient4319"
       gradientUnits="userSpaceOnUse"
       gradientTransform="translate(-107.717,-138.101)"
       x1="257.7309"
       y1="240.82478"
       x2="300.71875"
       y2="240.82478" />
    <linearGradient
       inkscape:collect="always"
       xlink:href="#linearGradient3509"
       id="linearGradient4321"
       gradientUnits="userSpaceOnUse"
       gradientTransform="translate(-107.717,-138.101)"
       x1="506.375"
       y1="218.1875"
       x2="475.69058"
       y2="264.98077" />
    <linearGradient
       inkscape:collect="always"
       xlink:href="#linearGradient3509"
       id="linearGradient4323"
       gradientUnits="userSpaceOnUse"
       gradientTransform="translate(-107.717,-138.101)"
       x1="202.37982"
       y1="249.44212"
       x2="245.95103"
       y2="286.28125" />
    <linearGradient
       inkscape:collect="always"
       xlink:href="#linearGradient3509"
       id="linearGradient4325"
       gradientUnits="userSpaceOnUse"
       gradientTransform="translate(-107.717,-138.101)"
       x1="560.27661"
       y1="249.84375"
       x2="514.25"
       y2="285.78125" />
    <linearGradient
       inkscape:collect="always"
       xlink:href="#linearGradient3509"
       id="linearGradient4327"
       gradientUnits="userSpaceOnUse"
       gradientTransform="translate(-107.717,-138.101)"
       x1="154.62117"
       y1="291.5267"
       x2="210.60495"
       y2="315.24637" />
    <linearGradient
       inkscape:collect="always"
       xlink:href="#linearGradient3509"
       id="linearGradient4329"
       gradientUnits="userSpaceOnUse"
       gradientTransform="translate(-107.717,-138.101)"
       x1="609.40625"
       y1="291.875"
       x2="558.26556"
       y2="319.74561" />
    <linearGradient
       inkscape:collect="always"
       xlink:href="#linearGradient3262"
       id="linearGradient4331"
       gradientUnits="userSpaceOnUse"
       gradientTransform="translate(-107.717,-138.101)"
       x1="580.92993"
       y1="653.38116"
       x2="580.92993"
       y2="706.513" />
    <linearGradient
       inkscape:collect="always"
       xlink:href="#linearGradient3509"
       id="linearGradient4333"
       gradientUnits="userSpaceOnUse"
       gradientTransform="translate(-107.717,-138.101)"
       x1="186.59787"
       y1="653.09375"
       x2="186.59787"
       y2="701.6875" />
    <linearGradient
       inkscape:collect="always"
       xlink:href="#linearGradient3509"
       id="linearGradient4335"
       gradientUnits="userSpaceOnUse"
       gradientTransform="translate(-107.717,-138.101)"
       x1="543.8891"
       y1="690.3689"
       x2="546.1084"
       y2="748.35437" />
    <linearGradient
       inkscape:collect="always"
       xlink:href="#linearGradient3509"
       id="linearGradient4337"
       gradientUnits="userSpaceOnUse"
       gradientTransform="translate(-107.717,-138.101)"
       x1="221.06584"
       y1="690.28125"
       x2="221.63947"
       y2="742.41943" />
    <linearGradient
       inkscape:collect="always"
       xlink:href="#linearGradient3509"
       id="linearGradient4339"
       gradientUnits="userSpaceOnUse"
       gradientTransform="translate(-107.717,-138.101)"
       x1="498.71881"
       y1="722.67517"
       x2="504.24789"
       y2="773.81586" />
    <linearGradient
       inkscape:collect="always"
       xlink:href="#linearGradient3509"
       id="linearGradient4341"
       gradientUnits="userSpaceOnUse"
       gradientTransform="translate(-107.717,-138.101)"
       x1="263.92017"
       y1="719.53125"
       x2="262.10007"
       y2="775.99207" />
    <linearGradient
       inkscape:collect="always"
       xlink:href="#linearGradient3509"
       id="linearGradient4343"
       gradientUnits="userSpaceOnUse"
       gradientTransform="translate(-107.717,-138.101)"
       x1="315.32422"
       y1="739.15625"
       x2="318.11243"
       y2="781.1015" />
    <linearGradient
       inkscape:collect="always"
       xlink:href="#linearGradient3509"
       id="linearGradient4345"
       gradientUnits="userSpaceOnUse"
       gradientTransform="translate(-107.717,-138.101)"
       x1="433.34247"
       y1="743.75"
       x2="439.75153"
       y2="770.08527" />
    <linearGradient
       inkscape:collect="always"
       xlink:href="#linearGradient3509"
       id="linearGradient4347"
       gradientUnits="userSpaceOnUse"
       gradientTransform="translate(-107.717,-138.101)"
       x1="382.35052"
       y1="749.875"
       x2="382.35052"
       y2="779.81976" />
    <linearGradient
       inkscape:collect="always"
       xlink:href="#linearGradient3509"
       id="linearGradient4349"
       gradientUnits="userSpaceOnUse"
       x1="-336.81763"
       y1="138.43004"
       x2="-337.74194"
       y2="314.3736" />
    <linearGradient
       inkscape:collect="always"
       xlink:href="#linearGradient3509"
       id="linearGradient4351"
       gradientUnits="userSpaceOnUse"
       x1="-528.15625"
       y1="241.79688"
       x2="-117.8125"
       y2="241.79688" />
    <linearGradient
       inkscape:collect="always"
       xlink:href="#linearGradient3509"
       id="linearGradient4353"
       gradientUnits="userSpaceOnUse"
       x1="-528.15625"
       y1="241.79688"
       x2="-117.8125"
       y2="241.79688" />
    <linearGradient
       inkscape:collect="always"
       xlink:href="#linearGradient3509"
       id="linearGradient4355"
       gradientUnits="userSpaceOnUse"
       x1="277.94498"
       y1="706.17145"
       x2="273.60764"
       y2="441.79834" />
    <linearGradient
       inkscape:collect="always"
       xlink:href="#linearGradient3262"
       id="linearGradient4357"
       gradientUnits="userSpaceOnUse"
       x1="277.05917"
       y1="50.57579"
       x2="277.01678"
       y2="686.46735" />
  </defs>
  <path
     style="fill:#000000"
     d=""
     id="path3316"
     inkscape:connector-curvature="0" />
  <path
     style="fill:#000000"
     d=""
     id="path3314"
     inkscape:connector-curvature="0" />
  <g
     id="g4278"
     transform="translate(81.310663,-7.3765785)">
    <g
       style="opacity:0.33000004;filter:url(#filter4227)"
       transform="translate(-20.21677,-12.441088)"
       id="g4213">
      <g
         transform="translate(734.24474,82.425984)"
         id="g4215">
        <path
           inkscape:connector-curvature="0"
           style="fill:#000000"
           d="m -462.67324,594.28478 c -3.9794,-33.51181 -10.98244,-53.91754 -20.92905,-60.98386 l -3.082,-2.18953 -3.95311,2.21169 c -10.18412,5.69784 -20.8067,23.61864 -30.65217,51.7117 -2.79491,7.975 -5.30579,15.12691 -5.57973,15.89313 -1.32935,3.71827 -1.28155,-0.98181 0.16739,-16.45986 2.95227,-31.53712 -0.18264,-54.3054 -8.51471,-61.84074 -1.85689,-1.67932 -2.57789,-1.76703 -6.02826,-0.73327 -11.32555,3.39322 -24.38283,18.10245 -41.63051,46.89739 -4.3673,7.29115 -8.0726,12.86034 -8.234,12.37596 -0.1615,-0.48438 1.7352,-7.68102 4.2148,-15.99253 8.9297,-29.93123 10.7963,-49.3029 5.8191,-60.39008 -2.0691,-4.60912 -2.2601,-4.7493 -6.4386,-4.72626 -12.42,0.0684 -28.4798,11.95944 -55.7372,41.26888 -3.4744,3.73595 -6.5112,6.59847 -6.7486,6.36116 -0.2373,-0.23731 2.1496,-5.09327 5.3041,-10.79103 17.0614,-30.81604 23.5941,-50.86713 20.349,-62.45757 -1.4639,-5.22842 -3.0901,-5.91124 -12.3095,-5.16881 -11.5469,0.92985 -27.2818,8.82306 -50.5354,25.35047 -7.3543,5.22702 -13.5319,9.34319 -13.7281,9.14704 -0.1961,-0.19615 3.2856,-4.60402 7.7373,-9.79526 15.2886,-17.82877 23.269,-29.21185 29.0516,-41.43862 2.9664,-6.27222 3.3106,-7.91497 3.3106,-15.80037 0,-8.00344 0.1358,-8.62769 1.5,-6.8934 0.825,1.04884 4.3339,5.53017 7.7975,9.95851 7.531,9.62852 26.3141,28.05069 38.482,37.7424 26.7027,21.26867 64.50413,39.1855 98.99614,46.92143 25.21404,5.65505 56.41368,7.18343 83.22436,4.07693 49.69386,-5.75792 95.88643,-26.25484 133.56733,-59.26752 14.16778,-12.41256 21.73097,-20.27677 31.3601,-32.60826 3.70622,-4.74634 6.95655,-8.62972 7.22296,-8.62972 0.26641,0 0.17216,0.98375 -0.20946,2.1861 -1.85428,5.84235 0.1601,17.18263 4.60179,25.90641 4.75677,9.34263 17.06819,26.026 30.15032,40.85711 2.64383,2.99729 4.80696,5.83624 4.80696,6.30877 0,0.47254 -2.8125,-1.18512 -6.25,-3.68368 -29.67114,-21.56658 -47.53937,-30.57471 -60.64703,-30.57471 -6.85697,0 -8.68378,1.2486 -9.69231,6.62456 -2.23532,11.91525 4.19602,31.03424 20.56168,61.12544 3.36519,6.1875 5.76058,11.2444 5.32309,11.23756 -0.43749,-0.007 -5.52043,-5.20945 -11.29543,-11.56135 -21.95267,-24.14566 -39.36185,-36.42621 -51.63861,-36.42621 -2.83669,0 -3.59455,0.54662 -5.19917,3.75 -2.74424,5.47847 -3.30235,8.63386 -3.25603,18.40851 0.0504,10.63974 2.54798,23.31446 8.61364,43.71283 2.51396,8.45423 4.37623,15.56594 4.13838,15.80378 -0.23785,0.23785 -4.25997,-6.01268 -8.93806,-13.89006 -16.71398,-28.14452 -31.05054,-43.72198 -42.56701,-46.25142 -3.67779,-0.80778 -4.59862,-0.0375 -8.32818,6.96636 -3.41327,6.40992 -4.86909,13.19685 -5.51247,25.69871 -0.52625,10.22597 0.90393,39.17214 2.25062,45.55129 0.26125,1.2375 0.10917,2.25 -0.33794,2.25 -0.44711,0 -2.08609,-3.9375 -3.64217,-8.75 -5.10672,-15.79358 -12.45974,-33.6083 -17.23232,-41.75 -5.21705,-8.89995 -13.52246,-17.66703 -18.32155,-19.34 -2.9454,-1.02677 -3.42868,-0.8329 -7.67058,3.07715 -9.30375,8.57589 -15.12084,26.57222 -18.93565,58.58117 -0.99514,8.34992 -2.08272,15.18168 -2.41685,15.18168 -0.33412,0 -1.39568,-6.6375 -2.359,-14.75 z"
           id="path4217" />
        <path
           inkscape:connector-curvature="0"
           style="fill:#000000"
           d="m -661.76119,135.84868 c 1.8543,-5.84235 -0.1601,-17.18263 -4.6018,-25.90641 -4.7568,-9.34263 -17.0682,-26.025998 -30.1503,-40.857108 -2.6439,-2.99729 -4.807,-5.84314 -4.807,-6.32412 0,-0.48098 3.4875,1.62699 7.75,4.68437 30.2781,21.71773 46.013,29.58937 59.147,29.58937 6.857,0 8.6838,-1.2486 9.6923,-6.62456 2.2354,-11.91525 -4.196,-31.03424 -20.5616,-61.12544 -3.3652,-6.1875 -5.7492,-11.25 -5.2977,-11.25 0.4515,0 5.5345,5.19141 11.2955,11.53647 20.9003,23.01927 37.173,34.90606 49.5315,36.18156 l 5.2688,0.54379 2.2878,-4.38091 c 1.8495,-3.54166 2.3651,-6.4044 2.6913,-14.94357 0.4848,-12.69097 -1.5711,-24.25759 -8.3513,-46.98403997 -2.4948,-8.36233003 -4.3336,-15.40663003 -4.0862,-15.65400003 0.2473,-0.24737 4.2659,5.99659 8.9302,13.87547 4.6643,7.87888 10.6344,17.25023 13.267,20.82523 13.49851,18.33065 29.66076,29.89364 34.02828,24.34491 5.76585,-7.32524 8.33432,-16.37382 9.09916,-32.05578 0.52733,-10.81206997 -1.01192,-40.86354 -2.33253,-45.53913 -0.27186,-0.9625 -0.12438,-1.75 0.32772,-1.75 0.4521,0 2.60353,5.27636 4.78095,11.72526 5.72591,16.95846 11.79712,31.42172 16.54352,39.41109 4.82479,8.12133 13.42384,17.12263 17.82222,18.65591 2.84292,0.99105 3.36186,0.7837 7.08748,-2.83189 9.378,-9.10104 15.48143,-28.50791 19.17195,-60.96037 0.65673,-5.775 1.56571,-11.175 2.01995,-12 0.71041,-1.29028 0.83013,-1.2716 0.85629,0.13363 0.0167,0.89849 0.94563,8.54849 2.06423,17 3.71125,28.04002 9.10231,45.25714 16.98063,54.23004 5.10081,5.80951 6.39575,6.17202 11.45546,3.20683 10.4296,-6.11215 20.77587,-23.69496 30.6399,-52.0705 5.7964,-16.6743 7.40191,-19.63419 6.50907,-12 -4.69151,40.11455 -2.1386,66.3918 7.27745,74.90747 1.8572,1.67961 2.57756,1.76712 6.03045,0.73261 11.39308,-3.41345 24.61296,-18.29309 41.66558,-46.89673 4.34676,-7.29116 8.03659,-12.85651 8.1996,-12.36746 0.16302,0.48905 -1.75556,7.80004 -4.2635,16.24665 -8.93085,30.07858 -10.75131,49.0384 -5.77327,60.12746 2.06911,4.60912 2.26007,4.7493 6.43858,4.72626 12.50166,-0.0689 28.15086,-11.65774 55.72823,-41.26888 3.47935,-3.73595 6.51379,-6.60492 6.7432,-6.37551 0.22942,0.22942 -2.58558,5.93761 -6.25556,12.68487 -16.5324,30.39485 -22.25931,48.1045 -19.40436,60.00526 1.4057,5.85961 2.80052,6.50909 12.33076,5.74163 11.54689,-0.92985 27.28177,-8.82306 50.53537,-25.35047 7.35427,-5.22702 13.53977,-9.33531 13.74556,-9.12953 0.20578,0.20578 -3.03168,4.34946 -7.19435,9.20817 -25.71124,30.010438 -34.45853,46.055058 -33.13761,60.782288 0.53354,5.94858 0.48395,6.13207 -1.1133,4.1193 -0.91944,-1.15863 -4.50558,-5.72979 -7.96921,-10.15813 -7.53095,-9.62852 -26.31413,-28.050688 -38.482,-37.742398 -34.93171,-27.82307 -82.85042,-47.09087 -128.2205,-51.55662 -68.04824,-6.69796 -135.2377,14.48916 -186.5,58.80973 -13.5018,11.673458 -22.9015,21.412158 -32.3377,33.504028 -3.7556,4.8125 -7.0463,8.75 -7.3127,8.75 -0.2664,0 -0.1721,-0.98375 0.2095,-2.1861 z"
           id="path4219" />
      </g>
      <path
         style="fill:#000000"
         inkscape:connector-curvature="0"
         d="m 278.22511,135.51289 c -126.75944,0 -229.5335,102.76307 -229.5335,229.5307 0,126.77045 102.77679,229.53623 229.5335,229.53623 126.75388,0 229.53067,-102.76578 229.53067,-229.53623 0,-126.76763 -102.77679,-229.5307 -229.53067,-229.5307 z m 1.09754,31.78658 c 109.21972,0 197.83199,88.54088 197.83199,197.74412 0,109.21972 -88.62319,197.74689 -197.83199,197.74689 -58.97415,0 -111.89237,-25.8458 -148.11876,-66.78913 14.89446,-11.56323 39.81556,-8.74241 70.50726,-5.24381 14.70788,1.67385 31.47652,3.5919 48.78023,3.97607 48.34947,0.27987 100.3731,-8.54209 132.48071,-22.57492 20.75563,-9.10465 34.0476,-15.09752 42.35651,-22.66002 2.99639,-2.45585 4.56603,-6.56088 6.16852,-10.81964 l 1.09755,-2.87297 c 1.34456,-3.441 3.27907,-10.84158 4.14344,-14.88072 0.3869,-1.76714 0.57904,-3.66881 -0.67496,-4.6484 l -4.48102,0.84517 c -14.09044,8.4488 -49.28509,24.53692 -82.26254,25.1955 -40.86104,0.85609 -123.2114,-41.13545 -131.80019,-45.56696 l -0.84516,-1.01536 c -2.05803,-4.91452 -14.38405,-34.1711 -16.99363,-40.32588 59.27878,39.0362 108.42398,60.64255 146.09096,63.99844 41.87904,3.72086 74.54367,-19.14494 88.51615,-28.91355 2.72753,-1.86043 4.80749,-3.3203 5.66367,-3.63585 l 0.92743,-1.52295 c -2.31596,-14.71607 -24.2899,-85.94772 -40.83355,-103.05666 -4.58796,-4.69227 -8.23201,-9.26102 -15.63806,-13.61025 -59.8852,-34.90378 -202.07973,-55.92562 -208.73664,-56.89699 l -1.10036,0.34025 -0.42259,0.93022 c 0,0 -0.53234,29.52552 -0.59268,32.80187 -4.87885,-1.61348 -20.00931,-6.56916 -41.67872,-12.51268 28.27972,-34.98884 71.61308,-66.03179 147.44643,-66.03179 z m 52.24872,104.66467 c 1.00698,-0.0273 2.02507,-0.0358 3.04307,0 33.54547,1.20458 59.90168,29.45964 58.75462,62.98317 -0.59541,16.21709 -7.43344,31.20211 -19.27663,42.2715 -11.87606,11.12691 -27.31105,16.92773 -43.6187,16.40085 -33.49059,-1.25118 -59.8468,-29.50624 -58.76018,-62.98317 0.57349,-16.24175 7.44719,-31.3228 19.36174,-42.35651 11.12145,-10.42992 25.35733,-16.08812 40.49608,-16.31584 z m -1.60805,17.92389 c -9.77143,0.59542 -18.98849,4.5632 -26.20795,11.32996 -8.22655,7.72169 -13.08346,18.1791 -13.44024,29.50633 -0.77653,23.40088 17.53699,43.09464 40.91866,43.96173 11.36291,0.3485 22.13323,-3.6303 30.43104,-11.32996 8.27596,-7.7601 13.09164,-18.31079 13.44569,-29.5887 0.782,-23.43928 -17.61653,-43.05895 -41.00376,-43.87936 -1.41319,-0.0518 -2.74946,-0.0847 -4.14344,0 z m 11.15985,21.21935 c 10.39161,0 18.76905,5.64719 18.76905,12.5978 0,6.91757 -8.37744,12.5977 -18.76905,12.5977 -10.42446,0 -18.85405,-5.69105 -18.85405,-12.5977 0,-6.95061 8.42959,-12.5978 18.85405,-12.5978 z"
         id="path4221" />
    </g>
    <g
       id="g4207">
      <g
         id="g3326"
         transform="translate(734.24474,82.425984)">
        <path
           id="path3324"
           d="m -462.67324,594.28478 c -3.9794,-33.51181 -10.98244,-53.91754 -20.92905,-60.98386 l -3.082,-2.18953 -3.95311,2.21169 c -10.18412,5.69784 -20.8067,23.61864 -30.65217,51.7117 -2.79491,7.975 -5.30579,15.12691 -5.57973,15.89313 -1.32935,3.71827 -1.28155,-0.98181 0.16739,-16.45986 2.95227,-31.53712 -0.18264,-54.3054 -8.51471,-61.84074 -1.85689,-1.67932 -2.57789,-1.76703 -6.02826,-0.73327 -11.32555,3.39322 -24.38283,18.10245 -41.63051,46.89739 -4.3673,7.29115 -8.0726,12.86034 -8.234,12.37596 -0.1615,-0.48438 1.7352,-7.68102 4.2148,-15.99253 8.9297,-29.93123 10.7963,-49.3029 5.8191,-60.39008 -2.0691,-4.60912 -2.2601,-4.7493 -6.4386,-4.72626 -12.42,0.0684 -28.4798,11.95944 -55.7372,41.26888 -3.4744,3.73595 -6.5112,6.59847 -6.7486,6.36116 -0.2373,-0.23731 2.1496,-5.09327 5.3041,-10.79103 17.0614,-30.81604 23.5941,-50.86713 20.349,-62.45757 -1.4639,-5.22842 -3.0901,-5.91124 -12.3095,-5.16881 -11.5469,0.92985 -27.2818,8.82306 -50.5354,25.35047 -7.3543,5.22702 -13.5319,9.34319 -13.7281,9.14704 -0.1961,-0.19615 3.2856,-4.60402 7.7373,-9.79526 15.2886,-17.82877 23.269,-29.21185 29.0516,-41.43862 2.9664,-6.27222 3.3106,-7.91497 3.3106,-15.80037 0,-8.00344 0.1358,-8.62769 1.5,-6.8934 0.825,1.04884 4.3339,5.53017 7.7975,9.95851 7.531,9.62852 26.3141,28.05069 38.482,37.7424 26.7027,21.26867 64.50413,39.1855 98.99614,46.92143 25.21404,5.65505 56.41368,7.18343 83.22436,4.07693 49.69386,-5.75792 95.88643,-26.25484 133.56733,-59.26752 14.16778,-12.41256 21.73097,-20.27677 31.3601,-32.60826 3.70622,-4.74634 6.95655,-8.62972 7.22296,-8.62972 0.26641,0 0.17216,0.98375 -0.20946,2.1861 -1.85428,5.84235 0.1601,17.18263 4.60179,25.90641 4.75677,9.34263 17.06819,26.026 30.15032,40.85711 2.64383,2.99729 4.80696,5.83624 4.80696,6.30877 0,0.47254 -2.8125,-1.18512 -6.25,-3.68368 -29.67114,-21.56658 -47.53937,-30.57471 -60.64703,-30.57471 -6.85697,0 -8.68378,1.2486 -9.69231,6.62456 -2.23532,11.91525 4.19602,31.03424 20.56168,61.12544 3.36519,6.1875 5.76058,11.2444 5.32309,11.23756 -0.43749,-0.007 -5.52043,-5.20945 -11.29543,-11.56135 -21.95267,-24.14566 -39.36185,-36.42621 -51.63861,-36.42621 -2.83669,0 -3.59455,0.54662 -5.19917,3.75 -2.74424,5.47847 -3.30235,8.63386 -3.25603,18.40851 0.0504,10.63974 2.54798,23.31446 8.61364,43.71283 2.51396,8.45423 4.37623,15.56594 4.13838,15.80378 -0.23785,0.23785 -4.25997,-6.01268 -8.93806,-13.89006 -16.71398,-28.14452 -31.05054,-43.72198 -42.56701,-46.25142 -3.67779,-0.80778 -4.59862,-0.0375 -8.32818,6.96636 -3.41327,6.40992 -4.86909,13.19685 -5.51247,25.69871 -0.52625,10.22597 0.90393,39.17214 2.25062,45.55129 0.26125,1.2375 0.10917,2.25 -0.33794,2.25 -0.44711,0 -2.08609,-3.9375 -3.64217,-8.75 -5.10672,-15.79358 -12.45974,-33.6083 -17.23232,-41.75 -5.21705,-8.89995 -13.52246,-17.66703 -18.32155,-19.34 -2.9454,-1.02677 -3.42868,-0.8329 -7.67058,3.07715 -9.30375,8.57589 -15.12084,26.57222 -18.93565,58.58117 -0.99514,8.34992 -2.08272,15.18168 -2.41685,15.18168 -0.33412,0 -1.39568,-6.6375 -2.359,-14.75 z"
           style="fill:#000000"
           inkscape:connector-curvature="0" />
        <path
           id="path3318"
           d="m -661.76119,135.84868 c 1.8543,-5.84235 -0.1601,-17.18263 -4.6018,-25.90641 -4.7568,-9.34263 -17.0682,-26.025998 -30.1503,-40.857108 -2.6439,-2.99729 -4.807,-5.84314 -4.807,-6.32412 0,-0.48098 3.4875,1.62699 7.75,4.68437 30.2781,21.71773 46.013,29.58937 59.147,29.58937 6.857,0 8.6838,-1.2486 9.6923,-6.62456 2.2354,-11.91525 -4.196,-31.03424 -20.5616,-61.12544 -3.3652,-6.1875 -5.7492,-11.25 -5.2977,-11.25 0.4515,0 5.5345,5.19141 11.2955,11.53647 20.9003,23.01927 37.173,34.90606 49.5315,36.18156 l 5.2688,0.54379 2.2878,-4.38091 c 1.8495,-3.54166 2.3651,-6.4044 2.6913,-14.94357 0.4848,-12.69097 -1.5711,-24.25759 -8.3513,-46.98403997 -2.4948,-8.36233003 -4.3336,-15.40663003 -4.0862,-15.65400003 0.2473,-0.24737 4.2659,5.99659 8.9302,13.87547 4.6643,7.87888 10.6344,17.25023 13.267,20.82523 13.49851,18.33065 29.66076,29.89364 34.02828,24.34491 5.76585,-7.32524 8.33432,-16.37382 9.09916,-32.05578 0.52733,-10.81206997 -1.01192,-40.86354 -2.33253,-45.53913 -0.27186,-0.9625 -0.12438,-1.75 0.32772,-1.75 0.4521,0 2.60353,5.27636 4.78095,11.72526 5.72591,16.95846 11.79712,31.42172 16.54352,39.41109 4.82479,8.12133 13.42384,17.12263 17.82222,18.65591 2.84292,0.99105 3.36186,0.7837 7.08748,-2.83189 9.378,-9.10104 15.48143,-28.50791 19.17195,-60.96037 0.65673,-5.775 1.56571,-11.175 2.01995,-12 0.71041,-1.29028 0.83013,-1.2716 0.85629,0.13363 0.0167,0.89849 0.94563,8.54849 2.06423,17 3.71125,28.04002 9.10231,45.25714 16.98063,54.23004 5.10081,5.80951 6.39575,6.17202 11.45546,3.20683 10.4296,-6.11215 20.77587,-23.69496 30.6399,-52.0705 5.7964,-16.6743 7.40191,-19.63419 6.50907,-12 -4.69151,40.11455 -2.1386,66.3918 7.27745,74.90747 1.8572,1.67961 2.57756,1.76712 6.03045,0.73261 11.39308,-3.41345 24.61296,-18.29309 41.66558,-46.89673 4.34676,-7.29116 8.03659,-12.85651 8.1996,-12.36746 0.16302,0.48905 -1.75556,7.80004 -4.2635,16.24665 -8.93085,30.07858 -10.75131,49.0384 -5.77327,60.12746 2.06911,4.60912 2.26007,4.7493 6.43858,4.72626 12.50166,-0.0689 28.15086,-11.65774 55.72823,-41.26888 3.47935,-3.73595 6.51379,-6.60492 6.7432,-6.37551 0.22942,0.22942 -2.58558,5.93761 -6.25556,12.68487 -16.5324,30.39485 -22.25931,48.1045 -19.40436,60.00526 1.4057,5.85961 2.80052,6.50909 12.33076,5.74163 11.54689,-0.92985 27.28177,-8.82306 50.53537,-25.35047 7.35427,-5.22702 13.53977,-9.33531 13.74556,-9.12953 0.20578,0.20578 -3.03168,4.34946 -7.19435,9.20817 -25.71124,30.010438 -34.45853,46.055058 -33.13761,60.782288 0.53354,5.94858 0.48395,6.13207 -1.1133,4.1193 -0.91944,-1.15863 -4.50558,-5.72979 -7.96921,-10.15813 -7.53095,-9.62852 -26.31413,-28.050688 -38.482,-37.742398 -34.93171,-27.82307 -82.85042,-47.09087 -128.2205,-51.55662 -68.04824,-6.69796 -135.2377,14.48916 -186.5,58.80973 -13.5018,11.673458 -22.9015,21.412158 -32.3377,33.504028 -3.7556,4.8125 -7.0463,8.75 -7.3127,8.75 -0.2664,0 -0.1721,-0.98375 0.2095,-2.1861 z"
           style="fill:#000000"
           inkscape:connector-curvature="0" />
      </g>
      <path
         id="path3378"
         d="m 278.22511,135.51289 c -126.75944,0 -229.5335,102.76307 -229.5335,229.5307 0,126.77045 102.77679,229.53623 229.5335,229.53623 126.75388,0 229.53067,-102.76578 229.53067,-229.53623 0,-126.76763 -102.77679,-229.5307 -229.53067,-229.5307 z m 1.09754,31.78658 c 109.21972,0 197.83199,88.54088 197.83199,197.74412 0,109.21972 -88.62319,197.74689 -197.83199,197.74689 -58.97415,0 -111.89237,-25.8458 -148.11876,-66.78913 14.89446,-11.56323 39.81556,-8.74241 70.50726,-5.24381 14.70788,1.67385 31.47652,3.5919 48.78023,3.97607 48.34947,0.27987 100.3731,-8.54209 132.48071,-22.57492 20.75563,-9.10465 34.0476,-15.09752 42.35651,-22.66002 2.99639,-2.45585 4.56603,-6.56088 6.16852,-10.81964 l 1.09755,-2.87297 c 1.34456,-3.441 3.27907,-10.84158 4.14344,-14.88072 0.3869,-1.76714 0.57904,-3.66881 -0.67496,-4.6484 l -4.48102,0.84517 c -14.09044,8.4488 -49.28509,24.53692 -82.26254,25.1955 -40.86104,0.85609 -123.2114,-41.13545 -131.80019,-45.56696 l -0.84516,-1.01536 c -2.05803,-4.91452 -14.38405,-34.1711 -16.99363,-40.32588 59.27878,39.0362 108.42398,60.64255 146.09096,63.99844 41.87904,3.72086 74.54367,-19.14494 88.51615,-28.91355 2.72753,-1.86043 4.80749,-3.3203 5.66367,-3.63585 l 0.92743,-1.52295 c -2.31596,-14.71607 -24.2899,-85.94772 -40.83355,-103.05666 -4.58796,-4.69227 -8.23201,-9.26102 -15.63806,-13.61025 -59.8852,-34.90378 -202.07973,-55.92562 -208.73664,-56.89699 l -1.10036,0.34025 -0.42259,0.93022 c 0,0 -0.53234,29.52552 -0.59268,32.80187 -4.87885,-1.61348 -20.00931,-6.56916 -41.67872,-12.51268 28.27972,-34.98884 71.61308,-66.03179 147.44643,-66.03179 z m 52.24872,104.66467 c 1.00698,-0.0273 2.02507,-0.0358 3.04307,0 33.54547,1.20458 59.90168,29.45964 58.75462,62.98317 -0.59541,16.21709 -7.43344,31.20211 -19.27663,42.2715 -11.87606,11.12691 -27.31105,16.92773 -43.6187,16.40085 -33.49059,-1.25118 -59.8468,-29.50624 -58.76018,-62.98317 0.57349,-16.24175 7.44719,-31.3228 19.36174,-42.35651 11.12145,-10.42992 25.35733,-16.08812 40.49608,-16.31584 z m -1.60805,17.92389 c -9.77143,0.59542 -18.98849,4.5632 -26.20795,11.32996 -8.22655,7.72169 -13.08346,18.1791 -13.44024,29.50633 -0.77653,23.40088 17.53699,43.09464 40.91866,43.96173 11.36291,0.3485 22.13323,-3.6303 30.43104,-11.32996 8.27596,-7.7601 13.09164,-18.31079 13.44569,-29.5887 0.782,-23.43928 -17.61653,-43.05895 -41.00376,-43.87936 -1.41319,-0.0518 -2.74946,-0.0847 -4.14344,0 z m 11.15985,21.21935 c 10.39161,0 18.76905,5.64719 18.76905,12.5978 0,6.91757 -8.37744,12.5977 -18.76905,12.5977 -10.42446,0 -18.85405,-5.69105 -18.85405,-12.5977 0,-6.95061 8.42959,-12.5978 18.85405,-12.5978 z"
         inkscape:connector-curvature="0"
         style="fill:#000000" />
    </g>
    <path
       style="font-size:12px;fill:none;stroke:url(#linearGradient4313);stroke-width:2;stroke-linecap:round;stroke-miterlimit:4;stroke-opacity:1;stroke-dasharray:none"
       id="path3507"
       d="M 294.12721,112.68006 C 280.74275,99.115451 278.39644,78.934491 275.20963,60.939401 c -0.29134,-1.03722 -0.89996,-8.71193 -1.14492,-6.04059 -3.04831,19.08651 -4.99637,39.98537 -17.53125,55.531249"
       inkscape:connector-curvature="0" />
    <path
       style="font-size:12px;fill:none;stroke:url(#linearGradient4315);stroke-width:2;stroke-linecap:round;stroke-miterlimit:4;stroke-opacity:1;stroke-dasharray:none"
       id="path3505"
       d="m 242.47096,114.08631 c -15.59703,-9.93833 -22.04342,-28.473999 -28.72527,-44.813219 -0.77045,-1.53571 -3.13995,-9.54739 -3.11848,-7.90553 0.90904,19.53063 3.48515,40.688699 -5.96875,58.562499"
       inkscape:connector-curvature="0" />
    <path
       style="font-size:12px;fill:none;stroke:url(#linearGradient4317);stroke-width:2;stroke-linecap:round;stroke-miterlimit:4;stroke-opacity:1;stroke-dasharray:none"
       id="path3503"
       d="m 346.00221,122.30506 c -10.39139,-16.21479 -8.46884,-36.530099 -7.84157,-54.966659 -0.0999,-1.05822 0.97126,-9.04899 0.0603,-5.65834 -6.92464,18.0957 -13.24796,38.333469 -28.90625,50.812499"
       inkscape:connector-curvature="0" />
    <path
       style="font-size:12px;fill:none;stroke:url(#linearGradient4319);stroke-width:2;stroke-linecap:round;stroke-miterlimit:4;stroke-opacity:1;stroke-dasharray:none"
       id="path3501"
       d="m 192.50221,125.64881 c -17.58072,-6.82602 -27.82824,-24.27011 -37.84375,-39.249999 -0.36422,-0.16903 -5.47503,-9.59633 -3.8125,-5.625"
       inkscape:connector-curvature="0" />
    <path
       style="font-size:12px;fill:none;stroke:url(#linearGradient4321);stroke-width:2;stroke-linecap:round;stroke-miterlimit:4;stroke-opacity:1;stroke-dasharray:none"
       id="path3499"
       d="m 398.15846,80.586311 c -10.36021,16.13243 -20.5406,34.446409 -38,43.718749"
       inkscape:connector-curvature="0" />
    <path
       style="font-size:12px;fill:none;stroke:url(#linearGradient4323);stroke-width:2;stroke-linecap:round;stroke-miterlimit:4;stroke-opacity:1;stroke-dasharray:none"
       id="path3497"
       d="m 145.68971,147.68006 c -18.73033,-2.91501 -32.33787,-17.87038 -45.28125,-30.4375 -0.933638,-0.75746 -6.293558,-7.09139 -5.062498,-4.96875"
       inkscape:connector-curvature="0" />
    <path
       style="font-size:12px;fill:none;stroke:url(#linearGradient4325);stroke-width:2;stroke-linecap:round;stroke-miterlimit:4;stroke-opacity:1;stroke-dasharray:none"
       id="path3495"
       d="m 453.59596,112.24256 c -13.55296,13.68788 -27.34936,29.58368 -46.5625,34.9375"
       inkscape:connector-curvature="0" />
    <path
       style="font-size:12px;fill:none;stroke:url(#linearGradient4327);stroke-width:2;stroke-linecap:round;stroke-miterlimit:4;stroke-opacity:1;stroke-dasharray:none"
       id="path3491"
       d="m 104.37721,178.71131 c -18.873088,1.00975 -35.148578,-10.76486 -50.362518,-20.33323 -1.03535,-0.32215 -9.50887,-7.21719 -5.57498,-3.19802"
       inkscape:connector-curvature="0" />
    <path
       style="font-size:12px;fill:none;stroke:url(#linearGradient4329);stroke-width:2;stroke-linecap:round;stroke-miterlimit:4;stroke-opacity:1;stroke-dasharray:none"
       id="path3489"
       d="m 501.18971,154.27381 c -16.07734,10.60078 -32.7545,23.29066 -52.65625,24.625"
       inkscape:connector-curvature="0" />
    <path
       style="font-size:12px;fill:none;stroke:url(#linearGradient4331);stroke-width:2;stroke-miterlimit:4;stroke-opacity:1;stroke-dasharray:none"
       id="path3487"
       d="m 500.83078,567.91184 c -11.67765,-14.92469 -25.31362,-30.15469 -27.92232,-49.57553 -0.10851,-1.83304 0.13283,-4.09817 -1.4375,-1.09375 -7.69887,10.10322 -16.43557,19.39616 -25.875,27.875"
       inkscape:connector-curvature="0" />
    <path
       style="font-size:12px;fill:none;stroke:url(#linearGradient4333);stroke-width:2;stroke-miterlimit:4;stroke-opacity:1;stroke-dasharray:none"
       id="path3485"
       d="m 103.34596,545.02381 c 2.81407,-0.37152 -5.053428,-5.30416 -6.820458,-7.91421 -6.65382,-6.80331 -13.06195,-13.92978 -18.67954,-21.61704 l 0,0.84375 c -1.14875,18.20461 -13.51535,32.80697 -24.03125,46.75"
       inkscape:connector-curvature="0" />
    <path
       style="font-size:12px;fill:none;stroke:url(#linearGradient4335);stroke-width:2;stroke-miterlimit:4;stroke-opacity:1;stroke-dasharray:none"
       id="path3483"
       d="m 453.60344,609.7532 c -8.24448,-16.68531 -18.24798,-34.26903 -17.13248,-53.51064 -0.12175,-2.63298 2.28242,-5.50368 -1.84375,-1.46875 -9.41466,8.02987 -19.59232,15.21398 -30.34375,21.375"
       inkscape:connector-curvature="0" />
    <path
       style="font-size:12px;fill:none;stroke:url(#linearGradient4337);stroke-width:2;stroke-miterlimit:4;stroke-opacity:1;stroke-dasharray:none"
       id="path3481"
       d="m 144.78346,576.43006 c 2.53913,-1.0355 -6.15062,-4.08993 -8.38661,-6.35373 -8.03395,-5.29281 -15.67049,-11.02689 -22.86339,-17.39627 l 0.1875,0.78125 c 2.80772,18.44674 -6.82607,35.85947 -14.406248,51.96875"
       inkscape:connector-curvature="0" />
    <path
       style="font-size:12px;fill:none;stroke:url(#linearGradient4339);stroke-width:2;stroke-miterlimit:4;stroke-opacity:1;stroke-dasharray:none"
       id="path3479"
       d="m 398.48167,641.13269 c -4.6176,-18.34601 -11.03987,-38.11564 -5.32321,-56.89013 0.41903,-1.95513 2.6358,-3.56572 -1.40625,-1.03125 -10.79442,6.05535 -23.24624,11.06725 -34.34375,14.96875"
       inkscape:connector-curvature="0" />
    <path
       style="font-size:12px;fill:none;stroke:url(#linearGradient4341);stroke-width:2;stroke-miterlimit:4;stroke-opacity:1;stroke-dasharray:none"
       id="path3477"
       d="m 191.53346,598.80506 c 4.68907,-1.26857 -4.96038,-2.27618 -6.53255,-3.5987 -9.85346,-3.7059 -19.36092,-8.10046 -28.4987,-13.2763 l 0.28125,0.625 c 6.66333,17.83535 0.65143,37.15907 -3.58966,54.83582"
       inkscape:connector-curvature="0" />
    <path
       style="font-size:12px;fill:none;stroke:url(#linearGradient4343);stroke-width:2;stroke-miterlimit:4;stroke-opacity:1;stroke-dasharray:none"
       id="path3475"
       d="m 241.81471,610.61756 c 2.56415,-1.80103 -6.09373,-1.17576 -8.21875,-2.09375 -10.01563,-1.54786 -20.5532,-4.17892 -29.75,-6.96875"
       inkscape:connector-curvature="0" />
    <path
       style="font-size:12px;fill:none;stroke:url(#linearGradient4345);stroke-width:2;stroke-miterlimit:4;stroke-opacity:1;stroke-dasharray:none"
       id="path3473"
       d="m 346.87721,601.39881 c -0.88542,0.27083 -1.77083,0.54167 -2.65625,0.8125 -11.70415,3.79199 -25.25499,6.02001 -36.5625,7.6875"
       inkscape:connector-curvature="0" />
    <path
       style="font-size:12px;fill:none;stroke:url(#linearGradient4347);stroke-width:2;stroke-miterlimit:4;stroke-opacity:1;stroke-dasharray:none"
       id="path3407"
       d="m 293.53346,612.55506 c 3.97678,-3.26621 -5.67725,-0.15617 -7.6875,-0.8125 -10.35388,0.44914 -20.74855,0.3267 -31.0625,-0.75 l 0.5,0.46875"
       inkscape:connector-curvature="0" />
    <g
       style="fill:url(#linearGradient4353);fill-opacity:1"
       transform="translate(626.79891,0)"
       id="g3408">
      <path
         inkscape:connector-curvature="0"
         style="font-size:medium;font-style:normal;font-variant:normal;font-weight:normal;font-stretch:normal;text-indent:0;text-align:start;text-decoration:none;line-height:normal;letter-spacing:normal;word-spacing:normal;text-transform:none;direction:ltr;block-progression:tb;writing-mode:lr-tb;text-anchor:start;baseline-shift:baseline;color:#000000;fill:url(#linearGradient4349);fill-opacity:1;stroke:none;stroke-width:2;marker:none;visibility:visible;display:inline;overflow:visible;enable-background:accumulate;font-family:Sans;-inkscape-font-specification:Sans"
         d="m -347.78125,134.5 c -73.03573,0 -138.13442,33.99037 -180.375,87 l 2.03125,0.625 c 41.88238,-52.20358 106.20433,-85.625 178.34375,-85.625 120.64519,0 219.45371,93.47397 227.9375,211.96875 l 2.03125,0.625 C -125.99606,229.21387 -225.83998,134.5 -347.78125,134.5 z"
         id="path3406" />
      <path
         inkscape:connector-curvature="0"
         style="font-size:medium;font-style:normal;font-variant:normal;font-weight:normal;font-stretch:normal;text-indent:0;text-align:start;text-decoration:none;line-height:normal;letter-spacing:normal;word-spacing:normal;text-transform:none;direction:ltr;block-progression:tb;writing-mode:lr-tb;text-anchor:start;baseline-shift:baseline;color:#000000;fill:url(#linearGradient4351);fill-opacity:1;stroke:none;stroke-width:2;marker:none;visibility:visible;display:inline;overflow:visible;enable-background:accumulate;font-family:Sans;-inkscape-font-specification:Sans"
         d="m -450.40625,210.75 -0.21875,0.0625 -1.09375,0.34375 -0.4375,0.125 -0.1875,0.40625 -0.40625,0.9375 -0.0937,0.1875 0,0.21875 c 0,0 -0.46987,26.39338 -0.5625,31.46875 -4.79228,-1.57953 -16.33678,-5.295 -32.84375,-9.96875 l 34.8125,10.8125 c 0.0738,-4.01804 0.58784,-31.76561 0.59375,-32.09375 l 0.125,-0.3125 0.46875,-0.15625 c 3.57415,0.52214 40.47485,5.99566 84.125,15.6875 43.82731,9.73118 94.31069,23.74002 124.03125,41.0625 7.26587,4.26691 10.80774,8.70248 15.4375,13.4375 l -0.0312,0 c 6.29467,6.50976 13.69382,21.7628 20.40625,38.625 l 2.5,0.78125 c -6.84354,-17.49495 -14.45662,-33.52952 -21.46875,-40.78125 -4.54616,-4.64952 -8.29752,-9.3497 -15.84375,-13.78125 -30.16464,-17.5813 -80.71952,-31.53272 -124.625,-41.28125 -43.90548,-9.74853 -81.12705,-15.26238 -84.46875,-15.75 l -0.21875,-0.0312 z"
         id="path3402" />
    </g>
    <path
       inkscape:connector-curvature="0"
       id="path4197"
       d="m 60.225936,443.89153 c 31.44958,89.91677 117.032114,154.4375 217.656254,154.4375 63.21131,0 120.47372,-25.46342 162.125,-66.6875 l -2.3125,-0.53125 c -41.20958,40.33711 -97.59647,65.21875 -159.8125,65.21875 -99.3312,0 -183.871724,-63.37706 -215.375004,-151.90625 l -2.28125,-0.53125 z"
       style="font-size:medium;font-style:normal;font-variant:normal;font-weight:normal;font-stretch:normal;text-indent:0;text-align:start;text-decoration:none;line-height:normal;letter-spacing:normal;word-spacing:normal;text-transform:none;direction:ltr;block-progression:tb;writing-mode:lr-tb;text-anchor:start;baseline-shift:baseline;color:#000000;fill:url(#linearGradient4355);fill-opacity:1;stroke:none;stroke-width:2;marker:none;visibility:visible;display:inline;overflow:visible;enable-background:accumulate;font-family:Sans;-inkscape-font-specification:Sans" />
    <path
       id="path4231"
       d="m 273.71875,39.53125 c -0.122,-0.01904 -0.33229,0.29236 -0.6875,0.9375 -0.45424,0.825 -1.34327,6.225 -2,12 -3.69052,32.45246 -9.8095,51.83646 -19.1875,60.9375 -3.72562,3.61559 -4.25083,3.8348 -7.09375,2.84375 -4.39838,-1.53328 -12.98771,-10.53492 -17.8125,-18.65625 -4.7464,-7.98937 -10.80534,-22.44779 -16.53125,-39.40625 -2.17742,-6.4489 -4.32915,-11.71875 -4.78125,-11.71875 -0.4521,0 -0.61561,0.7875 -0.34375,1.75 1.32061,4.67559 2.87108,34.71918 2.34375,45.53125 -0.76484,15.68196 -3.3279,24.73726 -9.09375,32.0625 -4.36752,5.54873 -20.53274,-6.0131 -34.03125,-24.34375 -2.6326,-3.575004 -8.61695,-12.96487 -13.28125,-20.84375 -4.6643,-7.87888 -8.6902,-14.12237 -8.9375,-13.875 -0.2474,0.24737 1.59895,7.29392 4.09375,15.65625 6.7802,22.72645 8.82855,34.30903 8.34375,47 -0.3262,8.53917 -0.838,11.39584 -2.6875,14.9375 l -2.28125,4.375 -5.28125,-0.53125 C 132.11025,146.912 115.8378,135.01927 94.9375,112 c -5.761,-6.34506 -10.82975,-11.53125 -11.28125,-11.53125 -0.4515,0 1.91605,5.0625 5.28125,11.25 16.3656,30.0912 22.7979,49.20975 20.5625,61.125 -1.0085,5.37596 -2.8305,6.625 -9.6875,6.625 -13.134,0 -28.8469,-7.87602 -59.125,-29.59375 -4.2625,-3.05738 -7.75,-5.16848 -7.75,-4.6875 0,0.48098 2.13735,3.31521 4.78125,6.3125 13.0821,14.83111 25.39945,31.53237 30.15625,40.875 4.4417,8.72378 6.44805,20.0639 4.59375,25.90625 -0.3816,1.20235 -0.4539,2.1875 -0.1875,2.1875 0.2664,0 3.5569,-3.9375 7.3125,-8.75 9.4362,-12.09187 18.84195,-21.82655 32.34375,-33.5 51.2623,-44.32057 118.45176,-65.51046 186.5,-58.8125 45.37008,4.46575 93.28704,23.73943 128.21875,51.5625 12.16787,9.69171 30.9378,28.09023 38.46875,37.71875 3.46363,4.42834 7.04931,8.99762 7.96875,10.15625 1.59725,2.01277 1.65854,1.85483 1.125,-4.09375 -1.32092,-14.72723 7.41376,-30.80207 33.125,-60.8125 4.16267,-4.85871 7.39328,-8.98172 7.1875,-9.1875 -0.20579,-0.20578 -6.39573,3.89798 -13.75,9.125 -23.2536,16.52741 -38.98436,24.4139 -50.53125,25.34375 -9.53024,0.76746 -10.9068,0.10961 -12.3125,-5.75 -2.85495,-11.90076 2.87385,-29.60515 19.40625,-60 3.66998,-6.74726 6.47942,-12.45808 6.25,-12.6875 -0.22941,-0.22941 -3.27065,2.63905 -6.75,6.375 -27.57737,29.61114 -43.21709,41.21235 -55.71875,41.28125 -4.17851,0.023 -4.36839,-0.10963 -6.4375,-4.71875 -4.97804,-11.08906 -3.18085,-30.04642 5.75,-60.125 2.50794,-8.44661 4.44427,-15.76095 4.28125,-16.25 -0.16301,-0.48905 -3.84074,5.08384 -8.1875,12.375 -17.05262,28.60364 -30.29442,43.46155 -41.6875,46.875 -3.45289,1.03451 -4.17405,0.96086 -6.03125,-0.71875 -9.41605,-8.51567 -11.97276,-34.7917 -7.28125,-74.90625 0.89284,-7.63419 -0.7036,-4.6743 -6.5,12 -9.86403,28.37554 -20.1954,45.95035 -30.625,52.0625 -5.05971,2.96519 -6.36794,2.59076 -11.46875,-3.21875 -7.87832,-8.9729 -13.2575,-26.17873 -16.96875,-54.21875 -1.1186,-8.45151 -2.0458,-16.10151 -2.0625,-17 -0.0131,-0.702615 -0.0655,-1.043461 -0.1875,-1.0625 z m 4.5,95.96875 c -117.15752,0 -213.808706,87.8012 -227.78125,201.1875 46.874529,15.68526 99.14828,26.73286 154.875,32.03125 -2.26116,-5.36266 -4.76354,-11.28073 -5.625,-13.3125 8.00219,5.26959 15.80786,10.21137 23.4375,14.84375 18.95615,1.36648 38.26348,2.0625 57.875,2.0625 1.80747,0 3.60377,-0.0193 5.40625,-0.0312 -9.58809,-11.19064 -15.20071,-25.84501 -14.6875,-41.65625 0.57349,-16.24175 7.4292,-31.31004 19.34375,-42.34375 11.12145,-10.42992 25.36125,-16.08478 40.5,-16.3125 0.50349,-0.0136 1.02361,-0.0302 1.53125,-0.0312 0.50764,-10e-4 1.02225,0.0134 1.53125,0.0312 33.54547,1.20458 59.89706,29.44522 58.75,62.96875 -0.40794,11.11088 -3.753,21.65598 -9.625,30.75 16.93244,-2.21919 33.50806,-4.99106 49.65625,-8.25 -8.38693,-26.89762 -22.12935,-63.52634 -33.375,-75.15625 -4.58796,-4.69227 -8.21895,-9.27577 -15.625,-13.625 -59.8852,-34.90378 -202.09309,-55.90363 -208.75,-56.875 l -1.09375,0.34375 -0.40625,0.90625 c 0,0 -0.53341,29.53615 -0.59375,32.8125 -4.87885,-1.61348 -20.01809,-6.55648 -41.6875,-12.5 28.27972,-34.98884 71.60415,-66.03125 147.4375,-66.03125 103.25784,0 188.10698,79.11531 197.0625,180.03125 10.16127,-2.74811 20.11687,-5.72119 29.84375,-8.875 C 493.04556,224.21995 395.98526,135.5 278.21875,135.5 z m 53.8125,154.34375 c -0.68496,-0.004 -1.36551,-0.0111 -2.0625,0.0312 -9.77143,0.59542 -18.99929,4.57699 -26.21875,11.34375 -8.22655,7.72169 -13.08072,18.17277 -13.4375,29.5 -0.60551,18.24718 10.38593,34.24006 26.34375,40.8125 12.61141,-0.55492 25.07371,-1.43572 37.375,-2.5625 2.71049,-1.57337 5.27046,-3.44019 7.625,-5.625 8.27596,-7.7601 13.1147,-18.28459 13.46875,-29.5625 0.782,-23.43928 -17.64402,-43.08584 -41.03125,-43.90625 -0.70659,-0.0259 -1.37754,-0.0271 -2.0625,-0.0312 z m 9.09375,21.25 c 10.39161,0 18.78125,5.67439 18.78125,12.625 0,6.91757 -8.38964,12.59375 -18.78125,12.59375 -10.42446,0 -18.84375,-5.6871 -18.84375,-12.59375 0,-6.95061 8.41929,-12.625 18.84375,-12.625 z"
       style="opacity:0.33000004;fill:url(#linearGradient4357);fill-opacity:1;stroke:none"
       inkscape:connector-curvature="0" />
  </g>
</svg>
