<svg version="1.0" viewBox="0 0 32 32" width="32" height="32" xmlns="http://www.w3.org/2000/svg">
 <defs>
  <linearGradient id="a" x1="-50.45" x2="-50.45" y1="-.040987" y2="-22.041" gradientUnits="userSpaceOnUse">
   <stop stop-color="#9a9996" offset="0"/>
   <stop stop-color="#9a9996" offset=".071429"/>
   <stop stop-color="#deddda" offset=".21429"/>
   <stop stop-color="#9a9996" offset=".46429"/>
   <stop stop-color="#9a9996" offset="1"/>
  </linearGradient>
 </defs>
 <g transform="matrix(1.2727 0 0 1.2727 1.9478 -34.208)" stroke-width=".55">
  <rect transform="matrix(0,-1,-1,0,0,0)" x="-50.45" y="-22.041" width="22" height="22" rx="11" ry="11" fill="url(#a)"/>
  <rect transform="matrix(0,-1,-1,0,0,0)" x="-49.664" y="-22.041" width="22" height="22" rx="11" ry="11" fill="#c0bfbc"/>
 </g>
 <path d="m20.431 12.588c-1.1723-1.3234-2.2287-2.1782-3.7925 0.05049-0.93055 1.3262-6.5148 8.9233-7.5395 10.133-0.29765 0.35152-0.47202 0.5958-0.70055 0.7374 3.6e-4 -0.48101 3.8574-6.5891 4.9368-8.3592 1.2966-2.1262 1.2554-2.0021 1.1002-2.0015-0.21966 9.5e-4 -0.66642 0.32481-1.3457 1.0493-1.2405 1.323-4.9144 6.2469-5.1677 6.171 0.087994-0.35768 2.962-4.7648 4.2669-6.5879 1.1249-1.5716 0.6949-1.6914 0.05014-1.538-2.7472 0.65519-6.0327 2.2392-6.139 2.182 0.039735-0.08202 11.065-7.8353 12.538-7.9835 0.17147-0.01726 0.53324-0.32306 1.1779-0.57778 0.69986-0.27651 1.1709-0.50142 1.2874-0.43031-0.51073 0.71595-0.77965 0.86004-0.7842 1.091-0.0075 0.37816-0.14204 0.98994-0.28942 1.1853 2.8492 1.8981 3.9608 8.3698 4.7748 13.575 0.19424 1.2355 0.37426 2.1634 0.42017 2.7147-0.24049-0.61878-2.5186-8.8428-4.794-11.412z"/>
</svg>
