<?xml version="1.0" encoding="UTF-8" standalone="no"?>
<svg
   xmlns:dc="http://purl.org/dc/elements/1.1/"
   xmlns:cc="http://creativecommons.org/ns#"
   xmlns:rdf="http://www.w3.org/1999/02/22-rdf-syntax-ns#"
   xmlns:svg="http://www.w3.org/2000/svg"
   xmlns="http://www.w3.org/2000/svg"
   width="64"
   height="64"
   version="1"
   id="svg14">
  <metadata
     id="metadata20">
    <rdf:RDF>
      <cc:Work
         rdf:about="">
        <dc:format>image/svg+xml</dc:format>
        <dc:type
           rdf:resource="http://purl.org/dc/dcmitype/StillImage" />
        <dc:title></dc:title>
      </cc:Work>
    </rdf:RDF>
  </metadata>
  <defs
     id="defs18" />
  <g
     transform="matrix(0.07510248,0,0,0.07510248,5,4)"
     id="g1085">
    <rect
       ry="26.63028"
       y="53.260559"
       x="13.31514"
       height="665.75696"
       width="692.38727"
       id="rect1327"
       style="opacity:1;fill:#442178;fill-opacity:1;stroke:none;stroke-width:50.32493973;stroke-linecap:round;stroke-linejoin:round;stroke-miterlimit:4;stroke-dasharray:none;stroke-opacity:1" />
    <rect
       ry="26.63028"
       y="26.63028"
       x="13.31514"
       height="639.12671"
       width="692.38727"
       id="rect1325"
       style="opacity:1;fill:#7137c8;fill-opacity:1;stroke:none;stroke-width:50.32493973;stroke-linecap:round;stroke-linejoin:round;stroke-miterlimit:4;stroke-dasharray:none;stroke-opacity:1" />
  </g>
  <path
     style="fill:none;stroke:none;stroke-width:1px;stroke-linecap:butt;stroke-linejoin:miter;stroke-opacity:1"
     d="m 16,20 16,8 16,-8 z"
     id="path894" />
  <path
     style="fill:#442178;fill-opacity:1;stroke:none;stroke-width:1px;stroke-linecap:butt;stroke-linejoin:miter;stroke-opacity:1"
     d="m 16,19 -4,8 v 1 L 32,47 52,28 V 27 L 48,19 H 32 Z"
     id="path894-7" />
  <path
     style="fill:#c83737;stroke:none;stroke-width:1px;stroke-linecap:butt;stroke-linejoin:miter;stroke-opacity:1"
     d="m 12,28 h 12 l 8,20 z"
     id="path896" />
  <path
     style="fill:#d35f5f;stroke:none;stroke-width:1px;stroke-linecap:butt;stroke-linejoin:miter;stroke-opacity:1"
     d="M 24,28 H 40 L 32,48 Z"
     id="path898" />
  <path
     style="fill:#c83737;stroke:none;stroke-width:1px;stroke-linecap:butt;stroke-linejoin:miter;stroke-opacity:1"
     d="M 40,28 H 52 L 32,48 Z"
     id="path900" />
  <path
     style="fill:#c83737;stroke:none;stroke-width:1px;stroke-linecap:butt;stroke-linejoin:miter;stroke-opacity:1"
     d="m 40,28 8,-8 -16,8 z"
     id="path902" />
  <path
     style="fill:#d35f5f;stroke:none;stroke-width:1px;stroke-linecap:butt;stroke-linejoin:miter;stroke-opacity:1"
     d="m 48,28 v -8 l -8,8 z"
     id="path906" />
  <path
     style="fill:#d35f5f;stroke:none;stroke-width:1px;stroke-linecap:butt;stroke-linejoin:miter;stroke-opacity:1"
     d="M 32,28 V 20 H 48 Z"
     id="path908" />
  <path
     style="fill:#c83737;stroke:none;stroke-width:1px;stroke-linecap:butt;stroke-linejoin:miter;stroke-opacity:1"
     d="m 16,20 16,8 v -8 z"
     id="path910" />
  <path
     style="fill:#c83737;stroke:none;stroke-width:1px;stroke-linecap:butt;stroke-linejoin:miter;stroke-opacity:1"
     d="m 16,20 v 8 h 8 z"
     id="path912" />
  <path
     style="fill:#d35f5f;stroke:none;stroke-width:1px;stroke-linecap:butt;stroke-linejoin:miter;stroke-opacity:1"
     d="m 12,28 4,-8 v 8 z"
     id="path918" />
  <path
     style="fill:#c83737;stroke:none;stroke-width:1px;stroke-linecap:butt;stroke-linejoin:miter;stroke-opacity:1"
     d="m 48,20 4,8 h -4 z"
     id="path920" />
  <path
     style="fill:#d35f5f;stroke:none;stroke-width:1px;stroke-linecap:butt;stroke-linejoin:miter;stroke-opacity:1"
     d="m 16,20 8,8 h 8 z"
     id="path922" />
  <circle
     style="opacity:1;fill:#1b70da;fill-opacity:1;stroke:none;stroke-width:3.99987626;stroke-linecap:round;stroke-linejoin:round;stroke-miterlimit:4;stroke-dasharray:none;stroke-opacity:1"
     id="path910-0"
     cx="48"
     cy="49"
     r="14" />
  <circle
     style="opacity:1;fill:#62a0e9;fill-opacity:1;stroke:none;stroke-width:3.99987626;stroke-linecap:round;stroke-linejoin:round;stroke-miterlimit:4;stroke-dasharray:none;stroke-opacity:1"
     id="path910-3"
     cx="48"
     cy="48"
     r="14" />
  <path
     style="fill:#1b70da;fill-opacity:1;stroke:none;stroke-width:2.07055259px;stroke-linecap:butt;stroke-linejoin:miter;stroke-opacity:1"
     d="m 50.679487,36.999999 -5.359012,9.8e-5 -1e-6,0.999999 0.08758,1.141938 c -1.078145,0.35383 -2.072078,0.92543 -2.920139,1.679336 l -1.808326,-1.141852 -2.679591,4.64099 -10e-7,0.999999 1.900979,-7.86e-4 c -0.230025,1.108758 -0.230243,2.252908 -6.39e-4,3.361752 l -1.900241,0.998045 -10e-7,1 2.679422,3.640893 1.809503,-1.143776 c 0.845886,0.755378 1.837893,1.328989 2.914543,1.685282 l -0.08306,2.138087 5.359008,-1.01e-4 -0.08758,-2.141935 c 1.078144,-0.353828 2.07208,-0.925428 2.920143,-1.679336 l 1.808326,1.141854 2.679588,-3.640994 10e-7,-0.999999 -1.900976,-0.999211 c 0.230024,-1.108758 0.230241,-2.252907 6.37e-4,-3.361751 l 1.900241,0.0019 5e-6,-1 -2.679418,-4.640896 -1.809505,1.143776 C 52.665089,40.067941 51.67308,39.49433 50.596428,39.138038 l 0.08306,-1.138084 z M 49.071792,43 c 2.209138,0.591939 3.520137,2.86266 2.928201,5.071797 -0.591937,2.209139 -2.862658,3.520141 -5.071797,2.928205 -2.20914,-0.591938 -3.520141,-2.862659 -2.928204,-5.071799 0.03556,-0.133083 0.07774,-0.264308 0.12637,-0.393187 0.752589,-1.989913 2.890574,-3.085815 4.945505,-2.534998 z"
     id="path882-7" />
  <path
     style="fill:#ffffff;stroke:none;stroke-width:2.07055259px;stroke-linecap:butt;stroke-linejoin:miter;stroke-opacity:1"
     d="m 50.679486,37.999998 -5.359012,9.8e-5 0.08758,2.141938 a 8.2822111,8.2822111 0 0 0 -2.920139,1.679336 l -1.808326,-1.141852 -2.679591,4.640989 1.900978,0.999213 a 8.2822111,8.2822111 0 0 0 -6.39e-4,3.361753 l -1.900241,0.998045 2.679421,4.640893 1.809503,-1.143776 a 8.2822111,8.2822111 0 0 0 2.914543,1.685282 l -0.08306,2.138086 5.359009,-10e-5 -0.08758,-2.141935 a 8.2822111,8.2822111 0 0 0 2.920141,-1.679336 l 1.808327,1.141854 2.679588,-4.640994 -1.900974,-0.99921 a 8.2822111,8.2822111 0 0 0 6.36e-4,-3.361752 l 1.900248,-0.998046 -2.679418,-4.640896 -1.809506,1.143776 A 8.2822111,8.2822111 0 0 0 50.596425,40.138082 Z M 49.071791,44 a 4.1411057,4.1411057 0 0 1 2.9282,5.071797 4.1411057,4.1411057 0 0 1 -5.071796,2.928205 4.1411057,4.1411057 0 0 1 -2.928204,-5.0718 4.1411057,4.1411057 0 0 1 0.12637,-0.393186 4.1411057,4.1411057 0 0 1 4.945506,-2.534998 z"
     id="path882" />
</svg>
