<svg version="1" viewBox="0 0 32 32" width="32" height="32" xmlns="http://www.w3.org/2000/svg">
 <defs>
  <linearGradient id="a" x1="2" x2="30" y1="16" y2="16" gradientUnits="userSpaceOnUse">
   <stop stop-color="#9a9996" offset="0"/>
   <stop stop-color="#9a9996" offset=".14286"/>
   <stop stop-color="#deddda" offset=".25"/>
   <stop stop-color="#9a9996" offset=".39286"/>
   <stop stop-color="#9a9996" offset="1"/>
  </linearGradient>
 </defs>
 <path d="m16 2c-7.756 0-14 6.244-14 14s6.244 14 14 14 14-6.244 14-14-6.244-14-14-14z" fill="url(#a)" stroke-width=".7"/>
 <rect transform="matrix(0,-1,-1,0,0,0)" x="-29" y="-30" width="28" height="28" rx="14" ry="14" fill="#deddda" stroke-width=".7"/>
 <path d="m16 2a13 13 0 0 0-13 13 13 13 0 0 0 13 13 13 13 0 0 0 13-13 13 13 0 0 0-13-13z" fill="#1a5fb4"/>
 <path d="m16 2c-1.7155 0.00132-3.4139 0.34217-4.9971 1.0029l0.99707 0.99707v1l2 2h1v-1.5l1.5-1v-1.5l1-0.5v-0.39746c-0.4976-0.063089-0.99844-0.097326-1.5-0.10254zm-7.082 2.1123c-3.6868 2.3951-5.9133 6.4913-5.918 10.888 0.00454 0.30546 0.019852 0.61066 0.045898 0.91504l2.9541 2.585v-1.5l-1-1.5 2-1.5 1.5 1v-2l2-1.5 1.5-2.5-1.5-1.5h-1.5l0.5 1.5h-2.5l-0.5-1 0.5-1v-1h2.5v-1.5zm14.582 0.3877-1.5 1.5v1h1v-1h2v2h-4v1h-1v1h-2v3h3v-2h2l1 2h1v-2h1l1 2h1v1h-10l-1 1.5 2.5 2.5 2.5 4 0.5 2.5 1.0615 1.0615c2.8485-2.0409 4.7524-5.1452 5.2803-8.6094l-2.3418-1.9521 0.5-0.5 1.9502 1.5605c0.031037-0.35269 0.047652-0.7065 0.049805-1.0605-0.006097-4.1557-1.9987-8.0581-5.3613-10.5zm-16 13.5-1 1v2.5l2 2v2.0996c0.88531 0.63092 1.8463 1.1483 2.8604 1.54l0.63965-0.63965v-1l1.5-1.5v-1l1-1v-2l-1-1h-2l-1-1z" fill="#1c71d8"/>
 <rect x="16" y="16" width="16" height="16" ry="1" fill="#f6f5f4"/>
 <path d="m23 17-0.77734 2.332c-0.09023 0.03387-0.17946 0.07034-0.26758 0.10938l-2.1973-1.0977-1.4141 1.4141 1.0996 2.1992c-0.04097 0.08741-0.07939 0.17599-0.11523 0.26562l-2.3281 0.77734v2l2.332 0.77734c0.03387 0.09023 0.07034 0.17946 0.10938 0.26758l-1.0977 2.1973 1.4141 1.4141 2.1992-1.0996c0.08741 0.04097 0.17599 0.0794 0.26562 0.11523l0.77734 2.3281h2l0.77734-2.332c0.09023-0.03387 0.17946-0.07034 0.26758-0.10938l2.1973 1.0977 1.4141-1.4141-1.0996-2.1992c0.04097-0.08741 0.0794-0.17599 0.11523-0.26562l2.3281-0.77734v-2l-2.332-0.77734c-0.03387-0.09023-0.07034-0.17946-0.10938-0.26758l1.0977-2.1973-1.4141-1.4141-2.1992 1.0996c-0.08741-0.04097-0.17599-0.0794-0.26562-0.11523l-0.77734-2.3281zm1 4c1.6569 0 3 1.3431 3 3s-1.3431 3-3 3-3-1.3431-3-3 1.3431-3 3-3z" fill="#3d3846"/>
</svg>
