<svg version="1.1" viewBox="0 0 32 32" width="32" height="32" xmlns="http://www.w3.org/2000/svg">
 <defs>
  <linearGradient id="a" x1="16" x2="16" y1="3" y2="29" gradientUnits="userSpaceOnUse">
   <stop stop-color="#fff" offset="0"/>
   <stop stop-color="#f6f5f4" offset="1"/>
  </linearGradient>
 </defs>
 <path d="m16 2c-2.8 2.0955-9.9039 4.4598-14 3 0.458 11.149 2.306 21.206 14 25 11.694-3.7942 13.542-13.851 14-25-4.0961 1.4598-11.2-0.9045-14-3z" fill="#3d3846"/>
 <path d="m16 2.9922c-1.571 1.0528-3.8043 2.0534-6.2988 2.6875-2.2877 0.5815-4.6033 0.72786-6.7012 0.32031 0.25934 5.1391 0.80541 9.9685 2.582 13.898 1.8645 4.1245 4.9608 7.2537 10.418 9.1016 5.4571-1.8479 8.5534-4.9771 10.418-9.1016 1.7766-3.93 2.3227-8.7593 2.582-13.898-2.0979 0.40755-4.4134 0.26119-6.7012-0.32031-2.4945-0.63407-4.7279-1.6347-6.2988-2.6875z" fill="url(#a)"/>
 <path d="m29 6c-1.013 0.19679-2.0868 0.26164-3.1816 0.2168l-17.701 17.666c1.8565 2.185 4.3771 3.9301 7.8828 5.1172 5.4571-1.8479 8.5534-5.0318 10.418-9.1562 1.7766-3.93 2.3227-8.7047 2.582-13.844z" fill="#e01b24"/>
 <path d="m21 25v-6l3-6h3l-5 10z" fill="#fff"/>
 <path d="m21 25v-6l-3-6h-3l5 10z" fill="#fdfdfd"/>
 <g fill="#e01b24">
  <path d="m12 7v6l-3 6h-3l5-10z"/>
  <path d="m12 7v6l3 6h3l-5-10z"/>
  <rect x="9" y="15" width="6" height="2"/>
 </g>
 <rect x="18" y="15" width="6" height="2" fill="#fff"/>
</svg>
