<svg version="1" viewBox="0 0 32 32" width="32" height="32" xmlns="http://www.w3.org/2000/svg">
 <defs>
  <linearGradient id="a" x1="-50.45" x2="-50.45" y1="-.040987" y2="-22.041" gradientTransform="matrix(1.2727 0 0 1.2727 33.208 -1.9478)" gradientUnits="userSpaceOnUse">
   <stop stop-color="#e5a50a" offset="0"/>
   <stop stop-color="#e5a50a" offset=".071429"/>
   <stop stop-color="#f6d32d" offset=".21429"/>
   <stop stop-color="#e5a50a" offset=".46429"/>
   <stop stop-color="#e5a50a" offset="1"/>
  </linearGradient>
 </defs>
 <rect transform="matrix(0,-1,-1,0,0,0)" x="-31" y="-30" width="28" height="28" rx="14" ry="14" fill="url(#a)" stroke-width=".7"/>
 <rect transform="matrix(0,-1,-1,0,0,0)" x="-30" y="-30" width="28" height="28" rx="14" ry="14" fill="#f6d32d" stroke-width=".7"/>
 <path d="m21.337 7.7249c-3.428 0-4.0711 5.2088-2.1424 5.2088 1.9279 0 5.5708-5.2088 2.1424-5.2088zm-5.2802 0.80136c-0.054-2.011e-4 -0.1127 0.00496-0.17348 0.011327-1.9426 0.24536-1.2589 3.533-0.22478 3.5943 1.0014 0.05979 2.0969-3.5996 0.39758-3.6053zm-3.3684 1.2137c-0.11885-0.00751-0.25041 0.015044-0.39689 0.074964-1.5614 0.64116-0.23692 3.2879 0.63719 3.1099 0.79339-0.16122 0.90713-3.1105-0.2403-3.1851zm-2.5486 2.1638c-0.13571-0.0037-0.28214 0.04301-0.43874 0.15962-1.2498 0.93278 0.42053 3.1862 1.1559 2.8368 0.64328-0.30604 0.23288-2.962-0.71739-2.9965zm7.3818 2.1513c-2.7081-0.04657-6.2809 1.3277-6.8904 4.0885-0.65948 2.9869 2.7169 7.1314 6.239 7.1314 1.7327 0 3.7311-1.5835 4.1054-3.5889 0.28552-1.529-3.3606-0.91624-3.2297 0.09539 0.15728 1.2128-0.87939 1.8124-1.8945 1.0307-3.2313-2.489 5.3504-3.7311 4.7843-7.1314-0.17617-1.0585-1.4897-1.5976-3.1144-1.6254z" stroke-width=".675"/>
 <rect x="16" y="16" width="16" height="16" ry="1" fill="#f6f5f4"/>
 <g transform="matrix(.039317 0 0 .039317 20.926 16.235)" fill="#3d3846">
  <g transform="translate(-413.21 -40.704)">
   <path d="m342.07 390.7 111.1-145.26-114.38-159.71 73.514 0.06108 91.138 125.58-136.27 179.33zm217.45 0.10271-90.509-125.8 137.4-179.41h24.482l-111.55 145.94 113.69 159.27z" fill="#3d3846"/>
  </g>
  <rect x="322.36" y="180.85" width=".50508" height="0" opacity=".40741"/>
 </g>
</svg>
