<?xml version="1.0" encoding="UTF-8" standalone="no"?>
<svg
   xmlns:dc="http://purl.org/dc/elements/1.1/"
   xmlns:cc="http://creativecommons.org/ns#"
   xmlns:rdf="http://www.w3.org/1999/02/22-rdf-syntax-ns#"
   xmlns:svg="http://www.w3.org/2000/svg"
   xmlns="http://www.w3.org/2000/svg"
   id="svg14"
   version="1"
   height="64"
   width="64">
  <metadata
     id="metadata20">
    <rdf:RDF>
      <cc:Work
         rdf:about="">
        <dc:format>image/svg+xml</dc:format>
        <dc:type
           rdf:resource="http://purl.org/dc/dcmitype/StillImage" />
        <dc:title></dc:title>
      </cc:Work>
    </rdf:RDF>
  </metadata>
  <defs
     id="defs18" />
  <g
     id="g1085"
     transform="matrix(0.07510248,0,0,0.07510248,5,4)">
    <rect
       style="opacity:1;fill:#00aa00;fill-opacity:1;stroke:none;stroke-width:50.32493973;stroke-linecap:round;stroke-linejoin:round;stroke-miterlimit:4;stroke-dasharray:none;stroke-opacity:1"
       id="rect1327"
       width="692.38727"
       height="665.75696"
       x="13.31514"
       y="53.260559"
       ry="26.63028" />
    <rect
       style="opacity:1;fill:#00ff00;fill-opacity:1;stroke:none;stroke-width:50.32493973;stroke-linecap:round;stroke-linejoin:round;stroke-miterlimit:4;stroke-dasharray:none;stroke-opacity:1"
       id="rect1325"
       width="692.38727"
       height="639.12671"
       x="13.31514"
       y="26.63028"
       ry="26.63028" />
    <path
       id="path948-2"
       d="m 146.46653,119.83626 c -26.63028,0 -53.260546,26.63027 -53.260546,53.26056 l -2e-6,319.56334 c 0,26.63026 26.630268,53.26054 53.260548,53.26056 H 306.2482 c 13.31513,-2e-5 26.63027,-13.31516 26.63028,-26.63028 l 26.63028,26.63028 66.5757,13.31514 v -13.31514 l -66.5757,-66.57569 V 173.09682 c 0,-26.63029 -26.63029,-53.26056 -53.26056,-53.26056 z m 26.63028,53.26056 h 106.52112 c 13.31512,0 26.63027,13.31513 26.63027,26.63028 v 266.30279 c 0,13.31511 -12.46114,26.75087 -26.63027,26.63027 H 173.09681 c -13.31515,-2e-5 -26.63028,-13.31516 -26.63028,-26.63027 V 199.7271 c 0,-13.31515 13.31513,-26.63028 26.63028,-26.63028 z"
       style="fill:#00aa00;fill-opacity:1;stroke:none;stroke-width:13.31513977px;stroke-linecap:butt;stroke-linejoin:miter;stroke-opacity:1" />
    <path
       id="path948"
       d="m 146.46655,133.1514 c -26.63028,0 -53.260565,26.63028 -53.260565,53.26056 v 319.56336 c 0,26.63025 26.630285,53.26053 53.260565,53.26056 h 159.78168 c 13.31512,-3e-5 26.63026,-13.31517 26.63028,-26.63028 l 26.63028,26.63028 h 66.5757 l -66.5757,-66.5757 V 186.41196 c 0,-26.63028 -26.6303,-53.26056 -53.26056,-53.26056 z m 26.63028,53.26056 h 106.52112 c 13.31512,-1e-5 26.63028,13.31513 26.63028,26.63028 v 266.3028 c -2e-5,13.31511 -12.46115,26.75088 -26.63028,26.63028 H 173.09683 c -13.31516,-3e-5 -26.6303,-13.31517 -26.63028,-26.63028 v -266.3028 c 0,-13.31515 13.31512,-26.63028 26.63028,-26.63028 z"
       style="fill:#ffffff;stroke:none;stroke-width:13.31513977px;stroke-linecap:butt;stroke-linejoin:miter;stroke-opacity:1" />
    <path
       id="path950-9"
       d="m 639.12669,466.02989 c 0,39.94541 -26.63028,79.89083 -66.57569,79.89083 h -79.89084 c -39.94542,0 -79.89084,-39.94542 -79.89084,-79.89083 V 119.83626 h 53.26056 v 133.1514 H 572.551 v 13.31513 l -53.26056,39.94543 h -53.26056 v 146.46653 c 0,26.63028 13.31514,39.94541 39.94542,39.94541 h 39.94542 c 26.63028,0 26.63028,-13.31513 26.63028,-26.63027 z"
       style="fill:#00aa00;fill-opacity:1;stroke:none;stroke-width:13.31513977px;stroke-linecap:butt;stroke-linejoin:miter;stroke-opacity:1" />
    <path
       id="path950"
       d="m 639.1267,479.34502 c 0,39.94542 -26.63028,79.89084 -66.5757,79.89084 h -79.89084 c -39.94542,0 -79.89083,-39.94542 -79.89083,-79.89084 V 133.15139 h 53.26055 v 133.1514 H 572.551 l -53.26056,53.26056 h -53.26056 v 146.46653 c 0,26.63028 13.31514,39.94542 39.94542,39.94542 h 39.94542 c 26.63028,0 26.63028,-13.31514 26.63028,-26.63028 z"
       style="fill:#ffffff;stroke:none;stroke-width:13.31513977px;stroke-linecap:butt;stroke-linejoin:miter;stroke-opacity:1" />
  </g>
  <circle
     style="opacity:1;fill:#1b70da;fill-opacity:1;stroke:none;stroke-width:3.99987626;stroke-linecap:round;stroke-linejoin:round;stroke-miterlimit:4;stroke-dasharray:none;stroke-opacity:1"
     id="path910-0"
     cx="48"
     cy="49"
     r="14" />
  <circle
     style="opacity:1;fill:#62a0e9;fill-opacity:1;stroke:none;stroke-width:3.99987626;stroke-linecap:round;stroke-linejoin:round;stroke-miterlimit:4;stroke-dasharray:none;stroke-opacity:1"
     id="path910"
     cx="48"
     cy="48"
     r="14" />
  <path
     style="fill:#1b70da;fill-opacity:1;stroke:none;stroke-width:2.07055259px;stroke-linecap:butt;stroke-linejoin:miter;stroke-opacity:1"
     d="m 50.679485,36.999997 -5.359012,9.8e-5 -10e-7,0.999999 0.08758,1.141938 c -1.078145,0.35383 -2.072077,0.92543 -2.920138,1.679336 l -1.808326,-1.141851 -2.679591,4.640989 -10e-7,0.999999 1.900978,-7.86e-4 c -0.230025,1.108758 -0.230242,2.252908 -6.39e-4,3.361752 l -1.90024,0.998045 -1e-6,1 2.679422,3.640893 1.809502,-1.143776 c 0.845887,0.755378 1.837893,1.328989 2.914543,1.685282 l -0.08306,2.138087 5.359008,-1.01e-4 -0.08758,-2.141935 c 1.078144,-0.353828 2.07208,-0.925428 2.920143,-1.679336 l 1.808326,1.141854 2.679588,-3.640994 10e-7,-0.999999 -1.900976,-0.999211 c 0.230024,-1.108758 0.230241,-2.252907 6.37e-4,-3.361751 l 1.900241,0.0019 5e-6,-1 -2.679418,-4.640896 -1.809505,1.143776 c -0.845884,-0.75537 -1.837893,-1.328981 -2.914545,-1.685273 l 0.08306,-1.138084 z m -1.607695,6.000002 c 2.209138,0.591939 3.520137,2.862659 2.928201,5.071796 -0.591937,2.209139 -2.862658,3.520141 -5.071797,2.928205 -2.20914,-0.591938 -3.520141,-2.862659 -2.928203,-5.071799 0.03556,-0.133083 0.07774,-0.264308 0.126369,-0.393187 0.752589,-1.989913 2.890574,-3.085815 4.945505,-2.534998 z"
     id="path882-7" />
  <path
     style="fill:#ffffff;stroke:none;stroke-width:2.07055259px;stroke-linecap:butt;stroke-linejoin:miter;stroke-opacity:1"
     d="m 50.679484,37.999996 -5.359012,9.8e-5 0.08758,2.141938 a 8.2822111,8.2822111 0 0 0 -2.920138,1.679336 l -1.808326,-1.141852 -2.679591,4.640989 1.900977,0.999213 a 8.2822111,8.2822111 0 0 0 -6.39e-4,3.361753 l -1.90024,0.998045 2.679421,4.640893 1.809502,-1.143776 a 8.2822111,8.2822111 0 0 0 2.914543,1.685282 l -0.08306,2.138086 5.359009,-10e-5 -0.08758,-2.141935 a 8.2822111,8.2822111 0 0 0 2.920141,-1.679336 l 1.808327,1.141854 2.679588,-4.640994 -1.900974,-0.99921 a 8.2822111,8.2822111 0 0 0 6.36e-4,-3.361752 l 1.900248,-0.998046 -2.679418,-4.640896 -1.809506,1.143776 A 8.2822111,8.2822111 0 0 0 50.596423,40.13808 Z m -1.607695,6.000002 a 4.1411057,4.1411057 0 0 1 2.9282,5.071797 A 4.1411057,4.1411057 0 0 1 46.928193,52 4.1411057,4.1411057 0 0 1 43.99999,46.9282 a 4.1411057,4.1411057 0 0 1 0.126369,-0.393186 4.1411057,4.1411057 0 0 1 4.945506,-2.534998 z"
     id="path882" />
</svg>
