<?xml version="1.0" encoding="UTF-8" standalone="no"?>
<svg
   xmlns:dc="http://purl.org/dc/elements/1.1/"
   xmlns:cc="http://creativecommons.org/ns#"
   xmlns:rdf="http://www.w3.org/1999/02/22-rdf-syntax-ns#"
   xmlns:svg="http://www.w3.org/2000/svg"
   xmlns="http://www.w3.org/2000/svg"
   id="svg14"
   version="1"
   height="64"
   width="64">
  <metadata
     id="metadata20">
    <rdf:RDF>
      <cc:Work
         rdf:about="">
        <dc:format>image/svg+xml</dc:format>
        <dc:type
           rdf:resource="http://purl.org/dc/dcmitype/StillImage" />
        <dc:title></dc:title>
      </cc:Work>
    </rdf:RDF>
  </metadata>
  <defs
     id="defs18" />
  <g
     id="g1085"
     transform="matrix(0.07510248,0,0,0.07510248,5,4)">
    <rect
       style="opacity:1;fill:#447821;fill-opacity:1;stroke:none;stroke-width:50.32493973;stroke-linecap:round;stroke-linejoin:round;stroke-miterlimit:4;stroke-dasharray:none;stroke-opacity:1"
       id="rect1327"
       width="692.38727"
       height="665.75696"
       x="13.31514"
       y="53.260559"
       ry="26.63028" />
    <rect
       style="opacity:1;fill:#71c837;fill-opacity:1;stroke:none;stroke-width:50.32493973;stroke-linecap:round;stroke-linejoin:round;stroke-miterlimit:4;stroke-dasharray:none;stroke-opacity:1"
       id="rect1325"
       width="692.38727"
       height="639.12671"
       x="13.31514"
       y="26.63028"
       ry="26.63028" />
    <path
       style="fill:#447821;stroke:none;stroke-width:13.31513977px;stroke-linecap:butt;stroke-linejoin:miter;stroke-opacity:1"
       d="m 479.34502,79.890837 -66.57569,26.630273 v 199.7271 l -26.63028,6.65757 V 133.15139 l -39.94542,-13.31513 -53.26056,26.63027 v 186.41196 l -26.63028,6.65757 V 173.09681 l -26.63028,-26.63028 -53.26056,26.63028 v 186.41196 l -79.89084,26.63028 -26.630285,119.83626 1.2e-5,13.31513 399.454193,39.94543 159.78167,-39.94543 10e-6,-13.31513 -13.31514,-133.1514 -119.83626,-66.5757 v -199.7271 z"
       id="path912-7" />
    <path
       style="fill:#cccccc;stroke:none;stroke-width:13.31513977px;stroke-linecap:butt;stroke-linejoin:miter;stroke-opacity:1"
       d="m 266.30279,359.50877 10e-6,-173.09681 -26.63029,-26.63029 0,199.7271 z"
       id="path912" />
    <path
       style="fill:#cccccc;stroke:none;stroke-width:13.31513977px;stroke-linecap:butt;stroke-linejoin:miter;stroke-opacity:1"
       d="m 346.19363,133.1514 39.94543,13.31514 -10e-6,186.41195 h -39.94542 z"
       id="path910" />
    <path
       style="fill:#f2f2f2;stroke:none;stroke-width:13.31513977px;stroke-linecap:butt;stroke-linejoin:miter;stroke-opacity:1"
       d="M 106.52112,399.45419 79.890842,519.29046 479.34502,572.551 l 0,-479.345023 -66.57569,26.630283 v 199.72709 l -66.5757,13.31514 V 133.1514 l -53.26056,26.63027 v 186.41196 l -53.26056,13.31514 v -199.7271 l -53.26056,26.63028 v 186.41196 z"
       id="path906" />
    <path
       style="fill:#cccccc;stroke:none;stroke-width:13.31513977px;stroke-linecap:butt;stroke-linejoin:miter;stroke-opacity:1"
       d="M 479.34504,572.55102 639.12672,519.29046 625.81156,386.13905 505.9753,319.56335 V 119.83626 L 479.34502,93.205977 Z"
       id="path908" />
  </g>
  <circle
     style="opacity:1;fill:#1b70da;fill-opacity:1;stroke:none;stroke-width:3.99987626;stroke-linecap:round;stroke-linejoin:round;stroke-miterlimit:4;stroke-dasharray:none;stroke-opacity:1"
     id="path910-0"
     cx="48"
     cy="49"
     r="14" />
  <circle
     style="opacity:1;fill:#62a0e9;fill-opacity:1;stroke:none;stroke-width:3.99987626;stroke-linecap:round;stroke-linejoin:round;stroke-miterlimit:4;stroke-dasharray:none;stroke-opacity:1"
     id="path910-3"
     cx="48"
     cy="48"
     r="14" />
  <path
     style="fill:#1b70da;fill-opacity:1;stroke:none;stroke-width:2.07055259px;stroke-linecap:butt;stroke-linejoin:miter;stroke-opacity:1"
     d="m 50.679484,36.999996 -5.359012,9.8e-5 -1e-6,1 0.08758,1.141938 c -1.078145,0.35383 -2.072078,0.925429 -2.920139,1.679336 l -1.808326,-1.141852 -2.679591,4.640989 -10e-7,0.999999 1.900979,-7.86e-4 c -0.230026,1.108758 -0.230243,2.252908 -6.39e-4,3.361752 l -1.900241,0.998045 -10e-7,1 2.679422,3.640893 1.809502,-1.143776 c 0.845887,0.755378 1.837894,1.328989 2.914544,1.685282 l -0.08306,2.138087 5.359008,-1.01e-4 -0.08758,-2.141935 c 1.078144,-0.353828 2.07208,-0.925428 2.920143,-1.679336 l 1.808326,1.141854 2.679588,-3.640994 10e-7,-0.999999 -1.900976,-0.999211 c 0.230024,-1.108758 0.230241,-2.252907 6.37e-4,-3.361751 l 1.900241,0.0019 5e-6,-1 -2.679418,-4.640895 -1.809505,1.143776 c -0.845884,-0.75537 -1.837893,-1.328981 -2.914545,-1.685273 l 0.08306,-1.138085 z m -1.607695,6.000002 c 2.209138,0.591939 3.520137,2.862659 2.928201,5.071796 -0.591937,2.209139 -2.862658,3.520141 -5.071797,2.928205 -2.20914,-0.591938 -3.520141,-2.862659 -2.928204,-5.071799 0.03556,-0.133083 0.07774,-0.264308 0.12637,-0.393187 0.752589,-1.989912 2.890574,-3.085814 4.945505,-2.534997 z"
     id="path882-7" />
  <path
     style="fill:#ffffff;stroke:none;stroke-width:2.07055259px;stroke-linecap:butt;stroke-linejoin:miter;stroke-opacity:1"
     d="m 50.679483,37.999996 -5.359012,9.8e-5 0.08758,2.141938 a 8.2822111,8.2822111 0 0 0 -2.920139,1.679335 l -1.808326,-1.141851 -2.679591,4.640988 1.900978,0.999213 a 8.2822111,8.2822111 0 0 0 -6.39e-4,3.361753 l -1.900241,0.998045 2.679421,4.640893 1.809502,-1.143776 a 8.2822111,8.2822111 0 0 0 2.914544,1.685282 L 45.3205,58 l 5.359009,-1e-4 -0.08758,-2.141935 a 8.2822111,8.2822111 0 0 0 2.920141,-1.679336 l 1.808327,1.141854 2.679588,-4.640994 -1.900974,-0.99921 a 8.2822111,8.2822111 0 0 0 6.36e-4,-3.361752 l 1.900248,-0.998046 -2.679418,-4.640895 -1.809506,1.143776 A 8.2822111,8.2822111 0 0 0 50.596422,40.13808 Z m -1.607695,6.000002 a 4.1411057,4.1411057 0 0 1 2.9282,5.071796 4.1411057,4.1411057 0 0 1 -5.071796,2.928205 4.1411057,4.1411057 0 0 1 -2.928204,-5.0718 4.1411057,4.1411057 0 0 1 0.12637,-0.393186 4.1411057,4.1411057 0 0 1 4.945506,-2.534998 z"
     id="path882" />
</svg>
