<svg version="1" viewBox="0 0 32 32" width="32" height="32" xmlns="http://www.w3.org/2000/svg">
 <rect x="3" y="4" width="26" height="26" ry="0" fill="#b5835a"/>
 <rect x="3" y="3" width="26" height="26" ry="0" fill="#cdab8f"/>
 <g fill="#a51d2d">
  <rect x="3" y="3" width="12" height="4" ry="0"/>
  <rect x="17" y="3" width="12" height="4" ry="0"/>
  <rect x="10" y="9.5" width="12" height="4.5" ry="0"/>
  <rect x="24" y="9" width="5" height="5" ry="0"/>
  <rect x="3" y="9" width="5" height="5" ry="0"/>
 </g>
 <g fill="#e01b24">
  <rect x="3" y="2" width="12" height="4" ry="0"/>
  <rect x="17" y="2" width="12" height="4" ry="0"/>
  <rect x="10" y="9" width="12" height="4" ry="0"/>
  <rect x="24" y="9" width="5" height="4" ry="0"/>
  <rect x="3" y="9" width="5" height="4" ry="0"/>
 </g>
 <g fill="#a51d2d">
  <rect x="3" y="17" width="12" height="4" ry="0"/>
  <rect x="17" y="17" width="12" height="4" ry="0"/>
  <rect x="10" y="23.5" width="12" height="4.5" ry="0"/>
  <rect x="24" y="24" width="5" height="4" ry="0"/>
  <rect x="3" y="24" width="5" height="4" ry="0"/>
 </g>
 <g fill="#e01b24">
  <rect x="3" y="16" width="12" height="4" ry="0"/>
  <rect x="17" y="16" width="12" height="4" ry="0"/>
  <rect x="10" y="23" width="12" height="4" ry="0"/>
  <rect x="24" y="23" width="5" height="4" ry="0"/>
  <rect x="3" y="23" width="5" height="4" ry="0"/>
 </g>
</svg>
