<svg version="1.1" viewBox="0 0 32 32" width="32" height="32" xmlns="http://www.w3.org/2000/svg">
 <path d="m16 3a14 14 0 0 0-14 14 14 14 0 0 0 14 14 14 14 0 0 0 14-14 14 14 0 0 0-14-14z" fill="#1a5fb4"/>
 <path d="m16 2a14 14 0 0 0-14 14 14 14 0 0 0 14 14 14 14 0 0 0 14-14 14 14 0 0 0-14-14z" fill="#1c71d8"/>
 <path d="m17 8-3 0.5v12.5l3-1v-4.5l3.5 5 3.5-1-4-5 4-5.5-3-1-4 5.5zm-6.6931 3.4105c-0.08113 0-0.16227 0.03147-0.22448 0.09345l-1.3486 1.3433c-0.12443 0.12394-0.09447 0.301 0 0.44888l1.3955 2.1827c-0.10339 0.21378-0.19292 0.43395-0.26804 0.65914-0.0033 0.0097-0.0085 0.01866-0.01172 0.02837l-2.5313 0.56068c-0.17178 0.03803-0.31829 0.14178-0.31829 0.31706v1.6787c0 0.17528 0.14652 0.27903 0.31829 0.31706l2.5313 0.56069c0.0055 0.01658 0.0144 0.03188 0.02011 0.04839 0.07312 0.21876 0.15984 0.43277 0.25966 0.64078l-1.3955 2.181c-0.09447 0.14788-0.12443 0.32494 0 0.44888l1.3486 1.3433c0.12443 0.12394 0.32453 0.12394 0.44896 0l2.1878-1.3884c0.21508 0.10419 0.43667 0.19449 0.66339 0.27033 0.01488 0.0052 0.02864 0.01328 0.04356 0.01835l0.5612 2.5198c0 0.17528 0.14233 0.31706 0.31829 0.31706h1.9047c0.17596 0 0.28012-0.14595 0.31829-0.31706l0.5612-2.5965c0.25783-0.09656 0.50813-0.21201 0.74883-0.34542l2.1359 1.5219c0.12443 0.12394 0.32454 0.12394 0.44896 0l1.3486-1.3433c0.12443-0.12394 0.09447-0.301 0-0.44888l-0.81248-1.2282-0.08544 0.03171c-0.1932 0.07229-0.4107-0.0027-0.51764-0.17855l-0.85436-1.4017c-0.71185 1.6961-2.393 2.8885-4.3539 2.8885-2.6054 0-4.7174-2.1039-4.7174-4.6991 0-1.9915 1.2461-3.6895 3.002-4.3737l0.0018-0.89122c-0.22371 0.07401-0.50625 0.17054-0.71877 0.27213l-2.1845-1.3867c-0.06222-0.06197-0.14335-0.09345-0.22448-0.09345z" fill="#fff" stroke-width=".42802"/>
 <rect x="16" y="16" width="16" height="16" ry="1" fill="#f6f5f4"/>
 <path d="m23 17-0.77734 2.332a5 5 0 0 0-0.26758 0.10938l-2.1973-1.0977-1.4141 1.4141 1.0996 2.1992a5 5 0 0 0-0.11523 0.26562l-2.3281 0.77734v2l2.332 0.77734a5 5 0 0 0 0.10938 0.26758l-1.0977 2.1973 1.4141 1.4141 2.1992-1.0996a5 5 0 0 0 0.26562 0.11523l0.77734 2.3281h2l0.77734-2.332a5 5 0 0 0 0.26758-0.10938l2.1973 1.0977 1.4141-1.4141-1.0996-2.1992a5 5 0 0 0 0.11523-0.26562l2.3281-0.77734v-2l-2.332-0.77734a5 5 0 0 0-0.10938-0.26758l1.0977-2.1973-1.4141-1.4141-2.1992 1.0996a5 5 0 0 0-0.26562-0.11523l-0.77734-2.3281zm1 3a4 4 0 0 0-0.33789 0.017578 4 4 0 0 1 0.33789-0.017578zm0.33789 0.01758a4 4 0 0 1 0.21094 0.02539 4 4 0 0 0-0.21094-0.02539zm-0.88672 0.02539a4 4 0 0 0-0.18555 0.02734 4 4 0 0 1 0.18555-0.02734zm1.2832 0.02734a4 4 0 0 1 0.22266 0.05078 4 4 0 0 0-0.22266-0.05078zm-1.6914 0.05078a4 4 0 0 0-0.1543 0.03906 4 4 0 0 1 0.1543-0.03906zm2.0684 0.03906a4 4 0 0 1 0.21484 0.07031 4 4 0 0 0-0.21484-0.07031zm-2.4375 0.07031a4 4 0 0 0-0.17969 0.06641 4 4 0 0 1 0.17969-0.06641zm2.832 0.06641a4 4 0 0 1 0.17383 0.07813 4 4 0 0 0-0.17383-0.07813zm-3.1855 0.07813a4 4 0 0 0-0.18555 0.08984 4 4 0 0 1 0.18555-0.08984zm3.5449 0.08984a4 4 0 0 1 0.16406 0.09375 4 4 0 0 0-0.16406-0.09375zm-3.8945 0.09375a4 4 0 0 0-0.1875 0.11523 4 4 0 0 1 0.1875-0.11523zm4.2461 0.11523a4 4 0 0 1 0.13476 0.09766 4 4 0 0 0-0.13476-0.09766zm-4.5684 0.09766a4 4 0 0 0-0.18555 0.14062 4 4 0 0 1 0.18555-0.14062zm4.8887 0.14062a4 4 0 0 1 0.12891 0.11328 4 4 0 0 0-0.12891-0.11328zm-2.5371 0.087891a3 3 0 0 1 3 3 3 3 0 0 1-3 3 3 3 0 0 1-3-3 3 3 0 0 1 3-3zm-2.666 0.02539a4 4 0 0 0-0.16016 0.14844 4 4 0 0 1 0.03906-0.04297 4 4 0 0 1 0.12109-0.10547zm5.4922 0.14844a4 4 0 0 1 0.04297 0.03906 4 4 0 0 1 0.10547 0.12109 4 4 0 0 0-0.14844-0.16016zm-5.8008 0.16016a4 4 0 0 0-0.11328 0.12891 4 4 0 0 1 0.11328-0.12891zm6.0625 0.12891a4 4 0 0 1 0.14062 0.18555 4 4 0 0 0-0.14062-0.18555zm-6.3164 0.18555a4 4 0 0 0-0.09766 0.13476 4 4 0 0 1 0.09766-0.13476zm6.5547 0.13476a4 4 0 0 1 0.11523 0.1875 4 4 0 0 0-0.11523-0.1875zm-6.7676 0.1875a4 4 0 0 0-0.09375 0.16406 4 4 0 0 1 0.09375-0.16406zm6.9766 0.16406a4 4 0 0 1 0.08984 0.18555 4 4 0 0 0-0.08984-0.18555zm-7.1602 0.18555a4 4 0 0 0-0.07813 0.17383 4 4 0 0 1 0.07813-0.17383zm7.3281 0.17383a4 4 0 0 1 0.06641 0.17969 4 4 0 0 0-0.06641-0.17969zm-7.4727 0.17969a4 4 0 0 0-0.07031 0.21484 4 4 0 0 1 0.07031-0.21484zm7.6094 0.21484a4 4 0 0 1 0.03906 0.1543 4 4 0 0 0-0.03906-0.1543zm-7.7188 0.1543a4 4 0 0 0-0.05078 0.22266 4 4 0 0 1 0.05078-0.22266zm7.8086 0.22266a4 4 0 0 1 0.02734 0.18555 4 4 0 0 0-0.02734-0.18555zm-7.8867 0.18555a4 4 0 0 0-0.02539 0.21094 4 4 0 0 1 0.02539-0.21094zm7.9395 0.21094a4 4 0 0 1 0.01758 0.33789 4 4 0 0 0-0.01758-0.33789zm-7.9824 0.33789a4 4 0 0 0 0.01758 0.33789 4 4 0 0 1-0.01758-0.33789zm7.9824 0.33789a4 4 0 0 1-0.02539 0.21094 4 4 0 0 0 0.02539-0.21094zm-7.9395 0.21094a4 4 0 0 0 0.02734 0.18555 4 4 0 0 1-0.02734-0.18555zm7.8867 0.18555a4 4 0 0 1-0.05078 0.22266 4 4 0 0 0 0.05078-0.22266zm-7.8086 0.22266a4 4 0 0 0 0.03906 0.1543 4 4 0 0 1-0.03906-0.1543zm7.7188 0.1543a4 4 0 0 1-0.07031 0.21484 4 4 0 0 0 0.07031-0.21484zm-7.6094 0.21484a4 4 0 0 0 0.06641 0.17969 4 4 0 0 1-0.06641-0.17969zm7.4727 0.17969a4 4 0 0 1-0.07813 0.17383 4 4 0 0 0 0.07813-0.17383zm-7.3281 0.17383a4 4 0 0 0 0.08984 0.18555 4 4 0 0 1-0.08984-0.18555zm7.1602 0.18555a4 4 0 0 1-0.09375 0.16406 4 4 0 0 0 0.09375-0.16406zm-6.9766 0.16406a4 4 0 0 0 0.11523 0.1875 4 4 0 0 1-0.11523-0.1875zm6.7676 0.1875a4 4 0 0 1-0.09766 0.13476 4 4 0 0 0 0.09766-0.13476zm-6.5547 0.13476a4 4 0 0 0 0.14062 0.18555 4 4 0 0 1-0.14062-0.18555zm6.3164 0.18555a4 4 0 0 1-0.11328 0.12891 4 4 0 0 0 0.11328-0.12891zm-6.0625 0.12891a4 4 0 0 0 0.14844 0.16016 4 4 0 0 1-0.04297-0.03906 4 4 0 0 1-0.10547-0.12109zm5.8008 0.16016a4 4 0 0 1-0.03906 0.04297 4 4 0 0 1-0.12109 0.10547 4 4 0 0 0 0.16016-0.14844zm-5.4922 0.14844a4 4 0 0 0 0.12891 0.11328 4 4 0 0 1-0.12891-0.11328zm5.2031 0.11328a4 4 0 0 1-0.18555 0.14062 4 4 0 0 0 0.18555-0.14062zm-4.8887 0.14062a4 4 0 0 0 0.13476 0.09766 4 4 0 0 1-0.13476-0.09766zm4.5684 0.09766a4 4 0 0 1-0.1875 0.11523 4 4 0 0 0 0.1875-0.11523zm-4.2461 0.11523a4 4 0 0 0 0.16406 0.09375 4 4 0 0 1-0.16406-0.09375zm3.8945 0.09375a4 4 0 0 1-0.18555 0.08984 4 4 0 0 0 0.18555-0.08984zm-3.5449 0.08984a4 4 0 0 0 0.17383 0.07813 4 4 0 0 1-0.17383-0.07813zm3.1855 0.07813a4 4 0 0 1-0.17969 0.06641 4 4 0 0 0 0.17969-0.06641zm-2.832 0.06641a4 4 0 0 0 0.21484 0.07031 4 4 0 0 1-0.21484-0.07031zm2.4375 0.07031a4 4 0 0 1-0.1543 0.03906 4 4 0 0 0 0.1543-0.03906zm-2.0684 0.03906a4 4 0 0 0 0.22266 0.05078 4 4 0 0 1-0.22266-0.05078zm1.6914 0.05078a4 4 0 0 1-0.18555 0.02734 4 4 0 0 0 0.18555-0.02734zm-1.2832 0.02734a4 4 0 0 0 0.21094 0.02539 4 4 0 0 1-0.21094-0.02539zm0.88672 0.02539a4 4 0 0 1-0.33789 0.01758 4 4 0 0 0 0.33789-0.01758z" fill="#3d3846"/>
</svg>
