<svg version="1.1" viewBox="0 0 32 32" width="32" height="32" xmlns="http://www.w3.org/2000/svg">
 <path d="m16 3a14 14 0 0 0-14 14 14 14 0 0 0 14 14 14 14 0 0 0 14-14 14 14 0 0 0-14-14z" fill="#1a5fb4"/>
 <path d="m16 2a14 14 0 0 0-14 14 14 14 0 0 0 14 14 14 14 0 0 0 14-14 14 14 0 0 0-14-14z" fill="#1c71d8"/>
 <path d="m17 8-3 0.5v12.5l3-1v-4.5l3.5 5 3.5-1-4-5 4-5.5-3-1-4 5.5zm-6.6931 3.4105c-0.08113 0-0.16227 0.03147-0.22448 0.09345l-1.3486 1.3433c-0.12443 0.12394-0.09447 0.301 0 0.44888l1.3955 2.1827c-0.10339 0.21378-0.19292 0.43395-0.26804 0.65914-0.0033 0.0097-0.0085 0.01866-0.01172 0.02837l-2.5313 0.56068c-0.17178 0.03803-0.31829 0.14178-0.31829 0.31706v1.6787c0 0.17528 0.14652 0.27903 0.31829 0.31706l2.5313 0.56069c0.0055 0.01658 0.0144 0.03188 0.02011 0.04839 0.07312 0.21876 0.15984 0.43277 0.25966 0.64078l-1.3955 2.181c-0.09447 0.14788-0.12443 0.32494 0 0.44888l1.3486 1.3433c0.12443 0.12394 0.32453 0.12394 0.44896 0l2.1878-1.3884c0.21508 0.10419 0.43667 0.19449 0.66339 0.27033 0.01488 0.0052 0.02864 0.01328 0.04356 0.01835l0.5612 2.5198c0 0.17528 0.14233 0.31706 0.31829 0.31706h1.9047c0.17596 0 0.28012-0.14595 0.31829-0.31706l0.5612-2.5965c0.25783-0.09656 0.50813-0.21201 0.74883-0.34542l2.1359 1.5219c0.12443 0.12394 0.32454 0.12394 0.44896 0l1.3486-1.3433c0.12443-0.12394 0.09447-0.301 0-0.44888l-0.81248-1.2282-0.08544 0.03171c-0.1932 0.07229-0.4107-0.0027-0.51764-0.17855l-0.85436-1.4017c-0.71185 1.6961-2.393 2.8885-4.3539 2.8885-2.6054 0-4.7174-2.1039-4.7174-4.6991 0-1.9915 1.2461-3.6895 3.002-4.3737l0.0018-0.89122c-0.22371 0.07401-0.50625 0.17054-0.71877 0.27213l-2.1845-1.3867c-0.06222-0.06197-0.14335-0.09345-0.22448-0.09345z" fill="#fff" stroke-width=".42802"/>
 <rect x="16" y="16" width="16" height="16" ry="1" fill="#f6f5f4"/>
 <rect x="23" y="18" width="2" height="12" ry="0" fill="#3d3846"/>
 <rect x="18" y="23" width="12" height="2" fill="#3d3846"/>
</svg>
