<?xml version="1.0" encoding="UTF-8"?>
<svg version="1.1" viewBox="0 0 32 32" xmlns="http://www.w3.org/2000/svg" xmlns:cc="http://creativecommons.org/ns#" xmlns:dc="http://purl.org/dc/elements/1.1/" xmlns:rdf="http://www.w3.org/1999/02/22-rdf-syntax-ns#">
<defs>
<linearGradient id="a" x1="4" x2="60" y1="22.5" y2="22.5" gradientUnits="userSpaceOnUse">
<stop stop-color="#5e5c64" offset="0"/>
<stop stop-color="#9a9996" offset=".035714"/>
<stop stop-color="#5e5c64" offset=".071429"/>
<stop stop-color="#5e5c64" offset=".92857"/>
<stop stop-color="#9a9996" offset=".96429"/>
<stop stop-color="#5e5c64" offset="1"/>
</linearGradient>
</defs>
<metadata>
<rdf:RDF>
<cc:Work rdf:about="">
<dc:format>image/svg+xml</dc:format>
<dc:type rdf:resource="http://purl.org/dc/dcmitype/StillImage"/>
<dc:creator>
<cc:Agent>
<dc:title>Jakub Steiner</dc:title>
</cc:Agent>
</dc:creator>
<dc:source>http://jimmac.musichall.cz</dc:source>
<cc:license rdf:resource="http://creativecommons.org/licenses/by-sa/2.0/"/>
<dc:title/>
<dc:subject>
<rdf:Bag>
<rdf:li>apparmor</rdf:li>
<rdf:li>novell</rdf:li>
</rdf:Bag>
</dc:subject>
</cc:Work>
<cc:License rdf:about="http://creativecommons.org/licenses/by-sa/2.0/">
<cc:permits rdf:resource="http://web.resource.org/cc/Reproduction"/>
<cc:permits rdf:resource="http://web.resource.org/cc/Distribution"/>
<cc:requires rdf:resource="http://web.resource.org/cc/Notice"/>
<cc:requires rdf:resource="http://web.resource.org/cc/Attribution"/>
<cc:permits rdf:resource="http://web.resource.org/cc/DerivativeWorks"/>
<cc:requires rdf:resource="http://web.resource.org/cc/ShareAlike"/>
</cc:License>
</rdf:RDF>
</metadata>
<g transform="matrix(.5 0 0 .5 0 8)">
<rect x="4" y="6" width="56" height="32" ry="2" fill="url(#a)"/>
<rect x="4" width="56" height="32" ry="2" fill="#9a9996"/>
<rect x="8" y="14" width="48" height="6" ry="2" fill="#77767b"/>
<rect x="10" y="-5" width="44" height="23" ry="0" fill="#9a9996"/>
<rect x="10" y="-6" width="44" height="22" ry="0" fill="#f6f5f4"/>
<rect x="12" width="40" height="2" fill="#c0bfbc"/>
<rect x="12" y="4" width="40" height="2" fill="#c0bfbc"/>
<rect x="12" y="8" width="40" height="2" fill="#c0bfbc"/>
<rect x="12" y="12" width="28" height="2" fill="#c0bfbc"/>
<rect x="8" y="24" width="2" height="4" ry="1" fill="#5e5c64"/>
<circle cx="9" cy="27" r="1" fill="#33d17a"/>
<rect x="12" y="24" width="2" height="4" ry="1" fill="#5e5c64"/>
<circle cx="13" cy="27" r="1" fill="#f6d32d"/>
<rect x="12" y="-4" width="40" height="2" fill="#c0bfbc"/>
</g>
</svg>
