<?xml version="1.0" encoding="UTF-8" standalone="no"?>
<svg
   xmlns:dc="http://purl.org/dc/elements/1.1/"
   xmlns:cc="http://creativecommons.org/ns#"
   xmlns:rdf="http://www.w3.org/1999/02/22-rdf-syntax-ns#"
   xmlns:svg="http://www.w3.org/2000/svg"
   xmlns="http://www.w3.org/2000/svg"
   width="64"
   height="64"
   version="1"
   id="svg14">
  <metadata
     id="metadata20">
    <rdf:RDF>
      <cc:Work
         rdf:about="">
        <dc:format>image/svg+xml</dc:format>
        <dc:type
           rdf:resource="http://purl.org/dc/dcmitype/StillImage" />
        <dc:title></dc:title>
      </cc:Work>
    </rdf:RDF>
  </metadata>
  <defs
     id="defs18" />
  <circle
     r="12"
     cy="18"
     cx="32"
     id="path1152-0"
     style="opacity:1;fill:#deaa87;fill-opacity:1;stroke:none;stroke-width:3.77952766;stroke-linecap:round;stroke-linejoin:round;stroke-miterlimit:4;stroke-dasharray:none;stroke-opacity:1" />
  <path
     id="rect1154-3"
     d="M 14 44 C 12.892 44 12 44.892 12 46 L 12 58 C 12 59.108 12.892 60 14 60 L 50 60 C 51.108 60 52 59.108 52 58 L 52 46 C 52 44.892 51.108 44 50 44 L 14 44 z "
     style="opacity:1;fill:#2c89a0;fill-opacity:1;stroke:none;stroke-width:3.77952766;stroke-linecap:round;stroke-linejoin:round;stroke-miterlimit:4;stroke-dasharray:none;stroke-opacity:1" />
  <circle
     r="12"
     cy="16"
     cx="32"
     id="path1152"
     style="opacity:1;fill:#e9c6af;fill-opacity:1;stroke:none;stroke-width:3.77952766;stroke-linecap:round;stroke-linejoin:round;stroke-miterlimit:4;stroke-dasharray:none;stroke-opacity:1" />
  <path
     id="rect1154"
     d="M 24.9375 32 C 17.769608 32 12 37.769608 12 44.9375 L 12 45.0625 C 12 52.230392 17.769608 58 24.9375 58 L 39.0625 58 C 46.230392 58 52 52.230392 52 45.0625 L 52 44.9375 C 52 37.769608 46.230392 32 39.0625 32 L 24.9375 32 z "
     style="opacity:1;fill:#37abc8;fill-opacity:1;stroke:none;stroke-width:3.77952766;stroke-linecap:round;stroke-linejoin:round;stroke-miterlimit:4;stroke-dasharray:none;stroke-opacity:1" />
  <path
     id="rect1193"
     d="M 14 44 C 12.892 44 12 44.892 12 46 L 12 56 C 12 57.108 12.892 58 14 58 L 50 58 C 51.108 58 52 57.108 52 56 L 52 46 C 52 44.892 51.108 44 50 44 L 14 44 z "
     style="opacity:1;fill:#37abc8;fill-opacity:1;stroke:none;stroke-width:3.77952766;stroke-linecap:round;stroke-linejoin:round;stroke-miterlimit:4;stroke-dasharray:none;stroke-opacity:1" />
  <path
     id="path1104-1"
     d="M 48,35 A 14,14 0 0 0 34,49 14,14 0 0 0 48,63 14,14 0 0 0 62,49 14,14 0 0 0 48,35 Z"
     style="opacity:1;fill:#3fa156;fill-opacity:1;fill-rule:nonzero;stroke:none;stroke-width:1.72389317;stroke-linecap:round;stroke-linejoin:round;stroke-miterlimit:4;stroke-dasharray:none;stroke-opacity:1;paint-order:stroke fill markers" />
  <path
     id="path1104"
     d="M 48,34 A 14,14 0 0 0 34,48 14,14 0 0 0 48,62 14,14 0 0 0 62,48 14,14 0 0 0 48,34 Z"
     style="opacity:1;fill:#34d07c;fill-opacity:1;fill-rule:nonzero;stroke:none;stroke-width:1.72389317;stroke-linecap:round;stroke-linejoin:round;stroke-miterlimit:4;stroke-dasharray:none;stroke-opacity:1;paint-order:stroke fill markers" />
  <rect
     y="45"
     x="40"
     height="4"
     width="16"
     id="rect1138-3"
     style="opacity:1;fill:#3fa156;fill-opacity:1;fill-rule:nonzero;stroke:none;stroke-width:1.23442674;stroke-linecap:round;stroke-linejoin:round;stroke-miterlimit:4;stroke-dasharray:none;stroke-opacity:1;paint-order:stroke fill markers" />
  <rect
     y="46"
     x="40"
     height="4"
     width="16"
     id="rect1138"
     style="opacity:1;fill:#ffffff;fill-opacity:1;fill-rule:nonzero;stroke:none;stroke-width:1.23442674;stroke-linecap:round;stroke-linejoin:round;stroke-miterlimit:4;stroke-dasharray:none;stroke-opacity:1;paint-order:stroke fill markers" />
  <rect
     y="39"
     x="46"
     height="16"
     width="4"
     id="rect1140-6"
     style="opacity:1;fill:#3fa156;fill-opacity:1;fill-rule:nonzero;stroke:none;stroke-width:1.21954548;stroke-linecap:round;stroke-linejoin:round;stroke-miterlimit:4;stroke-dasharray:none;stroke-opacity:1;paint-order:stroke fill markers" />
  <rect
     y="40"
     x="46"
     height="16"
     width="4"
     id="rect1140"
     style="opacity:1;fill:#ffffff;fill-opacity:1;fill-rule:nonzero;stroke:none;stroke-width:1.21954548;stroke-linecap:round;stroke-linejoin:round;stroke-miterlimit:4;stroke-dasharray:none;stroke-opacity:1;paint-order:stroke fill markers" />
</svg>
