<?xml version="1.0" encoding="UTF-8"?>
<svg version="1" viewBox="0 0 32 32" xmlns="http://www.w3.org/2000/svg" xmlns:cc="http://creativecommons.org/ns#" xmlns:dc="http://purl.org/dc/elements/1.1/" xmlns:rdf="http://www.w3.org/1999/02/22-rdf-syntax-ns#">
<metadata>
<rdf:RDF>
<cc:Work rdf:about="">
<dc:format>image/svg+xml</dc:format>
<dc:type rdf:resource="http://purl.org/dc/dcmitype/StillImage"/>
<dc:title/>
</cc:Work>
</rdf:RDF>
</metadata>
<defs>
<radialGradient id="d" cx="16" cy="20.5" r="13" gradientTransform="matrix(1 0 0 .73077 0 5.5192)" gradientUnits="userSpaceOnUse">
<stop stop-color="#0bbaf4" offset="0"/>
<stop stop-color="#0aa8dc" offset="1"/>
</radialGradient>
<linearGradient id="c" x1="15" x2="15" y1="17" y2="2" gradientUnits="userSpaceOnUse">
<stop stop-color="#dbc2ae" offset="0"/>
<stop stop-color="#cdab8f" offset="1"/>
</linearGradient>
</defs>
<path d="m11.471 13.465c-4.2382 1.7592-5.7033-0.19042-7.8793 6.006-1.6221 4.6189 0.13042 8.202 4.7791 9.5293 2.61 0.74524 5.1252 0.99805 7.6293 0.99805s5.0193-0.25281 7.6293-0.99805c4.6487-1.3273 6.4012-4.9104 4.7791-9.5293-2.176-6.1964-3.6411-4.2468-7.8793-6.006-3.5291-1.4648-5.5291-1.4648-9.0582 0z" fill="url(#d)"/>
<circle cx="16" cy="10" r="9" fill="url(#c)"/>
<rect x="16" y="16" width="16" height="16" ry="1" fill="#f6f5f4"/>
<rect x="23" y="18" width="2" height="12" ry="0" fill="#3d3846"/>
<rect x="18" y="23" width="12" height="2" fill="#3d3846"/>
</svg>
