<?xml version="1.0" encoding="UTF-8"?>
<svg width="32" height="32" version="1.1" viewBox="0 0 32 32.000002" xmlns="http://www.w3.org/2000/svg" xmlns:cc="http://creativecommons.org/ns#" xmlns:dc="http://purl.org/dc/elements/1.1/" xmlns:rdf="http://www.w3.org/1999/02/22-rdf-syntax-ns#">
<defs>
<linearGradient id="a" x1="6" x2="24" y1="17" y2="17" gradientUnits="userSpaceOnUse">
<stop stop-color="#241f31" offset="0"/>
<stop stop-color="#241f31" offset=".11111"/>
<stop stop-color="#3d3846" offset=".21875"/>
<stop stop-color="#241f31" offset=".50347"/>
<stop stop-color="#241f31" offset="1"/>
</linearGradient>
</defs>
<metadata>
<rdf:RDF>
<cc:Work rdf:about="">
<dc:format>image/svg+xml</dc:format>
<dc:type rdf:resource="http://purl.org/dc/dcmitype/StillImage"/>
<dc:title/>
</cc:Work>
</rdf:RDF>
</metadata>
<rect x="6" y="5" width="18" height="25" rx="9" ry="10" fill="url(#a)"/>
<rect x="6" y="2" width="18" height="26" rx="8" ry="8" fill="#deddda"/>
<path d="m6 12 7-1v1z" fill="#c0bfbc"/>
<path d="m24 12-7-1v1z" fill="#c0bfbc"/>
<rect x="13" y="2" width="4" height="12" rx="1.9337" ry="1.9018" fill="#c0bfbc"/>
<rect x="14" y="5" width="2" height="5" rx="9" ry="1" fill="#3d3846"/>
<path d="m6 13s1 2.5093 1 4-1 4-1 4z" fill="#241f31"/>
<path d="m24 13s-1 2.5093-1 4 1 4 1 4z" fill="#241f31"/>
</svg>
