<?xml version="1.0" encoding="UTF-8"?>
<svg width="32" height="32" version="1.1" viewBox="0 0 32 32.000002" xmlns="http://www.w3.org/2000/svg" xmlns:cc="http://creativecommons.org/ns#" xmlns:dc="http://purl.org/dc/elements/1.1/" xmlns:rdf="http://www.w3.org/1999/02/22-rdf-syntax-ns#">
<defs>
<linearGradient id="d" x1="47.968" x2="47" y1="1110.1" y2="1106.5" gradientTransform="matrix(.5 0 0 .5 0 -529.26)" gradientUnits="userSpaceOnUse">
<stop stop-color="#f6f5f4" offset="0"/>
<stop stop-color="#fcfcfc" offset="1"/>
</linearGradient>
<linearGradient id="c" x1="23" x2="26.679" y1="24" y2="25.83" gradientUnits="userSpaceOnUse">
<stop stop-color="#f6f5f4" offset="0"/>
<stop stop-color="#deddda" offset="1"/>
</linearGradient>
</defs>
<metadata>
<rdf:RDF>
<cc:Work rdf:about="">
<dc:format>image/svg+xml</dc:format>
<dc:type rdf:resource="http://purl.org/dc/dcmitype/StillImage"/>
<dc:title/>
</cc:Work>
</rdf:RDF>
</metadata>
<g transform="matrix(.5 0 0 .5 0 -529.26)">
<rect x="50" y="1068.5" width="6" height="12" ry="2" fill="#e01b24"/>
<rect x="13" y="1098.5" width="39" height="16" ry="4" fill="#613583"/>
<rect x="12" y="1106.5" width="35" height="7.9999" ry="0" fill="#613583"/>
<rect x="14" y="1094.5" width="38" height="18" ry="4" fill="#fff"/>
<rect x="14" y="1094.5" width="17" height="18" ry="0" fill="#fff"/>
<path transform="matrix(2 0 0 2 0 1058.5)" d="m7 17v9h17c1.108 0 2-0.892 2-2v-5c0-1.108-0.892-2-2-2h-17z" fill="url(#d)"/>
<path transform="matrix(2 0 0 2 0 1058.5)" d="m7 16v9h17c1.108 0 2-0.892 2-2v-5c0-1.108-0.892-2-2-2h-17z" fill="url(#c)"/>
<rect x="12" y="1100.5" width="34" height="5.9999" ry="0" fill="#613583"/>
<rect x="12" y="1096.5" width="40" height="9.9998" ry="4" fill="#613583"/>
<rect x="50" y="1074.5" width="6" height="12" ry="2" fill="#f6d32d"/>
<rect x="50" y="1080.5" width="6" height="12" ry="2" fill="#33d17a"/>
<rect x="50" y="1088.5" width="6" height="12" ry="2" fill="#0bbaf4"/>
<rect x="16" y="1062.5" width="36" height="42" ry="4" fill="#a347ba"/>
<path transform="matrix(2 0 0 2 0 1058.5)" d="m6 2v21h10v-21h-8v0.5c0 0.277-0.223 0.5-0.5 0.5s-0.5-0.223-0.5-0.5v-0.5h-1z" fill="#a347ba"/>
<g transform="matrix(.875 0 0 .875 18 114.32)" fill="#588f1c">
<g transform="matrix(.26458 0 0 .26458 -10.591 -38.473)" fill="#588f1c">
<circle cx="507.46" cy="3582.8" r="0" fill="#588f1c" opacity=".3"/>
</g>
</g>
<path transform="matrix(2 0 0 2 0 1058.5)" d="m7 2.5v21.5h1v-21.5c0 0.277-0.223 0.5-0.5 0.5s-0.5-0.223-0.5-0.5z" fill="#613583"/>
<rect x="26" y="1068.5" width="14" height="14" ry="7" fill="#fff"/>
<rect x="22" y="1084.5" width="22" height="12" ry="6" fill="#fff"/>
<rect x="22" y="1090.5" width="22" height="8" ry="0" fill="#fff"/>
</g>
</svg>
