<?xml version="1.0" encoding="UTF-8"?>
<svg width="32" height="32" version="1.1" viewBox="0 0 32 32.000002" xmlns="http://www.w3.org/2000/svg" xmlns:cc="http://creativecommons.org/ns#" xmlns:dc="http://purl.org/dc/elements/1.1/" xmlns:rdf="http://www.w3.org/1999/02/22-rdf-syntax-ns#" xmlns:xlink="http://www.w3.org/1999/xlink">
<defs>
<linearGradient id="a">
<stop stop-color="#8f8f8f" offset="0"/>
<stop stop-color="#77767b" offset="1"/>
</linearGradient>
<linearGradient id="f" x1="4" x2="28" y1="27" y2="27" gradientTransform="translate(0,-1)" gradientUnits="userSpaceOnUse">
<stop stop-color="#5e5c64" offset="0"/>
<stop stop-color="#9a9996" offset=".041667"/>
<stop stop-color="#5e5c64" offset=".083333"/>
<stop stop-color="#5e5c64" offset=".91667"/>
<stop stop-color="#9a9996" offset=".95833"/>
<stop stop-color="#5e5c64" offset="1"/>
</linearGradient>
<linearGradient id="g" x1="16" x2="16" y1="24" y2="21" gradientUnits="userSpaceOnUse" xlink:href="#a"/>
<linearGradient id="h" x1="16" x2="16" y1="8" y2="5" gradientUnits="userSpaceOnUse" xlink:href="#a"/>
<linearGradient id="i" x1="15" x2="15" y1="16" y2="13" gradientUnits="userSpaceOnUse" xlink:href="#a"/>
</defs>
<metadata>
<rdf:RDF>
<cc:Work rdf:about="">
<dc:format>image/svg+xml</dc:format>
<dc:type rdf:resource="http://purl.org/dc/dcmitype/StillImage"/>
<dc:title/>
</cc:Work>
</rdf:RDF>
</metadata>
<rect x="4" y="6" width="24" height="16" ry="0" fill="#5e5c64"/>
<rect x="4" y="23" width="24" height="5" ry="1" fill="url(#f)"/>
<rect x="4" y="3" width="24" height="7" ry="1" fill="#9a9996"/>
<rect x="4" y="11" width="24" height="7" ry="0" fill="#9a9996"/>
<rect x="4" y="19" width="24" height="7" ry="1" fill="#9a9996"/>
<rect x="4" y="9" width="24" height="1" ry="0" fill="#9a9996"/>
<rect x="4" y="19" width="24" height="1" fill="#9a9996"/>
<rect x="11" y="5" width="9" height="3" ry="1" fill="#5e5c64"/>
<rect x="11" y="6" width="9" height="2" ry="1" fill="url(#h)"/>
<rect x="11" y="13" width="9" height="3" ry="1" fill="#5e5c64"/>
<rect x="11" y="14" width="9" height="2" ry="1" fill="url(#i)"/>
<rect x="11" y="21" width="9" height="3" ry="1" fill="#5e5c64"/>
<rect x="11" y="22" width="9" height="2" ry="1" fill="url(#g)"/>
<rect x="16" y="16" width="16" height="16" ry="1" fill="#f6f5f4"/>
<path d="m20 17c-0.554 0-1 0.446-1 1v12c0 0.554 0.446 1 1 1h7c0.554 0 1-0.446 1-1v-12c0-0.554-0.446-1-1-1zm0 1h6c0.554 0 1 0.446 1 1v10c0 0.554-0.446 1-1 1h-6v-11z" fill="#3d3846"/>
<path d="m19 17v14h6v-1h-5v-12h5v-1z" fill="#3d3846"/>
<path d="m28 18c-0.554 0-1 0.446-1 1v1c0 0.18637 0.06427 0.35094 0.15234 0.5 0.17374-0.29403 0.48002-0.5 0.84766-0.5h1c0.36763 0 0.67391 0.20597 0.84766 0.5 0.088077-0.14906 0.15234-0.31363 0.15234-0.5v-1c0-0.554-0.446-1-1-1z" fill="#3d3846"/>
<path d="m28 21c-0.554 0-1 0.446-1 1v1c0 0.18637 0.06427 0.35094 0.15234 0.5 0.17374-0.29403 0.48002-0.5 0.84766-0.5h1c0.36763 0 0.67391 0.20597 0.84766 0.5 0.088077-0.14906 0.15234-0.31363 0.15234-0.5v-1c0-0.554-0.446-1-1-1z" fill="#3d3846"/>
<path d="m28 24c-0.554 0-1 0.446-1 1v1c0 0.18637 0.06427 0.35094 0.15234 0.5 0.17374-0.29403 0.48002-0.5 0.84766-0.5h1c0.36763 0 0.67391 0.20597 0.84766 0.5 0.088077-0.14906 0.15234-0.31363 0.15234-0.5v-1c0-0.554-0.446-1-1-1z" fill="#3d3846"/>
<rect x="27" y="27" width="3" height="3" ry="1" fill="#3d3846"/>
<rect x="22" y="20" width="3" height="3" ry="1.5" fill="#3d3846"/>
<rect x="21" y="24" width="5" height="4" ry="1.5" fill="#3d3846"/>
<rect x="21" y="26" width="5" height="2" ry="0" fill="#3d3846"/>
</svg>
