<?xml version="1.0" encoding="UTF-8"?>
<svg version="1.1" viewBox="0 0 32 32" xmlns="http://www.w3.org/2000/svg" xmlns:cc="http://creativecommons.org/ns#" xmlns:dc="http://purl.org/dc/elements/1.1/" xmlns:rdf="http://www.w3.org/1999/02/22-rdf-syntax-ns#">
<metadata>
<rdf:RDF>
<cc:Work rdf:about="">
<dc:format>image/svg+xml</dc:format>
<dc:type rdf:resource="http://purl.org/dc/dcmitype/StillImage"/>
<dc:creator>
<cc:Agent>
<dc:title>Jakub Steiner</dc:title>
</cc:Agent>
</dc:creator>
<dc:source>http://jimmac.musichall.cz</dc:source>
<cc:license rdf:resource="http://creativecommons.org/licenses/by-sa/2.0/"/>
<dc:title/>
<dc:subject>
<rdf:Bag>
<rdf:li>apparmor</rdf:li>
<rdf:li>novell</rdf:li>
</rdf:Bag>
</dc:subject>
</cc:Work>
<cc:License rdf:about="http://creativecommons.org/licenses/by-sa/2.0/">
<cc:permits rdf:resource="http://web.resource.org/cc/Reproduction"/>
<cc:permits rdf:resource="http://web.resource.org/cc/Distribution"/>
<cc:requires rdf:resource="http://web.resource.org/cc/Notice"/>
<cc:requires rdf:resource="http://web.resource.org/cc/Attribution"/>
<cc:permits rdf:resource="http://web.resource.org/cc/DerivativeWorks"/>
<cc:requires rdf:resource="http://web.resource.org/cc/ShareAlike"/>
</cc:License>
</rdf:RDF>
</metadata>
<rect x="2" y="6" width="28" height="22" fill="#f6f5f4"/>
<rect x="2" y="4" width="28" height="3" ry="1" fill="#c0bfbc"/>
<rect x="2" y="6" width="28" height="1" fill="#c0bfbc"/>
<rect x="2" y="7" width="1" height="21" fill="#9a9996"/>
<rect x="2" y="27" width="28" height="1" fill="#9a9996"/>
<rect x="29" y="7" width="1" height="21" fill="#9a9996"/>
<rect x="2" y="7" width="28" height="1" fill="#9a9996"/>
<rect x="28" y="5" width="1" height="1" ry=".5" fill="#3d3846"/>
<rect x="26" y="5" width="1" height="1" ry=".5" fill="#3d3846"/>
<rect x="24" y="5" width="1" height="1" ry=".5" fill="#3d3846"/>
<path d="m8 10c-0.554 0-1 0.446-1 1v10c0 0.554 0.446 1 1 1h16c0.554 0 1-0.446 1-1v-10c0-0.554-0.446-1-1-1zm0 1h16v10h-16z" fill="#3d3846"/>
<path d="m11 23v1c0 0.554 0.446 1 1 1h8c0.554 0 1-0.446 1-1v-1z" fill="#3d3846"/>
</svg>
