<?xml version="1.0" encoding="UTF-8"?>
<svg version="1.1" viewBox="0 0 32 32" xmlns="http://www.w3.org/2000/svg" xmlns:cc="http://creativecommons.org/ns#" xmlns:dc="http://purl.org/dc/elements/1.1/" xmlns:rdf="http://www.w3.org/1999/02/22-rdf-syntax-ns#">
<metadata>
<rdf:RDF>
<cc:Work rdf:about="">
<dc:format>image/svg+xml</dc:format>
<dc:type rdf:resource="http://purl.org/dc/dcmitype/StillImage"/>
<dc:title/>
</cc:Work>
</rdf:RDF>
</metadata>
<defs>
<linearGradient id="e" x1="2" x2="30" y1="17" y2="17" gradientUnits="userSpaceOnUse">
<stop stop-color="#9a9996" offset="0"/>
<stop stop-color="#c0bfbc" offset=".035714"/>
<stop stop-color="#9a9996" offset=".071429"/>
<stop stop-color="#9a9996" offset=".92502"/>
<stop stop-color="#c0bfbc" offset=".96244"/>
<stop stop-color="#9a9996" offset="1"/>
</linearGradient>
<radialGradient id="f" cx="16" cy="15.5" r="10" gradientTransform="matrix(1 0 0 .65 0 6.425)" gradientUnits="userSpaceOnUse">
<stop stop-color="#3d3846" offset="0"/>
<stop stop-color="#241f31" offset="1"/>
</radialGradient>
<linearGradient id="d" x1="9" x2="9" y1="10" y2="12" gradientTransform="translate(0,1)" gradientUnits="userSpaceOnUse">
<stop stop-color="#e5a50a" offset="0"/>
<stop stop-color="#f6d32d" stop-opacity="0" offset="1"/>
</linearGradient>
</defs>
<rect x="2" y="6" width="28" height="22" ry="2" fill="url(#e)"/>
<rect x="2" y="5" width="28" height="22" ry="2" fill="#deddda"/>
<path d="m6 10v11h6v2h8v-2h6v-11z" fill="url(#f)"/>
<path d="m9 11v2h2v-2zm3 0v2h2v-2zm3 0v2h2v-2zm3 0v2h2v-2zm3 0v2h2v-2z" fill="url(#d)"/>
<rect x="5.518" y="22" width="3" height="2" ry="0" fill="#e5a50a"/>
<rect x="23" y="22" width="3" height="2" ry="0" fill="#26a269"/>
</svg>
