<?xml version="1.0" encoding="UTF-8"?>
<svg version="1.1" viewBox="0 0 32 32" xmlns="http://www.w3.org/2000/svg" xmlns:cc="http://creativecommons.org/ns#" xmlns:dc="http://purl.org/dc/elements/1.1/" xmlns:rdf="http://www.w3.org/1999/02/22-rdf-syntax-ns#">
<defs>
<linearGradient id="a" x1="9" x2="30" y1="23" y2="2" gradientUnits="userSpaceOnUse">
<stop stop-color="#deddda" offset="0"/>
<stop stop-color="#f6f5f4" offset="1"/>
</linearGradient>
</defs>
<metadata>
<rdf:RDF>
<cc:Work rdf:about="">
<dc:format>image/svg+xml</dc:format>
<dc:type rdf:resource="http://purl.org/dc/dcmitype/StillImage"/>
<dc:creator>
<cc:Agent>
<dc:title>Jakub Steiner</dc:title>
</cc:Agent>
</dc:creator>
<dc:source>http://jimmac.musichall.cz</dc:source>
<cc:license rdf:resource="http://creativecommons.org/licenses/by-sa/2.0/"/>
<dc:title/>
<dc:subject>
<rdf:Bag>
<rdf:li>apparmor</rdf:li>
<rdf:li>novell</rdf:li>
</rdf:Bag>
</dc:subject>
</cc:Work>
<cc:License rdf:about="http://creativecommons.org/licenses/by-sa/2.0/">
<cc:permits rdf:resource="http://web.resource.org/cc/Reproduction"/>
<cc:permits rdf:resource="http://web.resource.org/cc/Distribution"/>
<cc:requires rdf:resource="http://web.resource.org/cc/Notice"/>
<cc:requires rdf:resource="http://web.resource.org/cc/Attribution"/>
<cc:permits rdf:resource="http://web.resource.org/cc/DerivativeWorks"/>
<cc:requires rdf:resource="http://web.resource.org/cc/ShareAlike"/>
</cc:License>
</rdf:RDF>
</metadata>
<path d="m30 3s-12.233 1.7219-18 6c-3.4283 2.5434-8 10-8 10l10 10s6.971-4.2669 10-8c4.5241-5.5757 6-18 6-18z" fill="#c0bfbc"/>
<path d="m30 2s-12.233 1.7219-18 6c-3.4283 2.5434-8 10-8 10l10 10s6.971-4.2669 10-8c4.5241-5.5757 6-18 6-18z" fill="url(#a)"/>
<path d="m20 8a4 4 0 0 0 -4 4 4 4 0 0 0 4 4 4 4 0 0 0 4 -4 4 4 0 0 0 -4 -4z" fill="#9a9996"/>
<path d="m10 11-8 12v-6l8-7z" fill="#a51d2d"/>
<path d="m20 9a3 3 0 0 0 -3 3 3 3 0 0 0 3 3 3 3 0 0 0 3 -3 3 3 0 0 0 -3 -3z" fill="#241f31"/>
<path d="m22 23v-1l-12 8v1h6z" fill="#a51d2d"/>
<path d="m10 10-8 12v-6z" fill="#e01b24"/>
<path d="m6 23 9-6v1l-5 9-6 2v-1z" fill="#a51d2d"/>
<path d="m22 22-12 8h6z" fill="#e01b24"/>
<path d="m6 22 9-5-5 9-6 2z" fill="#e01b24"/>
<path d="m30 2s-2.9602 0.41862-6.6504 1.3496l5.3867 5.3867c0.90269-3.722 1.2637-6.7363 1.2637-6.7363z" fill="#e01b24"/>
<path d="m20 9a3 3 0 0 0 -3 3 3 3 0 0 0 2.6094 2.9707l1.6992-5.668a3 3 0 0 0 -1.3086 -0.30273z" fill="#fff" opacity=".2"/>
</svg>
