<?xml version="1.0" encoding="UTF-8" standalone="no"?>
<svg
   xmlns:dc="http://purl.org/dc/elements/1.1/"
   xmlns:cc="http://creativecommons.org/ns#"
   xmlns:rdf="http://www.w3.org/1999/02/22-rdf-syntax-ns#"
   xmlns:svg="http://www.w3.org/2000/svg"
   xmlns="http://www.w3.org/2000/svg"
   width="64"
   height="64"
   viewBox="0 0 64 64.000003"
   version="1.1"
   id="svg8">
  <defs
     id="defs2" />
  <metadata
     id="metadata5">
    <rdf:RDF>
      <cc:Work
         rdf:about="">
        <dc:format>image/svg+xml</dc:format>
        <dc:type
           rdf:resource="http://purl.org/dc/dcmitype/StillImage" />
        <dc:title></dc:title>
      </cc:Work>
    </rdf:RDF>
  </metadata>
  <rect
     style="opacity:1;fill:#999999;fill-opacity:1;stroke:none;stroke-width:3.77952766;stroke-linecap:round;stroke-linejoin:round;stroke-miterlimit:4;stroke-dasharray:none;stroke-opacity:1"
     id="rect1500-1"
     width="56"
     height="12"
     x="4"
     y="10"
     ry="2" />
  <rect
     style="opacity:1;fill:#999999;fill-opacity:1;stroke:none;stroke-width:3.77952766;stroke-linecap:round;stroke-linejoin:round;stroke-miterlimit:4;stroke-dasharray:none;stroke-opacity:1"
     id="rect1500-7-0"
     width="56"
     height="12"
     x="4"
     y="22"
     ry="2" />
  <rect
     style="opacity:1;fill:#999999;fill-opacity:1;stroke:none;stroke-width:3.77952766;stroke-linecap:round;stroke-linejoin:round;stroke-miterlimit:4;stroke-dasharray:none;stroke-opacity:1"
     id="rect1500-2-6"
     width="56"
     height="12"
     x="4"
     y="34"
     ry="2.1173596" />
  <rect
     style="opacity:1;fill:#999999;fill-opacity:1;stroke:none;stroke-width:3.77952766;stroke-linecap:round;stroke-linejoin:round;stroke-miterlimit:4;stroke-dasharray:none;stroke-opacity:1"
     id="rect1500-72-1"
     width="56"
     height="12"
     x="4"
     y="46"
     ry="2" />
  <rect
     style="opacity:1;fill:#cccccc;fill-opacity:1;stroke:none;stroke-width:3.77952766;stroke-linecap:round;stroke-linejoin:round;stroke-miterlimit:4;stroke-dasharray:none;stroke-opacity:1"
     id="rect1500"
     width="56"
     height="8"
     x="4"
     y="6"
     ry="2" />
  <rect
     style="opacity:1;fill:#cccccc;fill-opacity:1;stroke:none;stroke-width:3.77952766;stroke-linecap:round;stroke-linejoin:round;stroke-miterlimit:4;stroke-dasharray:none;stroke-opacity:1"
     id="rect1500-7"
     width="56"
     height="8"
     x="4"
     y="18"
     ry="2" />
  <rect
     style="opacity:1;fill:#cccccc;fill-opacity:1;stroke:none;stroke-width:3.77952766;stroke-linecap:round;stroke-linejoin:round;stroke-miterlimit:4;stroke-dasharray:none;stroke-opacity:1"
     id="rect1500-2"
     width="56"
     height="8"
     x="4"
     y="30"
     ry="2.1173596" />
  <rect
     style="opacity:1;fill:#cccccc;fill-opacity:1;stroke:none;stroke-width:3.77952766;stroke-linecap:round;stroke-linejoin:round;stroke-miterlimit:4;stroke-dasharray:none;stroke-opacity:1"
     id="rect1500-72"
     width="56"
     height="8"
     x="4"
     y="42"
     ry="2" />
  <circle
     style="opacity:1;fill:#999999;fill-opacity:1;stroke:none;stroke-width:3.77952766;stroke-linecap:round;stroke-linejoin:round;stroke-miterlimit:4;stroke-dasharray:none;stroke-opacity:1"
     id="path1567"
     cx="8"
     cy="9"
     r="1" />
  <path
     style="opacity:1;fill:#c83737;fill-opacity:1;stroke:none;stroke-width:3.77952766;stroke-linecap:round;stroke-linejoin:round;stroke-miterlimit:4;stroke-dasharray:none;stroke-opacity:1"
     d="M 8,9 A 1,1 0 0 0 7,10 1,1 0 0 0 8,11 1,1 0 0 0 9,10 1,1 0 0 0 8,9 Z"
     id="path1563" />
  <circle
     style="opacity:1;fill:#999999;fill-opacity:1;stroke:none;stroke-width:3.77952766;stroke-linecap:round;stroke-linejoin:round;stroke-miterlimit:4;stroke-dasharray:none;stroke-opacity:1"
     id="path1567-5"
     cx="12"
     cy="8.999999"
     r="1" />
  <path
     style="opacity:1;fill:#ffcc00;fill-opacity:1;stroke:none;stroke-width:3.77952766;stroke-linecap:round;stroke-linejoin:round;stroke-miterlimit:4;stroke-dasharray:none;stroke-opacity:1"
     d="m 12,9 a 1,1 0 0 0 -1,1 1,1 0 0 0 1,1 1,1 0 0 0 1,-1 1,1 0 0 0 -1,-1 z"
     id="path1563-9" />
  <rect
     style="opacity:1;fill:#666666;fill-opacity:1;stroke:none;stroke-width:3.77952766;stroke-linecap:round;stroke-linejoin:round;stroke-miterlimit:4;stroke-dasharray:none;stroke-opacity:1"
     id="rect1590"
     width="28"
     height="4"
     x="28"
     y="7"
     ry="2" />
  <rect
     style="opacity:1;fill:#999999;fill-opacity:1;stroke:none;stroke-width:3.77952766;stroke-linecap:round;stroke-linejoin:round;stroke-miterlimit:4;stroke-dasharray:none;stroke-opacity:1"
     id="rect1588"
     width="28"
     height="4"
     x="28"
     y="8"
     ry="2" />
  <circle
     style="opacity:1;fill:#999999;fill-opacity:1;stroke:none;stroke-width:3.77952766;stroke-linecap:round;stroke-linejoin:round;stroke-miterlimit:4;stroke-dasharray:none;stroke-opacity:1"
     id="path1567-4"
     cx="8"
     cy="21"
     r="1" />
  <path
     style="opacity:1;fill:#71c837;fill-opacity:1;stroke:none;stroke-width:3.77952766;stroke-linecap:round;stroke-linejoin:round;stroke-miterlimit:4;stroke-dasharray:none;stroke-opacity:1"
     d="M 8,21 A 1,1 0 0 0 7,22 1,1 0 0 0 8,23 1,1 0 0 0 9,22 1,1 0 0 0 8,21 Z"
     id="path1563-90" />
  <circle
     style="opacity:1;fill:#999999;fill-opacity:1;stroke:none;stroke-width:3.77952766;stroke-linecap:round;stroke-linejoin:round;stroke-miterlimit:4;stroke-dasharray:none;stroke-opacity:1"
     id="path1567-5-9"
     cx="12"
     cy="21"
     r="1" />
  <path
     style="opacity:1;fill:#ffcc00;fill-opacity:1;stroke:none;stroke-width:3.77952766;stroke-linecap:round;stroke-linejoin:round;stroke-miterlimit:4;stroke-dasharray:none;stroke-opacity:1"
     d="m 12,21 a 1,1 0 0 0 -1,1 1,1 0 0 0 1,1 1,1 0 0 0 1,-1 1,1 0 0 0 -1,-1 z"
     id="path1563-9-1" />
  <rect
     style="opacity:1;fill:#666666;fill-opacity:1;stroke:none;stroke-width:3.77952766;stroke-linecap:round;stroke-linejoin:round;stroke-miterlimit:4;stroke-dasharray:none;stroke-opacity:1"
     id="rect1590-7"
     width="28"
     height="4"
     x="28"
     y="19"
     ry="2" />
  <rect
     style="opacity:1;fill:#999999;fill-opacity:1;stroke:none;stroke-width:3.77952766;stroke-linecap:round;stroke-linejoin:round;stroke-miterlimit:4;stroke-dasharray:none;stroke-opacity:1"
     id="rect1588-7"
     width="28"
     height="4"
     x="28"
     y="20"
     ry="2" />
  <circle
     style="opacity:1;fill:#999999;fill-opacity:1;stroke:none;stroke-width:3.77952766;stroke-linecap:round;stroke-linejoin:round;stroke-miterlimit:4;stroke-dasharray:none;stroke-opacity:1"
     id="path1567-1"
     cx="8"
     cy="33"
     r="1" />
  <path
     style="opacity:1;fill:#c83737;fill-opacity:1;stroke:none;stroke-width:3.77952766;stroke-linecap:round;stroke-linejoin:round;stroke-miterlimit:4;stroke-dasharray:none;stroke-opacity:1"
     d="M 8,33 A 1,1 0 0 0 7,34 1,1 0 0 0 8,35 1,1 0 0 0 9,34 1,1 0 0 0 8,33 Z"
     id="path1563-1" />
  <circle
     style="opacity:1;fill:#999999;fill-opacity:1;stroke:none;stroke-width:3.77952766;stroke-linecap:round;stroke-linejoin:round;stroke-miterlimit:4;stroke-dasharray:none;stroke-opacity:1"
     id="path1567-5-5"
     cx="12"
     cy="33"
     r="1" />
  <path
     style="opacity:1;fill:#71c837;fill-opacity:1;stroke:none;stroke-width:3.77952766;stroke-linecap:round;stroke-linejoin:round;stroke-miterlimit:4;stroke-dasharray:none;stroke-opacity:1"
     d="m 12,33 a 1,1 0 0 0 -1,1 1,1 0 0 0 1,1 1,1 0 0 0 1,-1 1,1 0 0 0 -1,-1 z"
     id="path1563-9-9" />
  <rect
     style="opacity:1;fill:#666666;fill-opacity:1;stroke:none;stroke-width:3.77952766;stroke-linecap:round;stroke-linejoin:round;stroke-miterlimit:4;stroke-dasharray:none;stroke-opacity:1"
     id="rect1590-77"
     width="28"
     height="4"
     x="28"
     y="31"
     ry="2" />
  <rect
     style="opacity:1;fill:#999999;fill-opacity:1;stroke:none;stroke-width:3.77952766;stroke-linecap:round;stroke-linejoin:round;stroke-miterlimit:4;stroke-dasharray:none;stroke-opacity:1"
     id="rect1588-6"
     width="28"
     height="4"
     x="28"
     y="32"
     ry="2" />
  <circle
     style="opacity:1;fill:#999999;fill-opacity:1;stroke:none;stroke-width:3.77952766;stroke-linecap:round;stroke-linejoin:round;stroke-miterlimit:4;stroke-dasharray:none;stroke-opacity:1"
     id="path1567-7"
     cx="8"
     cy="45"
     r="1" />
  <path
     style="opacity:1;fill:#c83737;fill-opacity:1;stroke:none;stroke-width:3.77952766;stroke-linecap:round;stroke-linejoin:round;stroke-miterlimit:4;stroke-dasharray:none;stroke-opacity:1"
     d="M 8,45 A 1,1 0 0 0 7,46 1,1 0 0 0 8,47 1,1 0 0 0 9,46 1,1 0 0 0 8,45 Z"
     id="path1563-3" />
  <circle
     style="opacity:1;fill:#999999;fill-opacity:1;stroke:none;stroke-width:3.77952766;stroke-linecap:round;stroke-linejoin:round;stroke-miterlimit:4;stroke-dasharray:none;stroke-opacity:1"
     id="path1567-5-6"
     cx="12"
     cy="45"
     r="1" />
  <path
     style="opacity:1;fill:#71c837;fill-opacity:1;stroke:none;stroke-width:3.77952766;stroke-linecap:round;stroke-linejoin:round;stroke-miterlimit:4;stroke-dasharray:none;stroke-opacity:1"
     d="m 12,45 a 1,1 0 0 0 -1,1 1,1 0 0 0 1,1 1,1 0 0 0 1,-1 1,1 0 0 0 -1,-1 z"
     id="path1563-9-5" />
  <rect
     style="opacity:1;fill:#666666;fill-opacity:1;stroke:none;stroke-width:3.77952766;stroke-linecap:round;stroke-linejoin:round;stroke-miterlimit:4;stroke-dasharray:none;stroke-opacity:1"
     id="rect1590-6"
     width="28"
     height="4"
     x="28"
     y="43"
     ry="2" />
  <rect
     style="opacity:1;fill:#999999;fill-opacity:1;stroke:none;stroke-width:3.77952766;stroke-linecap:round;stroke-linejoin:round;stroke-miterlimit:4;stroke-dasharray:none;stroke-opacity:1"
     id="rect1588-3"
     width="28"
     height="4"
     x="28"
     y="44"
     ry="2" />
  <path
     style="opacity:1;fill:#0055d4;fill-opacity:1;stroke:none;stroke-width:3.53542447;stroke-linecap:round;stroke-linejoin:round;stroke-miterlimit:4;stroke-dasharray:none;stroke-opacity:1"
     d="M 48,35 A 14,14 0 0 0 34,49 14,14 0 0 0 48,63 14,14 0 0 0 62,49 14,14 0 0 0 48,35 Z"
     id="path1654-9" />
  <path
     style="opacity:1;fill:#0066ff;fill-opacity:1;stroke:none;stroke-width:3.53542447;stroke-linecap:round;stroke-linejoin:round;stroke-miterlimit:4;stroke-dasharray:none;stroke-opacity:1"
     d="M 48 34 A 14 14 0 0 0 34 48 A 14 14 0 0 0 48 62 A 14 14 0 0 0 62 48 A 14 14 0 0 0 48 34 z "
     id="path1654" />
  <path
     style="opacity:1;fill:#0055d4;fill-opacity:1;stroke:none;stroke-width:3.77952766;stroke-linecap:round;stroke-linejoin:round;stroke-miterlimit:4;stroke-dasharray:none;stroke-opacity:1"
     d="M 48,37 A 10,10 0 0 0 38,47 10,10 0 0 0 48,57 10,10 0 0 0 58,47 10,10 0 0 0 48,37 Z m 0,2 a 8,8 0 0 1 8,8 8,8 0 0 1 -8,8 8,8 0 0 1 -8,-8 8,8 0 0 1 8,-8 z"
     id="path1739-9" />
  <path
     style="fill:#0055d4;stroke:none;stroke-width:1px;stroke-linecap:butt;stroke-linejoin:miter;stroke-opacity:1"
     d="m 40.072266,46 a 8,8 0 0 0 -0.07227,1 8,8 0 0 0 0.07031,1 H 55.92773 A 8,8 0 0 0 56,47 8,8 0 0 0 55.92969,46 Z"
     id="path1744-6" />
  <path
     style="opacity:1;fill:#0055d4;fill-opacity:1;stroke:none;stroke-width:3.77952766;stroke-linecap:round;stroke-linejoin:round;stroke-miterlimit:4;stroke-dasharray:none;stroke-opacity:1"
     d="M 43.345703,40.5 A 8,8 0 0 0 41.857422,41.886719 10,10 0 0 0 48,44 10,10 0 0 0 54.142578,41.876953 8,8 0 0 0 52.648438,40.5 8,8 0 0 1 48,42 8,8 0 0 1 43.345703,40.5 Z"
     id="path1739-8-3" />
  <path
     style="opacity:1;fill:#0055d4;fill-opacity:1;stroke:none;stroke-width:3.77952766;stroke-linecap:round;stroke-linejoin:round;stroke-miterlimit:4;stroke-dasharray:none;stroke-opacity:1"
     d="M 48,50 A 10,10 0 0 0 41.857422,52.123047 8,8 0 0 0 43.351562,53.5 8,8 0 0 1 48,52 8,8 0 0 1 52.654297,53.5 8,8 0 0 0 54.142578,52.113281 10,10 0 0 0 48,50 Z"
     id="path1739-8-2-8" />
  <path
     style="fill:#0055d4;stroke:none;stroke-width:1px;stroke-linecap:butt;stroke-linejoin:miter;stroke-opacity:1"
     d="m 47,37 h 2 v 18 h -2 z"
     id="path1855-5" />
  <path
     style="opacity:1;fill:#0055d4;fill-opacity:1;stroke:none;stroke-width:3.77952766;stroke-linecap:round;stroke-linejoin:round;stroke-miterlimit:4;stroke-dasharray:none;stroke-opacity:1"
     d="M 48,39 A 8,8 0 0 0 45.990234,39.261719 8,8 0 0 1 52,47 8,8 0 0 1 46.009766,54.738281 8,8 0 0 0 48,55 8,8 0 0 0 50.507812,54.587891 10,10 0 0 0 54,47 10,10 0 0 0 50.484375,39.402344 8,8 0 0 0 48,39 Z"
     id="path1739-5-6" />
  <path
     style="opacity:1;fill:#0055d4;fill-opacity:1;stroke:none;stroke-width:3.77952766;stroke-linecap:round;stroke-linejoin:round;stroke-miterlimit:4;stroke-dasharray:none;stroke-opacity:1"
     d="M 48,39 A 8,8 0 0 0 45.492188,39.412109 10,10 0 0 0 42,47 10,10 0 0 0 45.515625,54.597656 8,8 0 0 0 48,55 8,8 0 0 0 50.009766,54.738281 8,8 0 0 1 44,47 8,8 0 0 1 49.990234,39.261719 8,8 0 0 0 48,39 Z"
     id="path1739-0-1" />
  <path
     style="opacity:1;fill:#ffffff;fill-opacity:1;stroke:none;stroke-width:3.77952766;stroke-linecap:round;stroke-linejoin:round;stroke-miterlimit:4;stroke-dasharray:none;stroke-opacity:1"
     d="M 48 40 A 8 8 0 0 0 45.990234 40.261719 A 8 8 0 0 1 52 48 A 8 8 0 0 1 46.009766 55.738281 A 8 8 0 0 0 48 56 A 8 8 0 0 0 50.507812 55.587891 A 10 10 0 0 0 54 48 A 10 10 0 0 0 50.484375 40.402344 A 8 8 0 0 0 48 40 z "
     id="path1739-5" />
  <path
     style="fill:#ffffff;stroke:none;stroke-width:1px;stroke-linecap:butt;stroke-linejoin:miter;stroke-opacity:1"
     d="M 40.072266 47 A 8 8 0 0 0 40 48 A 8 8 0 0 0 40.070312 49 L 55.927734 49 A 8 8 0 0 0 56 48 A 8 8 0 0 0 55.929688 47 L 40.072266 47 z "
     id="path1744" />
  <path
     style="opacity:1;fill:#ffffff;fill-opacity:1;stroke:none;stroke-width:3.77952766;stroke-linecap:round;stroke-linejoin:round;stroke-miterlimit:4;stroke-dasharray:none;stroke-opacity:1"
     d="M 43.345703 41.5 A 8 8 0 0 0 41.857422 42.886719 A 10 10 0 0 0 48 45 A 10 10 0 0 0 54.142578 42.876953 A 8 8 0 0 0 52.648438 41.5 A 8 8 0 0 1 48 43 A 8 8 0 0 1 43.345703 41.5 z "
     id="path1739-8" />
  <path
     style="opacity:1;fill:#ffffff;fill-opacity:1;stroke:none;stroke-width:3.77952766;stroke-linecap:round;stroke-linejoin:round;stroke-miterlimit:4;stroke-dasharray:none;stroke-opacity:1"
     d="M 48 51 A 10 10 0 0 0 41.857422 53.123047 A 8 8 0 0 0 43.351562 54.5 A 8 8 0 0 1 48 53 A 8 8 0 0 1 52.654297 54.5 A 8 8 0 0 0 54.142578 53.113281 A 10 10 0 0 0 48 51 z "
     id="path1739-8-2" />
  <path
     style="fill:#ffffff;stroke:none;stroke-width:1px;stroke-linecap:butt;stroke-linejoin:miter;stroke-opacity:1"
     d="m 47,38 h 2 v 18 h -2 z"
     id="path1855" />
  <path
     style="opacity:1;fill:#ffffff;fill-opacity:1;stroke:none;stroke-width:3.77952766;stroke-linecap:round;stroke-linejoin:round;stroke-miterlimit:4;stroke-dasharray:none;stroke-opacity:1"
     d="M 48 40 A 8 8 0 0 0 45.492188 40.412109 A 10 10 0 0 0 42 48 A 10 10 0 0 0 45.515625 55.597656 A 8 8 0 0 0 48 56 A 8 8 0 0 0 50.009766 55.738281 A 8 8 0 0 1 44 48 A 8 8 0 0 1 49.990234 40.261719 A 8 8 0 0 0 48 40 z "
     id="path1739-0" />
  <path
     style="opacity:1;fill:#ffffff;fill-opacity:1;stroke:none;stroke-width:3.77952766;stroke-linecap:round;stroke-linejoin:round;stroke-miterlimit:4;stroke-dasharray:none;stroke-opacity:1"
     d="M 48 38 A 10 10 0 0 0 38 48 A 10 10 0 0 0 48 58 A 10 10 0 0 0 58 48 A 10 10 0 0 0 48 38 z M 48 40 A 8 8 0 0 1 56 48 A 8 8 0 0 1 48 56 A 8 8 0 0 1 40 48 A 8 8 0 0 1 48 40 z "
     id="path1739" />
</svg>
