<?xml version="1.0" encoding="UTF-8" standalone="no"?>
<!-- Created with Inkscape (http://www.inkscape.org/) -->
<svg
   xmlns:dc="http://purl.org/dc/elements/1.1/"
   xmlns:cc="http://web.resource.org/cc/"
   xmlns:rdf="http://www.w3.org/1999/02/22-rdf-syntax-ns#"
   xmlns:svg="http://www.w3.org/2000/svg"
   xmlns="http://www.w3.org/2000/svg"
   xmlns:xlink="http://www.w3.org/1999/xlink"
   xmlns:sodipodi="http://inkscape.sourceforge.net/DTD/sodipodi-0.dtd"
   xmlns:inkscape="http://www.inkscape.org/namespaces/inkscape"
   sodipodi:docname="yast-xpram.svg"
   sodipodi:docbase="/home/jimmac/src/cvs/gnome/nld-ui/trunk/tango-yast2-theme/icons/scalable/apps"
   inkscape:version="0.43"
   sodipodi:version="0.32"
   id="svg2913"
   height="48px"
   width="48px">
  <defs
     id="defs3">
    <linearGradient
       id="linearGradient6965">
      <stop
         style="stop-color:#dddddd;stop-opacity:1;"
         offset="0"
         id="stop6967" />
      <stop
         style="stop-color:#fdfdfd;stop-opacity:1;"
         offset="1"
         id="stop6969" />
    </linearGradient>
    <linearGradient
       inkscape:collect="always"
       xlink:href="#linearGradient6965"
       id="linearGradient6971"
       x1="28.061466"
       y1="31.431349"
       x2="28.061466"
       y2="36.437492"
       gradientUnits="userSpaceOnUse"
       gradientTransform="matrix(0.941423,0,0,0.979047,-2.772815,-19.17401)" />
    <linearGradient
       id="linearGradient6719">
      <stop
         style="stop-color:#73d216;stop-opacity:1;"
         offset="0"
         id="stop6721" />
      <stop
         style="stop-color:#d5f7b3;stop-opacity:1.0000000;"
         offset="1.0000000"
         id="stop6723" />
    </linearGradient>
    <linearGradient
       id="linearGradient6711">
      <stop
         style="stop-color:#5b8ccb;stop-opacity:1.0000000;"
         offset="0.0000000"
         id="stop6713" />
      <stop
         style="stop-color:#3465a4;stop-opacity:1.0000000;"
         offset="1.0000000"
         id="stop6715" />
    </linearGradient>
    <linearGradient
       id="linearGradient6699">
      <stop
         style="stop-color:#ff7171;stop-opacity:1.0000000;"
         offset="0.0000000"
         id="stop6701" />
      <stop
         style="stop-color:#cc0000;stop-opacity:1.0000000;"
         offset="1.0000000"
         id="stop6703" />
    </linearGradient>
    <linearGradient
       inkscape:collect="always"
       id="linearGradient6687">
      <stop
         style="stop-color:#ffffff;stop-opacity:1;"
         offset="0"
         id="stop6689" />
      <stop
         style="stop-color:#ffffff;stop-opacity:0;"
         offset="1"
         id="stop6691" />
    </linearGradient>
    <linearGradient
       y2="99.2984"
       x2="118.302"
       y1="82.0938"
       x1="97.2412"
       gradientUnits="userSpaceOnUse"
       id="aigrd13">
      <stop
         id="stop12995"
         style="stop-color:#E8F066"
         offset="0" />
      <stop
         id="stop12997"
         style="stop-color:#949941"
         offset="1" />
    </linearGradient>
    <linearGradient
       y2="100.6528"
       x2="115.5175"
       y1="89.1104"
       x1="90.8311"
       gradientUnits="userSpaceOnUse"
       id="aigrd12">
      <stop
         id="stop12988"
         style="stop-color:#E8F066"
         offset="0" />
      <stop
         id="stop12990"
         style="stop-color:#777A34"
         offset="1" />
    </linearGradient>
    <linearGradient
       y2="92.6123"
       x2="124.8197"
       y1="75.1099"
       x1="105.0923"
       gradientUnits="userSpaceOnUse"
       id="aigrd11">
      <stop
         id="stop12981"
         style="stop-color:#3FA6CC"
         offset="0" />
      <stop
         id="stop12983"
         style="stop-color:#00687A"
         offset="1" />
    </linearGradient>
    <linearGradient
       y2="94.8"
       x2="126.1107"
       y1="84.7578"
       x1="107.8672"
       gradientUnits="userSpaceOnUse"
       id="aigrd10">
      <stop
         id="stop12974"
         style="stop-color:#2C7894"
         offset="0" />
      <stop
         id="stop12976"
         style="stop-color:#0E3D47"
         offset="1" />
    </linearGradient>
    <linearGradient
       y2="95.8999"
       x2="118.2002"
       y1="78.1079"
       x1="105.8184"
       gradientUnits="userSpaceOnUse"
       id="aigrd9">
      <stop
         id="stop12967"
         style="stop-color:#C1553A"
         offset="0" />
      <stop
         id="stop12969"
         style="stop-color:#803926"
         offset="1" />
    </linearGradient>
    <linearGradient
       y2="98.8832"
       x2="118.3481"
       y1="81.1763"
       x1="106.0254"
       gradientUnits="userSpaceOnUse"
       id="aigrd8">
      <stop
         id="stop12960"
         style="stop-color:#C09287"
         offset="0" />
      <stop
         id="stop12962"
         style="stop-color:#803926"
         offset="1" />
    </linearGradient>
    <linearGradient
       id="linearGradient2555">
      <stop
         id="stop2557"
         offset="0"
         style="stop-color:#ffffff;stop-opacity:1;" />
      <stop
         style="stop-color:#e6e6e6;stop-opacity:1.0000000;"
         offset="0.50000000"
         id="stop2561" />
      <stop
         id="stop2563"
         offset="0.75000000"
         style="stop-color:#ffffff;stop-opacity:1.0000000;" />
      <stop
         style="stop-color:#e1e1e1;stop-opacity:1.0000000;"
         offset="0.84166664"
         id="stop2565" />
      <stop
         id="stop2559"
         offset="1.0000000"
         style="stop-color:#ffffff;stop-opacity:1.0000000;" />
    </linearGradient>
    <linearGradient
       id="linearGradient4274">
      <stop
         style="stop-color:#ffffff;stop-opacity:0.25490198;"
         offset="0.0000000"
         id="stop4276" />
      <stop
         style="stop-color:#ffffff;stop-opacity:1.0000000;"
         offset="1.0000000"
         id="stop4278" />
    </linearGradient>
    <linearGradient
       id="linearGradient4264"
       inkscape:collect="always">
      <stop
         id="stop4266"
         offset="0"
         style="stop-color:#000000;stop-opacity:1;" />
      <stop
         id="stop4268"
         offset="1"
         style="stop-color:#000000;stop-opacity:0;" />
    </linearGradient>
    <linearGradient
       id="linearGradient4254"
       inkscape:collect="always">
      <stop
         id="stop4256"
         offset="0"
         style="stop-color:#ffffff;stop-opacity:1;" />
      <stop
         id="stop4258"
         offset="1"
         style="stop-color:#ffffff;stop-opacity:0;" />
    </linearGradient>
    <linearGradient
       id="linearGradient4244">
      <stop
         id="stop4246"
         offset="0.0000000"
         style="stop-color:#e4e4e4;stop-opacity:1.0000000;" />
      <stop
         id="stop4248"
         offset="1.0000000"
         style="stop-color:#d3d3d3;stop-opacity:1.0000000;" />
    </linearGradient>
    <linearGradient
       id="linearGradient4236"
       inkscape:collect="always">
      <stop
         id="stop4238"
         offset="0"
         style="stop-color:#eeeeee;stop-opacity:1;" />
      <stop
         id="stop4240"
         offset="1"
         style="stop-color:#eeeeee;stop-opacity:0;" />
    </linearGradient>
    <linearGradient
       id="linearGradient4228">
      <stop
         id="stop4230"
         offset="0.0000000"
         style="stop-color:#bbbbbb;stop-opacity:1.0000000;" />
      <stop
         id="stop4232"
         offset="1.0000000"
         style="stop-color:#9f9f9f;stop-opacity:1.0000000;" />
    </linearGradient>
    <linearGradient
       id="linearGradient4184">
      <stop
         id="stop4186"
         offset="0.0000000"
         style="stop-color:#838383;stop-opacity:1.0000000;" />
      <stop
         id="stop4188"
         offset="1.0000000"
         style="stop-color:#bbbbbb;stop-opacity:0.0000000;" />
    </linearGradient>
    <linearGradient
       gradientTransform="translate(0.795493,-1.325821)"
       y2="35.281250"
       x2="24.687500"
       y1="35.281250"
       x1="7.0625000"
       gradientUnits="userSpaceOnUse"
       id="linearGradient4209"
       xlink:href="#linearGradient4184"
       inkscape:collect="always" />
    <linearGradient
       gradientUnits="userSpaceOnUse"
       y2="40.943935"
       x2="36.183067"
       y1="28.481176"
       x1="7.6046205"
       id="linearGradient4234"
       xlink:href="#linearGradient4228"
       inkscape:collect="always" />
    <linearGradient
       gradientUnits="userSpaceOnUse"
       y2="33.758667"
       x2="12.221823"
       y1="37.205811"
       x1="12.277412"
       id="linearGradient4242"
       xlink:href="#linearGradient4236"
       inkscape:collect="always" />
    <radialGradient
       gradientUnits="userSpaceOnUse"
       gradientTransform="matrix(1.286242,0.781698,-0.710782,1.169552,-2.354348,-4.876862)"
       r="20.935817"
       fy="2.9585190"
       fx="15.571491"
       cy="2.9585190"
       cx="15.571491"
       id="radialGradient4250"
       xlink:href="#linearGradient4244"
       inkscape:collect="always" />
    <linearGradient
       gradientUnits="userSpaceOnUse"
       y2="47.620636"
       x2="44.096100"
       y1="4.4331360"
       x1="12.378357"
       id="linearGradient4260"
       xlink:href="#linearGradient4254"
       inkscape:collect="always" />
    <radialGradient
       gradientUnits="userSpaceOnUse"
       gradientTransform="matrix(1.000000,0.000000,0.000000,0.651032,0.000000,9.455693)"
       r="23.555494"
       fy="27.096155"
       fx="23.201941"
       cy="27.096155"
       cx="23.201941"
       id="radialGradient4270"
       xlink:href="#linearGradient4264"
       inkscape:collect="always" />
    <linearGradient
       gradientUnits="userSpaceOnUse"
       y2="26.357183"
       x2="23.688078"
       y1="11.318835"
       x1="23.688078"
       id="linearGradient4272"
       xlink:href="#linearGradient4274"
       inkscape:collect="always" />
    <linearGradient
       inkscape:collect="always"
       xlink:href="#linearGradient2555"
       id="linearGradient2553"
       x1="33.431175"
       y1="31.964777"
       x2="21.747974"
       y2="11.780679"
       gradientUnits="userSpaceOnUse" />
    <linearGradient
       inkscape:collect="always"
       xlink:href="#linearGradient6687"
       id="linearGradient6693"
       x1="-20.750000"
       y1="29.000000"
       x2="-19.500000"
       y2="18.750000"
       gradientUnits="userSpaceOnUse" />
    <linearGradient
       inkscape:collect="always"
       xlink:href="#linearGradient6687"
       id="linearGradient6697"
       gradientUnits="userSpaceOnUse"
       x1="-20.750000"
       y1="29.000000"
       x2="-20.750000"
       y2="26.500000" />
    <linearGradient
       inkscape:collect="always"
       xlink:href="#linearGradient6699"
       id="linearGradient6705"
       x1="-22.976406"
       y1="18.516047"
       x2="-14.360273"
       y2="33.016045"
       gradientUnits="userSpaceOnUse" />
    <linearGradient
       inkscape:collect="always"
       xlink:href="#linearGradient6687"
       id="linearGradient6709"
       gradientUnits="userSpaceOnUse"
       x1="-20.750000"
       y1="29.000000"
       x2="-19.500000"
       y2="18.750000" />
    <linearGradient
       inkscape:collect="always"
       xlink:href="#linearGradient6711"
       id="linearGradient6717"
       x1="-16.387411"
       y1="24.453547"
       x2="-9.7352734"
       y2="28.195539"
       gradientUnits="userSpaceOnUse" />
    <linearGradient
       inkscape:collect="always"
       xlink:href="#linearGradient6719"
       id="linearGradient6725"
       x1="-17.863041"
       y1="30.827509"
       x2="-20.821646"
       y2="25.015009"
       gradientUnits="userSpaceOnUse" />
    <linearGradient
       inkscape:collect="always"
       xlink:href="#linearGradient6699"
       id="linearGradient6738"
       gradientUnits="userSpaceOnUse"
       x1="-22.976406"
       y1="18.516047"
       x2="-14.360273"
       y2="33.016045" />
    <linearGradient
       inkscape:collect="always"
       xlink:href="#linearGradient6711"
       id="linearGradient6740"
       gradientUnits="userSpaceOnUse"
       x1="-16.387411"
       y1="24.453547"
       x2="-9.7352734"
       y2="28.195539" />
    <linearGradient
       inkscape:collect="always"
       xlink:href="#linearGradient6719"
       id="linearGradient6742"
       gradientUnits="userSpaceOnUse"
       x1="-17.863041"
       y1="30.827509"
       x2="-20.821646"
       y2="25.015009" />
    <linearGradient
       inkscape:collect="always"
       xlink:href="#linearGradient6687"
       id="linearGradient6744"
       gradientUnits="userSpaceOnUse"
       x1="-20.750000"
       y1="29.000000"
       x2="-19.500000"
       y2="18.750000" />
    <linearGradient
       inkscape:collect="always"
       xlink:href="#linearGradient6687"
       id="linearGradient6746"
       gradientUnits="userSpaceOnUse"
       x1="-20.750000"
       y1="29.000000"
       x2="-19.500000"
       y2="18.750000" />
  </defs>
  <sodipodi:namedview
     inkscape:window-y="124"
     inkscape:window-x="299"
     inkscape:window-height="907"
     inkscape:window-width="999"
     inkscape:document-units="px"
     inkscape:grid-bbox="true"
     showgrid="true"
     inkscape:current-layer="layer2"
     inkscape:cy="12.007295"
     inkscape:cx="24.184503"
     inkscape:zoom="1"
     inkscape:pageshadow="2"
     inkscape:pageopacity="0.0"
     borderopacity="0.18431373"
     bordercolor="#666666"
     pagecolor="#ffffff"
     id="base"
     inkscape:showpageshadow="false"
     fill="#a40000" />
  <metadata
     id="metadata4">
    <rdf:RDF>
      <cc:Work
         rdf:about="">
        <dc:format>image/svg+xml</dc:format>
        <dc:type
           rdf:resource="http://purl.org/dc/dcmitype/StillImage" />
        <dc:title>Drive - Hard Disk</dc:title>
        <dc:creator>
          <cc:Agent>
            <dc:title>Jakub Steiner</dc:title>
          </cc:Agent>
        </dc:creator>
        <dc:subject>
          <rdf:Bag>
            <rdf:li>hdd</rdf:li>
            <rdf:li>hard drive</rdf:li>
            <rdf:li>fixed</rdf:li>
            <rdf:li>media</rdf:li>
            <rdf:li>solid</rdf:li>
          </rdf:Bag>
        </dc:subject>
        <cc:license
           rdf:resource="http://creativecommons.org/licenses/by-sa/2.0/" />
        <dc:identifier />
        <dc:source>http://jimmac.musichall.cz</dc:source>
      </cc:Work>
      <cc:License
         rdf:about="http://creativecommons.org/licenses/by-sa/2.0/">
        <cc:permits
           rdf:resource="http://web.resource.org/cc/Reproduction" />
        <cc:permits
           rdf:resource="http://web.resource.org/cc/Distribution" />
        <cc:requires
           rdf:resource="http://web.resource.org/cc/Notice" />
        <cc:requires
           rdf:resource="http://web.resource.org/cc/Attribution" />
        <cc:permits
           rdf:resource="http://web.resource.org/cc/DerivativeWorks" />
        <cc:requires
           rdf:resource="http://web.resource.org/cc/ShareAlike" />
      </cc:License>
    </rdf:RDF>
  </metadata>
  <g
     inkscape:label="pix"
     id="layer2"
     inkscape:groupmode="layer">
    <path
       transform="matrix(1.052533,0.000000,0.000000,0.363113,-0.511757,26.86986)"
       d="M 46.757435 27.096155 A 23.555494 15.335379 0 1 1  -0.35355377,27.096155 A 23.555494 15.335379 0 1 1  46.757435 27.096155 z"
       sodipodi:ry="15.335379"
       sodipodi:rx="23.555494"
       sodipodi:cy="27.096155"
       sodipodi:cx="23.201941"
       id="path4262"
       style="opacity:0.56000000;color:#000000;fill:url(#radialGradient4270);fill-opacity:1.0000000;fill-rule:evenodd;stroke:none;stroke-width:1.0000000;stroke-linecap:round;stroke-linejoin:round;marker:none;marker-start:none;marker-mid:none;marker-end:none;stroke-miterlimit:4.0000000;stroke-dasharray:none;stroke-dashoffset:0.0000000;stroke-opacity:1.0000000;visibility:visible;display:inline;overflow:visible"
       sodipodi:type="arc" />
    <path
       sodipodi:nodetypes="cccsccccccccc"
       id="path4196"
       d="M 11.285690,7.9626278 C 10.660690,7.9626278 10.254441,8.2528080 10.004442,8.8063808 C 10.004441,8.8063808 3.5356915,25.909938 3.5356915,25.909938 C 3.5356915,25.909938 3.2856915,26.581497 3.2856915,27.691188 C 3.2856915,27.691188 3.2856915,37.341156 3.2856915,37.341156 C 3.2856915,38.423769 3.9434770,38.966158 4.9419415,38.966156 L 43.504440,38.966156 C 44.489293,38.966156 45.098190,38.247976 45.098190,37.122406 L 45.098190,27.472438 C 45.098190,27.472438 45.204153,26.702015 45.004440,26.159938 L 38.285690,8.9626314 C 38.101165,8.4507246 37.648785,7.9745331 37.160690,7.9626278 L 11.285690,7.9626278 z "
       style="stroke-opacity:1.0000000;stroke-dasharray:none;stroke-miterlimit:4.0000000;stroke-linejoin:round;stroke-linecap:round;stroke-width:2.0000000;stroke:#535353;fill-rule:evenodd;fill-opacity:1.0000000;fill:none" />
    <path
       sodipodi:nodetypes="ccccccccc"
       id="path4170"
       d="M 3.2735915,26.996812 L 4.0381936,26.304597 L 41.647883,26.367097 L 45.110290,26.684395 L 45.110290,37.122927 C 45.110290,38.248496 44.503272,38.966258 43.518419,38.966258 L 4.9354314,38.966258 C 3.9369667,38.966258 3.2735915,38.424207 3.2735915,37.341594 L 3.2735915,26.996812 z "
       style="fill:url(#linearGradient4234);fill-opacity:1.0;fill-rule:evenodd;stroke:none;stroke-width:1.0204430px;stroke-linecap:butt;stroke-linejoin:miter;stroke-opacity:1.0000000" />
    <path
       sodipodi:nodetypes="csccccccs"
       id="path3093"
       d="M 3.5490842,25.914404 C 2.8347985,27.378690 3.5484686,28.307261 4.5847985,28.307261 C 4.5847985,28.307261 43.584797,28.307261 43.584797,28.307261 C 44.703844,28.283451 45.430035,27.295356 45.013368,26.164403 L 38.299082,8.9537044 C 38.114558,8.4417976 37.644320,7.9656058 37.156225,7.9537008 L 11.299083,7.9537008 C 10.674083,7.9537008 10.263369,8.2572740 10.013370,8.8108468 C 10.013370,8.8108468 3.5490842,25.914404 3.5490842,25.914404 z "
       style="fill:url(#radialGradient4250);fill-opacity:1.0;fill-rule:evenodd;stroke:none;stroke-width:1.0000000px;stroke-linecap:butt;stroke-linejoin:miter;stroke-opacity:1.0000000" />
    <rect
       y="31.174183"
       x="7.8579960"
       height="5.5625000"
       width="17.625000"
       id="rect4174"
       style="opacity:1.0000000;color:#000000;fill:url(#linearGradient4209);fill-opacity:1.0000000;fill-rule:evenodd;stroke:none;stroke-width:2.4089999;stroke-linecap:round;stroke-linejoin:round;marker:none;marker-start:none;marker-mid:none;marker-end:none;stroke-miterlimit:4.0000000;stroke-dasharray:none;stroke-dashoffset:0.0000000;stroke-opacity:1.0000000;visibility:visible;display:inline;overflow:visible" />
    <path
       sodipodi:nodetypes="cscc"
       id="path4194"
       d="M 7.8579947,36.736680 C 7.8579947,36.736680 7.8579947,32.725195 7.8579947,32.725195 C 9.6935221,35.904421 16.154485,36.736680 20.795492,36.736680 C 20.795492,36.736680 7.8579947,36.736680 7.8579947,36.736680 z "
       style="opacity:0.81142857;stroke-opacity:1.0000000;stroke-linejoin:miter;stroke-linecap:butt;stroke-width:1.0000000px;stroke:none;fill-rule:evenodd;fill-opacity:1.0;fill:url(#linearGradient4242)" />
    <path
       sodipodi:nodetypes="cccccccc"
       id="path4201"
       d="M 44.796162,25.628688 C 44.859684,26.878662 44.382159,27.944528 43.474046,27.972438 C 43.474046,27.972438 5.3553296,27.972437 5.3553297,27.972438 C 4.0660978,27.972438 3.4875937,27.647491 3.2712790,27.104382 C 3.3630404,28.048714 4.0970964,28.753688 5.3553297,28.753688 C 5.3553296,28.753687 43.474046,28.753688 43.474046,28.753688 C 44.550053,28.720617 45.226851,27.329664 44.826210,25.758897 L 44.796162,25.628688 z "
       style="fill:#ffffff;fill-opacity:1.0000000;fill-rule:evenodd;stroke:none;stroke-width:1.0000000px;stroke-linecap:butt;stroke-linejoin:miter;stroke-opacity:1.0000000" />
    <path
       id="path4211"
       d="M 10.968750 10.156250 C 10.922675 10.356571 10.781250 10.543047 10.781250 10.750000 C 10.781250 11.698605 11.372230 12.539474 12.125000 13.343750 C 12.365268 13.189675 12.490117 12.989342 12.750000 12.843750 C 11.809691 12.027746 11.196604 11.127168 10.968750 10.156250 z M 37.625000 10.156250 C 37.396273 11.125866 36.782988 12.028676 35.843750 12.843750 C 36.117894 12.997332 36.247738 13.211990 36.500000 13.375000 C 37.257262 12.568344 37.812500 11.701956 37.812500 10.750000 C 37.812500 10.543047 37.670906 10.356571 37.625000 10.156250 z M 39.812500 18.593750 C 39.198709 22.633861 32.513887 25.843750 24.281250 25.843750 C 16.068996 25.843751 9.4211001 22.650964 8.7812500 18.625000 C 8.7488928 18.822132 8.6562500 19.016882 8.6562500 19.218750 C 8.6562503 23.536697 15.645354 27.062501 24.281250 27.062500 C 32.917146 27.062500 39.937499 23.536698 39.937500 19.218750 C 39.937500 19.005826 39.848449 18.801394 39.812500 18.593750 z "
       style="opacity:0.69142857;color:#000000;fill:url(#linearGradient4272);fill-opacity:1.0000000;fill-rule:evenodd;stroke:none;stroke-width:2.0000000;stroke-linecap:round;stroke-linejoin:round;marker:none;marker-start:none;marker-mid:none;marker-end:none;stroke-miterlimit:4.0000000;stroke-dasharray:none;stroke-dashoffset:0.0000000;stroke-opacity:1.0000000;visibility:visible;display:inline;overflow:visible" />
    <path
       transform="translate(8.838843e-2,0.176776)"
       d="M 8.5736699 25.593554 A 1.3700194 1.0164660 0 1 1  5.8336310,25.593554 A 1.3700194 1.0164660 0 1 1  8.5736699 25.593554 z"
       sodipodi:ry="1.0164660"
       sodipodi:rx="1.3700194"
       sodipodi:cy="25.593554"
       sodipodi:cx="7.2036505"
       id="path4224"
       style="opacity:1.0000000;color:#000000;fill:#ffffff;fill-opacity:0.45762709;fill-rule:evenodd;stroke:none;stroke-width:2.0000000;stroke-linecap:round;stroke-linejoin:round;marker:none;marker-start:none;marker-mid:none;marker-end:none;stroke-miterlimit:4.0000000;stroke-dasharray:none;stroke-dashoffset:0.0000000;stroke-opacity:1.0000000;visibility:visible;display:inline;overflow:visible"
       sodipodi:type="arc" />
    <path
       sodipodi:type="arc"
       style="opacity:1.0000000;color:#000000;fill:#ffffff;fill-opacity:0.45762709;fill-rule:evenodd;stroke:none;stroke-width:2.0000000;stroke-linecap:round;stroke-linejoin:round;marker:none;marker-start:none;marker-mid:none;marker-end:none;stroke-miterlimit:4.0000000;stroke-dasharray:none;stroke-dashoffset:0.0000000;stroke-opacity:1.0000000;visibility:visible;display:inline;overflow:visible"
       id="path4226"
       sodipodi:cx="7.2036505"
       sodipodi:cy="25.593554"
       sodipodi:rx="1.3700194"
       sodipodi:ry="1.0164660"
       d="M 8.5736699 25.593554 A 1.3700194 1.0164660 0 1 1  5.8336310,25.593554 A 1.3700194 1.0164660 0 1 1  8.5736699 25.593554 z"
       transform="translate(33.96705,8.838804e-2)" />
    <path
       style="fill:none;fill-opacity:1.0000000;fill-rule:evenodd;stroke:url(#linearGradient4260);stroke-width:1.0000002;stroke-linecap:round;stroke-linejoin:round;stroke-miterlimit:4.0000000;stroke-dasharray:none;stroke-opacity:1.0000000"
       d="M 11.642515,8.4157227 C 11.040823,8.4157227 10.649724,8.6950813 10.409049,9.2280100 C 10.409048,9.2280100 3.9940341,25.818732 3.9940341,25.818732 C 3.9940341,25.818732 3.7533573,26.465247 3.7533573,27.533555 C 3.7533573,27.533555 3.7533573,36.823651 3.7533573,36.823651 C 3.7533573,38.178391 4.1974134,38.450550 5.3478414,38.450550 L 43.034746,38.450550 C 44.357872,38.450550 44.569062,38.134153 44.569062,36.613058 L 44.569062,27.322962 C 44.569062,27.322962 44.671072,26.581271 44.478807,26.059409 L 37.885616,9.2534336 C 37.707973,8.7606171 37.334964,8.4271840 36.865071,8.4157227 L 11.642515,8.4157227 z "
       id="path4252"
       sodipodi:nodetypes="cccsccccccccc" />
    <path
       style="fill:none;fill-opacity:0.75000000;fill-rule:evenodd;stroke:#ffffff;stroke-width:1.0000005px;stroke-linecap:square;stroke-linejoin:miter;stroke-opacity:0.42372882"
       d="M 40.500000,31.429166 L 40.500000,36.450101"
       id="path4282" />
    <path
       id="path4284"
       d="M 38.500000,31.488943 L 38.500000,36.509878"
       style="fill:none;fill-opacity:0.75000000;fill-rule:evenodd;stroke:#ffffff;stroke-width:1.0000005px;stroke-linecap:square;stroke-linejoin:miter;stroke-opacity:0.42372882" />
    <path
       style="fill:none;fill-opacity:0.75000000;fill-rule:evenodd;stroke:#ffffff;stroke-width:1.0000005px;stroke-linecap:square;stroke-linejoin:miter;stroke-opacity:0.42372882"
       d="M 36.500000,31.488943 L 36.500000,36.509878"
       id="path4286" />
    <path
       id="path4288"
       d="M 34.500000,31.488943 L 34.500000,36.509878"
       style="fill:none;fill-opacity:0.75000000;fill-rule:evenodd;stroke:#ffffff;stroke-width:1.0000005px;stroke-linecap:square;stroke-linejoin:miter;stroke-opacity:0.42372882" />
    <path
       style="fill:none;fill-opacity:0.75000000;fill-rule:evenodd;stroke:#ffffff;stroke-width:1.0000005px;stroke-linecap:square;stroke-linejoin:miter;stroke-opacity:0.42372882"
       d="M 32.500000,31.488943 L 32.500000,36.509878"
       id="path4290" />
    <path
       id="path4292"
       d="M 30.500000,31.488943 L 30.500000,36.509878"
       style="fill:none;fill-opacity:0.75000000;fill-rule:evenodd;stroke:#ffffff;stroke-width:1.0000005px;stroke-linecap:square;stroke-linejoin:miter;stroke-opacity:0.42372882" />
    <path
       id="path4294"
       d="M 39.500000,31.479065 L 39.500000,36.500000"
       style="opacity:0.097142857;fill:none;fill-opacity:0.75000000;fill-rule:evenodd;stroke:#000000;stroke-width:1.0000005px;stroke-linecap:square;stroke-linejoin:miter;stroke-opacity:1.0000000" />
    <path
       style="opacity:0.097142857;fill:none;fill-opacity:0.75000000;fill-rule:evenodd;stroke:#000000;stroke-width:1.0000005px;stroke-linecap:square;stroke-linejoin:miter;stroke-opacity:1.0000000"
       d="M 37.500000,31.538842 L 37.500000,36.559777"
       id="path4296" />
    <path
       id="path4298"
       d="M 35.500000,31.538842 L 35.500000,36.559777"
       style="opacity:0.097142857;fill:none;fill-opacity:0.75000000;fill-rule:evenodd;stroke:#000000;stroke-width:1.0000005px;stroke-linecap:square;stroke-linejoin:miter;stroke-opacity:1.0000000" />
    <path
       style="opacity:0.097142857;fill:none;fill-opacity:0.75000000;fill-rule:evenodd;stroke:#000000;stroke-width:1.0000005px;stroke-linecap:square;stroke-linejoin:miter;stroke-opacity:1.0000000"
       d="M 33.500000,31.538842 L 33.500000,36.559777"
       id="path4300" />
    <path
       id="path4302"
       d="M 31.500000,31.538842 L 31.500000,36.559777"
       style="opacity:0.097142857;fill:none;fill-opacity:0.75000000;fill-rule:evenodd;stroke:#000000;stroke-width:1.0000005px;stroke-linecap:square;stroke-linejoin:miter;stroke-opacity:1.0000000" />
    <path
       id="path4572"
       d="M 7.8750000,31.187500 L 7.8750000,36.718750 L 20.437500,36.718750 L 8.2187500,36.375000 L 7.8750000,31.187500 z "
       style="opacity:0.44000000;fill:#ffffff;fill-opacity:1.0000000;fill-rule:evenodd;stroke:none;stroke-width:1.0000000px;stroke-linecap:butt;stroke-linejoin:miter;stroke-opacity:1.0000000" />
    <path
       sodipodi:type="arc"
       style="opacity:0.20571424;color:#000000;fill:url(#linearGradient2553);fill-opacity:1.0000000;fill-rule:evenodd;stroke:none;stroke-width:0.93365198;stroke-linecap:square;stroke-linejoin:round;marker:none;marker-start:none;marker-mid:none;marker-end:none;stroke-miterlimit:4.0000000;stroke-dasharray:none;stroke-dashoffset:0.0000000;stroke-opacity:0.42372879;visibility:visible;display:inline;overflow:visible"
       id="path2545"
       sodipodi:cx="25.000000"
       sodipodi:cy="19.562500"
       sodipodi:rx="14.875000"
       sodipodi:ry="6.6875000"
       d="M 39.875000 19.562500 A 14.875000 6.6875000 0 1 1  10.125000,19.562500 A 14.875000 6.6875000 0 1 1  39.875000 19.562500 z"
       transform="matrix(1.037815,0.000000,0.000000,1.060747,-1.632878,-2.094626)" />
    <rect
       style="opacity:1;color:#000000;fill:url(#linearGradient6971);fill-opacity:1;fill-rule:nonzero;stroke:#7d7d7d;stroke-width:0.99999988;stroke-linecap:round;stroke-linejoin:miter;marker:none;marker-start:none;marker-mid:none;marker-end:none;stroke-miterlimit:4;stroke-dasharray:none;stroke-dashoffset:0;stroke-opacity:1;visibility:visible;display:block;overflow:visible"
       id="rect6951"
       width="36.948887"
       height="12.020957"
       x="1.5233868"
       y="10.489527"
       rx="1.6249995"
       ry="1.6250002" />
    <path
       style="font-size:10px;font-style:normal;font-variant:normal;font-weight:normal;font-stretch:normal;line-height:100%;writing-mode:lr-tb;text-anchor:start;fill:#000000;fill-opacity:1;stroke:none;stroke-width:1px;stroke-linecap:butt;stroke-linejoin:miter;stroke-opacity:1;font-family:Segoe"
       d="M 9.366211,12.873047 C 8.239904,14.536464 7.470048,15.683923 7.056641,16.31543 L 9.302734,19.875 L 8.125977,19.875 L 6.553711,17.194336 C 6.534177,17.165042 6.491859,17.065758 6.426758,16.896484 C 6.403968,16.932295 6.381182,16.981123 6.358398,17.042969 C 6.332354,17.09831 6.174476,17.358726 5.884766,17.824219 L 4.595703,19.875 L 3.414062,19.875 L 5.835938,16.364258 L 3.643555,12.873047 L 4.844727,12.873047 C 5.870115,14.663417 6.394203,15.586267 6.416992,15.641602 C 6.443031,15.70671 6.465817,15.757166 6.485352,15.792969 C 6.521156,15.714848 6.550453,15.651371 6.573242,15.602539 C 6.599281,15.553715 6.687171,15.408859 6.836914,15.167969 L 8.262695,12.873047 L 9.366211,12.873047 M 10.352539,12.873047 L 12.28125,12.873047 C 13.062496,12.873054 13.659826,13.053718 14.073242,13.415039 C 14.489904,13.776373 14.698237,14.285813 14.698242,14.943359 C 14.698237,15.59115 14.467117,16.129887 14.004883,16.55957 C 13.545894,16.989261 12.911129,17.204104 12.100586,17.204102 L 11.30957,17.204102 L 11.30957,19.875 L 10.352539,19.875 L 10.352539,12.873047 M 11.30957,16.354492 L 12.110352,16.354492 C 12.640947,16.354496 13.049476,16.237308 13.335938,16.00293 C 13.625647,15.765304 13.770503,15.426762 13.770508,14.987305 C 13.770503,14.570643 13.633785,14.248378 13.360352,14.020508 C 13.090166,13.789394 12.699541,13.673834 12.188477,13.673828 L 11.30957,13.673828 L 11.30957,16.354492 M 20.606445,19.875 L 19.43457,19.875 L 18.799805,18.395508 C 18.578447,17.881187 18.438473,17.57357 18.379883,17.472656 C 18.321286,17.368492 18.246416,17.274091 18.155273,17.189453 C 18.064125,17.10482 17.968096,17.042972 17.867188,17.003906 C 17.766273,16.964847 17.658852,16.945315 17.544922,16.945312 L 16.915039,16.945312 L 16.915039,19.875 L 15.958008,19.875 L 15.958008,12.873047 L 18.09668,12.873047 C 18.78678,12.873054 19.323889,13.042325 19.708008,13.380859 C 20.092117,13.719407 20.284174,14.176764 20.28418,14.75293 C 20.284174,15.23145 20.149083,15.644861 19.878906,15.993164 C 19.611975,16.33822 19.234371,16.57585 18.746094,16.706055 C 19.019527,16.803714 19.25553,17.059248 19.454102,17.472656 L 20.606445,19.875 M 16.915039,16.105469 L 17.935547,16.105469 C 18.339189,16.105473 18.667965,15.986658 18.921875,15.749023 C 19.179032,15.508142 19.307613,15.203781 19.307617,14.835938 C 19.307613,14.490891 19.193681,14.217454 18.96582,14.015625 C 18.737952,13.813808 18.397783,13.712897 17.945312,13.712891 L 16.915039,13.712891 L 16.915039,16.105469 M 27.364258,19.875 L 26.294922,19.875 L 25.567383,17.96582 L 22.657227,17.96582 L 21.973633,19.875 L 20.904297,19.875 L 23.663086,12.873047 L 24.625,12.873047 L 27.364258,19.875 M 25.225586,17.106445 L 24.551758,15.236328 C 24.314124,14.578781 24.183916,14.19955 24.161133,14.098633 C 24.138343,13.994472 24.123695,13.903326 24.117188,13.825195 L 24.092773,13.825195 C 24.060218,14.069342 24.034177,14.217454 24.014648,14.269531 L 22.964844,17.106445 L 25.225586,17.106445 M 35.738281,19.875 L 34.78125,19.875 L 34.78125,14.523438 C 34.781243,14.445318 34.804029,14.202805 34.849609,13.795898 L 34.830078,13.795898 C 34.764967,14.11817 34.70149,14.350917 34.639648,14.494141 L 32.24707,19.875 L 31.77832,19.875 L 29.390625,14.542969 C 29.332029,14.419276 29.265298,14.170253 29.19043,13.795898 L 29.170898,13.795898 C 29.196938,14.049811 29.209959,14.316737 29.209961,14.59668 L 29.209961,19.875 L 28.306641,19.875 L 28.306641,12.873047 L 29.581055,12.873047 L 31.900391,18.004883 C 31.968745,18.1709 32.011063,18.310874 32.027344,18.424805 L 32.056641,18.424805 C 32.082678,18.323895 32.136388,18.180666 32.217773,17.995117 L 34.488281,12.873047 L 35.738281,12.873047 L 35.738281,19.875"
       id="text2421" />
  </g>
</svg>
