<?xml version="1.0" encoding="UTF-8" standalone="no"?>
<svg
   xmlns:dc="http://purl.org/dc/elements/1.1/"
   xmlns:cc="http://creativecommons.org/ns#"
   xmlns:rdf="http://www.w3.org/1999/02/22-rdf-syntax-ns#"
   xmlns:svg="http://www.w3.org/2000/svg"
   xmlns="http://www.w3.org/2000/svg"
   xmlns:xlink="http://www.w3.org/1999/xlink"
   id="svg8"
   version="1.1"
   viewBox="0 0 64 64.000003"
   height="64"
   width="64">
  <defs
     id="defs2">
    <linearGradient
       id="linearGradient3264">
      <stop
         style="stop-color:#c9c9c9;stop-opacity:1;"
         offset="0"
         id="stop3266" />
      <stop
         id="stop3276"
         offset="0.25"
         style="stop-color:#f8f8f8;stop-opacity:1;" />
      <stop
         id="stop3272"
         offset="0.5"
         style="stop-color:#e2e2e2;stop-opacity:1;" />
      <stop
         style="stop-color:#b0b0b0;stop-opacity:1;"
         offset="0.75"
         id="stop3274" />
      <stop
         style="stop-color:#c9c9c9;stop-opacity:1;"
         offset="1"
         id="stop3268" />
    </linearGradient>
    <linearGradient
       id="linearGradient3256">
      <stop
         style="stop-color:#000000;stop-opacity:1;"
         offset="0"
         id="stop3258" />
      <stop
         style="stop-color:#000000;stop-opacity:0;"
         offset="1"
         id="stop3260" />
    </linearGradient>
    <linearGradient
       id="linearGradient2752">
      <stop
         style="stop-color:#9d9d9d;stop-opacity:1;"
         offset="0"
         id="stop2754" />
      <stop
         style="stop-color:#b9b9b9;stop-opacity:1.0000000;"
         offset="1.0000000"
         id="stop2756" />
    </linearGradient>
    <linearGradient
       id="linearGradient2711">
      <stop
         style="stop-color:#909090;stop-opacity:1.0000000;"
         offset="0.0000000"
         id="stop2713" />
      <stop
         style="stop-color:#bebebe;stop-opacity:0.0000000;"
         offset="1.0000000"
         id="stop2715" />
    </linearGradient>
    <linearGradient
       id="linearGradient2701">
      <stop
         style="stop-color:#585956;stop-opacity:1.0000000;"
         offset="0.0000000"
         id="stop2703" />
      <stop
         style="stop-color:#bbbeb8;stop-opacity:1.0000000;"
         offset="1.0000000"
         id="stop2705" />
    </linearGradient>
    <linearGradient
       id="linearGradient2691">
      <stop
         style="stop-color:#868686;stop-opacity:1.0000000;"
         offset="0.0000000"
         id="stop2693" />
      <stop
         style="stop-color:#e9e9e9;stop-opacity:1.0000000;"
         offset="1.0000000"
         id="stop2695" />
    </linearGradient>
    <linearGradient
       id="linearGradient2675">
      <stop
         style="stop-color:#5b5b97;stop-opacity:1.0000000;"
         offset="0.0000000"
         id="stop2677" />
      <stop
         style="stop-color:#1b1b43;stop-opacity:1.0000000;"
         offset="1.0000000"
         id="stop2679" />
    </linearGradient>
    <linearGradient
       id="linearGradient2667">
      <stop
         style="stop-color:#ffffff;stop-opacity:1.0000000;"
         offset="0.0000000"
         id="stop2669" />
      <stop
         style="stop-color:#fcfcff;stop-opacity:0.0000000;"
         offset="1.0000000"
         id="stop2671" />
    </linearGradient>
    <linearGradient
       id="linearGradient2635">
      <stop
         style="stop-color:#f9fff5;stop-opacity:1;"
         offset="0"
         id="stop2637" />
      <stop
         style="stop-color:#f9fff5;stop-opacity:0;"
         offset="1"
         id="stop2639" />
    </linearGradient>
    <linearGradient
       id="linearGradient2623">
      <stop
         style="stop-color:#dfdfde;stop-opacity:1.0000000;"
         offset="0.0000000"
         id="stop2625" />
      <stop
         style="stop-color:#9d9f9a;stop-opacity:1.0000000;"
         offset="1.0000000"
         id="stop2627" />
    </linearGradient>
    <linearGradient
       id="linearGradient2379">
      <stop
         id="stop2381"
         offset="0.0000000"
         style="stop-color:#1a4876;stop-opacity:1.0000000;" />
      <stop
         id="stop2383"
         offset="1.0000000"
         style="stop-color:#3f54a3;stop-opacity:0.0000000;" />
    </linearGradient>
    <linearGradient
       id="linearGradient2328">
      <stop
         id="stop2330"
         offset="0"
         style="stop-color:#ffffff;stop-opacity:1;" />
      <stop
         id="stop2332"
         offset="1"
         style="stop-color:#ffffff;stop-opacity:0;" />
    </linearGradient>
    <linearGradient
       id="linearGradient2307">
      <stop
         id="stop2309"
         offset="0"
         style="stop-color:#5a7aa4;stop-opacity:1;" />
      <stop
         id="stop2311"
         offset="1"
         style="stop-color:#5a7aa4;stop-opacity:0;" />
    </linearGradient>
    <linearGradient
       id="linearGradient2253">
      <stop
         id="stop2255"
         offset="0.0000000"
         style="stop-color:#8f8f8f;stop-opacity:1.0000000;" />
      <stop
         id="stop2257"
         offset="1.0000000"
         style="stop-color:#494949;stop-opacity:1.0000000;" />
    </linearGradient>
    <linearGradient
       id="linearGradient2245">
      <stop
         id="stop2247"
         offset="0.0000000"
         style="stop-color:#dde1d9;stop-opacity:1.0000000;" />
      <stop
         id="stop2249"
         offset="1.0000000"
         style="stop-color:#cacdc6;stop-opacity:1.0000000;" />
    </linearGradient>
    <linearGradient
       gradientUnits="userSpaceOnUse"
       y2="53.734985"
       x2="24.418941"
       y1="9.323514"
       x1="16.851954"
       gradientTransform="matrix(1.208393,0,0,0.98441,-0.789284,-0.50338)"
       id="linearGradient2313"
       xlink:href="#linearGradient2307" />
    <linearGradient
       gradientUnits="userSpaceOnUse"
       y2="39.03191"
       x2="27.289009"
       y1="10.842293"
       x1="16.119127"
       gradientTransform="matrix(1.289166,0,0,0.922731,-0.789284,-0.50338)"
       id="linearGradient2334"
       xlink:href="#linearGradient2328" />
    <linearGradient
       y2="-1.3221773"
       x2="19.994572"
       y1="30.078255"
       x1="21.356108"
       gradientTransform="matrix(1.02787,0,0,0.822296,1.523986,1.001198)"
       gradientUnits="userSpaceOnUse"
       id="linearGradient2445"
       xlink:href="#linearGradient2379" />
    <linearGradient
       xlink:href="#linearGradient2623"
       id="linearGradient2653"
       gradientUnits="userSpaceOnUse"
       gradientTransform="scale(1.983556,0.504145)"
       x1="10.728384"
       y1="84.029198"
       x2="10.728384"
       y2="92.57093" />
    <linearGradient
       xlink:href="#linearGradient2635"
       id="linearGradient2655"
       gradientUnits="userSpaceOnUse"
       gradientTransform="scale(2.143634,0.466498)"
       x1="13.62871"
       y1="101.2846"
       x2="8.6485014"
       y2="74.098007" />
    <radialGradient
       r="19.622213"
       fy="39.161163"
       fx="25.455845"
       cy="39.161163"
       cx="25.455845"
       gradientTransform="matrix(1,0,0,0.315315,0,26.81305)"
       gradientUnits="userSpaceOnUse"
       id="radialGradient13503"
       xlink:href="#linearGradient3256" />
    <linearGradient
       y2="39.684914"
       x2="34.534348"
       y1="12.284524"
       x1="14.462892"
       gradientTransform="matrix(1.241935,0,0,1.241935,-5.027508,-7.208988)"
       gradientUnits="userSpaceOnUse"
       id="linearGradient13505"
       xlink:href="#linearGradient3264" />
  </defs>
  <metadata
     id="metadata5">
    <rdf:RDF>
      <cc:Work
         rdf:about="">
        <dc:format>image/svg+xml</dc:format>
        <dc:type
           rdf:resource="http://purl.org/dc/dcmitype/StillImage" />
        <dc:title></dc:title>
      </cc:Work>
    </rdf:RDF>
  </metadata>
  <g
     id="g944">
    <path
       id="rect905-7"
       d="M 32,6 C 20.92,6 12,14.920001 12,26 V 38 C 12,49.08 20.92,58 32,58 25.352,58 20,52.648 20,46 V 26 c 0,-6.648 5.352,-12 12,-12 6.648,0 12,5.352 12,12 v 20 c 0,6.648 -5.352,12 -12,12 11.08,0 20,-8.92 20,-20 V 26 C 52,14.920001 43.08,6 32,6 Z"
       style="opacity:1;fill:#808080;fill-opacity:1;stroke:none;stroke-width:3.77952766;stroke-linecap:round;stroke-linejoin:round;stroke-miterlimit:4;stroke-dasharray:none;stroke-opacity:1" />
    <path
       id="rect905"
       d="M 32,4 C 20.92,4 12,12.92 12,24 V 36 C 12,47.08 20.92,56 32,56 25.352,56 20,50.648 20,44 V 24 c 0,-6.648 5.352,-12 12,-12 6.648,0 12,5.352 12,12 v 20 c 0,6.648 -5.352,12 -12,12 11.08,0 20,-8.92 20,-20 V 24 C 52,12.92 43.08,4 32,4 Z"
       style="opacity:1;fill:#b3b3b3;fill-opacity:1;stroke:none;stroke-width:3.77952766;stroke-linecap:round;stroke-linejoin:round;stroke-miterlimit:4;stroke-dasharray:none;stroke-opacity:1" />
    <rect
       ry="4"
       y="28"
       x="8"
       height="32"
       width="48"
       id="rect903-6"
       style="opacity:1;fill:#aa8800;fill-opacity:1;stroke:none;stroke-width:3.77952766;stroke-linecap:round;stroke-linejoin:round;stroke-miterlimit:4;stroke-dasharray:none;stroke-opacity:1" />
    <path
       id="rect903-2"
       d="m 12,29 c -2.216,0 -4,1.784 -4,4 h 6 c 1.108,0 2,0.892 2,2 0,1.108 -0.892,2 -2,2 H 8 v 4 h 6 c 1.108,0 2,0.892 2,2 0,1.108 -0.892,2 -2,2 H 8 v 4 h 6 c 1.108,0 2,0.892 2,2 0,1.108 -0.892,2 -2,2 H 8 c 0,2.216 1.784,4 4,4 h 40 c 2.216,0 4,-1.784 4,-4 h -6 c -1.108,0 -2,-0.892 -2,-2 0,-1.108 0.892,-2 2,-2 h 6 v -4 h -6 c -1.108,0 -2,-0.892 -2,-2 0,-1.108 0.892,-2 2,-2 h 6 v -4 h -6 c -1.108,0 -2,-0.892 -2,-2 0,-1.108 0.892,-2 2,-2 h 6 c 0,-2.216 -1.784,-4 -4,-4 z"
       style="opacity:1;fill:#d4aa00;fill-opacity:1;stroke:none;stroke-width:3.77952766;stroke-linecap:round;stroke-linejoin:round;stroke-miterlimit:4;stroke-dasharray:none;stroke-opacity:1" />
    <path
       id="rect903"
       d="m 12,28 c -2.216,0 -4,1.784 -4,4 h 6 c 1.108,0 2,0.892 2,2 0,1.108 -0.892,2 -2,2 H 8 v 4 h 6 c 1.108,0 2,0.892 2,2 0,1.108 -0.892,2 -2,2 H 8 v 4 h 6 c 1.108,0 2,0.892 2,2 0,1.108 -0.892,2 -2,2 H 8 c 0,2.216 1.784,4 4,4 h 40 c 2.216,0 4,-1.784 4,-4 h -6 c -1.108,0 -2,-0.892 -2,-2 0,-1.108 0.892,-2 2,-2 h 6 v -4 h -6 c -1.108,0 -2,-0.892 -2,-2 0,-1.108 0.892,-2 2,-2 h 6 v -4 h -6 c -1.108,0 -2,-0.892 -2,-2 0,-1.108 0.892,-2 2,-2 h 6 c 0,-2.216 -1.784,-4 -4,-4 z"
       style="opacity:1;fill:#ffcc00;fill-opacity:1;stroke:none;stroke-width:3.77952766;stroke-linecap:round;stroke-linejoin:round;stroke-miterlimit:4;stroke-dasharray:none;stroke-opacity:1" />
  </g>
  <path
     style="opacity:1;fill:#483737;fill-opacity:1;stroke:none;stroke-width:3.77952766;stroke-linecap:round;stroke-linejoin:round;stroke-miterlimit:4;stroke-dasharray:none;stroke-opacity:1"
     d="m 22,20 -2,20 0.09766,-0.162109 C 20.03619,40.554998 20.00358,41.277009 20,42 c 0,9.941125 5.372583,18 12,18 6.627417,0 12,-8.058875 12,-18 -0.0047,-0.725717 -0.03858,-1.450347 -0.101562,-2.169922 L 44,40 42,20 39.027344,27.431641 C 36.983897,25.207331 34.524791,24.006484 32,24 c -2.524412,0.0082 -4.982799,1.210433 -7.025391,3.435547 z"
     id="path913-5" />
  <path
     style="opacity:1;fill:#6c5353;fill-opacity:1;stroke:none;stroke-width:3.77952766;stroke-linecap:round;stroke-linejoin:round;stroke-miterlimit:4;stroke-dasharray:none;stroke-opacity:1"
     d="m 22,17 -1.90234,20.837891 v 0 C 20.03618,38.554998 20.00357,39.277009 20,40 c 0,9.941125 5.372583,18 12,18 6.627417,0 12,-8.058875 12,-18 -0.0047,-0.725717 -0.03858,-1.450347 -0.101562,-2.169922 v 0 L 42,17 39.027344,25.431641 C 36.983897,23.207331 34.524791,22.006484 32,22 c -2.524412,0.0082 -4.982799,1.210433 -7.025391,3.435547 z"
     id="path913" />
  <path
     id="path946"
     d="M 32,40.999531 A 8,4 0 0 0 24.603516,43.48 10,4.5 0 0 1 32,41.999531 10,4.5 0 0 1 39.388672,43.476093 8,4 0 0 0 32,40.999531 Z"
     style="opacity:1;fill:#483737;fill-opacity:1;stroke:none;stroke-width:3.77952766;stroke-linecap:round;stroke-linejoin:round;stroke-miterlimit:4;stroke-dasharray:none;stroke-opacity:1" />
  <path
     style="fill:#c8b7b7;stroke:none;stroke-width:1px;stroke-linecap:butt;stroke-linejoin:miter;stroke-opacity:1"
     d="m 29,42 h 6 l -3,4 z"
     id="path959" />
</svg>
