<?xml version="1.0" encoding="UTF-8"?>
<svg width="64" height="64" version="1.1" viewBox="0 0 64 64.000003" xmlns="http://www.w3.org/2000/svg" xmlns:cc="http://creativecommons.org/ns#" xmlns:dc="http://purl.org/dc/elements/1.1/" xmlns:rdf="http://www.w3.org/1999/02/22-rdf-syntax-ns#">
<metadata>
<rdf:RDF>
<cc:Work rdf:about="">
<dc:format>image/svg+xml</dc:format>
<dc:type rdf:resource="http://purl.org/dc/dcmitype/StillImage"/>
<dc:title/>
</cc:Work>
</rdf:RDF>
</metadata>
<g transform="translate(0 -1058.5)">
<path d="m20 1119.5-12-48v-1h4l12 47v1z" fill="#808080"/>
<path d="m26 1072.5 16-4 5 25 2 3-16 4z" fill="#ccc"/>
<path d="m32 1079.5-1-4-4 1 1 4z" fill="#1a1a1a"/>
<path d="m34 1087.5-1-4-4 1 1 4z" fill="#1a1a1a"/>
<path d="m36 1095.5-1-4-4 1 1 4z" fill="#1a1a1a"/>
<path d="m13 1073.5 16-4 7 28-16 4z" fill="#fff"/>
<path d="m49 1096.5-2-3h-3l1 4z" fill="#1a1a1a"/>
<path d="m44 1093.5-1-4-4 1 1 4z" fill="#1a1a1a"/>
<path d="m42 1085.5-1-4-4 1 1 4z" fill="#1a1a1a"/>
<path d="m40 1077.5-1-4-4 1 1 4z" fill="#1a1a1a"/>
<path d="m20 1118.5-12-48 4-1 12 48z" fill="#b3b3b3"/>
<path d="m36 1066.5 16-4 7 28-16 4z" fill="#fff"/>
<path d="m53 1066.5-1-4-4 1 1 4z" fill="#333"/>
<path d="m50 1071.5-1-4-4 1 1 4z" fill="#333"/>
<path d="m55 1074.5-1-4-4 1 1 4z" fill="#333"/>
<path d="m52 1079.5-1-4-4 1 1 4z" fill="#333"/>
<path d="m57 1082.5-1-4-4 1 1 4z" fill="#333"/>
<path d="m54 1087.5-1-4-4 1 1 4z" fill="#333"/>
<path d="m59 1090.5-1-4-4 1 1 4z" fill="#333"/>
<path d="m45 1068.5-1-4-4 1 1 4z" fill="#333"/>
<path d="m47 1076.5-1-4-4 1 1 4z" fill="#333"/>
<path d="m49 1084.5-1-4-4 1 1 4z" fill="#333"/>
<path d="m51 1092.5-1-4-4 1 1 4z" fill="#333"/>
<path d="m42 1073.5-1-4-4 1 1 4z" fill="#333"/>
<path d="m44 1081.5-1-4-4 1 1 4z" fill="#333"/>
<path d="m46 1089.5-1-4-4 1 1 4z" fill="#333"/>
<path d="m41 1098.5-1-4-4 1 1 4z" fill="#1a1a1a"/>
<path d="m39 1090.5-1-4-4 1 1 4z" fill="#1a1a1a"/>
<path d="m37 1082.5-1-4-4 1 1 4z" fill="#1a1a1a"/>
<path d="m35 1074.5-1-4-4 1 1 4z" fill="#1a1a1a"/>
<path d="m30 1073.5-1-4-4 1 1 4z" fill="#333"/>
<path d="m27 1078.5-1-4-4 1 1 4z" fill="#333"/>
<path d="m32 1081.5-1-4-4 1 1 4z" fill="#333"/>
<path d="m29 1086.5-1-4-4 1 1 4z" fill="#333"/>
<path d="m34 1089.5-1-4-4 1 1 4z" fill="#333"/>
<path d="m31 1094.5-1-4-4 1 1 4z" fill="#333"/>
<path d="m36 1097.5-1-4-4 1 1 4z" fill="#333"/>
<path d="m22 1075.5-1-4-4 1 1 4z" fill="#333"/>
<path d="m24 1083.5-1-4-4 1 1 4z" fill="#333"/>
<path d="m26 1091.5-1-4-4 1 1 4z" fill="#333"/>
<path d="m28 1099.5-1-4-4 1 1 4z" fill="#333"/>
<path d="m19 1080.5-1-4-4 1 1 4z" fill="#333"/>
<path d="m21 1088.5-1-4-4 1 1 4z" fill="#333"/>
<path d="m23 1096.5-1-4-4 1 1 4z" fill="#333"/>
<path d="m33 1100.5 3-3-4 1z" fill="#999"/>
<path d="m49 1096.5-6-2 4-1z" fill="#999"/>
</g>
</svg>
