<?xml version="1.0" encoding="UTF-8" standalone="no"?>
<svg
   xmlns:dc="http://purl.org/dc/elements/1.1/"
   xmlns:cc="http://creativecommons.org/ns#"
   xmlns:rdf="http://www.w3.org/1999/02/22-rdf-syntax-ns#"
   xmlns:svg="http://www.w3.org/2000/svg"
   xmlns="http://www.w3.org/2000/svg"
   width="64"
   height="64"
   viewBox="0 0 64 64.000003"
   version="1.1"
   id="svg8">
  <defs
     id="defs2" />
  <metadata
     id="metadata5">
    <rdf:RDF>
      <cc:Work
         rdf:about="">
        <dc:format>image/svg+xml</dc:format>
        <dc:type
           rdf:resource="http://purl.org/dc/dcmitype/StillImage" />
        <dc:title></dc:title>
      </cc:Work>
    </rdf:RDF>
  </metadata>
  <rect
     style="opacity:1;fill:#aa0000;fill-opacity:1;stroke:none;stroke-width:3.77952766;stroke-linecap:round;stroke-linejoin:round;stroke-miterlimit:4;stroke-dasharray:none;stroke-opacity:1"
     id="rect982-36"
     width="9"
     height="12"
     x="45"
     y="37"
     ry="3" />
  <rect
     style="opacity:1;fill:#5a2ca0;fill-opacity:1;stroke:none;stroke-width:3.77952766;stroke-linecap:round;stroke-linejoin:round;stroke-miterlimit:4;stroke-dasharray:none;stroke-opacity:1"
     id="rect942"
     width="39.862339"
     height="52"
     x="10.137661"
     y="8"
     ry="4" />
  <rect
     style="opacity:1;fill:#5a2ca0;fill-opacity:1;stroke:none;stroke-width:3.77952766;stroke-linecap:round;stroke-linejoin:round;stroke-miterlimit:4;stroke-dasharray:none;stroke-opacity:1"
     id="rect944"
     width="6"
     height="55"
     x="10"
     y="5"
     ry="0" />
  <rect
     style="opacity:1;fill:#cccccc;fill-opacity:1;stroke:none;stroke-width:3.77952766;stroke-linecap:round;stroke-linejoin:round;stroke-miterlimit:4;stroke-dasharray:none;stroke-opacity:1"
     id="rect950"
     width="35"
     height="11"
     x="11"
     y="48" />
  <rect
     style="opacity:1;fill:#cccccc;fill-opacity:1;stroke:none;stroke-width:3.77952766;stroke-linecap:round;stroke-linejoin:round;stroke-miterlimit:4;stroke-dasharray:none;stroke-opacity:1"
     id="rect948"
     width="39"
     height="11"
     x="11"
     y="48"
     ry="4" />
  <rect
     style="opacity:1;fill:#5a2ca0;fill-opacity:1;stroke:none;stroke-width:3.77952766;stroke-linecap:round;stroke-linejoin:round;stroke-miterlimit:4;stroke-dasharray:none;stroke-opacity:1"
     id="rect944-7"
     width="6"
     height="51"
     x="10"
     y="5"
     ry="0" />
  <rect
     style="opacity:1;fill:#5a2ca0;fill-opacity:1;stroke:none;stroke-width:3.77952766;stroke-linecap:round;stroke-linejoin:round;stroke-miterlimit:4;stroke-dasharray:none;stroke-opacity:1"
     id="rect942-6"
     width="39"
     height="52"
     x="11"
     y="4"
     ry="4" />
  <rect
     style="opacity:1;fill:#ffd42a;fill-opacity:1;stroke:none;stroke-width:3.77952766;stroke-linecap:round;stroke-linejoin:round;stroke-miterlimit:4;stroke-dasharray:none;stroke-opacity:1"
     id="rect982-56"
     width="9"
     height="12"
     x="45"
     y="12"
     ry="3" />
  <rect
     style="opacity:1;fill:#2ca02c;fill-opacity:1;stroke:none;stroke-width:3.77952766;stroke-linecap:round;stroke-linejoin:round;stroke-miterlimit:4;stroke-dasharray:none;stroke-opacity:1"
     id="rect982-3"
     width="9"
     height="12"
     x="45"
     y="20"
     ry="3" />
  <rect
     style="opacity:1;fill:#3737c8;fill-opacity:1;stroke:none;stroke-width:3.77952766;stroke-linecap:round;stroke-linejoin:round;stroke-miterlimit:4;stroke-dasharray:none;stroke-opacity:1"
     id="rect982-5"
     width="9"
     height="12"
     x="45"
     y="28"
     ry="3" />
  <rect
     style="opacity:1;fill:#ff0000;fill-opacity:1;stroke:none;stroke-width:3.77952766;stroke-linecap:round;stroke-linejoin:round;stroke-miterlimit:4;stroke-dasharray:none;stroke-opacity:1"
     id="rect982"
     width="9"
     height="12"
     x="45"
     y="36"
     ry="3" />
  <rect
     style="opacity:1;fill:#7137c8;fill-opacity:1;stroke:none;stroke-width:3.77952766;stroke-linecap:round;stroke-linejoin:round;stroke-miterlimit:4;stroke-dasharray:none;stroke-opacity:1"
     id="rect940"
     width="39"
     height="51"
     x="11"
     y="4"
     ry="4" />
  <path
     style="opacity:1;fill:#7137c8;fill-opacity:1;stroke:none;stroke-width:3.77952766;stroke-linecap:round;stroke-linejoin:round;stroke-miterlimit:4;stroke-dasharray:none;stroke-opacity:1"
     d="M 10 4 L 10 55 L 16 55 L 16 4 L 12 4 L 12 4.5 C 12 4.777 11.777 5 11.5 5 C 11.223 5 11 4.777 11 4.5 L 11 4 L 10 4 z "
     id="rect946" />
  <rect
     style="opacity:1;fill:#8d5fd3;fill-opacity:1;stroke:none;stroke-width:3.77952766;stroke-linecap:round;stroke-linejoin:round;stroke-miterlimit:4;stroke-dasharray:none;stroke-opacity:1"
     id="rect1013"
     width="1"
     height="51"
     x="11"
     y="5"
     ry="0.5" />
  <path
     style="opacity:1;fill:#8d5fd3;fill-opacity:1;stroke:none;stroke-width:3.77952766;stroke-linecap:round;stroke-linejoin:round;stroke-miterlimit:4;stroke-dasharray:none;stroke-opacity:1"
     d="M 11 4.5 L 11 5.5 C 11 5.777 11.223 6 11.5 6 C 11.777 6 12 5.777 12 5.5 L 12 4.5 C 12 4.777 11.777 5 11.5 5 C 11.223 5 11 4.777 11 4.5 z "
     id="rect1018" />
  <rect
     style="opacity:1;fill:#5a2ca0;fill-opacity:1;stroke:none;stroke-width:3.77952766;stroke-linecap:round;stroke-linejoin:round;stroke-miterlimit:4;stroke-dasharray:none;stroke-opacity:1"
     id="rect1023-2"
     width="20"
     height="16"
     x="20"
     y="27"
     ry="8" />
  <rect
     style="opacity:1;fill:#5a2ca0;fill-opacity:1;stroke:none;stroke-width:3.77952766;stroke-linecap:round;stroke-linejoin:round;stroke-miterlimit:4;stroke-dasharray:none;stroke-opacity:1"
     id="rect1025-9"
     width="20"
     height="10"
     x="20"
     y="33"
     ry="2" />
  <rect
     style="opacity:1;fill:#ffffff;fill-opacity:1;stroke:none;stroke-width:3.77952766;stroke-linecap:round;stroke-linejoin:round;stroke-miterlimit:4;stroke-dasharray:none;stroke-opacity:1"
     id="rect1023"
     width="20"
     height="16"
     x="20"
     y="28"
     ry="8" />
  <rect
     style="opacity:1;fill:#ffffff;fill-opacity:1;stroke:none;stroke-width:3.77952766;stroke-linecap:round;stroke-linejoin:round;stroke-miterlimit:4;stroke-dasharray:none;stroke-opacity:1"
     id="rect1025"
     width="20"
     height="10"
     x="20"
     y="34"
     ry="2" />
  <path
     style="opacity:1;fill:#5a2ca0;fill-opacity:1;stroke:none;stroke-width:3.77952766;stroke-linecap:round;stroke-linejoin:round;stroke-miterlimit:4;stroke-dasharray:none;stroke-opacity:1"
     d="m 30,13 a 6,6 0 0 0 -6,6 6,6 0 0 0 6,6 6,6 0 0 0 6,-6 6,6 0 0 0 -6,-6 z"
     id="path1029-1" />
  <path
     style="opacity:1;fill:#ffffff;fill-opacity:1;stroke:none;stroke-width:3.77952766;stroke-linecap:round;stroke-linejoin:round;stroke-miterlimit:4;stroke-dasharray:none;stroke-opacity:1"
     d="m 30,14 a 6,6 0 0 0 -6,6 6,6 0 0 0 6,6 6,6 0 0 0 6,-6 6,6 0 0 0 -6,-6 z"
     id="path1029" />
</svg>
