<?xml version="1.0" encoding="UTF-8" standalone="no"?>
<svg
   xmlns:dc="http://purl.org/dc/elements/1.1/"
   xmlns:cc="http://creativecommons.org/ns#"
   xmlns:rdf="http://www.w3.org/1999/02/22-rdf-syntax-ns#"
   xmlns:svg="http://www.w3.org/2000/svg"
   xmlns="http://www.w3.org/2000/svg"
   id="svg14"
   version="1"
   height="64"
   width="64">
  <metadata
     id="metadata20">
    <rdf:RDF>
      <cc:Work
         rdf:about="">
        <dc:format>image/svg+xml</dc:format>
        <dc:type
           rdf:resource="http://purl.org/dc/dcmitype/StillImage" />
        <dc:title></dc:title>
      </cc:Work>
    </rdf:RDF>
  </metadata>
  <defs
     id="defs18" />
  <circle
     style="opacity:1;fill:#deaa87;fill-opacity:1;stroke:none;stroke-width:3.77952766;stroke-linecap:round;stroke-linejoin:round;stroke-miterlimit:4;stroke-dasharray:none;stroke-opacity:1"
     id="path1152-0"
     cx="32"
     cy="18"
     r="12" />
  <path
     style="opacity:1;fill:#a02c2c;fill-opacity:1;stroke:none;stroke-width:3.77952766;stroke-linecap:round;stroke-linejoin:round;stroke-miterlimit:4;stroke-dasharray:none;stroke-opacity:1"
     d="M 14 44 C 12.892 44 12 44.892 12 46 L 12 58 C 12 59.108 12.892 60 14 60 L 50 60 C 51.108 60 52 59.108 52 58 L 52 46 C 52 44.892 51.108 44 50 44 L 14 44 z "
     id="rect1154-3" />
  <circle
     style="opacity:1;fill:#e9c6af;fill-opacity:1;stroke:none;stroke-width:3.77952766;stroke-linecap:round;stroke-linejoin:round;stroke-miterlimit:4;stroke-dasharray:none;stroke-opacity:1"
     id="path1152"
     cx="32"
     cy="16"
     r="12" />
  <path
     style="opacity:1;fill:#c83737;fill-opacity:1;stroke:none;stroke-width:3.77952766;stroke-linecap:round;stroke-linejoin:round;stroke-miterlimit:4;stroke-dasharray:none;stroke-opacity:1"
     d="M 24.9375 32 C 17.769608 32 12 37.769608 12 44.9375 L 12 45.0625 C 12 52.230392 17.769608 58 24.9375 58 L 39.0625 58 C 46.230392 58 52 52.230392 52 45.0625 L 52 44.9375 C 52 37.769608 46.230392 32 39.0625 32 L 24.9375 32 z "
     id="rect1154" />
  <path
     style="opacity:1;fill:#c83737;fill-opacity:1;stroke:none;stroke-width:3.77952766;stroke-linecap:round;stroke-linejoin:round;stroke-miterlimit:4;stroke-dasharray:none;stroke-opacity:1"
     d="M 14 44 C 12.892 44 12 44.892 12 46 L 12 56 C 12 57.108 12.892 58 14 58 L 50 58 C 51.108 58 52 57.108 52 56 L 52 46 C 52 44.892 51.108 44 50 44 L 14 44 z "
     id="rect1193" />
  <path
     id="path1104-1"
     d="M 48,35 A 14,14 0 0 0 34,49 14,14 0 0 0 48,63 14,14 0 0 0 62,49 14,14 0 0 0 48,35 Z"
     style="opacity:1;fill:#1a1a1a;fill-opacity:1;fill-rule:nonzero;stroke:none;stroke-width:1.72389317;stroke-linecap:round;stroke-linejoin:round;stroke-miterlimit:4;stroke-dasharray:none;stroke-opacity:1;paint-order:stroke fill markers" />
  <path
     id="path1104"
     d="M 48,34 A 14,14 0 0 0 34,48 14,14 0 0 0 48,62 14,14 0 0 0 62,48 14,14 0 0 0 48,34 Z"
     style="opacity:1;fill:#333333;fill-opacity:1;fill-rule:nonzero;stroke:none;stroke-width:1.72389317;stroke-linecap:round;stroke-linejoin:round;stroke-miterlimit:4;stroke-dasharray:none;stroke-opacity:1;paint-order:stroke fill markers" />
  <path
     style="font-style:normal;font-weight:normal;font-size:24.15885353px;line-height:1.25;font-family:sans-serif;letter-spacing:0px;word-spacing:0px;fill:#1a1a1a;fill-opacity:1;stroke:none;stroke-width:0.60397136"
     d="m 47,40 -1,3 h -3 v 3 h 2 l -1,3 h -3 v 3 h 2 l -1,3 v 1 l 3,-1 1,-3 h 2 l -1,3 v 1 l 3,-1 1,-3 h 3 v -3 h -2 l 1,-3 h 3 v -3 h -2 l 1,-2 v -1 h -3 l -1,3 h -2 l 1,-2 v -1 z m 1,6 h 2 l -1,3 h -2 z"
     id="text1307-2" />
  <path
     style="font-style:normal;font-weight:normal;font-size:24.15885353px;line-height:1.25;font-family:sans-serif;letter-spacing:0px;word-spacing:0px;fill:#ffffff;fill-opacity:1;stroke:none;stroke-width:0.60397136"
     d="m 47,41 -1,3 h -3 v 3 h 2 l -1,3 h -3 v 3 h 2 l -1,3 h 3 l 1,-3 h 2 l -1,3 h 3 l 1,-3 h 3 v -3 h -2 l 1,-3 h 3 v -3 h -2 l 1,-3 h -3 l -1,3 h -2 l 1,-3 z m 1,6 h 2 l -1,3 h -2 z"
     id="text1307" />
</svg>
