<?xml version="1.0" encoding="UTF-8" standalone="no"?>
<svg
   xmlns:dc="http://purl.org/dc/elements/1.1/"
   xmlns:cc="http://creativecommons.org/ns#"
   xmlns:rdf="http://www.w3.org/1999/02/22-rdf-syntax-ns#"
   xmlns:svg="http://www.w3.org/2000/svg"
   xmlns="http://www.w3.org/2000/svg"
   xmlns:xlink="http://www.w3.org/1999/xlink"
   width="64"
   height="64"
   id="svg11300"
   version="1.1">
  <defs
     id="defs3">
    <linearGradient
       id="linearGradient3264">
      <stop
         style="stop-color:#c9c9c9;stop-opacity:1;"
         offset="0"
         id="stop3266" />
      <stop
         id="stop3276"
         offset="0.25"
         style="stop-color:#f8f8f8;stop-opacity:1;" />
      <stop
         id="stop3272"
         offset="0.5"
         style="stop-color:#e2e2e2;stop-opacity:1;" />
      <stop
         style="stop-color:#b0b0b0;stop-opacity:1;"
         offset="0.75"
         id="stop3274" />
      <stop
         style="stop-color:#c9c9c9;stop-opacity:1;"
         offset="1"
         id="stop3268" />
    </linearGradient>
    <linearGradient
       id="linearGradient3256">
      <stop
         style="stop-color:#000000;stop-opacity:1;"
         offset="0"
         id="stop3258" />
      <stop
         style="stop-color:#000000;stop-opacity:0;"
         offset="1"
         id="stop3260" />
    </linearGradient>
    <linearGradient
       id="linearGradient2752">
      <stop
         style="stop-color:#9d9d9d;stop-opacity:1;"
         offset="0"
         id="stop2754" />
      <stop
         style="stop-color:#b9b9b9;stop-opacity:1.0000000;"
         offset="1.0000000"
         id="stop2756" />
    </linearGradient>
    <linearGradient
       id="linearGradient2711">
      <stop
         style="stop-color:#909090;stop-opacity:1.0000000;"
         offset="0.0000000"
         id="stop2713" />
      <stop
         style="stop-color:#bebebe;stop-opacity:0.0000000;"
         offset="1.0000000"
         id="stop2715" />
    </linearGradient>
    <linearGradient
       id="linearGradient2701">
      <stop
         style="stop-color:#585956;stop-opacity:1.0000000;"
         offset="0.0000000"
         id="stop2703" />
      <stop
         style="stop-color:#bbbeb8;stop-opacity:1.0000000;"
         offset="1.0000000"
         id="stop2705" />
    </linearGradient>
    <linearGradient
       id="linearGradient2691">
      <stop
         style="stop-color:#868686;stop-opacity:1.0000000;"
         offset="0.0000000"
         id="stop2693" />
      <stop
         style="stop-color:#e9e9e9;stop-opacity:1.0000000;"
         offset="1.0000000"
         id="stop2695" />
    </linearGradient>
    <linearGradient
       id="linearGradient2675">
      <stop
         style="stop-color:#5b5b97;stop-opacity:1.0000000;"
         offset="0.0000000"
         id="stop2677" />
      <stop
         style="stop-color:#1b1b43;stop-opacity:1.0000000;"
         offset="1.0000000"
         id="stop2679" />
    </linearGradient>
    <linearGradient
       id="linearGradient2667">
      <stop
         style="stop-color:#ffffff;stop-opacity:1.0000000;"
         offset="0.0000000"
         id="stop2669" />
      <stop
         style="stop-color:#fcfcff;stop-opacity:0.0000000;"
         offset="1.0000000"
         id="stop2671" />
    </linearGradient>
    <linearGradient
       id="linearGradient2635">
      <stop
         style="stop-color:#f9fff5;stop-opacity:1;"
         offset="0"
         id="stop2637" />
      <stop
         style="stop-color:#f9fff5;stop-opacity:0;"
         offset="1"
         id="stop2639" />
    </linearGradient>
    <linearGradient
       id="linearGradient2623">
      <stop
         style="stop-color:#dfdfde;stop-opacity:1.0000000;"
         offset="0.0000000"
         id="stop2625" />
      <stop
         style="stop-color:#9d9f9a;stop-opacity:1.0000000;"
         offset="1.0000000"
         id="stop2627" />
    </linearGradient>
    <linearGradient
       id="linearGradient2379">
      <stop
         id="stop2381"
         offset="0.0000000"
         style="stop-color:#1a4876;stop-opacity:1.0000000;" />
      <stop
         id="stop2383"
         offset="1.0000000"
         style="stop-color:#3f54a3;stop-opacity:0.0000000;" />
    </linearGradient>
    <linearGradient
       id="linearGradient2328">
      <stop
         id="stop2330"
         offset="0"
         style="stop-color:#ffffff;stop-opacity:1;" />
      <stop
         id="stop2332"
         offset="1"
         style="stop-color:#ffffff;stop-opacity:0;" />
    </linearGradient>
    <linearGradient
       id="linearGradient2307">
      <stop
         id="stop2309"
         offset="0"
         style="stop-color:#5a7aa4;stop-opacity:1;" />
      <stop
         id="stop2311"
         offset="1"
         style="stop-color:#5a7aa4;stop-opacity:0;" />
    </linearGradient>
    <linearGradient
       id="linearGradient2253">
      <stop
         id="stop2255"
         offset="0.0000000"
         style="stop-color:#8f8f8f;stop-opacity:1.0000000;" />
      <stop
         id="stop2257"
         offset="1.0000000"
         style="stop-color:#494949;stop-opacity:1.0000000;" />
    </linearGradient>
    <linearGradient
       id="linearGradient2245">
      <stop
         id="stop2247"
         offset="0.0000000"
         style="stop-color:#dde1d9;stop-opacity:1.0000000;" />
      <stop
         id="stop2249"
         offset="1.0000000"
         style="stop-color:#cacdc6;stop-opacity:1.0000000;" />
    </linearGradient>
    <linearGradient
       gradientUnits="userSpaceOnUse"
       y2="53.734985"
       x2="24.418941"
       y1="9.323514"
       x1="16.851954"
       gradientTransform="matrix(1.208393,0,0,0.98441,-0.789284,-0.50338)"
       id="linearGradient2313"
       xlink:href="#linearGradient2307" />
    <linearGradient
       gradientUnits="userSpaceOnUse"
       y2="39.03191"
       x2="27.289009"
       y1="10.842293"
       x1="16.119127"
       gradientTransform="matrix(1.289166,0,0,0.922731,-0.789284,-0.50338)"
       id="linearGradient2334"
       xlink:href="#linearGradient2328" />
    <linearGradient
       y2="-1.3221773"
       x2="19.994572"
       y1="30.078255"
       x1="21.356108"
       gradientTransform="matrix(1.02787,0,0,0.822296,1.523986,1.001198)"
       gradientUnits="userSpaceOnUse"
       id="linearGradient2445"
       xlink:href="#linearGradient2379" />
    <linearGradient
       xlink:href="#linearGradient2623"
       id="linearGradient2653"
       gradientUnits="userSpaceOnUse"
       gradientTransform="scale(1.983556,0.504145)"
       x1="10.728384"
       y1="84.029198"
       x2="10.728384"
       y2="92.57093" />
    <linearGradient
       xlink:href="#linearGradient2635"
       id="linearGradient2655"
       gradientUnits="userSpaceOnUse"
       gradientTransform="scale(2.143634,0.466498)"
       x1="13.62871"
       y1="101.2846"
       x2="8.6485014"
       y2="74.098007" />
    <radialGradient
       r="19.622213"
       fy="39.161163"
       fx="25.455845"
       cy="39.161163"
       cx="25.455845"
       gradientTransform="matrix(1,0,0,0.315315,0,26.81305)"
       gradientUnits="userSpaceOnUse"
       id="radialGradient13503"
       xlink:href="#linearGradient3256" />
    <linearGradient
       y2="39.684914"
       x2="34.534348"
       y1="12.284524"
       x1="14.462892"
       gradientTransform="matrix(1.241935,0,0,1.241935,-5.027508,-7.208988)"
       gradientUnits="userSpaceOnUse"
       id="linearGradient13505"
       xlink:href="#linearGradient3264" />
  </defs>
  <metadata
     id="metadata4">
    <rdf:RDF>
      <cc:Work
         rdf:about="">
        <dc:format>image/svg+xml</dc:format>
        <dc:type
           rdf:resource="http://purl.org/dc/dcmitype/StillImage" />
        <dc:creator>
          <cc:Agent>
            <dc:title>Jakub Steiner</dc:title>
          </cc:Agent>
        </dc:creator>
        <dc:source>http://jimmac.musichall.cz</dc:source>
        <cc:license
           rdf:resource="http://creativecommons.org/licenses/by-sa/2.0/" />
        <dc:title></dc:title>
        <dc:subject>
          <rdf:Bag>
            <rdf:li>apparmor</rdf:li>
            <rdf:li>novell</rdf:li>
          </rdf:Bag>
        </dc:subject>
      </cc:Work>
      <cc:License
         rdf:about="http://creativecommons.org/licenses/by-sa/2.0/">
        <cc:permits
           rdf:resource="http://web.resource.org/cc/Reproduction" />
        <cc:permits
           rdf:resource="http://web.resource.org/cc/Distribution" />
        <cc:requires
           rdf:resource="http://web.resource.org/cc/Notice" />
        <cc:requires
           rdf:resource="http://web.resource.org/cc/Attribution" />
        <cc:permits
           rdf:resource="http://web.resource.org/cc/DerivativeWorks" />
        <cc:requires
           rdf:resource="http://web.resource.org/cc/ShareAlike" />
      </cc:License>
    </rdf:RDF>
  </metadata>
  <g
     id="layer1"
     transform="translate(0,16)">
    <rect
       ry="2"
       y="13"
       x="32"
       height="7"
       width="20"
       id="rect881-3"
       style="opacity:1;fill:#1a1a1a;fill-opacity:1;stroke:none;stroke-width:3.77952766;stroke-linecap:round;stroke-linejoin:round;stroke-miterlimit:4;stroke-dasharray:none;stroke-opacity:1" />
    <rect
       ry="2"
       y="12"
       x="32"
       height="7"
       width="20"
       id="rect881"
       style="opacity:1;fill:#333333;fill-opacity:1;stroke:none;stroke-width:3.77952766;stroke-linecap:round;stroke-linejoin:round;stroke-miterlimit:4;stroke-dasharray:none;stroke-opacity:1" />
    <rect
       ry="2"
       y="-12"
       x="24"
       height="28"
       width="36"
       id="rect879"
       style="opacity:1;fill:#4d4d4d;fill-opacity:1;stroke:none;stroke-width:3.77952766;stroke-linecap:round;stroke-linejoin:round;stroke-miterlimit:4;stroke-dasharray:none;stroke-opacity:1" />
    <rect
       ry="2"
       y="-12"
       x="24"
       height="27"
       width="36"
       id="rect883"
       style="opacity:1;fill:#666666;fill-opacity:1;stroke:none;stroke-width:3.77952766;stroke-linecap:round;stroke-linejoin:round;stroke-miterlimit:4;stroke-dasharray:none;stroke-opacity:1" />
    <rect
       ry="1"
       y="-10"
       x="26"
       height="23"
       width="32"
       id="rect905"
       style="opacity:1;fill:#4d4d4d;fill-opacity:1;stroke:none;stroke-width:3.77952766;stroke-linecap:round;stroke-linejoin:round;stroke-miterlimit:4;stroke-dasharray:none;stroke-opacity:1" />
    <rect
       ry="1"
       y="-9"
       x="26"
       height="22"
       width="32"
       id="rect903"
       style="opacity:1;fill:#999999;fill-opacity:1;stroke:none;stroke-width:3.77952766;stroke-linecap:round;stroke-linejoin:round;stroke-miterlimit:4;stroke-dasharray:none;stroke-opacity:1" />
    <rect
       ry="2"
       y="37"
       x="12"
       height="7"
       width="20"
       id="rect881-3-6"
       style="opacity:1;fill:#1a1a1a;fill-opacity:1;stroke:none;stroke-width:3.77952766;stroke-linecap:round;stroke-linejoin:round;stroke-miterlimit:4;stroke-dasharray:none;stroke-opacity:1" />
    <rect
       ry="2"
       y="36"
       x="12"
       height="7"
       width="20"
       id="rect881-7"
       style="opacity:1;fill:#333333;fill-opacity:1;stroke:none;stroke-width:3.77952766;stroke-linecap:round;stroke-linejoin:round;stroke-miterlimit:4;stroke-dasharray:none;stroke-opacity:1" />
    <rect
       ry="2"
       y="12"
       x="4"
       height="28"
       width="36"
       id="rect879-5"
       style="opacity:1;fill:#4d4d4d;fill-opacity:1;stroke:none;stroke-width:3.77952766;stroke-linecap:round;stroke-linejoin:round;stroke-miterlimit:4;stroke-dasharray:none;stroke-opacity:1" />
    <rect
       ry="2"
       y="12"
       x="4"
       height="27"
       width="36"
       id="rect883-3"
       style="opacity:1;fill:#666666;fill-opacity:1;stroke:none;stroke-width:3.77952766;stroke-linecap:round;stroke-linejoin:round;stroke-miterlimit:4;stroke-dasharray:none;stroke-opacity:1" />
    <rect
       ry="1"
       y="14"
       x="6"
       height="23"
       width="32"
       id="rect905-5"
       style="opacity:1;fill:#4d4d4d;fill-opacity:1;stroke:none;stroke-width:3.77952766;stroke-linecap:round;stroke-linejoin:round;stroke-miterlimit:4;stroke-dasharray:none;stroke-opacity:1" />
    <rect
       ry="1"
       y="15"
       x="6"
       height="22"
       width="32"
       id="rect903-6"
       style="opacity:1;fill:#999999;fill-opacity:1;stroke:none;stroke-width:3.77952766;stroke-linecap:round;stroke-linejoin:round;stroke-miterlimit:4;stroke-dasharray:none;stroke-opacity:1" />
    <path
       id="path1654-9"
       d="M 48,19 A 14,14 0 0 0 34,33 14,14 0 0 0 48,47 14,14 0 0 0 62,33 14,14 0 0 0 48,19 Z"
       style="opacity:1;fill:#0088aa;fill-opacity:1;stroke:none;stroke-width:3.53542447;stroke-linecap:round;stroke-linejoin:round;stroke-miterlimit:4;stroke-dasharray:none;stroke-opacity:1" />
    <path
       id="path1654"
       d="M 48,18 A 14,14 0 0 0 34,32 14,14 0 0 0 48,46 14,14 0 0 0 62,32 14,14 0 0 0 48,18 Z"
       style="opacity:1;fill:#00ccff;fill-opacity:1;stroke:none;stroke-width:3.53542447;stroke-linecap:round;stroke-linejoin:round;stroke-miterlimit:4;stroke-dasharray:none;stroke-opacity:1" />
    <path
       id="path1739-9"
       d="M 48,21 A 10,10 0 0 0 38,31 10,10 0 0 0 48,41 10,10 0 0 0 58,31 10,10 0 0 0 48,21 Z m 0,2 a 8,8 0 0 1 8,8 8,8 0 0 1 -8,8 8,8 0 0 1 -8,-8 8,8 0 0 1 8,-8 z"
       style="opacity:1;fill:#00aad4;fill-opacity:1;stroke:none;stroke-width:3.77952766;stroke-linecap:round;stroke-linejoin:round;stroke-miterlimit:4;stroke-dasharray:none;stroke-opacity:1" />
    <path
       id="path1744-6"
       d="m 40.072266,30 a 8,8 0 0 0 -0.07227,1 8,8 0 0 0 0.07031,1 H 55.92773 A 8,8 0 0 0 56,31 8,8 0 0 0 55.92969,30 Z"
       style="fill:#00aad4;stroke:none;stroke-width:1px;stroke-linecap:butt;stroke-linejoin:miter;stroke-opacity:1" />
    <path
       id="path1739-8-3"
       d="M 43.345703,24.5 A 8,8 0 0 0 41.857422,25.886719 10,10 0 0 0 48,28 10,10 0 0 0 54.142578,25.876953 8,8 0 0 0 52.648438,24.5 8,8 0 0 1 48,26 8,8 0 0 1 43.345703,24.5 Z"
       style="opacity:1;fill:#00aad4;fill-opacity:1;stroke:none;stroke-width:3.77952766;stroke-linecap:round;stroke-linejoin:round;stroke-miterlimit:4;stroke-dasharray:none;stroke-opacity:1" />
    <path
       id="path1739-8-2-8"
       d="M 48,34 A 10,10 0 0 0 41.857422,36.123047 8,8 0 0 0 43.351562,37.5 8,8 0 0 1 48,36 8,8 0 0 1 52.654297,37.5 8,8 0 0 0 54.142578,36.113281 10,10 0 0 0 48,34 Z"
       style="opacity:1;fill:#00aad4;fill-opacity:1;stroke:none;stroke-width:3.77952766;stroke-linecap:round;stroke-linejoin:round;stroke-miterlimit:4;stroke-dasharray:none;stroke-opacity:1" />
    <path
       id="path1855-5"
       d="m 47,21 h 2 v 18 h -2 z"
       style="fill:#00aad4;stroke:none;stroke-width:1px;stroke-linecap:butt;stroke-linejoin:miter;stroke-opacity:1" />
    <path
       id="path1739-5-6"
       d="M 48,23 A 8,8 0 0 0 45.990234,23.261719 8,8 0 0 1 52,31 8,8 0 0 1 46.009766,38.738281 8,8 0 0 0 48,39 8,8 0 0 0 50.507812,38.587891 10,10 0 0 0 54,31 10,10 0 0 0 50.484375,23.402344 8,8 0 0 0 48,23 Z"
       style="opacity:1;fill:#00aad4;fill-opacity:1;stroke:none;stroke-width:3.77952766;stroke-linecap:round;stroke-linejoin:round;stroke-miterlimit:4;stroke-dasharray:none;stroke-opacity:1" />
    <path
       id="path1739-0-1"
       d="M 48,23 A 8,8 0 0 0 45.492188,23.412109 10,10 0 0 0 42,31 10,10 0 0 0 45.515625,38.597656 8,8 0 0 0 48,39 8,8 0 0 0 50.009766,38.738281 8,8 0 0 1 44,31 8,8 0 0 1 49.990234,23.261719 8,8 0 0 0 48,23 Z"
       style="opacity:1;fill:#00aad4;fill-opacity:1;stroke:none;stroke-width:3.77952766;stroke-linecap:round;stroke-linejoin:round;stroke-miterlimit:4;stroke-dasharray:none;stroke-opacity:1" />
    <path
       id="path1739-5"
       d="M 48,24 A 8,8 0 0 0 45.990234,24.261719 8,8 0 0 1 52,32 8,8 0 0 1 46.009766,39.738281 8,8 0 0 0 48,40 8,8 0 0 0 50.507812,39.587891 10,10 0 0 0 54,32 10,10 0 0 0 50.484375,24.402344 8,8 0 0 0 48,24 Z"
       style="opacity:1;fill:#ffffff;fill-opacity:1;stroke:none;stroke-width:3.77952766;stroke-linecap:round;stroke-linejoin:round;stroke-miterlimit:4;stroke-dasharray:none;stroke-opacity:1" />
    <path
       id="path1744"
       d="m 40.072266,31 a 8,8 0 0 0 -0.07227,1 8,8 0 0 0 0.07031,1 H 55.92773 A 8,8 0 0 0 56,32 8,8 0 0 0 55.92969,31 Z"
       style="fill:#ffffff;stroke:none;stroke-width:1px;stroke-linecap:butt;stroke-linejoin:miter;stroke-opacity:1" />
    <path
       id="path1739-8"
       d="M 43.345703,25.5 A 8,8 0 0 0 41.857422,26.886719 10,10 0 0 0 48,29 10,10 0 0 0 54.142578,26.876953 8,8 0 0 0 52.648438,25.5 8,8 0 0 1 48,27 8,8 0 0 1 43.345703,25.5 Z"
       style="opacity:1;fill:#ffffff;fill-opacity:1;stroke:none;stroke-width:3.77952766;stroke-linecap:round;stroke-linejoin:round;stroke-miterlimit:4;stroke-dasharray:none;stroke-opacity:1" />
    <path
       id="path1739-8-2"
       d="M 48,35 A 10,10 0 0 0 41.857422,37.123047 8,8 0 0 0 43.351562,38.5 8,8 0 0 1 48,37 8,8 0 0 1 52.654297,38.5 8,8 0 0 0 54.142578,37.113281 10,10 0 0 0 48,35 Z"
       style="opacity:1;fill:#ffffff;fill-opacity:1;stroke:none;stroke-width:3.77952766;stroke-linecap:round;stroke-linejoin:round;stroke-miterlimit:4;stroke-dasharray:none;stroke-opacity:1" />
    <path
       id="path1855"
       d="m 47,22 h 2 v 18 h -2 z"
       style="fill:#ffffff;stroke:none;stroke-width:1px;stroke-linecap:butt;stroke-linejoin:miter;stroke-opacity:1" />
    <path
       id="path1739-0"
       d="M 48,24 A 8,8 0 0 0 45.492188,24.412109 10,10 0 0 0 42,32 10,10 0 0 0 45.515625,39.597656 8,8 0 0 0 48,40 8,8 0 0 0 50.009766,39.738281 8,8 0 0 1 44,32 8,8 0 0 1 49.990234,24.261719 8,8 0 0 0 48,24 Z"
       style="opacity:1;fill:#ffffff;fill-opacity:1;stroke:none;stroke-width:3.77952766;stroke-linecap:round;stroke-linejoin:round;stroke-miterlimit:4;stroke-dasharray:none;stroke-opacity:1" />
    <path
       id="path1739"
       d="M 48,22 A 10,10 0 0 0 38,32 10,10 0 0 0 48,42 10,10 0 0 0 58,32 10,10 0 0 0 48,22 Z m 0,2 a 8,8 0 0 1 8,8 8,8 0 0 1 -8,8 8,8 0 0 1 -8,-8 8,8 0 0 1 8,-8 z"
       style="opacity:1;fill:#ffffff;fill-opacity:1;stroke:none;stroke-width:3.77952766;stroke-linecap:round;stroke-linejoin:round;stroke-miterlimit:4;stroke-dasharray:none;stroke-opacity:1" />
  </g>
</svg>
