<?xml version="1.0" encoding="UTF-8" standalone="no"?>
<svg
   xmlns:dc="http://purl.org/dc/elements/1.1/"
   xmlns:cc="http://creativecommons.org/ns#"
   xmlns:rdf="http://www.w3.org/1999/02/22-rdf-syntax-ns#"
   xmlns:svg="http://www.w3.org/2000/svg"
   xmlns="http://www.w3.org/2000/svg"
   id="svg8"
   version="1.1"
   viewBox="0 0 64 64.000003"
   height="64"
   width="64">
  <defs
     id="defs2" />
  <metadata
     id="metadata5">
    <rdf:RDF>
      <cc:Work
         rdf:about="">
        <dc:format>image/svg+xml</dc:format>
        <dc:type
           rdf:resource="http://purl.org/dc/dcmitype/StillImage" />
        <dc:title></dc:title>
      </cc:Work>
    </rdf:RDF>
  </metadata>
  <rect
     style="opacity:1;fill:#442178;fill-opacity:1;stroke:none;stroke-width:3.90347934;stroke-linecap:round;stroke-linejoin:round;stroke-miterlimit:4;stroke-dasharray:none;stroke-opacity:1"
     id="rect915-5"
     width="16"
     height="6"
     x="24"
     y="53"
     ry="1" />
  <rect
     style="opacity:1;fill:#442178;fill-opacity:1;stroke:none;stroke-width:3.77952766;stroke-linecap:round;stroke-linejoin:round;stroke-miterlimit:4;stroke-dasharray:none;stroke-opacity:1"
     id="rect917-3"
     width="48"
     height="2"
     x="8"
     y="55"
     ry="0" />
  <rect
     style="opacity:1;fill:#7137c8;fill-opacity:1;stroke:none;stroke-width:3.90347934;stroke-linecap:round;stroke-linejoin:round;stroke-miterlimit:4;stroke-dasharray:none;stroke-opacity:1"
     id="rect915"
     width="16"
     height="6"
     x="24"
     y="52"
     ry="1" />
  <rect
     style="opacity:1;fill:#7137c8;fill-opacity:1;stroke:none;stroke-width:3.77952766;stroke-linecap:round;stroke-linejoin:round;stroke-miterlimit:4;stroke-dasharray:none;stroke-opacity:1"
     id="rect917"
     width="48"
     height="2"
     x="8"
     y="54"
     ry="0" />
  <g
     transform="translate(2e-6,-1064.5198)"
     id="layer1-3">
    <rect
       ry="4.0000467"
       y="1082.5197"
       x="12"
       height="33.000145"
       width="39.999996"
       id="rect1937-9-6"
       style="opacity:1;fill:#666666;fill-opacity:1;stroke:none;stroke-width:3.64204574;stroke-linecap:round;stroke-linejoin:round;stroke-miterlimit:4;stroke-dasharray:none;stroke-opacity:1" />
    <rect
       ry="4.0000467"
       y="1068.5197"
       x="11.999998"
       height="42.000145"
       width="40"
       id="rect1937-8-7"
       style="opacity:1;fill:#999999;fill-opacity:1;stroke:none;stroke-width:2.85705447;stroke-linecap:round;stroke-linejoin:round;stroke-miterlimit:4;stroke-dasharray:none;stroke-opacity:1" />
    <path
       style="fill:#808080;stroke:none;stroke-width:1px;stroke-linecap:butt;stroke-linejoin:miter;stroke-opacity:1"
       d="m 47.999998,1090.5197 -2,2 2,2 v 9.0001 l -4,4 h -24 l -4,-4 0,-9.0001 2,-2 -2,-2 v -16 l 4,-4 h 24 l 4,4 z"
       id="path854-5" />
    <path
       style="fill:#999999;fill-opacity:1;stroke:none;stroke-width:1px;stroke-linecap:butt;stroke-linejoin:miter;stroke-opacity:1"
       d="m 45.999998,1075.5197 -3,-3 h -22 l -3,3 4e-6,14 3,3 H 31.97605 l 0.02395,12.0001 1,1 h 11 l 1.999998,-2 4e-6,-8.0001 -3,-3 3,-3 z"
       id="path856-3" />
    <rect
       style="opacity:1;fill:#ececec;fill-opacity:1;stroke:none;stroke-width:3.77952766;stroke-linecap:round;stroke-linejoin:round;stroke-miterlimit:4;stroke-dasharray:none;stroke-opacity:1"
       id="rect850-5"
       width="22"
       height="24"
       x="20.999998"
       y="1076.5197"
       ry="0" />
    <path
       id="path1993-6"
       d="m 14.999998,1070.5197 a 1,1 0 0 0 -1,1 1,1 0 0 0 1,1 1,1 0 0 0 1,-1 1,1 0 0 0 -1,-1 z m 34,0 a 1,1 0 0 0 -1,1 1,1 0 0 0 1,1 1,1 0 0 0 1,-1 1,1 0 0 0 -1,-1 z"
       style="opacity:1;fill:#666666;fill-opacity:1;stroke:none;stroke-width:3.77952766;stroke-linecap:round;stroke-linejoin:round;stroke-miterlimit:4;stroke-dasharray:none;stroke-opacity:1" />
    <path
       id="path1993-8-2"
       d="m 14.999998,1106.5198 a 1,1 0 0 0 -1,1 1,1 0 0 0 1,1 1,1 0 0 0 1,-1 1,1 0 0 0 -1,-1 z m 34,0 a 1,1 0 0 0 -1,1 1,1 0 0 0 1,1 1,1 0 0 0 1,-1 1,1 0 0 0 -1,-1 z"
       style="opacity:1;fill:#666666;fill-opacity:1;stroke:none;stroke-width:3.77952766;stroke-linecap:round;stroke-linejoin:round;stroke-miterlimit:4;stroke-dasharray:none;stroke-opacity:1" />
    <rect
       y="1093.5197"
       x="21.999998"
       height="1"
       width="20"
       id="rect2097-9"
       style="opacity:1;fill:#cccccc;fill-opacity:1;stroke:none;stroke-width:3.60363817;stroke-linecap:round;stroke-linejoin:round;stroke-miterlimit:4;stroke-dasharray:none;stroke-opacity:1" />
    <rect
       y="1095.5197"
       x="21.999998"
       height="1"
       width="20"
       id="rect2099-1"
       style="opacity:1;fill:#cccccc;fill-opacity:1;stroke:none;stroke-width:3.60363817;stroke-linecap:round;stroke-linejoin:round;stroke-miterlimit:4;stroke-dasharray:none;stroke-opacity:1" />
    <rect
       y="1091.5197"
       x="21.999998"
       height="1"
       width="20"
       id="rect2101-2"
       style="opacity:1;fill:#cccccc;fill-opacity:1;stroke:none;stroke-width:3.60363817;stroke-linecap:round;stroke-linejoin:round;stroke-miterlimit:4;stroke-dasharray:none;stroke-opacity:1" />
    <rect
       y="1089.5197"
       x="21.999998"
       height="1"
       width="20"
       id="rect2101-4-70"
       style="opacity:1;fill:#cccccc;fill-opacity:1;stroke:none;stroke-width:3.60363817;stroke-linecap:round;stroke-linejoin:round;stroke-miterlimit:4;stroke-dasharray:none;stroke-opacity:1" />
    <rect
       y="1087.5197"
       x="21.999998"
       height="1"
       width="20"
       id="rect2101-4-7-9"
       style="opacity:1;fill:#cccccc;fill-opacity:1;stroke:none;stroke-width:3.60363817;stroke-linecap:round;stroke-linejoin:round;stroke-miterlimit:4;stroke-dasharray:none;stroke-opacity:1" />
    <rect
       y="1085.5197"
       x="21.999998"
       height="1"
       width="20"
       id="rect2101-4-6-3"
       style="opacity:1;fill:#cccccc;fill-opacity:1;stroke:none;stroke-width:3.60363817;stroke-linecap:round;stroke-linejoin:round;stroke-miterlimit:4;stroke-dasharray:none;stroke-opacity:1" />
    <rect
       y="1083.5197"
       x="21.999998"
       height="1"
       width="20"
       id="rect2101-4-3-6"
       style="opacity:1;fill:#cccccc;fill-opacity:1;stroke:none;stroke-width:3.60363817;stroke-linecap:round;stroke-linejoin:round;stroke-miterlimit:4;stroke-dasharray:none;stroke-opacity:1" />
    <rect
       y="1078.5197"
       x="24.999998"
       height="4.0000839"
       width="14"
       id="rect2101-4-1-0"
       style="opacity:1;fill:#7137c8;fill-opacity:1;stroke:none;stroke-width:6.03010321;stroke-linecap:round;stroke-linejoin:round;stroke-miterlimit:4;stroke-dasharray:none;stroke-opacity:1" />
  </g>
  <rect
     style="opacity:1;fill:#7137c8;fill-opacity:1;stroke:none;stroke-width:3.77952766;stroke-linecap:round;stroke-linejoin:round;stroke-miterlimit:4;stroke-dasharray:none;stroke-opacity:1"
     id="rect913"
     width="2"
     height="3"
     x="31"
     y="49" />
</svg>
