<?xml version="1.0" encoding="UTF-8" standalone="no"?>
<svg
   xmlns:dc="http://purl.org/dc/elements/1.1/"
   xmlns:cc="http://creativecommons.org/ns#"
   xmlns:rdf="http://www.w3.org/1999/02/22-rdf-syntax-ns#"
   xmlns:svg="http://www.w3.org/2000/svg"
   xmlns="http://www.w3.org/2000/svg"
   version="1.0"
   id="svg7854"
   height="64"
   width="64">
  <defs
     id="defs7856" />
  <metadata
     id="metadata7859">
    <rdf:RDF>
      <cc:Work
         rdf:about="">
        <dc:format>image/svg+xml</dc:format>
        <dc:type
           rdf:resource="http://purl.org/dc/dcmitype/StillImage" />
        <dc:creator>
          <cc:Agent>
            <dc:title>Jakub Steiner</dc:title>
          </cc:Agent>
        </dc:creator>
        <dc:source>http://jimmac.musichall.cz</dc:source>
        <cc:license
           rdf:resource="http://creativecommons.org/licenses/by-sa/2.5/" />
        <dc:title></dc:title>
      </cc:Work>
      <cc:License
         rdf:about="http://creativecommons.org/licenses/by-sa/2.5/">
        <cc:permits
           rdf:resource="http://web.resource.org/cc/Reproduction" />
        <cc:permits
           rdf:resource="http://web.resource.org/cc/Distribution" />
        <cc:requires
           rdf:resource="http://web.resource.org/cc/Notice" />
        <cc:requires
           rdf:resource="http://web.resource.org/cc/Attribution" />
        <cc:permits
           rdf:resource="http://web.resource.org/cc/DerivativeWorks" />
        <cc:requires
           rdf:resource="http://web.resource.org/cc/ShareAlike" />
      </cc:License>
    </rdf:RDF>
  </metadata>
  <g
     transform="translate(0,16)"
     id="layer1">
    <path
       id="path4633-3-3"
       d="M 44,-10 A 16,16.000112 0 0 0 28,5.9999996 16,16.000112 0 0 0 44,22 16,16.000112 0 0 0 60,5.9999996 16,16.000112 0 0 0 44,-10 Z"
       style="color:#000000;display:inline;overflow:visible;visibility:visible;opacity:1;fill:#445016;fill-opacity:1;fill-rule:evenodd;stroke:none;stroke-width:1.02400362;stroke-linecap:butt;stroke-linejoin:miter;stroke-miterlimit:4;stroke-dasharray:none;stroke-dashoffset:0;stroke-opacity:1;marker:none;marker-start:none;marker-mid:none;marker-end:none;enable-background:accumulate" />
    <path
       id="path4633-6"
       d="M 44,-12 A 16,16.000112 0 0 0 28,3.9999998 16,16.000112 0 0 0 44,20 16,16.000112 0 0 0 60,3.9999998 16,16.000112 0 0 0 44,-12 Z"
       style="color:#000000;display:inline;overflow:visible;visibility:visible;opacity:1;fill:#89a02c;fill-opacity:1;fill-rule:evenodd;stroke:none;stroke-width:1.02400362;stroke-linecap:butt;stroke-linejoin:miter;stroke-miterlimit:4;stroke-dasharray:none;stroke-dashoffset:0;stroke-opacity:1;marker:none;marker-start:none;marker-mid:none;marker-end:none;enable-background:accumulate" />
    <path
       d="m 53.912413,10.03021 -7.81699,-3.890793 5.431013,6.837229 -6.232078,-6.1159468 3.052381,8.1808658 -4.037127,-7.7424284 0.374959,8.7237034 -1.446994,-8.611028 -2.339164,8.412604 1.284781,-8.6367202 -4.824316,7.2780202 3.890793,-7.8169899 -6.837229,5.4310129 6.115946,-6.232078 -8.180866,3.0523805 7.742429,-4.0371271 -8.723703,0.3749597 8.611028,-1.446994 -8.412604,-2.3391648 8.63672,1.284781 -7.27802,-4.8243154 7.81699,3.8907926 -5.431013,-6.8372286 6.232078,6.1159463 -3.052381,-8.180866 4.037127,7.74242859 -0.374959,-8.72370339 1.446994,8.61102805 2.339164,-8.41260385 -1.284781,8.63672005 4.824316,-7.27802005 -3.890793,7.8169897 6.837229,-5.4310129 -6.115947,6.232078 8.180866,-3.05238042 -7.742428,4.03712702 8.723703,-0.3749596 -8.611028,1.4469939 8.412604,2.3391648 -8.63672,-1.284781 z"
       id="path5288-0"
       style="color:#000000;display:inline;overflow:visible;visibility:visible;opacity:1;fill:#816902;fill-opacity:1;fill-rule:evenodd;stroke:none;stroke-width:1.12878585;stroke-linecap:butt;stroke-linejoin:miter;stroke-miterlimit:4;stroke-dasharray:none;stroke-dashoffset:0;stroke-opacity:1;marker:none;marker-start:none;marker-mid:none;marker-end:none;enable-background:accumulate" />
    <ellipse
       ry="0.78189749"
       rx="1.699687"
       cy="26.799526"
       cx="44.216347"
       style="color:#000000;display:inline;overflow:visible;visibility:visible;opacity:1;fill:#2f0c08;fill-opacity:1;fill-rule:evenodd;stroke:none;stroke-width:1.4359436;stroke-linecap:butt;stroke-linejoin:miter;stroke-miterlimit:4;stroke-dasharray:none;stroke-dashoffset:0;stroke-opacity:1;marker:none;marker-start:none;marker-mid:none;marker-end:none;enable-background:accumulate"
       id="path5292-6"
       transform="matrix(0.84806197,-0.52989707,0.44535565,0.89535376,0,0)" />
    <ellipse
       ry="0.40625003"
       rx="0.93750012"
       cy="41.982944"
       cx="18.185459"
       style="color:#000000;display:inline;overflow:visible;visibility:visible;opacity:1;fill:#2f0c08;fill-opacity:1;fill-rule:evenodd;stroke:none;stroke-width:0.76870614;stroke-linecap:butt;stroke-linejoin:miter;stroke-miterlimit:4;stroke-dasharray:none;stroke-dashoffset:0;stroke-opacity:1;marker:none;marker-start:none;marker-mid:none;marker-end:none;enable-background:accumulate"
       id="path5296-2"
       transform="rotate(-70.061569)" />
    <ellipse
       ry="0.40625003"
       rx="0.9375"
       cy="-34.675007"
       cx="34.214279"
       style="color:#000000;display:inline;overflow:visible;visibility:visible;opacity:1;fill:#2f0c08;fill-opacity:1;fill-rule:evenodd;stroke:none;stroke-width:0.76870614;stroke-linecap:butt;stroke-linejoin:miter;stroke-miterlimit:4;stroke-dasharray:none;stroke-dashoffset:0;stroke-opacity:1;marker:none;marker-start:none;marker-mid:none;marker-end:none;enable-background:accumulate"
       id="path5300-6"
       transform="rotate(58.625467)" />
    <ellipse
       ry="0.28784892"
       rx="0.66426671"
       cy="-35.983795"
       cx="31.229923"
       style="color:#000000;display:inline;overflow:visible;visibility:visible;opacity:1;fill:#2f0c08;fill-opacity:1;fill-rule:evenodd;stroke:none;stroke-width:0.5446676;stroke-linecap:butt;stroke-linejoin:miter;stroke-miterlimit:4;stroke-dasharray:none;stroke-dashoffset:0;stroke-opacity:1;marker:none;marker-start:none;marker-mid:none;marker-end:none;enable-background:accumulate"
       id="path5304-1"
       transform="rotate(59.60093)" />
    <ellipse
       ry="0.40625003"
       rx="0.93750006"
       cy="34.328262"
       cx="20.661217"
       style="color:#000000;display:inline;overflow:visible;visibility:visible;opacity:1;fill:#2f0c08;fill-opacity:1;fill-rule:evenodd;stroke:none;stroke-width:0.76870614;stroke-linecap:butt;stroke-linejoin:miter;stroke-miterlimit:4;stroke-dasharray:none;stroke-dashoffset:0;stroke-opacity:1;marker:none;marker-start:none;marker-mid:none;marker-end:none;enable-background:accumulate"
       id="path5310-8"
       transform="rotate(-43.946332)" />
    <ellipse
       ry="0.40625003"
       rx="0.93750006"
       cy="22.909416"
       cx="31.1413"
       style="color:#000000;display:inline;overflow:visible;visibility:visible;opacity:1;fill:#2f0c08;fill-opacity:1;fill-rule:evenodd;stroke:none;stroke-width:0.76870614;stroke-linecap:butt;stroke-linejoin:miter;stroke-miterlimit:4;stroke-dasharray:none;stroke-dashoffset:0;stroke-opacity:1;marker:none;marker-start:none;marker-mid:none;marker-end:none;enable-background:accumulate"
       id="path5312-7"
       transform="rotate(-29.139285)" />
    <ellipse
       ry="0.40625"
       rx="0.93750006"
       cy="33.988686"
       cx="-20.15082"
       transform="rotate(-123.92318)"
       id="path5428-9"
       style="color:#000000;display:inline;overflow:visible;visibility:visible;opacity:1;fill:#2f0c08;fill-opacity:1;fill-rule:evenodd;stroke:none;stroke-width:0.76870614;stroke-linecap:butt;stroke-linejoin:miter;stroke-miterlimit:4;stroke-dasharray:none;stroke-dashoffset:0;stroke-opacity:1;marker:none;marker-start:none;marker-mid:none;marker-end:none;enable-background:accumulate" />
    <ellipse
       ry="0.87574661"
       rx="1.2177503"
       cy="-13.881895"
       cx="39.06609"
       style="color:#000000;display:inline;overflow:visible;visibility:visible;opacity:1;fill:#2f0c08;fill-opacity:1;fill-rule:evenodd;stroke:none;stroke-width:1.2863121;stroke-linecap:butt;stroke-linejoin:miter;stroke-miterlimit:4;stroke-dasharray:none;stroke-dashoffset:0;stroke-opacity:1;marker:none;marker-start:none;marker-mid:none;marker-end:none;enable-background:accumulate"
       id="path5510-2"
       transform="matrix(0.93021275,0.36702076,-0.12493755,0.99216461,0,0)" />
    <ellipse
       ry="0.40625"
       rx="0.9375"
       cy="15.089008"
       cx="-48.291866"
       style="color:#000000;display:inline;overflow:visible;visibility:visible;opacity:1;fill:#2f0c08;fill-opacity:1;fill-rule:evenodd;stroke:none;stroke-width:0.76870614;stroke-linecap:butt;stroke-linejoin:miter;stroke-miterlimit:4;stroke-dasharray:none;stroke-dashoffset:0;stroke-opacity:1;marker:none;marker-start:none;marker-mid:none;marker-end:none;enable-background:accumulate"
       id="path5516-0"
       transform="matrix(-0.9760469,0.2175602,0.2175602,0.9760469,0,0)" />
    <path
       id="path880-2"
       d="M 43,0.99999984 A 3,3 0 0 0 40,3.9999998 3,3 0 0 0 43,6.9999996 3,3 0 0 0 46,3.9999998 3,3 0 0 0 43,0.99999984 Z"
       style="opacity:1;fill:#f1e09f;fill-opacity:1;stroke:none;stroke-width:3.77952766;stroke-linecap:round;stroke-linejoin:round;stroke-miterlimit:4;stroke-dasharray:none;stroke-opacity:1" />
    <path
       id="path4633-3"
       d="M 20,12 A 16,16.000112 0 0 0 3.9999994,28 16,16.000112 0 0 0 20,44 16,16.000112 0 0 0 36,28 16,16.000112 0 0 0 20,12 Z"
       style="color:#000000;display:inline;overflow:visible;visibility:visible;opacity:1;fill:#677821;fill-opacity:1;fill-rule:evenodd;stroke:none;stroke-width:1.02400362;stroke-linecap:butt;stroke-linejoin:miter;stroke-miterlimit:4;stroke-dasharray:none;stroke-dashoffset:0;stroke-opacity:1;marker:none;marker-start:none;marker-mid:none;marker-end:none;enable-background:accumulate" />
    <path
       id="path4633"
       d="M 20,10 A 16,16.000112 0 0 0 3.9999994,26 16,16.000112 0 0 0 20,42 16,16.000112 0 0 0 36,26 16,16.000112 0 0 0 20,10 Z"
       style="color:#000000;display:inline;overflow:visible;visibility:visible;opacity:1;fill:#abc837;fill-opacity:1;fill-rule:evenodd;stroke:none;stroke-width:1.02400362;stroke-linecap:butt;stroke-linejoin:miter;stroke-miterlimit:4;stroke-dasharray:none;stroke-dashoffset:0;stroke-opacity:1;marker:none;marker-start:none;marker-mid:none;marker-end:none;enable-background:accumulate" />
    <path
       d="m 29.912413,32.03021 -7.81699,-3.890793 5.431013,6.837229 -6.232078,-6.115947 3.052381,8.180866 -4.037127,-7.742428 0.374959,8.723703 -1.446994,-8.611028 -2.339164,8.412604 1.284781,-8.63672 -4.824316,7.27802 3.890793,-7.81699 -6.837229,5.431013 6.115946,-6.232078 -8.1808656,3.05238 7.7424286,-4.037127 -8.7237034,0.37496 8.6110284,-1.446994 -8.4126042,-2.339165 8.6367202,1.284781 -7.2780202,-4.824315 7.8169902,3.890792 -5.431013,-6.837228 6.232078,6.115946 -3.052381,-8.180866 4.037127,7.742429 -0.374959,-8.723704 1.446994,8.611028 2.339164,-8.412603 -1.284781,8.63672 4.824316,-7.27802 -3.890793,7.816989 6.837229,-5.431013 -6.115947,6.232078 8.180866,-3.05238 -7.742428,4.037127 8.723703,-0.37496 -8.611028,1.446994 8.412604,2.339165 -8.63672,-1.284781 z"
       id="path5288"
       style="color:#000000;display:inline;overflow:visible;visibility:visible;opacity:1;fill:#816902;fill-opacity:1;fill-rule:evenodd;stroke:none;stroke-width:1.12878585;stroke-linecap:butt;stroke-linejoin:miter;stroke-miterlimit:4;stroke-dasharray:none;stroke-dashoffset:0;stroke-opacity:1;marker:none;marker-start:none;marker-mid:none;marker-end:none;enable-background:accumulate" />
    <ellipse
       ry="0.78189749"
       rx="1.699687"
       cy="32.767357"
       cx="12.782548"
       style="color:#000000;display:inline;overflow:visible;visibility:visible;opacity:1;fill:#2f0c08;fill-opacity:1;fill-rule:evenodd;stroke:none;stroke-width:1.4359436;stroke-linecap:butt;stroke-linejoin:miter;stroke-miterlimit:4;stroke-dasharray:none;stroke-dashoffset:0;stroke-opacity:1;marker:none;marker-start:none;marker-mid:none;marker-end:none;enable-background:accumulate"
       id="path5292"
       transform="matrix(0.84806197,-0.52989707,0.44535565,0.89535376,0,0)" />
    <ellipse
       ry="0.40625003"
       rx="0.93750012"
       cy="26.923737"
       cx="-10.680096"
       style="color:#000000;display:inline;overflow:visible;visibility:visible;opacity:1;fill:#2f0c08;fill-opacity:1;fill-rule:evenodd;stroke:none;stroke-width:0.76870614;stroke-linecap:butt;stroke-linejoin:miter;stroke-miterlimit:4;stroke-dasharray:none;stroke-dashoffset:0;stroke-opacity:1;marker:none;marker-start:none;marker-mid:none;marker-end:none;enable-background:accumulate"
       id="path5296"
       transform="rotate(-70.061569)" />
    <ellipse
       ry="0.40625003"
       rx="0.9375"
       cy="-2.7303662"
       cx="40.502373"
       style="color:#000000;display:inline;overflow:visible;visibility:visible;opacity:1;fill:#2f0c08;fill-opacity:1;fill-rule:evenodd;stroke:none;stroke-width:0.76870614;stroke-linecap:butt;stroke-linejoin:miter;stroke-miterlimit:4;stroke-dasharray:none;stroke-dashoffset:0;stroke-opacity:1;marker:none;marker-start:none;marker-mid:none;marker-end:none;enable-background:accumulate"
       id="path5300"
       transform="rotate(58.625467)" />
    <ellipse
       ry="0.28784892"
       rx="0.66426671"
       cy="-4.1508365"
       cx="38.060928"
       style="color:#000000;display:inline;overflow:visible;visibility:visible;opacity:1;fill:#2f0c08;fill-opacity:1;fill-rule:evenodd;stroke:none;stroke-width:0.5446676;stroke-linecap:butt;stroke-linejoin:miter;stroke-miterlimit:4;stroke-dasharray:none;stroke-dashoffset:0;stroke-opacity:1;marker:none;marker-start:none;marker-mid:none;marker-end:none;enable-background:accumulate"
       id="path5304"
       transform="rotate(59.60093)" />
    <ellipse
       ry="0.40625003"
       rx="0.93750006"
       cy="33.512417"
       cx="-11.886203"
       style="color:#000000;display:inline;overflow:visible;visibility:visible;opacity:1;fill:#2f0c08;fill-opacity:1;fill-rule:evenodd;stroke:none;stroke-width:0.76870614;stroke-linecap:butt;stroke-linejoin:miter;stroke-miterlimit:4;stroke-dasharray:none;stroke-dashoffset:0;stroke-opacity:1;marker:none;marker-start:none;marker-mid:none;marker-end:none;enable-background:accumulate"
       id="path5310"
       transform="rotate(-43.946332)" />
    <ellipse
       ry="0.40625003"
       rx="0.93750006"
       cy="30.438635"
       cx="-0.53378201"
       style="color:#000000;display:inline;overflow:visible;visibility:visible;opacity:1;fill:#2f0c08;fill-opacity:1;fill-rule:evenodd;stroke:none;stroke-width:0.76870614;stroke-linecap:butt;stroke-linejoin:miter;stroke-miterlimit:4;stroke-dasharray:none;stroke-dashoffset:0;stroke-opacity:1;marker:none;marker-start:none;marker-mid:none;marker-end:none;enable-background:accumulate"
       id="path5312"
       transform="rotate(-29.139285)" />
    <ellipse
       ry="0.40625"
       rx="0.93750006"
       cy="1.7960304"
       cx="-25.012184"
       transform="rotate(-123.92318)"
       id="path5428"
       style="color:#000000;display:inline;overflow:visible;visibility:visible;opacity:1;fill:#2f0c08;fill-opacity:1;fill-rule:evenodd;stroke:none;stroke-width:0.76870614;stroke-linecap:butt;stroke-linejoin:miter;stroke-miterlimit:4;stroke-dasharray:none;stroke-dashoffset:0;stroke-opacity:1;marker:none;marker-start:none;marker-mid:none;marker-end:none;enable-background:accumulate" />
    <ellipse
       ry="0.87574661"
       rx="1.2177503"
       cy="16.334681"
       cx="17.32395"
       style="color:#000000;display:inline;overflow:visible;visibility:visible;opacity:1;fill:#2f0c08;fill-opacity:1;fill-rule:evenodd;stroke:none;stroke-width:1.2863121;stroke-linecap:butt;stroke-linejoin:miter;stroke-miterlimit:4;stroke-dasharray:none;stroke-dashoffset:0;stroke-opacity:1;marker:none;marker-start:none;marker-mid:none;marker-end:none;enable-background:accumulate"
       id="path5510"
       transform="matrix(0.93021275,0.36702076,-0.12493755,0.99216461,0,0)" />
    <ellipse
       ry="0.40625"
       rx="0.9375"
       cy="31.340597"
       cx="-20.080418"
       style="color:#000000;display:inline;overflow:visible;visibility:visible;opacity:1;fill:#2f0c08;fill-opacity:1;fill-rule:evenodd;stroke:none;stroke-width:0.76870614;stroke-linecap:butt;stroke-linejoin:miter;stroke-miterlimit:4;stroke-dasharray:none;stroke-dashoffset:0;stroke-opacity:1;marker:none;marker-start:none;marker-mid:none;marker-end:none;enable-background:accumulate"
       id="path5516"
       transform="matrix(-0.9760469,0.2175602,0.2175602,0.9760469,0,0)" />
    <path
       id="path880"
       d="m 19,23 a 3,3 0 0 0 -3,3 3,3 0 0 0 3,3 3,3 0 0 0 3,-3 3,3 0 0 0 -3,-3 z"
       style="opacity:1;fill:#f1e09f;fill-opacity:1;stroke:none;stroke-width:3.77952766;stroke-linecap:round;stroke-linejoin:round;stroke-miterlimit:4;stroke-dasharray:none;stroke-opacity:1" />
  </g>
</svg>
