<?xml version="1.0" encoding="UTF-8"?>
<svg width="32" height="32" version="1.1" viewBox="0 0 32 32.000002" xmlns="http://www.w3.org/2000/svg" xmlns:cc="http://creativecommons.org/ns#" xmlns:dc="http://purl.org/dc/elements/1.1/" xmlns:rdf="http://www.w3.org/1999/02/22-rdf-syntax-ns#">
<defs>
<linearGradient id="d" x1="36" x2="60" y1="60" y2="60" gradientTransform="scale(.5)" gradientUnits="userSpaceOnUse">
<stop stop-color="#26a269" offset="0"/>
<stop stop-color="#33d17a" offset=".083333"/>
<stop stop-color="#26a269" offset=".16667"/>
<stop stop-color="#26a269" offset="1"/>
</linearGradient>
<linearGradient id="e" x1="4" x2="28" y1="50" y2="50" gradientTransform="scale(.5)" gradientUnits="userSpaceOnUse">
<stop stop-color="#e5a50a" offset="0"/>
<stop stop-color="#f6d32d" offset=".083333"/>
<stop stop-color="#e5a50a" offset=".16667"/>
<stop stop-color="#e5a50a" offset="1"/>
</linearGradient>
<linearGradient id="f" x1="20" x2="44" y1="18" y2="18" gradientTransform="scale(.5)" gradientUnits="userSpaceOnUse">
<stop stop-color="#a51d2d" offset="0"/>
<stop stop-color="#ed333b" offset=".083333"/>
<stop stop-color="#a51d2d" offset=".16667"/>
<stop stop-color="#a51d2d" offset="1"/>
</linearGradient>
</defs>
<metadata>
<rdf:RDF>
<cc:Work rdf:about="">
<dc:format>image/svg+xml</dc:format>
<dc:type rdf:resource="http://purl.org/dc/dcmitype/StillImage"/>
<dc:title/>
</cc:Work>
</rdf:RDF>
</metadata>
<rect x="10" y="4" width="12" height="10" ry="1" fill="url(#f)"/>
<path d="m10 19 3-5v-1l-5 6z" fill="#9a9996"/>
<rect x="2" y="20" width="12" height="9" ry="1" fill="url(#e)"/>
<rect x="18" y="20" width="12" height="9" ry="1" fill="url(#d)"/>
<rect x="10" y="3" width="12" height="9" ry="1" fill="#ed333b"/>
<path d="m10 18 3-5h-2l-3 5z" fill="#c0bfbc"/>
<rect x="2" y="18" width="12" height="9" ry="1" fill="#f6d32d"/>
<path d="m22 19-3-5v-1l5 6z" fill="#9a9996"/>
<path d="m22 18-3-5h2l3 5z" fill="#c0bfbc"/>
<rect x="18" y="18" width="12" height="9" ry="1" fill="#33d17a"/>
<rect x="19" y="20" width="10" height="1" ry="0" fill="#26a269"/>
<rect x="19" y="22" width="10" height="1" ry="0" fill="#26a269"/>
<rect x="19" y="24" width="10" height="1" ry="0" fill="#26a269"/>
<rect x="3" y="20" width="10" height="1" ry="0" fill="#e5a50a"/>
<rect x="3" y="22" width="10" height="1" ry="0" fill="#e5a50a"/>
<rect x="3" y="24" width="10" height="1" ry="0" fill="#e5a50a"/>
<rect x="11" y="5" width="10" height="1" ry="0" fill="#a51d2d"/>
<rect x="11" y="7" width="10" height="1" ry="0" fill="#a51d2d"/>
<rect x="11" y="9" width="10" height="1" ry="0" fill="#a51d2d"/>
</svg>
