<?xml version="1.0" encoding="UTF-8"?>
<svg width="32" height="32" version="1.1" viewBox="0 0 32 32.000002" xmlns="http://www.w3.org/2000/svg" xmlns:cc="http://creativecommons.org/ns#" xmlns:dc="http://purl.org/dc/elements/1.1/" xmlns:rdf="http://www.w3.org/1999/02/22-rdf-syntax-ns#" xmlns:xlink="http://www.w3.org/1999/xlink">
<defs>
<linearGradient id="l">
<stop stop-color="#f6f5f4" offset="0"/>
<stop stop-color="#deddda" offset="1"/>
</linearGradient>
<linearGradient id="k">
<stop stop-color="#9a9996" offset="0"/>
<stop stop-color="#deddda" offset=".037101"/>
<stop stop-color="#9a9996" offset=".076507"/>
<stop stop-color="#9a9996" offset=".92289"/>
<stop stop-color="#deddda" offset=".96229"/>
<stop stop-color="#9a9996" offset="1"/>
</linearGradient>
<linearGradient id="j">
<stop stop-color="#acaba8" offset="0"/>
<stop stop-color="#cac9c6" offset="1"/>
</linearGradient>
<linearGradient id="m" x1="10" x2="10" y1="3" y2="37" gradientTransform="matrix(.5 0 0 .5 1 .5)" gradientUnits="userSpaceOnUse" xlink:href="#j"/>
<linearGradient id="o" x1="3" x2="29" y1="17" y2="17" gradientTransform="translate(1,-5)" gradientUnits="userSpaceOnUse" xlink:href="#k"/>
<linearGradient id="q" x1="13.17" x2="13" y1="21" y2="11" gradientTransform="translate(1,-6)" gradientUnits="userSpaceOnUse" xlink:href="#l"/>
<linearGradient id="r" x1="13.17" x2="13" y1="21" y2="11" gradientTransform="translate(-1 2)" gradientUnits="userSpaceOnUse" xlink:href="#l"/>
<linearGradient id="n" x1="10" x2="10" y1="3" y2="37" gradientTransform="matrix(.5 0 0 .5 -1 8.5)" gradientUnits="userSpaceOnUse" xlink:href="#j"/>
<linearGradient id="p" x1="3" x2="29" y1="17" y2="17" gradientTransform="translate(-1 3)" gradientUnits="userSpaceOnUse" xlink:href="#k"/>
</defs>
<metadata>
<rdf:RDF>
<cc:Work rdf:about="">
<dc:format>image/svg+xml</dc:format>
<dc:type rdf:resource="http://purl.org/dc/dcmitype/StillImage"/>
<dc:title/>
</cc:Work>
</rdf:RDF>
</metadata>
<rect x="2" y="13" width="26" height="17" ry="2"/>
<rect x="2" y="11" width="26" height="17" ry="2" fill="url(#p)"/>
<rect x="2" y="10" width="26" height="17" ry="2" fill="url(#n)"/>
<rect x="26" y="25" width="1" height="1" ry=".5" fill="#77767b"/>
<rect x="26" y="11" width="1" height="1" ry=".5" fill="#77767b"/>
<rect x="12" y="11" width="1" height="1" ry=".5" fill="#77767b"/>
<rect x="4" y="11" width="1" height="1" ry=".5" fill="#77767b"/>
<rect x="4" y="25" width="1" height="1" ry=".5" fill="#77767b"/>
<rect x="12" y="25" width="1" height="1" ry=".5" fill="#77767b"/>
<path d="m7 12a1.0001 1.0001 0 0 0 -1 1c0 0.56413-0.43587 1-1 1a1.0001 1.0001 0 0 0 -1 1v8a1.0001 1.0001 0 0 0 1 1c0.56413 0 1 0.43587 1 1a1.0001 1.0001 0 0 0 1 1h3a1.0001 1.0001 0 0 0 1 -1c0-0.56346 0.43489-0.99897 0.99805-1 0.01065 3.46e-4 0.02158 0.0013 0.03125 2e-3a1.0001 1.0001 0 0 0 0.14062 -2e-3h1.6406c1.2858 1.2032 2.9617 1.9988 4.7246 2 1.8326 0 3.6534-0.75494 4.9492-2.0508s2.0508-3.1166 2.0508-4.9492-0.75494-3.6534-2.0508-4.9492c-1.2958-1.2958-3.1166-2.0508-4.9492-2.0508a1.0001 1.0001 0 0 0 -2e-3 0c-1.7604 0.0026-3.4325 0.79887-4.7168 2h-1.8164c-0.56413 0-1-0.43587-1-1a1.0001 1.0001 0 0 0 -1 -1z" fill="#acaba8"/>
<path d="m7 11a1.0001 1.0001 0 0 0 -1 1c0 0.56413-0.43587 1-1 1a1.0001 1.0001 0 0 0 -1 1v8a1.0001 1.0001 0 0 0 1 1c0.56413 0 1 0.43587 1 1a1.0001 1.0001 0 0 0 1 1h3a1.0001 1.0001 0 0 0 1 -1c0-0.56346 0.43489-0.99897 0.99805-1 0.01065 3.46e-4 0.02158 0.0013 0.03125 2e-3a1.0001 1.0001 0 0 0 0.14062 -2e-3h1.6406c1.2858 1.2032 2.9617 1.9988 4.7246 2 1.8326 0 3.6534-0.75494 4.9492-2.0508s2.0508-3.1166 2.0508-4.9492-0.75494-3.6534-2.0508-4.9492c-1.2958-1.2958-3.1166-2.0508-4.9492-2.0508a1.0001 1.0001 0 0 0 -2e-3 0c-1.7604 0.0026-3.4325 0.79887-4.7168 2h-1.8164c-0.56413 0-1-0.43587-1-1a1.0001 1.0001 0 0 0 -1 -1z" fill="url(#r)"/>
<rect x="17" y="15" width="4" height="4" ry="2" fill="#adaba7" fill-opacity=".9959"/>
<rect x="17" y="16" width="4" height="4" ry="2" fill="#cac9c6" fill-opacity=".9959"/>
<rect x="4" y="5" width="26" height="17" ry="2"/>
<rect x="4" y="3" width="26" height="17" ry="2" fill="url(#o)"/>
<rect x="4" y="2" width="26" height="17" ry="2" fill="url(#m)"/>
<rect x="28" y="17" width="1" height="1" ry=".5" fill="#77767b"/>
<rect x="28" y="3" width="1" height="1" ry=".5" fill="#77767b"/>
<rect x="14" y="3" width="1" height="1" ry=".5" fill="#77767b"/>
<rect x="6" y="3" width="1" height="1" ry=".5" fill="#77767b"/>
<rect x="6" y="17" width="1" height="1" ry=".5" fill="#77767b"/>
<rect x="14" y="17" width="1" height="1" ry=".5" fill="#77767b"/>
<path d="m9 4a1.0001 1.0001 0 0 0 -1 1c0 0.56413-0.43587 1-1 1a1.0001 1.0001 0 0 0 -1 1v8a1.0001 1.0001 0 0 0 1 1c0.56413 0 1 0.43587 1 1a1.0001 1.0001 0 0 0 1 1h3a1.0001 1.0001 0 0 0 1 -1c0-0.56346 0.43489-0.99897 0.99805-1 0.01065 3.46e-4 0.02158 0.0013 0.03125 2e-3a1.0001 1.0001 0 0 0 0.14062 -2e-3h1.6406c1.2858 1.2032 2.9617 1.9988 4.7246 2 1.8326 0 3.6534-0.75494 4.9492-2.0508s2.0508-3.1166 2.0508-4.9492-0.75494-3.6534-2.0508-4.9492c-1.2958-1.2958-3.1166-2.0508-4.9492-2.0508a1.0001 1.0001 0 0 0 -2e-3 0c-1.7604 0.00265-3.4325 0.79887-4.7168 2h-1.8164c-0.56413 0-1-0.43587-1-1a1.0001 1.0001 0 0 0 -1 -1z" fill="#acaba8"/>
<path d="m9 3a1.0001 1.0001 0 0 0 -1 1c0 0.56413-0.43587 1-1 1a1.0001 1.0001 0 0 0 -1 1v8a1.0001 1.0001 0 0 0 1 1c0.56413 0 1 0.43587 1 1a1.0001 1.0001 0 0 0 1 1h3a1.0001 1.0001 0 0 0 1 -1c0-0.56346 0.43489-0.99897 0.99805-1 0.01065 3.46e-4 0.02158 0.0013 0.03125 2e-3a1.0001 1.0001 0 0 0 0.14062 -2e-3h1.6406c1.2858 1.2032 2.9617 1.9988 4.7246 2 1.8326 0 3.6534-0.75494 4.9492-2.0508s2.0508-3.1166 2.0508-4.9492-0.75494-3.6534-2.0508-4.9492c-1.2958-1.2958-3.1166-2.0508-4.9492-2.0508a1.0001 1.0001 0 0 0 -2e-3 0c-1.7604 0.00265-3.4325 0.79887-4.7168 2h-1.8164c-0.56413 0-1-0.43587-1-1a1.0001 1.0001 0 0 0 -1 -1z" fill="url(#q)"/>
<rect x="19" y="7" width="4" height="4" ry="2" fill="#adaba7" fill-opacity=".9959"/>
<rect x="19" y="8" width="4" height="4" ry="2" fill="#cac9c6" fill-opacity=".9959"/>
</svg>
