<?xml version="1.0" encoding="UTF-8" standalone="no"?>
<svg
   xmlns:dc="http://purl.org/dc/elements/1.1/"
   xmlns:cc="http://creativecommons.org/ns#"
   xmlns:rdf="http://www.w3.org/1999/02/22-rdf-syntax-ns#"
   xmlns:svg="http://www.w3.org/2000/svg"
   xmlns="http://www.w3.org/2000/svg"
   id="svg8"
   version="1.1"
   viewBox="0 0 64 64.000003"
   height="64"
   width="64">
  <defs
     id="defs2" />
  <metadata
     id="metadata5">
    <rdf:RDF>
      <cc:Work
         rdf:about="">
        <dc:format>image/svg+xml</dc:format>
        <dc:type
           rdf:resource="http://purl.org/dc/dcmitype/StillImage" />
        <dc:title></dc:title>
      </cc:Work>
    </rdf:RDF>
  </metadata>
  <g
     transform="translate(0,-1058.5197)"
     id="layer1">
    <path
       id="path1609-5"
       d="m 20,1119.5197 -12,-48 v -1 h 4 l 12,47 v 1 z"
       style="fill:#808080;stroke:none;stroke-width:1px;stroke-linecap:butt;stroke-linejoin:miter;stroke-opacity:1" />
    <path
       id="path1643-6"
       d="m 26,1072.5197 16,-4 5,25 2,3 -16,4 z"
       style="fill:#cccccc;stroke:none;stroke-width:1px;stroke-linecap:butt;stroke-linejoin:miter;stroke-opacity:1" />
    <path
       id="path1666-65"
       d="m 32,1079.5197 -1,-4 -4,1 1,4 z"
       style="fill:#1a1a1a;stroke:none;stroke-width:1px;stroke-linecap:butt;stroke-linejoin:miter;stroke-opacity:1" />
    <path
       id="path1666-63"
       d="m 34,1087.5197 -1,-4 -4,1 1,4 z"
       style="fill:#1a1a1a;stroke:none;stroke-width:1px;stroke-linecap:butt;stroke-linejoin:miter;stroke-opacity:1" />
    <path
       id="path1666-94"
       d="m 36,1095.5197 -1,-4 -4,1 1,4 z"
       style="fill:#1a1a1a;stroke:none;stroke-width:1px;stroke-linecap:butt;stroke-linejoin:miter;stroke-opacity:1" />
    <path
       id="path1643"
       d="m 13,1073.5197 16,-4 7,28 -16,4 z"
       style="fill:#ffffff;stroke:none;stroke-width:1px;stroke-linecap:butt;stroke-linejoin:miter;stroke-opacity:1" />
    <path
       id="path1666-49"
       d="m 49,1096.5197 -2,-3 h -3 l 1,4 z"
       style="fill:#1a1a1a;stroke:none;stroke-width:1px;stroke-linecap:butt;stroke-linejoin:miter;stroke-opacity:1" />
    <path
       id="path1666-09"
       d="m 44,1093.5197 -1,-4 -4,1 1,4 z"
       style="fill:#1a1a1a;stroke:none;stroke-width:1px;stroke-linecap:butt;stroke-linejoin:miter;stroke-opacity:1" />
    <path
       id="path1666-15"
       d="m 42,1085.5197 -1,-4 -4,1 1,4 z"
       style="fill:#1a1a1a;stroke:none;stroke-width:1px;stroke-linecap:butt;stroke-linejoin:miter;stroke-opacity:1" />
    <path
       id="path1666-76"
       d="m 40,1077.5197 -1,-4 -4,1 1,4 z"
       style="fill:#1a1a1a;stroke:none;stroke-width:1px;stroke-linecap:butt;stroke-linejoin:miter;stroke-opacity:1" />
    <path
       id="path1609"
       d="m 20,1118.5197 -12,-48 4,-1 12,48 z"
       style="fill:#b3b3b3;stroke:none;stroke-width:1px;stroke-linecap:butt;stroke-linejoin:miter;stroke-opacity:1" />
    <path
       id="path1643-64"
       d="m 36,1066.5197 16,-4 7,28 -16,4 z"
       style="fill:#ffffff;stroke:none;stroke-width:1px;stroke-linecap:butt;stroke-linejoin:miter;stroke-opacity:1" />
    <path
       id="path1666"
       d="m 53,1066.5197 -1,-4 -4,1 1,4 z"
       style="fill:#333333;stroke:none;stroke-width:1px;stroke-linecap:butt;stroke-linejoin:miter;stroke-opacity:1" />
    <path
       id="path1666-9"
       d="m 50,1071.5197 -1,-4 -4,1 1,4 z"
       style="fill:#333333;stroke:none;stroke-width:1px;stroke-linecap:butt;stroke-linejoin:miter;stroke-opacity:1" />
    <path
       id="path1666-5"
       d="m 55,1074.5197 -1,-4 -4,1 1,4 z"
       style="fill:#333333;stroke:none;stroke-width:1px;stroke-linecap:butt;stroke-linejoin:miter;stroke-opacity:1" />
    <path
       id="path1666-0"
       d="m 52,1079.5197 -1,-4 -4,1 1,4 z"
       style="fill:#333333;stroke:none;stroke-width:1px;stroke-linecap:butt;stroke-linejoin:miter;stroke-opacity:1" />
    <path
       id="path1666-4"
       d="m 57,1082.5197 -1,-4 -4,1 1,4 z"
       style="fill:#333333;stroke:none;stroke-width:1px;stroke-linecap:butt;stroke-linejoin:miter;stroke-opacity:1" />
    <path
       id="path1666-8"
       d="m 54,1087.5197 -1,-4 -4,1 1,4 z"
       style="fill:#333333;stroke:none;stroke-width:1px;stroke-linecap:butt;stroke-linejoin:miter;stroke-opacity:1" />
    <path
       id="path1666-7"
       d="m 59,1090.5197 -1,-4 -4,1 1,4 z"
       style="fill:#333333;stroke:none;stroke-width:1px;stroke-linecap:butt;stroke-linejoin:miter;stroke-opacity:1" />
    <path
       id="path1666-1"
       d="m 45,1068.5197 -1,-4 -4,1 1,4 z"
       style="fill:#333333;stroke:none;stroke-width:1px;stroke-linecap:butt;stroke-linejoin:miter;stroke-opacity:1" />
    <path
       id="path1666-72"
       d="m 47,1076.5197 -1,-4 -4,1 1,4 z"
       style="fill:#333333;stroke:none;stroke-width:1px;stroke-linecap:butt;stroke-linejoin:miter;stroke-opacity:1" />
    <path
       id="path1666-722"
       d="m 49,1084.5197 -1,-4 -4,1 1,4 z"
       style="fill:#333333;stroke:none;stroke-width:1px;stroke-linecap:butt;stroke-linejoin:miter;stroke-opacity:1" />
    <path
       id="path1666-6"
       d="m 51,1092.5197 -1,-4 -4,1 1,4 z"
       style="fill:#333333;stroke:none;stroke-width:1px;stroke-linecap:butt;stroke-linejoin:miter;stroke-opacity:1" />
    <path
       id="path1666-10"
       d="m 42,1073.5197 -1,-4 -4,1 1,4 z"
       style="fill:#333333;stroke:none;stroke-width:1px;stroke-linecap:butt;stroke-linejoin:miter;stroke-opacity:1" />
    <path
       id="path1666-61"
       d="m 44,1081.5197 -1,-4 -4,1 1,4 z"
       style="fill:#333333;stroke:none;stroke-width:1px;stroke-linecap:butt;stroke-linejoin:miter;stroke-opacity:1" />
    <path
       id="path1666-59"
       d="m 46,1089.5197 -1,-4 -4,1 1,4 z"
       style="fill:#333333;stroke:none;stroke-width:1px;stroke-linecap:butt;stroke-linejoin:miter;stroke-opacity:1" />
    <path
       id="path1666-17"
       d="m 41,1098.5197 -1,-4 -4,1 1,4 z"
       style="fill:#1a1a1a;stroke:none;stroke-width:1px;stroke-linecap:butt;stroke-linejoin:miter;stroke-opacity:1" />
    <path
       id="path1666-71"
       d="m 39,1090.5197 -1,-4 -4,1 1,4 z"
       style="fill:#1a1a1a;stroke:none;stroke-width:1px;stroke-linecap:butt;stroke-linejoin:miter;stroke-opacity:1" />
    <path
       id="path1666-97"
       d="m 37,1082.5197 -1,-4 -4,1 1,4 z"
       style="fill:#1a1a1a;stroke:none;stroke-width:1px;stroke-linecap:butt;stroke-linejoin:miter;stroke-opacity:1" />
    <path
       id="path1666-73"
       d="m 35,1074.5197 -1,-4 -4,1 1,4 z"
       style="fill:#1a1a1a;stroke:none;stroke-width:1px;stroke-linecap:butt;stroke-linejoin:miter;stroke-opacity:1" />
    <path
       id="path1666-12"
       d="m 30,1073.5197 -1,-4 -4,1 1,4 z"
       style="fill:#333333;stroke:none;stroke-width:1px;stroke-linecap:butt;stroke-linejoin:miter;stroke-opacity:1" />
    <path
       id="path1666-9-9"
       d="m 27,1078.5197 -1,-4 -4,1 1,4 z"
       style="fill:#333333;stroke:none;stroke-width:1px;stroke-linecap:butt;stroke-linejoin:miter;stroke-opacity:1" />
    <path
       id="path1666-5-3"
       d="m 32,1081.5197 -1,-4 -4,1 1,4 z"
       style="fill:#333333;stroke:none;stroke-width:1px;stroke-linecap:butt;stroke-linejoin:miter;stroke-opacity:1" />
    <path
       id="path1666-0-9"
       d="m 29,1086.5197 -1,-4 -4,1 1,4 z"
       style="fill:#333333;stroke:none;stroke-width:1px;stroke-linecap:butt;stroke-linejoin:miter;stroke-opacity:1" />
    <path
       id="path1666-4-0"
       d="m 34,1089.5197 -1,-4 -4,1 1,4 z"
       style="fill:#333333;stroke:none;stroke-width:1px;stroke-linecap:butt;stroke-linejoin:miter;stroke-opacity:1" />
    <path
       id="path1666-8-8"
       d="m 31,1094.5197 -1,-4 -4,1 1,4 z"
       style="fill:#333333;stroke:none;stroke-width:1px;stroke-linecap:butt;stroke-linejoin:miter;stroke-opacity:1" />
    <path
       id="path1666-7-8"
       d="m 36,1097.5197 -1,-4 -4,1 1,4 z"
       style="fill:#333333;stroke:none;stroke-width:1px;stroke-linecap:butt;stroke-linejoin:miter;stroke-opacity:1" />
    <path
       id="path1666-1-5"
       d="m 22,1075.5197 -1,-4 -4,1 1,4 z"
       style="fill:#333333;stroke:none;stroke-width:1px;stroke-linecap:butt;stroke-linejoin:miter;stroke-opacity:1" />
    <path
       id="path1666-72-0"
       d="m 24,1083.5197 -1,-4 -4,1 1,4 z"
       style="fill:#333333;stroke:none;stroke-width:1px;stroke-linecap:butt;stroke-linejoin:miter;stroke-opacity:1" />
    <path
       id="path1666-722-9"
       d="m 26,1091.5197 -1,-4 -4,1 1,4 z"
       style="fill:#333333;stroke:none;stroke-width:1px;stroke-linecap:butt;stroke-linejoin:miter;stroke-opacity:1" />
    <path
       id="path1666-6-6"
       d="m 28,1099.5197 -1,-4 -4,1 1,4 z"
       style="fill:#333333;stroke:none;stroke-width:1px;stroke-linecap:butt;stroke-linejoin:miter;stroke-opacity:1" />
    <path
       id="path1666-10-3"
       d="m 19,1080.5197 -1,-4 -4,1 1,4 z"
       style="fill:#333333;stroke:none;stroke-width:1px;stroke-linecap:butt;stroke-linejoin:miter;stroke-opacity:1" />
    <path
       id="path1666-61-8"
       d="m 21,1088.5197 -1,-4 -4,1 1,4 z"
       style="fill:#333333;stroke:none;stroke-width:1px;stroke-linecap:butt;stroke-linejoin:miter;stroke-opacity:1" />
    <path
       id="path1666-59-5"
       d="m 23,1096.5197 -1,-4 -4,1 1,4 z"
       style="fill:#333333;stroke:none;stroke-width:1px;stroke-linecap:butt;stroke-linejoin:miter;stroke-opacity:1" />
    <path
       id="path1899"
       d="m 33,1100.5197 3,-3 -4,1 z"
       style="fill:#999999;stroke:none;stroke-width:1px;stroke-linecap:butt;stroke-linejoin:miter;stroke-opacity:1" />
    <path
       id="path1901"
       d="m 49,1096.5197 -6,-2 4,-1 z"
       style="fill:#999999;fill-opacity:1;stroke:none;stroke-width:1px;stroke-linecap:butt;stroke-linejoin:miter;stroke-opacity:1" />
  </g>
</svg>
