<?xml version="1.0" encoding="UTF-8"?>
<svg version="1" viewBox="0 0 32 32" xmlns="http://www.w3.org/2000/svg" xmlns:cc="http://creativecommons.org/ns#" xmlns:dc="http://purl.org/dc/elements/1.1/" xmlns:rdf="http://www.w3.org/1999/02/22-rdf-syntax-ns#">
<metadata>
<rdf:RDF>
<cc:Work rdf:about="">
<dc:format>image/svg+xml</dc:format>
<dc:type rdf:resource="http://purl.org/dc/dcmitype/StillImage"/>
<dc:title/>
</cc:Work>
</rdf:RDF>
</metadata>
<path d="m16 2a14 14 0 0 0 -14 14 14 14 0 0 0 14 14 14 14 0 0 0 14 -14 14 14 0 0 0 -14 -14zm0 1a13 13 0 0 1 13 13 13 13 0 0 1 -13 13 13 13 0 0 1 -13 -13 13 13 0 0 1 13 -13z" fill="#241f31"/>
<circle cx="16" cy="16" r="13" fill="#f6f5f4"/>
<rect x="5" y="13" width="6" height="6" ry="3" fill="#3d3846"/>
<rect x="13" y="13" width="6" height="6" ry="3" fill="#3d3846"/>
<rect x="21" y="13" width="6" height="6" ry="3" fill="#3d3846"/>
</svg>
