<?xml version="1.0" encoding="UTF-8" standalone="no"?>
<svg
   xmlns:dc="http://purl.org/dc/elements/1.1/"
   xmlns:cc="http://creativecommons.org/ns#"
   xmlns:rdf="http://www.w3.org/1999/02/22-rdf-syntax-ns#"
   xmlns:svg="http://www.w3.org/2000/svg"
   xmlns="http://www.w3.org/2000/svg"
   id="svg36"
   viewBox="0 0 32 32"
   version="1.1">
  <defs
     id="defs18">
    <linearGradient
       gradientUnits="userSpaceOnUse"
       y2="19"
       y1="19"
       x2="60"
       x1="4"
       id="c">
      <stop
         id="stop2"
         offset="0"
         stop-color="#77767b" />
      <stop
         id="stop4"
         offset=".10113"
         stop-color="#77767b" />
      <stop
         id="stop6"
         offset=".17405"
         stop-color="#c0bfbc" />
      <stop
         id="stop8"
         offset=".39765"
         stop-color="#77767b" />
      <stop
         id="stop10"
         offset="1"
         stop-color="#77767b" />
    </linearGradient>
    <linearGradient
       gradientUnits="userSpaceOnUse"
       gradientTransform="translate(.096241)"
       y2="45"
       y1="-11"
       x2="32"
       x1="32"
       id="d">
      <stop
         id="stop13"
         offset="0"
         stop-color="#c0bfbc" />
      <stop
         id="stop15"
         offset="1"
         stop-color="#deddda" />
    </linearGradient>
  </defs>
  <metadata
     id="metadata20">
    <rdf:RDF>
      <cc:Work
         rdf:about="">
        <dc:format>image/svg+xml</dc:format>
        <dc:type
           rdf:resource="http://purl.org/dc/dcmitype/StillImage" />
        <dc:creator>
          <cc:Agent>
            <dc:title>Jakub Steiner</dc:title>
          </cc:Agent>
        </dc:creator>
        <dc:source>http://jimmac.musichall.cz</dc:source>
        <cc:license
           rdf:resource="http://creativecommons.org/licenses/by-sa/2.0/" />
        <dc:title></dc:title>
        <dc:subject>
          <rdf:Bag>
            <rdf:li>apparmor</rdf:li>
            <rdf:li>novell</rdf:li>
          </rdf:Bag>
        </dc:subject>
      </cc:Work>
      <cc:License
         rdf:about="http://creativecommons.org/licenses/by-sa/2.0/">
        <cc:permits
           rdf:resource="http://web.resource.org/cc/Reproduction" />
        <cc:permits
           rdf:resource="http://web.resource.org/cc/Distribution" />
        <cc:requires
           rdf:resource="http://web.resource.org/cc/Notice" />
        <cc:requires
           rdf:resource="http://web.resource.org/cc/Attribution" />
        <cc:permits
           rdf:resource="http://web.resource.org/cc/DerivativeWorks" />
        <cc:requires
           rdf:resource="http://web.resource.org/cc/ShareAlike" />
      </cc:License>
    </rdf:RDF>
  </metadata>
  <g
     id="g34"
     transform="matrix(.5 0 0 .5 0 7.5)">
    <circle
       id="circle22"
       fill="url(#c)"
       r="28"
       cy="19"
       cx="32" />
    <circle
       style="fill:#deddda"
       id="circle24"
       fill="url(#d)"
       r="28"
       cy="17"
       cx="32.096" />
    <path
       id="path26"
       fill="#9a9996"
       d="m26-4.0742a20 20 0 0 0 -14 19.074 20 20 0 0 0 20 20 20 20 0 0 0 20 -20 20 20 0 0 0 -14 -19.055v4.2344a16 16 0 0 1 10 14.82 16 16 0 0 1 -16 16 16 16 0 0 1 -16 -16 16 16 0 0 1 10 -14.824z" />
    <path
       id="path28"
       fill="#e01b24"
       d="m13 6.4629a10 10 0 0 0 -7 9.5371 10 10 0 0 0 10 10 10 10 0 0 0 10 -10 10 10 0 0 0 -7 -9.5273v2.1172a8 8 0 0 1 5 7.4102 8 8 0 0 1 -8 8 8 8 0 0 1 -8 -8 8 8 0 0 1 5 -7.4121v-2.125z"
       transform="matrix(2,0,0,2,0,-15)" />
    <rect
       id="rect30"
       fill="#9a9996"
       height="16"
       width="4"
       y="-5"
       x="30" />
    <rect
       id="rect32"
       fill="#e01b24"
       height="16"
       width="4"
       y="-3"
       x="30" />
  </g>
</svg>
