<?xml version="1.0" encoding="UTF-8"?>
<svg width="32" height="32" version="1.1" viewBox="0 0 32 32.000002" xmlns="http://www.w3.org/2000/svg" xmlns:cc="http://creativecommons.org/ns#" xmlns:dc="http://purl.org/dc/elements/1.1/" xmlns:rdf="http://www.w3.org/1999/02/22-rdf-syntax-ns#">
<metadata>
<rdf:RDF>
<cc:Work rdf:about="">
<dc:format>image/svg+xml</dc:format>
<dc:type rdf:resource="http://purl.org/dc/dcmitype/StillImage"/>
<dc:title/>
</cc:Work>
</rdf:RDF>
</metadata>
<g transform="matrix(.5 0 0 .5 0 -529.26)">
<rect x="12" y="1064.5" width="40" height="54" ry="20" fill="#1a5fb4"/>
<rect x="12" y="1062.5" width="40" height="54" ry="20" fill="#3584e4"/>
<path d="m30 1068.5v16l-10-8v4l10 8-10 10v4l10-10v16l14-10v-2l-10-8 10-6v-2zm2 6 8 6-8 6zm0 16 8 6-8 6z" fill="#1a5fb4"/>
<path d="m30 1070.5v16l-10-8v4l10 8-10 10v4l10-10v16l14-12-10-8 10-8zm2 6 8 6-8 6zm0 16 8 6-8 6z" fill="#fff"/>
</g>
</svg>
