<?xml version="1.0" encoding="UTF-8"?>
<svg version="1" viewBox="0 0 32 32" xmlns="http://www.w3.org/2000/svg" xmlns:cc="http://creativecommons.org/ns#" xmlns:dc="http://purl.org/dc/elements/1.1/" xmlns:rdf="http://www.w3.org/1999/02/22-rdf-syntax-ns#" xmlns:xlink="http://www.w3.org/1999/xlink">
<metadata>
<rdf:RDF>
<cc:Work rdf:about="">
<dc:format>image/svg+xml</dc:format>
<dc:type rdf:resource="http://purl.org/dc/dcmitype/StillImage"/>
<dc:title/>
</cc:Work>
</rdf:RDF>
</metadata>
<defs>
<linearGradient id="a">
<stop stop-color="#f6f5f4" offset="0"/>
<stop stop-color="#e7e6e4" offset="1"/>
</linearGradient>
<linearGradient id="g" x1="16" x2="16" y1="24" y2="30" gradientUnits="userSpaceOnUse">
<stop stop-color="#e01b24" offset="0"/>
<stop stop-color="#c01c28" offset="1"/>
</linearGradient>
<linearGradient id="h" x1="16" x2="16" y1="2" y2="8" gradientUnits="userSpaceOnUse">
<stop stop-color="#e01b24" offset="0"/>
<stop stop-color="#c01c28" offset="1"/>
</linearGradient>
<linearGradient id="i" x1="23" x2="23" y1="3" y2="13" gradientUnits="userSpaceOnUse" xlink:href="#a"/>
<linearGradient id="j" x1="11" x2="11" y1="20" y2="28" gradientUnits="userSpaceOnUse" xlink:href="#a"/>
<linearGradient id="k" x1="16" x2="16" y1="13" y2="20" gradientUnits="userSpaceOnUse">
<stop stop-color="#e01b24" offset="0"/>
<stop stop-color="#c01c28" offset="1"/>
</linearGradient>
</defs>
<path d="m12.94 23.388-2.2937 5.5376a14 14 0 0 0 10.711 9e-3l-2.2961-5.5433a8 8 0 0 1 -6.1216 -0.0033z" fill="url(#g)"/>
<path d="m8.6152 19.051l-5.5371 2.2949a14 14 0 0 0 7.5684 7.5801l2.2949-5.543a8 8 0 0 1 -4.3262 -4.332zm14.777 0.013672a8 8 0 0 1 -4.332 4.3262l2.2949 5.5371a14 14 0 0 0 7.5801 -7.5664l-5.543-2.2969z" fill="url(#j)"/>
<path d="m3.082 10.637a14 14 0 0 0 -0.0097656 10.711l5.543-2.2969a8 8 0 0 1 0.0039062 -6.1211l-5.5371-2.293zm25.863 0.013672l-5.543 2.2949a8 8 0 0 1 -0.003906 6.1211l5.5371 2.2949a14 14 0 0 0 0.009765 -10.711z" fill="url(#k)"/>
<path d="m10.662 3.0684a14 14 0 0 0 -7.5801 7.5684l5.543 2.2949a8 8 0 0 1 4.3301 -4.3262l-2.293-5.5371zm10.709 0.0039062l-2.2969 5.543a8 8 0 0 1 4.3281 4.3301l5.5371-2.293a14 14 0 0 0 -7.5684 -7.5801z" fill="url(#i)"/>
<path d="m19.077 8.6089 2.2937-5.5376a14 14 0 0 0 -10.711 -9e-3l2.2961 5.5433a8 8 0 0 1 6.1216 0.0033z" fill="url(#h)"/>
</svg>
