<?xml version="1.0" encoding="UTF-8"?>
<svg width="32" height="32" version="1.1" viewBox="0 0 32 32.000002" xmlns="http://www.w3.org/2000/svg" xmlns:cc="http://creativecommons.org/ns#" xmlns:dc="http://purl.org/dc/elements/1.1/" xmlns:rdf="http://www.w3.org/1999/02/22-rdf-syntax-ns#">
<defs>
<linearGradient id="a" x1="2" x2="30" y1="17" y2="17" gradientUnits="userSpaceOnUse">
<stop stop-color="#c0bfbc" offset="0"/>
<stop stop-color="#c0bfbc" offset=".14286"/>
<stop stop-color="#deddda" offset=".25"/>
<stop stop-color="#c0bfbc" stop-opacity=".93852" offset=".5"/>
<stop stop-color="#c0bfbc" stop-opacity=".98361" offset="1"/>
</linearGradient>
</defs>
<metadata>
<rdf:RDF>
<cc:Work rdf:about="">
<dc:format>image/svg+xml</dc:format>
<dc:type rdf:resource="http://purl.org/dc/dcmitype/StillImage"/>
<dc:title/>
</cc:Work>
</rdf:RDF>
</metadata>
<path d="m16 3c-7.732 0-14 6.268-14 14s6.268 14 14 14 14-6.268 14-14-6.268-14-14-14zm0 9a5 5 0 0 1 5 5 5 5 0 0 1 -5 5 5 5 0 0 1 -5 -5 5 5 0 0 1 5 -5z" fill="url(#a)"/>
<path d="m16 2c-7.732 0-14 6.268-14 14s6.268 14 14 14 14-6.268 14-14-6.268-14-14-14zm0 9a5 5 0 0 1 5 5 5 5 0 0 1 -5 5 5 5 0 0 1 -5 -5 5 5 0 0 1 5 -5z" fill="#deddda"/>
<path d="m16 11a5 5 0 0 0 -5 5 5 5 0 0 0 5 5 5 5 0 0 0 5 -5 5 5 0 0 0 -5 -5zm0 3a2 2 0 0 1 2 2 2 2 0 0 1 -2 2 2 2 0 0 1 -2 -2 2 2 0 0 1 2 -2z" fill="#c0bfbc" fill-opacity=".94672"/>
<path d="m16 2v9a5 5 0 0 1 3.5332 1.4668l6.3672-6.3672c-2.5335-2.5335-6.0344-4.0996-9.9004-4.0996zm-3.5332 17.533l-6.3672 6.3672c2.5335 2.5335 6.0344 4.0996 9.9004 4.0996v-9a5 5 0 0 1 -3.5332 -1.4668z" fill="#f6f5f4" opacity=".5"/>
<path d="m16 10a6 6 0 0 0 -6 6 6 6 0 0 0 6 6 6 6 0 0 0 6 -6 6 6 0 0 0 -6 -6zm0 1a5 5 0 0 1 5 5 5 5 0 0 1 -5 5 5 5 0 0 1 -5 -5 5 5 0 0 1 5 -5z" fill="#9a9996" fill-opacity=".94672"/>
<circle cx="22" cy="22" r="0" fill="#3d3846" fill-opacity=".9918"/>
<rect x="16" y="16" width="16" height="16" ry="1" fill="#f6f5f4"/>
<rect x="23" y="18" width="2" height="12" ry="0" fill="#3d3846"/>
<rect x="18" y="23" width="12" height="2" fill="#3d3846"/>
</svg>
