<?xml version="1.0" encoding="UTF-8" standalone="no"?>
<svg
   xmlns:dc="http://purl.org/dc/elements/1.1/"
   xmlns:cc="http://creativecommons.org/ns#"
   xmlns:rdf="http://www.w3.org/1999/02/22-rdf-syntax-ns#"
   xmlns:svg="http://www.w3.org/2000/svg"
   xmlns="http://www.w3.org/2000/svg"
   width="64"
   height="64"
   version="1"
   id="svg14">
  <metadata
     id="metadata20">
    <rdf:RDF>
      <cc:Work
         rdf:about="">
        <dc:format>image/svg+xml</dc:format>
        <dc:type
           rdf:resource="http://purl.org/dc/dcmitype/StillImage" />
        <dc:title></dc:title>
      </cc:Work>
    </rdf:RDF>
  </metadata>
  <defs
     id="defs18" />
  <rect
     ry="2"
     y="8"
     x="8"
     height="52"
     width="48"
     id="rect1365"
     style="opacity:1;fill:#333333;fill-opacity:1;stroke:none;stroke-width:3.77952766;stroke-linecap:round;stroke-linejoin:round;stroke-miterlimit:4;stroke-dasharray:none;stroke-opacity:1" />
  <rect
     ry="2"
     y="4"
     x="8"
     height="52"
     width="48"
     id="rect1367"
     style="opacity:1;fill:#4d4d4d;fill-opacity:1;stroke:none;stroke-width:3.77952766;stroke-linecap:round;stroke-linejoin:round;stroke-miterlimit:4;stroke-dasharray:none;stroke-opacity:1" />
  <rect
     ry="2"
     y="8"
     x="12"
     height="40"
     width="40"
     id="rect1369-4"
     style="opacity:1;fill:#808080;fill-opacity:1;stroke:none;stroke-width:3.77952766;stroke-linecap:round;stroke-linejoin:round;stroke-miterlimit:4;stroke-dasharray:none;stroke-opacity:1" />
  <rect
     ry="2"
     y="10"
     x="12"
     height="38"
     width="40"
     id="rect1369"
     style="opacity:1;fill:#b3b3b3;fill-opacity:1;stroke:none;stroke-width:3.77952766;stroke-linecap:round;stroke-linejoin:round;stroke-miterlimit:4;stroke-dasharray:none;stroke-opacity:1" />
  <rect
     y="36"
     x="12"
     height="2"
     width="40"
     id="rect1371"
     style="opacity:1;fill:#c83737;fill-opacity:1;stroke:none;stroke-width:3.77952766;stroke-linecap:round;stroke-linejoin:round;stroke-miterlimit:4;stroke-dasharray:none;stroke-opacity:1" />
  <path
     id="path1398-7-5"
     d="m 13,51 a 1,1 0 0 0 -1,1 1,1 0 0 0 1,1 1,1 0 0 0 1,-1 1,1 0 0 0 -1,-1 z"
     style="opacity:1;fill:#333333;fill-opacity:1;stroke:none;stroke-width:3.77952766;stroke-linecap:round;stroke-linejoin:round;stroke-miterlimit:4;stroke-dasharray:none;stroke-opacity:1" />
  <circle
     r="1"
     cy="53"
     cx="13"
     id="path1396"
     style="opacity:1;fill:#71c837;fill-opacity:1;stroke:none;stroke-width:3.77952766;stroke-linecap:round;stroke-linejoin:round;stroke-miterlimit:4;stroke-dasharray:none;stroke-opacity:1" />
  <path
     id="path1398-7"
     d="m 16,51 a 1,1 0 0 0 -1,1 1,1 0 0 0 1,1 1,1 0 0 0 1,-1 1,1 0 0 0 -1,-1 z"
     style="opacity:1;fill:#333333;fill-opacity:1;stroke:none;stroke-width:3.77952766;stroke-linecap:round;stroke-linejoin:round;stroke-miterlimit:4;stroke-dasharray:none;stroke-opacity:1" />
  <path
     id="path1398"
     d="M 16 52 A 1 1 0 0 0 15 53 A 1 1 0 0 0 16 54 A 1 1 0 0 0 17 53 A 1 1 0 0 0 16 52 z "
     style="opacity:1;fill:#ffcc00;fill-opacity:1;stroke:none;stroke-width:3.77952766;stroke-linecap:round;stroke-linejoin:round;stroke-miterlimit:4;stroke-dasharray:none;stroke-opacity:1" />
  <rect
     ry="0"
     y="12"
     x="18"
     height="32"
     width="28"
     id="rect1465"
     style="opacity:1;fill:#ececec;fill-opacity:1;stroke:none;stroke-width:3.77952766;stroke-linecap:round;stroke-linejoin:round;stroke-miterlimit:4;stroke-dasharray:none;stroke-opacity:1" />
  <rect
     y="14"
     x="20"
     height="1"
     width="24"
     id="rect1467"
     style="opacity:1;fill:#cccccc;fill-opacity:1;stroke:none;stroke-width:3.77952766;stroke-linecap:round;stroke-linejoin:round;stroke-miterlimit:4;stroke-dasharray:none;stroke-opacity:1" />
  <rect
     y="16"
     x="20"
     height="1"
     width="24"
     id="rect1467-4"
     style="opacity:1;fill:#cccccc;fill-opacity:1;stroke:none;stroke-width:3.77952766;stroke-linecap:round;stroke-linejoin:round;stroke-miterlimit:4;stroke-dasharray:none;stroke-opacity:1" />
  <rect
     y="18"
     x="20"
     height="1"
     width="24"
     id="rect1467-8"
     style="opacity:1;fill:#cccccc;fill-opacity:1;stroke:none;stroke-width:3.77952766;stroke-linecap:round;stroke-linejoin:round;stroke-miterlimit:4;stroke-dasharray:none;stroke-opacity:1" />
  <rect
     y="20"
     x="20"
     height="1"
     width="24"
     id="rect1467-1"
     style="opacity:1;fill:#cccccc;fill-opacity:1;stroke:none;stroke-width:3.77952766;stroke-linecap:round;stroke-linejoin:round;stroke-miterlimit:4;stroke-dasharray:none;stroke-opacity:1" />
  <rect
     y="26"
     x="20"
     height="1"
     width="24"
     id="rect1467-2"
     style="opacity:1;fill:#cccccc;fill-opacity:1;stroke:none;stroke-width:3.77952766;stroke-linecap:round;stroke-linejoin:round;stroke-miterlimit:4;stroke-dasharray:none;stroke-opacity:1" />
  <rect
     y="28"
     x="20"
     height="1"
     width="24"
     id="rect1467-4-8"
     style="opacity:1;fill:#cccccc;fill-opacity:1;stroke:none;stroke-width:3.77952766;stroke-linecap:round;stroke-linejoin:round;stroke-miterlimit:4;stroke-dasharray:none;stroke-opacity:1" />
  <rect
     y="30"
     x="20"
     height="1"
     width="24"
     id="rect1467-8-9"
     style="opacity:1;fill:#cccccc;fill-opacity:1;stroke:none;stroke-width:3.77952766;stroke-linecap:round;stroke-linejoin:round;stroke-miterlimit:4;stroke-dasharray:none;stroke-opacity:1" />
  <rect
     y="32"
     x="20"
     height="1"
     width="24"
     id="rect1467-1-3"
     style="opacity:1;fill:#cccccc;fill-opacity:1;stroke:none;stroke-width:3.77952766;stroke-linecap:round;stroke-linejoin:round;stroke-miterlimit:4;stroke-dasharray:none;stroke-opacity:1" />
  <rect
     y="22"
     x="20"
     height="1"
     width="16"
     id="rect1467-1-6"
     style="opacity:1;fill:#cccccc;fill-opacity:1;stroke:none;stroke-width:3.08597136;stroke-linecap:round;stroke-linejoin:round;stroke-miterlimit:4;stroke-dasharray:none;stroke-opacity:1" />
  <rect
     y="34"
     x="20"
     height="1"
     width="9"
     id="rect1467-1-8"
     style="opacity:1;fill:#cccccc;fill-opacity:1;stroke:none;stroke-width:2.31447864;stroke-linecap:round;stroke-linejoin:round;stroke-miterlimit:4;stroke-dasharray:none;stroke-opacity:1" />
  <rect
     y="36"
     x="18"
     height="2"
     width="28"
     id="rect1579"
     style="opacity:1;fill:#f4d7d7;fill-opacity:1;stroke:none;stroke-width:3.77952766;stroke-linecap:round;stroke-linejoin:round;stroke-miterlimit:4;stroke-dasharray:none;stroke-opacity:1" />
</svg>
