<?xml version="1.0" encoding="UTF-8"?>
<svg version="1" viewBox="0 0 32 32" xmlns="http://www.w3.org/2000/svg" xmlns:cc="http://creativecommons.org/ns#" xmlns:dc="http://purl.org/dc/elements/1.1/" xmlns:rdf="http://www.w3.org/1999/02/22-rdf-syntax-ns#">
<metadata>
<rdf:RDF>
<cc:Work rdf:about="">
<dc:format>image/svg+xml</dc:format>
<dc:type rdf:resource="http://purl.org/dc/dcmitype/StillImage"/>
<dc:title/>
</cc:Work>
</rdf:RDF>
</metadata>
<defs>
<linearGradient id="c" x1="6" x2="26" y1="17" y2="17" gradientTransform="translate(0,-1)" gradientUnits="userSpaceOnUse">
<stop stop-color="#5e5c64" offset="0"/>
<stop stop-color="#9a9996" offset=".05"/>
<stop stop-color="#5e5c64" offset=".1"/>
<stop stop-color="#5e5c64" offset=".9"/>
<stop stop-color="#9a9996" offset=".95"/>
<stop stop-color="#5e5c64" offset="1"/>
</linearGradient>
<linearGradient id="d" x1="16" x2="16" y1="4" y2="25" gradientTransform="translate(0,-1)" gradientUnits="userSpaceOnUse">
<stop stop-color="#c0bfbc" offset="0"/>
<stop stop-color="#deddda" offset="1"/>
</linearGradient>
</defs>
<path d="m3 3v3c0.554 0 1 0.446 1 1s-0.446 1-1 1v9c0.554 0 1 0.446 1 1s-0.446 1-1 1v2c0.554 0 1 0.446 1 1s-0.446 1-1 1v6h26v-6c-0.554 0-1-0.446-1-1s0.446-1 1-1v-2c-0.554 0-1-0.446-1-1s0.446-1 1-1v-9c-0.554 0-1-0.446-1-1s0.446-1 1-1v-3z" fill="#26a269"/>
<path d="m3 3v2c0.554 0 1 0.446 1 1s-0.446 1-1 1v9c0.554 0 1 0.446 1 1s-0.446 1-1 1v2c0.554 0 1 0.446 1 1s-0.446 1-1 1v6h26v-6c-0.554 0-1-0.446-1-1s0.446-1 1-1v-2c-0.554 0-1-0.446-1-1s0.446-1 1-1v-9c-0.554 0-1-0.446-1-1s0.446-1 1-1v-2z" fill="#2ec27e"/>
<rect x="5" y="5" width="22" height="21" ry="1" fill="#f6f5f4"/>
<rect x="6" y="5" width="20" height="20" ry="2" fill="url(#c)"/>
<rect x="6" y="4" width="20" height="19" ry="2" fill="url(#d)"/>
<path d="m3 26 2 2h-2z" fill="#f6d32d"/>
<rect x="11" y="6" width="10" height="5" ry="0" fill="#9a9996"/>
<rect x="9" y="13" width="14" height="1" fill="#9a9996"/>
<rect x="9" y="15" width="14" height="1" fill="#9a9996"/>
<rect x="9" y="17" width="14" height="1" fill="#9a9996"/>
<rect x="9" y="19" width="14" height="1" fill="#9a9996"/>
</svg>
