<?xml version="1.0" encoding="UTF-8" standalone="no"?>
<svg
   xmlns:dc="http://purl.org/dc/elements/1.1/"
   xmlns:cc="http://creativecommons.org/ns#"
   xmlns:rdf="http://www.w3.org/1999/02/22-rdf-syntax-ns#"
   xmlns:svg="http://www.w3.org/2000/svg"
   xmlns="http://www.w3.org/2000/svg"
   width="64"
   height="64"
   viewBox="0 0 64 64.000003"
   version="1.1"
   id="svg8">
  <defs
     id="defs2" />
  <metadata
     id="metadata5">
    <rdf:RDF>
      <cc:Work
         rdf:about="">
        <dc:format>image/svg+xml</dc:format>
        <dc:type
           rdf:resource="http://purl.org/dc/dcmitype/StillImage" />
        <dc:title></dc:title>
      </cc:Work>
    </rdf:RDF>
  </metadata>
  <g
     transform="translate(0,-1058.5197)"
     id="layer1-3">
    <rect
       ry="4.0000467"
       y="1082.5197"
       x="12"
       height="35.999954"
       width="40"
       id="rect1937-9-6"
       style="opacity:1;fill:#666666;fill-opacity:1;stroke:none;stroke-width:3.64204574;stroke-linecap:round;stroke-linejoin:round;stroke-miterlimit:4;stroke-dasharray:none;stroke-opacity:1" />
    <rect
       ry="4.0000467"
       y="1062.5197"
       x="12"
       height="52.000076"
       width="40"
       id="rect1937-8-7"
       style="opacity:1;fill:#999999;fill-opacity:1;stroke:none;stroke-width:2.85705447;stroke-linecap:round;stroke-linejoin:round;stroke-miterlimit:4;stroke-dasharray:none;stroke-opacity:1" />
    <path
       style="fill:#808080;stroke:none;stroke-width:1px;stroke-linecap:butt;stroke-linejoin:miter;stroke-opacity:1"
       d="m 48,1086.5197 -2,2 2,2 v 16 l -4,4 H 20 l -4,-4 v -16 l 2,-2 -2,-2 v -16 l 4,-4 h 24 l 4,4 z"
       id="path854" />
    <path
       style="fill:#999999;fill-opacity:1;stroke:none;stroke-width:1px;stroke-linecap:butt;stroke-linejoin:miter;stroke-opacity:1"
       d="m 46,1071.5197 -3,-3 H 21 l -3,3 v 14 l 3,3 h 10.976048 l 0.02395,19 1,1 h 11 l 1.999998,-2 v -15 l -3,-3 3,-3 z"
       id="path856" />
    <rect
       style="opacity:1;fill:#ececec;fill-opacity:1;stroke:none;stroke-width:3.77952766;stroke-linecap:round;stroke-linejoin:round;stroke-miterlimit:4;stroke-dasharray:none;stroke-opacity:1"
       id="rect850"
       width="22"
       height="24"
       x="21"
       y="1072.5197"
       ry="0" />
    <path
       id="path1993-5"
       d="m 15,1064.5197 a 1,1 0 0 0 -1,1 1,1 0 0 0 1,1 1,1 0 0 0 1,-1 1,1 0 0 0 -1,-1 z m 34,0 a 1,1 0 0 0 -1,1 1,1 0 0 0 1,1 1,1 0 0 0 1,-1 1,1 0 0 0 -1,-1 z"
       style="opacity:1;fill:#666666;fill-opacity:1;stroke:none;stroke-width:3.77952766;stroke-linecap:round;stroke-linejoin:round;stroke-miterlimit:4;stroke-dasharray:none;stroke-opacity:1" />
    <path
       id="path1993-8-3"
       d="m 15,1110.5197 a 1,1 0 0 0 -1,1 1,1 0 0 0 1,1 1,1 0 0 0 1,-1 1,1 0 0 0 -1,-1 z m 34,0 a 1,1 0 0 0 -1,1 1,1 0 0 0 1,1 1,1 0 0 0 1,-1 1,1 0 0 0 -1,-1 z"
       style="opacity:1;fill:#666666;fill-opacity:1;stroke:none;stroke-width:3.77952766;stroke-linecap:round;stroke-linejoin:round;stroke-miterlimit:4;stroke-dasharray:none;stroke-opacity:1" />
    <rect
       y="1089.5197"
       x="22"
       height="1"
       width="20"
       id="rect2097-5"
       style="opacity:1;fill:#cccccc;fill-opacity:1;stroke:none;stroke-width:3.60363817;stroke-linecap:round;stroke-linejoin:round;stroke-miterlimit:4;stroke-dasharray:none;stroke-opacity:1" />
    <rect
       y="1091.5197"
       x="22"
       height="1"
       width="20"
       id="rect2099-6"
       style="opacity:1;fill:#cccccc;fill-opacity:1;stroke:none;stroke-width:3.60363817;stroke-linecap:round;stroke-linejoin:round;stroke-miterlimit:4;stroke-dasharray:none;stroke-opacity:1" />
    <rect
       y="1087.5197"
       x="22"
       height="1"
       width="20"
       id="rect2101-2"
       style="opacity:1;fill:#cccccc;fill-opacity:1;stroke:none;stroke-width:3.60363817;stroke-linecap:round;stroke-linejoin:round;stroke-miterlimit:4;stroke-dasharray:none;stroke-opacity:1" />
    <rect
       y="1085.5197"
       x="22"
       height="1"
       width="20"
       id="rect2101-4-9"
       style="opacity:1;fill:#cccccc;fill-opacity:1;stroke:none;stroke-width:3.60363817;stroke-linecap:round;stroke-linejoin:round;stroke-miterlimit:4;stroke-dasharray:none;stroke-opacity:1" />
    <rect
       y="1083.5197"
       x="22"
       height="1"
       width="20"
       id="rect2101-4-7-1"
       style="opacity:1;fill:#cccccc;fill-opacity:1;stroke:none;stroke-width:3.60363817;stroke-linecap:round;stroke-linejoin:round;stroke-miterlimit:4;stroke-dasharray:none;stroke-opacity:1" />
    <rect
       y="1081.5197"
       x="22"
       height="1"
       width="20"
       id="rect2101-4-6-2"
       style="opacity:1;fill:#cccccc;fill-opacity:1;stroke:none;stroke-width:3.60363817;stroke-linecap:round;stroke-linejoin:round;stroke-miterlimit:4;stroke-dasharray:none;stroke-opacity:1" />
    <rect
       y="1079.5197"
       x="22"
       height="1"
       width="20"
       id="rect2101-4-3-7"
       style="opacity:1;fill:#cccccc;fill-opacity:1;stroke:none;stroke-width:3.60363817;stroke-linecap:round;stroke-linejoin:round;stroke-miterlimit:4;stroke-dasharray:none;stroke-opacity:1" />
    <rect
       y="1074.5197"
       x="25"
       height="4.0000839"
       width="14"
       id="rect2101-4-1-0"
       style="opacity:1;fill:#c83737;fill-opacity:1;stroke:none;stroke-width:6.03010321;stroke-linecap:round;stroke-linejoin:round;stroke-miterlimit:4;stroke-dasharray:none;stroke-opacity:1" />
  </g>
  <circle
     style="opacity:1;fill:#447821;fill-opacity:1;stroke:none;stroke-width:3.99987626;stroke-linecap:round;stroke-linejoin:round;stroke-miterlimit:4;stroke-dasharray:none;stroke-opacity:1"
     id="path910-0"
     cx="48"
     cy="49"
     r="14" />
  <circle
     style="opacity:1;fill:#71c837;fill-opacity:1;stroke:none;stroke-width:3.99987626;stroke-linecap:round;stroke-linejoin:round;stroke-miterlimit:4;stroke-dasharray:none;stroke-opacity:1"
     id="path910"
     cx="48"
     cy="48.000004"
     r="14" />
  <path
     style="opacity:1;fill:#447821;fill-opacity:1;stroke:none;stroke-width:3.77952766;stroke-linecap:round;stroke-linejoin:round;stroke-miterlimit:4;stroke-dasharray:none;stroke-opacity:1"
     d="m 48,37 c -2.785733,0.0033 -5.443822,1.168481 -7.333984,3.214844 v 1 l 2.123046,1.123047 C 44.114673,40.853201 46.009638,40.003024 48,40 c 3.865993,0 7,3.134007 7,7 -0.0027,0.33482 -0.02951,0.669011 -0.08008,1 H 54 v 1 l 2,2 3,-2 v -1 h -1.060547 c 0.03688,-0.332112 0.05709,-0.665864 0.06055,-1 0,-5.522847 -4.477153,-10 -10,-10 z m -8,8 -3,3 v 1 l 1.050781,-1 c 0.513535,5.109613 4.813865,8.999663 9.949219,9 2.257569,-0.0023 6.548828,-1.451172 6.548828,-1.451172 0,0 0,0 0,-1 L 52.421875,52.421875 C 51.173542,53.441278 49.611681,53.998691 48,54 44.522706,53.996856 41.57488,51.44163 41.078125,48 L 42,49 v -1 z"
     id="path846-3" />
  <path
     style="opacity:1;fill:#ffffff;fill-opacity:1;stroke:none;stroke-width:3.77952766;stroke-linecap:round;stroke-linejoin:round;stroke-miterlimit:4;stroke-dasharray:none;stroke-opacity:1"
     d="m 48,38 a 10,10 0 0 0 -7.333984,3.214844 l 2.123046,2.123047 A 7,7 0 0 1 48,41 a 7,7 0 0 1 7,7 7,7 0 0 1 -0.08008,1 H 54 l 2,3 3,-3 H 57.939453 A 10,10 0 0 0 58,48 10,10 0 0 0 48,38 Z m -8,8 -3,3 h 1.050781 A 10,10 0 0 0 48,58 10,10 0 0 0 54.548828,55.548828 L 52.421875,53.421875 A 7,7 0 0 1 48,55 7,7 0 0 1 41.078125,49 H 42 Z"
     id="path846" />
</svg>
