<?xml version="1.0" encoding="UTF-8" standalone="no"?>
<svg
   xmlns:dc="http://purl.org/dc/elements/1.1/"
   xmlns:cc="http://creativecommons.org/ns#"
   xmlns:rdf="http://www.w3.org/1999/02/22-rdf-syntax-ns#"
   xmlns:svg="http://www.w3.org/2000/svg"
   xmlns="http://www.w3.org/2000/svg"
   xmlns:xlink="http://www.w3.org/1999/xlink"
   version="1.1"
   id="svg11300"
   height="64"
   width="64">
  <defs
     id="defs3">
    <linearGradient
       id="linearGradient3264">
      <stop
         id="stop3266"
         offset="0"
         style="stop-color:#c9c9c9;stop-opacity:1;" />
      <stop
         style="stop-color:#f8f8f8;stop-opacity:1;"
         offset="0.25"
         id="stop3276" />
      <stop
         style="stop-color:#e2e2e2;stop-opacity:1;"
         offset="0.5"
         id="stop3272" />
      <stop
         id="stop3274"
         offset="0.75"
         style="stop-color:#b0b0b0;stop-opacity:1;" />
      <stop
         id="stop3268"
         offset="1"
         style="stop-color:#c9c9c9;stop-opacity:1;" />
    </linearGradient>
    <linearGradient
       id="linearGradient3256">
      <stop
         id="stop3258"
         offset="0"
         style="stop-color:#000000;stop-opacity:1;" />
      <stop
         id="stop3260"
         offset="1"
         style="stop-color:#000000;stop-opacity:0;" />
    </linearGradient>
    <linearGradient
       id="linearGradient2752">
      <stop
         id="stop2754"
         offset="0"
         style="stop-color:#9d9d9d;stop-opacity:1;" />
      <stop
         id="stop2756"
         offset="1.0000000"
         style="stop-color:#b9b9b9;stop-opacity:1.0000000;" />
    </linearGradient>
    <linearGradient
       id="linearGradient2711">
      <stop
         id="stop2713"
         offset="0.0000000"
         style="stop-color:#909090;stop-opacity:1.0000000;" />
      <stop
         id="stop2715"
         offset="1.0000000"
         style="stop-color:#bebebe;stop-opacity:0.0000000;" />
    </linearGradient>
    <linearGradient
       id="linearGradient2701">
      <stop
         id="stop2703"
         offset="0.0000000"
         style="stop-color:#585956;stop-opacity:1.0000000;" />
      <stop
         id="stop2705"
         offset="1.0000000"
         style="stop-color:#bbbeb8;stop-opacity:1.0000000;" />
    </linearGradient>
    <linearGradient
       id="linearGradient2691">
      <stop
         id="stop2693"
         offset="0.0000000"
         style="stop-color:#868686;stop-opacity:1.0000000;" />
      <stop
         id="stop2695"
         offset="1.0000000"
         style="stop-color:#e9e9e9;stop-opacity:1.0000000;" />
    </linearGradient>
    <linearGradient
       id="linearGradient2675">
      <stop
         id="stop2677"
         offset="0.0000000"
         style="stop-color:#5b5b97;stop-opacity:1.0000000;" />
      <stop
         id="stop2679"
         offset="1.0000000"
         style="stop-color:#1b1b43;stop-opacity:1.0000000;" />
    </linearGradient>
    <linearGradient
       id="linearGradient2667">
      <stop
         id="stop2669"
         offset="0.0000000"
         style="stop-color:#ffffff;stop-opacity:1.0000000;" />
      <stop
         id="stop2671"
         offset="1.0000000"
         style="stop-color:#fcfcff;stop-opacity:0.0000000;" />
    </linearGradient>
    <linearGradient
       id="linearGradient2635">
      <stop
         id="stop2637"
         offset="0"
         style="stop-color:#f9fff5;stop-opacity:1;" />
      <stop
         id="stop2639"
         offset="1"
         style="stop-color:#f9fff5;stop-opacity:0;" />
    </linearGradient>
    <linearGradient
       id="linearGradient2623">
      <stop
         id="stop2625"
         offset="0.0000000"
         style="stop-color:#dfdfde;stop-opacity:1.0000000;" />
      <stop
         id="stop2627"
         offset="1.0000000"
         style="stop-color:#9d9f9a;stop-opacity:1.0000000;" />
    </linearGradient>
    <linearGradient
       id="linearGradient2379">
      <stop
         style="stop-color:#1a4876;stop-opacity:1.0000000;"
         offset="0.0000000"
         id="stop2381" />
      <stop
         style="stop-color:#3f54a3;stop-opacity:0.0000000;"
         offset="1.0000000"
         id="stop2383" />
    </linearGradient>
    <linearGradient
       id="linearGradient2328">
      <stop
         style="stop-color:#ffffff;stop-opacity:1;"
         offset="0"
         id="stop2330" />
      <stop
         style="stop-color:#ffffff;stop-opacity:0;"
         offset="1"
         id="stop2332" />
    </linearGradient>
    <linearGradient
       id="linearGradient2307">
      <stop
         style="stop-color:#5a7aa4;stop-opacity:1;"
         offset="0"
         id="stop2309" />
      <stop
         style="stop-color:#5a7aa4;stop-opacity:0;"
         offset="1"
         id="stop2311" />
    </linearGradient>
    <linearGradient
       id="linearGradient2253">
      <stop
         style="stop-color:#8f8f8f;stop-opacity:1.0000000;"
         offset="0.0000000"
         id="stop2255" />
      <stop
         style="stop-color:#494949;stop-opacity:1.0000000;"
         offset="1.0000000"
         id="stop2257" />
    </linearGradient>
    <linearGradient
       id="linearGradient2245">
      <stop
         style="stop-color:#dde1d9;stop-opacity:1.0000000;"
         offset="0.0000000"
         id="stop2247" />
      <stop
         style="stop-color:#cacdc6;stop-opacity:1.0000000;"
         offset="1.0000000"
         id="stop2249" />
    </linearGradient>
    <linearGradient
       xlink:href="#linearGradient2307"
       id="linearGradient2313"
       gradientTransform="matrix(1.208393,0,0,0.98441,-0.789284,-0.50338)"
       x1="16.851954"
       y1="9.323514"
       x2="24.418941"
       y2="53.734985"
       gradientUnits="userSpaceOnUse" />
    <linearGradient
       xlink:href="#linearGradient2328"
       id="linearGradient2334"
       gradientTransform="matrix(1.289166,0,0,0.922731,-0.789284,-0.50338)"
       x1="16.119127"
       y1="10.842293"
       x2="27.289009"
       y2="39.03191"
       gradientUnits="userSpaceOnUse" />
    <linearGradient
       xlink:href="#linearGradient2379"
       id="linearGradient2445"
       gradientUnits="userSpaceOnUse"
       gradientTransform="matrix(1.02787,0,0,0.822296,1.523986,1.001198)"
       x1="21.356108"
       y1="30.078255"
       x2="19.994572"
       y2="-1.3221773" />
    <linearGradient
       y2="92.57093"
       x2="10.728384"
       y1="84.029198"
       x1="10.728384"
       gradientTransform="scale(1.983556,0.504145)"
       gradientUnits="userSpaceOnUse"
       id="linearGradient2653"
       xlink:href="#linearGradient2623" />
    <linearGradient
       y2="74.098007"
       x2="8.6485014"
       y1="101.2846"
       x1="13.62871"
       gradientTransform="scale(2.143634,0.466498)"
       gradientUnits="userSpaceOnUse"
       id="linearGradient2655"
       xlink:href="#linearGradient2635" />
    <radialGradient
       xlink:href="#linearGradient3256"
       id="radialGradient13503"
       gradientUnits="userSpaceOnUse"
       gradientTransform="matrix(1,0,0,0.315315,0,26.81305)"
       cx="25.455845"
       cy="39.161163"
       fx="25.455845"
       fy="39.161163"
       r="19.622213" />
    <linearGradient
       xlink:href="#linearGradient3264"
       id="linearGradient13505"
       gradientUnits="userSpaceOnUse"
       gradientTransform="matrix(1.241935,0,0,1.241935,-5.027508,-7.208988)"
       x1="14.462892"
       y1="12.284524"
       x2="34.534348"
       y2="39.684914" />
  </defs>
  <metadata
     id="metadata4">
    <rdf:RDF>
      <cc:Work
         rdf:about="">
        <dc:format>image/svg+xml</dc:format>
        <dc:type
           rdf:resource="http://purl.org/dc/dcmitype/StillImage" />
        <dc:creator>
          <cc:Agent>
            <dc:title>Jakub Steiner</dc:title>
          </cc:Agent>
        </dc:creator>
        <dc:source>http://jimmac.musichall.cz</dc:source>
        <cc:license
           rdf:resource="http://creativecommons.org/licenses/by-sa/2.0/" />
        <dc:title></dc:title>
        <dc:subject>
          <rdf:Bag>
            <rdf:li>apparmor</rdf:li>
            <rdf:li>novell</rdf:li>
          </rdf:Bag>
        </dc:subject>
      </cc:Work>
      <cc:License
         rdf:about="http://creativecommons.org/licenses/by-sa/2.0/">
        <cc:permits
           rdf:resource="http://web.resource.org/cc/Reproduction" />
        <cc:permits
           rdf:resource="http://web.resource.org/cc/Distribution" />
        <cc:requires
           rdf:resource="http://web.resource.org/cc/Notice" />
        <cc:requires
           rdf:resource="http://web.resource.org/cc/Attribution" />
        <cc:permits
           rdf:resource="http://web.resource.org/cc/DerivativeWorks" />
        <cc:requires
           rdf:resource="http://web.resource.org/cc/ShareAlike" />
      </cc:License>
    </rdf:RDF>
  </metadata>
  <g
     transform="translate(0,16)"
     id="layer1">
    <path
       id="rect1389-0"
       transform="translate(0,-16)"
       d="M 16 47 C 14.892 47 14 47.892 14 49 L 14 54 C 14 55.108 14.892 56 16 56 L 48 56 C 49.108 56 50 55.108 50 54 L 50 49 C 50 47.892 49.108 47 48 47 L 16 47 z "
       style="opacity:1;fill:#1a1a1a;fill-opacity:1;stroke:none;stroke-width:3.77952766;stroke-linecap:round;stroke-linejoin:round;stroke-miterlimit:4;stroke-dasharray:none;stroke-opacity:1" />
    <path
       id="rect1389"
       transform="translate(0,-16)"
       d="M 16 46 C 14.892 46 14 46.892 14 48 L 14 53 C 14 54.108 14.892 55 16 55 L 48 55 C 49.108 55 50 54.108 50 53 L 50 48 C 50 46.892 49.108 46 48 46 L 16 46 z "
       style="opacity:1;fill:#333333;fill-opacity:1;stroke:none;stroke-width:3.77952766;stroke-linecap:round;stroke-linejoin:round;stroke-miterlimit:4;stroke-dasharray:none;stroke-opacity:1" />
    <path
       id="rect1387-7"
       transform="translate(0,-16)"
       d="M 6 10 C 4.892 10 4 10.892 4 12 L 4 47 C 4 48.108 4.892 49 6 49 L 58 49 C 59.108 49 60 48.108 60 47 L 60 12 C 60 10.892 59.108 10 58 10 L 6 10 z "
       style="opacity:1;fill:#4d4d4d;fill-opacity:1;stroke:none;stroke-width:3.77952766;stroke-linecap:round;stroke-linejoin:round;stroke-miterlimit:4;stroke-dasharray:none;stroke-opacity:1" />
    <path
       id="rect1387"
       transform="translate(0,-16)"
       d="M 6 8 C 4.892 8 4 8.892 4 10 L 4 46 C 4 47.108 4.892 48 6 48 L 58 48 C 59.108 48 60 47.108 60 46 L 60 10 C 60 8.892 59.108 8 58 8 L 6 8 z "
       style="opacity:1;fill:#666666;fill-opacity:1;stroke:none;stroke-width:3.77952766;stroke-linecap:round;stroke-linejoin:round;stroke-miterlimit:4;stroke-dasharray:none;stroke-opacity:1" />
    <path
       id="rect1391-9"
       transform="translate(0,-16)"
       d="M 8 11 C 7.446 11 7 11.446 7 12 L 7 43 C 7 43.554 7.446 44 8 44 L 56 44 C 56.554 44 57 43.554 57 43 L 57 12 C 57 11.446 56.554 11 56 11 L 8 11 z "
       style="opacity:1;fill:#4d4d4d;fill-opacity:1;stroke:none;stroke-width:3.77952766;stroke-linecap:round;stroke-linejoin:round;stroke-miterlimit:4;stroke-dasharray:none;stroke-opacity:1" />
    <path
       id="rect1391"
       transform="translate(0,-16)"
       d="M 8 12 C 7.446 12 7 12.446 7 13 L 7 44 C 7 44.554 7.446 45 8 45 L 56 45 C 56.554 45 57 44.554 57 44 L 57 13 C 57 12.446 56.554 12 56 12 L 8 12 z "
       style="opacity:1;fill:#333333;fill-opacity:1;stroke:none;stroke-width:3.77952766;stroke-linecap:round;stroke-linejoin:round;stroke-miterlimit:4;stroke-dasharray:none;stroke-opacity:1" />
  </g>
  <rect
     ry="0"
     rx="0"
     y="24"
     x="8"
     height="1"
     width="16"
     id="rect885-6-3"
     style="opacity:1;fill:#e6e6e6;fill-opacity:1;stroke:none;stroke-width:3.77952766;stroke-linecap:round;stroke-linejoin:round;stroke-miterlimit:4;stroke-dasharray:none;stroke-opacity:1" />
  <rect
     ry="0"
     rx="0"
     y="22"
     x="8"
     height="1"
     width="20"
     id="rect885-3-5"
     style="opacity:1;fill:#e6e6e6;fill-opacity:1;stroke:none;stroke-width:4.2256403;stroke-linecap:round;stroke-linejoin:round;stroke-miterlimit:4;stroke-dasharray:none;stroke-opacity:1" />
  <rect
     ry="0"
     rx="0"
     y="28"
     x="8"
     height="1"
     width="25"
     id="rect885-3-9"
     style="opacity:1;fill:#e6e6e6;fill-opacity:1;stroke:none;stroke-width:4.72440958;stroke-linecap:round;stroke-linejoin:round;stroke-miterlimit:4;stroke-dasharray:none;stroke-opacity:1" />
  <path
     style="opacity:1;fill:#ddb021;fill-opacity:1;stroke:none;stroke-width:3.77952766;stroke-linecap:round;stroke-linejoin:round;stroke-miterlimit:4;stroke-dasharray:none;stroke-opacity:1"
     d="m 32,21 a 6,6 0 0 0 -6,6 6,6 0 0 0 6,6 6,6 0 0 0 6,-6 6,6 0 0 0 -6,-6 z"
     id="path879-5" />
  <rect
     ry="0"
     rx="0"
     y="32"
     x="8"
     height="1"
     width="27"
     id="rect885-7-2"
     style="opacity:1;fill:#e6e6e6;fill-opacity:1;stroke:none;stroke-width:4.90975046;stroke-linecap:round;stroke-linejoin:round;stroke-miterlimit:4;stroke-dasharray:none;stroke-opacity:1" />
  <circle
     style="opacity:1;fill:#f4d32c;fill-opacity:1;stroke:none;stroke-width:3.77952766;stroke-linecap:round;stroke-linejoin:round;stroke-miterlimit:4;stroke-dasharray:none;stroke-opacity:1"
     id="path879"
     cx="32"
     cy="28"
     r="6" />
  <path
     style="opacity:1;fill:#a7131b;fill-opacity:1;stroke:none;stroke-width:3.77952766;stroke-linecap:round;stroke-linejoin:round;stroke-miterlimit:4;stroke-dasharray:none;stroke-opacity:1"
     d="m 48,21 a 6,6 0 0 0 -6,6 6,6 0 0 0 6,6 6,6 0 0 0 6,-6 6,6 0 0 0 -6,-6 z"
     id="path879-3-3" />
  <path
     style="opacity:1;fill:#e21a25;fill-opacity:1;stroke:none;stroke-width:3.77952766;stroke-linecap:round;stroke-linejoin:round;stroke-miterlimit:4;stroke-dasharray:none;stroke-opacity:1"
     d="m 48,22 a 6,6 0 0 0 -6,6 6,6 0 0 0 6,6 6,6 0 0 0 6,-6 6,6 0 0 0 -6,-6 z"
     id="path879-3" />
  <rect
     ry="0"
     rx="0"
     y="26"
     x="8"
     height="1"
     width="16"
     id="rect885-2"
     style="opacity:1;fill:#e6e6e6;fill-opacity:1;stroke:none;stroke-width:3.77952766;stroke-linecap:round;stroke-linejoin:round;stroke-miterlimit:4;stroke-dasharray:none;stroke-opacity:1" />
  <path
     style="opacity:1;fill:#5aa02c;fill-opacity:1;stroke:none;stroke-width:3.77952766;stroke-linecap:round;stroke-linejoin:round;stroke-miterlimit:4;stroke-dasharray:none;stroke-opacity:1"
     d="m 15,21 a 6,6 0 0 0 -6,6 6,6 0 0 0 6,6 6,6 0 0 0 6,-6 6,6 0 0 0 -6,-6 z"
     id="path879-3-6-7" />
  <rect
     ry="0"
     rx="0"
     y="30"
     x="8"
     height="1"
     width="13"
     id="rect885-6-1"
     style="opacity:1;fill:#e6e6e6;fill-opacity:1;stroke:none;stroke-width:3.4068203;stroke-linecap:round;stroke-linejoin:round;stroke-miterlimit:4;stroke-dasharray:none;stroke-opacity:1" />
  <path
     style="opacity:1;fill:#71c837;fill-opacity:1;stroke:none;stroke-width:3.77952766;stroke-linecap:round;stroke-linejoin:round;stroke-miterlimit:4;stroke-dasharray:none;stroke-opacity:1"
     d="m 15,22 a 6,6 0 0 0 -6,6 6,6 0 0 0 6,6 6,6 0 0 0 6,-6 6,6 0 0 0 -6,-6 z"
     id="path879-3-6" />
  <rect
     ry="0"
     rx="0"
     y="14"
     x="8"
     height="1"
     width="16"
     id="rect885"
     style="opacity:1;fill:#e6e6e6;fill-opacity:1;stroke:none;stroke-width:3.77952766;stroke-linecap:round;stroke-linejoin:round;stroke-miterlimit:4;stroke-dasharray:none;stroke-opacity:1" />
  <rect
     ry="0"
     rx="0"
     y="16"
     x="8"
     height="1"
     width="25"
     id="rect885-3"
     style="opacity:1;fill:#e6e6e6;fill-opacity:1;stroke:none;stroke-width:4.72440958;stroke-linecap:round;stroke-linejoin:round;stroke-miterlimit:4;stroke-dasharray:none;stroke-opacity:1" />
  <rect
     ry="0"
     rx="0"
     y="18"
     x="8"
     height="1"
     width="13"
     id="rect885-6"
     style="opacity:1;fill:#e6e6e6;fill-opacity:1;stroke:none;stroke-width:3.4068203;stroke-linecap:round;stroke-linejoin:round;stroke-miterlimit:4;stroke-dasharray:none;stroke-opacity:1" />
  <rect
     ry="0"
     rx="0"
     y="20"
     x="8"
     height="1"
     width="27"
     id="rect885-7"
     style="opacity:1;fill:#e6e6e6;fill-opacity:1;stroke:none;stroke-width:4.90975046;stroke-linecap:round;stroke-linejoin:round;stroke-miterlimit:4;stroke-dasharray:none;stroke-opacity:1" />
  <rect
     ry="0"
     rx="0"
     y="36"
     x="8"
     height="1"
     width="16"
     id="rect885-6-3-5"
     style="opacity:1;fill:#e6e6e6;fill-opacity:1;stroke:none;stroke-width:3.77952766;stroke-linecap:round;stroke-linejoin:round;stroke-miterlimit:4;stroke-dasharray:none;stroke-opacity:1" />
  <rect
     ry="0"
     rx="0"
     y="34"
     x="8"
     height="1"
     width="20"
     id="rect885-3-5-6"
     style="opacity:1;fill:#e6e6e6;fill-opacity:1;stroke:none;stroke-width:4.2256403;stroke-linecap:round;stroke-linejoin:round;stroke-miterlimit:4;stroke-dasharray:none;stroke-opacity:1" />
  <rect
     ry="0"
     rx="0"
     y="16"
     x="47"
     height="1"
     width="9"
     id="rect885-3-2"
     style="opacity:1;fill:#e6e6e6;fill-opacity:1;stroke:none;stroke-width:2.83464575;stroke-linecap:round;stroke-linejoin:round;stroke-miterlimit:4;stroke-dasharray:none;stroke-opacity:1" />
  <rect
     ry="0"
     rx="0"
     y="18"
     x="47"
     height="1"
     width="9"
     id="rect885-3-2-0"
     style="opacity:1;fill:#e6e6e6;fill-opacity:1;stroke:none;stroke-width:2.83464575;stroke-linecap:round;stroke-linejoin:round;stroke-miterlimit:4;stroke-dasharray:none;stroke-opacity:1" />
  <rect
     ry="0"
     rx="0"
     y="14"
     x="47"
     height="1"
     width="9"
     id="rect885-3-2-2"
     style="opacity:1;fill:#e6e6e6;fill-opacity:1;stroke:none;stroke-width:2.83464575;stroke-linecap:round;stroke-linejoin:round;stroke-miterlimit:4;stroke-dasharray:none;stroke-opacity:1" />
  <rect
     ry="0"
     rx="0"
     y="14"
     x="48"
     height="1"
     width="7"
     id="rect885-3-2-2-3"
     style="opacity:1;fill:#71c837;fill-opacity:1;stroke:none;stroke-width:2.49992251;stroke-linecap:round;stroke-linejoin:round;stroke-miterlimit:4;stroke-dasharray:none;stroke-opacity:1" />
  <rect
     ry="0"
     rx="0"
     y="16"
     x="48"
     height="1"
     width="7"
     id="rect885-3-2-7"
     style="opacity:1;fill:#71c837;fill-opacity:1;stroke:none;stroke-width:2.49992251;stroke-linecap:round;stroke-linejoin:round;stroke-miterlimit:4;stroke-dasharray:none;stroke-opacity:1" />
  <rect
     ry="0"
     rx="0"
     y="18"
     x="48"
     height="1"
     width="7"
     id="rect885-3-2-0-5"
     style="opacity:1;fill:#e21a25;fill-opacity:1;stroke:none;stroke-width:2.49992251;stroke-linecap:round;stroke-linejoin:round;stroke-miterlimit:4;stroke-dasharray:none;stroke-opacity:1" />
  <rect
     ry="0"
     rx="0"
     y="40"
     x="8"
     height="1"
     width="16"
     id="rect885-6-3-5-9"
     style="opacity:1;fill:#e6e6e6;fill-opacity:1;stroke:none;stroke-width:3.77952766;stroke-linecap:round;stroke-linejoin:round;stroke-miterlimit:4;stroke-dasharray:none;stroke-opacity:1" />
  <rect
     ry="0"
     rx="0"
     y="38"
     x="8"
     height="1"
     width="20"
     id="rect885-3-5-6-2"
     style="opacity:1;fill:#e6e6e6;fill-opacity:1;stroke:none;stroke-width:4.2256403;stroke-linecap:round;stroke-linejoin:round;stroke-miterlimit:4;stroke-dasharray:none;stroke-opacity:1" />
  <rect
     ry="0"
     rx="0"
     y="42"
     x="8"
     height="1"
     width="7"
     id="rect885-3-5-6-8"
     style="opacity:1;fill:#e6e6e6;fill-opacity:1;stroke:none;stroke-width:2.49992251;stroke-linecap:round;stroke-linejoin:round;stroke-miterlimit:4;stroke-dasharray:none;stroke-opacity:1" />
</svg>
