<?xml version="1.0" encoding="UTF-8"?>
<svg version="1.0" viewBox="0 0 32 32" xmlns="http://www.w3.org/2000/svg" xmlns:cc="http://creativecommons.org/ns#" xmlns:dc="http://purl.org/dc/elements/1.1/" xmlns:rdf="http://www.w3.org/1999/02/22-rdf-syntax-ns#">
<metadata>
<rdf:RDF>
<cc:Work rdf:about="">
<dc:format>image/svg+xml</dc:format>
<dc:type rdf:resource="http://purl.org/dc/dcmitype/StillImage"/>
<dc:creator>
<cc:Agent>
<dc:title>Jakub Steiner</dc:title>
</cc:Agent>
</dc:creator>
<dc:source>http://jimmac.musichall.cz</dc:source>
<cc:license rdf:resource="http://creativecommons.org/licenses/by-sa/2.5/"/>
<dc:title/>
</cc:Work>
<cc:License rdf:about="http://creativecommons.org/licenses/by-sa/2.5/">
<cc:permits rdf:resource="http://web.resource.org/cc/Reproduction"/>
<cc:permits rdf:resource="http://web.resource.org/cc/Distribution"/>
<cc:requires rdf:resource="http://web.resource.org/cc/Notice"/>
<cc:requires rdf:resource="http://web.resource.org/cc/Attribution"/>
<cc:permits rdf:resource="http://web.resource.org/cc/DerivativeWorks"/>
<cc:requires rdf:resource="http://web.resource.org/cc/ShareAlike"/>
</cc:License>
</rdf:RDF>
</metadata>
<g transform="translate(0,-16)">
<path d="m16 19a14 14 0 0 0 -14 14 14 14 0 0 0 14 14 14 14 0 0 0 14 -14 14 14 0 0 0 -14 -14z" color="#000000" fill="#5c951e" fill-rule="evenodd"/>
<path d="m16 18a14 14 0 0 0 -14 14 14 14 0 0 0 14 14 14 14 0 0 0 14 -14 14 14 0 0 0 -14 -14z" color="#000000" fill="#73ba25" fill-rule="evenodd"/>
<path d="m25.208 37.276-6.8399-3.4044 4.7521 5.9826-5.4531-5.3515 2.6708 7.1583-3.5325-6.7746 0.32809 7.6332-1.2661-7.5346-2.0468 7.361 1.1242-7.5571-4.2213 6.3683 3.4044-6.8399-5.9826 4.7521 5.3515-5.4531-7.1583 2.6708 6.7746-3.5325-7.6332 0.32809 7.5346-1.2661-7.361-2.0468 7.5571 1.1242-6.3683-4.2213 6.8399 3.4044-4.7521-5.9826 5.4531 5.3515-2.6708-7.1583 3.5325 6.7746-0.32809-7.6332 1.2661 7.5346 2.0468-7.361-1.1242 7.5571 4.2213-6.3683-3.4044 6.8399 5.9826-4.7521-5.3515 5.4531 7.1583-2.6708-6.7746 3.5325 7.6332-0.32809-7.5346 1.2661 7.361 2.0468-7.5571-1.1242z" color="#000000" fill="#986a44" fill-rule="evenodd"/>
<ellipse transform="matrix(.84806 -.5299 .44536 .89535 0 0)" cx="5.6964" cy="35.754" rx="1.4872" ry=".68416" color="#000000" fill="#241f31" fill-rule="evenodd"/>
<ellipse transform="rotate(-70.062)" cx="-18.552" cy="25.303" rx=".82031" ry=".35547" color="#000000" fill="#241f31" fill-rule="evenodd"/>
<ellipse transform="rotate(58.625)" cx="42.556" cy="3.7074" rx=".82031" ry=".35547" color="#000000" fill="#241f31" fill-rule="evenodd"/>
<ellipse transform="rotate(59.601)" cx="40.523" cy="2.3425" rx=".58123" ry=".25187" color="#000000" fill="#241f31" fill-rule="evenodd"/>
<ellipse transform="rotate(-43.946)" cx="-17.9" cy="34.942" rx=".82031" ry=".35547" color="#000000" fill="#241f31" fill-rule="evenodd"/>
<ellipse transform="rotate(-29.139)" cx="-6.2814" cy="33.983" rx=".82031" ry=".35547" color="#000000" fill="#241f31" fill-rule="evenodd"/>
<ellipse transform="rotate(236.08)" cx="-28.724" cy="-4.8354" rx=".82031" ry=".35547" color="#000000" fill="#241f31" fill-rule="evenodd"/>
<ellipse transform="matrix(.93021 .36702 -.12494 .99216 0 0)" cx="14.815" cy="23.743" rx="1.0655" ry=".76628" color="#000000" fill="#241f31" fill-rule="evenodd"/>
<ellipse transform="matrix(-.97605 .21756 .21756 .97605 0 0)" cx="-14.094" cy="36.125" rx=".82031" ry=".35547" color="#000000" fill="#241f31" fill-rule="evenodd"/>
<path d="m16 29a3 3 0 0 0 -3 3 3 3 0 0 0 3 3 3 3 0 0 0 3 -3 3 3 0 0 0 -3 -3z" fill="#fcf8b7"/>
</g>
</svg>
