<?xml version="1.0" encoding="UTF-8" standalone="no"?>
<svg
   xmlns:dc="http://purl.org/dc/elements/1.1/"
   xmlns:cc="http://creativecommons.org/ns#"
   xmlns:rdf="http://www.w3.org/1999/02/22-rdf-syntax-ns#"
   xmlns:svg="http://www.w3.org/2000/svg"
   xmlns="http://www.w3.org/2000/svg"
   id="svg8"
   version="1.1"
   viewBox="0 0 64 64.000003"
   height="64"
   width="64">
  <defs
     id="defs2" />
  <metadata
     id="metadata5">
    <rdf:RDF>
      <cc:Work
         rdf:about="">
        <dc:format>image/svg+xml</dc:format>
        <dc:type
           rdf:resource="http://purl.org/dc/dcmitype/StillImage" />
        <dc:title></dc:title>
      </cc:Work>
    </rdf:RDF>
  </metadata>
  <path
     style="opacity:1;fill:#999999;fill-opacity:1;stroke:none;stroke-width:3.46157575;stroke-linecap:round;stroke-linejoin:round;stroke-miterlimit:4;stroke-dasharray:none;stroke-opacity:1"
     d="M 32,5 C 16.536027,5 4,17.536027 4,33 4,48.463973 16.536027,61 32,61 47.463973,61 60,48.463973 60,33 60,17.536027 47.463973,5 32,5 Z m 0,14 c 7.21652,0 13.066667,5.850146 13.066667,13.066667 0,7.21652 -5.850147,13.066666 -13.066667,13.066666 -7.21652,0 -13.066667,-5.850146 -13.066667,-13.066666 C 18.933333,24.850146 24.78348,19 32,19 Z"
     id="path819" />
  <path
     style="opacity:1;fill:#e6e6e6;fill-opacity:1;stroke:none;stroke-width:3.46157575;stroke-linecap:round;stroke-linejoin:round;stroke-miterlimit:4;stroke-dasharray:none;stroke-opacity:1"
     d="M 32,4 C 16.536027,4 4,16.536027 4,32 4,47.463973 16.536027,60 32,60 47.463973,60 60,47.463973 60,32 60,16.536027 47.463973,4 32,4 Z m 0,14.933333 C 39.21652,18.933333 45.066667,24.78348 45.066667,32 45.066667,39.21652 39.21652,45.066667 32,45.066667 24.78348,45.066667 18.933333,39.21652 18.933333,32 18.933333,24.78348 24.78348,18.933333 32,18.933333 Z"
     id="path819-3" />
  <g
     transform="translate(0,-1058.5197)"
     id="layer1">
    <path
       id="path817-6"
       transform="translate(0,1058.5197)"
       d="M 32 18 A 14 14 0 0 0 18 32 A 14 14 0 0 0 32 46 A 14 14 0 0 0 46 32 A 14 14 0 0 0 32 18 z M 32 24 A 8 8 0 0 1 40 32 A 8 8 0 0 1 32 40 A 8 8 0 0 1 24 32 A 8 8 0 0 1 32 24 z "
       style="opacity:1;fill:#cccccc;fill-opacity:1;stroke:none;stroke-width:2.22904372;stroke-linecap:round;stroke-linejoin:round;stroke-miterlimit:4;stroke-dasharray:none;stroke-opacity:1" />
  </g>
  <g
     transform="translate(0,-1058.5197)"
     id="layer1-7">
    <path
       id="path817-6-5"
       transform="translate(0,1058.5197)"
       d="M 32,18 A 14,14 0 0 0 18,32 14,14 0 0 0 32,46 14,14 0 0 0 46,32 14,14 0 0 0 32,18 Z m 0,6 a 8,8 0 0 1 8,8 8,8 0 0 1 -8,8 8,8 0 0 1 -8,-8 8,8 0 0 1 8,-8 z"
       style="opacity:1;fill:#cccccc;fill-opacity:1;stroke:none;stroke-width:2.22904372;stroke-linecap:round;stroke-linejoin:round;stroke-miterlimit:4;stroke-dasharray:none;stroke-opacity:1" />
  </g>
</svg>
