<?xml version="1.0" encoding="UTF-8"?>
<svg version="1.1" viewBox="0 0 32 32" xmlns="http://www.w3.org/2000/svg" xmlns:cc="http://creativecommons.org/ns#" xmlns:dc="http://purl.org/dc/elements/1.1/" xmlns:rdf="http://www.w3.org/1999/02/22-rdf-syntax-ns#">
<defs>
<radialGradient id="f" cx="16" cy="17" r="10" gradientTransform="translate(0,-5)" gradientUnits="userSpaceOnUse">
<stop stop-color="#999" offset="0"/>
<stop stop-color="#c0bfbc" offset=".6"/>
<stop stop-color="#deddda" offset=".9"/>
<stop stop-color="#c0bfbc" offset="1"/>
</radialGradient>
<linearGradient id="e" x1="6" x2="26" y1="15" y2="15" gradientUnits="userSpaceOnUse">
<stop stop-color="#c0bfbc" offset="0"/>
<stop stop-color="#deddda" offset=".05"/>
<stop stop-color="#c0bfbc" offset=".2"/>
<stop stop-color="#c0bfbc" offset=".8"/>
<stop stop-color="#deddda" offset=".95"/>
<stop stop-color="#c0bfbc" offset="1"/>
</linearGradient>
<linearGradient id="d" x1="26" x2="26" y1="28" y2="14" gradientUnits="userSpaceOnUse">
<stop stop-color="#e5a50a" offset="0"/>
<stop stop-color="#e5a50a" stop-opacity="0" offset="1"/>
</linearGradient>
</defs>
<metadata>
<rdf:RDF>
<cc:Work rdf:about="">
<dc:format>image/svg+xml</dc:format>
<dc:type rdf:resource="http://purl.org/dc/dcmitype/StillImage"/>
<dc:creator>
<cc:Agent>
<dc:title>Jakub Steiner</dc:title>
</cc:Agent>
</dc:creator>
<dc:source>http://jimmac.musichall.cz</dc:source>
<cc:license rdf:resource="http://creativecommons.org/licenses/by-sa/2.0/"/>
<dc:title/>
<dc:subject>
<rdf:Bag>
<rdf:li>apparmor</rdf:li>
<rdf:li>novell</rdf:li>
</rdf:Bag>
</dc:subject>
</cc:Work>
<cc:License rdf:about="http://creativecommons.org/licenses/by-sa/2.0/">
<cc:permits rdf:resource="http://web.resource.org/cc/Reproduction"/>
<cc:permits rdf:resource="http://web.resource.org/cc/Distribution"/>
<cc:requires rdf:resource="http://web.resource.org/cc/Notice"/>
<cc:requires rdf:resource="http://web.resource.org/cc/Attribution"/>
<cc:permits rdf:resource="http://web.resource.org/cc/DerivativeWorks"/>
<cc:requires rdf:resource="http://web.resource.org/cc/ShareAlike"/>
</cc:License>
</rdf:RDF>
</metadata>
<path d="m6 12v2h4v-2h-4zm16 0v2h4v-2h-4z" fill="url(#e)"/>
<rect x="4" y="14" width="24" height="16" ry="1" fill="#e5a50a"/>
<path d="m16 2c-5.54 0-10 4.46-10 10h4c0-3.324 2.676-6 6-6s6 2.676 6 6h4c0-5.54-4.46-10-10-10z" fill="url(#f)"/>
<rect x="4" y="14" width="24" height="14" ry="1" fill="#f6d32d"/>
<path d="m4 16v2h4v-2h-4zm20 0v2h4v-2h-4zm-20 4v2h4v-2h-4zm20 0v2h4v-2h-4zm-20 4v2h4v-2h-4zm20 0v2h4v-2h-4z" fill="url(#d)"/>
</svg>
