<?xml version="1.0" encoding="UTF-8"?>
<svg width="32" height="32" version="1.1" viewBox="0 0 32 32.000002" xmlns="http://www.w3.org/2000/svg" xmlns:cc="http://creativecommons.org/ns#" xmlns:dc="http://purl.org/dc/elements/1.1/" xmlns:rdf="http://www.w3.org/1999/02/22-rdf-syntax-ns#">
<defs>
<linearGradient id="e" x1="6" x2="15" y1="16" y2="16" gradientUnits="userSpaceOnUse">
<stop stop-color="#9a9996" offset="0"/>
<stop stop-color="#c0bfbc" offset="1"/>
</linearGradient>
<linearGradient id="f" x1="6" x2="14" y1="19.5" y2="19.5" gradientUnits="userSpaceOnUse">
<stop stop-color="#77767b" offset="0"/>
<stop stop-color="#77767b" offset=".064519"/>
<stop stop-color="#9a9996" offset=".32259"/>
<stop stop-color="#77767b" offset=".58067"/>
<stop stop-color="#77767b" offset="1"/>
</linearGradient>
<linearGradient id="d" x1="10" x2="30" y1="20" y2="20" gradientUnits="userSpaceOnUse">
<stop stop-color="#c0bfbc" offset="0"/>
<stop stop-color="#c0bfbc" offset=".14286"/>
<stop stop-color="#deddda" offset=".25"/>
<stop stop-color="#c0bfbc" stop-opacity=".93852" offset=".5"/>
<stop stop-color="#c0bfbc" stop-opacity=".98361" offset="1"/>
</linearGradient>
</defs>
<metadata>
<rdf:RDF>
<cc:Work rdf:about="">
<dc:format>image/svg+xml</dc:format>
<dc:type rdf:resource="http://purl.org/dc/dcmitype/StillImage"/>
<dc:title/>
</cc:Work>
</rdf:RDF>
</metadata>
<path d="m20 10a10 10 0 0 0 -10 10 10 10 0 0 0 10 10 10 10 0 0 0 10 -10 10 10 0 0 0 -10 -10zm0 7a2 2 0 0 1 2 2 2 2 0 0 1 -2 2 2 2 0 0 1 -2 -2 2 2 0 0 1 2 -2z" fill="url(#d)"/>
<path d="m3 3c-0.554 0-1 0.446-1 1v13l3 3h13c0.554 0 1-0.446 1-1v-15c0-0.554-0.446-1-1-1z" fill="#241f31"/>
<circle cx="20.186" cy="1.6102" r="0" fill="#3d3846" fill-opacity=".9918"/>
<path d="m3 2c-0.554 0-1 0.446-1 1v13l3 3h13c0.554 0 1-0.446 1-1v-15c0-0.554-0.446-1-1-1z" fill="#3d3846"/>
<rect x="4" y="2" width="13" height="9" ry="0" fill="#f6f5f4"/>
<rect x="4" y="2" width="13" height="2" fill="#e01b24"/>
<rect x="6" y="13" width="9" height="6" fill="url(#e)"/>
<rect x="6" y="19" width="8" height="1" fill="url(#f)"/>
<rect x="7" y="14" width="3" height="4" fill="#3d3846"/>
<rect x="7" y="14" width="3" height="1" fill="#9a9996"/>
<rect x="4" y="11" width="13" height="1" fill="#241f31"/>
<rect x="5" y="6" width="11" height="1" fill="#c0bfbc"/>
<rect x="5" y="9" width="11" height="1" fill="#c0bfbc"/>
<path d="m20 9a10 10 0 0 0 -10 10 10 10 0 0 0 10 10 10 10 0 0 0 10 -10 10 10 0 0 0 -10 -10zm0 5a5 5 0 0 1 5 5 5 5 0 0 1 -5 5 5 5 0 0 1 -5 -5 5 5 0 0 1 5 -5z" fill="#deddda"/>
<path d="m20 14a5 5 0 0 0 -5 5 5 5 0 0 0 5 5 5 5 0 0 0 5 -5 5 5 0 0 0 -5 -5zm0 3a2 2 0 0 1 2 2 2 2 0 0 1 -2 2 2 2 0 0 1 -2 -2 2 2 0 0 1 2 -2z" fill="#9d9c99"/>
<path d="m20 15a4 4 0 0 0 -4 4 4 4 0 0 0 4 4 4 4 0 0 0 4 -4 4 4 0 0 0 -4 -4zm0 2a2 2 0 0 1 2 2 2 2 0 0 1 -2 2 2 2 0 0 1 -2 -2 2 2 0 0 1 2 -2z" fill="#c0bfbc" fill-opacity=".94902"/>
<path d="m20 9v5a5 5 0 0 1 3.2285 1.1836l3.2246-3.8105a10 10 0 0 0 -6.4531 -2.373zm-3.0449 13.957l-3.0488 3.9648a10 10 0 0 0 6.0938 2.0781v-5a5 5 0 0 1 -3.0449 -1.043z" fill="#f6f5f4" opacity=".5"/>
</svg>
