<?xml version="1.0" encoding="UTF-8"?>
<svg width="32" height="32" version="1.1" viewBox="0 0 32 32.000002" xmlns="http://www.w3.org/2000/svg" xmlns:cc="http://creativecommons.org/ns#" xmlns:dc="http://purl.org/dc/elements/1.1/" xmlns:rdf="http://www.w3.org/1999/02/22-rdf-syntax-ns#">
<metadata>
<rdf:RDF>
<cc:Work rdf:about="">
<dc:format>image/svg+xml</dc:format>
<dc:type rdf:resource="http://purl.org/dc/dcmitype/StillImage"/>
<dc:title/>
</cc:Work>
</rdf:RDF>
</metadata>
<rect x="12" y="27" width="8" height="3" ry="1" fill="#0997c5"/>
<rect x="4" y="28" width="24" height="1" ry="0" fill="#0997c5"/>
<rect x="24" y="20" width="5" height="5" ry="2" fill="#0997c5"/>
<rect x="4" y="3" width="10" height="22" ry="2" fill="#0bbaf4"/>
<rect x="4" y="5" width="25" height="19" ry="2" fill="#0bbaf4"/>
<rect x="4" y="11" width="10" height="14" ry="2" fill="#e6e6e6"/>
<rect x="8" y="11" width="18.5" height="14" ry="0" fill="#e6e6e6"/>
<rect x="4" y="24" width="22.5" height="1" fill="#0997c5"/>
<rect x="15" y="9" width="14" height="15" ry="2" fill="#e6e6e6"/>
<rect x="4" y="19.5" width="13" height="4.5" ry="0" fill="#e6e6e6"/>
<rect x="15" y="24" width="2" height="3" fill="#0bbaf4"/>
<rect x="12" y="26" width="8" height="3" ry="1" fill="#0bbaf4"/>
<rect x="4" y="27" width="24" height="1" ry="0" fill="#0bbaf4"/>
<rect x="16" y="16" width="16" height="16" ry="1" fill="#f6f5f4"/>
<rect x="18" y="18" width="5" height="5" ry="0" fill="#3d3846"/>
<rect x="25" y="18" width="5" height="5" fill="#3d3846"/>
<rect x="18" y="25" width="5" height="5" fill="#3d3846"/>
<rect x="25" y="25" width="5" height="5" fill="#3d3846"/>
</svg>
