<?xml version="1.0" encoding="UTF-8"?>
<svg version="1" viewBox="0 0 32 32" xmlns="http://www.w3.org/2000/svg" xmlns:cc="http://creativecommons.org/ns#" xmlns:dc="http://purl.org/dc/elements/1.1/" xmlns:rdf="http://www.w3.org/1999/02/22-rdf-syntax-ns#">
<metadata>
<rdf:RDF>
<cc:Work rdf:about="">
<dc:format>image/svg+xml</dc:format>
<dc:type rdf:resource="http://purl.org/dc/dcmitype/StillImage"/>
<dc:title/>
</cc:Work>
</rdf:RDF>
</metadata>
<defs>
<linearGradient id="d" x1="16" x2="16" y1="7.0449" y2="24.957" gradientUnits="userSpaceOnUse">
<stop stop-color="#fff" offset="0"/>
<stop stop-color="#f6f5f4" offset="1"/>
</linearGradient>
<linearGradient id="e" x1="16" x2="16" y1="7" y2="24.957" gradientUnits="userSpaceOnUse">
<stop stop-color="#9a9996" offset="0"/>
<stop stop-color="#77767b" offset="1"/>
</linearGradient>
<linearGradient id="f" x1="16" x2="16" y1="26" y2="6" gradientUnits="userSpaceOnUse">
<stop offset="0"/>
<stop stop-color="#241f31" offset="1"/>
</linearGradient>
</defs>
<rect x="3" y="4" width="26" height="26" ry="0" fill="#b5835a"/>
<rect x="3" y="3" width="26" height="26" ry="0" fill="#cdab8f"/>
<rect x="3" y="3" width="12" height="4" ry="0" fill="#a51d2d"/>
<rect x="17" y="3" width="12" height="4" ry="0" fill="#a51d2d"/>
<rect x="10" y="9.5" width="12" height="4.5" ry="0" fill="#a51d2d"/>
<rect x="24" y="9" width="5" height="5" ry="0" fill="#a51d2d"/>
<rect x="3" y="9" width="5" height="5" ry="0" fill="#a51d2d"/>
<rect x="3" y="2" width="12" height="4" ry="0" fill="#e01b24"/>
<rect x="17" y="2" width="12" height="4" ry="0" fill="#e01b24"/>
<rect x="10" y="9" width="12" height="4" ry="0" fill="#e01b24"/>
<rect x="24" y="9" width="5" height="4" ry="0" fill="#e01b24"/>
<rect x="3" y="9" width="5" height="4" ry="0" fill="#e01b24"/>
<rect x="3" y="17" width="12" height="4" ry="0" fill="#a51d2d"/>
<rect x="17" y="17" width="12" height="4" ry="0" fill="#a51d2d"/>
<rect x="10" y="23.5" width="12" height="4.5" ry="0" fill="#a51d2d"/>
<rect x="24" y="24" width="5" height="4" ry="0" fill="#a51d2d"/>
<rect x="3" y="24" width="5" height="4" ry="0" fill="#a51d2d"/>
<rect x="3" y="16" width="12" height="4" ry="0" fill="#e01b24"/>
<rect x="17" y="16" width="12" height="4" ry="0" fill="#e01b24"/>
<rect x="10" y="23" width="12" height="4" ry="0" fill="#e01b24"/>
<rect x="24" y="23" width="5" height="4" ry="0" fill="#e01b24"/>
<path d="m16 6c-2 1.5-7.0742 3.0449-10 2 0.32714 7.9808 1.6471 15.327 10 18.043 8.3529-2.716 9.6729-10.062 10-18.043-2.9258 1.0449-8-0.5-10-2z" fill="url(#f)"/>
<rect x="3" y="23" width="5" height="4" ry="0" fill="#e01b24"/>
<path d="m16 7.0449c-1.1701 0.7417-2.7016 1.3954-4.4336 1.8027-1.5095 0.35497-3.0516 0.41513-4.502 0.21094 0.19808 3.5075 0.61162 6.8261 1.8047 9.502 1.2887 2.8904 3.3912 5.0953 7.1309 6.3965 3.7397-1.3012 5.8421-3.5061 7.1309-6.3965 1.1931-2.6759 1.6066-5.9945 1.8047-9.502-1.4504 0.20419-2.9925 0.14404-4.502-0.21094-1.732-0.4073-3.2635-1.061-4.4336-1.8027z" fill="url(#d)"/>
<path d="m16 7v17.912c3.7397-1.3012 5.8421-3.5061 7.1309-6.3965 1.1931-2.6759 1.6066-5.9945 1.8047-9.502-1.4504 0.20419-2.9925 0.14404-4.502-0.21094-1.732-0.4073-3.2635-1.061-4.4336-1.8027z" fill="url(#e)"/>
</svg>
