<?xml version="1.0" encoding="UTF-8" standalone="no"?>
<!-- Created with Inkscape (http://www.inkscape.org/) -->
<svg
   xmlns:dc="http://purl.org/dc/elements/1.1/"
   xmlns:cc="http://web.resource.org/cc/"
   xmlns:rdf="http://www.w3.org/1999/02/22-rdf-syntax-ns#"
   xmlns:svg="http://www.w3.org/2000/svg"
   xmlns="http://www.w3.org/2000/svg"
   xmlns:xlink="http://www.w3.org/1999/xlink"
   xmlns:sodipodi="http://sodipodi.sourceforge.net/DTD/sodipodi-0.dtd"
   xmlns:inkscape="http://www.inkscape.org/namespaces/inkscape"
   width="48"
   height="48"
   id="svg7854"
   sodipodi:version="0.32"
   inkscape:version="0.45+devel"
   version="1.0"
   sodipodi:docbase="/home/jimmac/gfx/ximian/art/icons/virtualisation/out/scalable"
   sodipodi:docname="yast-vm-doman0-setup.svg"
   inkscape:output_extension="org.inkscape.output.svg.inkscape">
  <defs
     id="defs7856">
    <filter
       inkscape:collect="always"
       x="-0.10248447"
       width="1.2049689"
       y="-0.63461537"
       height="2.2692307"
       id="filter8900">
      <feGaussianBlur
         inkscape:collect="always"
         stdDeviation="1.4584078"
         id="feGaussianBlur8902" />
    </filter>
    <linearGradient
       id="linearGradient6732">
      <stop
         id="stop6734"
         offset="0"
         style="stop-color:#ffffff;stop-opacity:1;" />
      <stop
         id="stop6736"
         offset="1"
         style="stop-color:#dddddd;stop-opacity:1;" />
    </linearGradient>
    <linearGradient
       inkscape:collect="always"
       xlink:href="#linearGradient6732"
       id="linearGradient7835"
       gradientUnits="userSpaceOnUse"
       gradientTransform="matrix(0.656637,0,0,0.59948,-80.797025,23.547075)"
       x1="16.25"
       y1="12.25"
       x2="31.5"
       y2="36.625" />
    <linearGradient
       y2="248.6311"
       x2="153.0005"
       y1="15.4238"
       x1="99.7773"
       gradientTransform="matrix(0.200685,0,0,0.200685,-54.33576,-1.050787)"
       gradientUnits="userSpaceOnUse"
       id="linearGradient3773"
       xlink:href="#aigrd1"
       inkscape:collect="always" />
    <linearGradient
       y2="39.684914"
       x2="34.534348"
       y1="12.284524"
       x1="14.462892"
       gradientTransform="matrix(1.241935,0,0,1.241935,-5.027508,-7.208988)"
       gradientUnits="userSpaceOnUse"
       id="linearGradient3760"
       xlink:href="#linearGradient3264"
       inkscape:collect="always" />
    <radialGradient
       inkscape:collect="always"
       xlink:href="#linearGradient2300"
       id="radialGradient2308"
       gradientTransform="matrix(1.399258,-2.234445e-7,8.196178e-8,0.513264,4.365074,4.839285)"
       cx="14.287618"
       cy="68.872971"
       fx="14.287618"
       fy="72.568001"
       r="11.689870"
       gradientUnits="userSpaceOnUse" />
    <linearGradient
       gradientTransform="matrix(0.200685,0.000000,0.000000,0.200685,-0.585758,-1.050787)"
       y2="248.6311"
       x2="153.0005"
       y1="15.4238"
       x1="99.7773"
       gradientUnits="userSpaceOnUse"
       id="linearGradient53551"
       xlink:href="#aigrd1"
       inkscape:collect="always" />
    <linearGradient
       y2="248.6311"
       x2="153.0005"
       y1="15.4238"
       x1="99.7773"
       gradientUnits="userSpaceOnUse"
       id="aigrd1">
      <stop
         id="stop53300"
         style="stop-color:#184375"
         offset="0" />
      <stop
         id="stop53302"
         style="stop-color:#C8BDDC"
         offset="1" />
    </linearGradient>
    <linearGradient
       id="linearGradient2300">
      <stop
         style="stop-color:#000000;stop-opacity:0.32673267;"
         offset="0.0000000"
         id="stop2302" />
      <stop
         style="stop-color:#000000;stop-opacity:0;"
         offset="1"
         id="stop2304" />
    </linearGradient>
    <linearGradient
       gradientTransform="matrix(1.241935,0,0,1.241935,-5.027508,-7.208988)"
       y2="39.684914"
       x2="34.534348"
       y1="12.284524"
       x1="14.462892"
       gradientUnits="userSpaceOnUse"
       id="linearGradient3281"
       xlink:href="#linearGradient3264"
       inkscape:collect="always" />
    <linearGradient
       id="linearGradient3264">
      <stop
         id="stop3266"
         offset="0"
         style="stop-color:#c9c9c9;stop-opacity:1;" />
      <stop
         style="stop-color:#f8f8f8;stop-opacity:1;"
         offset="0.25"
         id="stop3276" />
      <stop
         style="stop-color:#e2e2e2;stop-opacity:1;"
         offset="0.5"
         id="stop3272" />
      <stop
         id="stop3274"
         offset="0.75"
         style="stop-color:#b0b0b0;stop-opacity:1;" />
      <stop
         id="stop3268"
         offset="1"
         style="stop-color:#c9c9c9;stop-opacity:1;" />
    </linearGradient>
  </defs>
  <sodipodi:namedview
     id="base"
     pagecolor="#ffffff"
     bordercolor="#e0e0e0"
     borderopacity="1"
     gridtolerance="10000"
     guidetolerance="10"
     objecttolerance="10"
     inkscape:pageopacity="0.0"
     inkscape:pageshadow="2"
     inkscape:zoom="1"
     inkscape:cx="30.857143"
     inkscape:cy="35.285714"
     inkscape:document-units="px"
     inkscape:current-layer="layer1"
     width="48px"
     height="48px"
     inkscape:showpageshadow="false"
     inkscape:window-width="872"
     inkscape:window-height="623"
     inkscape:window-x="466"
     inkscape:window-y="343" />
  <metadata
     id="metadata7859">
    <rdf:RDF>
      <cc:Work
         rdf:about="">
        <dc:format>image/svg+xml</dc:format>
        <dc:type
           rdf:resource="http://purl.org/dc/dcmitype/StillImage" />
        <dc:creator>
          <cc:Agent>
            <dc:title>Jakub Steiner</dc:title>
          </cc:Agent>
        </dc:creator>
        <dc:source>http://jimmac.musichall.cz</dc:source>
        <cc:license
           rdf:resource="http://creativecommons.org/licenses/by-sa/2.5/" />
      </cc:Work>
      <cc:License
         rdf:about="http://creativecommons.org/licenses/by-sa/2.5/">
        <cc:permits
           rdf:resource="http://web.resource.org/cc/Reproduction" />
        <cc:permits
           rdf:resource="http://web.resource.org/cc/Distribution" />
        <cc:requires
           rdf:resource="http://web.resource.org/cc/Notice" />
        <cc:requires
           rdf:resource="http://web.resource.org/cc/Attribution" />
        <cc:permits
           rdf:resource="http://web.resource.org/cc/DerivativeWorks" />
        <cc:requires
           rdf:resource="http://web.resource.org/cc/ShareAlike" />
      </cc:License>
    </rdf:RDF>
  </metadata>
  <g
     inkscape:label="Layer 1"
     inkscape:groupmode="layer"
     id="layer1">
    <g
       id="g6010"
       transform="translate(-0.35714,0.8750119)">
      <g
         id="layer2"
         inkscape:label="shadow">
        <path
           sodipodi:type="arc"
           style="color:#000000;fill:url(#radialGradient2308);fill-opacity:1;fill-rule:evenodd;stroke:none;stroke-width:0.50000042;stroke-linecap:round;stroke-linejoin:miter;marker:none;marker-start:none;marker-mid:none;marker-end:none;stroke-miterlimit:4;stroke-dashoffset:0;stroke-opacity:1;visibility:visible;display:inline;overflow:visible"
           id="path1538"
           sodipodi:cx="24.357143"
           sodipodi:cy="38.714287"
           sodipodi:rx="19.928572"
           sodipodi:ry="9.837245"
           d="M 44.285715,38.714287 A 19.928572,9.837245 0 1 1 4.4285717,38.714287 A 19.928572,9.837245 0 1 1 44.285715,38.714287 z"
           transform="matrix(1.18638,0,0,1.18638,-4.539687,-7.794678)" />
      </g>
      <g
         inkscape:label="Layer 1"
         id="g6014">
        <path
           id="path3243"
           d="M 22.699525,0.94746963 C 22.22635,0.97984519 21.766437,1.0531317 21.301673,1.1063165 L 21.269903,1.1063165 L 20.157975,7.1742671 C 18.345621,7.5870046 16.640562,8.2874574 15.106644,9.2392765 L 10.118853,5.6493371 C 8.770521,6.6961412 7.543552,7.9170049 6.465374,9.2392765 L 9.928236,14.290607 C 8.876814,15.89739 8.086153,17.732094 7.640841,19.659632 C 7.640765,19.668743 7.640779,19.689813 7.640841,19.691401 L 1.60466,20.644482 C 1.494303,21.545851 1.445813,22.477386 1.445813,23.408418 C 1.445813,24.170171 1.466846,24.921747 1.541121,25.664043 L 7.577303,26.744202 C 8.0066,28.840363 8.822112,30.797987 9.960006,32.526228 L 6.370066,37.450482 C 7.398201,38.726866 8.585171,39.888962 9.864698,40.913343 L 14.947798,37.418712 C 16.724273,38.551956 18.707343,39.346604 20.856901,39.737877 L 21.809983,45.742288 C 22.487237,45.803935 23.181758,45.805827 23.874992,45.805827 C 24.853677,45.805826 25.788512,45.768738 26.734236,45.64698 L 27.877933,39.515491 C 29.91886,39.007587 31.836112,38.126493 33.501113,36.942172 L 38.393596,40.500342 C 39.662366,39.420897 40.822583,38.180154 41.824689,36.846863 L 38.266519,31.700225 C 39.230125,30.036028 39.897817,28.199859 40.23622,26.235892 L 46.240632,25.282811 C 46.29329,24.656221 46.30417,24.048546 46.30417,23.408418 C 46.30417,22.296018 46.174875,21.205317 46.018246,20.136172 L 39.918526,19.024244 C 39.440518,17.259164 38.656214,15.612364 37.662901,14.13176 L 41.25284,9.2075071 C 40.140075,7.8466524 38.870718,6.5895264 37.472284,5.5222596 L 32.293876,9.0804296 C 30.805549,8.200202 29.203897,7.5248159 27.464931,7.1424978 L 26.51185,1.1063165 C 25.644369,1.0042729 24.769749,0.94746963 23.874992,0.94746963 C 23.633166,0.94746964 23.384286,0.93986063 23.144296,0.94746963 C 23.027301,0.95117908 22.911525,0.94066346 22.794833,0.94746963 C 22.763228,0.94931296 22.73107,0.94531125 22.699525,0.94746963 z M 23.525529,16.387386 C 23.641592,16.381497 23.757473,16.387386 23.874992,16.387386 C 27.635598,16.387386 30.705408,19.457196 30.705408,23.217802 C 30.705409,26.978407 27.635597,30.016448 23.874992,30.016448 C 20.114387,30.016449 17.076346,26.978407 17.076346,23.217802 C 17.076347,19.574716 19.927558,16.569963 23.525529,16.387386 z"
           style="opacity:1;color:#000000;fill:url(#linearGradient3773);fill-opacity:1;fill-rule:nonzero;stroke:#3f4561;stroke-width:1;stroke-linecap:round;stroke-linejoin:round;marker:none;marker-start:none;marker-mid:none;marker-end:none;stroke-miterlimit:4;stroke-dasharray:none;stroke-dashoffset:0;stroke-opacity:1;visibility:visible;display:inline;overflow:visible"
           inkscape:r_cx="true"
           inkscape:r_cy="true" />
        <path
           transform="matrix(0.616598,0,0,0.616598,9.38202,8.539674)"
           d="M 36.239223,23.781593 A 12.727922,12.727922 0 1 1 10.783379,23.781593 A 12.727922,12.727922 0 1 1 36.239223,23.781593 z"
           sodipodi:ry="12.727922"
           sodipodi:rx="12.727922"
           sodipodi:cy="23.781593"
           sodipodi:cx="23.511301"
           id="path3283"
           style="opacity:0.64772728;color:#000000;fill:none;fill-opacity:1;fill-rule:nonzero;stroke:#ffffff;stroke-width:1.62180054;stroke-linecap:butt;stroke-linejoin:miter;marker:none;marker-start:none;marker-mid:none;marker-end:none;stroke-miterlimit:4;stroke-dasharray:none;stroke-dashoffset:0;stroke-opacity:1;visibility:visible;display:inline;overflow:visible"
           sodipodi:type="arc"
           inkscape:r_cx="true"
           inkscape:r_cy="true" />
        <path
           sodipodi:nodetypes="ccccccccccccccccccccccccccccccccc"
           style="opacity:0.34659089;color:#000000;fill:none;fill-opacity:1;fill-rule:nonzero;stroke:#ffffff;stroke-width:0.99999923;stroke-linecap:butt;stroke-linejoin:miter;marker:none;marker-start:none;marker-mid:none;marker-end:none;stroke-miterlimit:4;stroke-dasharray:none;stroke-dashoffset:0;stroke-opacity:1;visibility:visible;display:inline;overflow:visible"
           d="M 21.995808,2.1484671 L 21.103024,8.0235243 C 19.404254,8.4103946 16.279442,9.5936035 14.841657,10.485771 L 10.091975,6.9406268 C 8.828145,7.9218257 8.741474,7.9883656 7.730867,9.2277688 L 11.165063,14.320988 C 10.179537,15.827071 8.995796,18.510982 8.570778,20.42893 C 8.570778,20.42893 2.552988,21.443355 2.552988,21.443355 C 2.449547,22.288234 2.49926,24.096528 2.56888,24.792303 L 8.317097,25.82782 C 8.71949,27.79261 10.225324,30.955232 11.291904,32.575161 L 7.656902,37.377719 C 8.620601,38.57411 8.813474,38.683589 10.01281,39.64377 L 14.873441,36.082733 C 16.538581,37.144954 19.84373,38.437109 21.858571,38.80386 L 22.656299,44.604952 C 23.291109,44.662736 25.044829,44.824827 25.931283,44.710701 L 26.824066,38.671821 C 28.737084,38.195749 32.042539,36.838896 33.603191,35.728798 L 38.458624,39.236958 C 39.647878,38.225166 39.658533,38.072709 40.597835,36.822978 L 36.999815,31.708667 C 37.90303,30.148767 39.070902,27.098068 39.388097,25.257187 L 45.279046,24.279744 C 45.328399,23.692424 45.330802,22.054578 45.18399,21.052439 L 39.182092,20.016922 C 38.73404,18.362463 37.196418,15.381153 36.265359,13.993342 L 40.080075,9.1907857 C 39.037052,7.915218 38.64924,7.7402002 37.338448,6.7398212 L 32.313994,10.337839 C 30.918941,9.5127782 28.137095,8.2550417 26.507114,7.8966842 L 25.619528,2.1484671 C 24.806414,2.0528187 22.460488,2.0952921 21.995808,2.1484671 z"
           id="path3285"
           inkscape:r_cx="true"
           inkscape:r_cy="true" />
        <path
           sodipodi:nodetypes="cccccccccsccccccccccccccccccccsccccc"
           inkscape:r_cy="true"
           inkscape:r_cx="true"
           id="path3767"
           d="M 10.102903,6.2970655 C 8.7545689,7.3438694 8.1656464,7.9719226 7.0874684,9.2941942 L 10.489927,14.259153 C 9.4385072,15.857755 8.3316275,18.426114 8.1423859,19.987706 C 8.1423859,19.987706 2.0798859,21.0319 2.0798859,21.0319 C 2.0109129,21.595256 1.90625,22.884803 1.90625,22.884803 L 2.0830267,24.447303 C 2.5107567,24.535638 2.9231817,24.617818 3.3642767,24.666053 L 3.8642767,23.134803 C 4.2083177,23.163279 4.5439297,23.197303 4.8955267,23.197303 C 5.2467347,23.197303 5.6139847,23.163473 5.9580267,23.134803 L 6.4267767,24.666053 C 6.8680647,24.617818 7.3115487,24.535638 7.7392767,24.447303 L 7.7392767,22.884803 C 8.4250337,22.72518 9.0712777,22.497045 9.7080267,22.228553 L 10.645527,23.509803 C 11.047878,23.327709 11.421123,23.133984 11.801777,22.916053 L 11.301777,21.416053 C 11.89901,21.053803 12.463529,20.620706 12.989277,20.166053 L 14.270527,21.103553 C 14.596162,20.806973 14.91164,20.491691 15.208027,20.166053 L 14.270527,18.916053 C 14.725373,18.390305 15.127027,17.826171 15.489277,17.228553 L 16.989277,17.697303 C 17.207208,17.316456 17.432571,16.943209 17.614277,16.541053 L 16.333027,15.603553 C 16.601517,14.966804 16.798016,14.320561 16.958027,13.634803 L 18.551777,13.634803 C 18.640112,13.207076 18.691236,12.763591 18.739277,12.322303 L 17.239277,11.853553 C 17.268139,11.509705 17.301777,11.142456 17.301777,10.791053 C 17.301776,10.43965 17.267753,10.104039 17.239277,9.7598034 L 18.739277,9.2910534 C 18.69373,8.8711662 18.633686,8.4490548 18.551777,8.0410534 C 17.404349,8.4403544 15.999117,9.1941729 14.983265,9.8245243 L 10.102903,6.2970655 z"
           style="opacity:0.5;color:#000000;fill:#ffffff;fill-opacity:1;fill-rule:nonzero;stroke:none;stroke-width:1;stroke-linecap:butt;stroke-linejoin:miter;marker:none;marker-start:none;marker-mid:none;marker-end:none;stroke-miterlimit:4;stroke-dasharray:none;stroke-dashoffset:0;stroke-opacity:1;visibility:visible;display:inline;overflow:visible" />
        <path
           inkscape:r_cy="true"
           inkscape:r_cx="true"
           id="path3770"
           d="M 37.236641,17.217754 C 36.85286,17.39913 36.490003,17.603509 36.123236,17.813295 L 36.692886,19.548136 C 35.995792,19.970436 35.338156,20.467825 34.725008,20.998151 L 33.249099,19.910639 C 32.869013,20.256538 32.507327,20.618223 32.161588,20.998151 L 33.249099,22.474059 C 32.718773,23.087371 32.221547,23.745002 31.799084,24.441937 L 31.255328,24.260685 C 31.207646,24.960968 31.018949,25.62217 30.737466,26.228563 L 30.841038,26.306242 C 30.527881,27.048922 30.27649,27.83664 30.090137,28.636624 L 28.614229,28.636624 C 28.477946,28.722076 28.343676,28.821684 28.199938,28.895555 C 28.121568,29.310822 28.065026,29.712881 28.018687,30.138426 L 29.77942,30.708074 C 29.746033,31.10935 29.727633,31.515269 29.727633,31.925052 C 29.727631,32.334993 29.746034,32.740753 29.77942,33.142029 L 28.018687,33.711677 C 28.074705,34.226432 28.148678,34.740347 28.251725,35.239372 L 30.090137,35.213479 C 30.218255,35.763466 30.393202,36.320918 30.582107,36.844746 C 31.327023,36.557466 32.05594,36.214561 32.731236,35.809021 C 32.319649,34.59298 32.083908,33.279913 32.083908,31.925052 C 32.083909,26.727119 35.376289,22.288397 39.981313,20.583861 L 38.893802,20.402608 C 38.671014,19.579946 38.382478,18.774017 38.013435,18.020441 C 38.002581,17.998277 37.99851,17.96486 37.987542,17.942761 L 37.935756,17.890975 L 37.236641,17.217754 z"
           style="opacity:0.5;color:#000000;fill:#ffffff;fill-opacity:1;fill-rule:nonzero;stroke:none;stroke-width:1;stroke-linecap:butt;stroke-linejoin:miter;marker:none;marker-start:none;marker-mid:none;marker-end:none;stroke-miterlimit:4;stroke-dasharray:none;stroke-dashoffset:0;stroke-opacity:1;visibility:visible;display:inline;overflow:visible" />
      </g>
    </g>
    <rect
       style="opacity:0.50588229;color:#000000;fill:#000000;fill-opacity:1;fill-rule:nonzero;stroke:none;stroke-width:1;stroke-linecap:butt;stroke-linejoin:miter;marker:none;marker-start:none;marker-mid:none;marker-end:none;stroke-miterlimit:4;stroke-dasharray:none;stroke-dashoffset:0;stroke-opacity:1;visibility:visible;display:block;overflow:visible;filter:url(#filter8900);enable-background:accumulate"
       id="rect7837"
       width="28.461048"
       height="4.5961943"
       x="17.324116"
       y="38.29689"
       rx="2.2980971"
       ry="2.2980971" />
    <g
       id="g7818"
       transform="translate(96.670479,-5.3535533)">
      <rect
         ry="2.7500017"
         rx="2.7500012"
         y="28.942398"
         x="-78.170479"
         height="17.984398"
         width="26.019251"
         id="rect5857"
         style="color:#000000;fill:url(#linearGradient7835);fill-opacity:1;fill-rule:evenodd;stroke:#939393;stroke-width:1.0000006;stroke-linecap:butt;stroke-linejoin:miter;marker:none;marker-start:none;marker-mid:none;marker-end:none;stroke-miterlimit:4;stroke-dasharray:none;stroke-dashoffset:0;stroke-opacity:1;visibility:visible;display:inline;overflow:visible" />
      <rect
         style="color:#000000;fill:none;fill-opacity:1;fill-rule:evenodd;stroke:#ffffff;stroke-width:1.00000036;stroke-linecap:butt;stroke-linejoin:miter;marker:none;marker-start:none;marker-mid:none;marker-end:none;stroke-miterlimit:4;stroke-dasharray:none;stroke-dashoffset:0;stroke-opacity:1;visibility:visible;display:inline;overflow:visible"
         id="rect6740"
         width="24.165012"
         height="15.992508"
         x="-77.245796"
         y="29.936529"
         rx="1.7500006"
         ry="1.7500004" />
      <rect
         ry="0"
         rx="0"
         y="40.535492"
         x="-75.732292"
         height="2.9636221"
         width="1.0220398"
         id="rect7003"
         style="opacity:0.48538011;color:#000000;fill:#000000;fill-opacity:1;fill-rule:evenodd;stroke:none;stroke-width:1;stroke-linecap:butt;stroke-linejoin:miter;marker:none;marker-start:none;marker-mid:none;marker-end:none;stroke-miterlimit:4;stroke-dasharray:none;stroke-dashoffset:0;stroke-opacity:1;visibility:visible;display:inline;overflow:visible" />
      <rect
         y="40.499115"
         x="-73.732292"
         height="2.0000007"
         width="1"
         id="rect7017"
         style="opacity:0.48538011;color:#000000;fill:#000000;fill-opacity:1;fill-rule:evenodd;stroke:none;stroke-width:1;stroke-linecap:butt;stroke-linejoin:miter;marker:none;marker-start:none;marker-mid:none;marker-end:none;stroke-miterlimit:4;stroke-dasharray:none;stroke-dashoffset:0;stroke-opacity:1;visibility:visible;display:inline;overflow:visible" />
      <rect
         y="40.535492"
         x="-55.732296"
         height="2.963623"
         width="0.97153217"
         id="rect7031"
         style="opacity:0.48538011;color:#000000;fill:#000000;fill-opacity:1;fill-rule:evenodd;stroke:none;stroke-width:1;stroke-linecap:butt;stroke-linejoin:miter;marker:none;marker-start:none;marker-mid:none;marker-end:none;stroke-miterlimit:4;stroke-dasharray:none;stroke-dashoffset:0;stroke-opacity:1;visibility:visible;display:inline;overflow:visible" />
      <rect
         style="opacity:0.48538011;color:#000000;fill:#000000;fill-opacity:1;fill-rule:evenodd;stroke:none;stroke-width:1;stroke-linecap:butt;stroke-linejoin:miter;marker:none;marker-start:none;marker-mid:none;marker-end:none;stroke-miterlimit:4;stroke-dasharray:none;stroke-dashoffset:0;stroke-opacity:1;visibility:visible;display:inline;overflow:visible"
         id="rect21001"
         width="1"
         height="2.0000007"
         x="-71.732292"
         y="40.499115" />
      <rect
         y="40.499115"
         x="-69.732292"
         height="2.0000007"
         width="2.0354064"
         id="rect21003"
         style="opacity:0.48538011;color:#000000;fill:#000000;fill-opacity:1;fill-rule:evenodd;stroke:none;stroke-width:1;stroke-linecap:butt;stroke-linejoin:miter;marker:none;marker-start:none;marker-mid:none;marker-end:none;stroke-miterlimit:4;stroke-dasharray:none;stroke-dashoffset:0;stroke-opacity:1;visibility:visible;display:inline;overflow:visible" />
      <rect
         style="opacity:0.48538011;color:#000000;fill:#000000;fill-opacity:1;fill-rule:evenodd;stroke:none;stroke-width:1;stroke-linecap:butt;stroke-linejoin:miter;marker:none;marker-start:none;marker-mid:none;marker-end:none;stroke-miterlimit:4;stroke-dasharray:none;stroke-dashoffset:0;stroke-opacity:1;visibility:visible;display:inline;overflow:visible"
         id="rect21005"
         width="1.035408"
         height="2.0000007"
         x="-65.767693"
         y="40.499115" />
      <rect
         y="40.499115"
         x="-63.767696"
         height="2.0000007"
         width="1.035408"
         id="rect21007"
         style="opacity:0.48538011;color:#000000;fill:#000000;fill-opacity:1;fill-rule:evenodd;stroke:none;stroke-width:1;stroke-linecap:butt;stroke-linejoin:miter;marker:none;marker-start:none;marker-mid:none;marker-end:none;stroke-miterlimit:4;stroke-dasharray:none;stroke-dashoffset:0;stroke-opacity:1;visibility:visible;display:inline;overflow:visible" />
      <rect
         style="opacity:0.48538011;color:#000000;fill:#000000;fill-opacity:1;fill-rule:evenodd;stroke:none;stroke-width:1;stroke-linecap:butt;stroke-linejoin:miter;marker:none;marker-start:none;marker-mid:none;marker-end:none;stroke-miterlimit:4;stroke-dasharray:none;stroke-dashoffset:0;stroke-opacity:1;visibility:visible;display:inline;overflow:visible"
         id="rect21009"
         width="1.035408"
         height="2.0000007"
         x="-60.767696"
         y="40.499115" />
      <rect
         y="40.499115"
         x="-58.767696"
         height="2.0000007"
         width="2.035408"
         id="rect21011"
         style="opacity:0.48538011;color:#000000;fill:#000000;fill-opacity:1;fill-rule:evenodd;stroke:none;stroke-width:1;stroke-linecap:butt;stroke-linejoin:miter;marker:none;marker-start:none;marker-mid:none;marker-end:none;stroke-miterlimit:4;stroke-dasharray:none;stroke-dashoffset:0;stroke-opacity:1;visibility:visible;display:inline;overflow:visible" />
      <path
         id="text21021"
         d="M -73.751325,37.822054 L -74.333695,37.822054 L -74.333695,34.166051 L -75.430795,34.551358 L -75.430795,34.027811 L -73.751325,33.436615 L -73.751325,37.822054 M -70.733575,33.504264 C -70.286505,33.504269 -69.956105,33.684667 -69.742375,34.045459 C -69.528645,34.404297 -69.421775,34.950393 -69.421775,35.683748 C -69.421775,36.403381 -69.546285,36.954379 -69.795315,37.336744 C -70.044345,37.717148 -70.393375,37.907351 -70.842405,37.907351 C -71.265955,37.907351 -71.599295,37.724992 -71.842435,37.360274 C -72.083625,36.995557 -72.204215,36.47103 -72.204215,35.786693 C -72.204215,35.01216 -72.071855,34.438612 -71.807145,34.066048 C -71.540475,33.69153 -71.182615,33.504269 -70.733575,33.504264 M -70.786525,37.436747 C -70.523775,37.436747 -70.321805,37.293605 -70.180615,37.007321 C -70.039445,36.719077 -69.968855,36.295534 -69.968845,35.736691 C -69.968855,35.097457 -70.039445,34.646462 -70.180615,34.383705 C -70.319845,34.120955 -70.517885,33.989578 -70.774755,33.989574 C -71.063005,33.989578 -71.278695,34.138603 -71.421835,34.436648 C -71.564985,34.732739 -71.636555,35.176871 -71.636555,35.769045 C -71.636555,36.316123 -71.564005,36.730842 -71.418895,37.013204 C -71.273795,37.295566 -71.063005,37.436747 -70.786525,37.436747 M -68.409975,37.148502 C -68.311935,37.148503 -68.227615,37.184778 -68.157025,37.257329 C -68.084475,37.329881 -68.048195,37.416158 -68.048195,37.516161 C -68.048195,37.614204 -68.083495,37.69852 -68.154085,37.769111 C -68.224675,37.839701 -68.309975,37.874997 -68.409975,37.874997 C -68.508015,37.874997 -68.593315,37.839701 -68.665865,37.769111 C -68.736455,37.69852 -68.771755,37.614204 -68.771755,37.516161 C -68.771755,37.416158 -68.736455,37.329881 -68.665865,37.257329 C -68.593315,37.184778 -68.508015,37.148503 -68.409975,37.148502 M -65.862835,33.504264 C -65.415755,33.504269 -65.085355,33.684667 -64.871625,34.045459 C -64.657895,34.404297 -64.551025,34.950393 -64.551025,35.683748 C -64.551025,36.403381 -64.675535,36.954379 -64.924565,37.336744 C -65.173595,37.717148 -65.522625,37.907351 -65.971655,37.907351 C -66.395205,37.907351 -66.728545,37.724992 -66.971695,37.360274 C -67.212875,36.995557 -67.333465,36.47103 -67.333465,35.786693 C -67.333465,35.01216 -67.201115,34.438612 -66.936395,34.066048 C -66.669725,33.69153 -66.311865,33.504269 -65.862835,33.504264 M -65.915775,37.436747 C -65.653025,37.436747 -65.451055,37.293605 -65.309875,37.007321 C -65.168695,36.719077 -65.098105,36.295534 -65.098105,35.736691 C -65.098105,35.097457 -65.168695,34.646462 -65.309875,34.383705 C -65.449095,34.120955 -65.647135,33.989578 -65.904005,33.989574 C -66.192255,33.989578 -66.407945,34.138603 -66.551085,34.436648 C -66.694235,34.732739 -66.765805,35.176871 -66.765805,35.769045 C -66.765805,36.316123 -66.693255,36.730842 -66.548145,37.013204 C -66.403045,37.295566 -66.192255,37.436747 -65.915775,37.436747 M -63.539225,37.148502 C -63.441185,37.148503 -63.356865,37.184778 -63.286275,37.257329 C -63.213725,37.329881 -63.177445,37.416158 -63.177445,37.516161 C -63.177445,37.614204 -63.212745,37.69852 -63.283335,37.769111 C -63.353925,37.839701 -63.439225,37.874997 -63.539225,37.874997 C -63.637265,37.874997 -63.722565,37.839701 -63.795115,37.769111 C -63.865705,37.69852 -63.901005,37.614204 -63.901005,37.516161 C -63.901005,37.416158 -63.865705,37.329881 -63.795115,37.257329 C -63.722565,37.184778 -63.637265,37.148503 -63.539225,37.148502 M -60.992085,33.504264 C -60.545015,33.504269 -60.214605,33.684667 -60.000875,34.045459 C -59.787145,34.404297 -59.680275,34.950393 -59.680275,35.683748 C -59.680275,36.403381 -59.804795,36.954379 -60.053815,37.336744 C -60.302845,37.717148 -60.651875,37.907351 -61.100905,37.907351 C -61.524455,37.907351 -61.857795,37.724992 -62.100945,37.360274 C -62.342125,36.995557 -62.462715,36.47103 -62.462715,35.786693 C -62.462715,35.01216 -62.330365,34.438612 -62.065645,34.066048 C -61.798975,33.69153 -61.441115,33.504269 -60.992085,33.504264 M -61.045025,37.436747 C -60.782275,37.436747 -60.580305,37.293605 -60.439125,37.007321 C -60.297945,36.719077 -60.227355,36.295534 -60.227355,35.736691 C -60.227355,35.097457 -60.297945,34.646462 -60.439125,34.383705 C -60.578345,34.120955 -60.776395,33.989578 -61.033255,33.989574 C -61.321505,33.989578 -61.537195,34.138603 -61.680345,34.436648 C -61.823485,34.732739 -61.895055,35.176871 -61.895055,35.769045 C -61.895055,36.316123 -61.822505,36.730842 -61.677395,37.013204 C -61.532295,37.295566 -61.321505,37.436747 -61.045025,37.436747 M -58.668475,37.148502 C -58.570435,37.148503 -58.486115,37.184778 -58.415525,37.257329 C -58.342975,37.329881 -58.306695,37.416158 -58.306695,37.516161 C -58.306695,37.614204 -58.341995,37.69852 -58.412585,37.769111 C -58.483175,37.839701 -58.568475,37.874997 -58.668475,37.874997 C -58.766515,37.874997 -58.851815,37.839701 -58.924365,37.769111 C -58.994955,37.69852 -59.030255,37.614204 -59.030255,37.516161 C -59.030255,37.416158 -58.994955,37.329881 -58.924365,37.257329 C -58.851815,37.184778 -58.766515,37.148503 -58.668475,37.148502 M -55.821325,37.822054 L -56.403695,37.822054 L -56.403695,34.166051 L -57.500795,34.551358 L -57.500795,34.027811 L -55.821325,33.436615 L -55.821325,37.822054"
         style="font-size:6.02372789px;font-style:normal;font-variant:normal;font-weight:normal;font-stretch:normal;line-height:100%;writing-mode:lr-tb;text-anchor:start;fill:#000000;fill-opacity:1;stroke:none;stroke-width:1px;stroke-linecap:butt;stroke-linejoin:miter;stroke-opacity:1;font-family:Segoe" />
    </g>
  </g>
</svg>
