<?xml version="1.0" encoding="UTF-8"?>
<svg version="1" viewBox="0 0 32 32" xmlns="http://www.w3.org/2000/svg" xmlns:cc="http://creativecommons.org/ns#" xmlns:dc="http://purl.org/dc/elements/1.1/" xmlns:rdf="http://www.w3.org/1999/02/22-rdf-syntax-ns#">
<metadata>
<rdf:RDF>
<cc:Work rdf:about="">
<dc:format>image/svg+xml</dc:format>
<dc:type rdf:resource="http://purl.org/dc/dcmitype/StillImage"/>
<dc:title/>
</cc:Work>
</rdf:RDF>
</metadata>
<path d="m16 3a13 13 0 0 0 -13 13 13 13 0 0 0 13 13 13 13 0 0 0 13 -13 13 13 0 0 0 -13 -13z" fill="#3584e4"/>
<path d="m16 2a13 13 0 0 0 -13 13 13 13 0 0 0 13 13 13 13 0 0 0 13 -13 13 13 0 0 0 -13 -13z" fill="#1a5fb4"/>
<path d="m16 2c-1.7155 0.00132-3.4139 0.34217-4.9971 1.0029l0.99707 0.99707v1l2 2h1v-1.5l1.5-1v-1.5l1-0.5v-0.39746c-0.4976-0.063089-0.99844-0.097326-1.5-0.10254zm-7.082 2.1123c-3.6868 2.3951-5.9133 6.4913-5.918 10.888 0.00454 0.30546 0.019852 0.61066 0.045898 0.91504l2.9541 2.585v-1.5l-1-1.5 2-1.5 1.5 1v-2l2-1.5 1.5-2.5-1.5-1.5h-1.5l0.5 1.5h-2.5l-0.5-1 0.5-1v-1h2.5v-1.5zm14.582 0.3877-1.5 1.5v1h1v-1h2v2h-4v1h-1v1h-2v3h3v-2h2l1 2h1v-2h1l1 2h1v1h-10l-1 1.5 2.5 2.5 2.5 4 0.5 2.5 1.0615 1.0615c2.8485-2.0409 4.7524-5.1452 5.2803-8.6094l-2.3418-1.9521 0.5-0.5 1.9502 1.5605c0.031037-0.35269 0.047652-0.7065 0.049805-1.0605-0.006097-4.1557-1.9987-8.0581-5.3613-10.5zm-16 13.5l-1 1v2.5l2 2v2.0996c0.88531 0.63092 1.8463 1.1483 2.8604 1.54l0.63965-0.63965v-1l1.5-1.5v-1l1-1v-2l-1-1h-2l-1-1z" fill="#1c71d8"/>
</svg>
