<?xml version="1.0" encoding="UTF-8" standalone="no"?>
<svg
   xmlns:dc="http://purl.org/dc/elements/1.1/"
   xmlns:cc="http://creativecommons.org/ns#"
   xmlns:rdf="http://www.w3.org/1999/02/22-rdf-syntax-ns#"
   xmlns:svg="http://www.w3.org/2000/svg"
   xmlns="http://www.w3.org/2000/svg"
   width="64"
   height="64"
   viewBox="0 0 64 64.000003"
   version="1.1"
   id="svg8">
  <defs
     id="defs2" />
  <metadata
     id="metadata5">
    <rdf:RDF>
      <cc:Work
         rdf:about="">
        <dc:format>image/svg+xml</dc:format>
        <dc:type
           rdf:resource="http://purl.org/dc/dcmitype/StillImage" />
        <dc:title></dc:title>
      </cc:Work>
    </rdf:RDF>
  </metadata>
  <g
     transform="translate(0,-1058.5198)"
     id="layer1-3">
    <rect
       ry="4.0000467"
       y="1082.5197"
       x="12"
       height="35.999954"
       width="40"
       id="rect1937-9-6"
       style="opacity:1;fill:#666666;fill-opacity:1;stroke:none;stroke-width:3.64204574;stroke-linecap:round;stroke-linejoin:round;stroke-miterlimit:4;stroke-dasharray:none;stroke-opacity:1" />
    <rect
       ry="4.0000467"
       y="1062.5197"
       x="12"
       height="52.000076"
       width="40"
       id="rect1937-8-7"
       style="opacity:1;fill:#999999;fill-opacity:1;stroke:none;stroke-width:2.85705447;stroke-linecap:round;stroke-linejoin:round;stroke-miterlimit:4;stroke-dasharray:none;stroke-opacity:1" />
    <path
       style="fill:#808080;stroke:none;stroke-width:1px;stroke-linecap:butt;stroke-linejoin:miter;stroke-opacity:1"
       d="m 48,1086.5197 -2,2 2,2 v 16 l -4,4 H 20 l -4,-4 v -16 l 2,-2 -2,-2 v -16 l 4,-4 h 24 l 4,4 z"
       id="path854" />
    <path
       style="fill:#999999;fill-opacity:1;stroke:none;stroke-width:1px;stroke-linecap:butt;stroke-linejoin:miter;stroke-opacity:1"
       d="m 46,1071.5197 -3,-3 H 21 l -3,3 v 14 l 3,3 h 10.976048 l 0.02395,19 1,1 h 11 l 1.999998,-2 v -15 l -3,-3 3,-3 z"
       id="path856" />
    <rect
       style="opacity:1;fill:#ececec;fill-opacity:1;stroke:none;stroke-width:3.77952766;stroke-linecap:round;stroke-linejoin:round;stroke-miterlimit:4;stroke-dasharray:none;stroke-opacity:1"
       id="rect850"
       width="22"
       height="24"
       x="21"
       y="1072.5197"
       ry="0" />
    <path
       id="path1993-5"
       d="m 15,1064.5197 a 1,1 0 0 0 -1,1 1,1 0 0 0 1,1 1,1 0 0 0 1,-1 1,1 0 0 0 -1,-1 z m 34,0 a 1,1 0 0 0 -1,1 1,1 0 0 0 1,1 1,1 0 0 0 1,-1 1,1 0 0 0 -1,-1 z"
       style="opacity:1;fill:#666666;fill-opacity:1;stroke:none;stroke-width:3.77952766;stroke-linecap:round;stroke-linejoin:round;stroke-miterlimit:4;stroke-dasharray:none;stroke-opacity:1" />
    <path
       id="path1993-8-3"
       d="m 15,1110.5197 a 1,1 0 0 0 -1,1 1,1 0 0 0 1,1 1,1 0 0 0 1,-1 1,1 0 0 0 -1,-1 z m 34,0 a 1,1 0 0 0 -1,1 1,1 0 0 0 1,1 1,1 0 0 0 1,-1 1,1 0 0 0 -1,-1 z"
       style="opacity:1;fill:#666666;fill-opacity:1;stroke:none;stroke-width:3.77952766;stroke-linecap:round;stroke-linejoin:round;stroke-miterlimit:4;stroke-dasharray:none;stroke-opacity:1" />
    <rect
       y="1089.5197"
       x="22"
       height="1"
       width="20"
       id="rect2097-5"
       style="opacity:1;fill:#cccccc;fill-opacity:1;stroke:none;stroke-width:3.60363817;stroke-linecap:round;stroke-linejoin:round;stroke-miterlimit:4;stroke-dasharray:none;stroke-opacity:1" />
    <rect
       y="1091.5197"
       x="22"
       height="1"
       width="20"
       id="rect2099-6"
       style="opacity:1;fill:#cccccc;fill-opacity:1;stroke:none;stroke-width:3.60363817;stroke-linecap:round;stroke-linejoin:round;stroke-miterlimit:4;stroke-dasharray:none;stroke-opacity:1" />
    <rect
       y="1087.5197"
       x="22"
       height="1"
       width="20"
       id="rect2101-2"
       style="opacity:1;fill:#cccccc;fill-opacity:1;stroke:none;stroke-width:3.60363817;stroke-linecap:round;stroke-linejoin:round;stroke-miterlimit:4;stroke-dasharray:none;stroke-opacity:1" />
    <rect
       y="1085.5197"
       x="22"
       height="1"
       width="20"
       id="rect2101-4-9"
       style="opacity:1;fill:#cccccc;fill-opacity:1;stroke:none;stroke-width:3.60363817;stroke-linecap:round;stroke-linejoin:round;stroke-miterlimit:4;stroke-dasharray:none;stroke-opacity:1" />
    <rect
       y="1083.5197"
       x="22"
       height="1"
       width="20"
       id="rect2101-4-7-1"
       style="opacity:1;fill:#cccccc;fill-opacity:1;stroke:none;stroke-width:3.60363817;stroke-linecap:round;stroke-linejoin:round;stroke-miterlimit:4;stroke-dasharray:none;stroke-opacity:1" />
    <rect
       y="1081.5197"
       x="22"
       height="1"
       width="20"
       id="rect2101-4-6-2"
       style="opacity:1;fill:#cccccc;fill-opacity:1;stroke:none;stroke-width:3.60363817;stroke-linecap:round;stroke-linejoin:round;stroke-miterlimit:4;stroke-dasharray:none;stroke-opacity:1" />
    <rect
       y="1079.5197"
       x="22"
       height="1"
       width="20"
       id="rect2101-4-3-7"
       style="opacity:1;fill:#cccccc;fill-opacity:1;stroke:none;stroke-width:3.60363817;stroke-linecap:round;stroke-linejoin:round;stroke-miterlimit:4;stroke-dasharray:none;stroke-opacity:1" />
    <rect
       y="1074.5197"
       x="25"
       height="4.0000839"
       width="14"
       id="rect2101-4-1-0"
       style="opacity:1;fill:#c83737;fill-opacity:1;stroke:none;stroke-width:6.03010321;stroke-linecap:round;stroke-linejoin:round;stroke-miterlimit:4;stroke-dasharray:none;stroke-opacity:1" />
  </g>
  <circle
     style="opacity:1;fill:#2c89a0;fill-opacity:1;stroke:none;stroke-width:3.99987626;stroke-linecap:round;stroke-linejoin:round;stroke-miterlimit:4;stroke-dasharray:none;stroke-opacity:1"
     id="path910-0"
     cx="48"
     cy="49"
     r="14" />
  <circle
     style="opacity:1;fill:#37abc8;fill-opacity:1;stroke:none;stroke-width:3.99987626;stroke-linecap:round;stroke-linejoin:round;stroke-miterlimit:4;stroke-dasharray:none;stroke-opacity:1"
     id="path910"
     cx="48"
     cy="48.000004"
     r="14" />
  <path
     style="fill:#2c89a0;stroke:none;stroke-width:2.07055259px;stroke-linecap:butt;stroke-linejoin:miter;stroke-opacity:1"
     d="m 50.67949,36.999998 -5.359012,9.8e-5 -1e-6,1 0.08758,1.141938 c -1.078145,0.35383 -2.072078,0.925429 -2.920139,1.679336 l -1.808325,-1.141852 -2.679591,4.640989 -2e-6,0.999999 1.900979,-7.86e-4 c -0.230025,1.108758 -0.230243,2.252908 -6.39e-4,3.361752 l -1.90024,0.998045 -2e-6,1 2.679422,3.640893 1.809503,-1.143775 c 0.845886,0.755377 1.837893,1.328988 2.914543,1.685281 l -0.08306,2.138087 5.359008,-1.01e-4 -0.08758,-2.141935 c 1.078144,-0.353828 2.07208,-0.925428 2.920143,-1.679335 l 1.808325,1.141854 2.679589,-3.640995 10e-7,-0.999999 -1.900976,-0.999211 c 0.230024,-1.108758 0.23024,-2.252907 6.37e-4,-3.361751 l 1.900241,0.0019 5e-6,-1 -2.679418,-4.640895 -1.809505,1.143776 c -0.845884,-0.75537 -1.837893,-1.328981 -2.914545,-1.685273 l 0.08306,-1.138084 z M 49.071795,43 c 2.209138,0.591939 3.520137,2.862659 2.9282,5.071797 -0.591936,2.209139 -2.862657,3.520141 -5.071796,2.928204 -2.20914,-0.591938 -3.520141,-2.862659 -2.928203,-5.071799 0.03556,-0.133083 0.07774,-0.264307 0.126369,-0.393186 0.752589,-1.989913 2.890573,-3.085815 4.945505,-2.534998 z"
     id="path882-7" />
  <path
     style="fill:#ffffff;stroke:none;stroke-width:2.07055259px;stroke-linecap:butt;stroke-linejoin:miter;stroke-opacity:1"
     d="m 50.679489,37.999998 -5.359012,9.8e-5 0.08758,2.141938 a 8.2822111,8.2822111 0 0 0 -2.920139,1.679336 l -1.808325,-1.141852 -2.679591,4.640988 1.900977,0.999214 a 8.2822111,8.2822111 0 0 0 -6.39e-4,3.361752 l -1.90024,0.998045 2.67942,4.640893 1.809503,-1.143776 a 8.2822111,8.2822111 0 0 0 2.914543,1.685282 l -0.08306,2.138087 5.35901,-1.01e-4 -0.08758,-2.141935 a 8.2822111,8.2822111 0 0 0 2.920142,-1.679336 l 1.808327,1.141854 2.679588,-4.640994 -1.900975,-0.99921 a 8.2822111,8.2822111 0 0 0 6.37e-4,-3.361751 L 57.9999,45.320484 55.320482,40.679588 53.510977,41.823364 A 8.2822111,8.2822111 0 0 0 50.596428,40.138082 Z M 49.071794,44 a 4.1411057,4.1411057 0 0 1 2.9282,5.071796 4.1411057,4.1411057 0 0 1 -5.071796,2.928205 4.1411057,4.1411057 0 0 1 -2.928204,-5.071799 4.1411057,4.1411057 0 0 1 0.126369,-0.393187 4.1411057,4.1411057 0 0 1 4.945507,-2.534998 z"
     id="path882" />
</svg>
