<?xml version="1.0" encoding="UTF-8"?>
<svg width="32" height="32" version="1.1" viewBox="0 0 32 32.000002" xmlns="http://www.w3.org/2000/svg" xmlns:cc="http://creativecommons.org/ns#" xmlns:dc="http://purl.org/dc/elements/1.1/" xmlns:rdf="http://www.w3.org/1999/02/22-rdf-syntax-ns#">
<defs>
<linearGradient id="d" x1="10" x2="10" y1="3" y2="37" gradientTransform="matrix(.5 0 0 .5 -6.25e-8 5.5)" gradientUnits="userSpaceOnUse">
<stop stop-color="#acaba8" offset="0"/>
<stop stop-color="#cac9c6" offset="1"/>
</linearGradient>
<linearGradient id="e" x1="3" x2="29" y1="17" y2="17" gradientUnits="userSpaceOnUse">
<stop stop-color="#9a9996" offset="0"/>
<stop stop-color="#deddda" offset=".037101"/>
<stop stop-color="#9a9996" offset=".076507"/>
<stop stop-color="#9a9996" offset=".92289"/>
<stop stop-color="#deddda" offset=".96229"/>
<stop stop-color="#9a9996" offset="1"/>
</linearGradient>
<linearGradient id="f" x1="13.17" x2="13" y1="21" y2="11" gradientUnits="userSpaceOnUse">
<stop stop-color="#f6f5f4" offset="0"/>
<stop stop-color="#deddda" offset="1"/>
</linearGradient>
</defs>
<metadata>
<rdf:RDF>
<cc:Work rdf:about="">
<dc:format>image/svg+xml</dc:format>
<dc:type rdf:resource="http://purl.org/dc/dcmitype/StillImage"/>
<dc:title/>
</cc:Work>
</rdf:RDF>
</metadata>
<rect x="3" y="10" width="26" height="17" ry="2"/>
<rect x="3" y="8" width="26" height="17" ry="2" fill="url(#e)"/>
<rect x="3" y="7" width="26" height="17" ry="2" fill="url(#d)"/>
<rect x="27" y="22" width="1" height="1" ry=".5" fill="#77767b"/>
<rect x="27" y="8" width="1" height="1" ry=".5" fill="#77767b"/>
<rect x="13" y="8" width="1" height="1" ry=".5" fill="#77767b"/>
<rect x="5" y="8" width="1" height="1" ry=".5" fill="#77767b"/>
<rect x="5" y="22" width="1" height="1" ry=".5" fill="#77767b"/>
<rect x="13" y="22" width="1" height="1" ry=".5" fill="#77767b"/>
<path d="m8 9a1.0001 1.0001 0 0 0 -1 1c0 0.56413-0.43587 1-1 1a1.0001 1.0001 0 0 0 -1 1v8a1.0001 1.0001 0 0 0 1 1c0.56413 0 1 0.43587 1 1a1.0001 1.0001 0 0 0 1 1h3a1.0001 1.0001 0 0 0 1 -1c0-0.56346 0.43489-0.99897 0.99805-1 0.01065 3.46e-4 0.02158 0.0013 0.03125 2e-3a1.0001 1.0001 0 0 0 0.14062 -2e-3h1.6406c1.2858 1.2032 2.9617 1.9988 4.7246 2 1.8326 0 3.6534-0.75494 4.9492-2.0508s2.0508-3.1166 2.0508-4.9492-0.75494-3.6534-2.0508-4.9492c-1.2958-1.2958-3.1166-2.0508-4.9492-2.0508a1.0001 1.0001 0 0 0 -2e-3 0c-1.7604 0.00265-3.4325 0.79887-4.7168 2h-1.8164c-0.56413 0-1-0.43587-1-1a1.0001 1.0001 0 0 0 -1 -1z" fill="#acaba8"/>
<path transform="translate(0,-1)" d="m8 9a1.0001 1.0001 0 0 0 -1 1c0 0.56413-0.43587 1-1 1a1.0001 1.0001 0 0 0 -1 1v8a1.0001 1.0001 0 0 0 1 1c0.56413 0 1 0.43587 1 1a1.0001 1.0001 0 0 0 1 1h3a1.0001 1.0001 0 0 0 1 -1c0-0.56346 0.43489-0.99897 0.99805-1 0.01065 3.46e-4 0.02158 0.0013 0.03125 2e-3a1.0001 1.0001 0 0 0 0.14062 -2e-3h1.6406c1.2858 1.2032 2.9617 1.9988 4.7246 2 1.8326 0 3.6534-0.75494 4.9492-2.0508s2.0508-3.1166 2.0508-4.9492-0.75494-3.6534-2.0508-4.9492c-1.2958-1.2958-3.1166-2.0508-4.9492-2.0508a1.0001 1.0001 0 0 0 -2e-3 0c-1.7604 0.00265-3.4325 0.79887-4.7168 2h-1.8164c-0.56413 0-1-0.43587-1-1a1.0001 1.0001 0 0 0 -1 -1z" fill="url(#f)"/>
<rect x="18" y="12" width="4" height="4" ry="2" fill="#adaba7" fill-opacity=".9959"/>
<rect x="18" y="13" width="4" height="4" ry="2" fill="#cac9c6" fill-opacity=".9959"/>
<rect x="16" y="16" width="16" height="16" ry="1" fill="#f6f5f4"/>
<path d="m19 20 2-2h6l2 2v2h2l-3 3-3-3h2v-2h-6v2h-2z" fill="#3d3846"/>
<path d="m29 28-2 2h-6l-2-2v-2h-2l3-3 3 3h-2v2h6v-2h2z" fill="#3d3846"/>
</svg>
