<?xml version="1.0" encoding="UTF-8" standalone="no"?>
<svg
   xmlns:dc="http://purl.org/dc/elements/1.1/"
   xmlns:cc="http://creativecommons.org/ns#"
   xmlns:rdf="http://www.w3.org/1999/02/22-rdf-syntax-ns#"
   xmlns:svg="http://www.w3.org/2000/svg"
   xmlns="http://www.w3.org/2000/svg"
   xmlns:xlink="http://www.w3.org/1999/xlink"
   version="1.1"
   id="svg11300"
   height="48px"
   width="48px">
  <defs
     id="defs3">
    <linearGradient
       id="linearGradient5582">
      <stop
         id="stop5584"
         offset="0"
         style="stop-color:#000000;stop-opacity:1;" />
      <stop
         id="stop5586"
         offset="1"
         style="stop-color:#000000;stop-opacity:0;" />
    </linearGradient>
    <linearGradient
       id="linearGradient3881">
      <stop
         id="stop3883"
         offset="0"
         style="stop-color:#000000;stop-opacity:1;" />
      <stop
         id="stop3885"
         offset="1"
         style="stop-color:#000000;stop-opacity:0;" />
    </linearGradient>
    <linearGradient
       id="linearGradient3828">
      <stop
         id="stop3830"
         offset="0"
         style="stop-color:#ffffff;stop-opacity:1;" />
      <stop
         id="stop3832"
         offset="1"
         style="stop-color:#ffffff;stop-opacity:0;" />
    </linearGradient>
    <linearGradient
       id="linearGradient3820">
      <stop
         id="stop3822"
         offset="0"
         style="stop-color:#dbdbdb;stop-opacity:1;" />
      <stop
         id="stop3824"
         offset="1"
         style="stop-color:#b6b6b6;stop-opacity:1;" />
    </linearGradient>
    <linearGradient
       id="linearGradient3347">
      <stop
         id="stop3349"
         offset="0"
         style="stop-color:#cbcbcb;stop-opacity:1;" />
      <stop
         id="stop3351"
         offset="1"
         style="stop-color:#ffffff;stop-opacity:0.46391752;" />
    </linearGradient>
    <linearGradient
       id="linearGradient11520">
      <stop
         style="stop-color:#ffffff;stop-opacity:1.0000000;"
         offset="0.0000000"
         id="stop11522" />
      <stop
         style="stop-color:#dcdcdc;stop-opacity:1.0000000;"
         offset="1.0000000"
         id="stop11524" />
    </linearGradient>
    <linearGradient
       id="linearGradient11508">
      <stop
         style="stop-color:#000000;stop-opacity:1;"
         offset="0"
         id="stop11510" />
      <stop
         style="stop-color:#000000;stop-opacity:0;"
         offset="1"
         id="stop11512" />
    </linearGradient>
    <linearGradient
       id="linearGradient11494">
      <stop
         style="stop-color:#ef2929;stop-opacity:1;"
         offset="0"
         id="stop11496" />
      <stop
         style="stop-color:#ef2929;stop-opacity:0;"
         offset="1"
         id="stop11498" />
    </linearGradient>
    <linearGradient
       id="linearGradient11415">
      <stop
         style="stop-color:#204a87;stop-opacity:0.0000000;"
         offset="0.0000000"
         id="stop11417" />
      <stop
         id="stop11423"
         offset="0.50000000"
         style="stop-color:#204a87;stop-opacity:1.0000000;" />
      <stop
         style="stop-color:#204a87;stop-opacity:0;"
         offset="1"
         id="stop11419" />
    </linearGradient>
    <linearGradient
       id="linearGradient11399">
      <stop
         style="stop-color:#000000;stop-opacity:1;"
         offset="0"
         id="stop11401" />
      <stop
         style="stop-color:#000000;stop-opacity:0;"
         offset="1"
         id="stop11403" />
    </linearGradient>
    <linearGradient
       xlink:href="#linearGradient11415"
       id="linearGradient11425"
       gradientUnits="userSpaceOnUse"
       x1="15.828360"
       y1="3.7744560"
       x2="43.615788"
       y2="34.462429"
       gradientTransform="translate(-60.28571,-0.285714)" />
    <linearGradient
       xlink:href="#linearGradient11415"
       id="linearGradient11427"
       gradientUnits="userSpaceOnUse"
       x1="9.6957054"
       y1="9.3458843"
       x2="35.679932"
       y2="39.033859"
       gradientTransform="translate(-60.57143,0.000000)" />
    <linearGradient
       xlink:href="#linearGradient11415"
       id="linearGradient11439"
       gradientUnits="userSpaceOnUse"
       gradientTransform="translate(-60.85714,0.428571)"
       x1="13.267134"
       y1="19.774456"
       x2="26.758644"
       y2="33.462429" />
    <radialGradient
       xlink:href="#linearGradient11399"
       id="radialGradient11441"
       gradientUnits="userSpaceOnUse"
       gradientTransform="matrix(1.000000,0.000000,0.000000,0.487395,0.000000,20.06483)"
       cx="12.071428"
       cy="39.142857"
       fx="12.071428"
       fy="39.142857"
       r="8.5000000" />
    <radialGradient
       xlink:href="#linearGradient11494"
       id="radialGradient11500"
       cx="27.577173"
       cy="15.048258"
       fx="27.577173"
       fy="15.048258"
       r="3.8335034"
       gradientUnits="userSpaceOnUse"
       gradientTransform="matrix(1.243453,2.106784e-16,-2.106784e-16,1.243453,-6.713754,-3.742847)" />
    <radialGradient
       xlink:href="#linearGradient11494"
       id="radialGradient11504"
       gradientUnits="userSpaceOnUse"
       gradientTransform="matrix(1.243453,2.106784e-16,-2.106784e-16,1.243453,-6.713754,-3.742847)"
       cx="27.577173"
       cy="16.049133"
       fx="27.577173"
       fy="16.049133"
       r="3.8335034" />
    <radialGradient
       xlink:href="#linearGradient11508"
       id="radialGradient11514"
       cx="30.203562"
       cy="44.565483"
       fx="30.203562"
       fy="44.565483"
       r="6.5659914"
       gradientTransform="matrix(1.000000,0.000000,0.000000,0.338462,2.166583e-14,29.48178)"
       gradientUnits="userSpaceOnUse" />
    <radialGradient
       xlink:href="#linearGradient11520"
       id="radialGradient11526"
       cx="24.445690"
       cy="35.878170"
       fx="24.445690"
       fy="35.878170"
       r="20.530962"
       gradientUnits="userSpaceOnUse"
       gradientTransform="matrix(1.995058,-1.651527e-32,0.000000,1.995058,-24.32488,-35.70087)" />
    <radialGradient
       xlink:href="#linearGradient11508"
       id="radialGradient11532"
       gradientUnits="userSpaceOnUse"
       gradientTransform="matrix(1.000000,0.000000,0.000000,0.338462,3.185827e-15,29.48178)"
       cx="30.203562"
       cy="44.565483"
       fx="30.203562"
       fy="44.565483"
       r="6.5659914" />
    <radialGradient
       r="6.5659914"
       fy="44.565483"
       fx="30.203562"
       cy="44.565483"
       cx="30.203562"
       gradientTransform="matrix(1.000000,0.000000,0.000000,0.338462,-1.353344e-14,29.48178)"
       gradientUnits="userSpaceOnUse"
       id="radialGradient1348"
       xlink:href="#linearGradient11508" />
    <radialGradient
       r="20.530962"
       fy="35.878170"
       fx="24.445690"
       cy="35.878170"
       cx="24.445690"
       gradientTransform="matrix(1.995058,-1.651527e-32,0.000000,1.995058,-24.32488,-35.70087)"
       gradientUnits="userSpaceOnUse"
       id="radialGradient1350"
       xlink:href="#linearGradient11520" />
    <radialGradient
       r="3.8335034"
       fy="16.049133"
       fx="27.577173"
       cy="16.049133"
       cx="27.577173"
       gradientTransform="matrix(1.243453,2.106784e-16,-2.106784e-16,1.243453,-6.713754,-3.742847)"
       gradientUnits="userSpaceOnUse"
       id="radialGradient1352"
       xlink:href="#linearGradient11494" />
    <radialGradient
       r="3.8335034"
       fy="15.048258"
       fx="27.577173"
       cy="15.048258"
       cx="27.577173"
       gradientTransform="matrix(1.243453,2.106784e-16,-2.106784e-16,1.243453,-6.713754,-3.742847)"
       gradientUnits="userSpaceOnUse"
       id="radialGradient1354"
       xlink:href="#linearGradient11494" />
    <radialGradient
       r="6.5659914"
       fy="44.565483"
       fx="30.203562"
       cy="44.565483"
       cx="30.203562"
       gradientTransform="matrix(1.000000,0.000000,0.000000,0.338462,2.220359e-14,29.48178)"
       gradientUnits="userSpaceOnUse"
       id="radialGradient1356"
       xlink:href="#linearGradient11508" />
    <radialGradient
       r="20.530962"
       fy="35.878170"
       fx="24.445690"
       cy="35.878170"
       cx="24.445690"
       gradientTransform="matrix(2.049266,-1.696401e-32,0.000000,2.049266,-25.65002,-37.31089)"
       gradientUnits="userSpaceOnUse"
       id="radialGradient1366"
       xlink:href="#linearGradient11520" />
    <linearGradient
       gradientUnits="userSpaceOnUse"
       y2="15.754493"
       x2="24.810524"
       y1="12.000002"
       x1="24.810524"
       id="linearGradient3353"
       xlink:href="#linearGradient3347" />
    <radialGradient
       gradientUnits="userSpaceOnUse"
       gradientTransform="matrix(2.441177,-8.611418e-16,8.903724e-16,2.524040,-19.81618,-14.69833)"
       r="16.50234"
       fy="9.3642855"
       fx="13.749998"
       cy="9.3642855"
       cx="13.749998"
       id="radialGradient3826"
       xlink:href="#linearGradient3820" />
    <linearGradient
       gradientTransform="matrix(1.000000,0.000000,0.000000,1.018868,0.000000,-0.207547)"
       gradientUnits="userSpaceOnUse"
       y2="57.875"
       x2="34.125"
       y1="11"
       x1="10.5"
       id="linearGradient3834"
       xlink:href="#linearGradient3828" />
    <radialGradient
       gradientUnits="userSpaceOnUse"
       gradientTransform="matrix(1.000000,0.000000,0.000000,0.493506,2.649786e-16,19.83488)"
       r="13.611806"
       fy="39.161163"
       fx="21.036427"
       cy="39.161163"
       cx="21.036427"
       id="radialGradient3887"
       xlink:href="#linearGradient3881" />
    <radialGradient
       r="21.333334"
       fy="38.807304"
       fx="26.137741"
       cy="38.807304"
       cx="26.137741"
       gradientTransform="matrix(0.769501,-1.242500,0.670300,0.415141,-21.77857,41.36563)"
       gradientUnits="userSpaceOnUse"
       id="radialGradient3449"
       xlink:href="#linearGradient3406" />
    <radialGradient
       gradientTransform="matrix(-5.048220e-2,1.387847e-2,-0.128440,-0.467196,35.41257,39.44172)"
       r="21.333334"
       fy="23.914305"
       fx="133.84108"
       cy="23.914305"
       cx="133.84108"
       gradientUnits="userSpaceOnUse"
       id="radialGradient3447"
       xlink:href="#linearGradient3435" />
    <radialGradient
       r="21.333334"
       fy="21.618015"
       fx="35.511295"
       cy="21.618015"
       cx="35.511295"
       gradientTransform="matrix(0.105916,-1.914240e-2,0.104789,0.579807,17.13693,7.115158)"
       gradientUnits="userSpaceOnUse"
       id="radialGradient3443"
       xlink:href="#linearGradient3435" />
    <radialGradient
       r="21.333334"
       fy="33.377594"
       fx="16.885271"
       cy="33.377594"
       cx="16.885271"
       gradientTransform="matrix(5.184267e-3,-0.122860,0.544548,2.297824e-2,0.957234,26.30756)"
       gradientUnits="userSpaceOnUse"
       id="radialGradient3433"
       xlink:href="#linearGradient3435" />
    <radialGradient
       r="21.333334"
       fy="48.238270"
       fx="53.556889"
       cy="48.238270"
       cx="53.556889"
       gradientTransform="matrix(0.158450,-0.158988,0.432907,0.431441,-2.723645,15.00107)"
       gradientUnits="userSpaceOnUse"
       id="radialGradient3429"
       xlink:href="#linearGradient3421" />
    <radialGradient
       gradientTransform="matrix(0.848684,0.958020,-0.782119,0.692834,18.69147,-20.52578)"
       gradientUnits="userSpaceOnUse"
       r="21.333334"
       fy="27.569166"
       fx="37.751469"
       cy="27.569166"
       cx="37.751469"
       id="radialGradient3392"
       xlink:href="#linearGradient3394" />
    <linearGradient
       xlink:href="#linearGradient6036"
       id="linearGradient6042"
       x1="10.501720"
       y1="3.6100161"
       x2="48.798885"
       y2="54.698483"
       gradientUnits="userSpaceOnUse" />
    <linearGradient
       xlink:href="#linearGradient6028"
       id="linearGradient6034"
       x1="28.702885"
       y1="31.494707"
       x2="17.742729"
       y2="18.366575"
       gradientUnits="userSpaceOnUse" />
    <linearGradient
       xlink:href="#aigrd2"
       id="linearGradient4242"
       gradientUnits="userSpaceOnUse"
       gradientTransform="matrix(1.190476,0.000000,0.000000,1.190476,-4.224424,-2.500001)"
       x1="12.2744"
       y1="32.4165"
       x2="35.3912"
       y2="14.2033" />
    <linearGradient
       xlink:href="#linearGradient4236"
       id="linearGradient4224"
       x1="21.125000"
       y1="14.625000"
       x2="29.000000"
       y2="28.000000"
       gradientUnits="userSpaceOnUse"
       gradientTransform="matrix(1.250000,0.000000,0.000000,1.250000,-5.652995,-2.604165)" />
    <linearGradient
       xlink:href="#linearGradient4236"
       id="linearGradient4222"
       x1="21.125000"
       y1="14.625000"
       x2="29.000000"
       y2="28.000000"
       gradientUnits="userSpaceOnUse"
       gradientTransform="matrix(1.250000,0.000000,0.000000,1.250000,-5.652995,-2.604165)" />
    <linearGradient
       xlink:href="#aigrd1"
       id="linearGradient3912"
       gradientUnits="userSpaceOnUse"
       x1="14.9966"
       y1="11.1885"
       x2="32.511"
       y2="34.3075"
       gradientTransform="matrix(1.190476,0.000000,0.000000,1.190476,-4.224424,-2.500000)" />
    <linearGradient
       y2="14.203300"
       x2="35.391201"
       y1="32.416500"
       x1="12.274400"
       gradientUnits="userSpaceOnUse"
       id="linearGradient3121">
      <stop
         id="stop3123"
         style="stop-color:#FBFBFB"
         offset="0" />
      <stop
         id="stop3125"
         style="stop-color:#B6B6B6"
         offset="0.5" />
      <stop
         id="stop3127"
         style="stop-color:#E4E4E4"
         offset="1" />
    </linearGradient>
    <linearGradient
       y2="34.307499"
       x2="32.511002"
       y1="11.188500"
       x1="14.996600"
       gradientUnits="userSpaceOnUse"
       id="linearGradient3112">
      <stop
         id="stop3114"
         style="stop-color:#EBEBEB"
         offset="0" />
      <stop
         id="stop3116"
         style="stop-color:#FFFFFF"
         offset="0.5" />
      <stop
         id="stop3118"
         style="stop-color:#EBEBEB"
         offset="1" />
    </linearGradient>
    <linearGradient
       id="aigrd1"
       gradientUnits="userSpaceOnUse"
       x1="14.9966"
       y1="11.1885"
       x2="32.511"
       y2="34.3075">
      <stop
         offset="0"
         style="stop-color:#EBEBEB"
         id="stop3034" />
      <stop
         offset="0.5"
         style="stop-color:#FFFFFF"
         id="stop3036" />
      <stop
         offset="1"
         style="stop-color:#EBEBEB"
         id="stop3038" />
    </linearGradient>
    <linearGradient
       id="aigrd2"
       gradientUnits="userSpaceOnUse"
       x1="12.2744"
       y1="32.4165"
       x2="35.3912"
       y2="14.2033">
      <stop
         offset="0"
         style="stop-color:#FBFBFB"
         id="stop3043" />
      <stop
         offset="0.5"
         style="stop-color:#B6B6B6"
         id="stop3045" />
      <stop
         offset="1"
         style="stop-color:#E4E4E4"
         id="stop3047" />
    </linearGradient>
    <linearGradient
       id="linearGradient4236">
      <stop
         style="stop-color:#ffffff;stop-opacity:0.32673267;"
         offset="0.0000000"
         id="stop4238" />
      <stop
         style="stop-color:#ffffff;stop-opacity:0.60396039;"
         offset="1.0000000"
         id="stop4240" />
    </linearGradient>
    <linearGradient
       id="linearGradient6028">
      <stop
         style="stop-color:#ffffff;stop-opacity:1;"
         offset="0"
         id="stop6030" />
      <stop
         style="stop-color:#ffffff;stop-opacity:0;"
         offset="1"
         id="stop6032" />
    </linearGradient>
    <linearGradient
       id="linearGradient6036">
      <stop
         style="stop-color:#ffffff;stop-opacity:1;"
         offset="0"
         id="stop6038" />
      <stop
         style="stop-color:#ffffff;stop-opacity:0;"
         offset="1"
         id="stop6040" />
    </linearGradient>
    <linearGradient
       y2="14.2033"
       x2="35.3912"
       y1="32.4165"
       x1="12.2744"
       gradientUnits="userSpaceOnUse"
       id="linearGradient3394">
      <stop
         id="stop3396"
         style="stop-color:#fff307;stop-opacity:1.0000000;"
         offset="0.0000000" />
      <stop
         id="stop3398"
         style="stop-color:#166eff;stop-opacity:1.0000000;"
         offset="0.50000000" />
      <stop
         id="stop3400"
         style="stop-color:#ffffff;stop-opacity:0.0000000;"
         offset="1.0000000" />
    </linearGradient>
    <linearGradient
       id="linearGradient3406"
       gradientUnits="userSpaceOnUse"
       x1="12.2744"
       y1="32.4165"
       x2="35.3912"
       y2="14.2033">
      <stop
         offset="0.0000000"
         style="stop-color:#b307ff;stop-opacity:0.82178217;"
         id="stop3408" />
      <stop
         offset="1.0000000"
         style="stop-color:#f0ff8b;stop-opacity:0.64356434;"
         id="stop3410" />
      <stop
         offset="1.0000000"
         style="stop-color:#ffffff;stop-opacity:0.0000000;"
         id="stop3412" />
    </linearGradient>
    <linearGradient
       y2="14.2033"
       x2="35.3912"
       y1="32.4165"
       x1="12.2744"
       gradientUnits="userSpaceOnUse"
       id="linearGradient3421">
      <stop
         id="stop3423"
         style="stop-color:#ffffff;stop-opacity:1.0000000;"
         offset="0.0000000" />
      <stop
         id="stop3427"
         style="stop-color:#b8c04c;stop-opacity:0.0000000;"
         offset="1.0000000" />
    </linearGradient>
    <linearGradient
       id="linearGradient3435"
       gradientUnits="userSpaceOnUse"
       x1="12.2744"
       y1="32.4165"
       x2="35.3912"
       y2="14.2033">
      <stop
         offset="0.0000000"
         style="stop-color:#ffffc8;stop-opacity:1.0000000;"
         id="stop3437" />
      <stop
         offset="1.0000000"
         style="stop-color:#9a91ef;stop-opacity:0.0000000;"
         id="stop3439" />
    </linearGradient>
    <radialGradient
       r="21.333334"
       fy="23.914305"
       fx="133.84108"
       cy="23.914305"
       cx="133.84108"
       gradientTransform="matrix(-3.483272e-2,9.576144e-3,-8.862359e-2,-0.322365,39.01024,41.05050)"
       gradientUnits="userSpaceOnUse"
       id="radialGradient5529"
       xlink:href="#linearGradient3435" />
    <radialGradient
       r="21.333334"
       fy="21.618015"
       fx="35.511295"
       cy="21.618015"
       cx="35.511295"
       gradientTransform="matrix(7.308203e-2,-1.320826e-2,7.230440e-2,0.400067,26.40005,18.74518)"
       gradientUnits="userSpaceOnUse"
       id="radialGradient5532"
       xlink:href="#linearGradient3435" />
    <radialGradient
       r="21.333334"
       fy="33.377594"
       fx="16.885271"
       cy="33.377594"
       cx="16.885271"
       gradientTransform="matrix(3.577144e-3,-8.477339e-2,0.375738,1.585498e-2,15.23606,31.98793)"
       gradientUnits="userSpaceOnUse"
       id="radialGradient5535"
       xlink:href="#linearGradient3435" />
    <radialGradient
       r="21.333334"
       fy="48.238270"
       fx="53.556889"
       cy="48.238270"
       cx="53.556889"
       gradientTransform="matrix(0.109330,-0.109702,0.298706,0.297694,12.69626,24.18646)"
       gradientUnits="userSpaceOnUse"
       id="radialGradient5538"
       xlink:href="#linearGradient3421" />
    <radialGradient
       r="21.333334"
       fy="38.807304"
       fx="26.137741"
       cy="38.807304"
       cx="26.137741"
       gradientTransform="matrix(0.530956,-0.857325,0.462507,0.286447,-0.451640,42.37800)"
       gradientUnits="userSpaceOnUse"
       id="radialGradient5541"
       xlink:href="#linearGradient3406" />
    <radialGradient
       r="21.333334"
       fy="27.569166"
       fx="37.751469"
       cy="27.569166"
       cx="37.751469"
       gradientTransform="matrix(0.585592,0.661034,-0.539662,0.478055,27.47269,-0.327070)"
       gradientUnits="userSpaceOnUse"
       id="radialGradient5544"
       xlink:href="#linearGradient3394" />
    <linearGradient
       gradientTransform="matrix(0.690000,0.000000,0.000000,0.690000,14.57557,13.83572)"
       y2="54.698483"
       x2="48.798885"
       y1="3.6100161"
       x1="10.501720"
       gradientUnits="userSpaceOnUse"
       id="linearGradient5548"
       xlink:href="#linearGradient6036" />
    <linearGradient
       y2="28.000000"
       x2="29.000000"
       y1="14.625000"
       x1="21.125000"
       gradientTransform="matrix(0.862500,0.000000,0.000000,0.862500,10.67501,12.03885)"
       gradientUnits="userSpaceOnUse"
       id="linearGradient5551"
       xlink:href="#linearGradient4236" />
    <linearGradient
       y2="28.000000"
       x2="29.000000"
       y1="14.625000"
       x1="21.125000"
       gradientTransform="matrix(0.862500,0.000000,0.000000,0.862500,10.67501,12.03885)"
       gradientUnits="userSpaceOnUse"
       id="linearGradient5554"
       xlink:href="#linearGradient4236" />
    <linearGradient
       y2="14.2033"
       x2="35.3912"
       y1="32.4165"
       x1="12.2744"
       gradientTransform="matrix(0.821428,0.000000,0.000000,0.821428,11.66072,12.11072)"
       gradientUnits="userSpaceOnUse"
       id="linearGradient5558"
       xlink:href="#aigrd2" />
    <linearGradient
       y2="34.3075"
       x2="32.511"
       y1="11.1885"
       x1="14.9966"
       gradientTransform="matrix(0.821428,0.000000,0.000000,0.821428,11.66072,12.11072)"
       gradientUnits="userSpaceOnUse"
       id="linearGradient5561"
       xlink:href="#aigrd1" />
    <linearGradient
       y2="18.366575"
       x2="17.742729"
       y1="31.494707"
       x1="28.702885"
       gradientUnits="userSpaceOnUse"
       id="linearGradient5578"
       xlink:href="#linearGradient6028" />
    <radialGradient
       gradientUnits="userSpaceOnUse"
       gradientTransform="matrix(1.000000,0.000000,0.000000,0.250000,0.000000,33.00000)"
       r="15.5"
       fy="44"
       fx="31.25"
       cy="44"
       cx="31.25"
       id="radialGradient5588"
       xlink:href="#linearGradient5582" />
  </defs>
  <metadata
     id="metadata4">
    <rdf:RDF>
      <cc:Work
         rdf:about="">
        <dc:format>image/svg+xml</dc:format>
        <dc:type
           rdf:resource="http://purl.org/dc/dcmitype/StillImage" />
        <dc:creator>
          <cc:Agent>
            <dc:title>Jakub Steiner</dc:title>
          </cc:Agent>
        </dc:creator>
        <dc:source>http://jimmac.musichall.cz</dc:source>
        <cc:license
           rdf:resource="http://creativecommons.org/licenses/by-sa/2.0/" />
        <dc:title></dc:title>
      </cc:Work>
      <cc:License
         rdf:about="http://creativecommons.org/licenses/by-sa/2.0/">
        <cc:permits
           rdf:resource="http://web.resource.org/cc/Reproduction" />
        <cc:permits
           rdf:resource="http://web.resource.org/cc/Distribution" />
        <cc:requires
           rdf:resource="http://web.resource.org/cc/Notice" />
        <cc:requires
           rdf:resource="http://web.resource.org/cc/Attribution" />
        <cc:permits
           rdf:resource="http://web.resource.org/cc/DerivativeWorks" />
        <cc:requires
           rdf:resource="http://web.resource.org/cc/ShareAlike" />
      </cc:License>
    </rdf:RDF>
  </metadata>
  <g
     id="layer1">
    <path
       d="M 46.75 44 A 15.5 3.875 0 1 1  15.75,44 A 15.5 3.875 0 1 1  46.75 44 z"
       id="path5580"
       style="opacity:0.38068183;color:#000000;fill:url(#radialGradient5588);fill-opacity:1.0;fill-rule:nonzero;stroke:none;stroke-width:1;stroke-linecap:butt;stroke-linejoin:miter;marker:none;marker-start:none;marker-mid:none;marker-end:none;stroke-miterlimit:4;stroke-dasharray:none;stroke-dashoffset:0;stroke-opacity:1;visibility:visible;display:block;overflow:visible" />
    <path
       transform="matrix(1.363636,0.000000,0.000000,1.000000,-8.710268,-2.828424)"
       d="M 34.648232 39.161163 A 13.611806 6.7175145 0 1 1  7.4246206,39.161163 A 13.611806 6.7175145 0 1 1  34.648232 39.161163 z"
       id="path3879"
       style="opacity:0.38068183;color:#000000;fill:url(#radialGradient3887);fill-opacity:1;fill-rule:nonzero;stroke:none;stroke-width:1;stroke-linecap:butt;stroke-linejoin:miter;marker:none;marker-start:none;marker-mid:none;marker-end:none;stroke-miterlimit:4;stroke-dasharray:none;stroke-dashoffset:0;stroke-opacity:1;visibility:visible;display:block;overflow:visible" />
    <path
       style="opacity:1;color:#000000;fill:url(#radialGradient3826);fill-opacity:1.0;fill-rule:nonzero;stroke:#696969;stroke-width:1;stroke-linecap:round;stroke-linejoin:round;marker:none;marker-start:none;marker-mid:none;marker-end:none;stroke-miterlimit:4;stroke-dasharray:none;stroke-dashoffset:0;stroke-opacity:1;visibility:visible;display:block;overflow:visible"
       d="M 8.7277459,5.3749999 L 4.4976572,10 L 4.4976572,38.5 L 36.502339,38.5 L 36.502339,10 L 32.490892,5.3749999 L 8.7277459,5.3749999 z "
       id="path3343" />
    <path
       id="path3341"
       d="M 8.8599222,5.9116117 L 5.8383883,10.963388 L 35.599112,10.963388 L 32.252386,5.8232233 L 8.8599222,5.9116117 z "
       style="opacity:1;color:#000000;fill:#9b9b9b;fill-opacity:1;fill-rule:nonzero;stroke:none;stroke-width:1;stroke-linecap:butt;stroke-linejoin:miter;marker:none;marker-start:none;marker-mid:none;marker-end:none;stroke-miterlimit:4;stroke-dasharray:none;stroke-dashoffset:0;stroke-opacity:1;visibility:visible;display:block;overflow:visible" />
    <rect
       y="11"
       x="5"
       height="27"
       width="11"
       id="rect3818"
       style="opacity:1;color:#000000;fill:url(#linearGradient3834);fill-opacity:1;fill-rule:nonzero;stroke:none;stroke-width:1;stroke-linecap:butt;stroke-linejoin:miter;marker:none;marker-start:none;marker-mid:none;marker-end:none;stroke-miterlimit:4;stroke-dasharray:none;stroke-dashoffset:0;stroke-opacity:1;visibility:visible;display:block;overflow:visible" />
    <path
       id="path3345"
       d="M 9.1676952,6.3456959 L 5.4355235,10.512134 L 5.4355235,37.529306 L 35.564475,37.529306 L 35.564475,10.512134 L 32.038131,6.3456959 L 9.1676952,6.3456959 z "
       style="opacity:1;color:#000000;fill:none;fill-opacity:1;fill-rule:nonzero;stroke:url(#linearGradient3353);stroke-width:0.99999994;stroke-linecap:butt;stroke-linejoin:miter;marker:none;marker-start:none;marker-mid:none;marker-end:none;stroke-miterlimit:4;stroke-dasharray:none;stroke-dashoffset:0;stroke-opacity:1;visibility:visible;display:block;overflow:visible" />
    <g
       id="g3864">
      <path
         style="opacity:1;color:#000000;fill:#888888;fill-opacity:1;fill-rule:nonzero;stroke:none;stroke-width:1;stroke-linecap:butt;stroke-linejoin:miter;marker:none;marker-start:none;marker-mid:none;marker-end:none;stroke-miterlimit:4;stroke-dasharray:none;stroke-dashoffset:0;stroke-opacity:1;visibility:visible;display:block;overflow:visible"
         id="path3836"
         d="M 17.1875 12.59375 A 0.53125 0.53125 0 1 1  16.125,12.59375 A 0.53125 0.53125 0 1 1  17.1875 12.59375 z"
         transform="translate(-0.125000,-0.125000)" />
      <path
         transform="translate(-0.125000,1.875000)"
         d="M 17.1875 12.59375 A 0.53125 0.53125 0 1 1  16.125,12.59375 A 0.53125 0.53125 0 1 1  17.1875 12.59375 z"
         id="path3838"
         style="opacity:1;color:#000000;fill:#888888;fill-opacity:1;fill-rule:nonzero;stroke:none;stroke-width:1;stroke-linecap:butt;stroke-linejoin:miter;marker:none;marker-start:none;marker-mid:none;marker-end:none;stroke-miterlimit:4;stroke-dasharray:none;stroke-dashoffset:0;stroke-opacity:1;visibility:visible;display:block;overflow:visible" />
      <path
         style="opacity:1;color:#000000;fill:#888888;fill-opacity:1;fill-rule:nonzero;stroke:none;stroke-width:1;stroke-linecap:butt;stroke-linejoin:miter;marker:none;marker-start:none;marker-mid:none;marker-end:none;stroke-miterlimit:4;stroke-dasharray:none;stroke-dashoffset:0;stroke-opacity:1;visibility:visible;display:block;overflow:visible"
         id="path3840"
         d="M 17.1875 12.59375 A 0.53125 0.53125 0 1 1  16.125,12.59375 A 0.53125 0.53125 0 1 1  17.1875 12.59375 z"
         transform="translate(-0.125000,3.875000)" />
      <path
         transform="translate(-0.125000,5.875000)"
         d="M 17.1875 12.59375 A 0.53125 0.53125 0 1 1  16.125,12.59375 A 0.53125 0.53125 0 1 1  17.1875 12.59375 z"
         id="path3842"
         style="opacity:1;color:#000000;fill:#888888;fill-opacity:1;fill-rule:nonzero;stroke:none;stroke-width:1;stroke-linecap:butt;stroke-linejoin:miter;marker:none;marker-start:none;marker-mid:none;marker-end:none;stroke-miterlimit:4;stroke-dasharray:none;stroke-dashoffset:0;stroke-opacity:1;visibility:visible;display:block;overflow:visible" />
      <path
         style="opacity:1;color:#000000;fill:#888888;fill-opacity:1;fill-rule:nonzero;stroke:none;stroke-width:1;stroke-linecap:butt;stroke-linejoin:miter;marker:none;marker-start:none;marker-mid:none;marker-end:none;stroke-miterlimit:4;stroke-dasharray:none;stroke-dashoffset:0;stroke-opacity:1;visibility:visible;display:block;overflow:visible"
         id="path3844"
         d="M 17.1875 12.59375 A 0.53125 0.53125 0 1 1  16.125,12.59375 A 0.53125 0.53125 0 1 1  17.1875 12.59375 z"
         transform="translate(-0.125000,7.875000)" />
      <path
         transform="translate(-0.125000,9.875000)"
         d="M 17.1875 12.59375 A 0.53125 0.53125 0 1 1  16.125,12.59375 A 0.53125 0.53125 0 1 1  17.1875 12.59375 z"
         id="path3846"
         style="opacity:1;color:#000000;fill:#888888;fill-opacity:1;fill-rule:nonzero;stroke:none;stroke-width:1;stroke-linecap:butt;stroke-linejoin:miter;marker:none;marker-start:none;marker-mid:none;marker-end:none;stroke-miterlimit:4;stroke-dasharray:none;stroke-dashoffset:0;stroke-opacity:1;visibility:visible;display:block;overflow:visible" />
      <path
         style="opacity:1;color:#000000;fill:#888888;fill-opacity:1;fill-rule:nonzero;stroke:none;stroke-width:1;stroke-linecap:butt;stroke-linejoin:miter;marker:none;marker-start:none;marker-mid:none;marker-end:none;stroke-miterlimit:4;stroke-dasharray:none;stroke-dashoffset:0;stroke-opacity:1;visibility:visible;display:block;overflow:visible"
         id="path3848"
         d="M 17.1875 12.59375 A 0.53125 0.53125 0 1 1  16.125,12.59375 A 0.53125 0.53125 0 1 1  17.1875 12.59375 z"
         transform="translate(-0.125000,11.87500)" />
      <path
         transform="translate(-0.125000,13.87500)"
         d="M 17.1875 12.59375 A 0.53125 0.53125 0 1 1  16.125,12.59375 A 0.53125 0.53125 0 1 1  17.1875 12.59375 z"
         id="path3850"
         style="opacity:1;color:#000000;fill:#888888;fill-opacity:1;fill-rule:nonzero;stroke:none;stroke-width:1;stroke-linecap:butt;stroke-linejoin:miter;marker:none;marker-start:none;marker-mid:none;marker-end:none;stroke-miterlimit:4;stroke-dasharray:none;stroke-dashoffset:0;stroke-opacity:1;visibility:visible;display:block;overflow:visible" />
      <path
         transform="translate(-0.125000,15.87500)"
         d="M 17.1875 12.59375 A 0.53125 0.53125 0 1 1  16.125,12.59375 A 0.53125 0.53125 0 1 1  17.1875 12.59375 z"
         id="path3854"
         style="opacity:1;color:#000000;fill:#888888;fill-opacity:1;fill-rule:nonzero;stroke:none;stroke-width:1;stroke-linecap:butt;stroke-linejoin:miter;marker:none;marker-start:none;marker-mid:none;marker-end:none;stroke-miterlimit:4;stroke-dasharray:none;stroke-dashoffset:0;stroke-opacity:1;visibility:visible;display:block;overflow:visible" />
      <path
         style="opacity:1;color:#000000;fill:#888888;fill-opacity:1;fill-rule:nonzero;stroke:none;stroke-width:1;stroke-linecap:butt;stroke-linejoin:miter;marker:none;marker-start:none;marker-mid:none;marker-end:none;stroke-miterlimit:4;stroke-dasharray:none;stroke-dashoffset:0;stroke-opacity:1;visibility:visible;display:block;overflow:visible"
         id="path3856"
         d="M 17.1875 12.59375 A 0.53125 0.53125 0 1 1  16.125,12.59375 A 0.53125 0.53125 0 1 1  17.1875 12.59375 z"
         transform="translate(-0.125000,17.87500)" />
      <path
         transform="translate(-0.125000,19.87500)"
         d="M 17.1875 12.59375 A 0.53125 0.53125 0 1 1  16.125,12.59375 A 0.53125 0.53125 0 1 1  17.1875 12.59375 z"
         id="path3858"
         style="opacity:1;color:#000000;fill:#888888;fill-opacity:1;fill-rule:nonzero;stroke:none;stroke-width:1;stroke-linecap:butt;stroke-linejoin:miter;marker:none;marker-start:none;marker-mid:none;marker-end:none;stroke-miterlimit:4;stroke-dasharray:none;stroke-dashoffset:0;stroke-opacity:1;visibility:visible;display:block;overflow:visible" />
      <path
         style="opacity:1;color:#000000;fill:#888888;fill-opacity:1;fill-rule:nonzero;stroke:none;stroke-width:1;stroke-linecap:butt;stroke-linejoin:miter;marker:none;marker-start:none;marker-mid:none;marker-end:none;stroke-miterlimit:4;stroke-dasharray:none;stroke-dashoffset:0;stroke-opacity:1;visibility:visible;display:block;overflow:visible"
         id="path3860"
         d="M 17.1875 12.59375 A 0.53125 0.53125 0 1 1  16.125,12.59375 A 0.53125 0.53125 0 1 1  17.1875 12.59375 z"
         transform="translate(-0.125000,21.87500)" />
      <path
         transform="translate(-0.125000,23.87500)"
         d="M 17.1875 12.59375 A 0.53125 0.53125 0 1 1  16.125,12.59375 A 0.53125 0.53125 0 1 1  17.1875 12.59375 z"
         id="path3862"
         style="opacity:1;color:#000000;fill:#888888;fill-opacity:1;fill-rule:nonzero;stroke:none;stroke-width:1;stroke-linecap:butt;stroke-linejoin:miter;marker:none;marker-start:none;marker-mid:none;marker-end:none;stroke-miterlimit:4;stroke-dasharray:none;stroke-dashoffset:0;stroke-opacity:1;visibility:visible;display:block;overflow:visible" />
    </g>
    <path
       style="fill:url(#linearGradient5561);fill-rule:nonzero;stroke:none;stroke-miterlimit:4"
       d="M 31.375005,16.710718 C 23.407148,16.710718 17.000006,23.11786 17.000006,31.085717 C 17.000006,39.053574 23.407148,45.460717 31.375005,45.460717 C 39.342863,45.460717 45.750005,39.053574 45.750005,31.085717 C 45.750005,23.11786 39.342863,16.710718 31.375005,16.710718 L 31.375005,16.710718 z M 31.375005,34.535717 C 29.48572,34.535717 27.925006,32.975003 27.925006,31.085717 C 27.925006,29.196431 29.48572,27.635717 31.375005,27.635717 C 33.264291,27.635717 34.825005,29.196431 34.825005,31.085717 C 34.825005,32.975003 33.264291,34.535717 31.375005,34.535717 z "
       id="path3040" />
    <path
       style="fill:url(#linearGradient5558);fill-rule:nonzero;stroke:#808080;stroke-miterlimit:4;stroke-opacity:1"
       d="M 31.375004,16.710721 C 23.407146,16.710721 17.000004,23.117864 17.000004,31.085721 C 17.000004,39.053579 23.407146,45.460722 31.375004,45.460722 C 39.342862,45.460722 45.750005,39.053579 45.750005,31.085721 C 45.750005,23.117864 39.342862,16.710721 31.375004,16.710721 L 31.375004,16.710721 z M 31.375004,34.535722 C 29.485719,34.535722 27.925004,32.975007 27.925004,31.085721 C 27.925004,29.196436 29.485719,27.635721 31.375004,27.635721 C 33.26429,27.635721 34.825004,29.196436 34.825004,31.085721 C 34.825004,32.975007 33.26429,34.535722 31.375004,34.535722 z "
       id="path3049" />
    <path
       style="opacity:0.10999995;fill-rule:nonzero;stroke:none;stroke-miterlimit:4"
       d="M 31.375005,24.113843 C 27.481621,24.113843 24.403131,27.282877 24.403131,31.085717 C 24.403131,34.979102 27.572166,38.057591 31.375005,38.057591 C 35.268389,38.057591 38.346879,34.888558 38.346879,31.085717 C 38.346879,27.192333 35.177845,24.113843 31.375005,24.113843 L 31.375005,24.113843 z M 31.375005,34.888558 C 29.292498,34.888558 27.572166,33.168226 27.572166,31.085717 C 27.572166,29.003209 29.292498,27.282877 31.375005,27.282877 C 33.457513,27.282877 35.177845,29.003209 35.177845,31.085717 C 35.177845,33.168226 33.457513,34.888558 31.375005,34.888558 z "
       id="path3051" />
    <path
       id="path3916"
       d="M 35.221828,17.747489 L 32.740179,27.403805 C 33.516224,27.610472 34.136837,28.09068 34.558417,28.755199 L 43.109048,23.546193 C 41.359727,20.69669 38.552143,18.600227 35.221828,17.747489 z "
       style="fill:url(#linearGradient5554);fill-opacity:1;fill-rule:nonzero;stroke:none;stroke-miterlimit:4;stroke-opacity:1" />
    <path
       style="fill:url(#linearGradient5551);fill-opacity:1;fill-rule:nonzero;stroke:none;stroke-miterlimit:4;stroke-opacity:1"
       d="M 26.51797,44.034295 L 29.785296,34.614762 C 29.028874,34.344977 28.449853,33.81536 28.084347,33.118423 L 19.134316,37.60663 C 20.643386,40.590336 23.269058,42.910578 26.51797,44.034295 z "
       id="path4214" />
    <path
       id="path5264"
       d="M 31.375001,17.425353 C 23.803256,17.425353 17.714636,23.513974 17.714636,31.085719 C 17.714636,38.657464 23.803256,44.746085 31.375001,44.746085 C 38.946747,44.746085 45.035367,38.657464 45.035367,31.085719 C 45.035367,23.513974 38.946747,17.425353 31.375001,17.425353 L 31.375001,17.425353 z "
       style="opacity:0.54644811;fill:none;fill-rule:nonzero;stroke:url(#linearGradient5548);stroke-miterlimit:4;stroke-opacity:1" />
    <path
       transform="matrix(0.690000,0.000000,0.000000,0.690000,14.63656,13.89671)"
       d="M 30.405591 24.930641 A 6.0987959 6.0987959 0 1 1  18.207999,24.930641 A 6.0987959 6.0987959 0 1 1  30.405591 24.930641 z"
       id="path6026"
       style="opacity:0.67213111;color:#000000;fill:none;fill-opacity:0.31638417;fill-rule:nonzero;stroke:url(#linearGradient5578);stroke-width:1.34860682;stroke-linecap:butt;stroke-linejoin:miter;marker:none;marker-start:none;marker-mid:none;marker-end:none;stroke-miterlimit:4;stroke-dashoffset:0;stroke-opacity:1;visibility:visible;display:inline;overflow:visible" />
    <path
       id="path3390"
       d="M 31.375005,16.710718 C 23.407148,16.710718 17.000006,23.11786 17.000006,31.085717 C 17.000006,39.053574 23.407148,45.460717 31.375005,45.460717 C 39.342863,45.460717 45.750005,39.053574 45.750005,31.085717 C 45.750005,23.11786 39.342863,16.710718 31.375005,16.710718 L 31.375005,16.710718 z M 31.375005,34.535717 C 29.48572,34.535717 27.925006,32.975003 27.925006,31.085717 C 27.925006,29.196431 29.48572,27.635717 31.375005,27.635717 C 33.264291,27.635717 34.825005,29.196431 34.825005,31.085717 C 34.825005,32.975003 33.264291,34.535717 31.375005,34.535717 z "
       style="opacity:0.1142857;fill:url(#radialGradient5544);fill-opacity:1;fill-rule:nonzero;stroke:none;stroke-miterlimit:4;stroke-opacity:1" />
    <path
       style="opacity:0.09714284;fill:url(#radialGradient5541);fill-opacity:1;fill-rule:nonzero;stroke:none;stroke-miterlimit:4;stroke-opacity:1"
       d="M 31.375005,16.710718 C 23.407148,16.710718 17.000006,23.11786 17.000006,31.085717 C 17.000006,39.053574 23.407148,45.460717 31.375005,45.460717 C 39.342863,45.460717 45.750005,39.053574 45.750005,31.085717 C 45.750005,23.11786 39.342863,16.710718 31.375005,16.710718 L 31.375005,16.710718 z M 31.375005,34.535717 C 29.48572,34.535717 27.925006,32.975003 27.925006,31.085717 C 27.925006,29.196431 29.48572,27.635717 31.375005,27.635717 C 33.264291,27.635717 34.825005,29.196431 34.825005,31.085717 C 34.825005,32.975003 33.264291,34.535717 31.375005,34.535717 z "
       id="path3404" />
    <path
       id="path3419"
       d="M 31.375005,16.710718 C 23.407148,16.710718 17.000006,23.11786 17.000006,31.085717 C 17.000006,39.053574 23.407148,45.460717 31.375005,45.460717 C 39.342863,45.460717 45.750005,39.053574 45.750005,31.085717 C 45.750005,23.11786 39.342863,16.710718 31.375005,16.710718 L 31.375005,16.710718 z M 31.375005,34.535717 C 29.48572,34.535717 27.925006,32.975003 27.925006,31.085717 C 27.925006,29.196431 29.48572,27.635717 31.375005,27.635717 C 33.264291,27.635717 34.825005,29.196431 34.825005,31.085717 C 34.825005,32.975003 33.264291,34.535717 31.375005,34.535717 z "
       style="opacity:0.71428576;fill:url(#radialGradient5538);fill-opacity:1;fill-rule:nonzero;stroke:none;stroke-miterlimit:4;stroke-opacity:1" />
    <path
       style="opacity:0.62285713;fill:url(#radialGradient5535);fill-opacity:1;fill-rule:nonzero;stroke:none;stroke-miterlimit:4;stroke-opacity:1"
       d="M 31.375005,16.710718 C 23.407148,16.710718 17.000006,23.11786 17.000006,31.085717 C 17.000006,39.053574 23.407148,45.460717 31.375005,45.460717 C 39.342863,45.460717 45.750005,39.053574 45.750005,31.085717 C 45.750005,23.11786 39.342863,16.710718 31.375005,16.710718 L 31.375005,16.710718 z M 31.375005,34.535717 C 29.48572,34.535717 27.925006,32.975003 27.925006,31.085717 C 27.925006,29.196431 29.48572,27.635717 31.375005,27.635717 C 33.264291,27.635717 34.825005,29.196431 34.825005,31.085717 C 34.825005,32.975003 33.264291,34.535717 31.375005,34.535717 z "
       id="path3431" />
    <path
       id="path3441"
       d="M 31.375005,16.710718 C 23.407148,16.710718 17.000006,23.11786 17.000006,31.085717 C 17.000006,39.053574 23.407148,45.460717 31.375005,45.460717 C 39.342863,45.460717 45.750005,39.053574 45.750005,31.085717 C 45.750005,23.11786 39.342863,16.710718 31.375005,16.710718 L 31.375005,16.710718 z M 31.375005,34.535717 C 29.48572,34.535717 27.925006,32.975003 27.925006,31.085717 C 27.925006,29.196431 29.48572,27.635717 31.375005,27.635717 C 33.264291,27.635717 34.825005,29.196431 34.825005,31.085717 C 34.825005,32.975003 33.264291,34.535717 31.375005,34.535717 z "
       style="opacity:0.37142861;fill:url(#radialGradient5532);fill-opacity:1;fill-rule:nonzero;stroke:none;stroke-miterlimit:4;stroke-opacity:1" />
    <path
       style="opacity:0.23428572;fill:url(#radialGradient5529);fill-opacity:1;fill-rule:nonzero;stroke:none;stroke-miterlimit:4;stroke-opacity:1"
       d="M 31.375005,16.710718 C 23.407148,16.710718 17.000006,23.11786 17.000006,31.085717 C 17.000006,39.053574 23.407148,45.460717 31.375005,45.460717 C 39.342863,45.460717 45.750005,39.053574 45.750005,31.085717 C 45.750005,23.11786 39.342863,16.710718 31.375005,16.710718 L 31.375005,16.710718 z M 31.375005,34.535717 C 29.48572,34.535717 27.925006,32.975003 27.925006,31.085717 C 27.925006,29.196431 29.48572,27.635717 31.375005,27.635717 C 33.264291,27.635717 34.825005,29.196431 34.825005,31.085717 C 34.825005,32.975003 33.264291,34.535717 31.375005,34.535717 z "
       id="path3445" />
  </g>
</svg>
