<?xml version="1.0" encoding="UTF-8"?>
<svg version="1.1" viewBox="0 0 32 32" xmlns="http://www.w3.org/2000/svg" xmlns:cc="http://creativecommons.org/ns#" xmlns:dc="http://purl.org/dc/elements/1.1/" xmlns:rdf="http://www.w3.org/1999/02/22-rdf-syntax-ns#">
<defs>
<linearGradient id="c" x1="4" x2="60" y1="19" y2="19" gradientUnits="userSpaceOnUse">
<stop stop-color="#77767b" offset="0"/>
<stop stop-color="#77767b" offset=".10113"/>
<stop stop-color="#c0bfbc" offset=".17405"/>
<stop stop-color="#77767b" offset=".39765"/>
<stop stop-color="#77767b" offset="1"/>
</linearGradient>
<linearGradient id="d" x1="32" x2="32" y1="-11" y2="45" gradientTransform="translate(.096241)" gradientUnits="userSpaceOnUse">
<stop stop-color="#c0bfbc" offset="0"/>
<stop stop-color="#deddda" offset="1"/>
</linearGradient>
</defs>
<metadata>
<rdf:RDF>
<cc:Work rdf:about="">
<dc:format>image/svg+xml</dc:format>
<dc:type rdf:resource="http://purl.org/dc/dcmitype/StillImage"/>
<dc:creator>
<cc:Agent>
<dc:title>Jakub Steiner</dc:title>
</cc:Agent>
</dc:creator>
<dc:source>http://jimmac.musichall.cz</dc:source>
<cc:license rdf:resource="http://creativecommons.org/licenses/by-sa/2.0/"/>
<dc:title/>
<dc:subject>
<rdf:Bag>
<rdf:li>apparmor</rdf:li>
<rdf:li>novell</rdf:li>
</rdf:Bag>
</dc:subject>
</cc:Work>
<cc:License rdf:about="http://creativecommons.org/licenses/by-sa/2.0/">
<cc:permits rdf:resource="http://web.resource.org/cc/Reproduction"/>
<cc:permits rdf:resource="http://web.resource.org/cc/Distribution"/>
<cc:requires rdf:resource="http://web.resource.org/cc/Notice"/>
<cc:requires rdf:resource="http://web.resource.org/cc/Attribution"/>
<cc:permits rdf:resource="http://web.resource.org/cc/DerivativeWorks"/>
<cc:requires rdf:resource="http://web.resource.org/cc/ShareAlike"/>
</cc:License>
</rdf:RDF>
</metadata>
<g transform="matrix(.5 0 0 .5 0 7.5)">
<circle cx="32" cy="19" r="28" fill="url(#c)"/>
<circle cx="32.096" cy="17" r="28" fill="url(#d)"/>
<path d="m26-4.0742a20 20 0 0 0 -14 19.074 20 20 0 0 0 20 20 20 20 0 0 0 20 -20 20 20 0 0 0 -14 -19.055v4.2344a16 16 0 0 1 10 14.82 16 16 0 0 1 -16 16 16 16 0 0 1 -16 -16 16 16 0 0 1 10 -14.824z" fill="#9a9996"/>
<path transform="matrix(2,0,0,2,0,-15)" d="m13 6.4629a10 10 0 0 0 -7 9.5371 10 10 0 0 0 10 10 10 10 0 0 0 10 -10 10 10 0 0 0 -7 -9.5273v2.1172a8 8 0 0 1 5 7.4102 8 8 0 0 1 -8 8 8 8 0 0 1 -8 -8 8 8 0 0 1 5 -7.4121v-2.125z" fill="#e01b24"/>
<rect x="30" y="-5" width="4" height="16" fill="#9a9996"/>
<rect x="30" y="-3" width="4" height="16" fill="#e01b24"/>
</g>
</svg>
