<?xml version="1.0" encoding="UTF-8"?>
<svg version="1" viewBox="0 0 32 32" xmlns="http://www.w3.org/2000/svg" xmlns:cc="http://creativecommons.org/ns#" xmlns:dc="http://purl.org/dc/elements/1.1/" xmlns:rdf="http://www.w3.org/1999/02/22-rdf-syntax-ns#">
<metadata>
<rdf:RDF>
<cc:Work rdf:about="">
<dc:format>image/svg+xml</dc:format>
<dc:type rdf:resource="http://purl.org/dc/dcmitype/StillImage"/>
<dc:title/>
</cc:Work>
</rdf:RDF>
</metadata>
<defs>
<linearGradient id="a" x1="4" x2="28" y1="17" y2="17" gradientUnits="userSpaceOnUse">
<stop stop-color="#5e5c64" offset="0"/>
<stop stop-color="#9a9996" offset=".041667"/>
<stop stop-color="#5e5c64" offset=".083333"/>
<stop stop-color="#5e5c64" offset=".91667"/>
<stop stop-color="#9a9996" offset=".95833"/>
<stop stop-color="#5e5c64" offset="1"/>
</linearGradient>
</defs>
<rect x="4" y="4" width="24" height="26" ry="1" fill="url(#a)"/>
<rect x="4" y="2" width="24" height="26" ry="1" fill="#9a9996"/>
<rect x="6" y="4" width="20" height="20" ry="1" fill="#77767b"/>
<rect x="6" y="5" width="20" height="19" ry="1" fill="#c0bfbc"/>
<rect x="6" y="18" width="20" height="1" fill="#e01b24"/>
<path d="M 6.5,25.5 A 0.5,0.5 0 0 0 6,26 0.5,0.5 0 0 0 6.5,26.5 0.5,0.5 0 0 0 7,26 0.5,0.5 0 0 0 6.5,25.5 Z" fill="#5e5c64"/>
<rect x="6" y="25" width="1" height="2" ry=".5" fill="#5e5c64"/>
<circle cx="6.5" cy="26.5" r=".5" fill="#33d17a"/>
<path d="M 8.5,25.5 A 0.5,0.5 0 0 0 8,26 0.5,0.5 0 0 0 8.5,26.5 0.5,0.5 0 0 0 9,26 0.5,0.5 0 0 0 8.5,25.5 Z" fill="#5e5c64"/>
<rect x="8" y="25" width="1" height="2" ry=".5" fill="#5e5c64"/>
<path d="M 8.5,26 A 0.5,0.5 0 0 0 8,26.5 0.5,0.5 0 0 0 8.5,27 0.5,0.5 0 0 0 9,26.5 0.5,0.5 0 0 0 8.5,26 Z" fill="#f6d32d"/>
<rect x="9" y="6" width="14" height="16" ry="0" fill="#ececec"/>
<rect x="10" y="7" width="12" height="1" fill="#c0bfbc"/>
<rect x="10" y="9" width="12" height="1" fill="#c0bfbc"/>
<rect x="10" y="13" width="12" height="1" fill="#c0bfbc"/>
<rect x="10" y="15" width="12" height="1" fill="#c0bfbc"/>
<rect x="10" y="11" width="8" height="1" fill="#c0bfbc"/>
<rect x="10" y="17" width="5" height="1" fill="#c0bfbc"/>
<rect x="9" y="18" width="14" height="1" fill="#fbbeb8"/>
</svg>
