<?xml version="1.0" encoding="UTF-8"?>
<svg version="1" viewBox="0 0 32 32" xmlns="http://www.w3.org/2000/svg" xmlns:cc="http://creativecommons.org/ns#" xmlns:dc="http://purl.org/dc/elements/1.1/" xmlns:rdf="http://www.w3.org/1999/02/22-rdf-syntax-ns#">
<metadata>
<rdf:RDF>
<cc:Work rdf:about="">
<dc:format>image/svg+xml</dc:format>
<dc:type rdf:resource="http://purl.org/dc/dcmitype/StillImage"/>
<dc:title/>
</cc:Work>
</rdf:RDF>
</metadata>
<defs>
<linearGradient id="a" x1="2" x2="30" y1="16" y2="16" gradientUnits="userSpaceOnUse">
<stop stop-color="#9a9996" offset="0"/>
<stop stop-color="#9a9996" offset=".14286"/>
<stop stop-color="#deddda" offset=".25"/>
<stop stop-color="#9a9996" offset=".39286"/>
<stop stop-color="#9a9996" offset="1"/>
</linearGradient>
</defs>
<path d="m16 2c-7.756 0-14 6.244-14 14s6.244 14 14 14 14-6.244 14-14-6.244-14-14-14z" fill="url(#a)" stroke-width=".7"/>
<rect transform="matrix(0,-1,-1,0,0,0)" x="-29" y="-30" width="28" height="28" rx="14" ry="14" fill="#deddda" stroke-width=".7"/>
<path d="m16 2a13 13 0 0 0 -13 13 13 13 0 0 0 13 13 13 13 0 0 0 13 -13 13 13 0 0 0 -13 -13z" fill="#241f31"/>
<path d="m16 14.067 6-6.0667l1 1-6 6z" fill="#77767b"/>
<path d="m16 13a2 2 0 0 0 -2 2 2 2 0 0 0 2 2 2 2 0 0 0 2 -2 2 2 0 0 0 -2 -2z" fill="#c0bfbc"/>
<rect x="15" y="15" width="2" height="12" ry="0" fill="#f6f5f4"/>
<rect x="4" y="14" width="10.5" height="1" fill="#e01b24"/>
<path d="m16 12a2 2 0 0 0 -2 2 2 2 0 0 0 2 2 2 2 0 0 0 2 -2 2 2 0 0 0 -2 -2z" fill="#deddda"/>
<circle cx="16" cy="14" r="1" fill="#333"/>
</svg>
