<?xml version="1.0" encoding="UTF-8" standalone="no"?>
<!-- Created with Inkscape (http://www.inkscape.org/) -->
<svg
   xmlns:dc="http://purl.org/dc/elements/1.1/"
   xmlns:cc="http://web.resource.org/cc/"
   xmlns:rdf="http://www.w3.org/1999/02/22-rdf-syntax-ns#"
   xmlns:svg="http://www.w3.org/2000/svg"
   xmlns="http://www.w3.org/2000/svg"
   xmlns:xlink="http://www.w3.org/1999/xlink"
   xmlns:sodipodi="http://inkscape.sourceforge.net/DTD/sodipodi-0.dtd"
   xmlns:inkscape="http://www.inkscape.org/namespaces/inkscape"
   width="48.000000px"
   height="48.000000px"
   id="svg3077"
   sodipodi:version="0.32"
   inkscape:version="0.43+devel"
   sodipodi:docbase="/home/jimmac/src/cvs/gnome/nld-ui/trunk/tango-yast2-theme/icons/scalable/apps"
   sodipodi:docname="yast-cd-creator.svg">
  <defs
     id="defs3">
    <linearGradient
       id="linearGradient5427">
      <stop
         style="stop-color:#4e9a06;stop-opacity:1;"
         offset="0"
         id="stop5429" />
      <stop
         style="stop-color:#76ea09;stop-opacity:1;"
         offset="1"
         id="stop5431" />
    </linearGradient>
    <linearGradient
       id="linearGradient4467">
      <stop
         style="stop-color:#ffffff;stop-opacity:1;"
         offset="0"
         id="stop4469" />
      <stop
         style="stop-color:#ffffff;stop-opacity:0.24761905;"
         offset="1.0000000"
         id="stop4471" />
    </linearGradient>
    <radialGradient
       inkscape:collect="always"
       xlink:href="#linearGradient4467"
       id="radialGradient1876"
       gradientUnits="userSpaceOnUse"
       gradientTransform="matrix(2.592963,-7.746900e-24,-5.714443e-24,2.252104,-25.05975,-18.94100)"
       cx="15.414371"
       cy="13.078408"
       fx="15.414371"
       fy="13.078408"
       r="6.6562500" />
    <linearGradient
       id="linearGradient4454">
      <stop
         style="stop-color:#729fcf;stop-opacity:0.62886596;"
         offset="0"
         id="stop4456" />
      <stop
         style="stop-color:#366aa1;stop-opacity:0.92783505;"
         offset="1"
         id="stop4458" />
    </linearGradient>
    <radialGradient
       inkscape:collect="always"
       xlink:href="#linearGradient4454"
       id="radialGradient4460"
       cx="18.240929"
       cy="21.817987"
       fx="18.240929"
       fy="21.817987"
       r="8.3085051"
       gradientUnits="userSpaceOnUse" />
    <linearGradient
       id="linearGradient2366">
      <stop
         id="stop2368"
         offset="0"
         style="stop-color:#ffffff;stop-opacity:1;" />
      <stop
         style="stop-color:#ffffff;stop-opacity:0.21904762;"
         offset="0.50000000"
         id="stop2374" />
      <stop
         id="stop2370"
         offset="1.0000000"
         style="stop-color:#ffffff;stop-opacity:1.0000000;" />
    </linearGradient>
    <linearGradient
       gradientUnits="userSpaceOnUse"
       y2="25.743469"
       x2="17.500893"
       y1="13.602121"
       x1="18.292673"
       id="linearGradient2372"
       xlink:href="#linearGradient2366"
       inkscape:collect="always" />
    <linearGradient
       id="linearGradient4440">
      <stop
         style="stop-color:#7d7d7d;stop-opacity:1;"
         offset="0"
         id="stop4442" />
      <stop
         id="stop4448"
         offset="0.50000000"
         style="stop-color:#b1b1b1;stop-opacity:1.0000000;" />
      <stop
         style="stop-color:#686868;stop-opacity:1.0000000;"
         offset="1.0000000"
         id="stop4444" />
    </linearGradient>
    <linearGradient
       inkscape:collect="always"
       xlink:href="#linearGradient4440"
       id="linearGradient1883"
       gradientUnits="userSpaceOnUse"
       gradientTransform="matrix(1.334593,0.000000,0.000000,1.291292,-6.973842,-7.460658)"
       x1="30.656250"
       y1="34.000000"
       x2="33.218750"
       y2="31.062500" />
    <linearGradient
       id="linearGradient2846">
      <stop
         id="stop2848"
         offset="0.0000000"
         style="stop-color:#8a8a8a;stop-opacity:1.0000000;" />
      <stop
         id="stop2850"
         offset="1.0000000"
         style="stop-color:#484848;stop-opacity:1.0000000;" />
    </linearGradient>
    <linearGradient
       inkscape:collect="always"
       xlink:href="#linearGradient2846"
       id="linearGradient1887"
       gradientUnits="userSpaceOnUse"
       x1="27.366341"
       y1="26.580296"
       x2="31.335964"
       y2="30.557772" />
    <linearGradient
       inkscape:collect="always"
       id="linearGradient2590">
      <stop
         style="stop-color:#000000;stop-opacity:1;"
         offset="0"
         id="stop2592" />
      <stop
         style="stop-color:#000000;stop-opacity:0;"
         offset="1"
         id="stop2594" />
    </linearGradient>
    <linearGradient
       id="linearGradient3435"
       gradientUnits="userSpaceOnUse"
       x1="12.2744"
       y1="32.4165"
       x2="35.3912"
       y2="14.2033">
      <stop
         offset="0.0000000"
         style="stop-color:#ffffc8;stop-opacity:1.0000000;"
         id="stop3437" />
      <stop
         offset="1.0000000"
         style="stop-color:#9a91ef;stop-opacity:0.0000000;"
         id="stop3439" />
    </linearGradient>
    <linearGradient
       y2="14.2033"
       x2="35.3912"
       y1="32.4165"
       x1="12.2744"
       gradientUnits="userSpaceOnUse"
       id="linearGradient3421">
      <stop
         id="stop3423"
         style="stop-color:#ffffff;stop-opacity:1.0000000;"
         offset="0.0000000" />
      <stop
         id="stop3427"
         style="stop-color:#b8c04c;stop-opacity:0.0000000;"
         offset="1.0000000" />
    </linearGradient>
    <linearGradient
       id="linearGradient3406"
       gradientUnits="userSpaceOnUse"
       x1="12.2744"
       y1="32.4165"
       x2="35.3912"
       y2="14.2033">
      <stop
         offset="0.0000000"
         style="stop-color:#b307ff;stop-opacity:0.82178217;"
         id="stop3408" />
      <stop
         offset="1.0000000"
         style="stop-color:#f0ff8b;stop-opacity:0.64356434;"
         id="stop3410" />
      <stop
         offset="1.0000000"
         style="stop-color:#ffffff;stop-opacity:0.0000000;"
         id="stop3412" />
    </linearGradient>
    <linearGradient
       y2="14.2033"
       x2="35.3912"
       y1="32.4165"
       x1="12.2744"
       gradientUnits="userSpaceOnUse"
       id="linearGradient3394">
      <stop
         id="stop3396"
         style="stop-color:#fff307;stop-opacity:1.0000000;"
         offset="0.0000000" />
      <stop
         id="stop3398"
         style="stop-color:#166eff;stop-opacity:1.0000000;"
         offset="0.50000000" />
      <stop
         id="stop3400"
         style="stop-color:#ffffff;stop-opacity:0.0000000;"
         offset="1.0000000" />
    </linearGradient>
    <linearGradient
       inkscape:collect="always"
       id="linearGradient6036">
      <stop
         style="stop-color:#ffffff;stop-opacity:1;"
         offset="0"
         id="stop6038" />
      <stop
         style="stop-color:#ffffff;stop-opacity:0;"
         offset="1"
         id="stop6040" />
    </linearGradient>
    <linearGradient
       inkscape:collect="always"
       id="linearGradient6028">
      <stop
         style="stop-color:#ffffff;stop-opacity:1;"
         offset="0"
         id="stop6030" />
      <stop
         style="stop-color:#ffffff;stop-opacity:0;"
         offset="1"
         id="stop6032" />
    </linearGradient>
    <linearGradient
       id="linearGradient4236">
      <stop
         style="stop-color:#ffffff;stop-opacity:0.32673267;"
         offset="0.0000000"
         id="stop4238" />
      <stop
         style="stop-color:#ffffff;stop-opacity:0.60396039;"
         offset="1.0000000"
         id="stop4240" />
    </linearGradient>
    <linearGradient
       id="aigrd2"
       gradientUnits="userSpaceOnUse"
       x1="12.2744"
       y1="32.4165"
       x2="35.3912"
       y2="14.2033">
      <stop
         offset="0"
         style="stop-color:#FBFBFB"
         id="stop3043" />
      <stop
         offset="0.5"
         style="stop-color:#B6B6B6"
         id="stop3045" />
      <stop
         offset="1"
         style="stop-color:#E4E4E4"
         id="stop3047" />
    </linearGradient>
    <linearGradient
       id="aigrd1"
       gradientUnits="userSpaceOnUse"
       x1="14.9966"
       y1="11.1885"
       x2="32.511"
       y2="34.3075">
      <stop
         offset="0"
         style="stop-color:#EBEBEB"
         id="stop3034" />
      <stop
         offset="0.5"
         style="stop-color:#FFFFFF"
         id="stop3036" />
      <stop
         offset="1"
         style="stop-color:#EBEBEB"
         id="stop3038" />
    </linearGradient>
    <linearGradient
       y2="34.307499"
       x2="32.511002"
       y1="11.188500"
       x1="14.996600"
       gradientUnits="userSpaceOnUse"
       id="linearGradient3112">
      <stop
         id="stop3114"
         style="stop-color:#EBEBEB"
         offset="0" />
      <stop
         id="stop3116"
         style="stop-color:#FFFFFF"
         offset="0.5" />
      <stop
         id="stop3118"
         style="stop-color:#EBEBEB"
         offset="1" />
    </linearGradient>
    <linearGradient
       y2="14.203300"
       x2="35.391201"
       y1="32.416500"
       x1="12.274400"
       gradientUnits="userSpaceOnUse"
       id="linearGradient3121">
      <stop
         id="stop3123"
         style="stop-color:#FBFBFB"
         offset="0" />
      <stop
         id="stop3125"
         style="stop-color:#B6B6B6"
         offset="0.5" />
      <stop
         id="stop3127"
         style="stop-color:#E4E4E4"
         offset="1" />
    </linearGradient>
    <linearGradient
       inkscape:collect="always"
       xlink:href="#aigrd1"
       id="linearGradient3912"
       gradientUnits="userSpaceOnUse"
       x1="14.9966"
       y1="11.1885"
       x2="32.511"
       y2="34.3075"
       gradientTransform="matrix(1.190476,0.000000,0.000000,1.190476,-4.224424,-2.500000)" />
    <linearGradient
       inkscape:collect="always"
       xlink:href="#linearGradient4236"
       id="linearGradient4222"
       x1="21.125000"
       y1="14.625000"
       x2="29.000000"
       y2="28.000000"
       gradientUnits="userSpaceOnUse"
       gradientTransform="matrix(1.250000,0.000000,0.000000,1.250000,-5.652995,-2.604165)" />
    <linearGradient
       inkscape:collect="always"
       xlink:href="#linearGradient4236"
       id="linearGradient4224"
       x1="21.125000"
       y1="14.625000"
       x2="29.000000"
       y2="28.000000"
       gradientUnits="userSpaceOnUse"
       gradientTransform="matrix(1.250000,0.000000,0.000000,1.250000,-5.652995,-2.604165)" />
    <linearGradient
       inkscape:collect="always"
       xlink:href="#aigrd2"
       id="linearGradient4242"
       gradientUnits="userSpaceOnUse"
       gradientTransform="matrix(1.190476,0.000000,0.000000,1.190476,-4.224424,-2.500001)"
       x1="12.2744"
       y1="32.4165"
       x2="35.3912"
       y2="14.2033" />
    <linearGradient
       inkscape:collect="always"
       xlink:href="#linearGradient6028"
       id="linearGradient6034"
       x1="28.702885"
       y1="31.494707"
       x2="17.742729"
       y2="18.366575"
       gradientUnits="userSpaceOnUse" />
    <linearGradient
       inkscape:collect="always"
       xlink:href="#linearGradient6036"
       id="linearGradient6042"
       x1="10.501720"
       y1="3.6100161"
       x2="48.798885"
       y2="54.698483"
       gradientUnits="userSpaceOnUse" />
    <radialGradient
       gradientTransform="matrix(0.848684,0.958020,-0.782119,0.692834,18.69147,-20.52578)"
       gradientUnits="userSpaceOnUse"
       r="21.333334"
       fy="27.569166"
       fx="37.751469"
       cy="27.569166"
       cx="37.751469"
       id="radialGradient3392"
       xlink:href="#linearGradient3394"
       inkscape:collect="always" />
    <radialGradient
       r="21.333334"
       fy="48.238270"
       fx="53.556889"
       cy="48.238270"
       cx="53.556889"
       gradientTransform="matrix(0.158450,-0.158988,0.432907,0.431441,-2.723645,15.00107)"
       gradientUnits="userSpaceOnUse"
       id="radialGradient3429"
       xlink:href="#linearGradient3421"
       inkscape:collect="always" />
    <radialGradient
       r="21.333334"
       fy="33.377594"
       fx="16.885271"
       cy="33.377594"
       cx="16.885271"
       gradientTransform="matrix(5.184267e-3,-0.122860,0.544548,2.297824e-2,0.957234,26.30756)"
       gradientUnits="userSpaceOnUse"
       id="radialGradient3433"
       xlink:href="#linearGradient3435"
       inkscape:collect="always" />
    <radialGradient
       r="21.333334"
       fy="21.618015"
       fx="35.511295"
       cy="21.618015"
       cx="35.511295"
       gradientTransform="matrix(0.105916,-1.914240e-2,0.104789,0.579807,17.13693,7.115158)"
       gradientUnits="userSpaceOnUse"
       id="radialGradient3443"
       xlink:href="#linearGradient3435"
       inkscape:collect="always" />
    <radialGradient
       gradientTransform="matrix(-5.048220e-2,1.387847e-2,-0.128440,-0.467196,35.41257,39.44172)"
       r="21.333334"
       fy="23.914305"
       fx="133.84108"
       cy="23.914305"
       cx="133.84108"
       gradientUnits="userSpaceOnUse"
       id="radialGradient3447"
       xlink:href="#linearGradient3435"
       inkscape:collect="always" />
    <radialGradient
       r="21.333334"
       fy="38.807304"
       fx="26.137741"
       cy="38.807304"
       cx="26.137741"
       gradientTransform="matrix(0.769501,-1.242500,0.670300,0.415141,-21.77857,41.36563)"
       gradientUnits="userSpaceOnUse"
       id="radialGradient3449"
       xlink:href="#linearGradient3406"
       inkscape:collect="always" />
    <radialGradient
       inkscape:collect="always"
       xlink:href="#linearGradient2590"
       id="radialGradient2596"
       cx="23.688078"
       cy="42.696697"
       fx="23.688078"
       fy="42.696697"
       r="21.213203"
       gradientTransform="matrix(1.000000,0.000000,0.000000,0.250000,0.000000,32.02252)"
       gradientUnits="userSpaceOnUse" />
    <radialGradient
       r="17.6875"
       fy="39.125023"
       fx="-7.6659999"
       cy="39.125023"
       cx="-7.6659999"
       gradientTransform="matrix(-1,0,0,0.374558,17.1465,24.47041)"
       gradientUnits="userSpaceOnUse"
       id="radialGradient2260"
       xlink:href="#linearGradient3041"
       inkscape:collect="always" />
    <linearGradient
       gradientTransform="translate(3.875e-6,0)"
       gradientUnits="userSpaceOnUse"
       y2="9.6568537"
       x2="40.859177"
       y1="19.821514"
       x1="31.177404"
       id="linearGradient2256"
       xlink:href="#linearGradient2250"
       inkscape:collect="always" />
    <linearGradient
       gradientTransform="matrix(0.878099,-1.73237e-2,1.73237e-2,0.878099,2.163684,4.067899)"
       gradientUnits="userSpaceOnUse"
       y2="40.295521"
       x2="31.581072"
       y1="36.151836"
       x1="31.662821"
       id="linearGradient2271"
       xlink:href="#linearGradient2265"
       inkscape:collect="always" />
    <linearGradient
       gradientTransform="matrix(1.007254,-2.636526e-2,2.636526e-2,1.007254,1.593414,7.9191e-2)"
       gradientUnits="userSpaceOnUse"
       y2="31.834648"
       x2="29.797779"
       y1="35.273525"
       x1="26.969582"
       id="linearGradient2263"
       xlink:href="#linearGradient2257"
       inkscape:collect="always" />
    <linearGradient
       gradientTransform="matrix(0.87827,0,0,0.87827,2.536984,4.967681)"
       gradientUnits="userSpaceOnUse"
       y2="39.443218"
       x2="16.915297"
       y1="32.28376"
       x1="9.7503242"
       id="linearGradient3093"
       xlink:href="#linearGradient3087"
       inkscape:collect="always" />
    <linearGradient
       gradientTransform="matrix(0.87827,0,0,0.87827,2.847504,5.588712)"
       gradientUnits="userSpaceOnUse"
       y2="6.6285896"
       x2="37.53537"
       y1="13.602527"
       x1="38.227654"
       id="linearGradient3083"
       xlink:href="#linearGradient3077"
       inkscape:collect="always" />
    <linearGradient
       gradientTransform="matrix(2.262848e-2,0.877978,0.877978,-2.262848e-2,1.786978,5.284007)"
       gradientUnits="userSpaceOnUse"
       y2="-4.3002653"
       x2="25.291086"
       y1="-3.6324477"
       x1="50.152931"
       id="linearGradient3067"
       xlink:href="#linearGradient3061"
       inkscape:collect="always" />
    <linearGradient
       gradientTransform="matrix(0.87827,0,0,0.87827,2.536984,4.967681)"
       gradientUnits="userSpaceOnUse"
       y2="6.7758031"
       x2="20.631224"
       y1="42.253601"
       x1="19.648342"
       id="linearGradient3055"
       xlink:href="#linearGradient3049"
       inkscape:collect="always" />
    <radialGradient
       gradientUnits="userSpaceOnUse"
       gradientTransform="matrix(-1,0,0,0.374558,75.20892,24.47041)"
       r="17.6875"
       fy="39.125023"
       fx="50.396420"
       cy="39.125023"
       cx="50.396420"
       id="radialGradient3047"
       xlink:href="#linearGradient3041"
       inkscape:collect="always" />
    <radialGradient
       r="20.530962"
       fy="35.878170"
       fx="24.445690"
       cy="35.878170"
       cx="24.445690"
       gradientTransform="matrix(2.049266,-1.696401e-32,0.000000,2.049266,-25.65002,-37.31089)"
       gradientUnits="userSpaceOnUse"
       id="radialGradient1366"
       xlink:href="#linearGradient11520"
       inkscape:collect="always" />
    <radialGradient
       r="6.5659914"
       fy="44.565483"
       fx="30.203562"
       cy="44.565483"
       cx="30.203562"
       gradientTransform="matrix(1.000000,0.000000,0.000000,0.338462,2.220359e-14,29.48178)"
       gradientUnits="userSpaceOnUse"
       id="radialGradient1356"
       xlink:href="#linearGradient11508"
       inkscape:collect="always" />
    <radialGradient
       r="3.8335034"
       fy="15.048258"
       fx="27.577173"
       cy="15.048258"
       cx="27.577173"
       gradientTransform="matrix(1.243453,2.106784e-16,-2.106784e-16,1.243453,-6.713754,-3.742847)"
       gradientUnits="userSpaceOnUse"
       id="radialGradient1354"
       xlink:href="#linearGradient11494"
       inkscape:collect="always" />
    <radialGradient
       r="3.8335034"
       fy="16.049133"
       fx="27.577173"
       cy="16.049133"
       cx="27.577173"
       gradientTransform="matrix(1.243453,2.106784e-16,-2.106784e-16,1.243453,-6.713754,-3.742847)"
       gradientUnits="userSpaceOnUse"
       id="radialGradient1352"
       xlink:href="#linearGradient11494"
       inkscape:collect="always" />
    <radialGradient
       r="20.530962"
       fy="35.878170"
       fx="24.445690"
       cy="35.878170"
       cx="24.445690"
       gradientTransform="matrix(1.995058,-1.651527e-32,0.000000,1.995058,-24.32488,-35.70087)"
       gradientUnits="userSpaceOnUse"
       id="radialGradient1350"
       xlink:href="#linearGradient11520"
       inkscape:collect="always" />
    <radialGradient
       r="6.5659914"
       fy="44.565483"
       fx="30.203562"
       cy="44.565483"
       cx="30.203562"
       gradientTransform="matrix(1.000000,0.000000,0.000000,0.338462,-1.353344e-14,29.48178)"
       gradientUnits="userSpaceOnUse"
       id="radialGradient1348"
       xlink:href="#linearGradient11508"
       inkscape:collect="always" />
    <radialGradient
       inkscape:collect="always"
       xlink:href="#linearGradient11508"
       id="radialGradient11532"
       gradientUnits="userSpaceOnUse"
       gradientTransform="matrix(1.000000,0.000000,0.000000,0.338462,3.185827e-15,29.48178)"
       cx="30.203562"
       cy="44.565483"
       fx="30.203562"
       fy="44.565483"
       r="6.5659914" />
    <radialGradient
       inkscape:collect="always"
       xlink:href="#linearGradient11520"
       id="radialGradient11526"
       cx="24.445690"
       cy="35.878170"
       fx="24.445690"
       fy="35.878170"
       r="20.530962"
       gradientUnits="userSpaceOnUse"
       gradientTransform="matrix(1.995058,-1.651527e-32,0.000000,1.995058,-24.32488,-35.70087)" />
    <radialGradient
       inkscape:collect="always"
       xlink:href="#linearGradient11508"
       id="radialGradient11514"
       cx="30.203562"
       cy="44.565483"
       fx="30.203562"
       fy="44.565483"
       r="6.5659914"
       gradientTransform="matrix(1.000000,0.000000,0.000000,0.338462,2.166583e-14,29.48178)"
       gradientUnits="userSpaceOnUse" />
    <radialGradient
       inkscape:collect="always"
       xlink:href="#linearGradient11494"
       id="radialGradient11504"
       gradientUnits="userSpaceOnUse"
       gradientTransform="matrix(1.243453,2.106784e-16,-2.106784e-16,1.243453,-6.713754,-3.742847)"
       cx="27.577173"
       cy="16.049133"
       fx="27.577173"
       fy="16.049133"
       r="3.8335034" />
    <radialGradient
       inkscape:collect="always"
       xlink:href="#linearGradient11494"
       id="radialGradient11500"
       cx="27.577173"
       cy="15.048258"
       fx="27.577173"
       fy="15.048258"
       r="3.8335034"
       gradientUnits="userSpaceOnUse"
       gradientTransform="matrix(1.243453,2.106784e-16,-2.106784e-16,1.243453,-6.713754,-3.742847)" />
    <radialGradient
       inkscape:collect="always"
       xlink:href="#linearGradient11399"
       id="radialGradient11441"
       gradientUnits="userSpaceOnUse"
       gradientTransform="matrix(1.000000,0.000000,0.000000,0.487395,0.000000,20.06483)"
       cx="12.071428"
       cy="39.142857"
       fx="12.071428"
       fy="39.142857"
       r="8.5000000" />
    <linearGradient
       inkscape:collect="always"
       xlink:href="#linearGradient11415"
       id="linearGradient11439"
       gradientUnits="userSpaceOnUse"
       gradientTransform="translate(-60.85714,0.428571)"
       x1="13.267134"
       y1="19.774456"
       x2="26.758644"
       y2="33.462429" />
    <linearGradient
       inkscape:collect="always"
       xlink:href="#linearGradient11415"
       id="linearGradient11427"
       gradientUnits="userSpaceOnUse"
       x1="9.6957054"
       y1="9.3458843"
       x2="35.679932"
       y2="39.033859"
       gradientTransform="translate(-60.57143,0.000000)" />
    <linearGradient
       inkscape:collect="always"
       xlink:href="#linearGradient11415"
       id="linearGradient11425"
       gradientUnits="userSpaceOnUse"
       x1="15.828360"
       y1="3.7744560"
       x2="43.615788"
       y2="34.462429"
       gradientTransform="translate(-60.28571,-0.285714)" />
    <linearGradient
       inkscape:collect="always"
       id="linearGradient11399">
      <stop
         style="stop-color:#000000;stop-opacity:1;"
         offset="0"
         id="stop11401" />
      <stop
         style="stop-color:#000000;stop-opacity:0;"
         offset="1"
         id="stop11403" />
    </linearGradient>
    <linearGradient
       id="linearGradient11415">
      <stop
         style="stop-color:#204a87;stop-opacity:0.0000000;"
         offset="0.0000000"
         id="stop11417" />
      <stop
         id="stop11423"
         offset="0.50000000"
         style="stop-color:#204a87;stop-opacity:1.0000000;" />
      <stop
         style="stop-color:#204a87;stop-opacity:0;"
         offset="1"
         id="stop11419" />
    </linearGradient>
    <linearGradient
       inkscape:collect="always"
       id="linearGradient11494">
      <stop
         style="stop-color:#ef2929;stop-opacity:1;"
         offset="0"
         id="stop11496" />
      <stop
         style="stop-color:#ef2929;stop-opacity:0;"
         offset="1"
         id="stop11498" />
    </linearGradient>
    <linearGradient
       inkscape:collect="always"
       id="linearGradient11508">
      <stop
         style="stop-color:#000000;stop-opacity:1;"
         offset="0"
         id="stop11510" />
      <stop
         style="stop-color:#000000;stop-opacity:0;"
         offset="1"
         id="stop11512" />
    </linearGradient>
    <linearGradient
       id="linearGradient11520">
      <stop
         style="stop-color:#ffffff;stop-opacity:1.0000000;"
         offset="0.0000000"
         id="stop11522" />
      <stop
         style="stop-color:#dcdcdc;stop-opacity:1.0000000;"
         offset="1.0000000"
         id="stop11524" />
    </linearGradient>
    <linearGradient
       id="linearGradient3041"
       inkscape:collect="always">
      <stop
         id="stop4447"
         offset="0"
         style="stop-color:#000000;stop-opacity:1;" />
      <stop
         id="stop4449"
         offset="1"
         style="stop-color:#000000;stop-opacity:0;" />
    </linearGradient>
    <linearGradient
       id="linearGradient3049">
      <stop
         id="stop3051"
         offset="0"
         style="stop-color:#b6b6b6;stop-opacity:1;" />
      <stop
         style="stop-color:#f2f2f2;stop-opacity:1;"
         offset="0.5"
         id="stop2262" />
      <stop
         id="stop2264"
         offset="0.67612958"
         style="stop-color:#fafafa;stop-opacity:1;" />
      <stop
         style="stop-color:#d8d8d8;stop-opacity:1;"
         offset="0.84051722"
         id="stop2268" />
      <stop
         style="stop-color:#f2f2f2;stop-opacity:1;"
         offset="0.875"
         id="stop2266" />
      <stop
         id="stop3053"
         offset="1"
         style="stop-color:#dbdbdb;stop-opacity:1;" />
    </linearGradient>
    <linearGradient
       id="linearGradient3061">
      <stop
         id="stop3063"
         offset="0"
         style="stop-color:#ffffff;stop-opacity:1;" />
      <stop
         id="stop3065"
         offset="1"
         style="stop-color:#000000;stop-opacity:1;" />
    </linearGradient>
    <linearGradient
       id="linearGradient3077">
      <stop
         id="stop3079"
         offset="0"
         style="stop-color:#98a0a9;stop-opacity:1;" />
      <stop
         id="stop3081"
         offset="1"
         style="stop-color:#c3d0dd;stop-opacity:1;" />
    </linearGradient>
    <linearGradient
       id="linearGradient3087">
      <stop
         id="stop3089"
         offset="0"
         style="stop-color:#3465a4;stop-opacity:1;" />
      <stop
         style="stop-color:#9fbce1;stop-opacity:1;"
         offset="0"
         id="stop3095" />
      <stop
         id="stop2242"
         offset="0"
         style="stop-color:#6b95ca;stop-opacity:1;" />
      <stop
         style="stop-color:#3d6aa5;stop-opacity:1;"
         offset="0.75"
         id="stop2244" />
      <stop
         id="stop3091"
         offset="1"
         style="stop-color:#386eb4;stop-opacity:1;" />
    </linearGradient>
    <linearGradient
       id="linearGradient2257"
       inkscape:collect="always">
      <stop
         id="stop2259"
         offset="0"
         style="stop-color:#ffffff;stop-opacity:1;" />
      <stop
         id="stop2261"
         offset="1"
         style="stop-color:#ffffff;stop-opacity:0;" />
    </linearGradient>
    <linearGradient
       id="linearGradient2265"
       inkscape:collect="always">
      <stop
         id="stop2267"
         offset="0"
         style="stop-color:#000000;stop-opacity:1;" />
      <stop
         id="stop2269"
         offset="1"
         style="stop-color:#000000;stop-opacity:0;" />
    </linearGradient>
    <linearGradient
       id="linearGradient2250"
       inkscape:collect="always">
      <stop
         id="stop2252"
         offset="0"
         style="stop-color:#ffffff;stop-opacity:1;" />
      <stop
         id="stop2254"
         offset="1"
         style="stop-color:#ffffff;stop-opacity:0;" />
    </linearGradient>
    <linearGradient
       inkscape:collect="always"
       xlink:href="#linearGradient2265"
       id="linearGradient4517"
       gradientUnits="userSpaceOnUse"
       gradientTransform="matrix(0.878099,-1.73237e-2,1.73237e-2,0.878099,-35.81671,-42.17969)"
       x1="31.662821"
       y1="36.151836"
       x2="31.581072"
       y2="40.295521" />
    <linearGradient
       inkscape:collect="always"
       xlink:href="#linearGradient2257"
       id="linearGradient4521"
       gradientUnits="userSpaceOnUse"
       gradientTransform="matrix(1.007254,-2.636526e-2,2.636526e-2,1.007254,54.36302,-40.6684)"
       x1="26.969582"
       y1="35.273525"
       x2="29.797779"
       y2="31.834648" />
    <linearGradient
       inkscape:collect="always"
       xlink:href="#linearGradient3087"
       id="linearGradient4526"
       gradientUnits="userSpaceOnUse"
       gradientTransform="matrix(0.87827,0,0,0.87827,-35.44341,-41.27991)"
       x1="9.7503242"
       y1="32.28376"
       x2="16.915297"
       y2="39.443218" />
    <linearGradient
       inkscape:collect="always"
       xlink:href="#linearGradient2250"
       id="linearGradient4529"
       gradientUnits="userSpaceOnUse"
       gradientTransform="translate(-37.98039,-46.24759)"
       x1="31.177404"
       y1="19.821514"
       x2="40.859177"
       y2="9.6568537" />
    <linearGradient
       inkscape:collect="always"
       xlink:href="#linearGradient3077"
       id="linearGradient4532"
       gradientUnits="userSpaceOnUse"
       gradientTransform="matrix(0.87827,0,0,0.87827,-35.13289,-40.65888)"
       x1="38.227654"
       y1="13.602527"
       x2="37.53537"
       y2="6.6285896" />
    <linearGradient
       inkscape:collect="always"
       xlink:href="#linearGradient3061"
       id="linearGradient4535"
       gradientUnits="userSpaceOnUse"
       gradientTransform="matrix(2.262848e-2,0.877978,0.877978,-2.262848e-2,-64.22466,14.6361)"
       x1="50.152931"
       y1="-3.6324477"
       x2="25.291086"
       y2="-4.3002653" />
    <linearGradient
       inkscape:collect="always"
       xlink:href="#linearGradient3049"
       id="linearGradient4539"
       gradientUnits="userSpaceOnUse"
       gradientTransform="matrix(0.87827,0,0,0.87827,-35.44341,-41.27991)"
       x1="19.648342"
       y1="42.253601"
       x2="20.631224"
       y2="6.7758031" />
    <linearGradient
       inkscape:collect="always"
       xlink:href="#linearGradient5427"
       id="linearGradient5433"
       x1="9.9375"
       y1="5.7747211"
       x2="101.3125"
       y2="88.51236"
       gradientUnits="userSpaceOnUse" />
  </defs>
  <sodipodi:namedview
     id="base"
     pagecolor="#ffffff"
     bordercolor="#666666"
     borderopacity="0.25490196"
     inkscape:pageopacity="0.0"
     inkscape:pageshadow="2"
     inkscape:zoom="1"
     inkscape:cx="8.1226355"
     inkscape:cy="18.491383"
     inkscape:current-layer="layer1"
     showgrid="false"
     inkscape:grid-bbox="true"
     inkscape:document-units="px"
     inkscape:window-width="872"
     inkscape:window-height="804"
     inkscape:window-x="302"
     inkscape:window-y="345"
     inkscape:showpageshadow="false"
     fill="#99b00b"
     stroke="#788600" />
  <metadata
     id="metadata4">
    <rdf:RDF>
      <cc:Work
         rdf:about="">
        <dc:format>image/svg+xml</dc:format>
        <dc:type
           rdf:resource="http://purl.org/dc/dcmitype/StillImage" />
        <dc:title>YAST check media</dc:title>
        <dc:creator>
          <cc:Agent>
            <dc:title>Jakub Steiner</dc:title>
          </cc:Agent>
        </dc:creator>
        <dc:source>http://jimmac.musichall.cz</dc:source>
        <dc:subject>
          <rdf:Bag>
            <rdf:li>check</rdf:li>
            <rdf:li>verify</rdf:li>
            <rdf:li>media</rdf:li>
          </rdf:Bag>
        </dc:subject>
        <cc:license
           rdf:resource="http://creativecommons.org/licenses/by-sa/2.0/" />
      </cc:Work>
      <cc:License
         rdf:about="http://creativecommons.org/licenses/by-sa/2.0/">
        <cc:permits
           rdf:resource="http://web.resource.org/cc/Reproduction" />
        <cc:permits
           rdf:resource="http://web.resource.org/cc/Distribution" />
        <cc:requires
           rdf:resource="http://web.resource.org/cc/Notice" />
        <cc:requires
           rdf:resource="http://web.resource.org/cc/Attribution" />
        <cc:permits
           rdf:resource="http://web.resource.org/cc/DerivativeWorks" />
        <cc:requires
           rdf:resource="http://web.resource.org/cc/ShareAlike" />
      </cc:License>
    </rdf:RDF>
  </metadata>
  <g
     id="layer1"
     inkscape:label="Layer 1"
     inkscape:groupmode="layer">
    <path
       sodipodi:type="arc"
       style="opacity:0.5;color:#000000;fill:url(#radialGradient2596);fill-opacity:1.0;fill-rule:nonzero;stroke:none;stroke-width:1;stroke-linecap:butt;stroke-linejoin:miter;marker:none;marker-start:none;marker-mid:none;marker-end:none;stroke-miterlimit:4;stroke-dasharray:none;stroke-dashoffset:0;stroke-opacity:1;visibility:visible;display:block;overflow:visible"
       id="path2588"
       sodipodi:cx="23.688078"
       sodipodi:cy="42.696697"
       sodipodi:rx="21.213203"
       sodipodi:ry="5.3033009"
       d="M 44.901281 42.696697 A 21.213203 5.3033009 0 1 1  2.4748745,42.696697 A 21.213203 5.3033009 0 1 1  44.901281 42.696697 z" />
    <path
       id="path3040"
       d="M 24.347006,4.1666669 C 12.799386,4.1666669 3.5136719,13.452381 3.5136719,25.000000 C 3.5136719,36.547620 12.799386,45.833335 24.347006,45.833335 C 35.894626,45.833335 45.180341,36.547620 45.180341,25.000000 C 45.180341,13.452381 35.894626,4.1666669 24.347006,4.1666669 L 24.347006,4.1666669 z M 24.347006,30.000001 C 21.608911,30.000001 19.347006,27.738096 19.347006,25.000000 C 19.347006,22.261905 21.608911,20.000000 24.347006,20.000000 C 27.085101,20.000000 29.347006,22.261905 29.347006,25.000000 C 29.347006,27.738096 27.085101,30.000001 24.347006,30.000001 z "
       style="fill:url(#linearGradient3912);fill-rule:nonzero;stroke:none;stroke-miterlimit:4.0000000" />
    <path
       id="path3049"
       d="M 24.347006,4.1666665 C 12.799386,4.1666665 3.5136720,13.452381 3.5136720,25.000000 C 3.5136720,36.547620 12.799386,45.833335 24.347006,45.833335 C 35.894626,45.833335 45.180341,36.547620 45.180341,25.000000 C 45.180341,13.452381 35.894626,4.1666665 24.347006,4.1666665 L 24.347006,4.1666665 z M 24.347006,30.000001 C 21.608911,30.000001 19.347006,27.738096 19.347006,25.000000 C 19.347006,22.261905 21.608911,20.000000 24.347006,20.000000 C 27.085101,20.000000 29.347006,22.261905 29.347006,25.000000 C 29.347006,27.738096 27.085101,30.000001 24.347006,30.000001 z "
       style="fill:url(#linearGradient4242);fill-rule:nonzero;stroke:#808080;stroke-miterlimit:4.0000000;stroke-opacity:1.0000000" />
    <path
       id="path3051"
       d="M 24.347006,14.895835 C 18.704420,14.895835 14.242840,19.488638 14.242840,25.000000 C 14.242840,30.642588 18.835644,35.104166 24.347006,35.104166 C 29.989592,35.104166 34.451172,30.511364 34.451172,25.000000 C 34.451172,19.357414 29.858368,14.895835 24.347006,14.895835 L 24.347006,14.895835 z M 24.347006,30.511364 C 21.328879,30.511364 18.835644,28.018129 18.835644,25.000000 C 18.835644,21.981873 21.328879,19.488638 24.347006,19.488638 C 27.365133,19.488638 29.858368,21.981873 29.858368,25.000000 C 29.858368,28.018129 27.365133,30.511364 24.347006,30.511364 z "
       style="opacity:0.10999996;fill-rule:nonzero;stroke:none;stroke-miterlimit:4.0000000" />
    <path
       style="fill:url(#linearGradient4224);fill-opacity:1.0000000;fill-rule:nonzero;stroke:none;stroke-miterlimit:4.0000000;stroke-opacity:1.0000000"
       d="M 29.922111,5.6692337 L 26.325518,19.663896 C 27.450222,19.963413 28.349661,20.659366 28.960646,21.622438 L 41.352866,14.073153 C 38.817618,9.9434382 34.748656,6.9050853 29.922111,5.6692337 z "
       id="path3916" />
    <path
       id="path4214"
       d="M 17.307824,43.766057 L 22.043079,30.114558 C 20.946815,29.723566 20.107654,28.956005 19.577936,27.945951 L 6.6068752,34.450599 C 8.7939325,38.774811 12.599255,42.137482 17.307824,43.766057 z "
       style="fill:url(#linearGradient4222);fill-opacity:1.0000000;fill-rule:nonzero;stroke:none;stroke-miterlimit:4.0000000;stroke-opacity:1.0000000" />
    <path
       style="fill:none;fill-rule:nonzero;stroke:url(#linearGradient6042);stroke-miterlimit:4.0000000;stroke-opacity:1.0000000;opacity:0.54644809"
       d="M 24.347002,5.2023655 C 13.373458,5.2023655 4.5493711,14.026454 4.5493711,24.999997 C 4.5493711,35.973541 13.373458,44.797628 24.347002,44.797628 C 35.320546,44.797628 44.144633,35.973541 44.144633,24.999997 C 44.144633,14.026454 35.320546,5.2023655 24.347002,5.2023655 L 24.347002,5.2023655 z "
       id="path5264"
       sodipodi:nodetypes="cccccc" />
    <path
       sodipodi:type="arc"
       style="overflow:visible;display:inline;visibility:visible;marker-end:none;marker-mid:none;marker-start:none;marker:none;stroke-opacity:1.0000000;stroke-dashoffset:0.0000000;stroke-miterlimit:4.0000000;stroke-linejoin:miter;stroke-linecap:butt;stroke-width:0.93053865;stroke:url(#linearGradient6034);fill-rule:nonzero;fill-opacity:0.31638417;fill:none;color:#000000;opacity:0.67213115"
       id="path6026"
       sodipodi:cx="24.306795"
       sodipodi:cy="24.930641"
       sodipodi:rx="6.0987959"
       sodipodi:ry="6.0987959"
       d="M 30.405591 24.930641 A 6.0987959 6.0987959 0 1 1  18.207999,24.930641 A 6.0987959 6.0987959 0 1 1  30.405591 24.930641 z"
       transform="translate(8.838835e-2,8.838865e-2)" />
    <path
       style="opacity:0.11428571;stroke-opacity:1.0000000;stroke-miterlimit:4.0000000;stroke:none;fill-rule:nonzero;fill:url(#radialGradient3392);fill-opacity:1.0"
       d="M 24.347006,4.1666665 C 12.799386,4.1666665 3.5136720,13.452381 3.5136720,25.000000 C 3.5136720,36.547620 12.799386,45.833335 24.347006,45.833335 C 35.894626,45.833335 45.180341,36.547620 45.180341,25.000000 C 45.180341,13.452381 35.894626,4.1666665 24.347006,4.1666665 L 24.347006,4.1666665 z M 24.347006,30.000001 C 21.608911,30.000001 19.347006,27.738096 19.347006,25.000000 C 19.347006,22.261905 21.608911,20.000000 24.347006,20.000000 C 27.085101,20.000000 29.347006,22.261905 29.347006,25.000000 C 29.347006,27.738096 27.085101,30.000001 24.347006,30.000001 z "
       id="path3390" />
    <path
       id="path3404"
       d="M 24.347006,4.1666665 C 12.799386,4.1666665 3.5136720,13.452381 3.5136720,25.000000 C 3.5136720,36.547620 12.799386,45.833335 24.347006,45.833335 C 35.894626,45.833335 45.180341,36.547620 45.180341,25.000000 C 45.180341,13.452381 35.894626,4.1666665 24.347006,4.1666665 L 24.347006,4.1666665 z M 24.347006,30.000001 C 21.608911,30.000001 19.347006,27.738096 19.347006,25.000000 C 19.347006,22.261905 21.608911,20.000000 24.347006,20.000000 C 27.085101,20.000000 29.347006,22.261905 29.347006,25.000000 C 29.347006,27.738096 27.085101,30.000001 24.347006,30.000001 z "
       style="opacity:0.097142857;stroke-opacity:1.0000000;stroke-miterlimit:4.0000000;stroke:none;fill-rule:nonzero;fill:url(#radialGradient3449);fill-opacity:1.0" />
    <path
       style="fill-opacity:1.0;fill:url(#radialGradient3429);fill-rule:nonzero;stroke:none;stroke-miterlimit:4.0000000;stroke-opacity:1.0000000;opacity:0.71428571"
       d="M 24.347006,4.1666665 C 12.799386,4.1666665 3.5136720,13.452381 3.5136720,25.000000 C 3.5136720,36.547620 12.799386,45.833335 24.347006,45.833335 C 35.894626,45.833335 45.180341,36.547620 45.180341,25.000000 C 45.180341,13.452381 35.894626,4.1666665 24.347006,4.1666665 L 24.347006,4.1666665 z M 24.347006,30.000001 C 21.608911,30.000001 19.347006,27.738096 19.347006,25.000000 C 19.347006,22.261905 21.608911,20.000000 24.347006,20.000000 C 27.085101,20.000000 29.347006,22.261905 29.347006,25.000000 C 29.347006,27.738096 27.085101,30.000001 24.347006,30.000001 z "
       id="path3419" />
    <path
       id="path3431"
       d="M 24.347006,4.1666665 C 12.799386,4.1666665 3.5136720,13.452381 3.5136720,25.000000 C 3.5136720,36.547620 12.799386,45.833335 24.347006,45.833335 C 35.894626,45.833335 45.180341,36.547620 45.180341,25.000000 C 45.180341,13.452381 35.894626,4.1666665 24.347006,4.1666665 L 24.347006,4.1666665 z M 24.347006,30.000001 C 21.608911,30.000001 19.347006,27.738096 19.347006,25.000000 C 19.347006,22.261905 21.608911,20.000000 24.347006,20.000000 C 27.085101,20.000000 29.347006,22.261905 29.347006,25.000000 C 29.347006,27.738096 27.085101,30.000001 24.347006,30.000001 z "
       style="opacity:0.62285714;stroke-opacity:1.0000000;stroke-miterlimit:4.0000000;stroke:none;fill-rule:nonzero;fill:url(#radialGradient3433);fill-opacity:1.0" />
    <path
       style="opacity:0.37142857;stroke-opacity:1.0000000;stroke-miterlimit:4.0000000;stroke:none;fill-rule:nonzero;fill:url(#radialGradient3443);fill-opacity:1.0"
       d="M 24.347006,4.1666665 C 12.799386,4.1666665 3.5136720,13.452381 3.5136720,25.000000 C 3.5136720,36.547620 12.799386,45.833335 24.347006,45.833335 C 35.894626,45.833335 45.180341,36.547620 45.180341,25.000000 C 45.180341,13.452381 35.894626,4.1666665 24.347006,4.1666665 L 24.347006,4.1666665 z M 24.347006,30.000001 C 21.608911,30.000001 19.347006,27.738096 19.347006,25.000000 C 19.347006,22.261905 21.608911,20.000000 24.347006,20.000000 C 27.085101,20.000000 29.347006,22.261905 29.347006,25.000000 C 29.347006,27.738096 27.085101,30.000001 24.347006,30.000001 z "
       id="path3441" />
    <path
       id="path3445"
       d="M 24.347006,4.1666665 C 12.799386,4.1666665 3.5136720,13.452381 3.5136720,25.000000 C 3.5136720,36.547620 12.799386,45.833335 24.347006,45.833335 C 35.894626,45.833335 45.180341,36.547620 45.180341,25.000000 C 45.180341,13.452381 35.894626,4.1666665 24.347006,4.1666665 L 24.347006,4.1666665 z M 24.347006,30.000001 C 21.608911,30.000001 19.347006,27.738096 19.347006,25.000000 C 19.347006,22.261905 21.608911,20.000000 24.347006,20.000000 C 27.085101,20.000000 29.347006,22.261905 29.347006,25.000000 C 29.347006,27.738096 27.085101,30.000001 24.347006,30.000001 z "
       style="fill-opacity:1.0;fill:url(#radialGradient3447);fill-rule:nonzero;stroke:none;stroke-miterlimit:4.0000000;stroke-opacity:1.0000000;opacity:0.23428571" />
    <path
       style="font-size:20.48839951px;fill:url(#linearGradient5433);fill-rule:nonzero;stroke:none;stroke-miterlimit:4;font-family:TrebuchetMS-Bold;fill-opacity:1.0"
       d="M 23.40625 5.78125 C 18.079211 6.0351772 13.329106 8.4604095 10 12.1875 C 12.10733 12.765537 13.556759 13.249225 14.03125 13.40625 C 14.036938 13.087648 14.09375 10.21875 14.09375 10.21875 L 14.125 10.125 L 14.25 10.09375 C 14.897447 10.188191 28.738895 12.230741 34.5625 15.625 C 35.282767 16.048287 35.616456 16.512465 36.0625 16.96875 C 37.671442 18.632313 39.805953 25.537314 40.03125 26.96875 L 39.9375 27.125 C 39.925295 27.130581 39.89069 27.147416 39.875 27.15625 C 39.770887 27.218335 39.605092 27.333058 39.40625 27.46875 C 38.047637 28.418867 34.853675 30.643091 30.78125 30.28125 C 29.397835 30.157907 27.882538 29.781274 26.1875 29.15625 C 26.170574 29.150009 26.141957 29.162541 26.125 29.15625 C 25.51846 29.448651 24.843031 29.625 24.125 29.625 C 21.891125 29.625 20.025248 28.044404 19.59375 25.9375 C 18.624498 25.366546 17.627017 24.742914 16.59375 24.0625 C 16.847493 24.66102 18.049734 27.522095 18.25 28 L 18.3125 28.09375 C 19.147692 28.525001 27.151568 32.583065 31.125 32.5 C 34.331509 32.436279 37.755009 30.88404 39.125 30.0625 L 39.5625 30 C 39.566305 30.002987 39.590213 29.996839 39.59375 30 C 39.602822 30.010474 39.618076 30.050688 39.625 30.0625 C 39.626867 30.066703 39.654593 30.089425 39.65625 30.09375 C 39.657705 30.098192 39.654991 30.120448 39.65625 30.125 C 39.65714 30.129752 39.655533 30.151407 39.65625 30.15625 C 39.665606 30.240011 39.644949 30.346222 39.625 30.4375 C 39.540796 30.830064 39.349603 31.540467 39.21875 31.875 L 39.125 32.15625 C 38.969112 32.570435 38.822544 32.979797 38.53125 33.21875 C 37.723363 33.953812 36.424827 34.520991 34.40625 35.40625 C 31.283945 36.770553 26.232916 37.652308 21.53125 37.625 C 19.848346 37.587452 18.211547 37.381464 16.78125 37.21875 C 13.796624 36.878527 11.386003 36.625787 9.9375 37.75 C 13.460335 41.731396 18.608901 44.25 24.34375 44.25 C 34.963463 44.25 43.5625 35.620853 43.5625 25 C 43.562501 14.380288 34.9646 5.78125 24.34375 5.78125 C 24.03193 5.78125 23.714426 5.76656 23.40625 5.78125 z M 29.34375 15.9375 C 27.899103 15.976619 26.532406 16.533677 25.46875 17.53125 C 24.630756 18.307504 24.057834 19.293389 23.78125 20.375 C 23.898644 20.366058 24.005328 20.375 24.125 20.375 C 24.623633 20.375 25.112418 20.447523 25.5625 20.59375 C 25.772011 19.911287 26.155053 19.28113 26.6875 18.78125 C 27.489697 18.029121 28.554795 17.646539 29.65625 17.6875 C 31.930844 17.767151 33.701238 19.689603 33.625 21.96875 C 33.590865 23.065655 33.148222 24.089346 32.34375 24.84375 C 31.537001 25.592468 30.479871 25.971637 29.375 25.9375 C 29.135221 25.928619 28.883491 25.922887 28.65625 25.875 C 28.536683 26.498498 28.311709 27.086242 27.96875 27.59375 C 28.393532 27.708731 28.854544 27.764129 29.3125 27.78125 C 30.898686 27.832454 32.376315 27.26961 33.53125 26.1875 C 34.682773 25.111077 35.348219 23.639585 35.40625 22.0625 C 35.517762 18.802511 32.981016 16.054702 29.71875 15.9375 C 29.595274 15.933411 29.466178 15.934185 29.34375 15.9375 z M 30.25 19.75 C 29.718291 19.767955 29.222666 19.96203 28.90625 20.21875 C 28.662234 20.426683 28.5 20.714857 28.5 21 C 28.5 21.283222 28.662234 21.542475 28.90625 21.75 C 29.241279 22.021326 29.773464 22.21875 30.34375 22.21875 C 31.069992 22.21875 31.703823 21.90874 32 21.5 C 32.073463 21.391963 32.132905 21.24694 32.15625 21.125 C 32.162514 21.084051 32.15625 21.04203 32.15625 21 C 32.15625 20.820466 32.104073 20.622292 32 20.46875 C 31.703823 20.058743 31.069992 19.75 30.34375 19.75 C 30.312067 19.75 30.281277 19.748944 30.25 19.75 z "
       id="path2447" />
  </g>
</svg>
