<?xml version="1.0" encoding="UTF-8" standalone="no"?>
<svg
   xmlns:dc="http://purl.org/dc/elements/1.1/"
   xmlns:cc="http://creativecommons.org/ns#"
   xmlns:rdf="http://www.w3.org/1999/02/22-rdf-syntax-ns#"
   xmlns:svg="http://www.w3.org/2000/svg"
   xmlns="http://www.w3.org/2000/svg"
   id="svg14"
   version="1"
   height="64"
   width="64">
  <metadata
     id="metadata20">
    <rdf:RDF>
      <cc:Work
         rdf:about="">
        <dc:format>image/svg+xml</dc:format>
        <dc:type
           rdf:resource="http://purl.org/dc/dcmitype/StillImage" />
        <dc:title></dc:title>
      </cc:Work>
    </rdf:RDF>
  </metadata>
  <defs
     id="defs18" />
  <path
     id="path827-7-3"
     d="m 44,6 c -0.134209,0 -0.268032,0.00165 -0.401451,0.00494 C 34.9475,6.2179821 28,13.297653 28,22 c 0,8.836556 7.163444,16 16,16 8.836556,0 16,-7.163444 16,-16 L 46,30 36,20 Z"
     style="opacity:1;fill:#666666;fill-opacity:1;stroke:none;stroke-width:3.77952766;stroke-linecap:round;stroke-linejoin:round;stroke-miterlimit:4;stroke-dasharray:none;stroke-opacity:1" />
  <path
     id="path834-6"
     d="M 32,25 8,49 9.173828,50.173828 A 4,4 0 0 1 12,49 a 4,4 0 0 1 4,4 4,4 0 0 1 -1.173828,2.826172 L 16,57 40,33 Z"
     style="fill:#666666;stroke:none;stroke-width:1px;stroke-linecap:butt;stroke-linejoin:miter;stroke-opacity:1" />
  <path
     id="path836-5"
     d="m 13,44 a 8,8 0 0 0 -8,8 8,8 0 0 0 8,8 8,8 0 0 0 8,-8 8,8 0 0 0 -8,-8 z m 0,4 a 4,4 0 0 1 4,4 4,4 0 0 1 -4,4 4,4 0 0 1 -4,-4 4,4 0 0 1 4,-4 z"
     style="opacity:1;fill:#666666;fill-opacity:1;stroke:none;stroke-width:3.77952766;stroke-linecap:round;stroke-linejoin:round;stroke-miterlimit:4;stroke-dasharray:none;stroke-opacity:1" />
  <path
     id="path834"
     d="M 33,23 9,47 10.173828,48.173828 A 4,4 0 0 1 13,47 a 4,4 0 0 1 4,4 4,4 0 0 1 -1.173828,2.826172 L 17,55 41,31 Z"
     style="fill:#b3b3b3;stroke:none;stroke-width:1px;stroke-linecap:butt;stroke-linejoin:miter;stroke-opacity:1" />
  <path
     id="path836"
     d="m 13,43 a 8,8 0 0 0 -8,8 8,8 0 0 0 8,8 8,8 0 0 0 8,-8 8,8 0 0 0 -8,-8 z m 0,4 a 4,4 0 0 1 4,4 4,4 0 0 1 -4,4 4,4 0 0 1 -4,-4 4,4 0 0 1 4,-4 z"
     style="opacity:1;fill:#cccccc;fill-opacity:1;stroke:none;stroke-width:3.77952766;stroke-linecap:round;stroke-linejoin:round;stroke-miterlimit:4;stroke-dasharray:none;stroke-opacity:1" />
  <path
     id="path827-7"
     d="m 44,4 c -8.836556,0 -16,8.163444 -16,17 0,8.836556 7.163444,16 16,16 8.836556,0 16,-7.163444 16,-16 L 46,29 36,19 44,6 Z"
     style="opacity:1;fill:#666666;fill-opacity:1;stroke:none;stroke-width:3.77952766;stroke-linecap:round;stroke-linejoin:round;stroke-miterlimit:4;stroke-dasharray:none;stroke-opacity:1" />
  <path
     id="path827"
     d="M 44 4 A 16 16 0 0 0 28 20 A 16 16 0 0 0 44 36 A 16 16 0 0 0 60 20 L 46 28 L 36 18 L 44 4 z "
     style="opacity:1;fill:#cccccc;fill-opacity:1;stroke:none;stroke-width:3.77952766;stroke-linecap:round;stroke-linejoin:round;stroke-miterlimit:4;stroke-dasharray:none;stroke-opacity:1" />
  <path
     id="path878-9"
     d="m 19,42 2,-2 3,3 v 1 l -2,1 -3,-2 z"
     style="fill:#808080;stroke:none;stroke-width:1px;stroke-linecap:butt;stroke-linejoin:miter;stroke-opacity:1" />
  <path
     id="path878"
     d="m 19,43 2,-2 3,3 -2,2 z"
     style="fill:#999999;stroke:none;stroke-width:1px;stroke-linecap:butt;stroke-linejoin:miter;stroke-opacity:1" />
  <path
     id="path878-5-1"
     d="m 22,39 2,-2 3,3 v 1 l -2,1 -3,-2 z"
     style="fill:#808080;stroke:none;stroke-width:1px;stroke-linecap:butt;stroke-linejoin:miter;stroke-opacity:1" />
  <path
     id="path878-5"
     d="m 22,40 2,-2 3,3 -2,2 z"
     style="fill:#999999;stroke:none;stroke-width:1px;stroke-linecap:butt;stroke-linejoin:miter;stroke-opacity:1" />
  <path
     id="path878-6-2"
     d="m 25,36 2,-2 3,3 v 1 l -2,1 -3,-2 z"
     style="fill:#808080;stroke:none;stroke-width:1px;stroke-linecap:butt;stroke-linejoin:miter;stroke-opacity:1" />
  <path
     id="path878-6"
     d="m 25,37 2,-2 3,3 -2,2 z"
     style="fill:#999999;stroke:none;stroke-width:1px;stroke-linecap:butt;stroke-linejoin:miter;stroke-opacity:1" />
  <path
     id="path878-5-2-7"
     d="m 28,33 2,-2 3,3 v 1 l -2,1 -3,-2 z"
     style="fill:#808080;stroke:none;stroke-width:1px;stroke-linecap:butt;stroke-linejoin:miter;stroke-opacity:1" />
  <path
     id="path878-5-2"
     d="m 28,34 2,-2 3,3 -2,2 z"
     style="fill:#999999;stroke:none;stroke-width:1px;stroke-linecap:butt;stroke-linejoin:miter;stroke-opacity:1" />
</svg>
