<?xml version="1.0" encoding="UTF-8" standalone="no"?>
<svg
   xmlns:dc="http://purl.org/dc/elements/1.1/"
   xmlns:cc="http://creativecommons.org/ns#"
   xmlns:rdf="http://www.w3.org/1999/02/22-rdf-syntax-ns#"
   xmlns:svg="http://www.w3.org/2000/svg"
   xmlns="http://www.w3.org/2000/svg"
   width="64"
   height="64"
   version="1"
   id="svg14">
  <metadata
     id="metadata20">
    <rdf:RDF>
      <cc:Work
         rdf:about="">
        <dc:format>image/svg+xml</dc:format>
        <dc:type
           rdf:resource="http://purl.org/dc/dcmitype/StillImage" />
        <dc:title></dc:title>
      </cc:Work>
    </rdf:RDF>
  </metadata>
  <defs
     id="defs18" />
  <rect
     ry="2"
     y="36"
     x="4"
     height="12"
     width="32"
     id="rect879-2"
     style="opacity:1;fill:#782121;fill-opacity:1;stroke:none;stroke-width:3.77952766;stroke-linecap:round;stroke-linejoin:round;stroke-miterlimit:4;stroke-dasharray:none;stroke-opacity:1" />
  <path
     id="path1152-0"
     d="M 20,5 A 10,10 0 0 0 10,15 10,10 0 0 0 20,25 10,10 0 0 0 30,15 10,10 0 0 0 20,5 Z"
     style="opacity:1;fill:#6c5353;fill-opacity:1;stroke:none;stroke-width:3.14960623;stroke-linecap:round;stroke-linejoin:round;stroke-miterlimit:4;stroke-dasharray:none;stroke-opacity:1" />
  <path
     id="path1152"
     d="M 20,4 A 10,10 0 0 0 10,14 10,10 0 0 0 20,24 10,10 0 0 0 30,14 10,10 0 0 0 20,4 Z"
     style="opacity:1;fill:#916f6f;fill-opacity:1;stroke:none;stroke-width:3.14960623;stroke-linecap:round;stroke-linejoin:round;stroke-miterlimit:4;stroke-dasharray:none;stroke-opacity:1" />
  <rect
     ry="9.8075132"
     y="26"
     x="4"
     height="20"
     width="32"
     id="rect877"
     style="opacity:1;fill:#c83737;fill-opacity:1;stroke:none;stroke-width:4.2256403;stroke-linecap:round;stroke-linejoin:round;stroke-miterlimit:4;stroke-dasharray:none;stroke-opacity:1" />
  <rect
     ry="2"
     y="34"
     x="4"
     height="12"
     width="32"
     id="rect879"
     style="opacity:1;fill:#c83737;fill-opacity:1;stroke:none;stroke-width:3.77952766;stroke-linecap:round;stroke-linejoin:round;stroke-miterlimit:4;stroke-dasharray:none;stroke-opacity:1" />
  <rect
     ry="2"
     y="44"
     x="28"
     height="12"
     width="32"
     id="rect879-2-7"
     style="opacity:1;fill:#216778;fill-opacity:1;stroke:none;stroke-width:3.77952766;stroke-linecap:round;stroke-linejoin:round;stroke-miterlimit:4;stroke-dasharray:none;stroke-opacity:1" />
  <path
     id="path1152-0-0"
     d="m 44,12.999999 a 10,10 0 0 0 -10,10 10,10 0 0 0 10,10 10,10 0 0 0 10,-10 10,10 0 0 0 -10,-10 z"
     style="opacity:1;fill:#deaa87;fill-opacity:1;stroke:none;stroke-width:3.14960623;stroke-linecap:round;stroke-linejoin:round;stroke-miterlimit:4;stroke-dasharray:none;stroke-opacity:1" />
  <path
     id="path1152-9"
     d="m 44,11.999999 a 10,10 0 0 0 -10,10 10,10 0 0 0 10,10 10,10 0 0 0 10,-10 10,10 0 0 0 -10,-10 z"
     style="opacity:1;fill:#e9c6af;fill-opacity:1;stroke:none;stroke-width:3.14960623;stroke-linecap:round;stroke-linejoin:round;stroke-miterlimit:4;stroke-dasharray:none;stroke-opacity:1" />
  <rect
     ry="9.8075132"
     y="34"
     x="28"
     height="20"
     width="32"
     id="rect877-3"
     style="opacity:1;fill:#37abc8;fill-opacity:1;stroke:none;stroke-width:4.2256403;stroke-linecap:round;stroke-linejoin:round;stroke-miterlimit:4;stroke-dasharray:none;stroke-opacity:1" />
  <rect
     ry="2"
     y="42"
     x="28"
     height="12"
     width="32"
     id="rect879-6"
     style="opacity:1;fill:#37abc8;fill-opacity:1;stroke:none;stroke-width:3.77952766;stroke-linecap:round;stroke-linejoin:round;stroke-miterlimit:4;stroke-dasharray:none;stroke-opacity:1" />
  <path
     id="path923-0"
     d="M 48,35 A 14,14 0 0 0 34,49 14,14 0 0 0 48,63 14,14 0 0 0 62,49 14,14 0 0 0 48,35 Z"
     style="opacity:1;fill:#aa8800;fill-opacity:1;stroke:none;stroke-width:5.29133844;stroke-linecap:round;stroke-linejoin:round;stroke-miterlimit:4;stroke-dasharray:none;stroke-opacity:1" />
  <path
     id="path923"
     d="M 48,34 A 14,14 0 0 0 34,48 14,14 0 0 0 48,62 14,14 0 0 0 62,48 14,14 0 0 0 48,34 Z"
     style="opacity:1;fill:#ffcc00;fill-opacity:1;stroke:none;stroke-width:5.29133844;stroke-linecap:round;stroke-linejoin:round;stroke-miterlimit:4;stroke-dasharray:none;stroke-opacity:1" />
  <rect
     ry="1"
     y="45"
     x="41"
     height="10"
     width="14"
     id="rect941-2"
     style="opacity:1;fill:#aa8800;fill-opacity:1;stroke:none;stroke-width:3.77952766;stroke-linecap:round;stroke-linejoin:round;stroke-miterlimit:4;stroke-dasharray:none;stroke-opacity:1" />
  <path
     id="rect943-6"
     d="m 48,38 c -3.324,0 -6,2.676 -6,6 v 3 c 0,3.324 2.676,6 6,6 -2.216,0 -4,-1.784 -4,-4 v -5 c 0,-2.216 1.784,-4 4,-4 2.216,0 4,1.784 4,4 v 5 c 0,2.216 -1.784,4 -4,4 3.324,0 6,-2.676 6,-6 v -3 c 0,-3.324 -2.676,-6 -6,-6 z"
     style="opacity:1;fill:#aa8800;fill-opacity:1;stroke:none;stroke-width:3.77952766;stroke-linecap:round;stroke-linejoin:round;stroke-miterlimit:4;stroke-dasharray:none;stroke-opacity:1" />
  <rect
     ry="1"
     y="46"
     x="41"
     height="10"
     width="14"
     id="rect941"
     style="opacity:1;fill:#ffffff;fill-opacity:1;stroke:none;stroke-width:3.77952766;stroke-linecap:round;stroke-linejoin:round;stroke-miterlimit:4;stroke-dasharray:none;stroke-opacity:1" />
  <path
     id="rect943"
     d="m 48,39 c -3.324,0 -6,2.676 -6,6 v 3 c 0,3.324 2.676,6 6,6 -2.216,0 -4,-1.784 -4,-4 v -5 c 0,-2.216 1.784,-4 4,-4 2.216,0 4,1.784 4,4 v 5 c 0,2.216 -1.784,4 -4,4 3.324,0 6,-2.676 6,-6 v -3 c 0,-3.324 -2.676,-6 -6,-6 z"
     style="opacity:1;fill:#ffffff;fill-opacity:1;stroke:none;stroke-width:3.77952766;stroke-linecap:round;stroke-linejoin:round;stroke-miterlimit:4;stroke-dasharray:none;stroke-opacity:1" />
</svg>
