<?xml version="1.0" encoding="UTF-8"?>
<svg version="1.1" viewBox="0 0 32 32" xmlns="http://www.w3.org/2000/svg" xmlns:cc="http://creativecommons.org/ns#" xmlns:dc="http://purl.org/dc/elements/1.1/" xmlns:rdf="http://www.w3.org/1999/02/22-rdf-syntax-ns#">
<metadata>
<rdf:RDF>
<cc:Work rdf:about="">
<dc:format>image/svg+xml</dc:format>
<dc:type rdf:resource="http://purl.org/dc/dcmitype/StillImage"/>
<dc:creator>
<cc:Agent>
<dc:title>Jakub Steiner</dc:title>
</cc:Agent>
</dc:creator>
<dc:source>http://jimmac.musichall.cz</dc:source>
<cc:license rdf:resource="http://creativecommons.org/licenses/by-sa/2.0/"/>
<dc:title/>
<dc:subject>
<rdf:Bag>
<rdf:li>apparmor</rdf:li>
<rdf:li>novell</rdf:li>
</rdf:Bag>
</dc:subject>
</cc:Work>
<cc:License rdf:about="http://creativecommons.org/licenses/by-sa/2.0/">
<cc:permits rdf:resource="http://web.resource.org/cc/Reproduction"/>
<cc:permits rdf:resource="http://web.resource.org/cc/Distribution"/>
<cc:requires rdf:resource="http://web.resource.org/cc/Notice"/>
<cc:requires rdf:resource="http://web.resource.org/cc/Attribution"/>
<cc:permits rdf:resource="http://web.resource.org/cc/DerivativeWorks"/>
<cc:requires rdf:resource="http://web.resource.org/cc/ShareAlike"/>
</cc:License>
</rdf:RDF>
</metadata>
<rect x="10" y="19" width="15" height="3" ry="1" fill="#5e5c64"/>
<rect x="10" y="18" width="15" height="3" ry="1" fill="#9a9996"/>
<rect x="5" y="1" width="25" height="18" ry="1" fill="#5e5c64"/>
<rect x="5" y="1" width="25" height="17" ry="1" fill="#9a9996"/>
<rect x="6" y="2" width="23" height="15" ry="0" fill="#3d3846"/>
<rect x="7" y="3" width="21" height="13" fill="#241f31"/>
<path d="m19 16 4-13h-16v13z" fill="#fff" opacity=".2"/>
<rect x="6" y="28" width="15" height="3" ry="1" fill="#5e5c64"/>
<rect x="6" y="27" width="15" height="3" ry="1" fill="#9a9996"/>
<rect x="1" y="10" width="25" height="18" ry="1" fill="#5e5c64"/>
<rect x="1" y="10" width="25" height="17" ry="1" fill="#9a9996"/>
<rect x="2" y="11" width="23" height="15" ry="0" fill="#3d3846"/>
<rect x="3" y="12" width="21" height="13" fill="#241f31"/>
<path d="m15 25 4-13h-16v13z" fill="#fff" opacity=".2"/>
</svg>
