<?xml version="1.0" encoding="UTF-8" standalone="no"?>
<svg
   xmlns:dc="http://purl.org/dc/elements/1.1/"
   xmlns:cc="http://creativecommons.org/ns#"
   xmlns:rdf="http://www.w3.org/1999/02/22-rdf-syntax-ns#"
   xmlns:svg="http://www.w3.org/2000/svg"
   xmlns="http://www.w3.org/2000/svg"
   id="svg8"
   version="1.1"
   viewBox="0 0 64 64.000003"
   height="64"
   width="64">
  <defs
     id="defs2" />
  <metadata
     id="metadata5">
    <rdf:RDF>
      <cc:Work
         rdf:about="">
        <dc:format>image/svg+xml</dc:format>
        <dc:type
           rdf:resource="http://purl.org/dc/dcmitype/StillImage" />
        <dc:title></dc:title>
      </cc:Work>
    </rdf:RDF>
  </metadata>
  <g
     transform="translate(0,-1058.5197)"
     id="layer1">
    <rect
       ry="4.0000501"
       y="1064.5197"
       x="12"
       height="54.000046"
       width="40"
       id="rect1011-7"
       style="opacity:1;fill:#214478;fill-opacity:1;stroke:none;stroke-width:3.77952766;stroke-linecap:round;stroke-linejoin:round;stroke-miterlimit:4;stroke-dasharray:none;stroke-opacity:1" />
    <rect
       ry="4.0000501"
       y="1062.5197"
       x="12"
       height="54.000046"
       width="40"
       id="rect1011"
       style="opacity:1;fill:#3771c8;fill-opacity:1;stroke:none;stroke-width:3.77952766;stroke-linecap:round;stroke-linejoin:round;stroke-miterlimit:4;stroke-dasharray:none;stroke-opacity:1" />
    <path
       id="path1028-9"
       d="m 31,1069.5197 v 18 l -12,-12 v 4 l 11,11 -11,11 v 4 l 12,-12 v 16 l 14,-11 v -1 l -10,-8 10,-7 v -1 z m 3,7 7,5 -7,5 z m 0,16 7,5 -7,5 z"
       style="fill:#214478;fill-opacity:1;stroke:none;stroke-width:1px;stroke-linecap:butt;stroke-linejoin:miter;stroke-opacity:1" />
    <path
       id="path1028"
       d="m 31,1070.5197 v 18 l -12,-12 v 4 l 11,11 -11,11 v 4 l 12,-12 v 16 l 14,-12 -10,-8 10,-8 z m 3,7 7,5 -7,5 z m 0,16 7,5 -7,5 z"
       style="fill:#ffffff;stroke:none;stroke-width:1px;stroke-linecap:butt;stroke-linejoin:miter;stroke-opacity:1" />
  </g>
</svg>
