<?xml version="1.0" encoding="UTF-8"?>
<svg version="1.1" viewBox="0 0 32 32" xmlns="http://www.w3.org/2000/svg" xmlns:cc="http://creativecommons.org/ns#" xmlns:dc="http://purl.org/dc/elements/1.1/" xmlns:rdf="http://www.w3.org/1999/02/22-rdf-syntax-ns#">
<metadata>
<rdf:RDF>
<cc:Work rdf:about="">
<dc:format>image/svg+xml</dc:format>
<dc:type rdf:resource="http://purl.org/dc/dcmitype/StillImage"/>
<dc:creator>
<cc:Agent>
<dc:title>Jakub Steiner</dc:title>
</cc:Agent>
</dc:creator>
<dc:source>http://jimmac.musichall.cz</dc:source>
<cc:license rdf:resource="http://creativecommons.org/licenses/by-sa/2.0/"/>
<dc:title/>
<dc:subject>
<rdf:Bag>
<rdf:li>apparmor</rdf:li>
<rdf:li>novell</rdf:li>
</rdf:Bag>
</dc:subject>
</cc:Work>
<cc:License rdf:about="http://creativecommons.org/licenses/by-sa/2.0/">
<cc:permits rdf:resource="http://web.resource.org/cc/Reproduction"/>
<cc:permits rdf:resource="http://web.resource.org/cc/Distribution"/>
<cc:requires rdf:resource="http://web.resource.org/cc/Notice"/>
<cc:requires rdf:resource="http://web.resource.org/cc/Attribution"/>
<cc:permits rdf:resource="http://web.resource.org/cc/DerivativeWorks"/>
<cc:requires rdf:resource="http://web.resource.org/cc/ShareAlike"/>
</cc:License>
</rdf:RDF>
</metadata>
<rect x="2" y="6" width="28" height="22" fill="#f6f5f4"/>
<rect x="2" y="4" width="28" height="3" ry="1" fill="#c0bfbc"/>
<rect x="2" y="6" width="28" height="1" fill="#c0bfbc"/>
<rect x="2" y="7" width="1" height="21" fill="#9a9996"/>
<rect x="2" y="27" width="28" height="1" fill="#9a9996"/>
<rect x="29" y="7" width="1" height="21" fill="#9a9996"/>
<rect x="2" y="7" width="28" height="1" fill="#9a9996"/>
<rect x="28" y="5" width="1" height="1" ry=".5" fill="#3d3846"/>
<rect x="26" y="5" width="1" height="1" ry=".5" fill="#3d3846"/>
<rect x="24" y="5" width="1" height="1" ry=".5" fill="#3d3846"/>
<rect x="3" y="24" width="26" height="3" fill="#241f31"/>
<rect x="3" y="24" width="3" height="3" fill="#fff"/>
<rect x="25" y="25" width="3" height="1" fill="#fff"/>
<rect x="23" y="25" width="1" height="1" fill="#fff"/>
<rect x="21" y="25" width="1" height="1" fill="#fff"/>
<rect x="7" y="25" width="1" height="1" fill="#fff"/>
<rect x="9" y="25" width="6" height="1" fill="#fff"/>
<rect x="5" y="9" width="2" height="2" fill="#3d3846"/>
<rect x="4" y="12" width="4" height="1" fill="#3d3846"/>
<rect x="5" y="14" width="2" height="2" fill="#3d3846"/>
<rect x="4" y="17" width="4" height="1" fill="#3d3846"/>
<rect x="16" y="16" width="16" height="16" ry="1" fill="#f6f5f4"/>
<rect x="23" y="18" width="2" height="12" ry="0" fill="#3d3846"/>
<rect x="18" y="23" width="12" height="2" fill="#3d3846"/>
</svg>
