<?xml version="1.0" encoding="UTF-8"?>
<svg width="32" height="32" version="1.1" viewBox="0 0 32 32.000002" xmlns="http://www.w3.org/2000/svg" xmlns:cc="http://creativecommons.org/ns#" xmlns:dc="http://purl.org/dc/elements/1.1/" xmlns:rdf="http://www.w3.org/1999/02/22-rdf-syntax-ns#">
<metadata>
<rdf:RDF>
<cc:Work rdf:about="">
<dc:format>image/svg+xml</dc:format>
<dc:type rdf:resource="http://purl.org/dc/dcmitype/StillImage"/>
<dc:title/>
</cc:Work>
</rdf:RDF>
</metadata>
<path d="m4 7c-1.108 0-2 0.892-2 2v14c0 1.108 0.892 2 2 2h24c1.108 0 2-0.892 2-2v-14c0-1.108-0.892-2-2-2h-24z" fill="#f6d537"/>
<path d="m11 15l-8.4434 9.3828c0.36358 0.37951 0.87386 0.61719 1.4434 0.61719h24c0.5695 0 1.0798-0.23768 1.4434-0.61719l-8.4434-9.3828h-10z" fill="#f8e45c"/>
<path d="m4 7c-0.554 0-1.0545 0.22248-1.416 0.58398l10.416 10.416c2 2 4 2 6 0l10.416-10.416c-0.3615-0.3615-0.86202-0.58398-1.416-0.58398h-24z" fill="#f5f5f5"/>
<path d="m4 7c-0.81407 0-1.5075 0.48477-1.8203 1.1797l10.82 10.82c2 2 4 2 6 0l10.82-10.82c-0.31276-0.69491-1.0062-1.1797-1.8203-1.1797h-24z" fill="#5e5c64" opacity=".3"/>
<path d="m4 7c-0.554 0-1.0545 0.22248-1.416 0.58398l10.416 10.416c2 2 4 2 6 0l10.416-10.416c-0.3615-0.3615-0.86202-0.58398-1.416-0.58398h-24z" fill="#f8e45c"/>
</svg>
