<?xml version="1.0" encoding="UTF-8"?>
<svg version="1" viewBox="0 0 32 32" xmlns="http://www.w3.org/2000/svg" xmlns:cc="http://creativecommons.org/ns#" xmlns:dc="http://purl.org/dc/elements/1.1/" xmlns:rdf="http://www.w3.org/1999/02/22-rdf-syntax-ns#">
<metadata>
<rdf:RDF>
<cc:Work rdf:about="">
<dc:format>image/svg+xml</dc:format>
<dc:type rdf:resource="http://purl.org/dc/dcmitype/StillImage"/>
<dc:title/>
</cc:Work>
</rdf:RDF>
</metadata>
<defs>
<linearGradient id="c" x1="4.3691" x2="28.242" y1="16.429" y2="16.429" gradientUnits="userSpaceOnUse">
<stop stop-color="#9a9996" offset="0"/>
<stop stop-color="#9a9996" offset=".026425"/>
<stop stop-color="#c0bfbc" offset=".068313"/>
<stop stop-color="#9a9996" offset=".15209"/>
<stop stop-color="#9a9996" offset="1"/>
</linearGradient>
<linearGradient id="d" x1="5" x2="25" y1="7" y2="27" gradientUnits="userSpaceOnUse">
<stop stop-color="#deddda" offset="0"/>
<stop stop-color="#f6f5f4" offset="1"/>
</linearGradient>
</defs>
<path d="m10.869 5.3691c-0.71124 0.0023-2.002-1.002-2.002-1.002s-0.1165 1.3641-0.13086 1.3691l4.1328 4.1328c0.2761 0.27616 0.2761 0.72384 0 1l-3 3c-0.27616 0.2761-0.72384 0.2761-1 0l-4.1309-4.1309c-0.24117 0.68469-0.36594 1.4049-0.36914 2.1309 0 3.5899 2.9101 6.5 6.5 6.5 0.72592-0.003196 1.4462-0.12797 2.1309-0.36914l8.8691 8.8691 0.5 0.5 0.5 0.5c0.82848 0.82831 2.1715 0.82831 3 0l1.752-1.7352c0.82831-0.82848 0.82831-2.1715 0-3l-0.5-0.5-0.5-0.5-9.6191-8.132c0.24072-0.68542 0.36484-1.4064 0.36719-2.1328 0-3.5899-2.9101-6.5-6.5-6.5z" fill="url(#c)"/>
<path d="m11 4c-0.72646 0.0023501-1.4474 0.12647-2.1328 0.36719l4.1328 4.1328c0.2761 0.27616 0.2761 0.72384 0 1l-3 3c-0.27616 0.2761-0.72384 0.2761-1 0l-4.1309-4.1309c-0.24117 0.68469-0.36594 1.4049-0.36914 2.1309 0 3.5899 2.9101 6.5 6.5 6.5 0.72592-0.0032 1.4462-0.12797 2.1309-0.36914l8.8691 8.8691 0.5 0.5 0.5 0.5c0.82848 0.82831 2.1715 0.82831 3 0l1-1c0.82831-0.82848 0.82831-2.1715 0-3l-0.5-0.5-0.5-0.5-8.8672-8.8672c0.24072-0.68542 0.36484-1.4064 0.36719-2.1328 0-3.5899-2.9101-6.5-6.5-6.5z" fill="url(#d)"/>
</svg>
